<svg xmlns="http://www.w3.org/2000/svg" x="0px" y="0px" width="191px" height="30px" viewBox="0 0 191 30" enable-background="new 0 0 191 30" xml:space="preserve"><defs><style>.a{fill:#ba478f;}.b{fill:#eb743b;}</style></defs><polygon class="a" points="12 0 0 7 0 21 12 28 12 0"/><polygon class="b" points="13 0 25 7 25 21 13 28 13 0"/><path class="a" d="M40.2,5.52l4.44,13.85L49.07,5.52h6.32V25.43H50.57V20.78L51,11.27,46.23,25.43H43.05L38.23,11.25l0.46,9.53v4.65h-4.8V5.52h6.3Z" transform="translate(-2 -1)"/><path class="a" d="M67,23.83a4.9,4.9,0,0,1-1.68,1.38,5,5,0,0,1-2.27.49,6.22,6.22,0,0,1-2-.31,3.89,3.89,0,0,1-1.56-1,4.51,4.51,0,0,1-1-1.71,7.7,7.7,0,0,1-.36-2.51V10.64h4.61v9.6a2,2,0,0,0,.47,1.45,1.88,1.88,0,0,0,1.37.46,2.87,2.87,0,0,0,1.4-.3A2.24,2.24,0,0,0,66.86,21V10.64h4.63V25.43H67.17Z" transform="translate(-2 -1)"/><path class="a" d="M81.76,21.27a1,1,0,0,0-.13-0.51,1.3,1.3,0,0,0-.46-0.42A4.21,4.21,0,0,0,80.28,20q-0.56-.18-1.42-0.37a12.89,12.89,0,0,1-2-.61,6.57,6.57,0,0,1-1.65-.93,4.14,4.14,0,0,1-1.11-1.31,3.59,3.59,0,0,1-.4-1.72,4.12,4.12,0,0,1,.4-1.79,4.34,4.34,0,0,1,1.18-1.49,5.88,5.88,0,0,1,1.91-1,8.2,8.2,0,0,1,2.58-.38,9.48,9.48,0,0,1,2.69.36,6.34,6.34,0,0,1,2,1,4.41,4.41,0,0,1,1.29,1.52,4.21,4.21,0,0,1,.45,1.95H81.61a1.88,1.88,0,0,0-.42-1.31,1.89,1.89,0,0,0-1.45-.46,2.08,2.08,0,0,0-.66.1,1.75,1.75,0,0,0-.54.29,1.38,1.38,0,0,0-.37.44,1.22,1.22,0,0,0-.14.57,1.14,1.14,0,0,0,.58,1,5.41,5.41,0,0,0,1.88.63,18.45,18.45,0,0,1,2.15.53,6.79,6.79,0,0,1,1.83.86,4.15,4.15,0,0,1,1.26,1.35,3.87,3.87,0,0,1,.47,2A3.76,3.76,0,0,1,85.75,23a4.31,4.31,0,0,1-1.29,1.44,6.61,6.61,0,0,1-2,1,9.52,9.52,0,0,1-2.68.35,8.14,8.14,0,0,1-2.82-.45,6.56,6.56,0,0,1-2.05-1.17,4.92,4.92,0,0,1-1.25-1.61,4.14,4.14,0,0,1-.42-1.78h4.31a1.78,1.78,0,0,0,.68,1.5,2.81,2.81,0,0,0,1.68.47,2.21,2.21,0,0,0,1.42-.38A1.22,1.22,0,0,0,81.76,21.27Z" transform="translate(-2 -1)"/><path class="a" d="M88.32,6.82a2.17,2.17,0,0,1,.18-0.9A2.07,2.07,0,0,1,89,5.21a2.44,2.44,0,0,1,.81-0.46,3.37,3.37,0,0,1,2.08,0,2.44,2.44,0,0,1,.81.46,2.07,2.07,0,0,1,.53.71,2.3,2.3,0,0,1,0,1.8,2.07,2.07,0,0,1-.53.71,2.44,2.44,0,0,1-.81.46,3.37,3.37,0,0,1-2.08,0A2.44,2.44,0,0,1,89,8.44a2.07,2.07,0,0,1-.53-0.71A2.17,2.17,0,0,1,88.32,6.82Zm4.89,18.61H88.6V10.64h4.62V25.43Z" transform="translate(-2 -1)"/><path class="a" d="M102.31,22.15a2.05,2.05,0,0,0,1.5-.53,1.93,1.93,0,0,0,.52-1.47h4.32a5.35,5.35,0,0,1-.47,2.28,5.22,5.22,0,0,1-1.31,1.75,5.88,5.88,0,0,1-2,1.13,8.13,8.13,0,0,1-5.51-.18,6,6,0,0,1-2.17-1.58,6.7,6.7,0,0,1-1.31-2.38,9.74,9.74,0,0,1-.44-3V17.88a9.81,9.81,0,0,1,.44-3,6.75,6.75,0,0,1,1.3-2.39,6,6,0,0,1,2.15-1.58,7.37,7.37,0,0,1,3-.57,7.81,7.81,0,0,1,2.55.4,5.57,5.57,0,0,1,2,1.16,5.18,5.18,0,0,1,1.29,1.87,6.53,6.53,0,0,1,.46,2.52h-4.32a3.62,3.62,0,0,0-.12-0.93,2,2,0,0,0-.38-0.76,1.83,1.83,0,0,0-.65-0.51,2.14,2.14,0,0,0-.92-0.18,1.87,1.87,0,0,0-1.14.32,2.07,2.07,0,0,0-.66.86,4.3,4.3,0,0,0-.31,1.26,14.81,14.81,0,0,0-.08,1.52V18.2a14.89,14.89,0,0,0,.08,1.54,4.3,4.3,0,0,0,.31,1.26,1.93,1.93,0,0,0,.68.85A2,2,0,0,0,102.31,22.15Z" transform="translate(-2 -1)"/><path class="b" d="M110.81,25.43V5.52H118a14.77,14.77,0,0,1,3.3.33,7.29,7.29,0,0,1,2.47,1,4.6,4.6,0,0,1,1.54,1.72,5.22,5.22,0,0,1,.53,2.43,5.69,5.69,0,0,1-.15,1.32,4.21,4.21,0,0,1-.49,1.2,3.92,3.92,0,0,1-.87,1,4.45,4.45,0,0,1-1.3.73,4.56,4.56,0,0,1,1.5.67,3.89,3.89,0,0,1,1,1,4,4,0,0,1,.55,1.24,5.36,5.36,0,0,1,.17,1.35A5.26,5.26,0,0,1,124.35,24a9,9,0,0,1-5.59,1.47h-7.94Zm4.8-11.61h2.5a3.56,3.56,0,0,0,2.24-.57,2,2,0,0,0,.67-1.65,2.14,2.14,0,0,0-.72-1.81A3.89,3.89,0,0,0,118,9.23h-2.35v4.59Zm0,3.14v4.77h3.14a3.8,3.8,0,0,0,1.24-.18,2.25,2.25,0,0,0,.83-0.49,1.88,1.88,0,0,0,.47-0.72,2.55,2.55,0,0,0,.15-0.89,3.69,3.69,0,0,0-.14-1,1.92,1.92,0,0,0-.44-0.79,2,2,0,0,0-.78-0.5,3.36,3.36,0,0,0-1.16-.18h-3.32Z" transform="translate(-2 -1)"/><path class="b" d="M137.61,14.81l-0.33,0-0.41,0-0.42,0h-0.36a4.09,4.09,0,0,0-1.79.33,2.06,2.06,0,0,0-1,1v9.37H128.7V10.64H133l0.15,1.9a4.51,4.51,0,0,1,1.36-1.6,3.18,3.18,0,0,1,1.88-.57,5.57,5.57,0,0,1,.68,0,3.68,3.68,0,0,1,.61.12Z" transform="translate(-2 -1)"/><path class="b" d="M147.19,25.43a3.19,3.19,0,0,1-.25-0.61q-0.1-.34-0.18-0.72a4.24,4.24,0,0,1-3.55,1.6,5.66,5.66,0,0,1-1.93-.33,5.11,5.11,0,0,1-1.59-.91,4.31,4.31,0,0,1-1.09-1.4,4,4,0,0,1-.4-1.8,4.83,4.83,0,0,1,.42-2.05,3.89,3.89,0,0,1,1.27-1.52,6.3,6.3,0,0,1,2.16-1,12.56,12.56,0,0,1,3.1-.33h1.42V15.61a2.43,2.43,0,0,0-.41-1.49,1.58,1.58,0,0,0-1.35-.55,1.71,1.71,0,0,0-1.22.4,1.59,1.59,0,0,0-.42,1.22h-4.61a4.11,4.11,0,0,1,.46-1.91,4.49,4.49,0,0,1,1.31-1.53,6.54,6.54,0,0,1,2-1,9,9,0,0,1,2.67-.37,8.76,8.76,0,0,1,2.45.33,5.5,5.5,0,0,1,1.95,1,4.61,4.61,0,0,1,1.29,1.65,5.38,5.38,0,0,1,.46,2.3V21.7q0,0.73,0,1.26a7.71,7.71,0,0,0,.12.94,5,5,0,0,0,.2.72,4.26,4.26,0,0,0,.27.59v0.23h-4.61Zm-2.88-3a2.57,2.57,0,0,0,1.43-.37,2.32,2.32,0,0,0,.81-0.83V18.85H145.1A2.94,2.94,0,0,0,144,19a1.85,1.85,0,0,0-.71.48,1.8,1.8,0,0,0-.38.69,2.84,2.84,0,0,0-.12.81,1.32,1.32,0,0,0,.42,1A1.53,1.53,0,0,0,144.31,22.42Z" transform="translate(-2 -1)"/><path class="b" d="M153.69,6.82a2.17,2.17,0,0,1,.18-0.9,2.07,2.07,0,0,1,.53-0.71,2.44,2.44,0,0,1,.81-0.46,3.37,3.37,0,0,1,2.08,0,2.44,2.44,0,0,1,.81.46,2.07,2.07,0,0,1,.53.71,2.3,2.3,0,0,1,0,1.8,2.07,2.07,0,0,1-.53.71,2.44,2.44,0,0,1-.81.46,3.37,3.37,0,0,1-2.08,0,2.44,2.44,0,0,1-.81-0.46,2.07,2.07,0,0,1-.53-0.71A2.17,2.17,0,0,1,153.69,6.82Zm4.89,18.61H154V10.64h4.62V25.43Z" transform="translate(-2 -1)"/><path class="b" d="M165.65,10.64l0.15,1.74a5,5,0,0,1,1.83-1.5,5.5,5.5,0,0,1,2.4-.51,5.74,5.74,0,0,1,1.88.29,3.5,3.5,0,0,1,1.47,1,4.59,4.59,0,0,1,1,1.78,9.43,9.43,0,0,1,.33,2.71v9.31H170V16.11A3.48,3.48,0,0,0,169.9,15a1.58,1.58,0,0,0-.41-0.67,1.41,1.41,0,0,0-.66-0.33,4,4,0,0,0-.88-0.09,2.37,2.37,0,0,0-1.22.29,2.26,2.26,0,0,0-.79.78V25.43h-4.61V10.64h4.32Z" transform="translate(-2 -1)"/><path class="b" d="M182.64,21.88h6.74v3.55H176.82V22.86l6.56-8.67h-6.28V10.64h12.13v2.49Z" transform="translate(-2 -1)"/></svg>