<svg xmlns="http://www.w3.org/2000/svg" xmlns:xlink="http://www.w3.org/1999/xlink" width="145" height="160"><path fill="#EB743B" d="M72.678 7.823v144l61-35v-74z"/><path fill="#4E7EC2" d="M67.678 7.823l-61 35v74l61 35z"/><g opacity=".07"><defs><path id="a" d="M72.678 33.239h51.432v90.792H72.678z"/></defs><clipPath id="b"><use xlink:href="#a" overflow="visible"/></clipPath><path clip-path="url(#b)" d="M89.98 99.557a2.1 2.1 0 011.819-1.03c.378 0 .752.104 1.078.297a2.12 2.12 0 01.735 2.898 2.096 2.096 0 01-1.817 1.032c-.379 0-.755-.105-1.084-.301a2.095 2.095 0 01-.964-1.294 2.1 2.1 0 01.233-1.602m12.602 22.362a2.121 2.121 0 01-2.981-.225 2.116 2.116 0 01.231-2.981 2.08 2.08 0 011.373-.512 2.117 2.117 0 012.109 2.278 2.086 2.086 0 01-.732 1.44M93.058 63.08a2.128 2.128 0 012.916-.656 2.12 2.12 0 01.66 2.919 2.115 2.115 0 01-2.919.661 2.127 2.127 0 01-.657-2.924m6.379-20.187c-.6.951-1.937 1.271-2.912.653l-.096-.062a2.107 2.107 0 01-.557-2.851 2.093 2.093 0 011.784-.98 2.11 2.11 0 011.781 3.24M116.203 54.491a2.096 2.096 0 011.783-.98c.4 0 .79.113 1.125.325.481.304.813.775.937 1.33a2.08 2.08 0 01-.28 1.584c-.597.951-1.938 1.273-2.912.653l-.093-.062a2.104 2.104 0 01-.56-2.85m0 23.463a2.096 2.096 0 011.783-.98c.4 0 .79.112 1.125.326.481.304.813.774.937 1.329a2.083 2.083 0 01-.28 1.585c-.597.95-1.938 1.271-2.912.652l-.093-.062a2.104 2.104 0 01-.56-2.85m0 26.303a2.099 2.099 0 011.783-.98c.4 0 .79.113 1.125.326.481.304.813.775.937 1.33a2.08 2.08 0 01-.28 1.584c-.597.951-1.938 1.271-2.912.653l-.093-.062a2.106 2.106 0 01-.56-2.851"/><path clip-path="url(#b)" d="M105.853 113.927a6.11 6.11 0 00-8.631-.662 6.12 6.12 0 00-2.087 5.396c-1.948.701-4.258 1.366-5.328 1.332-.822-.043-1.302-.345-2.224-.971-1.172-.795-2.418-1.512-4.148-1.847 2.935-2.761 6.008-6.83 8.584-12.834a6.15 6.15 0 005.038-2.972c1.724-2.896.773-6.659-2.124-8.394a6.133 6.133 0 00-3.134-.864 6.154 6.154 0 00-5.261 2.986 6.079 6.079 0 00-.678 4.636 6.075 6.075 0 002.302 3.429c-4.053 9.218-9.219 13.08-12.565 14.685a2.016 2.016 0 00-.361.168c-1.186.531-2.049.704-2.558.808v4c.275-.03 1.884-.118 4.247-1.192 5.347-1.357 6.839-.354 8.407.709 1.021.692 2.291 1.554 4.263 1.655.099.006.204.009.308.009 2.11 0 5.172-1.022 7.021-1.723a6.132 6.132 0 004.285 1.75 6.112 6.112 0 003.983-1.476 6.072 6.072 0 002.119-4.176 6.072 6.072 0 00-1.458-4.452M89.98 97.151a2.114 2.114 0 013.632 2.165 2.096 2.096 0 01-1.817 1.032c-.379 0-.755-.105-1.084-.301a2.095 2.095 0 01-.964-1.294 2.101 2.101 0 01.233-1.602m12.602 22.363a2.121 2.121 0 01-2.981-.225 2.116 2.116 0 01.231-2.981 2.08 2.08 0 011.373-.512 2.117 2.117 0 012.109 2.278 2.086 2.086 0 01-.732 1.44M103.627 38.027a6.088 6.088 0 00-2.708-3.844 6.12 6.12 0 00-3.264-.944 6.076 6.076 0 00-5.174 2.85 6.11 6.11 0 00.143 6.758c-3.645 4.124-8.706 4.314-9.942 4.293-3.692-1.604-7.234-2.164-10.005-2.317v3.996c2.442.144 5.553.686 8.748 2.136.005.002.01.002.015.005 3.445 1.562 6.334 3.927 8.607 7.041a6.61 6.61 0 00-.382.538c-1.795 2.854-.942 6.643 1.904 8.444.98.622 2.111.951 3.269.951a6.105 6.105 0 005.183-2.851c1.806-2.851.951-6.642-1.908-8.453-1.384-.872-3.092-1.114-4.667-.755-1.538-2.155-3.324-4.017-5.345-5.567 2.517-.778 5.401-2.268 7.78-5.095a6.18 6.18 0 001.77.266 6.08 6.08 0 005.172-2.848 6.048 6.048 0 00.804-4.604M93.058 60.674a2.128 2.128 0 012.916-.656 2.12 2.12 0 01.66 2.919 2.115 2.115 0 01-2.919.661 2.127 2.127 0 01-.657-2.924m6.379-20.187c-.6.951-1.937 1.271-2.912.653l-.096-.062a2.107 2.107 0 01-.557-2.851 2.093 2.093 0 011.784-.98 2.11 2.11 0 011.781 3.24"/><path clip-path="url(#b)" d="M112.323 79.011a6.04 6.04 0 002.393 2.84c.981.621 2.11.949 3.267.949a6.083 6.083 0 005.173-2.848 6.064 6.064 0 00.805-4.605 6.103 6.103 0 00-2.709-3.844 6.128 6.128 0 00-3.266-.944c-.125 0-.25.008-.375.018-.71-3.158-.919-7.769.035-11.265.113.011.225.024.337.024a6.08 6.08 0 005.173-2.848 6.062 6.062 0 00.805-4.604 6.103 6.103 0 00-2.709-3.844 6.128 6.128 0 00-3.266-.944 6.079 6.079 0 00-5.173 2.85 6.104 6.104 0 001.025 7.764c.021.02.048.037.071.059-1.349 4.518-1.145 10.324-.036 14.417-.144.132-.294.254-.426.399a6.327 6.327 0 00-.634.825 6.2 6.2 0 00-.71 1.578c-3.371.488-5.198 1.671-6.824 2.729-2.035 1.324-3.961 2.572-9.636 2.666-1.963-.23-3.552-.178-5.29-.116-1.43.052-2.91.105-4.848.003-1.335-.071-2.104-.882-3.458-2.424-1.803-2.055-4.219-4.648-9.369-5.022v4c3.295.299 4.795 1.887 6.356 3.667 1.487 1.694 3.175 3.615 6.256 3.782 2.118.114 3.76.052 5.208.001 2.491-.092 4.453-.161 7.855.683 2.608.644 12.099 9.674 14.774 14.323-.109.142-.219.282-.314.434-1.743 2.755-1.026 6.385 1.619 8.251.073.052.152.104.284.191.981.621 2.11.948 3.267.948a6.081 6.081 0 005.173-2.849 6.06 6.06 0 00.805-4.603 6.1 6.1 0 00-2.709-3.845 6.128 6.128 0 00-4.809-.749c-2.56-4.188-8.652-10.455-13.189-13.792 1.813-.628 3.05-1.436 4.212-2.188 1.427-.93 2.614-1.69 4.857-2.067m3.88-26.926a2.096 2.096 0 011.783-.98c.4 0 .79.113 1.125.325.481.304.813.775.937 1.33a2.08 2.08 0 01-.28 1.584c-.597.951-1.938 1.273-2.912.653l-.093-.062a2.104 2.104 0 01-.56-2.85m0 23.463a2.096 2.096 0 011.783-.98c.4 0 .79.112 1.125.326.481.304.813.774.937 1.329a2.083 2.083 0 01-.28 1.585c-.597.95-1.938 1.272-2.912.652l-.093-.062a2.104 2.104 0 01-.56-2.85m0 26.304a2.099 2.099 0 011.783-.98c.4 0 .79.113 1.125.326.481.304.813.775.937 1.33a2.08 2.08 0 01-.28 1.584c-.597.951-1.938 1.271-2.912.653l-.093-.062a2.106 2.106 0 01-.56-2.851"/></g><path fill="#D3562C" d="M105.853 116.927a6.11 6.11 0 00-8.631-.662 6.12 6.12 0 00-2.087 5.396c-1.948.701-4.258 1.366-5.328 1.332-.822-.043-1.302-.345-2.224-.971-1.172-.795-2.418-1.512-4.148-1.847 2.935-2.761 6.008-6.83 8.584-12.834a6.15 6.15 0 005.038-2.972c1.724-2.896.773-6.659-2.124-8.394a6.133 6.133 0 00-3.134-.864 6.154 6.154 0 00-5.261 2.986 6.079 6.079 0 00-.678 4.636 6.075 6.075 0 002.302 3.429c-4.053 9.218-9.219 13.08-12.565 14.685a2.016 2.016 0 00-.361.168c-1.186.531-2.049.704-2.558.808v4c.275-.03 1.884-.118 4.247-1.192 5.347-1.357 6.839-.354 8.407.709 1.021.692 2.291 1.554 4.263 1.655.099.006.204.009.308.009 2.11 0 5.172-1.022 7.021-1.723a6.132 6.132 0 004.285 1.75 6.112 6.112 0 003.983-1.476 6.072 6.072 0 002.119-4.176 6.072 6.072 0 00-1.458-4.452M89.98 100.151a2.114 2.114 0 013.632 2.165 2.096 2.096 0 01-1.817 1.032c-.379 0-.755-.105-1.084-.301a2.095 2.095 0 01-.964-1.294 2.101 2.101 0 01.233-1.602m12.602 22.363a2.121 2.121 0 01-2.981-.225 2.116 2.116 0 01.231-2.981 2.08 2.08 0 011.373-.512 2.117 2.117 0 012.109 2.278 2.086 2.086 0 01-.732 1.44"/><path d="M81.679 53.434"/><path fill="#D3562C" d="M103.627 41.031a6.088 6.088 0 00-2.708-3.844 6.12 6.12 0 00-3.264-.944 6.076 6.076 0 00-5.174 2.85 6.11 6.11 0 00.143 6.758c-3.645 4.124-8.706 4.314-9.942 4.293-3.692-1.604-7.234-2.164-10.005-2.317v3.996c2.442.144 5.553.686 8.748 2.136.005.002.01.002.015.005 3.445 1.562 6.334 3.927 8.607 7.041a6.441 6.441 0 00-.382.538c-1.795 2.854-.942 6.643 1.904 8.444.98.622 2.111.951 3.269.951a6.105 6.105 0 005.183-2.851c1.806-2.851.951-6.642-1.908-8.453-1.384-.872-3.092-1.114-4.667-.755-1.538-2.155-3.324-4.017-5.345-5.567 2.517-.778 5.401-2.268 7.78-5.095a6.18 6.18 0 001.77.266 6.08 6.08 0 005.172-2.849 6.046 6.046 0 00.804-4.603M93.058 63.678a2.128 2.128 0 012.916-.656 2.12 2.12 0 01.66 2.919 2.115 2.115 0 01-2.919.661 2.127 2.127 0 01-.657-2.924m6.379-20.187c-.6.951-1.937 1.271-2.912.653l-.096-.062a2.107 2.107 0 01-.557-2.851 2.093 2.093 0 011.784-.98 2.11 2.11 0 011.781 3.24"/><path fill="#D3562C" d="M112.323 82.011a6.04 6.04 0 002.393 2.84c.981.621 2.11.949 3.267.949a6.081 6.081 0 005.173-2.849 6.063 6.063 0 00.805-4.604 6.103 6.103 0 00-2.709-3.844 6.128 6.128 0 00-3.266-.944c-.125 0-.25.008-.375.018-.71-3.158-.919-7.769.035-11.265.113.011.225.024.337.024a6.08 6.08 0 005.173-2.848 6.062 6.062 0 00.805-4.604 6.103 6.103 0 00-2.709-3.844 6.128 6.128 0 00-3.266-.944 6.079 6.079 0 00-5.173 2.85 6.104 6.104 0 001.025 7.764c.021.02.048.037.071.059-1.349 4.518-1.145 10.324-.036 14.417-.144.132-.294.254-.426.399a6.327 6.327 0 00-.634.825 6.2 6.2 0 00-.71 1.578c-3.371.488-5.198 1.671-6.824 2.729-2.035 1.323-3.961 2.571-9.636 2.665-1.963-.23-3.552-.178-5.29-.116-1.43.052-2.91.105-4.848.003-1.335-.071-2.104-.882-3.458-2.424-1.803-2.055-4.219-4.648-9.369-5.022v4c3.295.298 4.795 1.887 6.356 3.667 1.487 1.694 3.175 3.615 6.256 3.782 2.118.114 3.76.052 5.208.001 2.491-.092 4.453-.161 7.855.683 2.608.644 12.099 9.674 14.774 14.323-.109.142-.219.282-.314.434-1.743 2.755-1.026 6.385 1.619 8.251.073.052.152.104.284.191.981.621 2.11.948 3.267.948a6.081 6.081 0 005.173-2.849 6.06 6.06 0 00.805-4.603 6.1 6.1 0 00-2.709-3.845 6.128 6.128 0 00-4.809-.749c-2.56-4.188-8.652-10.455-13.189-13.792 1.813-.628 3.05-1.436 4.212-2.188 1.427-.929 2.614-1.689 4.857-2.066m3.88-26.926a2.096 2.096 0 011.783-.98c.4 0 .79.113 1.125.325.481.304.813.775.937 1.33a2.08 2.08 0 01-.28 1.584c-.597.951-1.938 1.273-2.912.653l-.093-.062a2.104 2.104 0 01-.56-2.85m0 23.463a2.096 2.096 0 011.783-.98c.4 0 .79.112 1.125.326.481.304.813.774.937 1.329a2.084 2.084 0 01-.28 1.585c-.597.95-1.938 1.271-2.912.652l-.093-.062a2.104 2.104 0 01-.56-2.85m0 26.304a2.099 2.099 0 011.783-.98c.4 0 .79.113 1.125.326.481.304.813.775.937 1.33a2.08 2.08 0 01-.28 1.584c-.597.951-1.938 1.271-2.912.653l-.093-.062a2.106 2.106 0 01-.56-2.851"/><path fill="#FFFEDB" d="M105.853 113.927a6.11 6.11 0 00-8.631-.662 6.12 6.12 0 00-2.087 5.396c-1.948.701-4.258 1.366-5.328 1.332-.822-.043-1.302-.345-2.224-.971-1.172-.795-2.418-1.512-4.148-1.847 2.935-2.761 6.008-6.83 8.584-12.834a6.15 6.15 0 005.038-2.972c1.724-2.896.773-6.659-2.124-8.394a6.133 6.133 0 00-3.134-.864 6.154 6.154 0 00-5.261 2.986 6.079 6.079 0 00-.678 4.636 6.075 6.075 0 002.302 3.429c-4.053 9.218-9.219 13.08-12.565 14.685a2.016 2.016 0 00-.361.168c-1.186.531-2.049.704-2.558.808v4c.275-.03 1.884-.118 4.247-1.192 5.347-1.357 6.839-.354 8.407.709 1.021.692 2.291 1.554 4.263 1.655.099.006.204.009.308.009 2.11 0 5.172-1.022 7.021-1.723a6.132 6.132 0 004.285 1.75 6.112 6.112 0 003.983-1.476 6.072 6.072 0 002.119-4.176 6.072 6.072 0 00-1.458-4.452M89.98 97.151a2.114 2.114 0 013.632 2.165 2.096 2.096 0 01-1.817 1.032c-.379 0-.755-.105-1.084-.301a2.095 2.095 0 01-.964-1.294 2.101 2.101 0 01.233-1.602m12.602 22.363a2.121 2.121 0 01-2.981-.225 2.116 2.116 0 01.231-2.981 2.08 2.08 0 011.373-.512 2.117 2.117 0 012.109 2.278 2.086 2.086 0 01-.732 1.44M103.627 38.027a6.088 6.088 0 00-2.708-3.844 6.12 6.12 0 00-3.264-.944 6.076 6.076 0 00-5.174 2.85 6.11 6.11 0 00.143 6.758c-3.645 4.124-8.706 4.314-9.942 4.293-3.692-1.604-7.234-2.164-10.005-2.317v3.996c2.442.144 5.553.686 8.748 2.136.005.002.01.002.015.005 3.445 1.562 6.334 3.927 8.607 7.041a6.61 6.61 0 00-.382.538c-1.795 2.854-.942 6.643 1.904 8.444.98.622 2.111.951 3.269.951a6.105 6.105 0 005.183-2.851c1.806-2.851.951-6.642-1.908-8.453-1.384-.872-3.092-1.114-4.667-.755-1.538-2.155-3.324-4.017-5.345-5.567 2.517-.778 5.401-2.268 7.78-5.095a6.18 6.18 0 001.77.266 6.08 6.08 0 005.172-2.848 6.048 6.048 0 00.804-4.604M93.058 60.674a2.128 2.128 0 012.916-.656 2.12 2.12 0 01.66 2.919 2.115 2.115 0 01-2.919.661 2.127 2.127 0 01-.657-2.924m6.379-20.187c-.6.951-1.937 1.271-2.912.653l-.096-.062a2.107 2.107 0 01-.557-2.851 2.093 2.093 0 011.784-.98 2.11 2.11 0 011.781 3.24"/><path fill="#FFFEDB" d="M112.323 79.011a6.04 6.04 0 002.393 2.84c.981.621 2.11.949 3.267.949a6.083 6.083 0 005.173-2.848 6.064 6.064 0 00.805-4.605 6.103 6.103 0 00-2.709-3.844 6.128 6.128 0 00-3.266-.944c-.125 0-.25.008-.375.018-.71-3.158-.919-7.769.035-11.265.113.011.225.024.337.024a6.08 6.08 0 005.173-2.848 6.062 6.062 0 00.805-4.604 6.103 6.103 0 00-2.709-3.844 6.128 6.128 0 00-3.266-.944 6.079 6.079 0 00-5.173 2.85 6.104 6.104 0 001.025 7.764c.021.02.048.037.071.059-1.349 4.518-1.145 10.324-.036 14.417-.144.132-.294.254-.426.399a6.327 6.327 0 00-.634.825 6.2 6.2 0 00-.71 1.578c-3.371.488-5.198 1.671-6.824 2.729-2.035 1.324-3.961 2.572-9.636 2.666-1.963-.23-3.552-.178-5.29-.116-1.43.052-2.91.105-4.848.003-1.335-.071-2.104-.882-3.458-2.424-1.803-2.055-4.219-4.648-9.369-5.022v4c3.295.299 4.795 1.887 6.356 3.667 1.487 1.694 3.175 3.615 6.256 3.782 2.118.114 3.76.052 5.208.001 2.491-.092 4.453-.161 7.855.683 2.608.644 12.099 9.674 14.774 14.323-.109.142-.219.282-.314.434-1.743 2.755-1.026 6.385 1.619 8.251.073.052.152.104.284.191.981.621 2.11.948 3.267.948a6.081 6.081 0 005.173-2.849 6.06 6.06 0 00.805-4.603 6.1 6.1 0 00-2.709-3.845 6.128 6.128 0 00-4.809-.749c-2.56-4.188-8.652-10.455-13.189-13.792 1.813-.628 3.05-1.436 4.212-2.188 1.427-.93 2.614-1.69 4.857-2.067m3.88-26.926a2.096 2.096 0 011.783-.98c.4 0 .79.113 1.125.325.481.304.813.775.937 1.33a2.08 2.08 0 01-.28 1.584c-.597.951-1.938 1.273-2.912.653l-.093-.062a2.104 2.104 0 01-.56-2.85m0 23.463a2.096 2.096 0 011.783-.98c.4 0 .79.112 1.125.326.481.304.813.774.937 1.329a2.083 2.083 0 01-.28 1.585c-.597.95-1.938 1.272-2.912.652l-.093-.062a2.104 2.104 0 01-.56-2.85m0 26.304a2.099 2.099 0 011.783-.98c.4 0 .79.113 1.125.326.481.304.813.775.937 1.33a2.08 2.08 0 01-.28 1.584c-.597.951-1.938 1.271-2.912.653l-.093-.062a2.106 2.106 0 01-.56-2.851M56.678 24.823h6v4h-6zM56.678 31.823h6v4h-6zM56.678 38.823h6v4h-6zM56.678 45.823h6v4h-6zM56.678 52.823h6v4h-6zM56.678 59.823h6v4h-6zM56.678 66.823h6v4h-6zM56.678 73.823h6v4h-6z"/><path fill="#8DB2E3" d="M56.678 80.823h6v4h-6zM56.678 87.823h6v4h-6zM56.678 94.823h6v4h-6zM56.678 101.823h6v4h-6zM56.678 108.823h6v4h-6zM56.678 115.823h6v4h-6zM56.678 122.823h6v4h-6zM56.678 129.823h6v4h-6z"/><path fill="#FFFEDB" d="M47.678 38.823h6v4h-6zM47.678 45.823h6v4h-6zM47.678 52.823h6v4h-6zM47.678 59.823h6v4h-6zM47.678 66.823h6v4h-6zM47.678 73.823h6v4h-6z"/><path fill="#8DB2E3" d="M47.678 80.823h6v4h-6zM47.678 87.823h6v4h-6zM47.678 94.823h6v4h-6zM47.678 101.823h6v4h-6zM47.678 108.823h6v4h-6zM47.678 115.823h6v4h-6z"/><path fill="#FFFEDB" d="M38.678 66.823h6v4h-6zM38.678 73.823h6v4h-6z"/><path fill="#8DB2E3" d="M38.678 80.823h6v4h-6zM38.678 87.823h6v4h-6z"/><path fill="#FFFEDB" d="M29.678 52.823h6v4h-6zM29.678 59.823h6v4h-6zM29.678 66.823h6v4h-6zM29.678 73.823h6v4h-6z"/><path fill="#8DB2E3" d="M29.678 80.823h6v4h-6zM29.678 87.823h6v4h-6zM29.678 94.823h6v4h-6zM29.678 101.823h6v4h-6z"/><path fill="#FFFEDB" d="M20.678 73.823h6v4h-6z"/><path fill="#8DB2E3" d="M20.678 80.823h6v4h-6z"/><path fill="#FFFEDB" d="M11.678 66.823h6v4h-6zM11.678 73.823h6v4h-6z"/><path fill="#8DB2E3" d="M11.678 80.823h6v4h-6zM11.678 87.823h6v4h-6z"/></svg>