<svg xmlns="http://www.w3.org/2000/svg" viewBox="0 0 243.41 276"><defs><style>.cls-1{fill:#eb753a;}.cls-2{fill:#59a954;}.cls-3{opacity:0.07;}.cls-4{fill:#010101;}.cls-5{fill:#d4572b;}.cls-6{fill:#fefbdc;}.cls-7{fill:#448940;}</style></defs><title>MetaBrainz</title><g id="Layer_2" data-name="Layer 2"><g id="Layer_1-2" data-name="Layer 1"><polygon class="cls-1" points="126.5 0 126.5 276 243.41 208.91 243.41 67.08 126.5 0"/><polygon class="cls-2" points="116.92 0 0 67.08 0 208.91 116.92 276 116.92 0"/><g class="cls-3"><path class="cls-4" d="M159.68,175.83a4,4,0,1,1-.44,3.07A4,4,0,0,1,159.68,175.83Zm24.15,42.86a4,4,0,1,1-2.64-7.13,4.06,4.06,0,0,1,4.06,4.06h0v.3A4,4,0,0,1,183.83,218.69Z"/><path class="cls-4" d="M143.75,87.42Z"/><path class="cls-4" d="M165.56,105.91a4,4,0,1,1,0,4.24A4,4,0,0,1,165.56,105.91Zm12.19-38.69a4.1,4.1,0,0,1-5.58,1.25l-.19-.12a4.05,4.05,0,1,1,5.77-1.13Z"/><path class="cls-4" d="M209.93,89.45a4,4,0,1,1,6.82,4.33h0A4.1,4.1,0,0,1,211.2,95l-.17-.12A4,4,0,0,1,209.93,89.45Zm0,45a4,4,0,0,1,6.84,4.33h0a4.1,4.1,0,0,1-5.58,1.25l-.17-.11a4,4,0,0,1-1.09-5.37Zm0,50.41a4,4,0,0,1,6.84,4.33,4.1,4.1,0,0,1-5.58,1.25l-.17-.11a4,4,0,0,1-1.09-5.44Z"/><path class="cls-4" d="M190.09,203.37a11.73,11.73,0,0,0-20.55,9.08A38.06,38.06,0,0,1,159.33,215a7.67,7.67,0,0,1-4.25-1.92,20.53,20.53,0,0,0-8-3.55A72.14,72.14,0,0,0,163.59,185a11.7,11.7,0,1,0-7.4-2.26c-7.76,17.67-17.67,25.07-24.09,28.14a3.83,3.83,0,0,0-.69.33,21.58,21.58,0,0,1-4.91,1.55v7.67a24.13,24.13,0,0,0,8.15-2.28c10.25-2.61,13.11-.67,16.12,1.36a15.1,15.1,0,0,0,8.16,3.18h.59a45.25,45.25,0,0,0,13.42-3.3,11.75,11.75,0,0,0,8.26,3.3h0a11.73,11.73,0,0,0,8.89-19.36Zm-30.42-32.16a4,4,0,1,1-.44,3.07,4,4,0,0,1,.44-3.07Zm24.15,42.86a4,4,0,1,1-2.64-7.13,4.06,4.06,0,0,1,4.06,4.06h0v.3a4,4,0,0,1-1.41,2.76Z"/><path class="cls-4" d="M143.75,82.76Z"/><path class="cls-4" d="M185.82,57.84a11.73,11.73,0,1,0-21.07,9.24,25.59,25.59,0,0,1-19,8.22,55.87,55.87,0,0,0-19.17-4.45v7.67a47.53,47.53,0,0,1,16.75,4.24h0a41.38,41.38,0,0,1,16.47,13.42,12.12,12.12,0,0,0-.73,1,11.73,11.73,0,1,0,16.2-3.66,11.92,11.92,0,0,0-9-1.44A49.83,49.83,0,0,0,156,81.4a31.34,31.34,0,0,0,14.91-9.77,11.74,11.74,0,0,0,15-13.73Zm-20.26,43.45a4,4,0,1,1,0,4.21,4,4,0,0,1,0-4.21ZM177.75,62.6a4.1,4.1,0,0,1-5.58,1.25l-.19-.12a4.06,4.06,0,1,1,5.77-1.16Z"/><path class="cls-4" d="M202.5,136.43a11.5,11.5,0,0,0,4,5.08l.54.36a11.73,11.73,0,1,0,6.27-21.64h-.71a49.31,49.31,0,0,1,0-21.58h.65a11.73,11.73,0,1,0-8-3.12l.13.12a54.91,54.91,0,0,0,0,27.64c-.27.25-.56.48-.82.77a12,12,0,0,0-1.21,1.57,11.81,11.81,0,0,0-1.36,3A29.13,29.13,0,0,0,189,134c-3.83,2.53-7.67,4.93-18.48,5.12a62.56,62.56,0,0,0-10.27-.23,92.47,92.47,0,0,1-9.3,0c-2.55-.13-4-1.69-6.63-4.64-3.45-3.93-8.09-8.91-18-9.58v7.67c6.31.57,9.2,3.62,12.19,7s6.08,6.94,12,7.24c4.06.21,7.21.1,10,0a46.42,46.42,0,0,1,15,1.34c5,1.23,23.19,18.53,28.31,27.45a8.14,8.14,0,0,0-.59.82,11.69,11.69,0,0,0,3.1,15.81l.54.36a11.73,11.73,0,1,0,3.32-21.26c-4.91-8-16.58-20-25.28-26.43a34.84,34.84,0,0,0,8.07-4.2A21.68,21.68,0,0,1,202.5,136.43Zm7.44-51.6a4,4,0,1,1,6.81,4.33h0a4.1,4.1,0,0,1-5.58,1.25l-.17-.12a4,4,0,0,1-1.09-5.44Zm0,45a4,4,0,0,1,6.84,4.33h0a4.1,4.1,0,0,1-5.58,1.25l-.17-.11a4,4,0,0,1-1.09-5.44Zm0,50.41a4,4,0,0,1,6.84,4.33h0a4.1,4.1,0,0,1-5.58,1.25l-.17-.11a4,4,0,0,1-1.09-5.44Z"/></g><path class="cls-5" d="M190.09,209.12a11.73,11.73,0,0,0-20.55,9.08,38.06,38.06,0,0,1-10.22,2.55,7.67,7.67,0,0,1-4.25-1.92,20.53,20.53,0,0,0-8-3.55,72.14,72.14,0,0,0,16.44-24.59,11.7,11.7,0,1,0-7.4-2.26c-7.76,17.67-17.67,25.07-24.09,28.14a3.83,3.83,0,0,0-.69.33,21.58,21.58,0,0,1-4.91,1.55v7.67a24.13,24.13,0,0,0,8.15-2.28c10.25-2.61,13.11-.67,16.12,1.36a15.1,15.1,0,0,0,8.18,3.22h.59a45.25,45.25,0,0,0,13.42-3.3,11.75,11.75,0,0,0,8.26,3.3h0A11.73,11.73,0,0,0,190,209.06ZM159.68,177a4,4,0,1,1-.44,3.07A4,4,0,0,1,159.68,177Zm24.15,42.86a4,4,0,1,1-2.64-7.13,4.06,4.06,0,0,1,4.06,4.06h0v.3a4,4,0,0,1-1.42,2.72Z"/><path class="cls-4" d="M143.75,87.42Z"/><path class="cls-5" d="M185.82,63.59a11.73,11.73,0,1,0-21.07,9.24,25.59,25.59,0,0,1-19,8.22,55.87,55.87,0,0,0-19.17-4.45v7.67a47.55,47.55,0,0,1,16.75,4.24h0a41.38,41.38,0,0,1,16.47,13.42,12.12,12.12,0,0,0-.73,1,11.73,11.73,0,1,0,16.2-3.66,11.92,11.92,0,0,0-9-1.44A49.83,49.83,0,0,0,156,87.15a31.34,31.34,0,0,0,14.91-9.77,11.74,11.74,0,0,0,14.89-13.76Zm-20.26,43.47a4,4,0,1,1,0,4.24A4,4,0,0,1,165.56,107.06Zm12.19-38.69a4.1,4.1,0,0,1-5.58,1.25L172,69.5a4.05,4.05,0,1,1,5.77-1.13Z"/><path class="cls-5" d="M202.5,142.18a11.5,11.5,0,0,0,4,5.08l.54.36a11.73,11.73,0,1,0,6.3-21.62h-.71a49.31,49.31,0,0,1,0-21.58h.65a11.73,11.73,0,1,0-8-3.12l.13.12a54.91,54.91,0,0,0,0,27.64c-.27.25-.56.48-.82.77a12,12,0,0,0-1.21,1.57,11.81,11.81,0,0,0-1.36,3,29.13,29.13,0,0,0-13,5.33c-3.83,2.53-7.67,4.93-18.48,5.12a62.56,62.56,0,0,0-10.27-.23,92.47,92.47,0,0,1-9.3,0c-2.55-.13-4-1.69-6.63-4.64-3.45-3.93-8.09-8.91-18-9.58v7.67c6.31.57,9.2,3.62,12.19,7s6.08,6.94,12,7.24c4.06.21,7.21.1,10,0a46.42,46.42,0,0,1,15,1.34c5,1.23,23.19,18.53,28.31,27.45a8.14,8.14,0,0,0-.59.82,11.69,11.69,0,0,0,3.1,15.81l.54.36a11.73,11.73,0,1,0,3.32-21.26c-4.91-8-16.58-20-25.28-26.43a34.84,34.84,0,0,0,8.07-4.2A21.68,21.68,0,0,1,202.5,142.18Zm7.44-51.6a4,4,0,1,1,6.81,4.33h0a4.1,4.1,0,0,1-5.58,1.25L211,96a4,4,0,0,1-1.09-5.44Zm0,45a4,4,0,0,1,6.84,4.33h0a4.1,4.1,0,0,1-5.58,1.25L211,141a4,4,0,0,1-1.09-5.44Zm0,50.41a4,4,0,0,1,6.84,4.33h0a4.1,4.1,0,0,1-5.58,1.25l-.17-.11a4,4,0,0,1-1.09-5.44Z"/><path class="cls-6" d="M190.09,203.37a11.73,11.73,0,0,0-20.55,9.08A38.06,38.06,0,0,1,159.33,215a7.67,7.67,0,0,1-4.25-1.92,20.53,20.53,0,0,0-8-3.55A72.14,72.14,0,0,0,163.59,185a11.7,11.7,0,1,0-7.4-2.26c-7.76,17.67-17.67,25.07-24.09,28.14a3.83,3.83,0,0,0-.69.33,21.58,21.58,0,0,1-4.91,1.55v7.67a24.13,24.13,0,0,0,8.15-2.28c10.25-2.61,13.11-.67,16.12,1.36a15.1,15.1,0,0,0,8.16,3.18h.59a45.25,45.25,0,0,0,13.42-3.3,11.75,11.75,0,0,0,8.26,3.3h0a11.73,11.73,0,0,0,8.89-19.36Zm-30.42-32.16a4,4,0,1,1-.44,3.07,4,4,0,0,1,.44-3.07Zm24.15,42.86a4,4,0,1,1-2.64-7.13,4.06,4.06,0,0,1,4.06,4.06h0v.3a4,4,0,0,1-1.41,2.76Z"/><path class="cls-6" d="M143.75,82.76Z"/><path class="cls-6" d="M185.82,57.84a11.73,11.73,0,1,0-21.07,9.24,25.59,25.59,0,0,1-19,8.22,55.87,55.87,0,0,0-19.17-4.45v7.67a47.53,47.53,0,0,1,16.75,4.24h0a41.38,41.38,0,0,1,16.47,13.42,12.12,12.12,0,0,0-.73,1,11.73,11.73,0,1,0,16.2-3.66,11.92,11.92,0,0,0-9-1.44A49.83,49.83,0,0,0,156,81.4a31.34,31.34,0,0,0,14.91-9.77,11.74,11.74,0,0,0,15-13.73Zm-20.26,43.45a4,4,0,1,1,0,4.21,4,4,0,0,1,0-4.21ZM177.75,62.6a4.1,4.1,0,0,1-5.58,1.25l-.19-.12a4.06,4.06,0,1,1,5.77-1.16Z"/><path class="cls-6" d="M202.5,136.43a11.5,11.5,0,0,0,4,5.08l.54.36a11.73,11.73,0,1,0,6.27-21.64h-.71a49.31,49.31,0,0,1,0-21.58h.65a11.73,11.73,0,1,0-8-3.12l.13.12a54.91,54.91,0,0,0,0,27.64c-.27.25-.56.48-.82.77a12,12,0,0,0-1.21,1.57,11.81,11.81,0,0,0-1.36,3A29.13,29.13,0,0,0,189,134c-3.83,2.53-7.67,4.93-18.48,5.12a62.56,62.56,0,0,0-10.27-.23,92.47,92.47,0,0,1-9.3,0c-2.55-.13-4-1.69-6.63-4.64-3.45-3.93-8.09-8.91-18-9.58v7.67c6.31.57,9.2,3.62,12.19,7s6.08,6.94,12,7.24c4.06.21,7.21.1,10,0a46.42,46.42,0,0,1,15,1.34c5,1.23,23.19,18.53,28.31,27.45a8.14,8.14,0,0,0-.59.82,11.69,11.69,0,0,0,3.1,15.81l.54.36a11.73,11.73,0,1,0,3.32-21.26c-4.91-8-16.58-20-25.28-26.43a34.84,34.84,0,0,0,8.07-4.2A21.68,21.68,0,0,1,202.5,136.43Zm7.44-51.6a4,4,0,1,1,6.81,4.33h0a4.1,4.1,0,0,1-5.58,1.25l-.17-.12a4,4,0,0,1-1.09-5.44Zm0,45a4,4,0,0,1,6.84,4.33h0a4.1,4.1,0,0,1-5.58,1.25l-.17-.11a4,4,0,0,1-1.09-5.44Zm0,50.41a4,4,0,0,1,6.84,4.33h0a4.1,4.1,0,0,1-5.58,1.25l-.17-.11a4,4,0,0,1-1.09-5.44Z"/><path class="cls-7" d="M114.48,77.59a24.69,24.69,0,0,1-5,1.59,4.2,4.2,0,0,0-.75.15c-7,1.3-19.32,1.19-36-8.47A11.87,11.87,0,1,0,68,77,72,72,0,0,0,95.75,87.15a20.43,20.43,0,0,0-4.31,7.53,7.67,7.67,0,0,1-2.34,4,38,38,0,0,1-9.74,4A11.71,11.71,0,1,0,76,117.84h0a11.71,11.71,0,0,0,4.64-7.53A45.31,45.31,0,0,0,93.52,105l.46-.36a15.06,15.06,0,0,0,4.7-7.38c1.23-3.41,2.4-6.65,12.17-10.58a32.31,32.31,0,0,0,6-2.32V76.7Zm-49.2-8.66a4,4,0,1,1-7.53-2.86q.06-.16.13-.31a4,4,0,1,1,7.44,3.12Zm6.36,42.59A4,4,0,1,1,66.89,105h0a4,4,0,1,1,4.75,6.51Z"/><path class="cls-7" d="M105.34,210.1h0a41.28,41.28,0,0,1-10.71-18.38,11.33,11.33,0,0,0,1-.71,11.71,11.71,0,1,0-16.41-2.23h0a11.92,11.92,0,0,0,7.86,4.47,49.64,49.64,0,0,0,5.86,13.55,31.3,31.3,0,0,0-17.35,3.93,11.69,11.69,0,1,0,4.2,6.42,25.53,25.53,0,0,1,20.68-1.05,51.75,51.75,0,0,0,16.39,10.06V218.5A47,47,0,0,1,105.34,210.1ZM71,223.25a4,4,0,1,1-4.87-6.32,4.1,4.1,0,0,1,5.75.78h0l.13.17a4,4,0,0,1-1,5.39Zm14.37-39.12a4.18,4.18,0,1,1,4.1,1.5,4.08,4.08,0,0,1-4-1.51Z"/><path class="cls-7" d="M99,140.43c-2.59,3-4.06,4.5-6.61,4.64-3.7.19-6.54,0-9.28,0s-7.67-1.57-15.33-5-23.19-18.51-28.31-27.41a8.14,8.14,0,0,0,.59-.82A11.67,11.67,0,0,0,37,96.07l-.54-.36a11.67,11.67,0,1,0-3.32,21.18c4.89,8,19.65,23.15,25.22,26.41a34.73,34.73,0,0,0-8,4.18,21.62,21.62,0,0,1-9.3,3.95,11.5,11.5,0,0,0-4-5.06l-.56-.36a11.71,11.71,0,1,0-6.25,21.6h.71a49.28,49.28,0,0,1,0,21.56h-.65a11.71,11.71,0,1,0,7.93,3.1l-.15-.13a54.6,54.6,0,0,0,0-27.54,10.78,10.78,0,0,0,.84-.79,11.83,11.83,0,0,0,1.21-1.57,11.69,11.69,0,0,0,1.44-3.1,29.08,29.08,0,0,0,13-5.21,26.6,26.6,0,0,1,15-4.94,40.92,40.92,0,0,0,13.24,3.83,64.82,64.82,0,0,0,10,0c5.9-.33,9.12-4,12-7.23s5.75-6.67,12.27-7.49v-7.67C107,131.29,102.35,136.43,99,140.43ZM30.17,109.59a4,4,0,0,1-3.42-6.19,4.1,4.1,0,0,1,5.58-1.25l.17.12a4,4,0,0,1-2.34,7.32Zm-2.09,49.72a3.89,3.89,0,0,1-1.33-5.63,4.1,4.1,0,0,1,5.58-1.25l.17.11a4,4,0,0,1-4.43,6.77Zm5.56,43.62a4,4,0,1,1-6.82-4.31,4.1,4.1,0,0,1,5.58-1.25l.17.11a4,4,0,0,1,1,5.44Z"/><path class="cls-6" d="M114.48,71.84a24.69,24.69,0,0,1-5,1.59,4.2,4.2,0,0,0-.75.15c-7,1.3-19.32,1.19-36-8.47A11.87,11.87,0,1,0,68,71.28,72,72,0,0,0,95.75,81.4a20.43,20.43,0,0,0-4.31,7.53,7.67,7.67,0,0,1-2.34,4,38,38,0,0,1-9.74,4A11.71,11.71,0,1,0,76,112.09h0a11.71,11.71,0,0,0,4.64-7.53,45.31,45.31,0,0,0,12.78-5.27l.46-.36a15.06,15.06,0,0,0,4.7-7.38C99.85,88.14,101,84.9,110.79,81a32.31,32.31,0,0,0,6-2.32V71Zm-49.2-8.66a4,4,0,1,1-7.53-2.86q.06-.16.13-.31a4,4,0,1,1,7.44,3.12h0Zm6.36,42.59a4,4,0,1,1,1.71-3.07,4,4,0,0,1-1.71,3.07Z"/><path class="cls-6" d="M105.34,204.35h0A41.28,41.28,0,0,1,94.63,186a11.33,11.33,0,0,0,1-.71A11.71,11.71,0,1,0,79.23,183l0,0h0a11.92,11.92,0,0,0,7.86,4.47A49.64,49.64,0,0,0,93,201a31.3,31.3,0,0,0-17.34,4,11.69,11.69,0,1,0,4.2,6.42,25.53,25.53,0,0,1,20.68-1.05,51.75,51.75,0,0,0,16.39,10.06v-7.67A47,47,0,0,1,105.34,204.35ZM71,217.5a4,4,0,1,1-4.87-6.32,4.1,4.1,0,0,1,5.75.78h0l.13.17a4,4,0,0,1-1,5.39Zm14.37-39.12a4.18,4.18,0,1,1,4.1,1.5,4.08,4.08,0,0,1-4-1.51Z"/><path class="cls-6" d="M99,134.7c-2.59,3-4.06,4.5-6.61,4.64-3.7.19-6.54,0-9.28,0s-7.67-1.57-15.33-5S44.58,115.84,39.47,107a8.14,8.14,0,0,0,.59-.82A11.67,11.67,0,0,0,37,90.46l-.54-.36a11.69,11.69,0,1,0-3.3,21.22c4.87,7.9,19.63,23,25.2,26.3a34.71,34.71,0,0,0-8,4.18,21.62,21.62,0,0,1-9.3,3.95,11.5,11.5,0,0,0-4-5.06l-.56-.38a11.71,11.71,0,1,0-6.25,21.6h.71a49.28,49.28,0,0,1,0,21.56h-.65a11.71,11.71,0,1,0,7.93,3.1l-.15-.13a54.6,54.6,0,0,0,0-27.54,10.78,10.78,0,0,0,.84-.79,11.83,11.83,0,0,0,1.21-1.57,11.69,11.69,0,0,0,1.44-3.07,29.08,29.08,0,0,0,13-5.21,26.6,26.6,0,0,1,15-4.94,40.92,40.92,0,0,0,13.24,3.83,64.82,64.82,0,0,0,10,0c5.9-.31,9.12-4,12-7.23s5.75-6.63,12.27-7.46v-7.67C107,125.58,102.35,130.77,99,134.7ZM30.17,103.84a4,4,0,0,1-3.42-6.19,4.1,4.1,0,0,1,5.58-1.25l.17.12a4,4,0,0,1-2.34,7.32Zm-2.09,49.83A4,4,0,0,1,26.7,148a4.1,4.1,0,0,1,5.58-1.25l.17.11a4,4,0,1,1-4.37,6.78Zm5.56,43.62A4,4,0,1,1,26.82,193a4.1,4.1,0,0,1,5.58-1.25l.17.11a4,4,0,0,1,1,5.37Z"/></g></g></svg>