<svg xmlns="http://www.w3.org/2000/svg" viewBox="0 0 245.37 276.11"><defs><style>.cls-1{fill:#eb753a;}.cls-2{fill:#762a84;}.cls-3{fill:#592264;}.cls-4{fill:#ad6dae;}.cls-5{fill:#fefbdc;}.cls-6{opacity:0.07;}.cls-7{fill:#010101;}.cls-8{fill:#d4572b;}</style></defs><title>MusicBrainz Picard</title><g id="Layer_2" data-name="Layer 2"><g id="Layer_1-2" data-name="Layer 1"><polygon class="cls-1" points="129.4 0.14 125.56 276.11 243.39 210.66 245.37 68.84 129.4 0.14"/><polygon class="cls-2" points="119.81 0 1.98 65.45 0 207.27 115.97 275.97 119.81 0"/><path class="cls-3" d="M73.57,80.79,38.9,97,18.81,197.16l33-8,27.42,20L99.34,109Zm-7.32,35.38a10.68,10.68,0,1,1,12.56-8.39h0A10.68,10.68,0,0,1,66.25,116.17Z"/><path class="cls-3" d="M118.84,75.53l-1.18-.28c-11-2.74-31.4-7.78-46.56,16.22a14.45,14.45,0,0,0-17,11.36v.12a14.51,14.51,0,1,0,23.86-8c12.16-18.56,27.54-14.76,37.84-12.2l2.9.69ZM75,107.07a6.82,6.82,0,1,1-6.59-8.2,7,7,0,0,1,1.26.13A6.86,6.86,0,0,1,75,107.07Z"/><path class="cls-4" d="M73.63,76.19,38.9,92.31l-20,100.24,33-7.88,27.42,20L99.4,104.49Zm-7.32,35.36a10.68,10.68,0,1,1,12.56-8.39h0a10.68,10.68,0,0,1-12.55,8.38Z"/><path class="cls-5" d="M118.9,70.91l-1.18-.28c-11-2.74-31.4-7.78-46.56,16.22a14.52,14.52,0,1,0,6.91,3.41c12.16-18.56,27.54-14.76,37.84-12.2l2.9.69ZM75.12,102.43a6.82,6.82,0,1,1-6.59-8.2,7,7,0,0,1,1.26.13,6.86,6.86,0,0,1,5.34,8.07Z"/><g class="cls-6"><path class="cls-7" d="M160.12,176.41a4,4,0,1,1-.48,3.06A4,4,0,0,1,160.12,176.41Zm23.55,43.19a4.05,4.05,0,1,1-2.55-7.17,4.06,4.06,0,0,1,4,4.12h0v.3A4,4,0,0,1,183.67,219.6Z"/><path class="cls-7" d="M145.45,87.79Z"/><path class="cls-7" d="M167,106.58a4,4,0,1,1-.08,4.24A4,4,0,0,1,167,106.58Zm12.77-38.52a4.1,4.1,0,0,1-5.59,1.17l-.19-.12a4.05,4.05,0,1,1,5.77-1.05Z"/><path class="cls-7" d="M211.57,90.74a4,4,0,0,1,6.78,4.43h0a4.1,4.1,0,0,1-5.59,1.17l-.17-.12A4,4,0,0,1,211.57,90.74Zm-.63,45a4,4,0,0,1,6.78,4.43h0a4.1,4.1,0,0,1-5.59,1.17l-.17-.12a4,4,0,0,1-1-5.38Zm-.7,50.4a4,4,0,0,1,6.78,4.43h0a4.1,4.1,0,0,1-5.59,1.17l-.17-.12a4,4,0,0,1-1-5.46Z"/><path class="cls-7" d="M190.15,204.38a11.73,11.73,0,0,0-20.67,8.8,38.06,38.06,0,0,1-10.25,2.41,7.67,7.67,0,0,1-4.23-2,20.53,20.53,0,0,0-7.9-3.66,72.14,72.14,0,0,0,16.8-24.32,11.7,11.7,0,1,0-7.37-2.36c-8,17.56-18,24.82-24.48,27.8a3.83,3.83,0,0,0-.69.32,21.58,21.58,0,0,1-4.93,1.48l-.11,7.67a24.13,24.13,0,0,0,8.18-2.17c10.29-2.46,13.12-.49,16.1,1.58a15.1,15.1,0,0,0,8.12,3.29h.59a45.25,45.25,0,0,0,13.46-3.11,11.75,11.75,0,0,0,8.21,3.41h0a11.73,11.73,0,0,0,9.16-19.23Zm-30-32.58a4,4,0,1,1-.48,3.06,4,4,0,0,1,.48-3.06ZM183.7,215a4.05,4.05,0,1,1-2.55-7.17,4.06,4.06,0,0,1,4,4.12h0v.3a4,4,0,0,1-1.41,2.73Z"/><path class="cls-7" d="M145.51,83.13Z"/><path class="cls-7" d="M187.9,58.79a11.73,11.73,0,1,0-21.2,9,25.59,25.59,0,0,1-19.16,8,55.87,55.87,0,0,0-19.1-4.71l-.11,7.67A47.53,47.53,0,0,1,145,83.12h0a41.38,41.38,0,0,1,16.29,13.67,12.11,12.11,0,0,0-.74,1,11.73,11.73,0,1,0,16.24-3.44,11.92,11.92,0,0,0-8.93-1.56A49.83,49.83,0,0,0,157.81,82a31.34,31.34,0,0,0,15-9.57,11.74,11.74,0,0,0,15.08-13.55ZM167,102a4,4,0,1,1-.08,4.24A4,4,0,0,1,167,102Zm12.77-38.52a4.1,4.1,0,0,1-5.59,1.17l-.19-.12a4.06,4.06,0,1,1,5.78-1.07Z"/><path class="cls-7" d="M203.48,137.61a11.5,11.5,0,0,0,4,5.13l.53.37a11.73,11.73,0,1,0,6.57-21.55h-.71a49.31,49.31,0,0,1,.3-21.58h.65a11.73,11.73,0,1,0-7.91-3.23l.13.12a54.91,54.91,0,0,0-.38,27.64c-.27.25-.56.47-.83.76a12,12,0,0,0-1.23,1.55,11.81,11.81,0,0,0-1.4,3A29.13,29.13,0,0,0,190.13,135c-3.87,2.48-7.73,4.82-18.55,4.86a62.56,62.56,0,0,0-10.27-.37c-2.74.06-5.58.13-9.29-.13-2.55-.17-4-1.74-6.57-4.73-3.39-4-8-9-17.82-9.83l-.11,7.67c6.3.66,9.15,3.75,12.09,7.2s6,7,11.9,7.41c4.06.27,7.2.2,10,.14a46.42,46.42,0,0,1,15,1.55c5,1.3,22.93,18.85,27.92,27.84a8.15,8.15,0,0,0-.61.82,11.69,11.69,0,0,0,2.88,15.85l.53.37a11.73,11.73,0,1,0,3.61-21.21c-4.79-8.1-16.3-20.28-24.91-26.78a34.84,34.84,0,0,0,8.13-4.08A21.68,21.68,0,0,1,203.48,137.61Zm8.15-51.49a4,4,0,0,1,6.78,4.43,4.1,4.1,0,0,1-5.59,1.17l-.17-.12a4,4,0,0,1-1-5.46Zm-.63,45a4,4,0,0,1,6.78,4.43h0a4.1,4.1,0,0,1-5.59,1.17l-.17-.12a4,4,0,0,1-1-5.46Zm-.7,50.4a4,4,0,0,1,6.78,4.43h0a4.1,4.1,0,0,1-5.59,1.17l-.17-.12a4,4,0,0,1-1-5.46Z"/></g><path class="cls-8" d="M190,210.13a11.73,11.73,0,0,0-20.67,8.8,38.06,38.06,0,0,1-10.25,2.41,7.67,7.67,0,0,1-4.23-2,20.53,20.53,0,0,0-7.9-3.66,72.14,72.14,0,0,0,16.79-24.36,11.7,11.7,0,1,0-7.37-2.36c-8,17.56-18,24.82-24.48,27.8a3.83,3.83,0,0,0-.69.32,21.58,21.58,0,0,1-4.93,1.48l-.11,7.67a24.13,24.13,0,0,0,8.18-2.17c10.29-2.46,13.12-.49,16.1,1.58a15.1,15.1,0,0,0,8.14,3.33h.59a45.25,45.25,0,0,0,13.46-3.11,11.75,11.75,0,0,0,8.21,3.41h0a11.73,11.73,0,0,0,9.16-19.2Zm-30-32.58a1.63,1.63,0,1,0,.07,0Zm23.55,43.19a4.05,4.05,0,1,1-2.55-7.17,4.06,4.06,0,0,1,4,4.12h0v.3a4,4,0,0,1-1.38,2.73Z"/><path class="cls-7" d="M145.45,87.79Z"/><path class="cls-8" d="M187.82,64.55a11.73,11.73,0,1,0-21.21,8.94,25.59,25.59,0,0,1-19.16,8,55.87,55.87,0,0,0-19.1-4.71l-.11,7.67a47.55,47.55,0,0,1,16.69,4.47h0a41.38,41.38,0,0,1,16.31,13.64,12.11,12.11,0,0,0-.74,1,11.73,11.73,0,1,0,16.24-3.44,11.92,11.92,0,0,0-8.93-1.56,49.83,49.83,0,0,0-10.09-10.82,31.34,31.34,0,0,0,15-9.57A11.74,11.74,0,0,0,187.8,64.62ZM167,107.73a4,4,0,1,1-.08,4.24A4,4,0,0,1,167,107.73Zm12.77-38.52a4.1,4.1,0,0,1-5.59,1.17l-.19-.12a4,4,0,1,1,5.78-1.05Z"/><path class="cls-8" d="M203.4,143.36a11.5,11.5,0,0,0,4,5.13l.53.37a11.73,11.73,0,1,0,6.57-21.55h-.71a49.31,49.31,0,0,1,.3-21.58h.65a11.73,11.73,0,1,0-7.91-3.23l.13.12a54.91,54.91,0,0,0-.38,27.64c-.27.25-.56.47-.83.76a12,12,0,0,0-1.23,1.55,11.81,11.81,0,0,0-1.4,3A29.13,29.13,0,0,0,190,140.72c-3.87,2.48-7.73,4.82-18.55,4.86a62.56,62.56,0,0,0-10.27-.37c-2.74.06-5.58.13-9.29-.13-2.55-.17-4-1.74-6.57-4.73-3.39-4-8-9-17.82-9.83l-.11,7.67c6.3.66,9.15,3.75,12.09,7.2s6,7,11.9,7.41c4.06.27,7.2.2,10,.14a46.42,46.42,0,0,1,15,1.55c5,1.3,22.93,18.85,27.92,27.84a8.15,8.15,0,0,0-.61.82A11.69,11.69,0,0,0,206.61,199l.53.37a11.73,11.73,0,1,0,3.61-21.21c-4.79-8.1-16.3-20.28-24.91-26.78A34.84,34.84,0,0,0,194,147.3,21.68,21.68,0,0,1,203.4,143.36Zm8.15-51.49a4,4,0,0,1,6.78,4.43h0a4.1,4.1,0,0,1-5.59,1.17l-.17-.12a4,4,0,0,1-1-5.46Zm-.63,45a4,4,0,0,1,6.78,4.43h0a4.1,4.1,0,0,1-5.59,1.17l-.17-.12a4,4,0,0,1-1-5.46Zm-.7,50.4A4,4,0,0,1,217,191.7h0a4.1,4.1,0,0,1-5.59,1.17l-.17-.12a4,4,0,0,1-1-5.46Z"/><path class="cls-5" d="M190.15,204.38a11.73,11.73,0,0,0-20.67,8.8,38.06,38.06,0,0,1-10.25,2.41,7.67,7.67,0,0,1-4.23-2,20.53,20.53,0,0,0-7.9-3.66,72.14,72.14,0,0,0,16.8-24.32,11.7,11.7,0,1,0-7.37-2.36c-8,17.56-18,24.82-24.48,27.8a3.83,3.83,0,0,0-.69.32,21.58,21.58,0,0,1-4.93,1.48l-.11,7.67a24.13,24.13,0,0,0,8.18-2.17c10.29-2.46,13.12-.49,16.1,1.58a15.1,15.1,0,0,0,8.12,3.29h.59a45.25,45.25,0,0,0,13.46-3.11,11.75,11.75,0,0,0,8.21,3.41h0a11.73,11.73,0,0,0,9.16-19.23Zm-30-32.58a4,4,0,1,1-.48,3.06,4,4,0,0,1,.48-3.06ZM183.7,215a4.05,4.05,0,1,1-2.55-7.17,4.06,4.06,0,0,1,4,4.12h0v.3a4,4,0,0,1-1.41,2.73Z"/><path class="cls-5" d="M145.51,83.13Z"/><path class="cls-5" d="M187.9,58.79a11.73,11.73,0,1,0-21.2,9,25.59,25.59,0,0,1-19.16,8,55.87,55.87,0,0,0-19.1-4.71l-.11,7.67A47.53,47.53,0,0,1,145,83.12h0a41.38,41.38,0,0,1,16.29,13.67,12.11,12.11,0,0,0-.74,1,11.73,11.73,0,1,0,16.24-3.44,11.92,11.92,0,0,0-8.93-1.56A49.83,49.83,0,0,0,157.81,82a31.34,31.34,0,0,0,15-9.57,11.74,11.74,0,0,0,15.08-13.55ZM167,102a4,4,0,1,1-.08,4.24A4,4,0,0,1,167,102Zm12.77-38.52a4.1,4.1,0,0,1-5.59,1.17l-.19-.12a4.06,4.06,0,1,1,5.78-1.07Z"/><path class="cls-5" d="M203.48,137.61a11.5,11.5,0,0,0,4,5.13l.53.37a11.73,11.73,0,1,0,6.57-21.55h-.71a49.31,49.31,0,0,1,.3-21.58h.65a11.73,11.73,0,1,0-7.91-3.23l.13.12a54.91,54.91,0,0,0-.38,27.64c-.27.25-.56.47-.83.76a12,12,0,0,0-1.23,1.55,11.81,11.81,0,0,0-1.4,3A29.13,29.13,0,0,0,190.13,135c-3.87,2.48-7.73,4.82-18.55,4.86a62.56,62.56,0,0,0-10.27-.37c-2.74.06-5.58.13-9.29-.13-2.55-.17-4-1.74-6.57-4.73-3.39-4-8-9-17.82-9.83l-.11,7.67c6.3.66,9.15,3.75,12.09,7.2s6,7,11.9,7.41c4.06.27,7.2.2,10,.14a46.42,46.42,0,0,1,15,1.55c5,1.3,22.93,18.85,27.92,27.84a8.15,8.15,0,0,0-.61.82,11.69,11.69,0,0,0,2.88,15.85l.53.37a11.73,11.73,0,1,0,3.61-21.21c-4.79-8.1-16.3-20.28-24.91-26.78a34.84,34.84,0,0,0,8.13-4.08A21.68,21.68,0,0,1,203.48,137.61Zm8.15-51.49a4,4,0,0,1,6.78,4.43,4.1,4.1,0,0,1-5.59,1.17l-.17-.12a4,4,0,0,1-1-5.46Zm-.63,45a4,4,0,0,1,6.78,4.43h0a4.1,4.1,0,0,1-5.59,1.17l-.17-.12a4,4,0,0,1-1-5.46Zm-.7,50.4a4,4,0,0,1,6.78,4.43h0a4.1,4.1,0,0,1-5.59,1.17l-.17-.12a4,4,0,0,1-1-5.46Z"/></g></g></svg>