<svg xmlns="http://www.w3.org/2000/svg" viewBox="0 0 287.5 66.6">
    <path d="M49.4 56.2q1.6 5 8 5 .6 0 .6 2.1 0 2-.6 2-4.6-.3-10.6-.3t-11 .3q-.5 0-.5-2t.6-2q3.8 0 3.8-2.9 0-1-.4-2.2l-4-13q-.3-1-1.3-1H19q-.8 0-1.2 1.2l-4.4 12.8q-.3 1-.3 1.9 0 3.2 5.9 3.2.5 0 .5 2t-.5 2q-3.4-.3-9.3-.3t-9.1.3q-.6 0-.6-2t.6-2q6 0 8-5.8l14.8-42.3q.5-1.3.5-1.7 0-.3-.6-1-.6-.5-.6-1 0-.6 1.4-1 1.3-.6 4-2.4 2.9-1.8 3.7-1.8 1.3 0 1.7 2 .5 2.1 2.1 7.2zM27.5 18.3q-.2-.7-.6-.7-.4 0-.6.7l-6.4 19-.1.7q0 .5.8.5h11.7q1.1 0 1.1-1l-.1-.6-5.8-18.6zM82.1 37.9q-1.4 0-2.2-1.3l-1.5-2.9q-1.6-2.6-4.5-2.6-3.2 0-5.6 4.1-2.7 4.5-2.7 10.7 0 5.8 3.5 10 3.2 3.6 7.2 3.6 4.4 0 7.5-2.4.7-.5 1.8 1.3 1 2 .4 2.4l-3.3 2.3Q78.1 66 72.1 66q-5.6 0-10-4.3-5.6-5.4-5.6-13.6 0-7.5 4.2-13.5 5.4-7.7 14-7.7 5.4 0 8.9 2 1.5.9 2.1 2 .3.7.3 1.7 0 2.3-1.3 3.8-1.4 1.5-2.6 1.5zM124.7 46.4q0 9.1-4.9 14.5-4.7 5.1-13 5.1-7.5 0-12.6-5.3-5.5-5.8-5.5-14.2 0-7.5 4.4-13 5.2-6.5 13.5-6.5 8.7 0 14 6.9 4.1 5.3 4.1 12.5zm-10.1.2q0-8-2.9-12.7-2-3.6-5-3.6-3.3 0-5.5 4.6-2.4 4.7-2.4 11.7 0 8.1 2.9 12.6 2 3.1 5 3.1 3.7 0 6-5 1.9-4.3 1.9-10.7zM166.5 63.7l-4.2.9-2 .4q-2.3.5-4.6 1.4l-1 .1q-.6 0-.6-2v-2q0-1-.4-1t-1.1.6q-3.7 4-9.8 4-5 0-6.8-1.6-5.9-5.2-5.9-13V36.4q0-4.5-3.3-4.5-.6 0-.6-1.6t.6-1.6q4.4 0 8.9-.8l2-.2q1.8 0 1.8 1.9l-.2 7v15q0 5.4 2 8 1 1.4 3.9 1.4 2.5 0 5.2-2.4 2.2-2 2.2-4V36.3q0-4.5-3.4-4.5-.6 0-.6-1.6t.6-1.6q4.5 0 9.2-.9l1.5-.1q2.1 0 2.1 1.5-.3 4.2-.3 6.9v17.7q0 4 .4 5.1.6 1.8 2.1 1.8l1.3-.2q.7-.2 1.1 1.4l.1 1q0 .6-.2.8zM179.9 66q-5.9 0-9.6-2.6-1.1-3-1.1-9.7 0-.8 1.3-.8 1.5 0 1.7.7.2 2.4 2.7 5.6 2.6 3.3 6.3 3.3 2 0 3.6-1.8 1.3-1.5 1.3-3.3 0-5.2-6.9-7.3-7-2-9.4-6.5-1.2-2.3-1.2-5.4 0-5 4-8.2 3.7-3 8.9-3 5 0 8.7 1.5 1.5 4.6 1.5 8.4 0 .8-1.2.8-1.3 0-1.4-.5-.7-2.2-3.2-4.9-1.6-1.7-5-1.7-2.4 0-3.9 2.1-1 1.4-.9 2.8 0 4.4 6.7 6.2 6.4 1.8 9 5.2 2 2.6 2 6.8 0 5.8-4.5 9.4-3.7 3-9.4 3zM223.3 61q-4.3 5-11 5-8.7 0-10-8-.2-1.4-.2-3.2v-21q0-1.4-1.3-1.4h-2.2q-.6 0-.6-1.6t.6-1.6q2.5 0 5.3-2.6 2.8-2.5 3.7-5.5.2-.5 1.7 0 1.7.5 2 1.3v4q0 1.4 1.2 1.4h8.6q.6 0 .6 2.3t-.6 2.3h-8.6q-1.2 0-1.2 1.4v18.1q0 5.3 1.3 7 1.1 1.3 3.5 1.3 2 0 5-2 .5-.4 1.6 1 .7 1 .7 1.6l-.1.3z"/>
    <path fill="#a00"
          d="M236 57.1l-.2 1q0 .7 1 .7t3.6-3.5q.4-.6 1.5.5.8.8.8 1.3l-.1.3q-2.6 3.5-5.7 6.1t-5.4 2.7q-4 0-4-5.5 0-1.5.4-3l5.8-21 .2-.9q0-.9-.8-.9-.7 0-3.8 3.6-.5.5-1.5-.6-.8-.8-.8-1.2 0-.2.2-.3 2.5-3.4 5.6-6 3.2-2.6 5.4-2.6 4.1 0 4.1 5.5 0 1-.5 2.8L236 57zm12-42q0 2.4-1.7 4-1.7 1.7-3.8 1.7-5.6 0-5.6-6.6 0-2.2 1.7-3.9t4-1.7q5.5 0 5.5 6.6zM275.8 55q-.5 2.1-.5 2.8 0 1 .7 1 1.1 0 3.7-3.7.3-.4 1 0 .5.3 1 1 .5.6.2 1-5.8 9-11 9-2.2 0-3-1.5-.7-1.6-.7-4.5 0-.8.7-4.5l-.5-.3q-3.4 4.5-7.1 7.7-3.8 3.2-7.3 3.2-3.4 0-4.9-2.8-1.5-2.8-1.5-6 0-8.7 7.3-19.2t15.5-10.5q2.2 0 4.3 1.4l3.7-17q.4-1.9.4-3.3 0-3.3-2.5-3.3-.8 0-.8-1.5 0-1.6.8-1.6 3.4 0 7.2-1.2l4.2-1.2q.8 0 .8.8l-.1.9L275.8 55zm-3.2-21q-1.6-2.7-4-2.7-4.5 0-8.9 8.9-4.2 8.8-4.2 15.8 0 4.1 1.8 4.1 2.4 0 7.2-5.7 4.9-5.8 5.6-8.8z"/>
</svg>
