<?xml version="1.0" encoding="UTF-8" standalone="no"?>
<svg
   xmlns:dc="http://purl.org/dc/elements/1.1/"
   xmlns:cc="http://creativecommons.org/ns#"
   xmlns:rdf="http://www.w3.org/1999/02/22-rdf-syntax-ns#"
   xmlns:svg="http://www.w3.org/2000/svg"
   xmlns="http://www.w3.org/2000/svg"
   height="289.70837"
   width="658.63623"
   id="svg2"
   xml:space="preserve"
   viewBox="0 0 658.63623 289.70838"
   y="0px"
   x="0px"
   version="1.1"><metadata
     id="metadata47"><rdf:RDF><cc:Work
         rdf:about=""><dc:format>image/svg+xml</dc:format><dc:type
           rdf:resource="http://purl.org/dc/dcmitype/StillImage" /><dc:title></dc:title></cc:Work></rdf:RDF></metadata><defs
     id="defs45" /><style
     id="style4"
     type="text/css">
	.Arched_x0020_Green{fill:url(#SVGID_1_);stroke:#FFFFFF;stroke-width:0.25;stroke-miterlimit:1;}
	.st0{fill-rule:evenodd;clip-rule:evenodd;}
</style><linearGradient
     y2="791.29291"
     x2="0.70709997"
     y1="792"
     x1="0"
     gradientUnits="userSpaceOnUse"
     id="SVGID_1_"><stop
       id="stop7"
       style="stop-color:#20AC4B"
       offset="0" /><stop
       id="stop9"
       style="stop-color:#19361A"
       offset="0.9831" /></linearGradient><g
     transform="translate(-282.03726,-249.9)"
     id="type"><g
       id="g12"><path
         id="path14"
         d="m 536.2,506 c 2.8,3.9 8.3,3.2 10,3.2 3.2,-0.2 7.6,-1.3 13.3,-4 6,-2.8 7.4,-3.6 15.1,-8.2 0,0 2,-1.3 2.2,-1.4 0.3,-0.3 0,-0.9 -0.6,-0.7 0,0 -5.1,2.4 -10.3,3.9 -3.5,1 -9.9,3.2 -15.1,1.3 -2.5,-0.9 -2.6,-3.1 -1.5,-4.9 0.9,-1.5 3.2,-3.2 6.1,-4.4 2.4,-1 4.8,-1.4 6.6,-2 3.4,-1.1 5,-2.1 5.1,-3.9 0.2,-2.8 -4,-6.9 -14,-2.6 -9.6,4.2 -15.1,12.6 -17,17.1 -1.1,2.2 -1,5.1 0.1,6.6 z" /><path
         id="path16"
         d="m 615.4,504.6 c 4,5.5 11.8,4.5 14.3,4.5 4.6,-0.3 10.8,-1.9 18.9,-5.6 8.5,-3.9 10.5,-5.1 21.5,-11.7 0,0 2.9,-1.8 3.1,-2 0.5,-0.4 0,-1.3 -0.8,-0.9 0,0 -7.3,3.4 -14.7,5.5 -5,1.5 -14.1,4.5 -21.6,1.8 -3.6,-1.3 -3.7,-4.5 -2.2,-7 1.3,-2.1 4.5,-4.5 8.8,-6.2 3.4,-1.4 6.9,-2 9.4,-2.8 4.9,-1.6 7.1,-3 7.3,-5.6 0.3,-4.1 -5.7,-9.9 -19.9,-3.7 -13.7,5.9 -21.6,18 -24.3,24.4 -1.5,3 -1.4,7.1 0.2,9.3 z" /><path
         id="path18"
         d="m 839.6,494.2 c 0,0 -5.3,2.7 -10.5,4.2 -4.3,1.3 -9,2.8 -14.3,1.4 0,0 -4.1,-1.2 -2,-3 1.5,-1.3 7,-0.7 11.1,-2 3.7,-1.1 7.9,-4.8 7.2,-10 -0.1,-1 -0.8,-2.3 -2.1,-3.3 -1.4,-1.3 -4,-2.1 -8,-1.3 -1.4,0.3 -2.9,0.8 -4.7,1.5 -3.9,1.7 -7.1,4.1 -9.7,6.7 -3.8,3.7 -6.2,7.8 -7.4,10.5 -1,2.2 -0.9,5.1 0.2,6.6 2.8,3.9 8.3,3.2 10,3.2 3.7,-0.2 7.4,-1.1 14.2,-4.1 6,-2.7 6.9,-3.6 14.4,-8.3 0,0 2,-1.3 2.2,-1.4 0.3,-0.3 0,-0.9 -0.6,-0.7 z m -17,-7.9 c 1.3,1 0.1,3.4 -0.6,4.1 -2.4,2.5 -6.9,2.4 -9.5,2.9 1.8,-4.1 6.8,-9.6 10.1,-7 z" /><path
         style="clip-rule:evenodd;fill-rule:evenodd"
         id="path20"
         d="m 536.7,469.7 c 2.7,-0.7 5.2,0.5 5.3,2.8 0,1.9 -3.7,4.5 -5.7,4.8 -2.5,0.4 -4.6,-0.4 -4.8,-2.2 -0.4,-2.3 3.3,-4.9 5.2,-5.4 z"
         class="st0" /><path
         style="clip-rule:evenodd;fill-rule:evenodd"
         id="path22"
         d="m 504.6,491.2 c 11.3,4.2 -2.8,13.6 -8.6,16 -1.9,0.8 -4.9,1.8 -5.9,0 -1,-1.9 3.4,-4.6 5,-7.1 -4.7,-0.3 -8.3,-2.3 -6.6,-6.9 1.6,-4.2 9.4,-10.2 15.1,-11.8 3.7,-1 8.9,-1.4 9.2,2.1 0.4,4.3 -6.3,5 -8.2,7.7 z"
         class="st0" /><path
         style="clip-rule:evenodd;fill-rule:evenodd"
         id="path24"
         d="m 485.5,481.1 c 1.2,0.3 -3.7,6.5 -6.2,11 -0.8,1.4 -1.9,3.3 -2.9,5.8 -0.7,1.8 -2,5.6 0.4,6.2 1.2,0.3 2.9,-1.9 3.2,-1.1 0.5,1.8 -6.5,7.2 -9.6,5 -0.7,-0.7 -1,-1.6 -1,-2.9 -5.6,5.9 -17.8,5.8 -17.8,-6 0,-2.5 0.5,-5.3 1.2,-7.7 0.6,-2.2 2,-6.1 1.2,-6.5 -1.1,-0.5 -2.4,1.4 -3.2,1 -1,-1 1.4,-4.9 5.5,-5.1 1,-0.1 2.4,0.2 3,1.4 2.3,4.6 -0.1,20.9 8.4,14.8 5.7,-4.2 15.4,-17.3 17.8,-15.9 z"
         class="st0" /><path
         style="clip-rule:evenodd;fill-rule:evenodd"
         id="path26"
         d="m 690.2,482.7 c 9,-5.3 15.5,-0.4 11.9,8.6 -1.4,4.9 -7.8,11.3 -6.1,13.4 1.2,1.3 4.6,-1.1 4.3,1 -1.4,5.5 -10.3,5.1 -11.4,-0.6 -0.7,-3.9 2.8,-11.3 -3,-10.3 -2.3,0.4 -9.8,9.8 -11.1,11.7 -2.4,3.5 -9.1,2 -6.4,-1.9 6,-9.6 13.6,-19.1 17.2,-31.9 0.1,-0.5 0.3,-0.8 0,-1.2 -0.9,-0.9 -1.4,0.3 -2.1,-0.7 -0.5,-2.3 6.1,-4.2 8.1,-1.9 2.4,2.7 -1.4,10.3 -1.4,13.8 z"
         class="st0" /><path
         style="clip-rule:evenodd;fill-rule:evenodd"
         id="path28"
         d="m 722.5,480.9 c 5,-0.5 11.4,3.1 12.2,7.9 0.7,3.8 -0.8,7.1 -1.9,9.1 -3.4,6.3 -12.1,14.3 -20.8,9.8 -6,-3.1 -4.5,-16.4 0.2,-21.5 2.4,-2.7 6.7,-5 10.3,-5.3 z m -1,12.4 c 2.7,-3.3 -1.1,-6.9 -3.7,-5.3 -2.8,1.9 -4.8,6.4 -2.6,8.9 1.9,0.7 4.9,-1.9 6.3,-3.6 z"
         class="st0" /><path
         style="clip-rule:evenodd;fill-rule:evenodd"
         id="path30"
         d="m 518.2,508.4 c -2.8,-0.6 -3.4,-3 -3.3,-4.8 0.2,-6 11.6,-22.5 17.8,-22.9 5.2,-0.3 3.2,4.7 1.3,7 -3.4,4.1 -12.5,16.9 -15.8,20.7 z"
         class="st0" /><path
         style="clip-rule:evenodd;fill-rule:evenodd"
         id="path32"
         d="m 761.1,469.7 c 2.7,-0.7 5.2,0.5 5.3,2.8 0,1.9 -3.7,4.5 -5.7,4.8 -2.5,0.4 -4.6,-0.4 -4.8,-2.2 -0.4,-2.3 3.3,-4.9 5.2,-5.4 z"
         class="st0" /><path
         style="clip-rule:evenodd;fill-rule:evenodd"
         id="path34"
         d="m 742.6,508.4 c -2.8,-0.6 -3.4,-3 -3.3,-4.8 0.2,-6 11.6,-22.5 17.8,-22.9 5.2,-0.3 3.2,4.7 1.3,7 -3.4,4.1 -12.5,16.9 -15.8,20.7 z"
         class="st0" /><path
         id="path36"
         d="m 760.4,506 c 2.8,3.9 8.3,3.2 10,3.2 3.2,-0.2 7.5,-1.4 13.2,-4 6.3,-2.8 12.2,-7.6 12.4,-7.7 0.3,-0.3 0,-0.9 -0.6,-0.7 0,0 -3.5,1.4 -5.4,2 -3.5,1.1 -9.9,3.2 -15.1,1.3 -2.5,-0.9 -2.6,-3.1 -1.5,-4.9 0.9,-1.5 3.2,-3.2 6.1,-4.4 2.4,-1 4.8,-1.4 6.6,-2 3.4,-1.1 5,-2.1 5.1,-3.9 0.2,-2.8 -4,-6.9 -14,-2.6 -9.6,4.2 -15.1,12.6 -17,17.1 -0.9,2.2 -0.9,5.1 0.2,6.6 z" /><path
         id="path38"
         d="m 441.4,501.8 c 0.4,-0.6 -0.1,-1.5 -2.7,-0.3 -1.9,0.8 -4.5,1.3 -6.4,1.6 -2.4,0.2 -4.3,0.1 -5.2,-1.4 -1.1,-2 0.6,-5.8 4.6,-9.3 1.3,-1.1 7.5,-6.3 9.7,-8.9 2.3,-2.7 4.5,-6 4.3,-9.7 -0.2,-5.2 -6.5,-5.2 -6.5,-5.2 -5.9,-0.2 -11.7,2.4 -20.1,8 -5.7,3.8 -17.2,12.8 -22.6,13.3 -4.9,0.2 -3.8,-4.2 -3.7,-8.1 0.1,-2.9 -1.5,-4.6 -3.3,-5.2 -2,-0.7 -4.2,-0.8 -6.8,-0.1 -4.7,1.1 -10.8,6.1 -18.2,14.6 -8.3,9.5 -16.7,15.7 -17.2,16 -0.7,0.5 -0.2,1.3 0.4,1.1 0.4,-0.1 1.6,-0.6 2.7,-1.2 3.4,-1.8 9.9,-5.5 15,-8.8 7.1,-4.6 11.7,-6.8 14,-4.2 2.3,2.6 2,12.6 12.7,6.2 10.7,-6.4 27.6,-19.3 27.6,-12 0,6.9 -5.6,22.3 7.7,19.8 4.2,-0.8 11,-4 12.8,-5.2 -0.2,0.1 1,-0.6 1.2,-1 z" /></g></g><g
     transform="translate(-282.03726,-249.9)"
     id="mc"><path
       id="path41"
       d="m 910.5,341.4 c -0.3,-0.6 -0.9,-1.1 -2,-1.1 -1.7,0 -9.8,4.5 -23.7,10 -9.7,3.8 -23.3,8.7 -38.9,13.5 -15,4.6 -32,9.1 -49.3,12.4 -17.5,3.4 -35.4,5.6 -52,5.6 -9.4,0 -16.8,-1.3 -22,-3.7 -5.6,-2.6 -8.5,-6.6 -8.5,-11.7 0,-7 3.8,-13.3 10,-18.8 4.9,-4.3 11.5,-8.1 18.9,-11.3 3.2,-1.4 6.7,-2.7 10.2,-3.8 10.4,-3.4 21.2,-5.7 30,-8.8 7.4,-2.6 13.3,-5.7 16.3,-10.3 1.4,-2.1 2.1,-4.5 2.1,-7.4 0,-6.9 -5,-13 -13,-16.6 -0.3,-0.1 -0.6,-0.2 -0.8,-0.4 -4.6,-1.9 -10.2,-3.1 -16.3,-3.1 -17.3,0 -34.9,7.4 -49.5,16 -11.9,7.1 -22.1,15.7 -29.4,22.9 -12.3,12.1 -21.2,25.2 -29.4,36.7 -3.1,4.4 -6.1,8.6 -9.2,12.5 -2.5,3.1 -5,6 -7.5,8.6 -2.2,2.2 -4.6,4.1 -7.1,5.9 -3.9,2.8 -7.9,5.3 -12,7.1 -7.9,3.5 -15.8,5.1 -22.3,5.1 -5.7,0 -9.5,-1.2 -11.7,-3.4 -1.7,-1.7 -2.5,-3.9 -2.5,-6.6 0,-12.8 13.5,-24.3 27.9,-36.7 5.4,-4.6 10.9,-9.4 15.9,-14.4 6.4,-6.4 11.4,-12.3 15.1,-17.9 4.9,-7.6 7.3,-14.8 7.3,-22.6 0,-6 -2.9,-12 -9.5,-15.7 -3.9,-2.2 -8.5,-3.5 -16,-3.5 -10.7,0 -21.5,2.9 -32.1,7.6 -18.5,8.1 -36.6,21.3 -53.6,33.1 -23.7,16.5 -48.5,33.7 -62.3,33.7 -8.1,0 -11.9,-4.1 -11.9,-14.4 0,-4.5 0.5,-10.4 0.5,-15.2 0,-7 -2.9,-12 -7.7,-15.2 -4,-2.6 -9.4,-3.9 -15.6,-3.9 -4.7,0 -9.4,0.8 -14.1,2.3 -4.7,1.5 -9.4,3.7 -14.2,6.6 -3.5,2.1 -7.1,4.6 -10.6,7.4 -5.7,4.5 -11.6,9.7 -17.8,15.7 -11.5,11.2 -23.7,26.7 -37,40 -4.5,4.5 -8.7,8.5 -12.6,12.1 -3.9,3.6 -7.5,6.8 -10.7,9.5 -10.9,9.4 -17.5,13.9 -19.2,15.4 -0.8,0.8 -0.8,1.7 -0.4,2.3 0.4,0.8 1.1,1.2 1.9,1.2 0.9,0 3.5,-1.1 7,-2.8 7.5,-3.7 19.3,-10.4 29.1,-16.2 5.3,-3.1 10.7,-6.4 16.2,-9.9 12,-7.5 23.9,-15.2 30.5,-18.4 6.9,-3.3 13,-6 19.3,-6 2.3,0 4,0.5 5.5,1.3 1.1,0.6 2.1,1.4 3.1,2.4 2.5,2.5 4.1,7.5 6.1,12.5 0.9,2.1 1.5,3.9 2.5,5.8 0.9,1.7 2.4,4.9 5.7,7.6 3.1,2.6 6.6,3.4 10,3.4 14.4,0 41.3,-21.4 56,-30.2 22.1,-13.1 42,-26.8 53.7,-26.8 4.4,0 6.8,3.3 6.8,6 0,12.4 -4.2,28.9 -4.2,44.2 0,13.1 3.1,27.7 21.8,27.7 8,0 17.5,-3 26.9,-6.8 7.6,-3.1 15.1,-6.8 21.6,-10 4.6,-2.3 8.8,-4.2 12,-5.5 2.4,-0.9 4.3,-1.5 5.6,-1.5 6,0 4.7,7.9 13.3,16.5 4.7,4.7 14.3,10.4 34.3,10.4 28.5,0 80.9,-15.1 114.9,-28.9 13.3,-5.4 26,-11.2 37.8,-16.8 14.6,-7 27.6,-13.9 38.3,-19.8 9.3,-5.1 16.8,-9.5 21.9,-12.6 0.4,-0.1 1.1,-1.1 0.6,-2.3 z" /></g></svg>