<svg xmlns:xlink="http://www.w3.org/1999/xlink" xmlns="http://www.w3.org/2000/svg" width="308.117" height="66.103"
     viewBox="0 0 308.117 66.103">
    <path d="M72.5 64.657l1.153-1.386c.8.663 1.636 1.08 2.648 1.08.8 0 1.28-.318 1.28-.836v-.025c0-.494-.302-.748-1.786-1.13-1.788-.454-2.94-.95-2.94-2.713v-.023c0-1.61 1.294-2.675 3.105-2.675 1.293 0 2.395.404 3.296 1.126l-1.017 1.47c-.785-.544-1.558-.872-2.307-.872-.746 0-1.14.342-1.14.772v.025c0 .585.38.774 1.912 1.167 1.803.47 2.815 1.115 2.815 2.663v.023c0 1.764-1.343 2.75-3.258 2.75a5.656 5.656 0 0 1-3.763-1.416"
          fill="#005480"/>
    <path id="h"
          d="M87.37 57.01h1.8l3.806 8.94h-2.04l-.814-1.99H86.37l-.81 1.99h-1.992zm2.055 5.224l-1.18-2.876-1.18 2.876z"
          fill="#005480"/>
    <path id="f" fill="#005480" d="M103.216 57.075v1.8h-2.7v7.074h-1.952v-7.074h-2.7v-1.8z"/>
    <path id="g" fill="#005480" d="M109.947 58.812v1.8h4.186v1.737h-4.186v1.863h4.818v1.736h-6.755v-8.875h6.69v1.737z"/>
    <path id="e" fill="#005480" d="M126.175 64.174v1.775H119.8v-8.875h1.95v7.1z"/>
    <path id="i" fill="#005480" d="M142.175 57.075h1.952v8.874h-1.952z"/>
    <path d="M230.914 56.922c-2.74 0-4.728 2.07-4.728 4.594v.022c0 2.523 1.966 4.562 4.705 4.562 2.738 0 4.73-2.066 4.73-4.586v-.027c0-2.522-1.97-4.564-4.706-4.564zm-.02 1.8c1.573 0 2.685 1.27 2.685 2.803 0 1.534-1.092 2.778-2.663 2.778-1.574 0-2.684-1.268-2.684-2.804 0-1.536 1.088-2.777 2.66-2.777zM180.045 57.072v8.875H182v-2.84h1.528l1.905 2.84h2.28l-2.165-3.17c1.127-.42 1.898-1.316 1.898-2.463 0-1.148-.264-1.845-.76-2.34-.58-.583-1.458-.902-2.587-.902zm1.95 1.768h1.94c.952 0 1.534.427 1.534 1.233 0 .805-.55 1.314-1.497 1.314h-1.98zM205.812 57.074v8.875h3.46c2.79 0 4.718-1.942 4.718-4.452s-1.93-4.424-4.717-4.424zm1.956 1.766h1.505c1.598 0 2.674 1.1 2.674 2.684 0 1.585-1.076 2.66-2.674 2.66h-1.505z"
          fill="#005480"/>
    <path d="M28.254 42.92a2.817 2.817 0 0 0 3.956.433 2.816 2.816 0 0 0 .425-3.96 16.233 16.233 0 0 1-3.61-10.272c0-3.703 1.2-7.197 3.48-10.105a2.82 2.82 0 0 0-.484-3.948 2.807 2.807 0 0 0-3.95.483c-3.06 3.904-4.672 8.597-4.672 13.57 0 5.007 1.725 9.908 4.856 13.8zM22.31 8.213a2.816 2.816 0 0 0-3.94.545c-4.516 5.942-6.906 13.04-6.906 20.528 0 7.422 2.35 14.472 6.796 20.388a2.816 2.816 0 0 0 3.937.56 2.813 2.813 0 0 0 .557-3.937c-3.704-4.934-5.665-10.816-5.665-17.01 0-6.248 1.99-12.17 5.755-17.13a2.818 2.818 0 0 0-.536-3.944zM5.636 29.19c0-8.902 2.644-17.474 7.654-24.788a2.813 2.813 0 1 0-4.643-3.18C2.993 9.478.003 19.147.003 29.192c0 10.068 3.003 19.758 8.688 28.026a2.808 2.808 0 0 0 3.91.722 2.81 2.81 0 0 0 .727-3.91c-5.037-7.323-7.69-15.914-7.69-24.84zm270.286 14.163a2.818 2.818 0 0 0 3.958-.433 22.1 22.1 0 0 0 4.853-13.8c0-4.973-1.614-9.666-4.668-13.57a2.812 2.812 0 0 0-3.952-.484 2.81 2.81 0 0 0-.48 3.95 16.24 16.24 0 0 1 3.48 10.104c0 3.78-1.253 7.337-3.615 10.274a2.815 2.815 0 0 0 .425 3.96m10.01 6.88a2.82 2.82 0 0 0 3.94-.56c4.446-5.915 6.794-12.97 6.794-20.39 0-7.487-2.385-14.587-6.9-20.527a2.816 2.816 0 0 0-3.94-.545 2.815 2.815 0 0 0-.542 3.944c3.768 4.96 5.758 10.882 5.758 17.13 0 6.19-1.954 12.075-5.665 17.01a2.81 2.81 0 0 0 .556 3.938m8.91-45.83c5.007 7.313 7.653 15.886 7.653 24.785 0 8.926-2.662 17.52-7.69 24.84a2.81 2.81 0 0 0 .725 3.91 2.807 2.807 0 0 0 3.91-.72c5.673-8.27 8.676-17.96 8.676-28.03 0-10.04-2.987-19.713-8.638-27.968a2.812 2.812 0 0 0-4.637 3.182"
          fill="#00adee"/>
    <path d="M54.64 12.035c-6.76 0-15.382 2.42-15.382 10.734 0 12.59 19.912 8.436 19.912 13.648 0 2.297-2.11 2.914-4.094 2.914-1.24 0-2.358-.37-3.166-.992-.867-.68-1.363-1.675-1.363-2.98h-12.28c.68 8.747 8.867 11.042 16.31 11.042 11.913 0 17.495-4.587 17.495-11.35 0-12.162-20.53-9.12-20.53-13.648 0-1.613 1.424-2.295 3.657-2.295.99 0 1.92.246 2.605.804.682.558 1.116 1.303 1.242 2.36h11.725c-.746-8.625-9.057-10.24-16.13-10.24zM237.52 12.04c-4.652 0-7.586 3.284-9.2 5.765v-4.838h-11.85v32.506h12.903v-16.07c0-3.905.09-7.28 3.635-7.19 3.438.09 3.72 1.92 3.72 6.697v16.563h12.9V29.406c0-3.907-.03-7.175 3.6-7.187 3.412-.01 3.725 1.912 3.725 6.69v16.563h12.9v-19.23c0-8.87-4.025-14.2-12.205-14.2-4.705 0-7.15 2.04-9.943 5.947-1.552-3.474-4.805-5.95-10.185-5.95z"
          fill="#005480"/>
    <path d="M74.244 12.088v5.006h10.48v-5.006h-10.48zm0 7.158v26.402h10.48V19.246h-10.48z" id="d" fill="#005480"/>
    <path d="M105.234 18.486c-4.082 0-6.652 1.97-8.11 6.098h-.105v-5.34h-9.524v26.402H97.98v-9.12c-.002-5.693 2.167-7.708 6.448-7.708.704 0 1.462.2 2.166.3V18.64c-.452-.046-.908-.152-1.36-.152zM165.01 18.49c-5.492 0-12.498 1.965-12.498 8.717 0 10.23 16.177 6.855 16.177 11.086 0 1.864-1.716 2.367-3.327 2.367-1.008 0-1.914-.302-2.57-.807-.704-.554-1.107-1.362-1.107-2.416h-9.977c.552 7.106 7.206 8.967 13.25 8.967 9.677 0 14.21-3.727 14.21-9.22 0-9.877-16.678-7.407-16.678-11.084 0-1.31 1.157-1.864 2.975-1.864.802 0 1.558.203 2.11.653.558.454.91 1.058 1.013 1.913h9.523c-.608-7.002-7.356-8.313-13.103-8.313zM121.88 19.244v16.074c0 7.56 3.725 11.084 9.47 11.084 4.334 0 6.902-1.008 9.523-4.636v3.88h9.723V19.244h-10.48V31.94c0 4.08-.958 6.35-3.98 6.35-2.52 0-3.78-1.158-3.78-4.784V19.244z"
          fill="#005480"/>
    <path clip-path="url(#c)" fill="#005480"
          d="M192.956 12.966l4.096 8.128 4.343-8.128h14.143l-11.105 15.447 11.23 17.06H201.27l-4.592-9.307-4.713 9.307h-14.27l11.664-17-10.733-15.507z"/>
    <path fill="#005480"
          d="M268.048 9.42v.578h-1.124v2.97h-.628v-2.97h-1.126V9.42zM271.532 9.42h.663v3.548h-.622v-2.545l-1.12 1.672h-.02l-1.11-1.662v2.535h-.614V9.42h.663l1.08 1.676z"/>
    <use xlink:href="#d" transform="translate(34.583)" width="100%" height="100%"/>
    <use xlink:href="#e" transform="translate(11.143)" width="100%" height="100%"/>
    <use xlink:href="#f" transform="translate(53.143)" width="100%" height="100%"/>
    <use xlink:href="#g" transform="translate(53.142)" width="100%" height="100%"/>
    <use xlink:href="#h" transform="translate(108.173)" width="100%" height="100%"/>
    <use xlink:href="#i" transform="translate(76.936)" width="100%" height="100%"/>
</svg>
