<svg xmlns="http://www.w3.org/2000/svg" xmlns:xlink="http://www.w3.org/1999/xlink" xmlns:sketch="http://www.bohemiancoding.com/sketch/ns" width="264px" height="60px" viewBox="0 0 244 60" version="1.1">
    <!-- Generator: sketchtool 3.5.2 (25235) - http://www.bohemiancoding.com/sketch -->
    <title>blue logo</title>
    <desc>Created with sketchtool.</desc>
    <defs>
        <rect id="path-1" x="0" y="0" width="262" height="263"/>
        <path id="path-2" d="M0.035625,0.497 L208.590312,0.497 L208.590312,27.965 L0.035625,27.965 L0.035625,0.497 Z"/>
    </defs>
    <g id="4.x-Support---Responsive" stroke="none" stroke-width="1" fill="none" fill-rule="evenodd" sketch:type="MSPage">
        <g id="4.5.1-Branding-Guide-Desktop" sketch:type="MSArtboardGroup" transform="translate(-430.000000, -100.000000)">
            <g id="blue-logo" sketch:type="MSLayerGroup" transform="translate(423.000000, 0.000000)">
                <g id="TM-GrayLogo" transform="translate(27.000000, 112.000000)">
                    <mask id="mask-3" sketch:name="Clip 2" fill="white">
                        <use xlink:href="#path-2"/>
                    </mask>
                    <g id="Clip-2"/>
                    <path d="M123.501188,24.4644167 C127.172938,24.4644167 128.31175,21.9759167 129.08125,18.9816667 L127.356406,18.9816667 C124.970125,18.9816667 121.005063,19.3789167 121.005063,22.5166667 C121.005063,23.8151667 122.252531,24.4644167 123.501188,24.4644167 L123.501188,24.4644167 Z M128.31175,24.717 L128.237531,24.717 C126.548906,26.8094167 124.859688,28 122.142688,28 C118.729813,28 116.307313,26.1234167 116.307313,22.6975 C116.307313,16.5649167 123.2815,16.0965 127.907406,16.0965 L129.632844,16.0965 C129.7795,15.59075 129.7795,15.05 129.7795,14.5086667 C129.7795,12.6338333 127.723938,12.0925 125.9985,12.0925 C123.831906,12.0925 121.738938,12.6338333 119.793219,13.5350833 L120.490281,9.67575 C122.58325,8.95533333 124.713031,8.5575 126.916438,8.5575 C130.697438,8.5575 134.25875,9.92833333 134.25875,14.29225 C134.25875,16.7813333 132.386656,24.0683333 131.946094,27.5671667 L127.796969,27.5671667 L128.31175,24.717 L128.31175,24.717 Z" id="Fill-1" fill="#009CDE" sketch:type="MSShapeGroup" mask="url(#mask-3)"/>
                    <path d="M0.7706875,8.97341667 L4.33259375,8.97341667 L5.17690625,5.15025 L10.4636562,3.4545 L9.2518125,8.97341667 L13.6580312,8.97341667 L12.88675,12.5084167 L8.48053125,12.5084167 L6.6820625,20.6243333 C6.571625,21.0571667 6.46178125,21.707 6.46178125,22.4274167 C6.46178125,23.54625 7.2330625,24.2310833 8.33446875,24.2310833 C9.21559375,24.2310833 10.0967187,24.0508333 10.7213437,23.79825 L9.8764375,27.5496667 C9.03153125,27.7299167 8.077375,27.9830833 7.2330625,27.9830833 C3.89203125,27.9830833 1.54196875,26.6845833 1.54196875,23.1128333 C1.54196875,21.6708333 1.835875,20.2638333 2.166,18.7856667 L3.5613125,12.5084167 L0,12.5084167 L0.7706875,8.97341667" id="Fill-3" fill="#009CDE" sketch:type="MSShapeGroup" mask="url(#mask-3)"/>
                    <path d="M17.477625,0.965416667 L22.3968438,0.965416667 L21.3690625,5.58308333 L16.44925,5.58308333 L17.477625,0.965416667 L17.477625,0.965416667 Z M15.6779688,8.97341667 L20.5977813,8.97341667 L16.5596875,27.5496667 L11.639875,27.5496667 L15.6779688,8.97341667 L15.6779688,8.97341667 Z" id="Fill-4" fill="#009CDE" sketch:type="MSShapeGroup" mask="url(#mask-3)"/>
                    <path d="M35.4557813,13.2305833 C34.4998438,12.6169167 33.2155625,12.292 31.8570625,12.292 C27.9282188,12.292 25.7254063,15.8993333 25.7254063,19.39875 C25.7254063,21.81375 26.5329063,24.2310833 29.9113438,24.2310833 C31.1231875,24.2310833 32.6283438,23.9061667 33.912625,23.2936667 L33.3622188,27.1174167 C31.8570625,27.8384167 30.2420625,27.9830833 28.6264688,27.9830833 C23.742875,27.9830833 20.5853125,24.7735833 20.5853125,19.9756667 C20.5853125,13.4825833 24.9547188,8.54175 31.7472188,8.54175 C33.5830938,8.54175 35.34475,8.86608333 36.667625,9.26216667 L35.4557813,13.2305833" id="Fill-5" fill="#009CDE" sketch:type="MSShapeGroup" mask="url(#mask-3)"/>
                    <path d="M40.8511875,0.497 L45.771,0.497 L42.503,15.7190833 L42.5772187,15.7190833 L49.44275,8.97341667 L55.8309062,8.97341667 L46.7625625,17.4504167 L52.4530625,27.5496667 L46.9092187,27.5496667 L42.025625,17.7035833 L41.952,17.7035833 L39.8228125,27.5496667 L35.0134375,27.5496667 L40.8511875,0.497" id="Fill-6" fill="#009CDE" sketch:type="MSShapeGroup" mask="url(#mask-3)"/>
                    <path d="M73.565625,8.97341667 L77.1269375,8.97341667 L77.97125,5.15025 L83.2585938,3.4545 L82.04675,8.97341667 L86.4529688,8.97341667 L85.6822813,12.5084167 L81.2754688,12.5084167 L79.4764063,20.6243333 C79.3665625,21.0571667 79.256125,21.707 79.256125,22.4274167 C79.256125,23.54625 80.0274063,24.2310833 81.1294063,24.2310833 C82.0105313,24.2310833 82.8916563,24.0508333 83.5150938,23.79825 L82.6701875,27.5496667 C81.8264688,27.7299167 80.8717188,27.9830833 80.0274063,27.9830833 C76.686375,27.9830833 74.3363125,26.6845833 74.3363125,23.1128333 C74.3363125,21.6708333 74.6302188,20.2638333 74.9609375,18.7856667 L76.35625,12.5084167 L72.7943438,12.5084167 L73.565625,8.97341667" id="Fill-7" fill="#009CDE" sketch:type="MSShapeGroup" mask="url(#mask-3)"/>
                    <path d="M71.9203438,15.6111667 C71.9203438,10.885 68.8358125,8.54175 64.1736875,8.54175 C57.9684063,8.54175 53.4155313,14.0968333 53.4155313,19.86775 C53.4155313,25.3866667 57.0872813,27.9830833 62.5212813,27.9830833 C64.5400313,27.9830833 66.6335938,27.5146667 68.5419063,26.93775 L69.167125,23.1128333 C67.3300625,23.9435 65.3843438,24.4480833 63.3655938,24.4480833 C60.2187188,24.4480833 58.379875,23.3496667 58.1435625,20.4289167 L58.1394063,20.4289167 C58.1305,20.2591667 58.1144688,20.0940833 58.1144688,19.9161667 C58.1144688,19.88175 58.1168438,19.84675 58.1168438,19.8129167 C58.1168438,19.7948333 58.1156563,19.7779167 58.1156563,19.7586667 L58.1192188,19.7586667 C58.1411875,18.4864167 58.425,17.2316667 58.9184063,16.07375 C59.8636563,13.7095 61.2007813,12.0761667 64.0994688,12.0761667 C66.155625,12.0761667 67.2208125,13.1938333 67.2208125,15.1783333 C67.2208125,15.6111667 67.1834063,16.00725 67.110375,16.4406667 L60.3784375,16.4406667 C59.9420313,17.9001667 59.8654375,18.8784167 59.8565313,19.7586667 L71.4429688,19.7586667 C71.7356875,18.3878333 71.9203438,17.0175833 71.9203438,15.6111667" id="Fill-8" fill="#009CDE" sketch:type="MSShapeGroup" mask="url(#mask-3)"/>
                    <path d="M88.575625,11.0296667 C88.7222812,10.3086667 88.8689375,9.55091667 88.979375,8.97341667 L93.5690625,8.97341667 L93.1285,11.4625 L93.2015312,11.4625 C94.5232187,9.55091667 96.6892187,8.54175 99.001875,8.54175 C101.242094,8.54175 103.55475,9.83966667 103.811844,12.0761667 L103.885469,12.0761667 C105.133531,9.65941667 107.887344,8.54175 110.530719,8.54175 C113.357562,8.54175 115.780656,10.81325 115.780656,13.62725 C115.780656,15.28625 115.340687,17.1628333 114.936937,18.6771667 L112.953812,27.5496667 L108.034,27.5496667 L110.017125,18.49575 C110.273625,17.3780833 110.641156,15.6461667 110.641156,14.5285 C110.641156,13.15825 109.576562,12.292 108.327906,12.292 C104.912656,12.292 104.068344,16.1875 103.444906,18.7133333 L101.498594,27.5496667 L96.579375,27.5496667 L98.5619062,18.49575 C98.819,17.3780833 99.1865312,15.6461667 99.1865312,14.5285 C99.1865312,13.15825 98.1213437,12.292 96.8726875,12.292 C93.5316562,12.292 92.613125,16.2236667 91.9896875,18.7133333 L90.043375,27.5496667 L85.1241562,27.5496667 L88.575625,11.0296667" id="Fill-9" fill="#009CDE" sketch:type="MSShapeGroup" mask="url(#mask-3)"/>
                    <path d="M148.873312,12.75575 C148.344875,12.4734167 146.986375,12.0761667 145.591062,12.0761667 C144.122719,12.0761667 142.287437,12.4734167 142.287437,13.951 C142.287437,16.2954167 148.675,17.1628333 148.675,21.707 C148.675,26.5405 144.379812,27.9830833 140.157656,27.9830833 C138.175125,27.9830833 136.192,27.6955 134.392937,26.8654167 L135.458125,23.0055 C136.852844,23.7626667 138.248156,24.4480833 140.157656,24.4480833 C141.810062,24.4480833 143.5355,23.9061667 143.5355,22.393 C143.5355,19.39875 137.147344,19.1088333 137.147344,14.45675 C137.147344,10.09225 141.442531,8.54175 145.334562,8.54175 C147.133625,8.54175 148.968906,8.86608333 149.9385,9.11225 L148.873312,12.75575" id="Fill-10" fill="#009CDE" sketch:type="MSShapeGroup" mask="url(#mask-3)"/>
                    <path d="M152.015438,8.97341667 L155.577344,8.97341667 L156.421656,5.15025 L161.709,3.4545 L160.497156,8.97341667 L164.902781,8.97341667 L164.132094,12.5084167 L159.725875,12.5084167 L157.926813,20.6243333 C157.816969,21.0571667 157.707125,21.707 157.707125,22.4274167 C157.707125,23.54625 158.478406,24.2310833 159.579813,24.2310833 C160.460344,24.2310833 161.341469,24.0508333 161.9655,23.79825 L161.121781,27.5496667 C160.276875,27.7299167 159.322719,27.9830833 158.478406,27.9830833 C155.136781,27.9830833 152.787313,26.6845833 152.787313,23.1128333 C152.787313,21.6708333 153.081219,20.2638333 153.41075,18.7856667 L154.80725,12.5084167 L151.245344,12.5084167 L152.015438,8.97341667" id="Fill-11" fill="#009CDE" sketch:type="MSShapeGroup" mask="url(#mask-3)"/>
                    <path d="M185.371719,11.4625 C185.518375,10.6691667 185.665625,9.83966667 185.812281,8.97341667 L190.512406,8.97341667 L189.850969,12.4734167 L189.925188,12.4734167 C190.806313,10.45275 193.228813,8.54175 195.50525,8.54175 C196.129875,8.54175 196.791313,8.57616667 197.377938,8.72141667 L196.350156,13.447 C195.799156,13.2661667 195.1015,13.15825 194.478063,13.15825 C190.989781,13.15825 189.300563,16.2236667 188.676531,19.2179167 L186.914281,27.5496667 L181.994469,27.5496667 L185.371719,11.4625" id="Fill-12" fill="#009CDE" sketch:type="MSShapeGroup" mask="url(#mask-3)"/>
                    <path d="M181.957656,15.6111667 C181.957656,10.885 178.873719,8.54175 174.210406,8.54175 C168.006313,8.54175 163.452844,14.0968333 163.452844,19.86775 C163.452844,25.3866667 167.124,27.9830833 172.558594,27.9830833 C174.577344,27.9830833 176.670906,27.5146667 178.579813,26.93775 L179.203844,23.1128333 C177.367969,23.9435 175.42225,24.4480833 173.4035,24.4480833 C170.255438,24.4480833 168.417188,23.3496667 168.180281,20.4289167 L168.176719,20.4289167 C168.167813,20.2591667 168.151781,20.0940833 168.151781,19.9161667 C168.151781,19.88175 168.153563,19.84675 168.15475,19.8129167 C168.15475,19.7948333 168.152969,19.7779167 168.152969,19.7586667 L168.156531,19.7586667 C168.177906,18.4864167 168.462313,17.2316667 168.956313,16.07375 C169.900375,13.7095 171.2375,12.0761667 174.136781,12.0761667 C176.192344,12.0761667 177.257531,13.1938333 177.257531,15.1783333 C177.257531,15.6111667 177.220719,16.00725 177.147688,16.4406667 L170.41575,16.4406667 C169.979344,17.9001667 169.902156,18.8784167 169.893844,19.7586667 L181.480281,19.7586667 C181.773594,18.3878333 181.957656,17.0175833 181.957656,15.6111667" id="Fill-13" fill="#009CDE" sketch:type="MSShapeGroup" mask="url(#mask-3)"/>
                    <path d="M204.101012,12.0124401 L205.033141,12.0124401 C205.63733,12.0124401 206.028445,11.8864777 206.028445,11.2595417 C206.028445,10.7125543 205.537398,10.5520817 205.033141,10.5520817 L204.101012,10.5520817 L204.101012,12.0124401 L204.101012,12.0124401 Z M203.315337,9.93549871 L205.159492,9.93549871 C206.26679,9.93549871 206.811824,10.3824063 206.811824,11.2957774 C206.811824,12.069382 206.322499,12.6290231 205.567837,12.6290231 L206.939898,14.7634816 L206.105405,14.7634816 L204.759188,12.6290231 L204.101012,12.6290231 L204.101012,14.7634816 L203.315337,14.7634816 L203.315337,9.93549871 L203.315337,9.93549871 Z M204.899898,15.8574563 C206.788277,15.8574563 208.21375,14.3280774 208.21375,12.355817 C208.21375,10.3824063 206.788277,8.85245228 204.899898,8.85245228 C202.986249,8.85245228 201.557904,10.3824063 201.557904,12.355817 C201.557904,14.3280774 202.986249,15.8574563 204.899898,15.8574563 L204.899898,15.8574563 Z M204.886688,8.23529412 C207.15125,8.23529412 209,10.0821672 209,12.355817 C209,14.6242903 207.15125,16.4705882 204.886688,16.4705882 C202.620978,16.4705882 200.771654,14.6242903 200.771654,12.355817 C200.771654,10.0821672 202.620978,8.23529412 204.886688,8.23529412 L204.886688,8.23529412 Z" id="Fill-15" fill="#009CDE" sketch:type="MSShapeGroup" mask="url(#mask-3)"/>
                </g>
            </g>
        </g>
    </g>
</svg>
