<?xml version="1.0" encoding="UTF-8" standalone="no"?>
<!-- Created with Inkscape (http://www.inkscape.org/) -->

<svg
   xmlns:dc="http://purl.org/dc/elements/1.1/"
   xmlns:cc="http://creativecommons.org/ns#"
   xmlns:rdf="http://www.w3.org/1999/02/22-rdf-syntax-ns#"
   xmlns:svg="http://www.w3.org/2000/svg"
   xmlns="http://www.w3.org/2000/svg"
   xmlns:sodipodi="http://sodipodi.sourceforge.net/DTD/sodipodi-0.dtd"
   xmlns:inkscape="http://www.inkscape.org/namespaces/inkscape"
   width="411.11313"
   height="155.12636"
   id="svg2"
   version="1.1"
   inkscape:version="0.48.2 r9819"
   sodipodi:docname="New document 1">
  <defs
     id="defs4" />
  <sodipodi:namedview
     id="base"
     pagecolor="#ffffff"
     bordercolor="#666666"
     borderopacity="1.0"
     inkscape:pageopacity="0.0"
     inkscape:pageshadow="2"
     inkscape:zoom="1.0824912"
     inkscape:cx="201.38102"
     inkscape:cy="32.380761"
     inkscape:document-units="px"
     inkscape:current-layer="layer1"
     showgrid="false"
     fit-margin-top="0"
     fit-margin-left="0"
     fit-margin-right="0"
     fit-margin-bottom="0"
     inkscape:window-width="1440"
     inkscape:window-height="853"
     inkscape:window-x="-4"
     inkscape:window-y="-4"
     inkscape:window-maximized="1" />
  <metadata
     id="metadata7">
    <rdf:RDF>
      <cc:Work
         rdf:about="">
        <dc:format>image/svg+xml</dc:format>
        <dc:type
           rdf:resource="http://purl.org/dc/dcmitype/StillImage" />
        <dc:title></dc:title>
      </cc:Work>
    </rdf:RDF>
  </metadata>
  <g
     inkscape:label="Layer 1"
     inkscape:groupmode="layer"
     id="layer1"
     transform="translate(-173.61898,-705.231)">
    <g
       id="g3134">
      <g
         id="g3229"
         transform="matrix(4.4140213,0,0,-4.4140213,380.32318,739.96493)">
        <path
           inkscape:connector-curvature="0"
           d="M 0,0 C 0.078,0.117 0.314,0.039 0.48,0.035 0.703,0.03 0.65,-0.3 0.959,-0.235 c 0.308,0.066 0.312,-0.293 0.752,-0.28 0.442,0.014 -0.088,-0.154 -0.088,-0.154 0,0 -0.273,0.132 -0.449,0.043 C 1.08,-0.673 1.208,-0.599 1.051,-0.471 0.809,-0.273 0.842,-0.508 0.436,-0.163 0.148,0.081 -0.128,-0.192 0,0"
           style="fill:#231f20;fill-opacity:1;fill-rule:evenodd;stroke:none"
           id="path3231" />
      </g>
      <g
         id="g3233"
         transform="matrix(4.4140213,0,0,-4.4140213,365.6907,741.97331)">
        <path
           inkscape:connector-curvature="0"
           d="M 0,0 C -0.261,0.422 -0.066,0.947 0.23,1.458 0.447,1.834 1.028,2 1.533,1.803 2.1,2.25 2.236,1.769 2.738,1.986 3.398,2.272 3.029,1.227 3.667,0.964 3.931,1.668 3.066,2.197 3.608,2.528 c 0.388,0.237 0.681,0.384 0.84,0.7 0.226,0.452 0.314,0.782 0.489,0.841 0.402,0.138 0.315,0.52 0.315,0.52 0,0 0.429,-0.125 0.761,0.187 C 5.759,4.914 5.387,5.031 5.486,5.305 5.601,5.627 6.463,4.972 6.718,5.501 6.205,5.724 5.681,6.21 5.368,6.322 5.154,6.087 5.019,6.181 4.742,6.4 4.273,6.771 4.234,6.419 3.94,6.673 3.707,6.204 4.06,6.241 4.167,6.124 4.468,5.793 3.862,6.419 3.921,5.579 3.936,5.361 3.614,5.32 3.374,5.793 3.249,6.04 2.253,5.989 2.102,6.224 2.24,6.498 3.413,7.475 5.212,7.24 2.597,8.268 -0.935,7.146 -0.971,6.756 -1.323,6.535 -1.202,6.282 -1.378,6.224 -1.683,6.122 -2.014,5.192 -2.014,5.192 c 0,0 0.189,-0.126 -0.402,-0.788 -0.487,-0.545 -0.631,-1.371 -0.631,-1.371 0,0 0.322,-0.589 0.26,-1.267 -0.045,-0.518 -0.067,-0.134 0.158,-0.509 0.131,-0.22 0.274,-0.986 0.361,-0.687 0.166,0.57 -0.303,1.098 -0.225,1.665 0.018,-0.071 0.18,0.225 0.174,-0.043 -0.017,-0.7 0.862,-2.05 0.862,-2.05 0,0 -0.328,-0.334 0.016,-0.334 l -0.088,-0.207 c 0,0 0.255,0.015 0.419,-0.119 0.165,-0.135 0.307,-0.301 0.457,-0.301 l 2.529,0 c 0,0 0.18,0.767 0.327,0.898 0.147,0.13 -0.294,0 -0.424,0.13 C 1.648,0.34 1.566,0.095 1.501,-0.035 1.435,-0.166 1.354,-0.395 1.158,-0.46 0.962,-0.525 0.49,-0.558 0.392,-0.558 0.294,-0.558 0,0 0,0"
           style="fill:#231f20;fill-opacity:1;fill-rule:nonzero;stroke:none"
           id="path3235" />
      </g>
      <g
         id="g3237"
         transform="matrix(4.4140213,0,0,-4.4140213,417.99241,778.22125)">
        <path
           inkscape:connector-curvature="0"
           d="m 0,0 c -0.098,0.13 0.016,0.327 0.016,0.327 l -7.131,0 0.795,-0.694 c 0.174,-0.07 0.394,-0.245 0.495,-0.512 0.238,-0.631 -0.116,-0.12 -0.116,-1.074 0,-0.877 -0.247,-0.735 -0.247,-0.735 0,0 -0.053,-1.037 -0.59,-1.674 -0.341,-0.343 -0.076,-0.627 -0.076,-0.627 0,0 -0.115,-0.065 -0.282,-0.817 -0.055,-0.243 0.257,-0.619 0.527,-0.525 0.203,0.071 -0.492,0.138 0.262,0.455 0.29,0.123 0.053,0.354 0.053,0.354 0,0 0.487,0.038 0.762,0.775 0.486,-0.071 0.306,0.227 1.306,0.443 0.264,0.056 0.32,0.136 0.287,0.384 -0.033,0.249 0.326,-0.036 1.317,0.975 0.78,0.797 0.499,0.977 1.039,1.266 0.571,0.304 0.623,-0.026 0.814,0.221 0.436,0.568 0.283,0.531 0.464,0.893 l 0.129,0.199 c 0,0 0.273,0.236 0.176,0.366"
           style="fill:#231f20;fill-opacity:1;fill-rule:nonzero;stroke:none"
           id="path3239" />
      </g>
      <g
         id="g3241"
         transform="matrix(4.4140213,0,0,-4.4140213,395.99296,744.63496)">
        <path
           inkscape:connector-curvature="0"
           d="M 0,0 -0.159,-0.095 -0.191,0.063 0,0 z"
           style="fill:#231f20;fill-opacity:1;fill-rule:nonzero;stroke:none"
           id="path3243" />
      </g>
      <g
         id="g3245"
         transform="matrix(4.4140213,0,0,-4.4140213,393.47697,744.0788)">
        <path
           inkscape:connector-curvature="0"
           d="m 0,0 c -0.255,-0.055 -0.524,0 -0.761,-0.19 l -0.159,0.127 -0.095,0 c 0.222,0.182 -0.127,0.372 0.254,0.38 C -0.468,0.309 -0.255,0.104 0,0"
           style="fill:#231f20;fill-opacity:1;fill-rule:nonzero;stroke:none"
           id="path3247" />
      </g>
      <g
         id="g3249"
         transform="matrix(4.4140213,0,0,-4.4140213,325.85858,745.08078)">
        <path
           inkscape:connector-curvature="0"
           d="M 0,0 C 1.647,5.094 5.546,9.028 12.062,9.028 18.117,9.028 22.566,5.04 24.18,-0.111 22.496,4.69 17.711,8.153 12.071,8.153 6.473,8.153 1.718,4.743 0,0 m 24.153,-7.792 c -1.639,-5.107 -6.249,-9.08 -12.091,-9.08 -6.197,0 -10.361,3.919 -12.036,8.969 1.743,-4.704 6.476,-8.078 12.045,-8.078 5.61,0 10.375,3.427 12.082,8.189"
           style="fill:#231f20;fill-opacity:1;fill-rule:evenodd;stroke:none"
           id="path3251" />
      </g>
      <g
         id="g3253"
         transform="matrix(4.4140213,0,0,-4.4140213,282.89249,750.58506)">
        <path
           inkscape:connector-curvature="0"
           d="m 0,0 -1.987,0 0.297,-0.353 0,-2.61 c 0,-0.586 -0.388,-0.833 -0.969,-0.833 -0.579,0 -0.968,0.247 -0.968,0.833 l 0,2.61 0.297,0.353 -1.987,0 0.297,-0.353 0,-2.652 c 0,-1.301 0.728,-1.803 2.361,-1.803 1.633,0 2.361,0.502 2.361,1.803 l 0,2.652 L 0,0"
           style="fill:#231f20;fill-opacity:1;fill-rule:nonzero;stroke:none"
           id="path3255" />
      </g>
      <g
         id="g3257"
         transform="matrix(4.4140213,0,0,-4.4140213,313.33158,750.58506)">
        <path
           inkscape:connector-curvature="0"
           d="m 0,0 -1.676,0 0.296,-0.353 0,-2.376 -2.403,2.729 -1.506,0 0.297,-0.353 0,-4.009 -0.297,-0.354 1.676,0 -0.297,0.354 0,2.418 2.552,-2.772 1.061,0 0,4.363 L 0,0 z"
           style="fill:#231f20;fill-opacity:1;fill-rule:nonzero;stroke:none"
           id="path3259" />
      </g>
      <g
         id="g3261"
         transform="matrix(4.4140213,0,0,-4.4140213,330.37412,771.40159)">
        <path
           inkscape:connector-curvature="0"
           d="m 0,0 -0.297,0.353 0,4.009 0.297,0.354 -2.001,0 0.298,-0.354 0,-4.009 L -2.001,0 0,0 z"
           style="fill:#231f20;fill-opacity:1;fill-rule:nonzero;stroke:none"
           id="path3263" />
      </g>
      <g
         id="g3265"
         transform="matrix(4.4140213,0,0,-4.4140213,359.49783,750.58506)">
        <path
           inkscape:connector-curvature="0"
           d="m 0,0 -1.683,0 0.297,-0.353 -1.188,-2.595 -1.145,2.595 0.297,0.353 -1.979,0 2.198,-4.716 0.983,0 L 0,0 z"
           style="fill:#231f20;fill-opacity:1;fill-rule:nonzero;stroke:none"
           id="path3267" />
      </g>
      <g
         id="g3269"
         transform="matrix(4.4140213,0,0,-4.4140213,384.30463,771.40159)">
        <path
           inkscape:connector-curvature="0"
           d="m 0,0 0,1.28 -0.354,-0.297 -2.411,0 0,0.905 1.528,0 0.346,-0.298 0,1.535 -0.346,-0.297 -1.528,0 0,0.905 2.411,0 L 0,3.436 l 0,1.28 -4.44,0 0.296,-0.354 0,-4.009 L -4.44,0 0,0 z"
           style="fill:#231f20;fill-opacity:1;fill-rule:nonzero;stroke:none"
           id="path3271" />
      </g>
      <g
         id="g3273"
         transform="matrix(4.4140213,0,0,-4.4140213,406.9618,757.32527)">
        <path
           inkscape:connector-curvature="0"
           d="m 0,0 c 0,-0.339 -0.325,-0.615 -0.778,-0.615 l -0.897,0 0,1.159 1.067,0 C -0.297,0.544 0,0.389 0,0 m 1.626,-3.189 -1.279,1.86 c 0.629,0.254 1.068,0.742 1.068,1.428 0,0.785 -0.481,1.428 -1.825,1.428 l -2.941,0 0.297,-0.354 0,-4.008 -0.297,-0.354 1.972,0 -0.296,0.354 0,1.336 0.594,0 0.904,-1.336 -0.296,-0.354 2.099,0"
           style="fill:#231f20;fill-opacity:1;fill-rule:evenodd;stroke:none"
           id="path3275" />
      </g>
      <g
         id="g3277"
         transform="matrix(4.4140213,0,0,-4.4140213,440.50392,765.31465)">
        <path
           inkscape:connector-curvature="0"
           d="m 0,0 c 0,0.749 -0.602,1.167 -1.471,1.45 -0.566,0.176 -1.365,0.303 -1.365,0.678 0,0.184 0.219,0.311 0.601,0.311 0.51,0 1.343,-0.212 1.994,-0.523 l 0,1.577 -0.375,-0.361 c -0.396,0.163 -1.082,0.333 -1.555,0.333 -1.605,0 -2.121,-0.707 -2.121,-1.351 0,-0.877 0.58,-1.259 1.492,-1.577 0.678,-0.233 1.308,-0.254 1.308,-0.642 0,-0.334 -0.389,-0.376 -0.588,-0.376 -0.501,0 -1.392,0.177 -2.184,0.693 l 0,-1.746 0.375,0.41 c 0.368,-0.141 1.195,-0.382 1.873,-0.382 C -0.622,-1.506 0,-0.891 0,0"
           style="fill:#231f20;fill-opacity:1;fill-rule:nonzero;stroke:none"
           id="path3279" />
      </g>
      <g
         id="g3281"
         transform="matrix(4.4140213,0,0,-4.4140213,461.61618,763.91099)">
        <path
           inkscape:connector-curvature="0"
           d="M 0,0 -1.562,0 -0.784,1.689 0,0 z m 2.269,-1.697 -2.32,4.716 -1.59,0 0.169,-0.354 -2.099,-4.362 1.731,0 -0.296,0.354 0.233,0.495 2.248,0 0.228,-0.495 -0.298,-0.354 1.994,0 z"
           style="fill:#231f20;fill-opacity:1;fill-rule:evenodd;stroke:none"
           id="path3283" />
      </g>
      <g
         id="g3285"
         transform="matrix(4.4140213,0,0,-4.4140213,496.29715,771.40159)">
        <path
           inkscape:connector-curvature="0"
           d="m 0,0 0,1.28 -0.354,-0.297 -2.27,0 0,3.379 0.297,0.354 -1.973,0 0.298,-0.354 0,-4.009 L -4.3,0 0,0 z"
           style="fill:#231f20;fill-opacity:1;fill-rule:nonzero;stroke:none"
           id="path3287" />
      </g>
      <g
         id="g3289"
         transform="matrix(4.4140213,0,0,-4.4140213,491.90519,755.08737)">
        <path
           inkscape:connector-curvature="0"
           d="M 0,0 C 0,0.519 0.422,0.94 0.941,0.94 1.46,0.94 1.882,0.519 1.882,0 1.882,-0.519 1.46,-0.94 0.941,-0.94 0.422,-0.94 0,-0.519 0,0 m 0.089,0 c 0,-0.47 0.38,-0.853 0.852,-0.853 0.471,0 0.853,0.383 0.853,0.853 0,0.471 -0.382,0.853 -0.853,0.853 C 0.469,0.853 0.089,0.471 0.089,0"
           style="fill:#231f20;fill-opacity:1;fill-rule:nonzero;stroke:none"
           id="path3291" />
      </g>
      <g
         id="g3293"
         transform="matrix(4.4140213,0,0,-4.4140213,497.62135,753.46301)">
        <path
           inkscape:connector-curvature="0"
           d="m 0,0 c -0.093,0.079 -0.205,0.116 -0.326,0.116 -0.277,0 -0.483,-0.215 -0.483,-0.487 0,-0.274 0.202,-0.49 0.481,-0.49 0.125,0 0.244,0.046 0.34,0.129 l 0,0.123 c -0.087,-0.103 -0.211,-0.167 -0.345,-0.167 -0.221,0 -0.384,0.192 -0.384,0.405 0,0.213 0.165,0.401 0.386,0.401 0.133,0 0.243,-0.055 0.331,-0.152 L 0,0"
           style="fill:#231f20;fill-opacity:1;fill-rule:evenodd;stroke:none"
           id="path3295" />
      </g>
      <g
         id="g3297"
         transform="matrix(4.4140213,0,0,-4.4140213,188.53837,846.92991)">
        <path
           inkscape:connector-curvature="0"
           d="m 0,0 0,-1.785 c 0,-0.876 -0.49,-1.214 -1.59,-1.214 -1.099,0 -1.59,0.338 -1.59,1.214 l 0,1.785 -0.2,0.238 1.338,0 -0.2,-0.238 0,-1.756 c 0,-0.395 0.262,-0.562 0.652,-0.562 0.391,0 0.652,0.167 0.652,0.562 l 0,1.756 -0.2,0.238 1.338,0 L 0,0"
           style="fill:#231f20;fill-opacity:1;fill-rule:nonzero;stroke:none"
           id="path3299" />
      </g>
      <g
         id="g3301"
         transform="matrix(4.4140213,0,0,-4.4140213,211.18672,846.92991)">
        <path
           inkscape:connector-curvature="0"
           d="m 0,0 0,-2.937 -0.714,0 -1.718,1.866 0,-1.628 0.2,-0.238 -1.129,0 0.2,0.238 0,2.699 -0.2,0.238 1.014,0 1.619,-1.837 0,1.599 -0.2,0.238 1.128,0 L 0,0 z"
           style="fill:#231f20;fill-opacity:1;fill-rule:nonzero;stroke:none"
           id="path3303" />
      </g>
      <g
         id="g3305"
         transform="matrix(4.4140213,0,0,-4.4140213,219.73667,859.89389)">
        <path
           inkscape:connector-curvature="0"
           d="m 0,0 0.2,0.238 0,2.699 -0.2,0.238 1.347,0 -0.2,-0.238 0,-2.699 L 1.347,0 0,0 z"
           style="fill:#231f20;fill-opacity:1;fill-rule:nonzero;stroke:none"
           id="path3307" />
      </g>
      <g
         id="g3309"
         transform="matrix(4.4140213,0,0,-4.4140213,240.91515,859.89389)">
        <path
           inkscape:connector-curvature="0"
           d="m 0,0 -0.662,0 -1.48,3.175 1.333,0 -0.2,-0.238 0.771,-1.747 0.8,1.747 -0.2,0.238 1.133,0 L 0,0 z"
           style="fill:#231f20;fill-opacity:1;fill-rule:nonzero;stroke:none"
           id="path3311" />
      </g>
      <g
         id="g3313"
         transform="matrix(4.4140213,0,0,-4.4140213,253.18613,859.89389)">
        <path
           inkscape:connector-curvature="0"
           d="m 0,0 0.2,0.238 0,2.699 -0.2,0.238 2.989,0 0,-0.862 -0.238,0.2 -1.623,0 0,-0.609 1.028,0 0.233,0.2 0,-1.033 -0.233,0.2 -1.028,0 0,-0.609 1.623,0 0.238,0.2 L 2.989,0 0,0 z"
           style="fill:#231f20;fill-opacity:1;fill-rule:nonzero;stroke:none"
           id="path3315" />
      </g>
      <g
         id="g3317"
         transform="matrix(4.4140213,0,0,-4.4140213,281.99203,848.80145)">
        <path
           inkscape:connector-curvature="0"
           d="m 0,0 -0.719,0 0,-0.78 0.605,0 c 0.304,0 0.523,0.185 0.523,0.414 C 0.409,-0.104 0.209,0 0,0 m 0.09,-2.513 0.2,0.238 -0.609,0.9 -0.4,0 0,-0.9 0.2,-0.238 -1.328,0 0.2,0.238 0,2.699 -0.2,0.238 1.98,0 c 0.905,0 1.228,-0.433 1.228,-0.962 0,-0.461 -0.295,-0.79 -0.718,-0.961 l 0.861,-1.252 -1.414,0"
           style="fill:#231f20;fill-opacity:1;fill-rule:nonzero;stroke:none"
           id="path3319" />
      </g>
      <g
         id="g3321"
         transform="matrix(4.4140213,0,0,-4.4140213,302.5393,860.27349)">
        <path
           inkscape:connector-curvature="0"
           d="m 0,0 c -0.457,0 -1.014,0.162 -1.261,0.257 l -0.253,-0.276 0,1.176 c 0.533,-0.348 1.133,-0.467 1.471,-0.467 0.133,0 0.395,0.029 0.395,0.252 0,0.262 -0.423,0.277 -0.88,0.434 -0.614,0.214 -1.005,0.471 -1.005,1.061 0,0.433 0.348,0.909 1.428,0.909 0.319,0 0.781,-0.114 1.048,-0.224 l 0.252,0.243 0,-1.061 c -0.438,0.209 -1,0.352 -1.343,0.352 -0.257,0 -0.404,-0.086 -0.404,-0.209 0,-0.253 0.538,-0.338 0.918,-0.457 C 0.952,1.799 1.357,1.519 1.357,1.014 1.357,0.414 0.938,0 0,0"
           style="fill:#231f20;fill-opacity:1;fill-rule:nonzero;stroke:none"
           id="path3323" />
      </g>
      <g
         id="g3325"
         transform="matrix(4.4140213,0,0,-4.4140213,322.58337,849.82992)">
        <path
           inkscape:connector-curvature="0"
           d="m 0,0 -0.523,-1.138 1.052,0 L 0,0 z m 0.714,-2.28 0.2,0.238 -0.152,0.333 -1.514,0 -0.157,-0.333 0.2,-0.238 -1.166,0 1.414,2.937 -0.115,0.238 1.071,0 1.562,-3.175 -1.343,0 z"
           style="fill:#231f20;fill-opacity:1;fill-rule:nonzero;stroke:none"
           id="path3327" />
      </g>
      <g
         id="g3329"
         transform="matrix(4.4140213,0,0,-4.4140213,337.64843,859.89389)">
        <path
           inkscape:connector-curvature="0"
           d="m 0,0 0.2,0.238 0,2.699 -0.2,0.238 1.328,0 -0.2,-0.238 0,-2.275 1.528,0 0.238,0.2 L 2.894,0 0,0 z"
           style="fill:#231f20;fill-opacity:1;fill-rule:nonzero;stroke:none"
           id="path3331" />
      </g>
      <g
         id="g3333"
         transform="matrix(4.4140213,0,0,-4.4140213,381.91665,859.89389)">
        <path
           inkscape:connector-curvature="0"
           d="M 0,0 0.2,0.238 0.2,1.761 -0.643,0 l -0.442,0 -0.953,1.79 0,-1.552 0.2,-0.238 -1.099,0 0.2,0.238 0,2.699 -0.2,0.238 1.119,0 1.032,-1.942 0.943,1.942 1.142,0 -0.2,-0.238 0,-2.699 L 1.299,0 0,0 z"
           style="fill:#231f20;fill-opacity:1;fill-rule:nonzero;stroke:none"
           id="path3335" />
      </g>
      <g
         id="g3337"
         transform="matrix(4.4140213,0,0,-4.4140213,409.50424,846.92991)">
        <path
           inkscape:connector-curvature="0"
           d="m 0,0 0,-1.785 c 0,-0.876 -0.491,-1.214 -1.59,-1.214 -1.099,0 -1.59,0.338 -1.59,1.214 l 0,1.785 -0.2,0.238 1.338,0 -0.2,-0.238 0,-1.756 c 0,-0.395 0.262,-0.562 0.652,-0.562 0.39,0 0.652,0.167 0.652,0.562 l 0,1.756 -0.2,0.238 1.338,0 L 0,0"
           style="fill:#231f20;fill-opacity:1;fill-rule:nonzero;stroke:none"
           id="path3339" />
      </g>
      <g
         id="g3341"
         transform="matrix(4.4140213,0,0,-4.4140213,423.8763,860.27349)">
        <path
           inkscape:connector-curvature="0"
           d="m 0,0 c -0.457,0 -1.014,0.162 -1.261,0.257 l -0.253,-0.276 0,1.176 c 0.533,-0.348 1.133,-0.467 1.471,-0.467 0.133,0 0.395,0.029 0.395,0.252 0,0.262 -0.423,0.277 -0.88,0.434 -0.614,0.214 -1.005,0.471 -1.005,1.061 0,0.433 0.348,0.909 1.429,0.909 0.318,0 0.78,-0.114 1.046,-0.224 l 0.253,0.243 0,-1.061 c -0.438,0.209 -1,0.352 -1.343,0.352 -0.257,0 -0.404,-0.086 -0.404,-0.209 0,-0.253 0.538,-0.338 0.919,-0.457 C 0.952,1.799 1.357,1.519 1.357,1.014 1.357,0.414 0.938,0 0,0"
           style="fill:#231f20;fill-opacity:1;fill-rule:nonzero;stroke:none"
           id="path3343" />
      </g>
      <g
         id="g3345"
         transform="matrix(4.4140213,0,0,-4.4140213,437.32141,859.89389)">
        <path
           inkscape:connector-curvature="0"
           d="m 0,0 0.2,0.238 0,2.699 -0.2,0.238 1.347,0 -0.2,-0.238 0,-2.699 L 1.347,0 0,0 z"
           style="fill:#231f20;fill-opacity:1;fill-rule:nonzero;stroke:none"
           id="path3347" />
      </g>
      <g
         id="g3349"
         transform="matrix(4.4140213,0,0,-4.4140213,458.31008,860.16756)">
        <path
           inkscape:connector-curvature="0"
           d="m 0,0 c -0.966,0 -1.837,0.476 -1.837,1.652 0,0.928 0.666,1.647 1.875,1.647 0.367,0 0.762,-0.086 0.985,-0.172 l 0.219,0.21 0,-1.057 C 0.9,2.489 0.538,2.613 0.091,2.613 c -0.672,0 -0.934,-0.447 -0.934,-0.961 0,-0.576 0.381,-0.967 0.962,-0.967 0.585,0 0.938,0.229 1.128,0.348 l 0,-0.743 C 1.019,0.157 0.471,0 0,0"
           style="fill:#231f20;fill-opacity:1;fill-rule:nonzero;stroke:none"
           id="path3351" />
      </g>
      <g
         id="g3353"
         transform="matrix(4.4140213,0,0,-4.4140213,492.36867,852.9418)">
        <path
           inkscape:connector-curvature="0"
           d="m 0,0 1.133,0 0,-1.271 c -0.281,-0.176 -0.905,-0.366 -1.442,-0.366 -0.967,0 -1.876,0.476 -1.876,1.651 0,1.19 0.99,1.647 1.876,1.647 0.514,0 0.847,-0.129 1.047,-0.2 l 0.252,0.238 0,-1.09 C 0.647,0.8 0.238,0.976 -0.262,0.976 -0.843,0.976 -1.19,0.59 -1.19,0.014 c 0,-0.576 0.347,-0.966 0.928,-0.966 0.148,0 0.314,0.024 0.467,0.052 l 0,0.658 L 0,0"
           style="fill:#231f20;fill-opacity:1;fill-rule:nonzero;stroke:none"
           id="path3355" />
      </g>
      <g
         id="g3357"
         transform="matrix(4.4140213,0,0,-4.4140213,512.35094,848.80145)">
        <path
           inkscape:connector-curvature="0"
           d="m 0,0 -0.719,0 0,-0.78 0.605,0 c 0.304,0 0.523,0.185 0.523,0.414 C 0.409,-0.104 0.209,0 0,0 m 0.09,-2.513 0.2,0.238 -0.609,0.9 -0.4,0 0,-0.9 0.2,-0.238 -1.328,0 0.2,0.238 0,2.699 -0.2,0.238 1.98,0 c 0.905,0 1.228,-0.433 1.228,-0.962 0,-0.461 -0.295,-0.79 -0.718,-0.961 l 0.861,-1.252 -1.414,0"
           style="fill:#231f20;fill-opacity:1;fill-rule:nonzero;stroke:none"
           id="path3359" />
      </g>
      <g
         id="g3361"
         transform="matrix(4.4140213,0,0,-4.4140213,533.63539,848.54544)">
        <path
           inkscape:connector-curvature="0"
           d="m 0,0 c -0.595,0 -0.837,-0.395 -0.837,-0.981 0,-0.585 0.242,-0.985 0.837,-0.985 0.595,0 0.833,0.4 0.833,0.985 C 0.833,-0.395 0.595,0 0,0 m 0,-2.651 c -0.895,0 -1.837,0.466 -1.837,1.67 0,1.205 0.942,1.666 1.837,1.666 0.895,0 1.828,-0.461 1.828,-1.666 0,-1.204 -0.933,-1.67 -1.828,-1.67"
           style="fill:#231f20;fill-opacity:1;fill-rule:nonzero;stroke:none"
           id="path3363" />
      </g>
      <g
         id="g3365"
         transform="matrix(4.4140213,0,0,-4.4140213,562.75469,846.92991)">
        <path
           inkscape:connector-curvature="0"
           d="m 0,0 0,-1.785 c 0,-0.876 -0.49,-1.214 -1.59,-1.214 -1.099,0 -1.59,0.338 -1.59,1.214 l 0,1.785 -0.2,0.238 1.338,0 -0.2,-0.238 0,-1.756 c 0,-0.395 0.262,-0.562 0.652,-0.562 0.39,0 0.652,0.167 0.652,0.562 l 0,1.756 -0.2,0.238 1.338,0 L 0,0"
           style="fill:#231f20;fill-opacity:1;fill-rule:nonzero;stroke:none"
           id="path3367" />
      </g>
      <g
         id="g3369"
         transform="matrix(4.4140213,0,0,-4.4140213,577.90361,848.80145)">
        <path
           inkscape:connector-curvature="0"
           d="m 0,0 -0.533,0 0,-0.961 0.447,0 c 0.429,0 0.667,0.109 0.667,0.514 C 0.581,-0.095 0.338,0 0,0 m 0.019,-1.59 -0.552,0 0,-0.685 0.2,-0.238 -1.328,0 0.2,0.238 0,2.699 -0.2,0.238 1.709,0 c 0.628,0 1.499,-0.176 1.499,-1.052 0,-1 -0.766,-1.2 -1.528,-1.2"
           style="fill:#231f20;fill-opacity:1;fill-rule:nonzero;stroke:none"
           id="path3371" />
      </g>
    </g>
  </g>
</svg>
