<?xml version="1.0" encoding="utf-8"?>
<!-- Generator: Adobe Illustrator 12.0.1, SVG Export Plug-In . SVG Version: 6.00 Build 51448)  -->
<!DOCTYPE svg PUBLIC "-//W3C//DTD SVG 1.1//EN" "http://www.w3.org/Graphics/SVG/1.1/DTD/svg11.dtd" [
	<!ENTITY ns_svg "http://www.w3.org/2000/svg">
	<!ENTITY ns_xlink "http://www.w3.org/1999/xlink">
]>
<svg  version="1.1" id="Layer_1" xmlns="&ns_svg;" xmlns:xlink="&ns_xlink;" width="253.474" height="301.721"
	 viewBox="0 0 253.474 301.721" overflow="visible" enable-background="new 0 0 253.474 301.721" xml:space="preserve">
<path fill="#FFBA58" d="M127.799,211.31v67.287h47.765c0,0,4-10.922,4-14.307c0-3.383,0-9.547,0-9.547s1.666-4.736,1.666-10.828
	c0-6.09-2.231-17.594-7.646-19.625c0,0-15.564-20.979-33.836-18.271C139.748,206.019,128.709,205.772,127.799,211.31z"/>
<g>
	<path d="M180.977,254.474c-0.219,3.145,0.219,9.883-0.438,11.906c-0.656,2.02-2.408,7.861-3.281,9.883
		c-0.307,0.709-0.584,1.557-0.867,2.441l-2.004-0.117c0.127-0.33,0.27-0.656,0.463-0.977c1.094-1.795,0.877-4.492,0.877-4.492
		s2.188-6.514,2.623-8.535c0.439-2.021-0.654-7.639-0.436-9.213c0.221-1.57,0.875-2.471,1.969-5.615
		c1.094-3.146-0.439-6.963-0.656-8.313c-0.219-1.346-0.656-6.289-1.096-7.637c-0.436-1.35-3.061-5.393-3.227-6.348
		c-0.164-0.955-4.41-2.137-4.41-2.137c-0.221-2.246-1.551-3.873-1.551-3.873c0-2.246-7.658-8.537-7.658-8.537
		c-2.406-1.797-13.346-5.615-16.189-6.291c-2.847-0.672-4.378,1.125-4.378,1.125c-3.721-1.797-7.002,0-9.189,1.348
		s-2.406,3.594-2.406,3.594c-1.314,1.574-1.094-2.021-1.094-2.021s0.873-4.492,4.156-5.615c3.281-1.125,8.752-0.451,8.752-0.451
		c7.44-1.57,19.255,4.27,22.757,6.965c3.5,2.697,11.156,12.355,11.156,12.355s2.408,2.023,4.594,6.74
		c2.189,4.719,2.627,14.828,2.408,16.85S181.195,251.327,180.977,254.474z"/>
	<g>
		<path d="M148.453,210.265c-0.635-1.088-3.17,1.086-5.071,1.086c-1.902,0-5.389-1.305-7.609-0.869
			c-2.219,0.436-5.072,2.176-5.705,3.697c-0.635,1.521,0.951,7.176,2.854,7.611c0,0-3.172,3.48-1.588,4.785
			c1.588,1.305,2.221,0,2.221-0.652s-0.318-2.393,0.951-2.828c1.268-0.434,2.854-1.957,2.854-1.957s-2.537,0-3.805-1.305
			c-1.27-1.305-0.635-3.697,0-4.785c0.633-1.088,2.217-3.045,3.805-3.045c1.584,0,4.754,1.305,6.976,1.088
			C146.551,212.874,149.088,211.353,148.453,210.265z"/>
		<path d="M153.525,216.571c0,0,3.486,3.914,0,8.48c-3.486,4.568-3.17,2.611-3.17,2.611l1.268,1.74c0,0,2.535-3.697,4.756-3.48
			c2.219,0.217,5.072,2.174,6.023,5.438c0.951,3.262-1.268,5.873-4.121,6.307c-2.854,0.436-13.633-0.652-13.633-0.652
			s0.953,0.652,0.635,1.74c-0.316,1.086-0.949,2.393-0.949,2.393s2.535-2.176,8.875-1.959c6.34,0.219,8.561,1.305,11.096,5.438
			s0.949,10.221-0.318,11.744s-6.975,1.959-7.607,3.48s1.268,3.045,1.586,4.131c0.316,1.088-0.951,1.959-0.951,1.959
			s3.486-1.523,6.021-1.305c2.537,0.217,7.293,2.609,7.293,2.609s-0.953,0.436-0.635,1.088s0.951,1.305,0.635,1.957
			s-1.268,1.086-1.268,1.086s1.584,0.219,2.535-1.086s-0.951-1.523-0.316-2.176c0.633-0.652,1.902-0.434,1.902-0.434
			s-0.953-0.219-2.537-2.176s-2.219-3.045-4.438-3.045c-2.221,0-4.756,0.217-4.756,0.217s-2.219-0.869-1.268-2.174
			s8.242-2.176,8.242-2.176s-2.219-1.305-2.219-2.391c0-1.088,1.584-3.264,4.438-4.785c2.854-1.523,5.072-3.916,5.072-8.482
			s1.209-5.607,3.109-7.348l-0.666-3c0,0-1.809,4.041-3.711,5.346l-4.756-2.176c0,0,0.951,2.828,3.488,3.916
			c0,0,1.9,3.697,0.316,6.307c-1.586,2.609-5.707,4.566-5.707,4.566s-1.268-6.307-1.902-7.611c-0.633-1.305-1.902-2.609-2.219-3.48
			c-0.316-0.869,1.904-6.307,1.586-8.047c-0.318-1.738-2.854-6.959-7.609-7.395C157.646,223.747,157.012,216.136,153.525,216.571z"
			/>
		<path d="M146.551,227.444c0,0,2.537-0.65,4.756,0.436c2.219,1.088,3.805,4.35,1.902,6.09c0,0-0.951,0.652-1.902-0.436
			c0,0,0.316-4.566-1.586-5.002S146.551,227.444,146.551,227.444z"/>
		<path d="M149.088,221.573c0,0-3.486-1.521-6.657-0.652c-3.17,0.869-5.072,4.783-5.072,4.783s-1.586-2.826,1.268-5
			c2.854-2.176,7.608-0.871,9.827-0.652C150.672,220.269,150.99,220.485,149.088,221.573z"/>
		<path d="M144.967,219.833c0,0-0.951-1.74,0.316-2.174c1.268-0.436,2.854-0.871,2.219-1.523c-0.633-0.652-3.803,0.652-4.755,2.609
			c-0.951,1.959-0.951,1.959-0.951,1.959L144.967,219.833z"/>
		<path d="M142.431,228.751c0,0-6.023,5.436-6.023,11.09c0,5.656,2.854,10.223,5.072,10.223c2.22,0,2.222-1.957,3.804-1.523
			c1.586,0.436,3.805,2.395,1.586,2.828c-2.221,0.436-4.438,1.305-6.341,0.436c-1.902-0.871-4.121-1.959-5.391-3.916
			c-1.266-1.957-0.949-6.088-1.266-8.264c-0.318-2.176,3.801-9.787,5.389-10.873C140.845,227.663,142.431,226.792,142.431,228.751z"
			/>
		<path d="M156.063,246.149c0,0-2.537-0.436-3.488-1.523c-0.951-1.086-1.266,0.219-0.633,2.393s0.951,5.654,0.316,7.178
			c-0.635,1.521-3.488,5.654-7.291,5.219c-3.806-0.436-5.073-1.521-6.024-2.826c-0.951-1.307-2.852-1.523-3.17-0.219
			c-0.316,1.305,0.949,2.828,1.586,3.697c0.633,0.869,0.316,0.869,2.219,1.521c1.902,0.654,5.706,1.523,8.876,0.436
			s6.023-5.871,6.023-7.395C154.477,253.108,155.111,248.323,156.063,246.149z"/>
	</g>
	<path d="M178.826,265.321c0,0-0.344-8.244-2.678-9.91s-3.008-1.418-3.08-2.137c-0.055-0.555-0.109-0.748,1.555-0.693
		c1.332,0.045,4.871,2.406,4.871,2.406L178.826,265.321z"/>
	<path d="M151.16,207.987c0,0,3,1,2.334,2.666c-0.668,1.668-0.666,2.334,0.666,2.334c1.334,0,2-2,3.666-1.334
		c1.668,0.668,0.334,3.334,2,3.668c1.668,0.332,2.334-0.002,3.334,0.332s4.666,3,4.334,4.334c-0.334,1.332-3.668-2-4.668-1.334
		c-1,0.668-2.666,1.666-1.332,2.334c1.332,0.666,5.332,0.666,7,2.334c1.666,1.666,2.092,2.613,3,1.666c0.949-0.994-2-7-4-8.666
		C165.494,214.653,154.494,207.319,151.16,207.987z"/>
	<path d="M172.324,236.685c0,0,1.689,0.705,2.205,0.518c0.518-0.189,1.83-1.361,2.488-2.629c0.656-1.268,0.375-2.254,0.094-2.91
		l1.408,1.408l0.752,5.115l-0.424-0.375c0,0-0.141-1.268-0.609-1.221s-1.502,0.939-1.502,0.939l-3.004,0.422l-1.455-0.846
		L172.324,236.685z"/>
	<path d="M176.592,253.274c0,0,1.055,0.555,1.525,0.334c0.473-0.223,0.666-1,0.666-1l-0.416,2.109h-1.109L176.592,253.274z"/>
	<path d="M137.493,255.821c-0.869,0.521-1.693,0.93-1.525,1.43c0.166,0.5,1.525,13.736,7.526,14.07c6,0.332,11.166-1.5,14.166,0.5
		s-0.334,3.832-0.334,3.832s-0.334,2.334,2.334,0.5c0,0,0.832,0.5,1,0c0.166-0.5,0.334-3.998-1.166-4.832s-3.668-1.5-4.668-2.168
		c-1-0.666-7.836,0.76-9.67,0.432c-3.843-0.691-3.579-4.029-5.079-6.529S138.325,255.321,137.493,255.821z"/>
	<path d="M176.826,269.653c0,0-1.332,3.668-3.332,3.668c0,0,2.666,1,2.332,2.332C175.494,276.987,176.826,269.653,176.826,269.653z"
		/>
	<path d="M159.326,274.999c0,0,2.922-0.893,5.254-0.797c2.334,0.094,3.338,2.086,3.338,2.086s-2.432-0.986-3.758-0.967
		c-1.328,0.02-3.676,1.023-3.676,1.023L159.326,274.999z"/>
	<path d="M144.059,275.64c0,0-1.548-3.174-4.548-3.361s-2.559-0.207-3.559-0.395s-2.584-3.418-3.646-3.668s-1.438-0.625-1.875-0.438
		s-0.188,0.688,0.063,0.813s1.188,0.25,1.625,0.5s1.25,2.875,3,3.688s3.111,0.895,3.799,1.082s2.893,1.395,3.955,2.77
		C142.872,276.63,144.455,277.222,144.059,275.64z"/>
</g>
<path fill="#736DAB" d="M128.36,211.31v67.287H81.192c0,0-4.698-11.043-4.698-14.428c0-3.383-0.049-9.426-0.049-9.426
	s-1.354-4.736-1.354-10.828c0-6.09,3.384-17.594,8.798-19.625c0,0,15.565-20.979,33.836-18.271
	C117.726,206.019,128.766,205.772,128.36,211.31z"/>
<path d="M124.057,249.581c1.489-0.748,2.333,1,4.333,1s4.333-2.334,5.333-1.002c1,1.334,0.333,0,0,1.668
	c-0.333,1.666-3.104,2.311-5.333,2.334c-2.108,0.021-3.001-0.334-4.667-2.334S123.391,249.915,124.057,249.581z"/>
<path d="M124.89,231.581c0,0,1.167-1.334,3.5-1.334s3.833,1.834,4.5,1.834s1.333-0.334,1.333-0.334s0.001-1.832-0.666-2.166
	s-3.5-1-5-1s-4.001,0.998-4.834,1.166c-0.833,0.166-1.667,1.334-1,1.834S124.89,231.581,124.89,231.581z"/>
<g>
	<path d="M75.906,254.474c0.22,3.145-0.219,9.883,0.438,11.906c0.656,2.02,2.408,7.861,3.282,9.883
		c0.306,0.709,0.584,1.557,0.866,2.441l2.005-0.117c-0.127-0.33-0.27-0.656-0.464-0.977c-1.094-1.795-0.876-4.492-0.876-4.492
		s-2.188-6.514-2.624-8.535c-0.438-2.021,0.655-7.639,0.437-9.213c-0.221-1.57-0.875-2.471-1.97-5.615
		c-1.094-3.146,0.439-6.963,0.656-8.313c0.22-1.346,0.656-6.289,1.096-7.637c0.437-1.35,3.062-5.393,3.227-6.348
		s4.411-2.137,4.411-2.137c0.22-2.246,1.551-3.873,1.551-3.873c0-2.246,7.657-8.537,7.657-8.537
		c2.407-1.797,13.347-5.615,16.19-6.291c2.846-0.672,4.377,1.125,4.377,1.125c3.72-1.797,7.001,0,9.189,1.348
		c2.188,1.348,2.405,3.594,2.405,3.594c1.314,1.574,1.095-2.021,1.095-2.021s-0.874-4.492-4.157-5.615
		c-3.281-1.125-8.752-0.451-8.752-0.451c-7.438-1.57-19.254,4.27-22.755,6.965c-3.5,2.697-11.157,12.355-11.157,12.355
		s-2.407,2.023-4.594,6.74c-2.189,4.719-2.627,14.828-2.408,16.85S75.688,251.327,75.906,254.474z"/>
	<g>
		<path d="M108.43,210.265c0.635-1.088,3.17,1.086,5.071,1.086c1.902,0,5.389-1.305,7.608-0.869s5.073,2.176,5.706,3.697
			c0.635,1.521-0.951,7.176-2.854,7.611c0,0,3.172,3.48,1.587,4.785c-1.587,1.305-2.22,0-2.22-0.652s0.317-2.393-0.951-2.828
			c-1.269-0.434-2.854-1.957-2.854-1.957s2.537,0,3.805-1.305c1.269-1.305,0.635-3.697,0-4.785
			c-0.633-1.088-2.218-3.045-3.805-3.045c-1.584,0-4.755,1.305-6.975,1.088C110.332,212.874,107.795,211.353,108.43,210.265z"/>
		<path d="M103.357,216.571c0,0-3.486,3.914,0,8.48c3.486,4.568,3.17,2.611,3.17,2.611l-1.268,1.74c0,0-2.535-3.697-4.756-3.48
			c-2.219,0.217-5.072,2.174-6.023,5.438c-0.951,3.262,1.269,5.873,4.122,6.307c2.853,0.436,13.632-0.652,13.632-0.652
			s-0.953,0.652-0.635,1.74c0.316,1.086,0.95,2.393,0.95,2.393s-2.535-2.176-8.876-1.959c-6.34,0.219-8.561,1.305-11.096,5.438
			s-0.949,10.221,0.318,11.744s6.975,1.959,7.607,3.48c0.634,1.521-1.268,3.045-1.585,4.131c-0.316,1.088,0.951,1.959,0.951,1.959
			s-3.487-1.523-6.022-1.305c-2.537,0.217-7.292,2.609-7.292,2.609s0.952,0.436,0.634,1.088c-0.317,0.652-0.951,1.305-0.634,1.957
			c0.316,0.652,1.268,1.086,1.268,1.086s-1.585,0.219-2.536-1.086s0.951-1.523,0.317-2.176s-1.902-0.434-1.902-0.434
			s0.952-0.219,2.536-2.176c1.585-1.957,2.219-3.045,4.438-3.045c2.221,0,4.756,0.217,4.756,0.217s2.22-0.869,1.269-2.174
			s-8.243-2.176-8.243-2.176s2.219-1.305,2.219-2.391c0-1.088-1.584-3.264-4.438-4.785c-2.853-1.523-5.072-3.916-5.072-8.482
			s-1.208-5.607-3.109-7.348l0.666-3c0,0,1.81,4.041,3.712,5.346l4.755-2.176c0,0-0.951,2.828-3.487,3.916
			c0,0-1.901,3.697-0.316,6.307s5.706,4.566,5.706,4.566s1.269-6.307,1.902-7.611c0.633-1.305,1.902-2.609,2.219-3.48
			c0.316-0.869-1.903-6.307-1.586-8.047c0.318-1.738,2.854-6.959,7.609-7.395C99.236,223.747,99.871,216.136,103.357,216.571z"/>
		<path d="M110.332,227.444c0,0-2.537-0.65-4.756,0.436c-2.219,1.088-3.805,4.35-1.902,6.09c0,0,0.951,0.652,1.902-0.436
			c0,0-0.316-4.566,1.586-5.002S110.332,227.444,110.332,227.444z"/>
		<path d="M107.795,221.573c0,0,3.486-1.521,6.657-0.652c3.17,0.869,5.072,4.783,5.072,4.783s1.585-2.826-1.268-5
			c-2.854-2.176-7.608-0.871-9.827-0.652C106.211,220.269,105.893,220.485,107.795,221.573z"/>
		<path d="M111.916,219.833c0,0,0.952-1.74-0.316-2.174c-1.268-0.436-2.854-0.871-2.219-1.523c0.634-0.652,3.804,0.652,4.755,2.609
			c0.951,1.959,0.951,1.959,0.951,1.959L111.916,219.833z"/>
		<path d="M114.452,228.751c0,0,6.023,5.436,6.023,11.09c0,5.656-2.854,10.223-5.072,10.223s-2.221-1.957-3.804-1.523
			c-1.585,0.436-3.804,2.395-1.585,2.828c2.22,0.436,4.438,1.305,6.34,0.436c1.902-0.871,4.121-1.959,5.391-3.916
			c1.266-1.957,0.949-6.088,1.266-8.264c0.318-2.176-3.802-9.787-5.389-10.873C116.038,227.663,114.452,226.792,114.452,228.751z"/>
		<path d="M100.821,246.149c0,0,2.536-0.436,3.487-1.523c0.951-1.086,1.267,0.219,0.633,2.393c-0.633,2.174-0.95,5.654-0.316,7.178
			c0.635,1.521,3.488,5.654,7.291,5.219c3.805-0.436,5.073-1.521,6.024-2.826c0.951-1.307,2.852-1.523,3.169-0.219
			s-0.949,2.828-1.585,3.697c-0.633,0.869-0.317,0.869-2.219,1.521c-1.902,0.654-5.706,1.523-8.876,0.436s-6.023-5.871-6.023-7.395
			C102.406,253.108,101.771,248.323,100.821,246.149z"/>
	</g>
	<path d="M78.057,265.321c0,0,0.345-8.244,2.678-9.91c2.334-1.666,3.008-1.418,3.08-2.137c0.055-0.555,0.11-0.748-1.554-0.693
		c-1.333,0.045-4.871,2.406-4.871,2.406L78.057,265.321z"/>
	<path d="M105.723,207.987c0,0-3,1-2.333,2.666c0.667,1.668,0.666,2.334-0.667,2.334s-2-2-3.666-1.334
		c-1.667,0.668-0.334,3.334-2,3.668c-1.667,0.332-2.334-0.002-3.334,0.332s-4.666,3-4.333,4.334c0.333,1.332,3.667-2,4.667-1.334
		c1,0.668,2.666,1.666,1.333,2.334c-1.333,0.666-5.333,0.666-7,2.334c-1.667,1.666-2.093,2.613-3,1.666c-0.95-0.994,2-7,4-8.666
		C91.39,214.653,102.389,207.319,105.723,207.987z"/>
	<path d="M84.56,236.685c0,0-1.689,0.705-2.206,0.518c-0.517-0.189-1.83-1.361-2.488-2.629c-0.656-1.268-0.375-2.254-0.094-2.91
		l-1.408,1.408l-0.751,5.115l0.423-0.375c0,0,0.141-1.268,0.609-1.221c0.47,0.047,1.502,0.939,1.502,0.939l3.005,0.422l1.455-0.846
		L84.56,236.685z"/>
	<path d="M80.291,253.274c0,0-1.054,0.555-1.525,0.334c-0.472-0.223-0.666-1-0.666-1l0.416,2.109h1.109L80.291,253.274z"/>
	<path d="M119.39,255.821c0.869,0.521,1.692,0.93,1.525,1.43s-1.525,13.736-7.525,14.07c-6,0.332-11.167-1.5-14.167,0.5
		s0.334,3.832,0.334,3.832s0.334,2.334-2.334,0.5c0,0-0.832,0.5-1,0c-0.166-0.5-0.333-3.998,1.167-4.832s3.667-1.5,4.667-2.168
		c1-0.666,7.836,0.76,9.67,0.432c3.843-0.691,3.578-4.029,5.078-6.529S118.557,255.321,119.39,255.821z"/>
	<path d="M80.057,269.653c0,0,1.333,3.668,3.333,3.668c0,0-2.667,1-2.333,2.332C81.39,276.987,80.057,269.653,80.057,269.653z"/>
	<path d="M112.824,275.64c0,0,1.548-3.174,4.548-3.361s2.559-0.207,3.559-0.395s2.584-3.418,3.646-3.668s1.438-0.625,1.875-0.438
		s0.188,0.688-0.063,0.813s-1.188,0.25-1.625,0.5s-1.25,2.875-3,3.688s-3.112,0.895-3.8,1.082s-2.892,1.395-3.954,2.77
		C114.011,276.63,112.429,277.222,112.824,275.64z"/>
</g>
<path d="M91.167,191.888l-8.958,3.016l-0.062,9.303c-0.294-0.036-0.616-0.027-0.954,0.034c-1.366,0.251-2.473,1.26-2.473,2.254
	c0,0.993,1.106,1.596,2.473,1.347c1.363-0.25,2.469-1.259,2.469-2.252c0-0.036-0.012-0.068-0.015-0.104v-7.826l6.018-2.029v5.954
	c-0.299-0.039-0.626-0.031-0.972,0.031c-1.366,0.251-2.473,1.26-2.473,2.254c0,0.993,1.106,1.596,2.473,1.347
	c1.334-0.244,2.413-1.216,2.46-2.188h0.012L91.167,191.888z"/>
<path d="M58.167,220.888l-8.958,3.016l-0.062,9.303c-0.294-0.036-0.616-0.027-0.954,0.034c-1.366,0.251-2.473,1.26-2.473,2.254
	c0,0.993,1.106,1.596,2.473,1.347c1.363-0.25,2.469-1.259,2.469-2.252c0-0.036-0.012-0.068-0.015-0.104v-7.826l6.018-2.029v5.954
	c-0.299-0.039-0.626-0.031-0.972,0.031c-1.366,0.251-2.473,1.26-2.473,2.254c0,0.993,1.106,1.596,2.473,1.347
	c1.334-0.244,2.413-1.216,2.46-2.188h0.012L58.167,220.888z"/>
<path d="M69.167,242.888l-8.958,3.016l-0.062,9.303c-0.294-0.036-0.616-0.027-0.954,0.034c-1.366,0.251-2.473,1.26-2.473,2.254
	c0,0.993,1.106,1.596,2.473,1.347c1.363-0.25,2.469-1.259,2.469-2.252c0-0.036-0.012-0.068-0.015-0.104v-7.826l6.018-2.029v5.954
	c-0.299-0.039-0.626-0.031-0.972,0.031c-1.366,0.251-2.473,1.26-2.473,2.254c0,0.993,1.106,1.596,2.473,1.347
	c1.334-0.244,2.413-1.216,2.46-2.188h0.012L69.167,242.888z"/>
<path d="M160.667,183.888l-8.958,3.016l-0.062,9.303c-0.294-0.036-0.616-0.027-0.954,0.034c-1.366,0.251-2.473,1.26-2.473,2.254
	c0,0.993,1.106,1.596,2.473,1.347c1.363-0.25,2.469-1.259,2.469-2.252c0-0.036-0.012-0.068-0.015-0.104v-7.826l6.018-2.029v5.954
	c-0.299-0.039-0.626-0.031-0.972,0.031c-1.366,0.251-2.473,1.26-2.473,2.254c0,0.993,1.106,1.596,2.473,1.347
	c1.334-0.244,2.413-1.216,2.46-2.188h0.012L160.667,183.888z"/>
<path d="M203,200.388l-8.958,3.016l-0.062,9.303c-0.294-0.036-0.616-0.027-0.954,0.034c-1.366,0.251-2.473,1.26-2.473,2.254
	c0,0.993,1.106,1.596,2.473,1.347c1.363-0.25,2.469-1.259,2.469-2.252c0-0.036-0.012-0.068-0.015-0.104v-7.826l6.018-2.029v5.954
	c-0.299-0.039-0.626-0.031-0.972,0.031c-1.366,0.251-2.473,1.26-2.473,2.254c0,0.993,1.106,1.596,2.473,1.347
	c1.334-0.244,2.413-1.216,2.46-2.188h0.012L203,200.388z"/>
<path d="M196.667,227.888l-8.958,3.016l-0.062,9.303c-0.294-0.036-0.616-0.027-0.954,0.034c-1.366,0.251-2.473,1.26-2.473,2.254
	c0,0.993,1.106,1.596,2.473,1.347c1.363-0.25,2.469-1.259,2.469-2.252c0-0.036-0.012-0.068-0.015-0.104v-7.826l6.018-2.029v5.954
	c-0.299-0.039-0.626-0.031-0.972,0.031c-1.366,0.251-2.473,1.26-2.473,2.254c0,0.993,1.106,1.596,2.473,1.347
	c1.334-0.244,2.413-1.216,2.46-2.188h0.012L196.667,227.888z"/>
<rect fill="#333333" width="253.474" height="152.992"/>
<polygon fill="#9999FF" points="210.805,299.575 47.442,299.575 47.844,278.548 211.207,278.548 "/>
<path fill="#FF9900" d="M166.078,278.493h9c0,0-0.57-2.297-2.574-2.352C170.502,276.089,166.076,278.494,166.078,278.493z"/>
<path d="M97.557,275.259c0,0-2.922-0.893-5.254-0.797c-2.333,0.094-3.338,2.086-3.338,2.086s2.432-0.986,3.758-0.967
	c1.328,0.02,3.676,1.023,3.676,1.023L97.557,275.259z"/>
<rect x="43.563" y="275.888" fill="#BCAEED" stroke="#000000" width="170" height="25.333"/>
<g>
	<g>
		<path fill="#6600CC" d="M51.35,279.122h5.039l3.995,10.522l4.229-10.522h5.092l2.977,19.688h-5.118l-1.436-11.332h-0.052
			L61.35,298.81h-2.036l-4.518-11.332h-0.052L53.1,298.81h-5.092L51.35,279.122z"/>
		<path fill="#6600CC" d="M79.418,285.415v7.154c0,1.697,0.418,2.897,2.376,2.897s2.376-1.2,2.376-2.897v-7.154h4.752v8.067
			c0,4.413-3.107,5.771-7.128,5.771s-7.128-1.357-7.128-5.771v-8.067H79.418z"/>
		<path fill="#6600CC" d="M100.802,288.861c-0.731-0.392-1.749-0.652-2.559-0.652c-0.548,0-1.488,0.234-1.488,0.913
			c0,0.914,1.488,1.045,2.141,1.176c2.22,0.443,3.891,1.488,3.891,3.969c0,3.524-3.212,4.986-6.318,4.986
			c-1.906,0-3.786-0.548-5.405-1.54l1.724-3.316c0.966,0.679,2.585,1.358,3.76,1.358c0.601,0,1.488-0.288,1.488-1.019
			c0-1.045-1.488-1.097-2.977-1.488s-2.977-1.123-2.977-3.525c0-3.289,2.977-4.752,5.901-4.752c1.514,0,3.028,0.235,4.412,0.862
			L100.802,288.861z"/>
		<path fill="#6600CC" d="M110.384,280.271c0,1.462-1.2,2.663-2.663,2.663c-1.462,0-2.663-1.201-2.663-2.663
			s1.201-2.663,2.663-2.663C109.184,277.608,110.384,278.81,110.384,280.271z M110.097,298.81h-4.752v-13.395h4.752V298.81z"/>
		<path fill="#6600CC" d="M122.891,289.775c-0.705-0.522-1.54-0.94-2.454-0.94c-1.827,0-3.264,1.41-3.264,3.264
			c0,1.933,1.384,3.29,3.342,3.29c0.836,0,1.75-0.339,2.376-0.914v4.021c-1.044,0.522-2.193,0.757-3.342,0.757
			c-3.969,0-7.284-2.95-7.284-6.997c0-4.309,3.289-7.285,7.493-7.285c1.097,0,2.193,0.262,3.133,0.783V289.775z"/>
		<path fill="#6600CC" d="M125.945,298.81v-19.688h7.312c3.498,0,5.849,1.358,5.849,5.118c0,1.775-0.575,3.211-2.168,4.021v0.053
			c2.82,0.365,4.021,2.271,4.021,5.013c0,4.125-3.525,5.483-7.128,5.483H125.945z M131.063,286.851h0.574
			c1.357,0,2.768-0.234,2.768-1.905c0-1.802-1.593-1.906-2.977-1.906h-0.365V286.851z M131.063,294.893h0.652
			c1.515,0,4.073,0.078,4.073-2.089c0-2.376-2.532-2.141-4.203-2.141h-0.522V294.893z"/>
		<path fill="#6600CC" d="M148.27,287.608h0.053c0.913-1.646,2.48-2.376,4.334-2.376h0.914v4.569
			c-0.653-0.366-1.279-0.444-2.011-0.444c-2.637,0-3.29,1.749-3.29,4.047v5.405h-4.752v-13.395h4.752V287.608z"/>
		<path fill="#6600CC" d="M169.993,298.81h-4.752v-1.488h-0.053c-0.835,1.331-2.479,1.932-4.047,1.932
			c-3.969,0-6.762-3.315-6.762-7.154c0-3.838,2.741-7.128,6.71-7.128c1.54,0,3.159,0.575,4.151,1.75v-1.306h4.752V298.81z
			 M159.288,292.125c0,1.697,1.123,3.003,3.055,3.003c1.933,0,3.055-1.306,3.055-3.003c0-1.645-1.122-3.028-3.055-3.028
			C160.411,289.097,159.288,290.48,159.288,292.125z"/>
		<path fill="#6600CC" d="M178.191,280.271c0,1.462-1.201,2.663-2.663,2.663s-2.663-1.201-2.663-2.663s1.201-2.663,2.663-2.663
			S178.191,278.81,178.191,280.271z M177.904,298.81h-4.752v-13.395h4.752V298.81z"/>
		<path fill="#6600CC" d="M185.79,287.139h0.052c1.097-1.619,2.429-2.168,4.282-2.168c3.603,0,5.039,2.271,5.039,5.562v8.277h-4.752
			v-6.527c0-1.28,0.209-3.525-2.141-3.525c-1.933,0-2.48,1.437-2.48,3.107v6.945h-4.752v-13.395h4.752V287.139z"/>
		<path fill="#6600CC" d="M210.516,294.866v3.943h-13.577l6.293-9.452h-5.457v-3.942h13.368l-6.267,9.451H210.516z"/>
	</g>
	<g>
		<path fill="#34176B" d="M51.35,279.122h5.039l3.995,10.522l4.229-10.522h5.092l2.977,19.688h-5.118l-1.436-11.332h-0.052
			L61.35,298.81h-2.036l-4.518-11.332h-0.052L53.1,298.81h-5.092L51.35,279.122z"/>
		<path fill="#34176B" d="M79.418,285.415v7.154c0,1.697,0.418,2.897,2.376,2.897s2.376-1.2,2.376-2.897v-7.154h4.752v8.067
			c0,4.413-3.107,5.771-7.128,5.771s-7.128-1.357-7.128-5.771v-8.067H79.418z"/>
		<path fill="#34176B" d="M100.802,288.861c-0.731-0.392-1.749-0.652-2.559-0.652c-0.548,0-1.488,0.234-1.488,0.913
			c0,0.914,1.488,1.045,2.141,1.176c2.22,0.443,3.891,1.488,3.891,3.969c0,3.524-3.212,4.986-6.318,4.986
			c-1.906,0-3.786-0.548-5.405-1.54l1.724-3.316c0.966,0.679,2.585,1.358,3.76,1.358c0.601,0,1.488-0.288,1.488-1.019
			c0-1.045-1.488-1.097-2.977-1.488s-2.977-1.123-2.977-3.525c0-3.289,2.977-4.752,5.901-4.752c1.514,0,3.028,0.235,4.412,0.862
			L100.802,288.861z"/>
		<path fill="#34176B" d="M110.384,280.271c0,1.462-1.2,2.663-2.663,2.663c-1.462,0-2.663-1.201-2.663-2.663
			s1.201-2.663,2.663-2.663C109.184,277.608,110.384,278.81,110.384,280.271z M110.097,298.81h-4.752v-13.395h4.752V298.81z"/>
		<path fill="#34176B" d="M122.891,289.775c-0.705-0.522-1.54-0.94-2.454-0.94c-1.827,0-3.264,1.41-3.264,3.264
			c0,1.933,1.384,3.29,3.342,3.29c0.836,0,1.75-0.339,2.376-0.914v4.021c-1.044,0.522-2.193,0.757-3.342,0.757
			c-3.969,0-7.284-2.95-7.284-6.997c0-4.309,3.289-7.285,7.493-7.285c1.097,0,2.193,0.262,3.133,0.783V289.775z"/>
		<path fill="#34176B" d="M125.945,298.81v-19.688h7.312c3.498,0,5.849,1.358,5.849,5.118c0,1.775-0.575,3.211-2.168,4.021v0.053
			c2.82,0.365,4.021,2.271,4.021,5.013c0,4.125-3.525,5.483-7.128,5.483H125.945z M131.063,286.851h0.574
			c1.357,0,2.768-0.234,2.768-1.905c0-1.802-1.593-1.906-2.977-1.906h-0.365V286.851z M131.063,294.893h0.652
			c1.515,0,4.073,0.078,4.073-2.089c0-2.376-2.532-2.141-4.203-2.141h-0.522V294.893z"/>
		<path fill="#34176B" d="M148.27,287.608h0.053c0.913-1.646,2.48-2.376,4.334-2.376h0.914v4.569
			c-0.653-0.366-1.279-0.444-2.011-0.444c-2.637,0-3.29,1.749-3.29,4.047v5.405h-4.752v-13.395h4.752V287.608z"/>
		<path fill="#34176B" d="M169.993,298.81h-4.752v-1.488h-0.053c-0.835,1.331-2.479,1.932-4.047,1.932
			c-3.969,0-6.762-3.315-6.762-7.154c0-3.838,2.741-7.128,6.71-7.128c1.54,0,3.159,0.575,4.151,1.75v-1.306h4.752V298.81z
			 M159.288,292.125c0,1.697,1.123,3.003,3.055,3.003c1.933,0,3.055-1.306,3.055-3.003c0-1.645-1.122-3.028-3.055-3.028
			C160.411,289.097,159.288,290.48,159.288,292.125z"/>
		<path fill="#34176B" d="M178.191,280.271c0,1.462-1.201,2.663-2.663,2.663s-2.663-1.201-2.663-2.663s1.201-2.663,2.663-2.663
			S178.191,278.81,178.191,280.271z M177.904,298.81h-4.752v-13.395h4.752V298.81z"/>
		<path fill="#34176B" d="M185.79,287.139h0.052c1.097-1.619,2.429-2.168,4.282-2.168c3.603,0,5.039,2.271,5.039,5.562v8.277h-4.752
			v-6.527c0-1.28,0.209-3.525-2.141-3.525c-1.933,0-2.48,1.437-2.48,3.107v6.945h-4.752v-13.395h4.752V287.139z"/>
		<path fill="#34176B" d="M210.516,294.866v3.943h-13.577l6.293-9.452h-5.457v-3.942h13.368l-6.267,9.451H210.516z"/>
	</g>
</g>
<polygon fill="#9999FF" points="210.805,129.575 47.442,129.575 47.844,108.548 211.207,108.548 "/>
<path fill="#FFBA58" d="M127.799,41.31v67.287h47.765c0,0,4-10.922,4-14.307c0-3.383,0-9.547,0-9.547s1.666-4.736,1.666-10.828
	c0-6.09-2.231-17.594-7.646-19.625c0,0-15.564-20.979-33.836-18.271C139.748,36.019,128.709,35.772,127.799,41.31z"/>
<path fill="#FF9900" d="M166.078,108.493h9c0,0-0.57-2.297-2.574-2.352C170.502,106.089,166.076,108.494,166.078,108.493z"/>
<g>
	<path d="M180.977,84.474c-0.219,3.145,0.219,9.883-0.438,11.906c-0.656,2.02-2.408,7.861-3.281,9.883
		c-0.307,0.709-0.584,1.557-0.867,2.441l-2.004-0.117c0.127-0.33,0.27-0.656,0.463-0.977c1.094-1.795,0.877-4.492,0.877-4.492
		s2.188-6.514,2.623-8.535c0.439-2.021-0.654-7.639-0.436-9.213c0.221-1.57,0.875-2.471,1.969-5.615
		c1.094-3.146-0.439-6.963-0.656-8.313c-0.219-1.346-0.656-6.289-1.096-7.637c-0.436-1.35-3.061-5.393-3.227-6.348
		c-0.164-0.955-4.41-2.137-4.41-2.137c-0.221-2.246-1.551-3.873-1.551-3.873c0-2.246-7.658-8.537-7.658-8.537
		c-2.406-1.797-13.346-5.615-16.189-6.291c-2.847-0.672-4.378,1.125-4.378,1.125c-3.721-1.797-7.002,0-9.189,1.348
		s-2.406,3.594-2.406,3.594c-1.314,1.574-1.094-2.021-1.094-2.021s0.873-4.492,4.156-5.615c3.281-1.125,8.752-0.451,8.752-0.451
		c7.44-1.57,19.255,4.27,22.757,6.965c3.5,2.697,11.156,12.355,11.156,12.355s2.408,2.023,4.594,6.74
		c2.189,4.719,2.627,14.828,2.408,16.85S181.195,81.327,180.977,84.474z"/>
	<g>
		<path d="M148.453,40.265c-0.635-1.088-3.17,1.086-5.071,1.086c-1.902,0-5.389-1.305-7.609-0.869
			c-2.219,0.436-5.072,2.176-5.705,3.697c-0.635,1.521,0.951,7.176,2.854,7.611c0,0-3.172,3.48-1.588,4.785
			c1.588,1.305,2.221,0,2.221-0.652s-0.318-2.393,0.951-2.828c1.268-0.434,2.854-1.957,2.854-1.957s-2.537,0-3.805-1.305
			c-1.27-1.305-0.635-3.697,0-4.785c0.633-1.088,2.217-3.045,3.805-3.045c1.584,0,4.754,1.305,6.976,1.088
			C146.551,42.874,149.088,41.353,148.453,40.265z"/>
		<path d="M153.525,46.571c0,0,3.486,3.914,0,8.48c-3.486,4.568-3.17,2.611-3.17,2.611l1.268,1.74c0,0,2.535-3.697,4.756-3.48
			c2.219,0.217,5.072,2.174,6.023,5.438c0.951,3.262-1.268,5.873-4.121,6.307c-2.854,0.436-13.633-0.652-13.633-0.652
			s0.953,0.652,0.635,1.74c-0.316,1.086-0.949,2.393-0.949,2.393s2.535-2.176,8.875-1.959c6.34,0.219,8.561,1.305,11.096,5.438
			s0.949,10.221-0.318,11.744s-6.975,1.959-7.607,3.48s1.268,3.045,1.586,4.131c0.316,1.088-0.951,1.959-0.951,1.959
			s3.486-1.523,6.021-1.305c2.537,0.217,7.293,2.609,7.293,2.609s-0.953,0.436-0.635,1.088s0.951,1.305,0.635,1.957
			s-1.268,1.086-1.268,1.086s1.584,0.219,2.535-1.086s-0.951-1.523-0.316-2.176c0.633-0.652,1.902-0.434,1.902-0.434
			s-0.953-0.219-2.537-2.176s-2.219-3.045-4.438-3.045c-2.221,0-4.756,0.217-4.756,0.217s-2.219-0.869-1.268-2.174
			s8.242-2.176,8.242-2.176s-2.219-1.305-2.219-2.391c0-1.088,1.584-3.264,4.438-4.785c2.854-1.523,5.072-3.916,5.072-8.482
			s1.209-5.607,3.109-7.348l-0.666-3c0,0-1.809,4.041-3.711,5.346l-4.756-2.176c0,0,0.951,2.828,3.488,3.916
			c0,0,1.9,3.697,0.316,6.307c-1.586,2.609-5.707,4.566-5.707,4.566s-1.268-6.307-1.902-7.611c-0.633-1.305-1.902-2.609-2.219-3.48
			c-0.316-0.869,1.904-6.307,1.586-8.047c-0.318-1.738-2.854-6.959-7.609-7.395C157.646,53.747,157.012,46.136,153.525,46.571z"/>
		<path d="M146.551,57.444c0,0,2.537-0.65,4.756,0.436c2.219,1.088,3.805,4.35,1.902,6.09c0,0-0.951,0.652-1.902-0.436
			c0,0,0.316-4.566-1.586-5.002S146.551,57.444,146.551,57.444z"/>
		<path d="M149.088,51.573c0,0-3.486-1.521-6.657-0.652c-3.17,0.869-5.072,4.783-5.072,4.783s-1.586-2.826,1.268-5
			c2.854-2.176,7.608-0.871,9.827-0.652C150.672,50.269,150.99,50.485,149.088,51.573z"/>
		<path d="M144.967,49.833c0,0-0.951-1.74,0.316-2.174c1.268-0.436,2.854-0.871,2.219-1.523c-0.633-0.652-3.803,0.652-4.755,2.609
			c-0.951,1.959-0.951,1.959-0.951,1.959L144.967,49.833z"/>
		<path d="M142.431,58.751c0,0-6.023,5.436-6.023,11.09c0,5.656,2.854,10.223,5.072,10.223c2.22,0,2.222-1.957,3.804-1.523
			c1.586,0.436,3.805,2.395,1.586,2.828c-2.221,0.436-4.438,1.305-6.341,0.436c-1.902-0.871-4.121-1.959-5.391-3.916
			c-1.266-1.957-0.949-6.088-1.266-8.264c-0.318-2.176,3.801-9.787,5.389-10.873C140.845,57.663,142.431,56.792,142.431,58.751z"/>
		<path d="M156.063,76.149c0,0-2.537-0.436-3.488-1.523c-0.951-1.086-1.266,0.219-0.633,2.393s0.951,5.654,0.316,7.178
			c-0.635,1.521-3.488,5.654-7.291,5.219c-3.806-0.436-5.073-1.521-6.024-2.826c-0.951-1.307-2.852-1.523-3.17-0.219
			c-0.316,1.305,0.949,2.828,1.586,3.697c0.633,0.869,0.316,0.869,2.219,1.521c1.902,0.654,5.706,1.523,8.876,0.436
			s6.023-5.871,6.023-7.395C154.477,83.108,155.111,78.323,156.063,76.149z"/>
	</g>
	<path d="M178.826,95.321c0,0-0.344-8.244-2.678-9.91s-3.008-1.418-3.08-2.137c-0.055-0.555-0.109-0.748,1.555-0.693
		c1.332,0.045,4.871,2.406,4.871,2.406L178.826,95.321z"/>
	<path d="M151.16,37.987c0,0,3,1,2.334,2.666c-0.668,1.668-0.666,2.334,0.666,2.334c1.334,0,2-2,3.666-1.334
		c1.668,0.668,0.334,3.334,2,3.668c1.668,0.332,2.334-0.002,3.334,0.332s4.666,3,4.334,4.334c-0.334,1.332-3.668-2-4.668-1.334
		c-1,0.668-2.666,1.666-1.332,2.334c1.332,0.666,5.332,0.666,7,2.334c1.666,1.666,2.092,2.613,3,1.666c0.949-0.994-2-7-4-8.666
		C165.494,44.653,154.494,37.319,151.16,37.987z"/>
	<path d="M172.324,66.685c0,0,1.689,0.705,2.205,0.518c0.518-0.189,1.83-1.361,2.488-2.629c0.656-1.268,0.375-2.254,0.094-2.91
		l1.408,1.408l0.752,5.115l-0.424-0.375c0,0-0.141-1.268-0.609-1.221s-1.502,0.939-1.502,0.939l-3.004,0.422l-1.455-0.846
		L172.324,66.685z"/>
	<path d="M176.592,83.274c0,0,1.055,0.555,1.525,0.334c0.473-0.223,0.666-1,0.666-1l-0.416,2.109h-1.109L176.592,83.274z"/>
	<path d="M137.493,85.821c-0.869,0.521-1.693,0.93-1.525,1.43c0.166,0.5,1.525,13.736,7.526,14.07c6,0.332,11.166-1.5,14.166,0.5
		s-0.334,3.832-0.334,3.832s-0.334,2.334,2.334,0.5c0,0,0.832,0.5,1,0c0.166-0.5,0.334-3.998-1.166-4.832s-3.668-1.5-4.668-2.168
		c-1-0.666-7.836,0.76-9.67,0.432c-3.843-0.691-3.579-4.029-5.079-6.529S138.325,85.321,137.493,85.821z"/>
	<path d="M176.826,99.653c0,0-1.332,3.668-3.332,3.668c0,0,2.666,1,2.332,2.332C175.494,106.987,176.826,99.653,176.826,99.653z"/>
	<path d="M159.326,104.999c0,0,2.922-0.893,5.254-0.797c2.334,0.094,3.338,2.086,3.338,2.086s-2.432-0.986-3.758-0.967
		c-1.328,0.02-3.676,1.023-3.676,1.023L159.326,104.999z"/>
	<path d="M144.059,105.64c0,0-1.548-3.174-4.548-3.361s-2.559-0.207-3.559-0.395s-2.584-3.418-3.646-3.668s-1.438-0.625-1.875-0.438
		s-0.188,0.688,0.063,0.813s1.188,0.25,1.625,0.5s1.25,2.875,3,3.688s3.111,0.895,3.799,1.082s2.893,1.395,3.955,2.77
		C142.872,106.63,144.455,107.222,144.059,105.64z"/>
</g>
<path fill="#736DAB" d="M128.36,41.31v67.287H81.192c0,0-4.698-11.043-4.698-14.428c0-3.383-0.049-9.426-0.049-9.426
	s-1.354-4.736-1.354-10.828c0-6.09,3.384-17.594,8.798-19.625c0,0,15.565-20.979,33.836-18.271
	C117.726,36.019,128.766,35.772,128.36,41.31z"/>
<path d="M124.057,79.581c1.489-0.748,2.333,1,4.333,1s4.333-2.334,5.333-1.002c1,1.334,0.333,0,0,1.668
	c-0.333,1.666-3.104,2.311-5.333,2.334c-2.108,0.021-3.001-0.334-4.667-2.334S123.391,79.915,124.057,79.581z"/>
<path d="M124.89,61.581c0,0,1.167-1.334,3.5-1.334s3.833,1.834,4.5,1.834s1.333-0.334,1.333-0.334s0.001-1.832-0.666-2.166
	s-3.5-1-5-1s-4.001,0.998-4.834,1.166c-0.833,0.166-1.667,1.334-1,1.834S124.89,61.581,124.89,61.581z"/>
<path d="M97.557,105.259c0,0-2.922-0.893-5.254-0.797c-2.333,0.094-3.338,2.086-3.338,2.086s2.432-0.986,3.758-0.967
	c1.328,0.02,3.676,1.023,3.676,1.023L97.557,105.259z"/>
<g>
	<path d="M75.906,84.474c0.22,3.145-0.219,9.883,0.438,11.906c0.656,2.02,2.408,7.861,3.282,9.883
		c0.306,0.709,0.584,1.557,0.866,2.441l2.005-0.117c-0.127-0.33-0.27-0.656-0.464-0.977c-1.094-1.795-0.876-4.492-0.876-4.492
		s-2.188-6.514-2.624-8.535c-0.438-2.021,0.655-7.639,0.437-9.213c-0.221-1.57-0.875-2.471-1.97-5.615
		c-1.094-3.146,0.439-6.963,0.656-8.313c0.22-1.346,0.656-6.289,1.096-7.637c0.437-1.35,3.062-5.393,3.227-6.348
		s4.411-2.137,4.411-2.137c0.22-2.246,1.551-3.873,1.551-3.873c0-2.246,7.657-8.537,7.657-8.537
		c2.407-1.797,13.347-5.615,16.19-6.291c2.846-0.672,4.377,1.125,4.377,1.125c3.72-1.797,7.001,0,9.189,1.348
		c2.188,1.348,2.405,3.594,2.405,3.594c1.314,1.574,1.095-2.021,1.095-2.021s-0.874-4.492-4.157-5.615
		c-3.281-1.125-8.752-0.451-8.752-0.451c-7.438-1.57-19.254,4.27-22.755,6.965c-3.5,2.697-11.157,12.355-11.157,12.355
		s-2.407,2.023-4.594,6.74c-2.189,4.719-2.627,14.828-2.408,16.85S75.688,81.327,75.906,84.474z"/>
	<g>
		<path d="M108.43,40.265c0.635-1.088,3.17,1.086,5.071,1.086c1.902,0,5.389-1.305,7.608-0.869s5.073,2.176,5.706,3.697
			c0.635,1.521-0.951,7.176-2.854,7.611c0,0,3.172,3.48,1.587,4.785c-1.587,1.305-2.22,0-2.22-0.652s0.317-2.393-0.951-2.828
			c-1.269-0.434-2.854-1.957-2.854-1.957s2.537,0,3.805-1.305c1.269-1.305,0.635-3.697,0-4.785
			c-0.633-1.088-2.218-3.045-3.805-3.045c-1.584,0-4.755,1.305-6.975,1.088C110.332,42.874,107.795,41.353,108.43,40.265z"/>
		<path d="M103.357,46.571c0,0-3.486,3.914,0,8.48c3.486,4.568,3.17,2.611,3.17,2.611l-1.268,1.74c0,0-2.535-3.697-4.756-3.48
			c-2.219,0.217-5.072,2.174-6.023,5.438c-0.951,3.262,1.269,5.873,4.122,6.307c2.853,0.436,13.632-0.652,13.632-0.652
			s-0.953,0.652-0.635,1.74c0.316,1.086,0.95,2.393,0.95,2.393s-2.535-2.176-8.876-1.959c-6.34,0.219-8.561,1.305-11.096,5.438
			s-0.949,10.221,0.318,11.744s6.975,1.959,7.607,3.48c0.634,1.521-1.268,3.045-1.585,4.131c-0.316,1.088,0.951,1.959,0.951,1.959
			s-3.487-1.523-6.022-1.305c-2.537,0.217-7.292,2.609-7.292,2.609s0.952,0.436,0.634,1.088c-0.317,0.652-0.951,1.305-0.634,1.957
			c0.316,0.652,1.268,1.086,1.268,1.086s-1.585,0.219-2.536-1.086s0.951-1.523,0.317-2.176s-1.902-0.434-1.902-0.434
			s0.952-0.219,2.536-2.176c1.585-1.957,2.219-3.045,4.438-3.045c2.221,0,4.756,0.217,4.756,0.217s2.22-0.869,1.269-2.174
			s-8.243-2.176-8.243-2.176s2.219-1.305,2.219-2.391c0-1.088-1.584-3.264-4.438-4.785c-2.853-1.523-5.072-3.916-5.072-8.482
			s-1.208-5.607-3.109-7.348l0.666-3c0,0,1.81,4.041,3.712,5.346l4.755-2.176c0,0-0.951,2.828-3.487,3.916
			c0,0-1.901,3.697-0.316,6.307s5.706,4.566,5.706,4.566s1.269-6.307,1.902-7.611c0.633-1.305,1.902-2.609,2.219-3.48
			c0.316-0.869-1.903-6.307-1.586-8.047c0.318-1.738,2.854-6.959,7.609-7.395C99.236,53.747,99.871,46.136,103.357,46.571z"/>
		<path d="M110.332,57.444c0,0-2.537-0.65-4.756,0.436c-2.219,1.088-3.805,4.35-1.902,6.09c0,0,0.951,0.652,1.902-0.436
			c0,0-0.316-4.566,1.586-5.002S110.332,57.444,110.332,57.444z"/>
		<path d="M107.795,51.573c0,0,3.486-1.521,6.657-0.652c3.17,0.869,5.072,4.783,5.072,4.783s1.585-2.826-1.268-5
			c-2.854-2.176-7.608-0.871-9.827-0.652C106.211,50.269,105.893,50.485,107.795,51.573z"/>
		<path d="M111.916,49.833c0,0,0.952-1.74-0.316-2.174c-1.268-0.436-2.854-0.871-2.219-1.523c0.634-0.652,3.804,0.652,4.755,2.609
			c0.951,1.959,0.951,1.959,0.951,1.959L111.916,49.833z"/>
		<path d="M114.452,58.751c0,0,6.023,5.436,6.023,11.09c0,5.656-2.854,10.223-5.072,10.223s-2.221-1.957-3.804-1.523
			c-1.585,0.436-3.804,2.395-1.585,2.828c2.22,0.436,4.438,1.305,6.34,0.436c1.902-0.871,4.121-1.959,5.391-3.916
			c1.266-1.957,0.949-6.088,1.266-8.264c0.318-2.176-3.802-9.787-5.389-10.873C116.038,57.663,114.452,56.792,114.452,58.751z"/>
		<path d="M100.821,76.149c0,0,2.536-0.436,3.487-1.523c0.951-1.086,1.267,0.219,0.633,2.393c-0.633,2.174-0.95,5.654-0.316,7.178
			c0.635,1.521,3.488,5.654,7.291,5.219c3.805-0.436,5.073-1.521,6.024-2.826c0.951-1.307,2.852-1.523,3.169-0.219
			s-0.949,2.828-1.585,3.697c-0.633,0.869-0.317,0.869-2.219,1.521c-1.902,0.654-5.706,1.523-8.876,0.436s-6.023-5.871-6.023-7.395
			C102.406,83.108,101.771,78.323,100.821,76.149z"/>
	</g>
	<path d="M78.057,95.321c0,0,0.345-8.244,2.678-9.91c2.334-1.666,3.008-1.418,3.08-2.137c0.055-0.555,0.11-0.748-1.554-0.693
		c-1.333,0.045-4.871,2.406-4.871,2.406L78.057,95.321z"/>
	<path d="M105.723,37.987c0,0-3,1-2.333,2.666c0.667,1.668,0.666,2.334-0.667,2.334s-2-2-3.666-1.334
		c-1.667,0.668-0.334,3.334-2,3.668c-1.667,0.332-2.334-0.002-3.334,0.332s-4.666,3-4.333,4.334c0.333,1.332,3.667-2,4.667-1.334
		c1,0.668,2.666,1.666,1.333,2.334c-1.333,0.666-5.333,0.666-7,2.334c-1.667,1.666-2.093,2.613-3,1.666c-0.95-0.994,2-7,4-8.666
		C91.39,44.653,102.389,37.319,105.723,37.987z"/>
	<path d="M84.56,66.685c0,0-1.689,0.705-2.206,0.518c-0.517-0.189-1.83-1.361-2.488-2.629c-0.656-1.268-0.375-2.254-0.094-2.91
		l-1.408,1.408l-0.751,5.115l0.423-0.375c0,0,0.141-1.268,0.609-1.221c0.47,0.047,1.502,0.939,1.502,0.939l3.005,0.422l1.455-0.846
		L84.56,66.685z"/>
	<path d="M80.291,83.274c0,0-1.054,0.555-1.525,0.334c-0.472-0.223-0.666-1-0.666-1l0.416,2.109h1.109L80.291,83.274z"/>
	<path d="M119.39,85.821c0.869,0.521,1.692,0.93,1.525,1.43s-1.525,13.736-7.525,14.07c-6,0.332-11.167-1.5-14.167,0.5
		s0.334,3.832,0.334,3.832s0.334,2.334-2.334,0.5c0,0-0.832,0.5-1,0c-0.166-0.5-0.333-3.998,1.167-4.832s3.667-1.5,4.667-2.168
		c1-0.666,7.836,0.76,9.67,0.432c3.843-0.691,3.578-4.029,5.078-6.529S118.557,85.321,119.39,85.821z"/>
	<path d="M80.057,99.653c0,0,1.333,3.668,3.333,3.668c0,0-2.667,1-2.333,2.332C81.39,106.987,80.057,99.653,80.057,99.653z"/>
	<path d="M112.824,105.64c0,0,1.548-3.174,4.548-3.361s2.559-0.207,3.559-0.395s2.584-3.418,3.646-3.668s1.438-0.625,1.875-0.438
		s0.188,0.688-0.063,0.813s-1.188,0.25-1.625,0.5s-1.25,2.875-3,3.688s-3.112,0.895-3.8,1.082s-2.892,1.395-3.954,2.77
		C114.011,106.63,112.429,107.222,112.824,105.64z"/>
</g>
<path fill="#FFFFFF" d="M91.167,21.888l-8.958,3.016l-0.062,9.303c-0.294-0.036-0.616-0.027-0.954,0.034
	c-1.366,0.251-2.473,1.26-2.473,2.254c0,0.993,1.106,1.596,2.473,1.347c1.363-0.25,2.469-1.259,2.469-2.252
	c0-0.036-0.012-0.068-0.015-0.104v-7.826l6.018-2.029v5.954c-0.299-0.039-0.626-0.031-0.972,0.031
	c-1.366,0.251-2.473,1.26-2.473,2.254c0,0.993,1.106,1.596,2.473,1.347c1.334-0.244,2.413-1.216,2.46-2.188h0.012L91.167,21.888z"/>
<path fill="#FFFFFF" d="M58.167,50.888l-8.958,3.016l-0.062,9.303c-0.294-0.036-0.616-0.027-0.954,0.034
	c-1.366,0.251-2.473,1.26-2.473,2.254c0,0.993,1.106,1.596,2.473,1.347c1.363-0.25,2.469-1.259,2.469-2.252
	c0-0.036-0.012-0.068-0.015-0.104v-7.826l6.018-2.029v5.954c-0.299-0.039-0.626-0.031-0.972,0.031
	c-1.366,0.251-2.473,1.26-2.473,2.254c0,0.993,1.106,1.596,2.473,1.347c1.334-0.244,2.413-1.216,2.46-2.188h0.012L58.167,50.888z"/>
<path fill="#FFFFFF" d="M69.167,72.888l-8.958,3.016l-0.062,9.303c-0.294-0.036-0.616-0.027-0.954,0.034
	c-1.366,0.251-2.473,1.26-2.473,2.254c0,0.993,1.106,1.596,2.473,1.347c1.363-0.25,2.469-1.259,2.469-2.252
	c0-0.036-0.012-0.068-0.015-0.104v-7.826l6.018-2.029v5.954c-0.299-0.039-0.626-0.031-0.972,0.031
	c-1.366,0.251-2.473,1.26-2.473,2.254c0,0.993,1.106,1.596,2.473,1.347c1.334-0.244,2.413-1.216,2.46-2.188h0.012L69.167,72.888z"/>
<path fill="#FFFFFF" d="M160.667,13.888l-8.958,3.016l-0.062,9.303c-0.294-0.036-0.616-0.027-0.954,0.034
	c-1.366,0.251-2.473,1.26-2.473,2.254c0,0.993,1.106,1.596,2.473,1.347c1.363-0.25,2.469-1.259,2.469-2.252
	c0-0.036-0.012-0.068-0.015-0.104v-7.826l6.018-2.029v5.954c-0.299-0.039-0.626-0.031-0.972,0.031
	c-1.366,0.251-2.473,1.26-2.473,2.254c0,0.993,1.106,1.596,2.473,1.347c1.334-0.244,2.413-1.216,2.46-2.188h0.012L160.667,13.888z"
	/>
<path fill="#FFFFFF" d="M203,30.388l-8.958,3.016l-0.062,9.303c-0.294-0.036-0.616-0.027-0.954,0.034
	c-1.366,0.251-2.473,1.26-2.473,2.254c0,0.993,1.106,1.596,2.473,1.347c1.363-0.25,2.469-1.259,2.469-2.252
	c0-0.036-0.012-0.068-0.015-0.104v-7.826l6.018-2.029v5.954c-0.299-0.039-0.626-0.031-0.972,0.031
	c-1.366,0.251-2.473,1.26-2.473,2.254c0,0.993,1.106,1.596,2.473,1.347c1.334-0.244,2.413-1.216,2.46-2.188h0.012L203,30.388z"/>
<path fill="#FFFFFF" d="M196.667,57.888l-8.958,3.016l-0.062,9.303c-0.294-0.036-0.616-0.027-0.954,0.034
	c-1.366,0.251-2.473,1.26-2.473,2.254c0,0.993,1.106,1.596,2.473,1.347c1.363-0.25,2.469-1.259,2.469-2.252
	c0-0.036-0.012-0.068-0.015-0.104v-7.826l6.018-2.029v5.954c-0.299-0.039-0.626-0.031-0.972,0.031
	c-1.366,0.251-2.473,1.26-2.473,2.254c0,0.993,1.106,1.596,2.473,1.347c1.334-0.244,2.413-1.216,2.46-2.188h0.012L196.667,57.888z"
	/>
<rect x="43.563" y="105.888" fill="#BCAEED" stroke="#000000" width="170" height="25.333"/>
<g>
	<g>
		<path fill="#6600CC" d="M51.35,109.123h5.039l3.995,10.522l4.229-10.522h5.092l2.977,19.687h-5.118l-1.436-11.332h-0.052
			l-4.727,11.332h-2.036l-4.518-11.332h-0.052L53.1,128.809h-5.092L51.35,109.123z"/>
		<path fill="#6600CC" d="M79.418,115.415v7.154c0,1.697,0.418,2.898,2.376,2.898s2.376-1.201,2.376-2.898v-7.154h4.752v8.068
			c0,4.413-3.107,5.77-7.128,5.77s-7.128-1.357-7.128-5.77v-8.068H79.418z"/>
		<path fill="#6600CC" d="M100.802,118.861c-0.731-0.392-1.749-0.653-2.559-0.653c-0.548,0-1.488,0.235-1.488,0.914
			c0,0.914,1.488,1.044,2.141,1.175c2.22,0.444,3.891,1.488,3.891,3.969c0,3.525-3.212,4.987-6.318,4.987
			c-1.906,0-3.786-0.548-5.405-1.54l1.724-3.316c0.966,0.679,2.585,1.358,3.76,1.358c0.601,0,1.488-0.287,1.488-1.018
			c0-1.044-1.488-1.097-2.977-1.488s-2.977-1.123-2.977-3.525c0-3.29,2.977-4.752,5.901-4.752c1.514,0,3.028,0.235,4.412,0.861
			L100.802,118.861z"/>
		<path fill="#6600CC" d="M110.384,110.271c0,1.462-1.2,2.663-2.663,2.663c-1.462,0-2.663-1.201-2.663-2.663
			c0-1.462,1.201-2.663,2.663-2.663C109.184,107.608,110.384,108.809,110.384,110.271z M110.097,128.809h-4.752v-13.394h4.752
			V128.809z"/>
		<path fill="#6600CC" d="M122.891,119.775c-0.705-0.522-1.54-0.94-2.454-0.94c-1.827,0-3.264,1.41-3.264,3.264
			c0,1.932,1.384,3.29,3.342,3.29c0.836,0,1.75-0.339,2.376-0.914v4.021c-1.044,0.522-2.193,0.757-3.342,0.757
			c-3.969,0-7.284-2.95-7.284-6.997c0-4.308,3.289-7.285,7.493-7.285c1.097,0,2.193,0.261,3.133,0.783V119.775z"/>
		<path fill="#6600CC" d="M125.945,128.809v-19.687h7.312c3.498,0,5.849,1.358,5.849,5.118c0,1.775-0.575,3.211-2.168,4.021v0.052
			c2.82,0.366,4.021,2.271,4.021,5.013c0,4.125-3.525,5.483-7.128,5.483H125.945z M131.063,116.851h0.574
			c1.357,0,2.768-0.235,2.768-1.906c0-1.801-1.593-1.906-2.977-1.906h-0.365V116.851z M131.063,124.893h0.652
			c1.515,0,4.073,0.079,4.073-2.088c0-2.376-2.532-2.141-4.203-2.141h-0.522V124.893z"/>
		<path fill="#6600CC" d="M148.27,117.608h0.053c0.913-1.645,2.48-2.376,4.334-2.376h0.914v4.569
			c-0.653-0.365-1.279-0.444-2.011-0.444c-2.637,0-3.29,1.75-3.29,4.047v5.405h-4.752v-13.394h4.752V117.608z"/>
		<path fill="#6600CC" d="M169.993,128.809h-4.752v-1.488h-0.053c-0.835,1.332-2.479,1.932-4.047,1.932
			c-3.969,0-6.762-3.316-6.762-7.154c0-3.838,2.741-7.128,6.71-7.128c1.54,0,3.159,0.574,4.151,1.75v-1.306h4.752V128.809z
			 M159.288,122.125c0,1.697,1.123,3.003,3.055,3.003c1.933,0,3.055-1.306,3.055-3.003c0-1.645-1.122-3.028-3.055-3.028
			C160.411,119.097,159.288,120.48,159.288,122.125z"/>
		<path fill="#6600CC" d="M178.191,110.271c0,1.462-1.201,2.663-2.663,2.663s-2.663-1.201-2.663-2.663
			c0-1.462,1.201-2.663,2.663-2.663S178.191,108.809,178.191,110.271z M177.904,128.809h-4.752v-13.394h4.752V128.809z"/>
		<path fill="#6600CC" d="M185.79,117.138h0.052c1.097-1.619,2.429-2.167,4.282-2.167c3.603,0,5.039,2.271,5.039,5.561v8.277h-4.752
			v-6.527c0-1.279,0.209-3.525-2.141-3.525c-1.933,0-2.48,1.436-2.48,3.107v6.945h-4.752v-13.394h4.752V117.138z"/>
		<path fill="#6600CC" d="M210.516,124.867v3.942h-13.577l6.293-9.452h-5.457v-3.942h13.368l-6.267,9.452H210.516z"/>
	</g>
	<g>
		<path fill="#34176B" d="M51.35,109.123h5.039l3.995,10.522l4.229-10.522h5.092l2.977,19.687h-5.118l-1.436-11.332h-0.052
			l-4.727,11.332h-2.036l-4.518-11.332h-0.052L53.1,128.809h-5.092L51.35,109.123z"/>
		<path fill="#34176B" d="M79.418,115.415v7.154c0,1.697,0.418,2.898,2.376,2.898s2.376-1.201,2.376-2.898v-7.154h4.752v8.068
			c0,4.413-3.107,5.77-7.128,5.77s-7.128-1.357-7.128-5.77v-8.068H79.418z"/>
		<path fill="#34176B" d="M100.802,118.861c-0.731-0.392-1.749-0.653-2.559-0.653c-0.548,0-1.488,0.235-1.488,0.914
			c0,0.914,1.488,1.044,2.141,1.175c2.22,0.444,3.891,1.488,3.891,3.969c0,3.525-3.212,4.987-6.318,4.987
			c-1.906,0-3.786-0.548-5.405-1.54l1.724-3.316c0.966,0.679,2.585,1.358,3.76,1.358c0.601,0,1.488-0.287,1.488-1.018
			c0-1.044-1.488-1.097-2.977-1.488s-2.977-1.123-2.977-3.525c0-3.29,2.977-4.752,5.901-4.752c1.514,0,3.028,0.235,4.412,0.861
			L100.802,118.861z"/>
		<path fill="#34176B" d="M110.384,110.271c0,1.462-1.2,2.663-2.663,2.663c-1.462,0-2.663-1.201-2.663-2.663
			c0-1.462,1.201-2.663,2.663-2.663C109.184,107.608,110.384,108.809,110.384,110.271z M110.097,128.809h-4.752v-13.394h4.752
			V128.809z"/>
		<path fill="#34176B" d="M122.891,119.775c-0.705-0.522-1.54-0.94-2.454-0.94c-1.827,0-3.264,1.41-3.264,3.264
			c0,1.932,1.384,3.29,3.342,3.29c0.836,0,1.75-0.339,2.376-0.914v4.021c-1.044,0.522-2.193,0.757-3.342,0.757
			c-3.969,0-7.284-2.95-7.284-6.997c0-4.308,3.289-7.285,7.493-7.285c1.097,0,2.193,0.261,3.133,0.783V119.775z"/>
		<path fill="#34176B" d="M125.945,128.809v-19.687h7.312c3.498,0,5.849,1.358,5.849,5.118c0,1.775-0.575,3.211-2.168,4.021v0.052
			c2.82,0.366,4.021,2.271,4.021,5.013c0,4.125-3.525,5.483-7.128,5.483H125.945z M131.063,116.851h0.574
			c1.357,0,2.768-0.235,2.768-1.906c0-1.801-1.593-1.906-2.977-1.906h-0.365V116.851z M131.063,124.893h0.652
			c1.515,0,4.073,0.079,4.073-2.088c0-2.376-2.532-2.141-4.203-2.141h-0.522V124.893z"/>
		<path fill="#34176B" d="M148.27,117.608h0.053c0.913-1.645,2.48-2.376,4.334-2.376h0.914v4.569
			c-0.653-0.365-1.279-0.444-2.011-0.444c-2.637,0-3.29,1.75-3.29,4.047v5.405h-4.752v-13.394h4.752V117.608z"/>
		<path fill="#34176B" d="M169.993,128.809h-4.752v-1.488h-0.053c-0.835,1.332-2.479,1.932-4.047,1.932
			c-3.969,0-6.762-3.316-6.762-7.154c0-3.838,2.741-7.128,6.71-7.128c1.54,0,3.159,0.574,4.151,1.75v-1.306h4.752V128.809z
			 M159.288,122.125c0,1.697,1.123,3.003,3.055,3.003c1.933,0,3.055-1.306,3.055-3.003c0-1.645-1.122-3.028-3.055-3.028
			C160.411,119.097,159.288,120.48,159.288,122.125z"/>
		<path fill="#34176B" d="M178.191,110.271c0,1.462-1.201,2.663-2.663,2.663s-2.663-1.201-2.663-2.663
			c0-1.462,1.201-2.663,2.663-2.663S178.191,108.809,178.191,110.271z M177.904,128.809h-4.752v-13.394h4.752V128.809z"/>
		<path fill="#34176B" d="M185.79,117.138h0.052c1.097-1.619,2.429-2.167,4.282-2.167c3.603,0,5.039,2.271,5.039,5.561v8.277h-4.752
			v-6.527c0-1.279,0.209-3.525-2.141-3.525c-1.933,0-2.48,1.436-2.48,3.107v6.945h-4.752v-13.394h4.752V117.138z"/>
		<path fill="#34176B" d="M210.516,124.867v3.942h-13.577l6.293-9.452h-5.457v-3.942h13.368l-6.267,9.452H210.516z"/>
	</g>
</g>
</svg>
