<svg width="22" height="20" viewBox="0 0 22 20" fill="none" xmlns="http://www.w3.org/2000/svg">
<g clip-path="url(#clip0_2427_3935)">
<path d="M16.3 11.7C19.4 11.7 22 9.2 22 6C22 2.8 19.5 0.3 16.3 0.3C15 0.3 13.8 0.7 12.8 1.5C11.5 0.6 9.9 0 8.1 0C3.6 0 0 3.6 0 8.1C0 12.6 3.6 16.2 8.1 16.2C10 16.2 11.7 15.6 13.1 14.5V15.1C13.1 15.3 13.2 15.6 13.4 15.8L17.3 19.7C17.7 20.1 18.3 20.1 18.6 19.7L19.7 18.6C20.1 18.2 20.1 17.6 19.7 17.3L15.8 13.4C15.6 13.2 15.4 13.1 15.1 13.1H14.5C14.9 12.7 15.1 12.2 15.4 11.6C15.7 11.7 16 11.7 16.3 11.7ZM16.3 1.5C18.8 1.5 20.9 3.5 20.9 6.1C20.9 8.6 18.9 10.7 16.3 10.7C13.8 10.7 11.7 8.7 11.7 6.1C11.7 3.5 13.8 1.5 16.3 1.5ZM8.1 13.1C5.3 13.1 3.1 10.9 3.1 8.1C3.1 5.3 5.3 3.1 8.1 3.1C9.2 3.1 10.1 3.4 10.9 4C10.7 4.6 10.5 5.3 10.5 6C10.5 7.7 11.3 9.3 12.5 10.3C11.8 12 10.1 13.1 8.1 13.1Z" fill="white"/>
<path d="M14.6 6.6002H15.7V7.7002C15.7 8.0002 16 8.3002 16.3 8.3002C16.6 8.3002 16.9 8.0002 16.9 7.7002V6.6002H18C18.3 6.6002 18.6 6.3002 18.6 6.0002C18.6 5.7002 18.3 5.4002 18 5.4002H16.9V4.3002C16.9 4.0002 16.6 3.7002 16.3 3.7002C16 3.7002 15.7 4.0002 15.7 4.3002V5.4002H14.6C14.2 5.5002 14 5.7002 14 6.0002C14 6.4002 14.2 6.6002 14.6 6.6002Z" fill="white"/>
</g>
<defs>
<clipPath id="clip0_2427_3935">
<rect width="22" height="20" fill="white"/>
</clipPath>
</defs>
</svg>
