<svg width="33" height="33" viewBox="0 0 33 33" fill="none" xmlns="http://www.w3.org/2000/svg">
<path d="M32.0661 28.161L25.7355 21.8304C25.4497 21.5446 25.0624 21.3859 24.656 21.3859H23.621C25.3735 19.1444 26.4149 16.3251 26.4149 13.2582C26.4149 5.96238 20.5033 0.0507812 13.2074 0.0507812C5.9116 0.0507812 0 5.96238 0 13.2582C0 20.5541 5.9116 26.4657 13.2074 26.4657C16.2744 26.4657 19.0936 25.4243 21.3351 23.6718V24.7068C21.3351 25.1132 21.4938 25.5005 21.7796 25.7862L28.1103 32.1169C28.7071 32.7138 29.6723 32.7138 30.2628 32.1169L32.0598 30.32C32.6567 29.7231 32.6567 28.7579 32.0661 28.161ZM13.2074 21.3859C8.71818 21.3859 5.07978 17.7538 5.07978 13.2582C5.07978 8.76896 8.71183 5.13057 13.2074 5.13057C17.6967 5.13057 21.3351 8.76261 21.3351 13.2582C21.3351 17.7475 17.7031 21.3859 13.2074 21.3859Z" fill="url(#paint0_linear_2437_7714)"/>
<defs>
<linearGradient id="paint0_linear_2437_7714" x1="16.2541" y1="0.0507812" x2="16.2541" y2="32.5646" gradientUnits="userSpaceOnUse">
<stop stop-color="#EB743B"/>
<stop offset="1" stop-color="#BA478F"/>
</linearGradient>
</defs>
</svg>
