<?xml version="1.0" encoding="UTF-8"?>
<!DOCTYPE svg  PUBLIC '-//W3C//DTD SVG 1.1//EN'  'http://www.w3.org/Graphics/SVG/1.1/DTD/svg11.dtd'>
<!-- Generated by graphviz version 2.42.4 (0)
 -->
<!-- Title: artist_entity_details Pages: 1 -->
<svg width="546pt" height="1514pt" inkscape:version="1.2.1 (9c6d41e410, 2022-07-14)" sodipodi:docname="artist_entity_details.svg" version="1.1" viewBox="0 0 546 1513.5" xmlns="http://www.w3.org/2000/svg" xmlns:inkscape="http://www.inkscape.org/namespaces/inkscape" xmlns:sodipodi="http://sodipodi.sourceforge.net/DTD/sodipodi-0.dtd" xmlns:xlink="http://www.w3.org/1999/xlink">
<sodipodi:namedview bordercolor="#666666" borderopacity="1.0" inkscape:current-layer="svg1470" inkscape:cx="730.86111" inkscape:cy="1148.0268" inkscape:deskcolor="#d1d1d1" inkscape:document-units="pt" inkscape:pagecheckerboard="0" inkscape:pageopacity="0.0" inkscape:showpageshadow="2" inkscape:window-height="1034" inkscape:window-maximized="1" inkscape:window-width="1920" inkscape:window-x="-4" inkscape:window-y="-4" inkscape:zoom="0.30443541" pagecolor="#ffffff" showgrid="false"/>
<g class="graph" transform="scale(1) translate(4 1509.5)">
<title>artist_entity_details</title>
<a xlink:title="Tables for the “artist” entity type properties">
<defs>
<linearGradient id="l_0" x1="32.58" x2="505.42" y1="-1131.1" y2="-374.37" gradientUnits="userSpaceOnUse">
<stop stop-color="#cb75ab" offset="0"/>
<stop stop-color="#f0976c" offset="1"/>
</linearGradient>
</defs>
<polygon points="-4 4 -4 -1509.5 542 -1509.5 542 4" fill="url(#l_0)" stroke="transparent"/>
</a>
<!-- musicbrainz.annotation -->
<g class="node">
<title>musicbrainz.annotation</title>
<polygon points="279 -1458 279 -1483 380 -1483 380 -1458" fill="#bbb" fill-opacity=".46667" stroke="transparent"/>
<polygon points="279 -1458 279 -1483 380 -1483 380 -1458" fill="none" stroke="#000"/>
<text x="282" y="-1466.4" font-family="Times,serif" font-size="17">annotation</text>
<polygon points="279 -1437 279 -1458 380 -1458 380 -1437" fill="#eee" fill-opacity=".46667" stroke="transparent"/>
<polygon points="279 -1437 279 -1458 380 -1458 380 -1437" fill="none" stroke="#000"/>
<text x="282" y="-1444.8" font-family="Times,serif" font-size="14" text-decoration="underline">id</text>
<polygon points="279 -1416 279 -1437 380 -1437 380 -1416" fill="#bbb" fill-opacity=".2" stroke="transparent"/>
<polygon points="279 -1416 279 -1437 380 -1437 380 -1416" fill="none" stroke="#000"/>
<text x="282" y="-1422.8" font-family="Times,serif" font-size="14">editor</text>
<polygon points="279 -1395 279 -1416 380 -1416 380 -1395" fill="#bbb" fill-opacity=".2" stroke="transparent"/>
<polygon points="279 -1395 279 -1416 380 -1416 380 -1395" fill="none" stroke="#000"/>
<text x="282" y="-1401.8" font-family="Times,serif" font-size="14">text</text>
<polygon points="279 -1374 279 -1395 380 -1395 380 -1374" fill="#bbb" fill-opacity=".2" stroke="transparent"/>
<polygon points="279 -1374 279 -1395 380 -1395 380 -1374" fill="none" stroke="#000"/>
<text x="282" y="-1380.8" font-family="Times,serif" font-size="14">changelog</text>
<polygon points="279 -1353 279 -1374 380 -1374 380 -1353" fill="#bbb" fill-opacity=".2" stroke="transparent"/>
<polygon points="279 -1353 279 -1374 380 -1374 380 -1353" fill="none" stroke="#000"/>
<text x="282" y="-1359.8" font-family="Times,serif" font-size="14">created</text>
</g>
<!-- musicbrainz.area -->
<g class="node">
<title>musicbrainz.area</title>
<polygon points="465.5 -447 465.5 -472 511.5 -472 511.5 -447" fill="#bbb" fill-opacity=".46667" stroke="transparent"/>
<polygon points="465.5 -447 465.5 -472 511.5 -472 511.5 -447" fill="none" stroke="#000"/>
<text x="468.5" y="-455.4" font-family="Times,serif" font-size="17">area</text>
<polygon points="465.5 -426 465.5 -447 511.5 -447 511.5 -426" fill="#eee" fill-opacity=".46667" stroke="transparent"/>
<polygon points="465.5 -426 465.5 -447 511.5 -447 511.5 -426" fill="none" stroke="#000"/>
<text x="468.5" y="-433.8" font-family="Times,serif" font-size="14" text-decoration="underline">id</text>
<polygon points="465.5 -405 465.5 -426 511.5 -426 511.5 -405" fill="#bbb" fill-opacity=".2" stroke="transparent"/>
<polygon points="465.5 -405 465.5 -426 511.5 -426 511.5 -405" fill="none" stroke="#000"/>
<text x="468.5" y="-411.8" font-family="Times,serif" font-size="14">...</text>
</g>
<!-- musicbrainz.artist -->
<g class="node">
<title>musicbrainz.artist</title>
<polygon points="261 -678 261 -703 398 -703 398 -678" fill="#eee" fill-opacity=".73333" stroke="transparent"/>
<polygon points="261 -678 261 -703 398 -703 398 -678" fill="none" stroke="#000"/>
<text x="306" y="-686.4" font-family="Times,serif" font-size="17">artist</text>
<polygon points="261 -657 261 -678 398 -678 398 -657" fill="#eee" fill-opacity=".46667" stroke="transparent"/>
<polygon points="261 -657 261 -678 398 -678 398 -657" fill="none" stroke="#000"/>
<text x="264" y="-664.8" font-family="Times,serif" font-size="14" text-decoration="underline">id</text>
<polygon points="261 -636 261 -657 398 -657 398 -636" fill="#bbb" fill-opacity=".2" stroke="transparent"/>
<polygon points="261 -636 261 -657 398 -657 398 -636" fill="none" stroke="#000"/>
<text x="264" y="-642.8" font-family="Times,serif" font-size="14">gid</text>
<polygon points="261 -615 261 -636 398 -636 398 -615" fill="#bbb" fill-opacity=".2" stroke="transparent"/>
<polygon points="261 -615 261 -636 398 -636 398 -615" fill="none" stroke="#000"/>
<text x="264" y="-621.8" font-family="Times,serif" font-size="14">name</text>
<polygon points="261 -594 261 -615 398 -615 398 -594" fill="#bbb" fill-opacity=".2" stroke="transparent"/>
<polygon points="261 -594 261 -615 398 -615 398 -594" fill="none" stroke="#000"/>
<text x="264" y="-600.8" font-family="Times,serif" font-size="14">sort_name</text>
<polygon points="261 -573 261 -594 398 -594 398 -573" fill="#bbb" fill-opacity=".2" stroke="transparent"/>
<polygon points="261 -573 261 -594 398 -594 398 -573" fill="none" stroke="#000"/>
<text x="264" y="-579.8" font-family="Times,serif" font-size="14">begin_date_year</text>
<polygon points="261 -552 261 -573 398 -573 398 -552" fill="#bbb" fill-opacity=".2" stroke="transparent"/>
<polygon points="261 -552 261 -573 398 -573 398 -552" fill="none" stroke="#000"/>
<text x="264" y="-558.8" font-family="Times,serif" font-size="14">begin_date_month</text>
<polygon points="261 -531 261 -552 398 -552 398 -531" fill="#bbb" fill-opacity=".2" stroke="transparent"/>
<polygon points="261 -531 261 -552 398 -552 398 -531" fill="none" stroke="#000"/>
<text x="264" y="-537.8" font-family="Times,serif" font-size="14">begin_date_day</text>
<polygon points="261 -510 261 -531 398 -531 398 -510" fill="#bbb" fill-opacity=".2" stroke="transparent"/>
<polygon points="261 -510 261 -531 398 -531 398 -510" fill="none" stroke="#000"/>
<text x="264" y="-516.8" font-family="Times,serif" font-size="14">end_date_year</text>
<polygon points="261 -489 261 -510 398 -510 398 -489" fill="#bbb" fill-opacity=".2" stroke="transparent"/>
<polygon points="261 -489 261 -510 398 -510 398 -489" fill="none" stroke="#000"/>
<text x="264" y="-495.8" font-family="Times,serif" font-size="14">end_date_month</text>
<polygon points="261 -468 261 -489 398 -489 398 -468" fill="#bbb" fill-opacity=".2" stroke="transparent"/>
<polygon points="261 -468 261 -489 398 -489 398 -468" fill="none" stroke="#000"/>
<text x="264" y="-474.8" font-family="Times,serif" font-size="14">end_date_day</text>
<polygon points="261 -447 261 -468 398 -468 398 -447" fill="#eee" fill-opacity=".33333" stroke="transparent"/>
<polygon points="261 -447 261 -468 398 -468 398 -447" fill="none" stroke="#000"/>
<text x="264" y="-453.8" font-family="Times,serif" font-size="14">type</text>
<polygon points="261 -426 261 -447 398 -447 398 -426" fill="#eee" fill-opacity=".33333" stroke="transparent"/>
<polygon points="261 -426 261 -447 398 -447 398 -426" fill="none" stroke="#000"/>
<text x="264" y="-432.8" font-family="Times,serif" font-size="14">area</text>
<polygon points="261 -405 261 -426 398 -426 398 -405" fill="#eee" fill-opacity=".33333" stroke="transparent"/>
<polygon points="261 -405 261 -426 398 -426 398 -405" fill="none" stroke="#000"/>
<text x="264" y="-411.8" font-family="Times,serif" font-size="14">gender</text>
<polygon points="261 -384 261 -405 398 -405 398 -384" fill="#bbb" fill-opacity=".2" stroke="transparent"/>
<polygon points="261 -384 261 -405 398 -405 398 -384" fill="none" stroke="#000"/>
<text x="264" y="-390.8" font-family="Times,serif" font-size="14">comment</text>
<polygon points="261 -363 261 -384 398 -384 398 -363" fill="#bbb" fill-opacity=".2" stroke="transparent"/>
<polygon points="261 -363 261 -384 398 -384 398 -363" fill="none" stroke="#000"/>
<text x="264" y="-369.8" font-family="Times,serif" font-size="14">edits_pending</text>
<polygon points="261 -342 261 -363 398 -363 398 -342" fill="#bbb" fill-opacity=".2" stroke="transparent"/>
<polygon points="261 -342 261 -363 398 -363 398 -342" fill="none" stroke="#000"/>
<text x="264" y="-348.8" font-family="Times,serif" font-size="14">last_updated</text>
<polygon points="261 -321 261 -342 398 -342 398 -321" fill="#bbb" fill-opacity=".2" stroke="transparent"/>
<polygon points="261 -321 261 -342 398 -342 398 -321" fill="none" stroke="#000"/>
<text x="264" y="-327.8" font-family="Times,serif" font-size="14">ended</text>
</g>
<!-- musicbrainz.artist&#45;&gt;musicbrainz.area -->
<g class="edge">
<title>musicbrainz.artist:area-&gt;musicbrainz.area:id</title>
<path d="m399-436h55.24" fill="none" stroke="#000"/>
<polygon points="454.5 -439.5 464.5 -436 454.5 -432.5" stroke="#000"/>
</g>
<!-- musicbrainz.artist_type -->
<g class="node">
<title>musicbrainz.artist_type</title>
<polygon points="439.5 -616 439.5 -641 538.5 -641 538.5 -616" fill="#bbb" fill-opacity=".46667" stroke="transparent"/>
<polygon points="439.5 -616 439.5 -641 538.5 -641 538.5 -616" fill="none" stroke="#000"/>
<text x="442.5" y="-624.4" font-family="Times,serif" font-size="17">artist_type</text>
<polygon points="439.5 -595 439.5 -616 538.5 -616 538.5 -595" fill="#eee" fill-opacity=".46667" stroke="transparent"/>
<polygon points="439.5 -595 439.5 -616 538.5 -616 538.5 -595" fill="none" stroke="#000"/>
<text x="442.5" y="-602.8" font-family="Times,serif" font-size="14" text-decoration="underline">id</text>
<polygon points="439.5 -574 439.5 -595 538.5 -595 538.5 -574" fill="#bbb" fill-opacity=".2" stroke="transparent"/>
<polygon points="439.5 -574 439.5 -595 538.5 -595 538.5 -574" fill="none" stroke="#000"/>
<text x="442.5" y="-580.8" font-family="Times,serif" font-size="14">name</text>
<polygon points="439.5 -553 439.5 -574 538.5 -574 538.5 -553" fill="#eee" fill-opacity=".33333" stroke="transparent"/>
<polygon points="439.5 -553 439.5 -574 538.5 -574 538.5 -553" fill="none" stroke="#000"/>
<text x="442.5" y="-559.8" font-family="Times,serif" font-size="14">parent</text>
<polygon points="439.5 -532 439.5 -553 538.5 -553 538.5 -532" fill="#bbb" fill-opacity=".2" stroke="transparent"/>
<polygon points="439.5 -532 439.5 -553 538.5 -553 538.5 -532" fill="none" stroke="#000"/>
<text x="442.5" y="-538.8" font-family="Times,serif" font-size="14">child_order</text>
<polygon points="439.5 -511 439.5 -532 538.5 -532 538.5 -511" fill="#bbb" fill-opacity=".2" stroke="transparent"/>
<polygon points="439.5 -511 439.5 -532 538.5 -532 538.5 -511" fill="none" stroke="#000"/>
<text x="442.5" y="-517.8" font-family="Times,serif" font-size="14">description</text>
<polygon points="439.5 -490 439.5 -511 538.5 -511 538.5 -490" fill="#bbb" fill-opacity=".2" stroke="transparent"/>
<polygon points="439.5 -490 439.5 -511 538.5 -511 538.5 -490" fill="none" stroke="#000"/>
<text x="442.5" y="-496.8" font-family="Times,serif" font-size="14">gid</text>
</g>
<!-- musicbrainz.artist&#45;&gt;musicbrainz.artist_type -->
<g class="edge">
<title>musicbrainz.artist:type-&gt;musicbrainz.artist_type:id</title>
<path d="m399-457c64.68 0-18.1-132.6 29.88-147.62" fill="none" stroke="#000"/>
<polygon points="428.62 -608.12 439 -606 429.56 -601.18" stroke="#000"/>
</g>
<!-- musicbrainz.gender -->
<g class="node">
<title>musicbrainz.gender</title>
<polygon points="445.5 -362 445.5 -387 532.5 -387 532.5 -362" fill="#bbb" fill-opacity=".46667" stroke="transparent"/>
<polygon points="445.5 -362 445.5 -387 532.5 -387 532.5 -362" fill="none" stroke="#000"/>
<text x="458" y="-370.4" font-family="Times,serif" font-size="17">gender</text>
<polygon points="445.5 -341 445.5 -362 532.5 -362 532.5 -341" fill="#eee" fill-opacity=".46667" stroke="transparent"/>
<polygon points="445.5 -341 445.5 -362 532.5 -362 532.5 -341" fill="none" stroke="#000"/>
<text x="448.5" y="-348.8" font-family="Times,serif" font-size="14" text-decoration="underline">id</text>
<polygon points="445.5 -320 445.5 -341 532.5 -341 532.5 -320" fill="#bbb" fill-opacity=".2" stroke="transparent"/>
<polygon points="445.5 -320 445.5 -341 532.5 -341 532.5 -320" fill="none" stroke="#000"/>
<text x="448.5" y="-326.8" font-family="Times,serif" font-size="14">name</text>
<polygon points="445.5 -299 445.5 -320 532.5 -320 532.5 -299" fill="#eee" fill-opacity=".33333" stroke="transparent"/>
<polygon points="445.5 -299 445.5 -320 532.5 -320 532.5 -299" fill="none" stroke="#000"/>
<text x="448.5" y="-305.8" font-family="Times,serif" font-size="14">parent</text>
<polygon points="445.5 -278 445.5 -299 532.5 -299 532.5 -278" fill="#bbb" fill-opacity=".2" stroke="transparent"/>
<polygon points="445.5 -278 445.5 -299 532.5 -299 532.5 -278" fill="none" stroke="#000"/>
<text x="448.5" y="-284.8" font-family="Times,serif" font-size="14">child_order</text>
<polygon points="445.5 -257 445.5 -278 532.5 -278 532.5 -257" fill="#bbb" fill-opacity=".2" stroke="transparent"/>
<polygon points="445.5 -257 445.5 -278 532.5 -278 532.5 -257" fill="none" stroke="#000"/>
<text x="448.5" y="-263.8" font-family="Times,serif" font-size="14">description</text>
<polygon points="445.5 -236 445.5 -257 532.5 -257 532.5 -236" fill="#bbb" fill-opacity=".2" stroke="transparent"/>
<polygon points="445.5 -236 445.5 -257 532.5 -257 532.5 -236" fill="none" stroke="#000"/>
<text x="448.5" y="-242.8" font-family="Times,serif" font-size="14">gid</text>
</g>
<!-- musicbrainz.artist&#45;&gt;musicbrainz.gender -->
<g class="edge">
<title>musicbrainz.artist:gender-&gt;musicbrainz.gender:id</title>
<path d="m399-415c30.49 0 15.69 49.1 35.56 60.61" fill="none" stroke="#000"/>
<polygon points="435.6 -357.74 444.5 -352 433.96 -350.94" stroke="#000"/>
</g>
<!-- musicbrainz.artist_alias -->
<g class="node">
<title>musicbrainz.artist_alias</title>
<polygon points="40.5 -1395 40.5 -1420 179.5 -1420 179.5 -1395" fill="#bbb" fill-opacity=".46667" stroke="transparent"/>
<polygon points="40.5 -1395 40.5 -1420 179.5 -1420 179.5 -1395" fill="none" stroke="#000"/>
<text x="62" y="-1403.4" font-family="Times,serif" font-size="17">artist_alias</text>
<polygon points="40.5 -1374 40.5 -1395 179.5 -1395 179.5 -1374" fill="#eee" fill-opacity=".46667" stroke="transparent"/>
<polygon points="40.5 -1374 40.5 -1395 179.5 -1395 179.5 -1374" fill="none" stroke="#000"/>
<text x="43.5" y="-1381.8" font-family="Times,serif" font-size="14" text-decoration="underline">id</text>
<polygon points="40.5 -1353 40.5 -1374 179.5 -1374 179.5 -1353" fill="#eee" fill-opacity=".33333" stroke="transparent"/>
<polygon points="40.5 -1353 40.5 -1374 179.5 -1374 179.5 -1353" fill="none" stroke="#000"/>
<text x="43.5" y="-1359.8" font-family="Times,serif" font-size="14">artist</text>
<polygon points="40.5 -1332 40.5 -1353 179.5 -1353 179.5 -1332" fill="#bbb" fill-opacity=".2" stroke="transparent"/>
<polygon points="40.5 -1332 40.5 -1353 179.5 -1353 179.5 -1332" fill="none" stroke="#000"/>
<text x="43.5" y="-1338.8" font-family="Times,serif" font-size="14">name</text>
<polygon points="40.5 -1311 40.5 -1332 179.5 -1332 179.5 -1311" fill="#bbb" fill-opacity=".2" stroke="transparent"/>
<polygon points="40.5 -1311 40.5 -1332 179.5 -1332 179.5 -1311" fill="none" stroke="#000"/>
<text x="43.5" y="-1317.8" font-family="Times,serif" font-size="14">locale</text>
<polygon points="40.5 -1290 40.5 -1311 179.5 -1311 179.5 -1290" fill="#bbb" fill-opacity=".2" stroke="transparent"/>
<polygon points="40.5 -1290 40.5 -1311 179.5 -1311 179.5 -1290" fill="none" stroke="#000"/>
<text x="43.5" y="-1296.8" font-family="Times,serif" font-size="14">edits_pending</text>
<polygon points="40.5 -1269 40.5 -1290 179.5 -1290 179.5 -1269" fill="#bbb" fill-opacity=".2" stroke="transparent"/>
<polygon points="40.5 -1269 40.5 -1290 179.5 -1290 179.5 -1269" fill="none" stroke="#000"/>
<text x="43.5" y="-1275.8" font-family="Times,serif" font-size="14">last_updated</text>
<polygon points="40.5 -1248 40.5 -1269 179.5 -1269 179.5 -1248" fill="#eee" fill-opacity=".33333" stroke="transparent"/>
<polygon points="40.5 -1248 40.5 -1269 179.5 -1269 179.5 -1248" fill="none" stroke="#000"/>
<text x="43.5" y="-1254.8" font-family="Times,serif" font-size="14">type</text>
<polygon points="40.5 -1227 40.5 -1248 179.5 -1248 179.5 -1227" fill="#bbb" fill-opacity=".2" stroke="transparent"/>
<polygon points="40.5 -1227 40.5 -1248 179.5 -1248 179.5 -1227" fill="none" stroke="#000"/>
<text x="43.5" y="-1233.8" font-family="Times,serif" font-size="14">sort_name</text>
<polygon points="40.5 -1206 40.5 -1227 179.5 -1227 179.5 -1206" fill="#bbb" fill-opacity=".2" stroke="transparent"/>
<polygon points="40.5 -1206 40.5 -1227 179.5 -1227 179.5 -1206" fill="none" stroke="#000"/>
<text x="43.5" y="-1212.8" font-family="Times,serif" font-size="14">begin_date_year</text>
<polygon points="40.5 -1185 40.5 -1206 179.5 -1206 179.5 -1185" fill="#bbb" fill-opacity=".2" stroke="transparent"/>
<polygon points="40.5 -1185 40.5 -1206 179.5 -1206 179.5 -1185" fill="none" stroke="#000"/>
<text x="43.5" y="-1191.8" font-family="Times,serif" font-size="14">begin_date_month</text>
<polygon points="40.5 -1164 40.5 -1185 179.5 -1185 179.5 -1164" fill="#bbb" fill-opacity=".2" stroke="transparent"/>
<polygon points="40.5 -1164 40.5 -1185 179.5 -1185 179.5 -1164" fill="none" stroke="#000"/>
<text x="43.5" y="-1170.8" font-family="Times,serif" font-size="14">begin_date_day</text>
<polygon points="40.5 -1143 40.5 -1164 179.5 -1164 179.5 -1143" fill="#bbb" fill-opacity=".2" stroke="transparent"/>
<polygon points="40.5 -1143 40.5 -1164 179.5 -1164 179.5 -1143" fill="none" stroke="#000"/>
<text x="43.5" y="-1149.8" font-family="Times,serif" font-size="14">end_date_year</text>
<polygon points="40.5 -1122 40.5 -1143 179.5 -1143 179.5 -1122" fill="#bbb" fill-opacity=".2" stroke="transparent"/>
<polygon points="40.5 -1122 40.5 -1143 179.5 -1143 179.5 -1122" fill="none" stroke="#000"/>
<text x="43.5" y="-1128.8" font-family="Times,serif" font-size="14">end_date_month</text>
<polygon points="40.5 -1101 40.5 -1122 179.5 -1122 179.5 -1101" fill="#bbb" fill-opacity=".2" stroke="transparent"/>
<polygon points="40.5 -1101 40.5 -1122 179.5 -1122 179.5 -1101" fill="none" stroke="#000"/>
<text x="43.5" y="-1107.8" font-family="Times,serif" font-size="14">end_date_day</text>
<polygon points="40.5 -1080 40.5 -1101 179.5 -1101 179.5 -1080" fill="#bbb" fill-opacity=".2" stroke="transparent"/>
<polygon points="40.5 -1080 40.5 -1101 179.5 -1101 179.5 -1080" fill="none" stroke="#000"/>
<text x="43.5" y="-1086.8" font-family="Times,serif" font-size="14">primary_for_locale</text>
<polygon points="40.5 -1059 40.5 -1080 179.5 -1080 179.5 -1059" fill="#bbb" fill-opacity=".2" stroke="transparent"/>
<polygon points="40.5 -1059 40.5 -1080 179.5 -1080 179.5 -1059" fill="none" stroke="#000"/>
<text x="43.5" y="-1065.8" font-family="Times,serif" font-size="14">ended</text>
</g>
<!-- musicbrainz.artist_alias&#45;&gt;musicbrainz.artist -->
<g class="edge">
<title>musicbrainz.artist_alias:artist-&gt;musicbrainz.artist:id</title>
<path d="m180.5-1364c19.801 0 31.922 38.139 40.494 105.24 20.558 160.92 16.317 456.24 16.922 558.94 0.087 14.78 6.6388 22.314 12.494 27.726" fill="none" stroke="#000" sodipodi:nodetypes="cssc"/>
<polygon points="252.17 -675.14 260 -668 249.43 -668.7" stroke="#000"/>
</g>
<!-- musicbrainz.artist_alias_type -->
<g class="node">
<title>musicbrainz.artist_alias_type</title>
<polygon points="255 -1269 255 -1294 403 -1294 403 -1269" fill="#bbb" fill-opacity=".46667" stroke="transparent"/>
<polygon points="255 -1269 255 -1294 403 -1294 403 -1269" fill="none" stroke="#000"/>
<text x="258" y="-1277.4" font-family="Times,serif" font-size="17">artist_alias_type</text>
<polygon points="255 -1248 255 -1269 403 -1269 403 -1248" fill="#eee" fill-opacity=".46667" stroke="transparent"/>
<polygon points="255 -1248 255 -1269 403 -1269 403 -1248" fill="none" stroke="#000"/>
<text x="258" y="-1255.8" font-family="Times,serif" font-size="14" text-decoration="underline">id</text>
<polygon points="255 -1227 255 -1248 403 -1248 403 -1227" fill="#bbb" fill-opacity=".2" stroke="transparent"/>
<polygon points="255 -1227 255 -1248 403 -1248 403 -1227" fill="none" stroke="#000"/>
<text x="258" y="-1233.8" font-family="Times,serif" font-size="14">name</text>
<polygon points="255 -1206 255 -1227 403 -1227 403 -1206" fill="#eee" fill-opacity=".33333" stroke="transparent"/>
<polygon points="255 -1206 255 -1227 403 -1227 403 -1206" fill="none" stroke="#000"/>
<text x="258" y="-1212.8" font-family="Times,serif" font-size="14">parent</text>
<polygon points="255 -1185 255 -1206 403 -1206 403 -1185" fill="#bbb" fill-opacity=".2" stroke="transparent"/>
<polygon points="255 -1185 255 -1206 403 -1206 403 -1185" fill="none" stroke="#000"/>
<text x="258" y="-1191.8" font-family="Times,serif" font-size="14">child_order</text>
<polygon points="255 -1164 255 -1185 403 -1185 403 -1164" fill="#bbb" fill-opacity=".2" stroke="transparent"/>
<polygon points="255 -1164 255 -1185 403 -1185 403 -1164" fill="none" stroke="#000"/>
<text x="258" y="-1170.8" font-family="Times,serif" font-size="14">description</text>
<polygon points="255 -1143 255 -1164 403 -1164 403 -1143" fill="#bbb" fill-opacity=".2" stroke="transparent"/>
<polygon points="255 -1143 255 -1164 403 -1164 403 -1143" fill="none" stroke="#000"/>
<text x="258" y="-1149.8" font-family="Times,serif" font-size="14">gid</text>
</g>
<!-- musicbrainz.artist_alias&#45;&gt;musicbrainz.artist_alias_type -->
<g class="edge">
<title>musicbrainz.artist_alias:type-&gt;musicbrainz.artist_alias_type:id</title>
<path d="m180.5-1259h64.46" fill="none" stroke="#000"/>
<polygon points="245 -1262.5 255 -1259 245 -1255.5" stroke="#000"/>
</g>
<!-- musicbrainz.artist_annotation -->
<g class="node">
<title>musicbrainz.artist_annotation</title>
<polygon points="31.5 -1480 31.5 -1505 187.5 -1505 187.5 -1480" fill="#bbb" fill-opacity=".46667" stroke="transparent"/>
<polygon points="31.5 -1480 31.5 -1505 187.5 -1505 187.5 -1480" fill="none" stroke="#000"/>
<text x="34.5" y="-1488.4" font-family="Times,serif" font-size="17">artist_annotation</text>
<polygon points="31.5 -1459 31.5 -1480 187.5 -1480 187.5 -1459" fill="#eee" fill-opacity=".46667" stroke="transparent"/>
<polygon points="31.5 -1459 31.5 -1480 187.5 -1480 187.5 -1459" fill="none" stroke="#000"/>
<text x="34.5" y="-1466.8" font-family="Times,serif" font-size="14" text-decoration="underline">artist</text>
<polygon points="31.5 -1438 31.5 -1459 187.5 -1459 187.5 -1438" fill="#eee" fill-opacity=".46667" stroke="transparent"/>
<polygon points="31.5 -1438 31.5 -1459 187.5 -1459 187.5 -1438" fill="none" stroke="#000"/>
<text x="34.5" y="-1445.8" font-family="Times,serif" font-size="14" text-decoration="underline">annotation</text>
</g>
<!-- musicbrainz.artist_annotation&#45;&gt;musicbrainz.annotation -->
<g class="edge">
<title>musicbrainz.artist_annotation:annotation-&gt;musicbrainz.annotation:id</title>
<path d="m188.5-1448h79.46" fill="none" stroke="#000"/>
<polygon points="268 -1451.5 278 -1448 268 -1444.5" stroke="#000"/>
</g>
<!-- musicbrainz.artist_annotation&#45;&gt;musicbrainz.artist -->
<g class="edge">
<title>musicbrainz.artist_annotation:artist-&gt;musicbrainz.artist:id</title>
<path d="m188.5-1469c22 0 36.42 0.7067 44.15 21.307 12.962 34.576 9.5696 604.75 10.91 747.92 0.22976 24.542 14.764 33.323 9.36 24.145" fill="none" stroke="#000" sodipodi:nodetypes="ccsc"/>
<polygon points="255.77 -677.71 260 -668 250.63 -672.95" stroke="#000"/>
</g>
<!-- musicbrainz.artist_gid_redirect -->
<g class="node">
<title>musicbrainz.artist_gid_redirect</title>
<polygon points="26.5 -446 26.5 -471 192.5 -471 192.5 -446" fill="#bbb" fill-opacity=".46667" stroke="transparent"/>
<polygon points="26.5 -446 26.5 -471 192.5 -471 192.5 -446" fill="none" stroke="#000"/>
<text x="29.5" y="-454.4" font-family="Times,serif" font-size="17">artist_gid_redirect</text>
<polygon points="26.5 -425 26.5 -446 192.5 -446 192.5 -425" fill="#eee" fill-opacity=".46667" stroke="transparent"/>
<polygon points="26.5 -425 26.5 -446 192.5 -446 192.5 -425" fill="none" stroke="#000"/>
<text x="29.5" y="-432.8" font-family="Times,serif" font-size="14" text-decoration="underline">gid</text>
<polygon points="26.5 -404 26.5 -425 192.5 -425 192.5 -404" fill="#eee" fill-opacity=".33333" stroke="transparent"/>
<polygon points="26.5 -404 26.5 -425 192.5 -425 192.5 -404" fill="none" stroke="#000"/>
<text x="29.5" y="-410.8" font-family="Times,serif" font-size="14">new_id</text>
<polygon points="26.5 -383 26.5 -404 192.5 -404 192.5 -383" fill="#bbb" fill-opacity=".2" stroke="transparent"/>
<polygon points="26.5 -383 26.5 -404 192.5 -404 192.5 -383" fill="none" stroke="#000"/>
<text x="29.5" y="-389.8" font-family="Times,serif" font-size="14">created</text>
</g>
<!-- musicbrainz.artist_gid_redirect&#45;&gt;musicbrainz.artist -->
<g class="edge">
<title>musicbrainz.artist_gid_redirect:new_id-&gt;musicbrainz.artist:id</title>
<path d="m193.5-414c54.698 0 4.761-254.06 56.778-253.61" fill="none" stroke="#000" stroke-width="1.0049" sodipodi:nodetypes="cc"/>
<polygon points="249.42 -668.54 260 -668 251.39 -661.83" stroke="#000"/>
</g>
<!-- musicbrainz.artist_ipi -->
<g class="node">
<title>musicbrainz.artist_ipi</title>
<polygon points="56.5 -339 56.5 -364 162.5 -364 162.5 -339" fill="#bbb" fill-opacity=".46667" stroke="transparent"/>
<polygon points="56.5 -339 56.5 -364 162.5 -364 162.5 -339" fill="none" stroke="#000"/>
<text x="71" y="-347.4" font-family="Times,serif" font-size="17">artist_ipi</text>
<polygon points="56.5 -318 56.5 -339 162.5 -339 162.5 -318" fill="#eee" fill-opacity=".46667" stroke="transparent"/>
<polygon points="56.5 -318 56.5 -339 162.5 -339 162.5 -318" fill="none" stroke="#000"/>
<text x="59.5" y="-325.8" font-family="Times,serif" font-size="14" text-decoration="underline">artist</text>
<polygon points="56.5 -297 56.5 -318 162.5 -318 162.5 -297" fill="#eee" fill-opacity=".46667" stroke="transparent"/>
<polygon points="56.5 -297 56.5 -318 162.5 -318 162.5 -297" fill="none" stroke="#000"/>
<text x="59.5" y="-304.8" font-family="Times,serif" font-size="14" text-decoration="underline">ipi</text>
<polygon points="56.5 -276 56.5 -297 162.5 -297 162.5 -276" fill="#bbb" fill-opacity=".2" stroke="transparent"/>
<polygon points="56.5 -276 56.5 -297 162.5 -297 162.5 -276" fill="none" stroke="#000"/>
<text x="59.5" y="-282.8" font-family="Times,serif" font-size="14">edits_pending</text>
<polygon points="56.5 -255 56.5 -276 162.5 -276 162.5 -255" fill="#bbb" fill-opacity=".2" stroke="transparent"/>
<polygon points="56.5 -255 56.5 -276 162.5 -276 162.5 -255" fill="none" stroke="#000"/>
<text x="59.5" y="-261.8" font-family="Times,serif" font-size="14">created</text>
</g>
<!-- musicbrainz.artist_ipi&#45;&gt;musicbrainz.artist -->
<g class="edge">
<title>musicbrainz.artist_ipi:artist-&gt;musicbrainz.artist:id</title>
<path d="m163.5-329c31.76 0 47.787-14.212 55.5-45.041 18.59-75.815-11.051-282.51 30.94-292.07" fill="none" stroke="#000" stroke-width="1.0005" sodipodi:nodetypes="ccc"/>
<polygon points="249.48 -669.28 260 -668 250.98 -662.44" stroke="#000"/>
</g>
<!-- musicbrainz.artist_isni -->
<g class="node">
<title>musicbrainz.artist_isni</title>
<polygon points="56.5 -212 56.5 -237 162.5 -237 162.5 -212" fill="#bbb" fill-opacity=".46667" stroke="transparent"/>
<polygon points="56.5 -212 56.5 -237 162.5 -237 162.5 -212" fill="none" stroke="#000"/>
<text x="66.5" y="-220.4" font-family="Times,serif" font-size="17">artist_isni</text>
<polygon points="56.5 -191 56.5 -212 162.5 -212 162.5 -191" fill="#eee" fill-opacity=".46667" stroke="transparent"/>
<polygon points="56.5 -191 56.5 -212 162.5 -212 162.5 -191" fill="none" stroke="#000"/>
<text x="59.5" y="-198.8" font-family="Times,serif" font-size="14" text-decoration="underline">artist</text>
<polygon points="56.5 -170 56.5 -191 162.5 -191 162.5 -170" fill="#eee" fill-opacity=".46667" stroke="transparent"/>
<polygon points="56.5 -170 56.5 -191 162.5 -191 162.5 -170" fill="none" stroke="#000"/>
<text x="59.5" y="-177.8" font-family="Times,serif" font-size="14" text-decoration="underline">isni</text>
<polygon points="56.5 -149 56.5 -170 162.5 -170 162.5 -149" fill="#bbb" fill-opacity=".2" stroke="transparent"/>
<polygon points="56.5 -149 56.5 -170 162.5 -170 162.5 -149" fill="none" stroke="#000"/>
<text x="59.5" y="-155.8" font-family="Times,serif" font-size="14">edits_pending</text>
<polygon points="56.5 -128 56.5 -149 162.5 -149 162.5 -128" fill="#bbb" fill-opacity=".2" stroke="transparent"/>
<polygon points="56.5 -128 56.5 -149 162.5 -149 162.5 -128" fill="none" stroke="#000"/>
<text x="59.5" y="-134.8" font-family="Times,serif" font-size="14">created</text>
</g>
<!-- musicbrainz.artist_isni&#45;&gt;musicbrainz.artist -->
<g class="edge" transform="matrix(1 0 0 .99934 -.0009278 -.13319)">
<title>musicbrainz.artist_isni:artist-&gt;musicbrainz.artist:id</title>
<path d="m163.5-202c31.76 0 43.109-15.823 55.5-45.18 28.121-65.932-11.916-415.44 32.38-417.58" fill="none" stroke="#000" stroke-width="1.002" sodipodi:nodetypes="ccc"/>
<polygon points="260 -668 253.17 -659.9 249.61 -665.93" stroke="#000"/>
</g>
<!-- musicbrainz.artist_meta -->
<g class="node">
<title>musicbrainz.artist_meta</title>
<polygon points="57.5 -1017 57.5 -1042 161.5 -1042 161.5 -1017" fill="#bbb" fill-opacity=".46667" stroke="transparent"/>
<polygon points="57.5 -1017 57.5 -1042 161.5 -1042 161.5 -1017" fill="none" stroke="#000"/>
<text x="60.5" y="-1025.4" font-family="Times,serif" font-size="17">artist_meta</text>
<polygon points="57.5 -996 57.5 -1017 161.5 -1017 161.5 -996" fill="#eee" fill-opacity=".46667" stroke="transparent"/>
<polygon points="57.5 -996 57.5 -1017 161.5 -1017 161.5 -996" fill="none" stroke="#000"/>
<text x="60.5" y="-1003.8" font-family="Times,serif" font-size="14" text-decoration="underline">id</text>
<polygon points="57.5 -975 57.5 -996 161.5 -996 161.5 -975" fill="#bbb" fill-opacity=".2" stroke="transparent"/>
<polygon points="57.5 -975 57.5 -996 161.5 -996 161.5 -975" fill="none" stroke="#000"/>
<text x="60.5" y="-981.8" font-family="Times,serif" font-size="14">rating</text>
<polygon points="57.5 -954 57.5 -975 161.5 -975 161.5 -954" fill="#bbb" fill-opacity=".2" stroke="transparent"/>
<polygon points="57.5 -954 57.5 -975 161.5 -975 161.5 -954" fill="none" stroke="#000"/>
<text x="60.5" y="-960.8" font-family="Times,serif" font-size="14">rating_count</text>
</g>
<!-- musicbrainz.artist_meta&#45;&gt;musicbrainz.artist -->
<g class="edge">
<title>musicbrainz.artist_meta:id-&gt;musicbrainz.artist:id</title>
<path d="m162.5-1007c37.28 0 56.233 1.9041 59.872 39.005 3.7072 44.099 8.6584 203.14 9.7572 268.39 0.25059 14.881 9.0901 25.007 18.031 29.4" fill="none" stroke="#000" sodipodi:nodetypes="ccsc"/>
<polygon points="251 -673.59 260 -668 249.48 -666.76" stroke="#000"/>
</g>
<!-- musicbrainz.artist_release -->
<g class="node">
<title>musicbrainz.artist_release</title>
<polygon points="30.5 -910 30.5 -935 188.5 -935 188.5 -910" fill="#bbb" fill-opacity=".46667" stroke="transparent"/>
<polygon points="30.5 -910 30.5 -935 188.5 -935 188.5 -910" fill="none" stroke="#000"/>
<text x="33.5" y="-918.4" font-family="Times,serif" font-size="17">artist_release (m)</text>
<polygon points="30.5 -889 30.5 -910 188.5 -910 188.5 -889" fill="#bbb" fill-opacity=".2" stroke="transparent"/>
<polygon points="30.5 -889 30.5 -910 188.5 -910 188.5 -889" fill="none" stroke="#000"/>
<text x="33.5" y="-895.8" font-family="Times,serif" font-size="14">is_track_artist</text>
<polygon points="30.5 -868 30.5 -889 188.5 -889 188.5 -868" fill="#eee" fill-opacity=".33333" stroke="transparent"/>
<polygon points="30.5 -868 30.5 -889 188.5 -889 188.5 -868" fill="none" stroke="#000"/>
<text x="33.5" y="-874.8" font-family="Times,serif" font-size="14">artist</text>
<polygon points="30.5 -847 30.5 -868 188.5 -868 188.5 -847" fill="#bbb" fill-opacity=".2" stroke="transparent"/>
<polygon points="30.5 -847 30.5 -868 188.5 -868 188.5 -847" fill="none" stroke="#000"/>
<text x="33.5" y="-853.8" font-family="Times,serif" font-size="14">first_release_date</text>
<polygon points="30.5 -826 30.5 -847 188.5 -847 188.5 -826" fill="#bbb" fill-opacity=".2" stroke="transparent"/>
<polygon points="30.5 -826 30.5 -847 188.5 -847 188.5 -826" fill="none" stroke="#000"/>
<text x="33.5" y="-832.8" font-family="Times,serif" font-size="14">catalog_numbers</text>
<polygon points="30.5 -805 30.5 -826 188.5 -826 188.5 -805" fill="#bbb" fill-opacity=".2" stroke="transparent"/>
<polygon points="30.5 -805 30.5 -826 188.5 -826 188.5 -805" fill="none" stroke="#000"/>
<text x="33.5" y="-811.8" font-family="Times,serif" font-size="14">country_code</text>
<polygon points="30.5 -784 30.5 -805 188.5 -805 188.5 -784" fill="#bbb" fill-opacity=".2" stroke="transparent"/>
<polygon points="30.5 -784 30.5 -805 188.5 -805 188.5 -784" fill="none" stroke="#000"/>
<text x="33.5" y="-790.8" font-family="Times,serif" font-size="14">barcode</text>
<polygon points="30.5 -763 30.5 -784 188.5 -784 188.5 -763" fill="#bbb" fill-opacity=".2" stroke="transparent"/>
<polygon points="30.5 -763 30.5 -784 188.5 -784 188.5 -763" fill="none" stroke="#000"/>
<text x="33.5" y="-769.8" font-family="Times,serif" font-size="14">name</text>
<polygon points="30.5 -742 30.5 -763 188.5 -763 188.5 -742" fill="#bbb" fill-opacity=".2" stroke="transparent"/>
<polygon points="30.5 -742 30.5 -763 188.5 -763 188.5 -742" fill="none" stroke="#000"/>
<text x="33.5" y="-748.8" font-family="Times,serif" font-size="14">release</text>
</g>
<!-- musicbrainz.artist_release&#45;&gt;musicbrainz.artist -->
<g class="edge">
<title>musicbrainz.artist_release:artist-&gt;musicbrainz.artist:id</title>
<path d="m189.5-879c18.64 0 29.212 32.58 30.578 46.125 4.6044 45.648 5.4027 104.94 6.5227 144.22 0.21591 7.5714 14.049 18.118 23.299 19.804" fill="none" stroke="#000" sodipodi:nodetypes="cssc"/>
<polygon points="250.33 -672.33 260 -668 249.74 -665.35" stroke="#000"/>
</g>
<!-- musicbrainz.artist_release_group -->
<g class="node">
<title>musicbrainz.artist_release_group</title>
<polygon points="0.5 -699 0.5 -724 219.5 -724 219.5 -699" fill="#bbb" fill-opacity=".46667" stroke="transparent"/>
<polygon points="0.5 -699 0.5 -724 219.5 -724 219.5 -699" fill="none" stroke="#000"/>
<text x="3.5" y="-707.4" font-family="Times,serif" font-size="17">artist_release_group (m)</text>
<polygon points="0.5 -678 0.5 -699 219.5 -699 219.5 -678" fill="#bbb" fill-opacity=".2" stroke="transparent"/>
<polygon points="0.5 -678 0.5 -699 219.5 -699 219.5 -678" fill="none" stroke="#000"/>
<text x="3.5" y="-684.8" font-family="Times,serif" font-size="14">is_track_artist</text>
<polygon points="0.5 -657 0.5 -678 219.5 -678 219.5 -657" fill="#eee" fill-opacity=".33333" stroke="transparent"/>
<polygon points="0.5 -657 0.5 -678 219.5 -678 219.5 -657" fill="none" stroke="#000"/>
<text x="3.5" y="-663.8" font-family="Times,serif" font-size="14">artist</text>
<polygon points="0.5 -636 0.5 -657 219.5 -657 219.5 -636" fill="#bbb" fill-opacity=".2" stroke="transparent"/>
<polygon points="0.5 -636 0.5 -657 219.5 -657 219.5 -636" fill="none" stroke="#000"/>
<text x="3.5" y="-642.8" font-family="Times,serif" font-size="14">unofficial</text>
<polygon points="0.5 -615 0.5 -636 219.5 -636 219.5 -615" fill="#bbb" fill-opacity=".2" stroke="transparent"/>
<polygon points="0.5 -615 0.5 -636 219.5 -636 219.5 -615" fill="none" stroke="#000"/>
<text x="3.5" y="-621.8" font-family="Times,serif" font-size="14">primary_type_child_order</text>
<polygon points="0.5 -594 0.5 -615 219.5 -615 219.5 -594" fill="#bbb" fill-opacity=".2" stroke="transparent"/>
<polygon points="0.5 -594 0.5 -615 219.5 -615 219.5 -594" fill="none" stroke="#000"/>
<text x="3.5" y="-600.8" font-family="Times,serif" font-size="14">primary_type</text>
<polygon points="0.5 -573 0.5 -594 219.5 -594 219.5 -573" fill="#bbb" fill-opacity=".2" stroke="transparent"/>
<polygon points="0.5 -573 0.5 -594 219.5 -594 219.5 -573" fill="none" stroke="#000"/>
<text x="3.5" y="-579.8" font-family="Times,serif" font-size="14">secondary_type_child_orders</text>
<polygon points="0.5 -552 0.5 -573 219.5 -573 219.5 -552" fill="#bbb" fill-opacity=".2" stroke="transparent"/>
<polygon points="0.5 -552 0.5 -573 219.5 -573 219.5 -552" fill="none" stroke="#000"/>
<text x="3.5" y="-558.8" font-family="Times,serif" font-size="14">secondary_types</text>
<polygon points="0.5 -531 0.5 -552 219.5 -552 219.5 -531" fill="#bbb" fill-opacity=".2" stroke="transparent"/>
<polygon points="0.5 -531 0.5 -552 219.5 -552 219.5 -531" fill="none" stroke="#000"/>
<text x="3.5" y="-537.8" font-family="Times,serif" font-size="14">first_release_date</text>
<polygon points="0.5 -510 0.5 -531 219.5 -531 219.5 -510" fill="#bbb" fill-opacity=".2" stroke="transparent"/>
<polygon points="0.5 -510 0.5 -531 219.5 -531 219.5 -510" fill="none" stroke="#000"/>
<text x="3.5" y="-516.8" font-family="Times,serif" font-size="14">name</text>
<polygon points="0.5 -489 0.5 -510 219.5 -510 219.5 -489" fill="#bbb" fill-opacity=".2" stroke="transparent"/>
<polygon points="0.5 -489 0.5 -510 219.5 -510 219.5 -489" fill="none" stroke="#000"/>
<text x="3.5" y="-495.8" font-family="Times,serif" font-size="14">release_group</text>
</g>
<!-- musicbrainz.artist_release_group&#45;&gt;musicbrainz.artist -->
<g class="edge">
<title>musicbrainz.artist_release_group:artist-&gt;musicbrainz.artist:id</title>
<path d="m219-668h30.72" fill="none" stroke="#000"/>
<polygon points="250 -671.5 260 -668 250 -664.5" stroke="#000"/>
</g>
<!-- musicbrainz.artist_tag -->
<g class="node">
<title>musicbrainz.artist_tag</title>
<polygon points="60.5 -85 60.5 -110 158.5 -110 158.5 -85" fill="#bbb" fill-opacity=".46667" stroke="transparent"/>
<polygon points="60.5 -85 60.5 -110 158.5 -110 158.5 -85" fill="none" stroke="#000"/>
<text x="67.5" y="-93.4" font-family="Times,serif" font-size="17">artist_tag</text>
<polygon points="60.5 -64 60.5 -85 158.5 -85 158.5 -64" fill="#eee" fill-opacity=".46667" stroke="transparent"/>
<polygon points="60.5 -64 60.5 -85 158.5 -85 158.5 -64" fill="none" stroke="#000"/>
<text x="63.5" y="-71.8" font-family="Times,serif" font-size="14" text-decoration="underline">artist</text>
<polygon points="60.5 -43 60.5 -64 158.5 -64 158.5 -43" fill="#eee" fill-opacity=".46667" stroke="transparent"/>
<polygon points="60.5 -43 60.5 -64 158.5 -64 158.5 -43" fill="none" stroke="#000"/>
<text x="63.5" y="-50.8" font-family="Times,serif" font-size="14" text-decoration="underline">tag</text>
<polygon points="60.5 -22 60.5 -43 158.5 -43 158.5 -22" fill="#bbb" fill-opacity=".2" stroke="transparent"/>
<polygon points="60.5 -22 60.5 -43 158.5 -43 158.5 -22" fill="none" stroke="#000"/>
<text x="63.5" y="-28.8" font-family="Times,serif" font-size="14">count</text>
<polygon points="60.5 -1 60.5 -22 158.5 -22 158.5 -1" fill="#bbb" fill-opacity=".2" stroke="transparent"/>
<polygon points="60.5 -1 60.5 -22 158.5 -22 158.5 -1" fill="none" stroke="#000"/>
<text x="63.5" y="-7.8" font-family="Times,serif" font-size="14">last_updated</text>
</g>
<!-- musicbrainz.artist_tag&#45;&gt;musicbrainz.artist -->
<g class="edge">
<title>musicbrainz.artist_tag:artist-&gt;musicbrainz.artist:id</title>
<path d="m159.5-74.999c33.16 0 52.599-12.534 59.5-44.906 34.703-162.9-6.5854-539.99 31.94-542.58" fill="none" stroke="#000" stroke-width=".99896" sodipodi:nodetypes="ccc"/>
<polygon points="249.46 -666.89 260 -668 252.46 -660.56" stroke="#000"/>
</g>
<!-- musicbrainz.tag -->
<g class="node">
<title>musicbrainz.tag</title>
<polygon points="293 -63 293 -88 366 -88 366 -63" fill="#bbb" fill-opacity=".46667" stroke="transparent"/>
<polygon points="293 -63 293 -88 366 -88 366 -63" fill="none" stroke="#000"/>
<text x="315" y="-71.4" font-family="Times,serif" font-size="17">tag</text>
<polygon points="293 -42 293 -63 366 -63 366 -42" fill="#eee" fill-opacity=".46667" stroke="transparent"/>
<polygon points="293 -42 293 -63 366 -63 366 -42" fill="none" stroke="#000"/>
<text x="296" y="-49.8" font-family="Times,serif" font-size="14" text-decoration="underline">id</text>
<polygon points="293 -21 293 -42 366 -42 366 -21" fill="#bbb" fill-opacity=".2" stroke="transparent"/>
<polygon points="293 -21 293 -42 366 -42 366 -21" fill="none" stroke="#000"/>
<text x="296" y="-27.8" font-family="Times,serif" font-size="14">name</text>
<polygon points="293 0 293 -21 366 -21 366 0" fill="#bbb" fill-opacity=".2" stroke="transparent"/>
<polygon points="293 0 293 -21 366 -21 366 0" fill="none" stroke="#000"/>
<text x="296" y="-6.8" font-family="Times,serif" font-size="14">ref_count</text>
</g>
<!-- musicbrainz.artist_tag&#45;&gt;musicbrainz.tag -->
<g class="edge">
<title>musicbrainz.artist_tag:tag-&gt;musicbrainz.tag:id</title>
<path d="m159.5-53h122.27" fill="none" stroke="#000"/>
<polygon points="282 -56.5 292 -53 282 -49.5" stroke="#000"/>
</g>
</g>
</svg>
