<?xml version="1.0" encoding="UTF-8"?>
<!DOCTYPE svg  PUBLIC '-//W3C//DTD SVG 1.1//EN'  'http://www.w3.org/Graphics/SVG/1.1/DTD/svg11.dtd'>
<!-- Generated by graphviz version 2.43.0 (0)
 -->
<!-- Title: cdstub_details Pages: 1 -->
<svg width="260pt" height="349pt" viewBox="0 0 260 349" xmlns="http://www.w3.org/2000/svg" xmlns:xlink="http://www.w3.org/1999/xlink">
<g class="graph" transform="scale(1) translate(4 345)">
<title>cdstub_details</title>
<a xlink:title="Tables for CD stub">
<defs>
<linearGradient id="l_0" x1="13.42" x2="238.58" y1="-257.75" y2="-83.25" gradientUnits="userSpaceOnUse">
<stop stop-color="#cb75ab" offset="0"/>
<stop stop-color="#f0976c" offset="1"/>
</linearGradient>
</defs>
<polygon points="-4 4 -4 -345 256 -345 256 4" fill="url(#l_0)" stroke="transparent"/>
</a>
<!-- cdtoc_raw -->
<g class="node">
<title>cdtoc_raw</title>
<polygon points="0 -315.5 0 -340.5 106 -340.5 106 -315.5" fill="#bbb" fill-opacity=".46667" stroke="transparent"/>
<polygon points="0 -315.5 0 -340.5 106 -340.5 106 -315.5" fill="none" stroke="#000"/>
<text x="8" y="-323.9" font-family="Times,serif" font-size="17">cdtoc_raw</text>
<polygon points="0 -294.5 0 -315.5 106 -315.5 106 -294.5" fill="#eee" fill-opacity=".46667" stroke="transparent"/>
<polygon points="0 -294.5 0 -315.5 106 -315.5 106 -294.5" fill="none" stroke="#000"/>
<text x="3" y="-302.3" font-family="Times,serif" font-size="14" text-decoration="underline">id</text>
<polygon points="0 -273.5 0 -294.5 106 -294.5 106 -273.5" fill="#eee" fill-opacity=".33333" stroke="transparent"/>
<polygon points="0 -273.5 0 -294.5 106 -294.5 106 -273.5" fill="none" stroke="#000"/>
<text x="3" y="-280.3" font-family="Times,serif" font-size="14">release</text>
<polygon points="0 -252.5 0 -273.5 106 -273.5 106 -252.5" fill="#bbb" fill-opacity=".2" stroke="transparent"/>
<polygon points="0 -252.5 0 -273.5 106 -273.5 106 -252.5" fill="none" stroke="#000"/>
<text x="3" y="-259.3" font-family="Times,serif" font-size="14">discid</text>
<polygon points="0 -231.5 0 -252.5 106 -252.5 106 -231.5" fill="#bbb" fill-opacity=".2" stroke="transparent"/>
<polygon points="0 -231.5 0 -252.5 106 -252.5 106 -231.5" fill="none" stroke="#000"/>
<text x="3" y="-238.3" font-family="Times,serif" font-size="14">track_count</text>
<polygon points="0 -210.5 0 -231.5 106 -231.5 106 -210.5" fill="#bbb" fill-opacity=".2" stroke="transparent"/>
<polygon points="0 -210.5 0 -231.5 106 -231.5 106 -210.5" fill="none" stroke="#000"/>
<text x="3" y="-217.3" font-family="Times,serif" font-size="14">leadout_offset</text>
<polygon points="0 -189.5 0 -210.5 106 -210.5 106 -189.5" fill="#bbb" fill-opacity=".2" stroke="transparent"/>
<polygon points="0 -189.5 0 -210.5 106 -210.5 106 -189.5" fill="none" stroke="#000"/>
<text x="3" y="-196.3" font-family="Times,serif" font-size="14">track_offset</text>
</g>
<!-- release_raw -->
<g class="node">
<title>release_raw</title>
<polygon points="142 -209.5 142 -234.5 252 -234.5 252 -209.5" fill="#eee" fill-opacity=".73333" stroke="transparent"/>
<polygon points="142 -209.5 142 -234.5 252 -234.5 252 -209.5" fill="none" stroke="#000"/>
<text x="145" y="-217.9" font-family="Times,serif" font-size="17">release_raw</text>
<polygon points="142 -188.5 142 -209.5 252 -209.5 252 -188.5" fill="#eee" fill-opacity=".46667" stroke="transparent"/>
<polygon points="142 -188.5 142 -209.5 252 -209.5 252 -188.5" fill="none" stroke="#000"/>
<text x="145" y="-196.3" font-family="Times,serif" font-size="14" text-decoration="underline">id</text>
<polygon points="142 -167.5 142 -188.5 252 -188.5 252 -167.5" fill="#bbb" fill-opacity=".2" stroke="transparent"/>
<polygon points="142 -167.5 142 -188.5 252 -188.5 252 -167.5" fill="none" stroke="#000"/>
<text x="145" y="-174.3" font-family="Times,serif" font-size="14">title</text>
<polygon points="142 -146.5 142 -167.5 252 -167.5 252 -146.5" fill="#bbb" fill-opacity=".2" stroke="transparent"/>
<polygon points="142 -146.5 142 -167.5 252 -167.5 252 -146.5" fill="none" stroke="#000"/>
<text x="145" y="-153.3" font-family="Times,serif" font-size="14">artist</text>
<polygon points="142 -125.5 142 -146.5 252 -146.5 252 -125.5" fill="#bbb" fill-opacity=".2" stroke="transparent"/>
<polygon points="142 -125.5 142 -146.5 252 -146.5 252 -125.5" fill="none" stroke="#000"/>
<text x="145" y="-132.3" font-family="Times,serif" font-size="14">added</text>
<polygon points="142 -104.5 142 -125.5 252 -125.5 252 -104.5" fill="#bbb" fill-opacity=".2" stroke="transparent"/>
<polygon points="142 -104.5 142 -125.5 252 -125.5 252 -104.5" fill="none" stroke="#000"/>
<text x="145" y="-111.3" font-family="Times,serif" font-size="14">last_modified</text>
<polygon points="142 -83.5 142 -104.5 252 -104.5 252 -83.5" fill="#bbb" fill-opacity=".2" stroke="transparent"/>
<polygon points="142 -83.5 142 -104.5 252 -104.5 252 -83.5" fill="none" stroke="#000"/>
<text x="145" y="-90.3" font-family="Times,serif" font-size="14">lookup_count</text>
<polygon points="142 -62.5 142 -83.5 252 -83.5 252 -62.5" fill="#bbb" fill-opacity=".2" stroke="transparent"/>
<polygon points="142 -62.5 142 -83.5 252 -83.5 252 -62.5" fill="none" stroke="#000"/>
<text x="145" y="-69.3" font-family="Times,serif" font-size="14">modify_count</text>
<polygon points="142 -41.5 142 -62.5 252 -62.5 252 -41.5" fill="#bbb" fill-opacity=".2" stroke="transparent"/>
<polygon points="142 -41.5 142 -62.5 252 -62.5 252 -41.5" fill="none" stroke="#000"/>
<text x="145" y="-48.3" font-family="Times,serif" font-size="14">source</text>
<polygon points="142 -20.5 142 -41.5 252 -41.5 252 -20.5" fill="#bbb" fill-opacity=".2" stroke="transparent"/>
<polygon points="142 -20.5 142 -41.5 252 -41.5 252 -20.5" fill="none" stroke="#000"/>
<text x="145" y="-27.3" font-family="Times,serif" font-size="14">barcode</text>
<polygon points="142 0.5 142 -20.5 252 -20.5 252 0.5" fill="#bbb" fill-opacity=".2" stroke="transparent"/>
<polygon points="142 0.5 142 -20.5 252 -20.5 252 0.5" fill="none" stroke="#000"/>
<text x="145" y="-6.3" font-family="Times,serif" font-size="14">comment</text>
</g>
<!-- cdtoc_raw&#45;&gt;release_raw -->
<g class="edge">
<title>cdtoc_raw:release-&gt;release_raw:id</title>
<path d="m106-284.5c36.86 0 3.43 68.61 26.01 82.55" fill="none" stroke="#000"/>
<polygon points="133.12 -205.28 142 -199.5 131.45 -198.49" stroke="#000"/>
</g>
<!-- track_raw -->
<g class="node">
<title>track_raw</title>
<polygon points="6 -146.5 6 -171.5 100 -171.5 100 -146.5" fill="#bbb" fill-opacity=".46667" stroke="transparent"/>
<polygon points="6 -146.5 6 -171.5 100 -171.5 100 -146.5" fill="none" stroke="#000"/>
<text x="9" y="-154.9" font-family="Times,serif" font-size="17">track_raw</text>
<polygon points="6 -125.5 6 -146.5 100 -146.5 100 -125.5" fill="#eee" fill-opacity=".46667" stroke="transparent"/>
<polygon points="6 -125.5 6 -146.5 100 -146.5 100 -125.5" fill="none" stroke="#000"/>
<text x="9" y="-133.3" font-family="Times,serif" font-size="14" text-decoration="underline">id</text>
<polygon points="6 -104.5 6 -125.5 100 -125.5 100 -104.5" fill="#eee" fill-opacity=".33333" stroke="transparent"/>
<polygon points="6 -104.5 6 -125.5 100 -125.5 100 -104.5" fill="none" stroke="#000"/>
<text x="9" y="-111.3" font-family="Times,serif" font-size="14">release</text>
<polygon points="6 -83.5 6 -104.5 100 -104.5 100 -83.5" fill="#bbb" fill-opacity=".2" stroke="transparent"/>
<polygon points="6 -83.5 6 -104.5 100 -104.5 100 -83.5" fill="none" stroke="#000"/>
<text x="9" y="-90.3" font-family="Times,serif" font-size="14">title</text>
<polygon points="6 -62.5 6 -83.5 100 -83.5 100 -62.5" fill="#bbb" fill-opacity=".2" stroke="transparent"/>
<polygon points="6 -62.5 6 -83.5 100 -83.5 100 -62.5" fill="none" stroke="#000"/>
<text x="9" y="-69.3" font-family="Times,serif" font-size="14">artist</text>
<polygon points="6 -41.5 6 -62.5 100 -62.5 100 -41.5" fill="#bbb" fill-opacity=".2" stroke="transparent"/>
<polygon points="6 -41.5 6 -62.5 100 -62.5 100 -41.5" fill="none" stroke="#000"/>
<text x="9" y="-48.3" font-family="Times,serif" font-size="14">sequence</text>
</g>
<!-- track_raw&#45;&gt;release_raw -->
<g class="edge">
<title>track_raw:release-&gt;release_raw:id</title>
<path d="m101-115.5c37.49 0 6.88-68.39 31.07-81.75" fill="none" stroke="#000"/>
<polygon points="131.47 -200.71 142 -199.5 133.02 -193.88" stroke="#000"/>
</g>
</g>
</svg>
