<?xml version="1.0" encoding="UTF-8"?>
<!-- Generated by graphviz version 2.43.0 (0)
 -->
<!-- Title: cover_art_details Pages: 1 -->
<svg width="741pt" height="652pt" inkscape:version="1.2 (dc2aedaf03, 2022-05-15)" sodipodi:docname="cover_art_details.svg" version="1.1" viewBox="0 0 741 652" xmlns="http://www.w3.org/2000/svg" xmlns:inkscape="http://www.inkscape.org/namespaces/inkscape" xmlns:sodipodi="http://sodipodi.sourceforge.net/DTD/sodipodi-0.dtd" xmlns:xlink="http://www.w3.org/1999/xlink">
<sodipodi:namedview bordercolor="#666666" borderopacity="1.0" inkscape:current-layer="svg675" inkscape:cx="150.58613" inkscape:cy="396.47073" inkscape:deskcolor="#d1d1d1" inkscape:document-units="pt" inkscape:pagecheckerboard="0" inkscape:pageopacity="0.0" inkscape:showpageshadow="2" inkscape:window-height="1034" inkscape:window-maximized="1" inkscape:window-width="1920" inkscape:window-x="-4" inkscape:window-y="-4" inkscape:zoom="0.6873143" pagecolor="#ffffff" showgrid="false"/>
<g class="graph" transform="scale(1) translate(4 648)">
<title>cover_art_details</title>
<a xlink:title="Tables for cover art">
<defs>
<linearGradient id="l_0" x1="45.64" x2="687.36" y1="-485" y2="-159" gradientUnits="userSpaceOnUse">
<stop stop-color="#cb75ab" offset="0"/>
<stop stop-color="#f0976c" offset="1"/>
</linearGradient>
</defs>
<polygon points="-4 4 -4 -648 737 -648 737 4" fill="url(#l_0)" stroke="transparent"/>
</a>
<g class="cluster">
<title>cluster_cover_art_archive</title>
<a xlink:title="Tables for cover art">
<defs>
<linearGradient id="l_1" x1="36.4" x2="403.6" y1="-410.75" y2="-179.25" gradientUnits="userSpaceOnUse">
<stop stop-color="#35a8b3" offset="0"/>
<stop stop-color="#f0976c" offset="1"/>
</linearGradient>
</defs>
<polygon points="8 -63.5 8 -526.5 432 -526.5 432 -63.5" fill="url(#l_1)" stroke="#000"/>
</a>
</g>
<!-- art_type -->
<g class="node">
<title>art_type</title>
<polygon points="305 -197.5 305 -222.5 392 -222.5 392 -197.5" fill="#bbb" fill-opacity=".46667" stroke="transparent"/>
<polygon points="305 -197.5 305 -222.5 392 -222.5 392 -197.5" fill="none" stroke="#000"/>
<text x="312.5" y="-205.9" font-family="Times,serif" font-size="17">art_type</text>
<polygon points="305 -176.5 305 -197.5 392 -197.5 392 -176.5" fill="#eee" fill-opacity=".46667" stroke="transparent"/>
<polygon points="305 -176.5 305 -197.5 392 -197.5 392 -176.5" fill="none" stroke="#000"/>
<text x="308" y="-184.3" font-family="Times,serif" font-size="14" text-decoration="underline">id</text>
<polygon points="305 -155.5 305 -176.5 392 -176.5 392 -155.5" fill="#bbb" fill-opacity=".2" stroke="transparent"/>
<polygon points="305 -155.5 305 -176.5 392 -176.5 392 -155.5" fill="none" stroke="#000"/>
<text x="308" y="-162.3" font-family="Times,serif" font-size="14">name</text>
<polygon points="305 -134.5 305 -155.5 392 -155.5 392 -134.5" fill="#eee" fill-opacity=".33333" stroke="transparent"/>
<polygon points="305 -134.5 305 -155.5 392 -155.5 392 -134.5" fill="none" stroke="#000"/>
<text x="308" y="-141.3" font-family="Times,serif" font-size="14">parent</text>
<polygon points="305 -113.5 305 -134.5 392 -134.5 392 -113.5" fill="#bbb" fill-opacity=".2" stroke="transparent"/>
<polygon points="305 -113.5 305 -134.5 392 -134.5 392 -113.5" fill="none" stroke="#000"/>
<text x="308" y="-120.3" font-family="Times,serif" font-size="14">child_order</text>
<polygon points="305 -92.5 305 -113.5 392 -113.5 392 -92.5" fill="#bbb" fill-opacity=".2" stroke="transparent"/>
<polygon points="305 -92.5 305 -113.5 392 -113.5 392 -92.5" fill="none" stroke="#000"/>
<text x="308" y="-99.3" font-family="Times,serif" font-size="14">description</text>
<polygon points="305 -71.5 305 -92.5 392 -92.5 392 -71.5" fill="#bbb" fill-opacity=".2" stroke="transparent"/>
<polygon points="305 -71.5 305 -92.5 392 -92.5 392 -71.5" fill="none" stroke="#000"/>
<text x="308" y="-78.3" font-family="Times,serif" font-size="14">gid</text>
</g>
<!-- cover_art -->
<g class="node">
<title>cover_art</title>
<polygon points="272 -492.5 272 -517.5 424 -517.5 424 -492.5" fill="#bbb" fill-opacity=".46667" stroke="transparent"/>
<polygon points="272 -492.5 272 -517.5 424 -517.5 424 -492.5" fill="none" stroke="#000"/>
<text x="307" y="-500.9" font-family="Times,serif" font-size="17">cover_art</text>
<polygon points="272 -471.5 272 -492.5 424 -492.5 424 -471.5" fill="#eee" fill-opacity=".46667" stroke="transparent"/>
<polygon points="272 -471.5 272 -492.5 424 -492.5 424 -471.5" fill="none" stroke="#000"/>
<text x="275" y="-479.3" font-family="Times,serif" font-size="14" text-decoration="underline">id</text>
<polygon points="272 -450.5 272 -471.5 424 -471.5 424 -450.5" fill="#eee" fill-opacity=".33333" stroke="transparent"/>
<polygon points="272 -450.5 272 -471.5 424 -471.5 424 -450.5" fill="none" stroke="#000"/>
<text x="275" y="-457.3" font-family="Times,serif" font-size="14">release</text>
<polygon points="272 -429.5 272 -450.5 424 -450.5 424 -429.5" fill="#bbb" fill-opacity=".2" stroke="transparent"/>
<polygon points="272 -429.5 272 -450.5 424 -450.5 424 -429.5" fill="none" stroke="#000"/>
<text x="275" y="-436.3" font-family="Times,serif" font-size="14">comment</text>
<polygon points="272 -408.5 272 -429.5 424 -429.5 424 -408.5" fill="#eee" fill-opacity=".33333" stroke="transparent"/>
<polygon points="272 -408.5 272 -429.5 424 -429.5 424 -408.5" fill="none" stroke="#000"/>
<text x="275" y="-415.3" font-family="Times,serif" font-size="14">edit</text>
<polygon points="272 -387.5 272 -408.5 424 -408.5 424 -387.5" fill="#bbb" fill-opacity=".2" stroke="transparent"/>
<polygon points="272 -387.5 272 -408.5 424 -408.5 424 -387.5" fill="none" stroke="#000"/>
<text x="275" y="-394.3" font-family="Times,serif" font-size="14">ordering</text>
<polygon points="272 -366.5 272 -387.5 424 -387.5 424 -366.5" fill="#bbb" fill-opacity=".2" stroke="transparent"/>
<polygon points="272 -366.5 272 -387.5 424 -387.5 424 -366.5" fill="none" stroke="#000"/>
<text x="275" y="-373.3" font-family="Times,serif" font-size="14">date_uploaded</text>
<polygon points="272 -345.5 272 -366.5 424 -366.5 424 -345.5" fill="#bbb" fill-opacity=".2" stroke="transparent"/>
<polygon points="272 -345.5 272 -366.5 424 -366.5 424 -345.5" fill="none" stroke="#000"/>
<text x="275" y="-352.3" font-family="Times,serif" font-size="14">edits_pending</text>
<polygon points="272 -324.5 272 -345.5 424 -345.5 424 -324.5" fill="#bbb" fill-opacity=".2" stroke="transparent"/>
<polygon points="272 -324.5 272 -345.5 424 -345.5 424 -324.5" fill="none" stroke="#000"/>
<text x="275" y="-331.3" font-family="Times,serif" font-size="14">mime_type</text>
<polygon points="272 -303.5 272 -324.5 424 -324.5 424 -303.5" fill="#bbb" fill-opacity=".2" stroke="transparent"/>
<polygon points="272 -303.5 272 -324.5 424 -324.5 424 -303.5" fill="none" stroke="#000"/>
<text x="275" y="-310.3" font-family="Times,serif" font-size="14">filesize</text>
<polygon points="272 -282.5 272 -303.5 424 -303.5 424 -282.5" fill="#bbb" fill-opacity=".2" stroke="transparent"/>
<polygon points="272 -282.5 272 -303.5 424 -303.5 424 -282.5" fill="none" stroke="#000"/>
<text x="275" y="-289.3" font-family="Times,serif" font-size="14">thumb_250_filesize</text>
<polygon points="272 -261.5 272 -282.5 424 -282.5 424 -261.5" fill="#bbb" fill-opacity=".2" stroke="transparent"/>
<polygon points="272 -261.5 272 -282.5 424 -282.5 424 -261.5" fill="none" stroke="#000"/>
<text x="275" y="-268.3" font-family="Times,serif" font-size="14">thumb_500_filesize</text>
<polygon points="272 -240.5 272 -261.5 424 -261.5 424 -240.5" fill="#bbb" fill-opacity=".2" stroke="transparent"/>
<polygon points="272 -240.5 272 -261.5 424 -261.5 424 -240.5" fill="none" stroke="#000"/>
<text x="275" y="-247.3" font-family="Times,serif" font-size="14">thumb_1200_filesize</text>
</g>
<!-- edit -->
<g class="node">
<title>edit</title>
<polygon points="468.5 -618.5 468.5 -643.5 559.5 -643.5 559.5 -618.5" fill="#bbb" fill-opacity=".46667" stroke="transparent"/>
<polygon points="468.5 -618.5 468.5 -643.5 559.5 -643.5 559.5 -618.5" fill="none" stroke="#000"/>
<text x="497" y="-626.9" font-family="Times,serif" font-size="17">edit</text>
<polygon points="468.5 -597.5 468.5 -618.5 559.5 -618.5 559.5 -597.5" fill="#eee" fill-opacity=".46667" stroke="transparent"/>
<polygon points="468.5 -597.5 468.5 -618.5 559.5 -618.5 559.5 -597.5" fill="none" stroke="#000"/>
<text x="471.5" y="-605.3" font-family="Times,serif" font-size="14" text-decoration="underline">id</text>
<polygon points="468.5 -576.5 468.5 -597.5 559.5 -597.5 559.5 -576.5" fill="#bbb" fill-opacity=".2" stroke="transparent"/>
<polygon points="468.5 -576.5 468.5 -597.5 559.5 -597.5 559.5 -576.5" fill="none" stroke="#000"/>
<text x="471.5" y="-583.3" font-family="Times,serif" font-size="14">editor</text>
<polygon points="468.5 -555.5 468.5 -576.5 559.5 -576.5 559.5 -555.5" fill="#bbb" fill-opacity=".2" stroke="transparent"/>
<polygon points="468.5 -555.5 468.5 -576.5 559.5 -576.5 559.5 -555.5" fill="none" stroke="#000"/>
<text x="471.5" y="-562.3" font-family="Times,serif" font-size="14">type</text>
<polygon points="468.5 -534.5 468.5 -555.5 559.5 -555.5 559.5 -534.5" fill="#bbb" fill-opacity=".2" stroke="transparent"/>
<polygon points="468.5 -534.5 468.5 -555.5 559.5 -555.5 559.5 -534.5" fill="none" stroke="#000"/>
<text x="471.5" y="-541.3" font-family="Times,serif" font-size="14">status</text>
<polygon points="468.5 -513.5 468.5 -534.5 559.5 -534.5 559.5 -513.5" fill="#bbb" fill-opacity=".2" stroke="transparent"/>
<polygon points="468.5 -513.5 468.5 -534.5 559.5 -534.5 559.5 -513.5" fill="none" stroke="#000"/>
<text x="471.5" y="-520.3" font-family="Times,serif" font-size="14">autoedit</text>
<polygon points="468.5 -492.5 468.5 -513.5 559.5 -513.5 559.5 -492.5" fill="#bbb" fill-opacity=".2" stroke="transparent"/>
<polygon points="468.5 -492.5 468.5 -513.5 559.5 -513.5 559.5 -492.5" fill="none" stroke="#000"/>
<text x="471.5" y="-499.3" font-family="Times,serif" font-size="14">open_time</text>
<polygon points="468.5 -471.5 468.5 -492.5 559.5 -492.5 559.5 -471.5" fill="#bbb" fill-opacity=".2" stroke="transparent"/>
<polygon points="468.5 -471.5 468.5 -492.5 559.5 -492.5 559.5 -471.5" fill="none" stroke="#000"/>
<text x="471.5" y="-478.3" font-family="Times,serif" font-size="14">close_time</text>
<polygon points="468.5 -450.5 468.5 -471.5 559.5 -471.5 559.5 -450.5" fill="#bbb" fill-opacity=".2" stroke="transparent"/>
<polygon points="468.5 -450.5 468.5 -471.5 559.5 -471.5 559.5 -450.5" fill="none" stroke="#000"/>
<text x="471.5" y="-457.3" font-family="Times,serif" font-size="14">expire_time</text>
<polygon points="468.5 -429.5 468.5 -450.5 559.5 -450.5 559.5 -429.5" fill="#bbb" fill-opacity=".2" stroke="transparent"/>
<polygon points="468.5 -429.5 468.5 -450.5 559.5 -450.5 559.5 -429.5" fill="none" stroke="#000"/>
<text x="471.5" y="-436.3" font-family="Times,serif" font-size="14">language</text>
<polygon points="468.5 -408.5 468.5 -429.5 559.5 -429.5 559.5 -408.5" fill="#bbb" fill-opacity=".2" stroke="transparent"/>
<polygon points="468.5 -408.5 468.5 -429.5 559.5 -429.5 559.5 -408.5" fill="none" stroke="#000"/>
<text x="471.5" y="-415.3" font-family="Times,serif" font-size="14">quality</text>
</g>
<!-- cover_art&#45;&gt;edit -->
<g class="edge">
<title>cover_art:edit-&gt;edit:id</title>
<path d="m425-419.5c82.23 0-32.38-172.4 32.16-187.89" fill="none" stroke="#000"/>
<polygon points="457.18 -610.91 467.5 -608.5 457.93 -603.95" stroke="#000"/>
</g>
<!-- release -->
<g class="node">
<title>release</title>
<polygon points="460.5 -365.5 460.5 -390.5 567.5 -390.5 567.5 -365.5" fill="#eee" fill-opacity=".73333" stroke="transparent"/>
<polygon points="460.5 -365.5 460.5 -390.5 567.5 -390.5 567.5 -365.5" fill="none" stroke="#000"/>
<text x="482.5" y="-373.9" font-family="Times,serif" font-size="17">release</text>
<polygon points="460.5 -344.5 460.5 -365.5 567.5 -365.5 567.5 -344.5" fill="#eee" fill-opacity=".46667" stroke="transparent"/>
<polygon points="460.5 -344.5 460.5 -365.5 567.5 -365.5 567.5 -344.5" fill="none" stroke="#000"/>
<text x="463.5" y="-352.3" font-family="Times,serif" font-size="14" text-decoration="underline">id</text>
<polygon points="460.5 -323.5 460.5 -344.5 567.5 -344.5 567.5 -323.5" fill="#bbb" fill-opacity=".2" stroke="transparent"/>
<polygon points="460.5 -323.5 460.5 -344.5 567.5 -344.5 567.5 -323.5" fill="none" stroke="#000"/>
<text x="463.5" y="-330.3" font-family="Times,serif" font-size="14">gid</text>
<polygon points="460.5 -302.5 460.5 -323.5 567.5 -323.5 567.5 -302.5" fill="#bbb" fill-opacity=".2" stroke="transparent"/>
<polygon points="460.5 -302.5 460.5 -323.5 567.5 -323.5 567.5 -302.5" fill="none" stroke="#000"/>
<text x="463.5" y="-309.3" font-family="Times,serif" font-size="14">name</text>
<polygon points="460.5 -281.5 460.5 -302.5 567.5 -302.5 567.5 -281.5" fill="#bbb" fill-opacity=".2" stroke="transparent"/>
<polygon points="460.5 -281.5 460.5 -302.5 567.5 -302.5 567.5 -281.5" fill="none" stroke="#000"/>
<text x="463.5" y="-288.3" font-family="Times,serif" font-size="14">artist_credit</text>
<polygon points="460.5 -260.5 460.5 -281.5 567.5 -281.5 567.5 -260.5" fill="#eee" fill-opacity=".33333" stroke="transparent"/>
<polygon points="460.5 -260.5 460.5 -281.5 567.5 -281.5 567.5 -260.5" fill="none" stroke="#000"/>
<text x="463.5" y="-267.3" font-family="Times,serif" font-size="14">release_group</text>
<polygon points="460.5 -239.5 460.5 -260.5 567.5 -260.5 567.5 -239.5" fill="#bbb" fill-opacity=".2" stroke="transparent"/>
<polygon points="460.5 -239.5 460.5 -260.5 567.5 -260.5 567.5 -239.5" fill="none" stroke="#000"/>
<text x="463.5" y="-246.3" font-family="Times,serif" font-size="14">status</text>
<polygon points="460.5 -218.5 460.5 -239.5 567.5 -239.5 567.5 -218.5" fill="#bbb" fill-opacity=".2" stroke="transparent"/>
<polygon points="460.5 -218.5 460.5 -239.5 567.5 -239.5 567.5 -218.5" fill="none" stroke="#000"/>
<text x="463.5" y="-225.3" font-family="Times,serif" font-size="14">packaging</text>
<polygon points="460.5 -197.5 460.5 -218.5 567.5 -218.5 567.5 -197.5" fill="#bbb" fill-opacity=".2" stroke="transparent"/>
<polygon points="460.5 -197.5 460.5 -218.5 567.5 -218.5 567.5 -197.5" fill="none" stroke="#000"/>
<text x="463.5" y="-204.3" font-family="Times,serif" font-size="14">language</text>
<polygon points="460.5 -176.5 460.5 -197.5 567.5 -197.5 567.5 -176.5" fill="#bbb" fill-opacity=".2" stroke="transparent"/>
<polygon points="460.5 -176.5 460.5 -197.5 567.5 -197.5 567.5 -176.5" fill="none" stroke="#000"/>
<text x="463.5" y="-183.3" font-family="Times,serif" font-size="14">script</text>
<polygon points="460.5 -155.5 460.5 -176.5 567.5 -176.5 567.5 -155.5" fill="#bbb" fill-opacity=".2" stroke="transparent"/>
<polygon points="460.5 -155.5 460.5 -176.5 567.5 -176.5 567.5 -155.5" fill="none" stroke="#000"/>
<text x="463.5" y="-162.3" font-family="Times,serif" font-size="14">barcode</text>
<polygon points="460.5 -134.5 460.5 -155.5 567.5 -155.5 567.5 -134.5" fill="#bbb" fill-opacity=".2" stroke="transparent"/>
<polygon points="460.5 -134.5 460.5 -155.5 567.5 -155.5 567.5 -134.5" fill="none" stroke="#000"/>
<text x="463.5" y="-141.3" font-family="Times,serif" font-size="14">comment</text>
<polygon points="460.5 -113.5 460.5 -134.5 567.5 -134.5 567.5 -113.5" fill="#bbb" fill-opacity=".2" stroke="transparent"/>
<polygon points="460.5 -113.5 460.5 -134.5 567.5 -134.5 567.5 -113.5" fill="none" stroke="#000"/>
<text x="463.5" y="-120.3" font-family="Times,serif" font-size="14">edits_pending</text>
<polygon points="460.5 -92.5 460.5 -113.5 567.5 -113.5 567.5 -92.5" fill="#bbb" fill-opacity=".2" stroke="transparent"/>
<polygon points="460.5 -92.5 460.5 -113.5 567.5 -113.5 567.5 -92.5" fill="none" stroke="#000"/>
<text x="463.5" y="-99.3" font-family="Times,serif" font-size="14">quality</text>
<polygon points="460.5 -71.5 460.5 -92.5 567.5 -92.5 567.5 -71.5" fill="#bbb" fill-opacity=".2" stroke="transparent"/>
<polygon points="460.5 -71.5 460.5 -92.5 567.5 -92.5 567.5 -71.5" fill="none" stroke="#000"/>
<text x="463.5" y="-78.3" font-family="Times,serif" font-size="14">last_updated</text>
</g>
<!-- cover_art&#45;&gt;release -->
<g class="edge">
<title>cover_art:release-&gt;release:id</title>
<path d="m425-461.5c45.54 0-4.84 89.32 24.96 103.98" fill="none" stroke="#000"/>
<polygon points="450.89 -360.91 460 -355.5 449.51 -354.04" stroke="#000"/>
</g>
<!-- cover_art_type -->
<g class="node">
<title>cover_art_type</title>
<polygon points="59 -355.5 59 -380.5 193 -380.5 193 -355.5" fill="#bbb" fill-opacity=".46667" stroke="transparent"/>
<polygon points="59 -355.5 59 -380.5 193 -380.5 193 -355.5" fill="none" stroke="#000"/>
<text x="62" y="-363.9" font-family="Times,serif" font-size="17">cover_art_type</text>
<polygon points="59 -334.5 59 -355.5 193 -355.5 193 -334.5" fill="#eee" fill-opacity=".46667" stroke="transparent"/>
<polygon points="59 -334.5 59 -355.5 193 -355.5 193 -334.5" fill="none" stroke="#000"/>
<text x="62" y="-342.3" font-family="Times,serif" font-size="14" text-decoration="underline">id</text>
<polygon points="59 -313.5 59 -334.5 193 -334.5 193 -313.5" fill="#eee" fill-opacity=".46667" stroke="transparent"/>
<polygon points="59 -313.5 59 -334.5 193 -334.5 193 -313.5" fill="none" stroke="#000"/>
<text x="62" y="-321.3" font-family="Times,serif" font-size="14" text-decoration="underline">type_id</text>
</g>
<!-- cover_art_type&#45;&gt;art_type -->
<g class="edge">
<title>cover_art_type:type_id-&gt;art_type:id</title>
<path d="m194-323.5c74.1 0 36.25 123.55 99.85 135.13" fill="none" stroke="#000"/>
<polygon points="294.33 -191.84 304 -187.5 293.74 -184.87" stroke="#000"/>
</g>
<!-- cover_art_type&#45;&gt;cover_art -->
<g class="edge">
<title>cover_art_type:id-&gt;cover_art:id</title>
<path d="m194-344.5c66.74 0 13.81-123.83 67.93-136.89" fill="none" stroke="#000"/>
<polygon points="261.68 -484.88 272 -482.5 262.44 -477.92" stroke="#000"/>
</g>
<!-- release_group -->
<g class="node">
<title>release_group</title>
<polygon points="603 -167.5 603 -192.5 733 -192.5 733 -167.5" fill="#eee" fill-opacity=".73333" stroke="transparent"/>
<polygon points="603 -167.5 603 -192.5 733 -192.5 733 -167.5" fill="none" stroke="#000"/>
<text x="606" y="-175.9" font-family="Times,serif" font-size="17">release_group</text>
<polygon points="603 -146.5 603 -167.5 733 -167.5 733 -146.5" fill="#eee" fill-opacity=".46667" stroke="transparent"/>
<polygon points="603 -146.5 603 -167.5 733 -167.5 733 -146.5" fill="none" stroke="#000"/>
<text x="606" y="-154.3" font-family="Times,serif" font-size="14" text-decoration="underline">id</text>
<polygon points="603 -125.5 603 -146.5 733 -146.5 733 -125.5" fill="#bbb" fill-opacity=".2" stroke="transparent"/>
<polygon points="603 -125.5 603 -146.5 733 -146.5 733 -125.5" fill="none" stroke="#000"/>
<text x="606" y="-132.3" font-family="Times,serif" font-size="14">gid</text>
<polygon points="603 -104.5 603 -125.5 733 -125.5 733 -104.5" fill="#bbb" fill-opacity=".2" stroke="transparent"/>
<polygon points="603 -104.5 603 -125.5 733 -125.5 733 -104.5" fill="none" stroke="#000"/>
<text x="606" y="-111.3" font-family="Times,serif" font-size="14">name</text>
<polygon points="603 -83.5 603 -104.5 733 -104.5 733 -83.5" fill="#bbb" fill-opacity=".2" stroke="transparent"/>
<polygon points="603 -83.5 603 -104.5 733 -104.5 733 -83.5" fill="none" stroke="#000"/>
<text x="606" y="-90.3" font-family="Times,serif" font-size="14">artist_credit</text>
<polygon points="603 -62.5 603 -83.5 733 -83.5 733 -62.5" fill="#bbb" fill-opacity=".2" stroke="transparent"/>
<polygon points="603 -62.5 603 -83.5 733 -83.5 733 -62.5" fill="none" stroke="#000"/>
<text x="606" y="-69.3" font-family="Times,serif" font-size="14">type</text>
<polygon points="603 -41.5 603 -62.5 733 -62.5 733 -41.5" fill="#bbb" fill-opacity=".2" stroke="transparent"/>
<polygon points="603 -41.5 603 -62.5 733 -62.5 733 -41.5" fill="none" stroke="#000"/>
<text x="606" y="-48.3" font-family="Times,serif" font-size="14">comment</text>
<polygon points="603 -20.5 603 -41.5 733 -41.5 733 -20.5" fill="#bbb" fill-opacity=".2" stroke="transparent"/>
<polygon points="603 -20.5 603 -41.5 733 -41.5 733 -20.5" fill="none" stroke="#000"/>
<text x="606" y="-27.3" font-family="Times,serif" font-size="14">edits_pending</text>
<polygon points="603 0.5 603 -20.5 733 -20.5 733 0.5" fill="#bbb" fill-opacity=".2" stroke="transparent"/>
<polygon points="603 0.5 603 -20.5 733 -20.5 733 0.5" fill="none" stroke="#000"/>
<text x="606" y="-6.3" font-family="Times,serif" font-size="14">last_updated</text>
</g>
<!-- release&#45;&gt;release_group -->
<g class="edge">
<title>release:release_group-&gt;release_group:id</title>
<path d="m567-271.5c49.19 0-7.38 97.71 26.11 112.21" fill="none" stroke="#000"/>
<polygon points="593.78 -162.73 603 -157.5 592.54 -155.84" stroke="#000"/>
</g>
<!-- release_group_cover_art -->
<g class="node">
<title>release_group_cover_art</title>
<polygon points="16 -113.5 16 -138.5 236 -138.5 236 -113.5" fill="#bbb" fill-opacity=".46667" stroke="transparent"/>
<polygon points="16 -113.5 16 -138.5 236 -138.5 236 -113.5" fill="none" stroke="#000"/>
<text x="19" y="-121.9" font-family="Times,serif" font-size="17">release_group_cover_art</text>
<polygon points="16 -92.5 16 -113.5 236 -113.5 236 -92.5" fill="#eee" fill-opacity=".46667" stroke="transparent"/>
<polygon points="16 -92.5 16 -113.5 236 -113.5 236 -92.5" fill="none" stroke="#000"/>
<text x="19" y="-100.3" font-family="Times,serif" font-size="14" text-decoration="underline">release_group</text>
<polygon points="16 -71.5 16 -92.5 236 -92.5 236 -71.5" fill="#eee" fill-opacity=".33333" stroke="transparent"/>
<polygon points="16 -71.5 16 -92.5 236 -92.5 236 -71.5" fill="none" stroke="#000"/>
<text x="19" y="-78.3" font-family="Times,serif" font-size="14">release</text>
</g>
<!-- release_group_cover_art&#45;&gt;release -->
<g class="edge">
<title>release_group_cover_art:release-&gt;release:id</title>
<path d="m236-81.5c54.525 0 133.34 59.971 202.63 24.938 53.728-29.655-34.258-270.56 11.412-296.48" fill="none" stroke="#000" sodipodi:nodetypes="ccc"/>
<polygon points="449.45 -356.5 460 -355.5 451.13 -349.7" stroke="#000"/>
</g>
<!-- release_group_cover_art&#45;&gt;release_group -->
<g class="edge">
<title>release_group_cover_art:release_group-&gt;release_group:id</title>
<path d="m236-102.5c61.959 0 19.434 62.453 42.7 66.35 115.73 19.395 207.38 19.367 288.3-27.35 33.55-23.08-1.21-82.01 26-92.42" fill="none" stroke="#000" sodipodi:nodetypes="cccc"/>
<polygon points="592.58 -159.39 603 -157.5 593.67 -152.48" stroke="#000"/>
</g>
</g>
</svg>
