<?xml version="1.0" encoding="UTF-8"?>
<!DOCTYPE svg  PUBLIC '-//W3C//DTD SVG 1.1//EN'  'http://www.w3.org/Graphics/SVG/1.1/DTD/svg11.dtd'>
<!-- Generated by graphviz version 2.42.4 (0)
 -->
<!-- Title: event_art_details Pages: 1 -->
<svg width="518pt" height="644pt" viewBox="0 0 518 643.5" xmlns="http://www.w3.org/2000/svg" xmlns:xlink="http://www.w3.org/1999/xlink">
<g class="graph" transform="scale(1) translate(4 639.5)">
<title>event_art_details</title>
<a xlink:title="Tables for event art">
<defs>
<linearGradient id="l_0" x1="30.7" x2="479.3" y1="-478.63" y2="-156.87" gradientUnits="userSpaceOnUse">
<stop stop-color="#cb75ab" offset="0"/>
<stop stop-color="#f0976c" offset="1"/>
</linearGradient>
</defs>
<polygon points="-4 4 -4 -639.5 514 -639.5 514 4" fill="url(#l_0)" stroke="transparent"/>
</a>
<g class="cluster">
<title>cluster_event_art_archive</title>
<a xlink:title="Tables for event art">
<defs>
<linearGradient id="l_1" x1="30.57" x2="322.43" y1="-369.75" y2="-138.25" gradientUnits="userSpaceOnUse">
<stop stop-color="#35a8b3" offset="0"/>
<stop stop-color="#f0976c" offset="1"/>
</linearGradient>
</defs>
<polygon points="8 -22.5 8 -485.5 345 -485.5 345 -22.5" fill="url(#l_1)" stroke="#000"/>
</a>
</g>
<!-- event_art_archive.art_type -->
<g class="node">
<title>event_art_archive.art_type</title>
<polygon points="218 -156.5 218 -181.5 305 -181.5 305 -156.5" fill="#bbb" fill-opacity=".46667" stroke="transparent"/>
<polygon points="218 -156.5 218 -181.5 305 -181.5 305 -156.5" fill="none" stroke="#000"/>
<text x="225.5" y="-164.9" font-family="Times,serif" font-size="17">art_type</text>
<polygon points="218 -135.5 218 -156.5 305 -156.5 305 -135.5" fill="#eee" fill-opacity=".46667" stroke="transparent"/>
<polygon points="218 -135.5 218 -156.5 305 -156.5 305 -135.5" fill="none" stroke="#000"/>
<text x="221" y="-143.3" font-family="Times,serif" font-size="14" text-decoration="underline">id</text>
<polygon points="218 -114.5 218 -135.5 305 -135.5 305 -114.5" fill="#bbb" fill-opacity=".2" stroke="transparent"/>
<polygon points="218 -114.5 218 -135.5 305 -135.5 305 -114.5" fill="none" stroke="#000"/>
<text x="221" y="-121.3" font-family="Times,serif" font-size="14">name</text>
<polygon points="218 -93.5 218 -114.5 305 -114.5 305 -93.5" fill="#eee" fill-opacity=".33333" stroke="transparent"/>
<polygon points="218 -93.5 218 -114.5 305 -114.5 305 -93.5" fill="none" stroke="#000"/>
<text x="221" y="-100.3" font-family="Times,serif" font-size="14">parent</text>
<polygon points="218 -72.5 218 -93.5 305 -93.5 305 -72.5" fill="#bbb" fill-opacity=".2" stroke="transparent"/>
<polygon points="218 -72.5 218 -93.5 305 -93.5 305 -72.5" fill="none" stroke="#000"/>
<text x="221" y="-79.3" font-family="Times,serif" font-size="14">child_order</text>
<polygon points="218 -51.5 218 -72.5 305 -72.5 305 -51.5" fill="#bbb" fill-opacity=".2" stroke="transparent"/>
<polygon points="218 -51.5 218 -72.5 305 -72.5 305 -51.5" fill="none" stroke="#000"/>
<text x="221" y="-58.3" font-family="Times,serif" font-size="14">description</text>
<polygon points="218 -30.5 218 -51.5 305 -51.5 305 -30.5" fill="#bbb" fill-opacity=".2" stroke="transparent"/>
<polygon points="218 -30.5 218 -51.5 305 -51.5 305 -30.5" fill="none" stroke="#000"/>
<text x="221" y="-37.3" font-family="Times,serif" font-size="14">gid</text>
</g>
<!-- musicbrainz.edit -->
<g class="node">
<title>musicbrainz.edit</title>
<polygon points="396.5 -209.5 396.5 -234.5 487.5 -234.5 487.5 -209.5" fill="#bbb" fill-opacity=".46667" stroke="transparent"/>
<polygon points="396.5 -209.5 396.5 -234.5 487.5 -234.5 487.5 -209.5" fill="none" stroke="#000"/>
<text x="425" y="-217.9" font-family="Times,serif" font-size="17">edit</text>
<polygon points="396.5 -188.5 396.5 -209.5 487.5 -209.5 487.5 -188.5" fill="#eee" fill-opacity=".46667" stroke="transparent"/>
<polygon points="396.5 -188.5 396.5 -209.5 487.5 -209.5 487.5 -188.5" fill="none" stroke="#000"/>
<text x="399.5" y="-196.3" font-family="Times,serif" font-size="14" text-decoration="underline">id</text>
<polygon points="396.5 -167.5 396.5 -188.5 487.5 -188.5 487.5 -167.5" fill="#bbb" fill-opacity=".2" stroke="transparent"/>
<polygon points="396.5 -167.5 396.5 -188.5 487.5 -188.5 487.5 -167.5" fill="none" stroke="#000"/>
<text x="399.5" y="-174.3" font-family="Times,serif" font-size="14">editor</text>
<polygon points="396.5 -146.5 396.5 -167.5 487.5 -167.5 487.5 -146.5" fill="#bbb" fill-opacity=".2" stroke="transparent"/>
<polygon points="396.5 -146.5 396.5 -167.5 487.5 -167.5 487.5 -146.5" fill="none" stroke="#000"/>
<text x="399.5" y="-153.3" font-family="Times,serif" font-size="14">type</text>
<polygon points="396.5 -125.5 396.5 -146.5 487.5 -146.5 487.5 -125.5" fill="#bbb" fill-opacity=".2" stroke="transparent"/>
<polygon points="396.5 -125.5 396.5 -146.5 487.5 -146.5 487.5 -125.5" fill="none" stroke="#000"/>
<text x="399.5" y="-132.3" font-family="Times,serif" font-size="14">status</text>
<polygon points="396.5 -104.5 396.5 -125.5 487.5 -125.5 487.5 -104.5" fill="#bbb" fill-opacity=".2" stroke="transparent"/>
<polygon points="396.5 -104.5 396.5 -125.5 487.5 -125.5 487.5 -104.5" fill="none" stroke="#000"/>
<text x="399.5" y="-111.3" font-family="Times,serif" font-size="14">autoedit</text>
<polygon points="396.5 -83.5 396.5 -104.5 487.5 -104.5 487.5 -83.5" fill="#bbb" fill-opacity=".2" stroke="transparent"/>
<polygon points="396.5 -83.5 396.5 -104.5 487.5 -104.5 487.5 -83.5" fill="none" stroke="#000"/>
<text x="399.5" y="-90.3" font-family="Times,serif" font-size="14">open_time</text>
<polygon points="396.5 -62.5 396.5 -83.5 487.5 -83.5 487.5 -62.5" fill="#bbb" fill-opacity=".2" stroke="transparent"/>
<polygon points="396.5 -62.5 396.5 -83.5 487.5 -83.5 487.5 -62.5" fill="none" stroke="#000"/>
<text x="399.5" y="-69.3" font-family="Times,serif" font-size="14">close_time</text>
<polygon points="396.5 -41.5 396.5 -62.5 487.5 -62.5 487.5 -41.5" fill="#bbb" fill-opacity=".2" stroke="transparent"/>
<polygon points="396.5 -41.5 396.5 -62.5 487.5 -62.5 487.5 -41.5" fill="none" stroke="#000"/>
<text x="399.5" y="-48.3" font-family="Times,serif" font-size="14">expire_time</text>
<polygon points="396.5 -20.5 396.5 -41.5 487.5 -41.5 487.5 -20.5" fill="#bbb" fill-opacity=".2" stroke="transparent"/>
<polygon points="396.5 -20.5 396.5 -41.5 487.5 -41.5 487.5 -20.5" fill="none" stroke="#000"/>
<text x="399.5" y="-27.3" font-family="Times,serif" font-size="14">language</text>
<polygon points="396.5 0.5 396.5 -20.5 487.5 -20.5 487.5 0.5" fill="#bbb" fill-opacity=".2" stroke="transparent"/>
<polygon points="396.5 0.5 396.5 -20.5 487.5 -20.5 487.5 0.5" fill="none" stroke="#000"/>
<text x="399.5" y="-6.3" font-family="Times,serif" font-size="14">quality</text>
</g>
<!-- musicbrainz.event -->
<g class="node">
<title>musicbrainz.event</title>
<polygon points="373.5 -610.5 373.5 -635.5 510.5 -635.5 510.5 -610.5" fill="#eee" fill-opacity=".73333" stroke="transparent"/>
<polygon points="373.5 -610.5 373.5 -635.5 510.5 -635.5 510.5 -610.5" fill="none" stroke="#000"/>
<text x="418" y="-618.9" font-family="Times,serif" font-size="17">event</text>
<polygon points="373.5 -589.5 373.5 -610.5 510.5 -610.5 510.5 -589.5" fill="#eee" fill-opacity=".46667" stroke="transparent"/>
<polygon points="373.5 -589.5 373.5 -610.5 510.5 -610.5 510.5 -589.5" fill="none" stroke="#000"/>
<text x="376.5" y="-597.3" font-family="Times,serif" font-size="14" text-decoration="underline">id</text>
<polygon points="373.5 -568.5 373.5 -589.5 510.5 -589.5 510.5 -568.5" fill="#bbb" fill-opacity=".2" stroke="transparent"/>
<polygon points="373.5 -568.5 373.5 -589.5 510.5 -589.5 510.5 -568.5" fill="none" stroke="#000"/>
<text x="376.5" y="-575.3" font-family="Times,serif" font-size="14">gid</text>
<polygon points="373.5 -547.5 373.5 -568.5 510.5 -568.5 510.5 -547.5" fill="#bbb" fill-opacity=".2" stroke="transparent"/>
<polygon points="373.5 -547.5 373.5 -568.5 510.5 -568.5 510.5 -547.5" fill="none" stroke="#000"/>
<text x="376.5" y="-554.3" font-family="Times,serif" font-size="14">name</text>
<polygon points="373.5 -526.5 373.5 -547.5 510.5 -547.5 510.5 -526.5" fill="#bbb" fill-opacity=".2" stroke="transparent"/>
<polygon points="373.5 -526.5 373.5 -547.5 510.5 -547.5 510.5 -526.5" fill="none" stroke="#000"/>
<text x="376.5" y="-533.3" font-family="Times,serif" font-size="14">begin_date_year</text>
<polygon points="373.5 -505.5 373.5 -526.5 510.5 -526.5 510.5 -505.5" fill="#bbb" fill-opacity=".2" stroke="transparent"/>
<polygon points="373.5 -505.5 373.5 -526.5 510.5 -526.5 510.5 -505.5" fill="none" stroke="#000"/>
<text x="376.5" y="-512.3" font-family="Times,serif" font-size="14">begin_date_month</text>
<polygon points="373.5 -484.5 373.5 -505.5 510.5 -505.5 510.5 -484.5" fill="#bbb" fill-opacity=".2" stroke="transparent"/>
<polygon points="373.5 -484.5 373.5 -505.5 510.5 -505.5 510.5 -484.5" fill="none" stroke="#000"/>
<text x="376.5" y="-491.3" font-family="Times,serif" font-size="14">begin_date_day</text>
<polygon points="373.5 -463.5 373.5 -484.5 510.5 -484.5 510.5 -463.5" fill="#bbb" fill-opacity=".2" stroke="transparent"/>
<polygon points="373.5 -463.5 373.5 -484.5 510.5 -484.5 510.5 -463.5" fill="none" stroke="#000"/>
<text x="376.5" y="-470.3" font-family="Times,serif" font-size="14">end_date_year</text>
<polygon points="373.5 -442.5 373.5 -463.5 510.5 -463.5 510.5 -442.5" fill="#bbb" fill-opacity=".2" stroke="transparent"/>
<polygon points="373.5 -442.5 373.5 -463.5 510.5 -463.5 510.5 -442.5" fill="none" stroke="#000"/>
<text x="376.5" y="-449.3" font-family="Times,serif" font-size="14">end_date_month</text>
<polygon points="373.5 -421.5 373.5 -442.5 510.5 -442.5 510.5 -421.5" fill="#bbb" fill-opacity=".2" stroke="transparent"/>
<polygon points="373.5 -421.5 373.5 -442.5 510.5 -442.5 510.5 -421.5" fill="none" stroke="#000"/>
<text x="376.5" y="-428.3" font-family="Times,serif" font-size="14">end_date_day</text>
<polygon points="373.5 -400.5 373.5 -421.5 510.5 -421.5 510.5 -400.5" fill="#bbb" fill-opacity=".2" stroke="transparent"/>
<polygon points="373.5 -400.5 373.5 -421.5 510.5 -421.5 510.5 -400.5" fill="none" stroke="#000"/>
<text x="376.5" y="-407.3" font-family="Times,serif" font-size="14">time</text>
<polygon points="373.5 -379.5 373.5 -400.5 510.5 -400.5 510.5 -379.5" fill="#bbb" fill-opacity=".2" stroke="transparent"/>
<polygon points="373.5 -379.5 373.5 -400.5 510.5 -400.5 510.5 -379.5" fill="none" stroke="#000"/>
<text x="376.5" y="-386.3" font-family="Times,serif" font-size="14">type</text>
<polygon points="373.5 -358.5 373.5 -379.5 510.5 -379.5 510.5 -358.5" fill="#bbb" fill-opacity=".2" stroke="transparent"/>
<polygon points="373.5 -358.5 373.5 -379.5 510.5 -379.5 510.5 -358.5" fill="none" stroke="#000"/>
<text x="376.5" y="-365.3" font-family="Times,serif" font-size="14">cancelled</text>
<polygon points="373.5 -337.5 373.5 -358.5 510.5 -358.5 510.5 -337.5" fill="#bbb" fill-opacity=".2" stroke="transparent"/>
<polygon points="373.5 -337.5 373.5 -358.5 510.5 -358.5 510.5 -337.5" fill="none" stroke="#000"/>
<text x="376.5" y="-344.3" font-family="Times,serif" font-size="14">setlist</text>
<polygon points="373.5 -316.5 373.5 -337.5 510.5 -337.5 510.5 -316.5" fill="#bbb" fill-opacity=".2" stroke="transparent"/>
<polygon points="373.5 -316.5 373.5 -337.5 510.5 -337.5 510.5 -316.5" fill="none" stroke="#000"/>
<text x="376.5" y="-323.3" font-family="Times,serif" font-size="14">comment</text>
<polygon points="373.5 -295.5 373.5 -316.5 510.5 -316.5 510.5 -295.5" fill="#bbb" fill-opacity=".2" stroke="transparent"/>
<polygon points="373.5 -295.5 373.5 -316.5 510.5 -316.5 510.5 -295.5" fill="none" stroke="#000"/>
<text x="376.5" y="-302.3" font-family="Times,serif" font-size="14">edits_pending</text>
<polygon points="373.5 -274.5 373.5 -295.5 510.5 -295.5 510.5 -274.5" fill="#bbb" fill-opacity=".2" stroke="transparent"/>
<polygon points="373.5 -274.5 373.5 -295.5 510.5 -295.5 510.5 -274.5" fill="none" stroke="#000"/>
<text x="376.5" y="-281.3" font-family="Times,serif" font-size="14">last_updated</text>
<polygon points="373.5 -253.5 373.5 -274.5 510.5 -274.5 510.5 -253.5" fill="#bbb" fill-opacity=".2" stroke="transparent"/>
<polygon points="373.5 -253.5 373.5 -274.5 510.5 -274.5 510.5 -253.5" fill="none" stroke="#000"/>
<text x="376.5" y="-260.3" font-family="Times,serif" font-size="14">ended</text>
</g>
<!-- event_art_archive.event_art -->
<g class="node">
<title>event_art_archive.event_art</title>
<polygon points="185 -451.5 185 -476.5 337 -476.5 337 -451.5" fill="#bbb" fill-opacity=".46667" stroke="transparent"/>
<polygon points="185 -451.5 185 -476.5 337 -476.5 337 -451.5" fill="none" stroke="#000"/>
<text x="220" y="-459.9" font-family="Times,serif" font-size="17">event_art</text>
<polygon points="185 -430.5 185 -451.5 337 -451.5 337 -430.5" fill="#eee" fill-opacity=".46667" stroke="transparent"/>
<polygon points="185 -430.5 185 -451.5 337 -451.5 337 -430.5" fill="none" stroke="#000"/>
<text x="188" y="-438.3" font-family="Times,serif" font-size="14" text-decoration="underline">id</text>
<polygon points="185 -409.5 185 -430.5 337 -430.5 337 -409.5" fill="#eee" fill-opacity=".33333" stroke="transparent"/>
<polygon points="185 -409.5 185 -430.5 337 -430.5 337 -409.5" fill="none" stroke="#000"/>
<text x="188" y="-416.3" font-family="Times,serif" font-size="14">event</text>
<polygon points="185 -388.5 185 -409.5 337 -409.5 337 -388.5" fill="#bbb" fill-opacity=".2" stroke="transparent"/>
<polygon points="185 -388.5 185 -409.5 337 -409.5 337 -388.5" fill="none" stroke="#000"/>
<text x="188" y="-395.3" font-family="Times,serif" font-size="14">comment</text>
<polygon points="185 -367.5 185 -388.5 337 -388.5 337 -367.5" fill="#eee" fill-opacity=".33333" stroke="transparent"/>
<polygon points="185 -367.5 185 -388.5 337 -388.5 337 -367.5" fill="none" stroke="#000"/>
<text x="188" y="-374.3" font-family="Times,serif" font-size="14">edit</text>
<polygon points="185 -346.5 185 -367.5 337 -367.5 337 -346.5" fill="#bbb" fill-opacity=".2" stroke="transparent"/>
<polygon points="185 -346.5 185 -367.5 337 -367.5 337 -346.5" fill="none" stroke="#000"/>
<text x="188" y="-353.3" font-family="Times,serif" font-size="14">ordering</text>
<polygon points="185 -325.5 185 -346.5 337 -346.5 337 -325.5" fill="#bbb" fill-opacity=".2" stroke="transparent"/>
<polygon points="185 -325.5 185 -346.5 337 -346.5 337 -325.5" fill="none" stroke="#000"/>
<text x="188" y="-332.3" font-family="Times,serif" font-size="14">date_uploaded</text>
<polygon points="185 -304.5 185 -325.5 337 -325.5 337 -304.5" fill="#bbb" fill-opacity=".2" stroke="transparent"/>
<polygon points="185 -304.5 185 -325.5 337 -325.5 337 -304.5" fill="none" stroke="#000"/>
<text x="188" y="-311.3" font-family="Times,serif" font-size="14">edits_pending</text>
<polygon points="185 -283.5 185 -304.5 337 -304.5 337 -283.5" fill="#bbb" fill-opacity=".2" stroke="transparent"/>
<polygon points="185 -283.5 185 -304.5 337 -304.5 337 -283.5" fill="none" stroke="#000"/>
<text x="188" y="-290.3" font-family="Times,serif" font-size="14">mime_type</text>
<polygon points="185 -262.5 185 -283.5 337 -283.5 337 -262.5" fill="#bbb" fill-opacity=".2" stroke="transparent"/>
<polygon points="185 -262.5 185 -283.5 337 -283.5 337 -262.5" fill="none" stroke="#000"/>
<text x="188" y="-269.3" font-family="Times,serif" font-size="14">filesize</text>
<polygon points="185 -241.5 185 -262.5 337 -262.5 337 -241.5" fill="#bbb" fill-opacity=".2" stroke="transparent"/>
<polygon points="185 -241.5 185 -262.5 337 -262.5 337 -241.5" fill="none" stroke="#000"/>
<text x="188" y="-248.3" font-family="Times,serif" font-size="14">thumb_250_filesize</text>
<polygon points="185 -220.5 185 -241.5 337 -241.5 337 -220.5" fill="#bbb" fill-opacity=".2" stroke="transparent"/>
<polygon points="185 -220.5 185 -241.5 337 -241.5 337 -220.5" fill="none" stroke="#000"/>
<text x="188" y="-227.3" font-family="Times,serif" font-size="14">thumb_500_filesize</text>
<polygon points="185 -199.5 185 -220.5 337 -220.5 337 -199.5" fill="#bbb" fill-opacity=".2" stroke="transparent"/>
<polygon points="185 -199.5 185 -220.5 337 -220.5 337 -199.5" fill="none" stroke="#000"/>
<text x="188" y="-206.3" font-family="Times,serif" font-size="14">thumb_1200_filesize</text>
</g>
<!-- event_art_archive.event_art&#45;&gt;musicbrainz.edit -->
<g class="edge">
<title>event_art_archive.event_art:edit-&gt;musicbrainz.edit:id</title>
<path d="m338-378.5c79.81 0-16.6 163.28 47.37 177.95" fill="none" stroke="#000"/>
<polygon points="385.91 -204.01 395.5 -199.5 385.19 -197.05" stroke="#000"/>
</g>
<!-- event_art_archive.event_art&#45;&gt;musicbrainz.event -->
<g class="edge">
<title>event_art_archive.event_art:event-&gt;musicbrainz.event:id</title>
<path d="m338-420.5c77.68 0-34.96-163.52 24.88-178.85" fill="none" stroke="#000"/>
<polygon points="362.67 -602.85 373 -600.5 363.46 -595.89" stroke="#000"/>
</g>
<!-- event_art_archive.event_art_type -->
<g class="node">
<title>event_art_archive.event_art_type</title>
<polygon points="16.5 -314.5 16.5 -339.5 149.5 -339.5 149.5 -314.5" fill="#bbb" fill-opacity=".46667" stroke="transparent"/>
<polygon points="16.5 -314.5 16.5 -339.5 149.5 -339.5 149.5 -314.5" fill="none" stroke="#000"/>
<text x="19.5" y="-322.9" font-family="Times,serif" font-size="17">event_art_type</text>
<polygon points="16.5 -293.5 16.5 -314.5 149.5 -314.5 149.5 -293.5" fill="#eee" fill-opacity=".46667" stroke="transparent"/>
<polygon points="16.5 -293.5 16.5 -314.5 149.5 -314.5 149.5 -293.5" fill="none" stroke="#000"/>
<text x="19.5" y="-301.3" font-family="Times,serif" font-size="14" text-decoration="underline">id</text>
<polygon points="16.5 -272.5 16.5 -293.5 149.5 -293.5 149.5 -272.5" fill="#eee" fill-opacity=".46667" stroke="transparent"/>
<polygon points="16.5 -272.5 16.5 -293.5 149.5 -293.5 149.5 -272.5" fill="none" stroke="#000"/>
<text x="19.5" y="-280.3" font-family="Times,serif" font-size="14" text-decoration="underline">type_id</text>
</g>
<!-- event_art_archive.event_art_type&#45;&gt;event_art_archive.art_type -->
<g class="edge">
<title>event_art_archive.event_art_type:type_id-&gt;event_art_archive.art_type:id</title>
<path d="m149-282.5c63.75 0 7.6 121.03 57.76 134.74" fill="none" stroke="#000"/>
<polygon points="207.5 -151.2 217 -146.5 206.65 -144.25" stroke="#000"/>
</g>
<!-- event_art_archive.event_art_type&#45;&gt;event_art_archive.event_art -->
<g class="edge">
<title>event_art_archive.event_art_type:id-&gt;event_art_archive.event_art:id</title>
<path d="m149-303.5c59.42 0-16.64-121.29 25.85-136.45" fill="none" stroke="#000"/>
<polygon points="174.59 -443.45 185 -441.5 175.64 -436.53" stroke="#000"/>
</g>
</g>
</svg>
