<?xml version="1.0" encoding="UTF-8"?>
<!DOCTYPE svg  PUBLIC '-//W3C//DTD SVG 1.1//EN'  'http://www.w3.org/Graphics/SVG/1.1/DTD/svg11.dtd'>
<!-- Generated by graphviz version 2.43.0 (0)
 -->
<!-- Title: for_tagging_audio_files Pages: 1 -->
<svg width="709pt" height="309pt" viewBox="0 0 709 308.96" xmlns="http://www.w3.org/2000/svg" xmlns:xlink="http://www.w3.org/1999/xlink">
<g class="graph" transform="scale(1) translate(4 304.96)">
<title>for_tagging_audio_files</title>
<a xlink:title="Tables for tagging audio files">
<defs>
<linearGradient id="l_0" x1="43.49" x2="657.51" y1="-227.72" y2="-73.24" gradientUnits="userSpaceOnUse">
<stop stop-color="#cb75ab" offset="0"/>
<stop stop-color="#f0976c" offset="1"/>
</linearGradient>
</defs>
<polygon points="-4 4 -4 -304.96 705 -304.96 705 4" fill="url(#l_0)" stroke="transparent"/>
</a>
<!-- artist -->
<g class="node">
<title>artist</title>
<polygon points="619 -233.46 619 -258.46 672 -258.46 672 -233.46" fill="#eee" fill-opacity=".73333" stroke="transparent"/>
<polygon points="619 -233.46 619 -258.46 672 -258.46 672 -233.46" fill="none" stroke="#000"/>
<text x="622" y="-241.86" font-family="Times,serif" font-size="17">artist</text>
<polygon points="619 -212.46 619 -233.46 672 -233.46 672 -212.46" fill="#eee" fill-opacity=".46667" stroke="transparent"/>
<polygon points="619 -212.46 619 -233.46 672 -233.46 672 -212.46" fill="none" stroke="#000"/>
<text x="622" y="-220.26" font-family="Times,serif" font-size="14" text-decoration="underline">id</text>
<polygon points="619 -191.46 619 -212.46 672 -212.46 672 -191.46" fill="#bbb" fill-opacity=".2" stroke="transparent"/>
<polygon points="619 -191.46 619 -212.46 672 -212.46 672 -191.46" fill="none" stroke="#000"/>
<text x="622" y="-198.26" font-family="Times,serif" font-size="14">...</text>
</g>
<!-- artist_credit -->
<g class="node">
<title>artist_credit</title>
<polygon points="589 -118.46 589 -143.46 701 -143.46 701 -118.46" fill="#bbb" fill-opacity=".46667" stroke="transparent"/>
<polygon points="589 -118.46 589 -143.46 701 -143.46 701 -118.46" fill="none" stroke="#000"/>
<text x="592" y="-126.86" font-family="Times,serif" font-size="17">artist_credit</text>
<polygon points="589 -97.46 589 -118.46 701 -118.46 701 -97.46" fill="#eee" fill-opacity=".46667" stroke="transparent"/>
<polygon points="589 -97.46 589 -118.46 701 -118.46 701 -97.46" fill="none" stroke="#000"/>
<text x="592" y="-105.26" font-family="Times,serif" font-size="14" text-decoration="underline">id</text>
<polygon points="589 -76.46 589 -97.46 701 -97.46 701 -76.46" fill="#bbb" fill-opacity=".2" stroke="transparent"/>
<polygon points="589 -76.46 589 -97.46 701 -97.46 701 -76.46" fill="none" stroke="#000"/>
<text x="592" y="-83.26" font-family="Times,serif" font-size="14">...</text>
</g>
<!-- artist_credit_name -->
<g class="node">
<title>artist_credit_name</title>
<polygon points="385 -275.46 385 -300.46 553 -300.46 553 -275.46" fill="#bbb" fill-opacity=".46667" stroke="transparent"/>
<polygon points="385 -275.46 385 -300.46 553 -300.46 553 -275.46" fill="none" stroke="#000"/>
<text x="388" y="-283.86" font-family="Times,serif" font-size="17">artist_credit_name</text>
<polygon points="385 -254.46 385 -275.46 553 -275.46 553 -254.46" fill="#eee" fill-opacity=".46667" stroke="transparent"/>
<polygon points="385 -254.46 385 -275.46 553 -275.46 553 -254.46" fill="none" stroke="#000"/>
<text x="388" y="-262.26" font-family="Times,serif" font-size="14" text-decoration="underline">artist_credit</text>
<polygon points="385 -233.46 385 -254.46 553 -254.46 553 -233.46" fill="#eee" fill-opacity=".46667" stroke="transparent"/>
<polygon points="385 -233.46 385 -254.46 553 -254.46 553 -233.46" fill="none" stroke="#000"/>
<text x="388" y="-241.26" font-family="Times,serif" font-size="14" text-decoration="underline">position</text>
<polygon points="385 -212.46 385 -233.46 553 -233.46 553 -212.46" fill="#eee" fill-opacity=".33333" stroke="transparent"/>
<polygon points="385 -212.46 385 -233.46 553 -233.46 553 -212.46" fill="none" stroke="#000"/>
<text x="388" y="-219.26" font-family="Times,serif" font-size="14">artist</text>
<polygon points="385 -191.46 385 -212.46 553 -212.46 553 -191.46" fill="#bbb" fill-opacity=".2" stroke="transparent"/>
<polygon points="385 -191.46 385 -212.46 553 -212.46 553 -191.46" fill="none" stroke="#000"/>
<text x="388" y="-198.26" font-family="Times,serif" font-size="14">...</text>
</g>
<!-- artist_credit_name&#45;&gt;artist -->
<g class="edge">
<title>artist_credit_name:artist-&gt;artist:id</title>
<path d="m553-222.46h54.82" fill="none" stroke="#000"/>
<polygon points="608 -225.96 618 -222.46 608 -218.96" stroke="#000"/>
</g>
<!-- artist_credit_name&#45;&gt;artist_credit -->
<g class="edge">
<title>artist_credit_name:artist_credit-&gt;artist_credit:id</title>
<path d="m553-265.46c68.22 0-25.13 141.77 26.06 156.72" fill="none" stroke="#000"/>
<polygon points="579.52 -112.2 589 -107.46 578.64 -105.26" stroke="#000"/>
</g>
<!-- medium -->
<g class="node">
<title>medium</title>
<polygon points="130 -153.46 130 -178.46 206 -178.46 206 -153.46" fill="#bbb" fill-opacity=".46667" stroke="transparent"/>
<polygon points="130 -153.46 130 -178.46 206 -178.46 206 -153.46" fill="none" stroke="#000"/>
<text x="133" y="-161.86" font-family="Times,serif" font-size="17">medium</text>
<polygon points="130 -132.46 130 -153.46 206 -153.46 206 -132.46" fill="#eee" fill-opacity=".46667" stroke="transparent"/>
<polygon points="130 -132.46 130 -153.46 206 -153.46 206 -132.46" fill="none" stroke="#000"/>
<text x="133" y="-140.26" font-family="Times,serif" font-size="14" text-decoration="underline">id</text>
<polygon points="130 -111.46 130 -132.46 206 -132.46 206 -111.46" fill="#eee" fill-opacity=".33333" stroke="transparent"/>
<polygon points="130 -111.46 130 -132.46 206 -132.46 206 -111.46" fill="none" stroke="#000"/>
<text x="133" y="-118.26" font-family="Times,serif" font-size="14">release</text>
<polygon points="130 -90.46 130 -111.46 206 -111.46 206 -90.46" fill="#bbb" fill-opacity=".2" stroke="transparent"/>
<polygon points="130 -90.46 130 -111.46 206 -111.46 206 -90.46" fill="none" stroke="#000"/>
<text x="133" y="-97.26" font-family="Times,serif" font-size="14">...</text>
</g>
<!-- release -->
<g class="node">
<title>release</title>
<polygon points="242.5 -131.46 242.5 -156.46 349.5 -156.46 349.5 -131.46" fill="#eee" fill-opacity=".73333" stroke="transparent"/>
<polygon points="242.5 -131.46 242.5 -156.46 349.5 -156.46 349.5 -131.46" fill="none" stroke="#000"/>
<text x="264.5" y="-139.86" font-family="Times,serif" font-size="17">release</text>
<polygon points="242.5 -110.46 242.5 -131.46 349.5 -131.46 349.5 -110.46" fill="#eee" fill-opacity=".46667" stroke="transparent"/>
<polygon points="242.5 -110.46 242.5 -131.46 349.5 -131.46 349.5 -110.46" fill="none" stroke="#000"/>
<text x="245.5" y="-118.26" font-family="Times,serif" font-size="14" text-decoration="underline">id</text>
<polygon points="242.5 -89.46 242.5 -110.46 349.5 -110.46 349.5 -89.46" fill="#eee" fill-opacity=".33333" stroke="transparent"/>
<polygon points="242.5 -89.46 242.5 -110.46 349.5 -110.46 349.5 -89.46" fill="none" stroke="#000"/>
<text x="245.5" y="-96.26" font-family="Times,serif" font-size="14">artist_credit</text>
<polygon points="242.5 -68.46 242.5 -89.46 349.5 -89.46 349.5 -68.46" fill="#eee" fill-opacity=".33333" stroke="transparent"/>
<polygon points="242.5 -68.46 242.5 -89.46 349.5 -89.46 349.5 -68.46" fill="none" stroke="#000"/>
<text x="245.5" y="-75.26" font-family="Times,serif" font-size="14">release_group</text>
<polygon points="242.5 -47.46 242.5 -68.46 349.5 -68.46 349.5 -47.46" fill="#bbb" fill-opacity=".2" stroke="transparent"/>
<polygon points="242.5 -47.46 242.5 -68.46 349.5 -68.46 349.5 -47.46" fill="none" stroke="#000"/>
<text x="245.5" y="-54.26" font-family="Times,serif" font-size="14">...</text>
</g>
<!-- medium&#45;&gt;release -->
<g class="edge">
<title>medium:release-&gt;release:id</title>
<path d="m206-121.46h25.88" fill="none" stroke="#000"/>
<polygon points="232 -124.96 242 -121.46 232 -117.96" stroke="#000"/>
</g>
<!-- recording -->
<g class="node">
<title>recording</title>
<polygon points="248.5 -238.46 248.5 -263.46 342.5 -263.46 342.5 -238.46" fill="#eee" fill-opacity=".73333" stroke="transparent"/>
<polygon points="248.5 -238.46 248.5 -263.46 342.5 -263.46 342.5 -238.46" fill="none" stroke="#000"/>
<text x="252.5" y="-246.86" font-family="Times,serif" font-size="17">recording</text>
<polygon points="248.5 -217.46 248.5 -238.46 342.5 -238.46 342.5 -217.46" fill="#eee" fill-opacity=".46667" stroke="transparent"/>
<polygon points="248.5 -217.46 248.5 -238.46 342.5 -238.46 342.5 -217.46" fill="none" stroke="#000"/>
<text x="251.5" y="-225.26" font-family="Times,serif" font-size="14" text-decoration="underline">id</text>
<polygon points="248.5 -196.46 248.5 -217.46 342.5 -217.46 342.5 -196.46" fill="#eee" fill-opacity=".33333" stroke="transparent"/>
<polygon points="248.5 -196.46 248.5 -217.46 342.5 -217.46 342.5 -196.46" fill="none" stroke="#000"/>
<text x="251.5" y="-203.26" font-family="Times,serif" font-size="14">artist_credit</text>
<polygon points="248.5 -175.46 248.5 -196.46 342.5 -196.46 342.5 -175.46" fill="#bbb" fill-opacity=".2" stroke="transparent"/>
<polygon points="248.5 -175.46 248.5 -196.46 342.5 -196.46 342.5 -175.46" fill="none" stroke="#000"/>
<text x="251.5" y="-182.26" font-family="Times,serif" font-size="14">...</text>
</g>
<!-- recording&#45;&gt;artist_credit -->
<g class="edge">
<title>recording:artist_credit-&gt;artist_credit:id</title>
<path d="m343.5-206.46c21.09 0 21.85 15.35 41.5 23 35.36 13.76 45.42 14.74 83 20" fill="none" stroke="#000"/>
</g>
<!-- release&#45;&gt;artist_credit -->
<g class="edge">
<title>release:artist_credit-&gt;artist_credit:id</title>
<path d="m470-163.46c37.48 5.24 50.01 0.45 83 19 16.19 9.09 14.72 27.7 25.74 34.47" fill="none" stroke="#000"/>
<polygon points="579.9 -113.31 588.73 -107.46 578.18 -106.53" stroke="#000"/>
<path d="m349-99.46c25.61 0 14.31-31.39 36-45 32.05-20.12 45.52-24.25 83-19" fill="none" stroke="#000"/>
</g>
<!-- release_group -->
<g class="node">
<title>release_group</title>
<polygon points="404 -110.46 404 -135.46 534 -135.46 534 -110.46" fill="#eee" fill-opacity=".73333" stroke="transparent"/>
<polygon points="404 -110.46 404 -135.46 534 -135.46 534 -110.46" fill="none" stroke="#000"/>
<text x="407" y="-118.86" font-family="Times,serif" font-size="17">release_group</text>
<polygon points="404 -89.46 404 -110.46 534 -110.46 534 -89.46" fill="#eee" fill-opacity=".46667" stroke="transparent"/>
<polygon points="404 -89.46 404 -110.46 534 -110.46 534 -89.46" fill="none" stroke="#000"/>
<text x="407" y="-97.26" font-family="Times,serif" font-size="14" text-decoration="underline">id</text>
<polygon points="404 -68.46 404 -89.46 534 -89.46 534 -68.46" fill="#eee" fill-opacity=".33333" stroke="transparent"/>
<polygon points="404 -68.46 404 -89.46 534 -89.46 534 -68.46" fill="none" stroke="#000"/>
<text x="407" y="-75.26" font-family="Times,serif" font-size="14">artist_credit</text>
<polygon points="404 -47.46 404 -68.46 534 -68.46 534 -47.46" fill="#bbb" fill-opacity=".2" stroke="transparent"/>
<polygon points="404 -47.46 404 -68.46 534 -68.46 534 -47.46" fill="none" stroke="#000"/>
<text x="407" y="-54.26" font-family="Times,serif" font-size="14">...</text>
</g>
<!-- release&#45;&gt;release_group -->
<g class="edge">
<title>release:release_group-&gt;release_group:id</title>
<path d="m349-78.46c22.07 0 26.92-15.96 43.87-20.69" fill="none" stroke="#000"/>
<polygon points="392.63 -102.65 403 -100.46 393.53 -95.71" stroke="#000"/>
</g>
<!-- release_group&#45;&gt;artist_credit -->
<g class="edge">
<title>release_group:artist_credit-&gt;artist_credit:id</title>
<path d="m535-78.46c23.41 0 26.35-21.42 44-27.44" fill="none" stroke="#000"/>
<polygon points="578.58 -109.38 589 -107.46 579.66 -102.47" stroke="#000"/>
</g>
<!-- track -->
<g class="node">
<title>track</title>
<polygon points="0 -196.46 0 -221.46 94 -221.46 94 -196.46" fill="#bbb" fill-opacity=".46667" stroke="transparent"/>
<polygon points="0 -196.46 0 -221.46 94 -221.46 94 -196.46" fill="none" stroke="#000"/>
<text x="24" y="-204.86" font-family="Times,serif" font-size="17">track</text>
<polygon points="0 -175.46 0 -196.46 94 -196.46 94 -175.46" fill="#eee" fill-opacity=".46667" stroke="transparent"/>
<polygon points="0 -175.46 0 -196.46 94 -196.46 94 -175.46" fill="none" stroke="#000"/>
<text x="3" y="-183.26" font-family="Times,serif" font-size="14" text-decoration="underline">id</text>
<polygon points="0 -154.46 0 -175.46 94 -175.46 94 -154.46" fill="#eee" fill-opacity=".33333" stroke="transparent"/>
<polygon points="0 -154.46 0 -175.46 94 -175.46 94 -154.46" fill="none" stroke="#000"/>
<text x="3" y="-161.26" font-family="Times,serif" font-size="14">recording</text>
<polygon points="0 -133.46 0 -154.46 94 -154.46 94 -133.46" fill="#eee" fill-opacity=".33333" stroke="transparent"/>
<polygon points="0 -133.46 0 -154.46 94 -154.46 94 -133.46" fill="none" stroke="#000"/>
<text x="3" y="-140.26" font-family="Times,serif" font-size="14">medium</text>
<polygon points="0 -112.46 0 -133.46 94 -133.46 94 -112.46" fill="#eee" fill-opacity=".33333" stroke="transparent"/>
<polygon points="0 -112.46 0 -133.46 94 -133.46 94 -112.46" fill="none" stroke="#000"/>
<text x="3" y="-119.26" font-family="Times,serif" font-size="14">artist_credit</text>
<polygon points="0 -91.46 0 -112.46 94 -112.46 94 -91.46" fill="#bbb" fill-opacity=".2" stroke="transparent"/>
<polygon points="0 -91.46 0 -112.46 94 -112.46 94 -91.46" fill="none" stroke="#000"/>
<text x="3" y="-98.26" font-family="Times,serif" font-size="14">...</text>
</g>
<!-- track&#45;&gt;artist_credit -->
<g class="edge">
<title>track:artist_credit-&gt;artist_credit:id</title>
<path d="m94-122.46c24.25 0 16.1 27.14 36 41 43.75 30.47 59.57 33.28 112 43 135.91 25.19 192.8 71.65 311 0 26-15.76 7.39-57.12 25.98-66.91" fill="none" stroke="#000"/>
<polygon points="578.5 -108.84 589 -107.46 579.93 -101.99" stroke="#000"/>
</g>
<!-- track&#45;&gt;medium -->
<g class="edge">
<title>track:medium-&gt;medium:id</title>
<path d="m94-143.46h25.88" fill="none" stroke="#000"/>
<polygon points="120 -146.96 130 -143.46 120 -139.96" stroke="#000"/>
</g>
<!-- track&#45;&gt;recording -->
<g class="edge">
<title>track:recording-&gt;recording:id</title>
<path d="m94-165.46c18.75 0 19.05-13.98 36-22 46.77-22.14 60.46-38.74 107.32-40.79" fill="none" stroke="#000"/>
<polygon points="237.43 -231.75 247.5 -228.46 237.58 -224.76" stroke="#000"/>
</g>
</g>
</svg>
