<?xml version="1.0" encoding="UTF-8"?>
<!DOCTYPE svg  PUBLIC '-//W3C//DTD SVG 1.1//EN'  'http://www.w3.org/Graphics/SVG/1.1/DTD/svg11.dtd'>
<!-- Generated by graphviz version 2.43.0 (0)
 -->
<!-- Title: for_finding_song_authors Pages: 1 -->
<svg width="293pt" height="330pt" viewBox="0 0 293 330" xmlns="http://www.w3.org/2000/svg" xmlns:xlink="http://www.w3.org/1999/xlink">
<g class="graph" transform="scale(1) translate(4 326)">
<title>for_finding_song_authors</title>
<a xlink:title="Tables for finding song authors">
<polygon points="-4 4 -4 -326 289 -326 289 4" fill="#e8c2da" stroke="transparent"/>
</a>
<!-- musicbrainz.artist -->
<g class="node">
<title>musicbrainz.artist</title>
<polygon points="213 -296.5 213 -321.5 266 -321.5 266 -296.5" fill="#eb743b" stroke="transparent"/>
<polygon points="213 -296.5 213 -321.5 266 -321.5 266 -296.5" fill="none" stroke="#000"/>
<text x="216" y="-304.9" font-family="Times,serif" font-size="17">artist</text>
<polygon points="213 -275.5 213 -296.5 266 -296.5 266 -275.5" fill="#f0976c" stroke="transparent"/>
<polygon points="213 -275.5 213 -296.5 266 -296.5 266 -275.5" fill="none" stroke="#000"/>
<text x="216" y="-283.3" font-family="Times,serif" font-size="14" text-decoration="underline">id</text>
<polygon points="213 -254.5 213 -275.5 266 -275.5 266 -254.5" fill="#eee" stroke="transparent"/>
<polygon points="213 -254.5 213 -275.5 266 -275.5 266 -254.5" fill="none" stroke="#000"/>
<text x="216" y="-261.3" font-family="Times,serif" font-size="14">...</text>
</g>
<!-- musicbrainz.l_artist_work -->
<g class="node">
<title>musicbrainz.l_artist_work</title>
<polygon points="19.5 -284.5 19.5 -309.5 137.5 -309.5 137.5 -284.5" fill="#eee" stroke="transparent"/>
<polygon points="19.5 -284.5 19.5 -309.5 137.5 -309.5 137.5 -284.5" fill="none" stroke="#000"/>
<text x="22.5" y="-292.9" font-family="Times,serif" font-size="17">l_artist_work</text>
<polygon points="19.5 -263.5 19.5 -284.5 137.5 -284.5 137.5 -263.5" fill="#f0976c" stroke="transparent"/>
<polygon points="19.5 -263.5 19.5 -284.5 137.5 -284.5 137.5 -263.5" fill="none" stroke="#000"/>
<text x="22.5" y="-271.3" font-family="Times,serif" font-size="14" text-decoration="underline">id</text>
<polygon points="19.5 -242.5 19.5 -263.5 137.5 -263.5 137.5 -242.5" fill="#f8d1be" stroke="transparent"/>
<polygon points="19.5 -242.5 19.5 -263.5 137.5 -263.5 137.5 -242.5" fill="none" stroke="#000"/>
<text x="22.5" y="-249.3" font-family="Times,serif" font-size="14">link</text>
<polygon points="19.5 -221.5 19.5 -242.5 137.5 -242.5 137.5 -221.5" fill="#f8d1be" stroke="transparent"/>
<polygon points="19.5 -221.5 19.5 -242.5 137.5 -242.5 137.5 -221.5" fill="none" stroke="#000"/>
<text x="22.5" y="-228.3" font-family="Times,serif" font-size="14">entity0</text>
<polygon points="19.5 -200.5 19.5 -221.5 137.5 -221.5 137.5 -200.5" fill="#f8d1be" stroke="transparent"/>
<polygon points="19.5 -200.5 19.5 -221.5 137.5 -221.5 137.5 -200.5" fill="none" stroke="#000"/>
<text x="22.5" y="-207.3" font-family="Times,serif" font-size="14">entity1</text>
<polygon points="19.5 -179.5 19.5 -200.5 137.5 -200.5 137.5 -179.5" fill="#eee" stroke="transparent"/>
<polygon points="19.5 -179.5 19.5 -200.5 137.5 -200.5 137.5 -179.5" fill="none" stroke="#000"/>
<text x="22.5" y="-186.3" font-family="Times,serif" font-size="14">...</text>
</g>
<!-- musicbrainz.l_artist_work&#45;&gt;musicbrainz.artist -->
<g class="edge">
<title>musicbrainz.l_artist_work:entity0-&gt;musicbrainz.artist:id</title>
<path d="m138.5-231.5c36.74 0 33.96-44.35 63.29-52.67" fill="none" stroke="#000"/>
<polygon points="201.63 -287.67 212 -285.5 202.54 -280.73" stroke="#000"/>
</g>
<!-- musicbrainz.link -->
<g class="node">
<title>musicbrainz.link</title>
<polygon points="220 -211.5 220 -236.5 259 -236.5 259 -211.5" fill="#eee" stroke="transparent"/>
<polygon points="220 -211.5 220 -236.5 259 -236.5 259 -211.5" fill="none" stroke="#000"/>
<text x="223" y="-219.9" font-family="Times,serif" font-size="17">link</text>
<polygon points="220 -190.5 220 -211.5 259 -211.5 259 -190.5" fill="#f0976c" stroke="transparent"/>
<polygon points="220 -190.5 220 -211.5 259 -211.5 259 -190.5" fill="none" stroke="#000"/>
<text x="223" y="-198.3" font-family="Times,serif" font-size="14" text-decoration="underline">id</text>
<polygon points="220 -169.5 220 -190.5 259 -190.5 259 -169.5" fill="#eee" stroke="transparent"/>
<polygon points="220 -169.5 220 -190.5 259 -190.5 259 -169.5" fill="none" stroke="#000"/>
<text x="223" y="-176.3" font-family="Times,serif" font-size="14">...</text>
</g>
<!-- musicbrainz.l_artist_work&#45;&gt;musicbrainz.link -->
<g class="edge">
<title>musicbrainz.l_artist_work:link-&gt;musicbrainz.link:id</title>
<path d="m138.5-253.5c39.15 0 38.2 44.28 70.46 51.89" fill="none" stroke="#000"/>
<polygon points="209.44 -205.07 219 -200.5 208.68 -198.12" stroke="#000"/>
</g>
<!-- musicbrainz.work -->
<g class="node">
<title>musicbrainz.work</title>
<polygon points="214 -126.5 214 -151.5 264 -151.5 264 -126.5" fill="#eb743b" stroke="transparent"/>
<polygon points="214 -126.5 214 -151.5 264 -151.5 264 -126.5" fill="none" stroke="#000"/>
<text x="217" y="-134.9" font-family="Times,serif" font-size="17">work</text>
<polygon points="214 -105.5 214 -126.5 264 -126.5 264 -105.5" fill="#f0976c" stroke="transparent"/>
<polygon points="214 -105.5 214 -126.5 264 -126.5 264 -105.5" fill="none" stroke="#000"/>
<text x="217" y="-113.3" font-family="Times,serif" font-size="14" text-decoration="underline">id</text>
<polygon points="214 -84.5 214 -105.5 264 -105.5 264 -84.5" fill="#eee" stroke="transparent"/>
<polygon points="214 -84.5 214 -105.5 264 -105.5 264 -84.5" fill="none" stroke="#000"/>
<text x="217" y="-91.3" font-family="Times,serif" font-size="14">...</text>
</g>
<!-- musicbrainz.l_artist_work&#45;&gt;musicbrainz.work -->
<g class="edge">
<title>musicbrainz.l_artist_work:entity1-&gt;musicbrainz.work:id</title>
<path d="m138.5-210.5c49.88 0 25.03 82.11 64.4 93.66" fill="none" stroke="#000"/>
<polygon points="203.55 -120.29 213 -115.5 202.63 -113.35" stroke="#000"/>
</g>
<!-- musicbrainz.l_recording_work -->
<g class="node">
<title>musicbrainz.l_recording_work</title>
<polygon points="0.5 -136.5 0.5 -161.5 157.5 -161.5 157.5 -136.5" fill="#eee" stroke="transparent"/>
<polygon points="0.5 -136.5 0.5 -161.5 157.5 -161.5 157.5 -136.5" fill="none" stroke="#000"/>
<text x="3.5" y="-144.9" font-family="Times,serif" font-size="17">l_recording_work</text>
<polygon points="0.5 -115.5 0.5 -136.5 157.5 -136.5 157.5 -115.5" fill="#f0976c" stroke="transparent"/>
<polygon points="0.5 -115.5 0.5 -136.5 157.5 -136.5 157.5 -115.5" fill="none" stroke="#000"/>
<text x="3.5" y="-123.3" font-family="Times,serif" font-size="14" text-decoration="underline">id</text>
<polygon points="0.5 -94.5 0.5 -115.5 157.5 -115.5 157.5 -94.5" fill="#f8d1be" stroke="transparent"/>
<polygon points="0.5 -94.5 0.5 -115.5 157.5 -115.5 157.5 -94.5" fill="none" stroke="#000"/>
<text x="3.5" y="-101.3" font-family="Times,serif" font-size="14">link</text>
<polygon points="0.5 -73.5 0.5 -94.5 157.5 -94.5 157.5 -73.5" fill="#f8d1be" stroke="transparent"/>
<polygon points="0.5 -73.5 0.5 -94.5 157.5 -94.5 157.5 -73.5" fill="none" stroke="#000"/>
<text x="3.5" y="-80.3" font-family="Times,serif" font-size="14">entity0</text>
<polygon points="0.5 -52.5 0.5 -73.5 157.5 -73.5 157.5 -52.5" fill="#f8d1be" stroke="transparent"/>
<polygon points="0.5 -52.5 0.5 -73.5 157.5 -73.5 157.5 -52.5" fill="none" stroke="#000"/>
<text x="3.5" y="-59.3" font-family="Times,serif" font-size="14">entity1</text>
<polygon points="0.5 -31.5 0.5 -52.5 157.5 -52.5 157.5 -31.5" fill="#eee" stroke="transparent"/>
<polygon points="0.5 -31.5 0.5 -52.5 157.5 -52.5 157.5 -31.5" fill="none" stroke="#000"/>
<text x="3.5" y="-38.3" font-family="Times,serif" font-size="14">...</text>
</g>
<!-- musicbrainz.l_recording_work&#45;&gt;musicbrainz.link -->
<g class="edge">
<title>musicbrainz.l_recording_work:link-&gt;musicbrainz.link:id</title>
<path d="m157-105.5c46.48 0 17.11-80.74 51.73-93.35" fill="none" stroke="#000"/>
<polygon points="208.57 -202.37 219 -200.5 209.68 -195.46" stroke="#000"/>
</g>
<!-- musicbrainz.recording -->
<g class="node">
<title>musicbrainz.recording</title>
<polygon points="193 -41.5 193 -66.5 285 -66.5 285 -41.5" fill="#eb743b" stroke="transparent"/>
<polygon points="193 -41.5 193 -66.5 285 -66.5 285 -41.5" fill="none" stroke="#000"/>
<text x="196" y="-49.9" font-family="Times,serif" font-size="17">recording</text>
<polygon points="193 -20.5 193 -41.5 285 -41.5 285 -20.5" fill="#f0976c" stroke="transparent"/>
<polygon points="193 -20.5 193 -41.5 285 -41.5 285 -20.5" fill="none" stroke="#000"/>
<text x="196" y="-28.3" font-family="Times,serif" font-size="14" text-decoration="underline">id</text>
<polygon points="193 0.5 193 -20.5 285 -20.5 285 0.5" fill="#eee" stroke="transparent"/>
<polygon points="193 0.5 193 -20.5 285 -20.5 285 0.5" fill="none" stroke="#000"/>
<text x="196" y="-6.3" font-family="Times,serif" font-size="14">...</text>
</g>
<!-- musicbrainz.l_recording_work&#45;&gt;musicbrainz.recording -->
<g class="edge">
<title>musicbrainz.l_recording_work:entity0-&gt;musicbrainz.recording:id</title>
<path d="m157-83.5c24.25 0 12.66 38.43 26.26 49.84" fill="none" stroke="#000"/>
<polygon points="184.57 -36.91 193 -30.5 182.41 -30.25" stroke="#000"/>
</g>
<!-- musicbrainz.l_recording_work&#45;&gt;musicbrainz.work -->
<g class="edge">
<title>musicbrainz.l_recording_work:entity1-&gt;musicbrainz.work:id</title>
<path d="m157-62.5c30.39 0 23.97-41.67 46.02-51.11" fill="none" stroke="#000"/>
<polygon points="202.52 -117.08 213 -115.5 203.82 -110.2" stroke="#000"/>
</g>
</g>
</svg>
