<?xml version="1.0" encoding="UTF-8"?>
<!DOCTYPE svg  PUBLIC '-//W3C//DTD SVG 1.1//EN'  'http://www.w3.org/Graphics/SVG/1.1/DTD/svg11.dtd'>
<!-- Generated by graphviz version 2.43.0 (0)
 -->
<!-- Title: genre_entity_details Pages: 1 -->
<svg width="355pt" height="529pt" viewBox="0 0 355 528.5" xmlns="http://www.w3.org/2000/svg" xmlns:xlink="http://www.w3.org/1999/xlink">
<g class="graph" transform="scale(1) translate(4 524.5)">
<title>genre_entity_details</title>
<a xlink:title="Tables for the “genre” entity type properties">
<defs>
<linearGradient id="l_0" x1="19.78" x2="327.22" y1="-392.38" y2="-128.12" gradientUnits="userSpaceOnUse">
<stop stop-color="#cb75ab" offset="0"/>
<stop stop-color="#f0976c" offset="1"/>
</linearGradient>
</defs>
<polygon points="-4 4 -4 -524.5 351 -524.5 351 4" fill="url(#l_0)" stroke="transparent"/>
</a>
<!-- annotation -->
<g class="node">
<title>annotation</title>
<polygon points="221.5 -495.5 221.5 -520.5 322.5 -520.5 322.5 -495.5" fill="#bbb" fill-opacity=".46667" stroke="transparent"/>
<polygon points="221.5 -495.5 221.5 -520.5 322.5 -520.5 322.5 -495.5" fill="none" stroke="#000"/>
<text x="224.5" y="-503.9" font-family="Times,serif" font-size="17">annotation</text>
<polygon points="221.5 -474.5 221.5 -495.5 322.5 -495.5 322.5 -474.5" fill="#eee" fill-opacity=".46667" stroke="transparent"/>
<polygon points="221.5 -474.5 221.5 -495.5 322.5 -495.5 322.5 -474.5" fill="none" stroke="#000"/>
<text x="224.5" y="-482.3" font-family="Times,serif" font-size="14" text-decoration="underline">id</text>
<polygon points="221.5 -453.5 221.5 -474.5 322.5 -474.5 322.5 -453.5" fill="#bbb" fill-opacity=".2" stroke="transparent"/>
<polygon points="221.5 -453.5 221.5 -474.5 322.5 -474.5 322.5 -453.5" fill="none" stroke="#000"/>
<text x="224.5" y="-460.3" font-family="Times,serif" font-size="14">editor</text>
<polygon points="221.5 -432.5 221.5 -453.5 322.5 -453.5 322.5 -432.5" fill="#bbb" fill-opacity=".2" stroke="transparent"/>
<polygon points="221.5 -432.5 221.5 -453.5 322.5 -453.5 322.5 -432.5" fill="none" stroke="#000"/>
<text x="224.5" y="-439.3" font-family="Times,serif" font-size="14">text</text>
<polygon points="221.5 -411.5 221.5 -432.5 322.5 -432.5 322.5 -411.5" fill="#bbb" fill-opacity=".2" stroke="transparent"/>
<polygon points="221.5 -411.5 221.5 -432.5 322.5 -432.5 322.5 -411.5" fill="none" stroke="#000"/>
<text x="224.5" y="-418.3" font-family="Times,serif" font-size="14">changelog</text>
<polygon points="221.5 -390.5 221.5 -411.5 322.5 -411.5 322.5 -390.5" fill="#bbb" fill-opacity=".2" stroke="transparent"/>
<polygon points="221.5 -390.5 221.5 -411.5 322.5 -411.5 322.5 -390.5" fill="none" stroke="#000"/>
<text x="224.5" y="-397.3" font-family="Times,serif" font-size="14">created</text>
</g>
<!-- genre -->
<g class="node">
<title>genre</title>
<polygon points="218.5 -346.5 218.5 -371.5 324.5 -371.5 324.5 -346.5" fill="#eee" fill-opacity=".73333" stroke="transparent"/>
<polygon points="218.5 -346.5 218.5 -371.5 324.5 -371.5 324.5 -346.5" fill="none" stroke="#000"/>
<text x="246" y="-354.9" font-family="Times,serif" font-size="17">genre</text>
<polygon points="218.5 -325.5 218.5 -346.5 324.5 -346.5 324.5 -325.5" fill="#eee" fill-opacity=".46667" stroke="transparent"/>
<polygon points="218.5 -325.5 218.5 -346.5 324.5 -346.5 324.5 -325.5" fill="none" stroke="#000"/>
<text x="221.5" y="-333.3" font-family="Times,serif" font-size="14" text-decoration="underline">id</text>
<polygon points="218.5 -304.5 218.5 -325.5 324.5 -325.5 324.5 -304.5" fill="#bbb" fill-opacity=".2" stroke="transparent"/>
<polygon points="218.5 -304.5 218.5 -325.5 324.5 -325.5 324.5 -304.5" fill="none" stroke="#000"/>
<text x="221.5" y="-311.3" font-family="Times,serif" font-size="14">gid</text>
<polygon points="218.5 -283.5 218.5 -304.5 324.5 -304.5 324.5 -283.5" fill="#bbb" fill-opacity=".2" stroke="transparent"/>
<polygon points="218.5 -283.5 218.5 -304.5 324.5 -304.5 324.5 -283.5" fill="none" stroke="#000"/>
<text x="221.5" y="-290.3" font-family="Times,serif" font-size="14">name</text>
<polygon points="218.5 -262.5 218.5 -283.5 324.5 -283.5 324.5 -262.5" fill="#bbb" fill-opacity=".2" stroke="transparent"/>
<polygon points="218.5 -262.5 218.5 -283.5 324.5 -283.5 324.5 -262.5" fill="none" stroke="#000"/>
<text x="221.5" y="-269.3" font-family="Times,serif" font-size="14">comment</text>
<polygon points="218.5 -241.5 218.5 -262.5 324.5 -262.5 324.5 -241.5" fill="#bbb" fill-opacity=".2" stroke="transparent"/>
<polygon points="218.5 -241.5 218.5 -262.5 324.5 -262.5 324.5 -241.5" fill="none" stroke="#000"/>
<text x="221.5" y="-248.3" font-family="Times,serif" font-size="14">edits_pending</text>
<polygon points="218.5 -220.5 218.5 -241.5 324.5 -241.5 324.5 -220.5" fill="#bbb" fill-opacity=".2" stroke="transparent"/>
<polygon points="218.5 -220.5 218.5 -241.5 324.5 -241.5 324.5 -220.5" fill="none" stroke="#000"/>
<text x="221.5" y="-227.3" font-family="Times,serif" font-size="14">last_updated</text>
</g>
<!-- genre_alias -->
<g class="node">
<title>genre_alias</title>
<polygon points="11 -335.5 11 -360.5 150 -360.5 150 -335.5" fill="#bbb" fill-opacity=".46667" stroke="transparent"/>
<polygon points="11 -335.5 11 -360.5 150 -360.5 150 -335.5" fill="none" stroke="#000"/>
<text x="30.5" y="-343.9" font-family="Times,serif" font-size="17">genre_alias</text>
<polygon points="11 -314.5 11 -335.5 150 -335.5 150 -314.5" fill="#eee" fill-opacity=".46667" stroke="transparent"/>
<polygon points="11 -314.5 11 -335.5 150 -335.5 150 -314.5" fill="none" stroke="#000"/>
<text x="14" y="-322.3" font-family="Times,serif" font-size="14" text-decoration="underline">id</text>
<polygon points="11 -293.5 11 -314.5 150 -314.5 150 -293.5" fill="#eee" fill-opacity=".33333" stroke="transparent"/>
<polygon points="11 -293.5 11 -314.5 150 -314.5 150 -293.5" fill="none" stroke="#000"/>
<text x="14" y="-300.3" font-family="Times,serif" font-size="14">genre</text>
<polygon points="11 -272.5 11 -293.5 150 -293.5 150 -272.5" fill="#bbb" fill-opacity=".2" stroke="transparent"/>
<polygon points="11 -272.5 11 -293.5 150 -293.5 150 -272.5" fill="none" stroke="#000"/>
<text x="14" y="-279.3" font-family="Times,serif" font-size="14">name</text>
<polygon points="11 -251.5 11 -272.5 150 -272.5 150 -251.5" fill="#bbb" fill-opacity=".2" stroke="transparent"/>
<polygon points="11 -251.5 11 -272.5 150 -272.5 150 -251.5" fill="none" stroke="#000"/>
<text x="14" y="-258.3" font-family="Times,serif" font-size="14">locale</text>
<polygon points="11 -230.5 11 -251.5 150 -251.5 150 -230.5" fill="#bbb" fill-opacity=".2" stroke="transparent"/>
<polygon points="11 -230.5 11 -251.5 150 -251.5 150 -230.5" fill="none" stroke="#000"/>
<text x="14" y="-237.3" font-family="Times,serif" font-size="14">edits_pending</text>
<polygon points="11 -209.5 11 -230.5 150 -230.5 150 -209.5" fill="#bbb" fill-opacity=".2" stroke="transparent"/>
<polygon points="11 -209.5 11 -230.5 150 -230.5 150 -209.5" fill="none" stroke="#000"/>
<text x="14" y="-216.3" font-family="Times,serif" font-size="14">last_updated</text>
<polygon points="11 -188.5 11 -209.5 150 -209.5 150 -188.5" fill="#eee" fill-opacity=".33333" stroke="transparent"/>
<polygon points="11 -188.5 11 -209.5 150 -209.5 150 -188.5" fill="none" stroke="#000"/>
<text x="14" y="-195.3" font-family="Times,serif" font-size="14">type</text>
<polygon points="11 -167.5 11 -188.5 150 -188.5 150 -167.5" fill="#bbb" fill-opacity=".2" stroke="transparent"/>
<polygon points="11 -167.5 11 -188.5 150 -188.5 150 -167.5" fill="none" stroke="#000"/>
<text x="14" y="-174.3" font-family="Times,serif" font-size="14">sort_name</text>
<polygon points="11 -146.5 11 -167.5 150 -167.5 150 -146.5" fill="#bbb" fill-opacity=".2" stroke="transparent"/>
<polygon points="11 -146.5 11 -167.5 150 -167.5 150 -146.5" fill="none" stroke="#000"/>
<text x="14" y="-153.3" font-family="Times,serif" font-size="14">begin_date_year</text>
<polygon points="11 -125.5 11 -146.5 150 -146.5 150 -125.5" fill="#bbb" fill-opacity=".2" stroke="transparent"/>
<polygon points="11 -125.5 11 -146.5 150 -146.5 150 -125.5" fill="none" stroke="#000"/>
<text x="14" y="-132.3" font-family="Times,serif" font-size="14">begin_date_month</text>
<polygon points="11 -104.5 11 -125.5 150 -125.5 150 -104.5" fill="#bbb" fill-opacity=".2" stroke="transparent"/>
<polygon points="11 -104.5 11 -125.5 150 -125.5 150 -104.5" fill="none" stroke="#000"/>
<text x="14" y="-111.3" font-family="Times,serif" font-size="14">begin_date_day</text>
<polygon points="11 -83.5 11 -104.5 150 -104.5 150 -83.5" fill="#bbb" fill-opacity=".2" stroke="transparent"/>
<polygon points="11 -83.5 11 -104.5 150 -104.5 150 -83.5" fill="none" stroke="#000"/>
<text x="14" y="-90.3" font-family="Times,serif" font-size="14">end_date_year</text>
<polygon points="11 -62.5 11 -83.5 150 -83.5 150 -62.5" fill="#bbb" fill-opacity=".2" stroke="transparent"/>
<polygon points="11 -62.5 11 -83.5 150 -83.5 150 -62.5" fill="none" stroke="#000"/>
<text x="14" y="-69.3" font-family="Times,serif" font-size="14">end_date_month</text>
<polygon points="11 -41.5 11 -62.5 150 -62.5 150 -41.5" fill="#bbb" fill-opacity=".2" stroke="transparent"/>
<polygon points="11 -41.5 11 -62.5 150 -62.5 150 -41.5" fill="none" stroke="#000"/>
<text x="14" y="-48.3" font-family="Times,serif" font-size="14">end_date_day</text>
<polygon points="11 -20.5 11 -41.5 150 -41.5 150 -20.5" fill="#bbb" fill-opacity=".2" stroke="transparent"/>
<polygon points="11 -20.5 11 -41.5 150 -41.5 150 -20.5" fill="none" stroke="#000"/>
<text x="14" y="-27.3" font-family="Times,serif" font-size="14">primary_for_locale</text>
<polygon points="11 0.5 11 -20.5 150 -20.5 150 0.5" fill="#bbb" fill-opacity=".2" stroke="transparent"/>
<polygon points="11 0.5 11 -20.5 150 -20.5 150 0.5" fill="none" stroke="#000"/>
<text x="14" y="-6.3" font-family="Times,serif" font-size="14">ended</text>
</g>
<!-- genre_alias&#45;&gt;genre -->
<g class="edge">
<title>genre_alias:genre-&gt;genre:id</title>
<path d="m151-304.5c29.08 0 33.09-25.16 56.49-30.86" fill="none" stroke="#000"/>
<polygon points="207.17 -338.85 217.5 -336.5 207.96 -331.89" stroke="#000"/>
</g>
<!-- genre_alias_type -->
<g class="node">
<title>genre_alias_type</title>
<polygon points="196.5 -177.5 196.5 -202.5 347.5 -202.5 347.5 -177.5" fill="#bbb" fill-opacity=".46667" stroke="transparent"/>
<polygon points="196.5 -177.5 196.5 -202.5 347.5 -202.5 347.5 -177.5" fill="none" stroke="#000"/>
<text x="199.5" y="-185.9" font-family="Times,serif" font-size="17">genre_alias_type</text>
<polygon points="196.5 -156.5 196.5 -177.5 347.5 -177.5 347.5 -156.5" fill="#eee" fill-opacity=".46667" stroke="transparent"/>
<polygon points="196.5 -156.5 196.5 -177.5 347.5 -177.5 347.5 -156.5" fill="none" stroke="#000"/>
<text x="199.5" y="-164.3" font-family="Times,serif" font-size="14" text-decoration="underline">id</text>
<polygon points="196.5 -135.5 196.5 -156.5 347.5 -156.5 347.5 -135.5" fill="#bbb" fill-opacity=".2" stroke="transparent"/>
<polygon points="196.5 -135.5 196.5 -156.5 347.5 -156.5 347.5 -135.5" fill="none" stroke="#000"/>
<text x="199.5" y="-142.3" font-family="Times,serif" font-size="14">name</text>
<polygon points="196.5 -114.5 196.5 -135.5 347.5 -135.5 347.5 -114.5" fill="#eee" fill-opacity=".33333" stroke="transparent"/>
<polygon points="196.5 -114.5 196.5 -135.5 347.5 -135.5 347.5 -114.5" fill="none" stroke="#000"/>
<text x="199.5" y="-121.3" font-family="Times,serif" font-size="14">parent</text>
<polygon points="196.5 -93.5 196.5 -114.5 347.5 -114.5 347.5 -93.5" fill="#bbb" fill-opacity=".2" stroke="transparent"/>
<polygon points="196.5 -93.5 196.5 -114.5 347.5 -114.5 347.5 -93.5" fill="none" stroke="#000"/>
<text x="199.5" y="-100.3" font-family="Times,serif" font-size="14">child_order</text>
<polygon points="196.5 -72.5 196.5 -93.5 347.5 -93.5 347.5 -72.5" fill="#bbb" fill-opacity=".2" stroke="transparent"/>
<polygon points="196.5 -72.5 196.5 -93.5 347.5 -93.5 347.5 -72.5" fill="none" stroke="#000"/>
<text x="199.5" y="-79.3" font-family="Times,serif" font-size="14">description</text>
<polygon points="196.5 -51.5 196.5 -72.5 347.5 -72.5 347.5 -51.5" fill="#bbb" fill-opacity=".2" stroke="transparent"/>
<polygon points="196.5 -51.5 196.5 -72.5 347.5 -72.5 347.5 -51.5" fill="none" stroke="#000"/>
<text x="199.5" y="-58.3" font-family="Times,serif" font-size="14">gid</text>
</g>
<!-- genre_alias&#45;&gt;genre_alias_type -->
<g class="edge">
<title>genre_alias:type-&gt;genre_alias_type:id</title>
<path d="m151-199.5c20.51 0 21.03 22.36 34.98 29.7" fill="none" stroke="#000"/>
<polygon points="187.04 -173.15 196 -167.5 185.47 -166.33" stroke="#000"/>
</g>
<!-- genre_annotation -->
<g class="node">
<title>genre_annotation</title>
<polygon points="0 -468.5 0 -493.5 160 -493.5 160 -468.5" fill="#bbb" fill-opacity=".46667" stroke="transparent"/>
<polygon points="0 -468.5 0 -493.5 160 -493.5 160 -468.5" fill="none" stroke="#000"/>
<text x="3" y="-476.9" font-family="Times,serif" font-size="17">genre_annotation</text>
<polygon points="0 -447.5 0 -468.5 160 -468.5 160 -447.5" fill="#eee" fill-opacity=".46667" stroke="transparent"/>
<polygon points="0 -447.5 0 -468.5 160 -468.5 160 -447.5" fill="none" stroke="#000"/>
<text x="3" y="-455.3" font-family="Times,serif" font-size="14" text-decoration="underline">genre</text>
<polygon points="0 -426.5 0 -447.5 160 -447.5 160 -426.5" fill="#eee" fill-opacity=".46667" stroke="transparent"/>
<polygon points="0 -426.5 0 -447.5 160 -447.5 160 -426.5" fill="none" stroke="#000"/>
<text x="3" y="-434.3" font-family="Times,serif" font-size="14" text-decoration="underline">annotation</text>
</g>
<!-- genre_annotation&#45;&gt;annotation -->
<g class="edge">
<title>genre_annotation:annotation-&gt;annotation:id</title>
<path d="m160-436.5c30.82 0 27.28-38.87 50.59-47.37" fill="none" stroke="#000"/>
<polygon points="210.06 -487.33 220.5 -485.5 211.2 -480.42" stroke="#000"/>
</g>
<!-- genre_annotation&#45;&gt;genre -->
<g class="edge">
<title>genre_annotation:genre-&gt;genre:id</title>
<path d="m160-457.5c55.7 0 5.39 105.91 47.43 119.56" fill="none" stroke="#000"/>
<polygon points="208.1 -341.38 217.5 -336.5 207.1 -334.45" stroke="#000"/>
</g>
</g>
</svg>
