<?xml version="1.0" encoding="UTF-8"?>
<!-- Generated by graphviz version 2.43.0 (0)
 -->
<!-- Title: place_entity_details Pages: 1 -->
<svg width="493pt" height="834pt" inkscape:version="1.2.1 (9c6d41e410, 2022-07-14)" sodipodi:docname="place_entity_details.svg" version="1.1" viewBox="0 0 493 833.5" xmlns="http://www.w3.org/2000/svg" xmlns:inkscape="http://www.inkscape.org/namespaces/inkscape" xmlns:sodipodi="http://sodipodi.sourceforge.net/DTD/sodipodi-0.dtd" xmlns:xlink="http://www.w3.org/1999/xlink">
<sodipodi:namedview bordercolor="#666666" borderopacity="1.0" inkscape:current-layer="svg3363" inkscape:cx="471.77751" inkscape:cy="465.19763" inkscape:deskcolor="#d1d1d1" inkscape:document-units="pt" inkscape:pagecheckerboard="0" inkscape:pageopacity="0.0" inkscape:showpageshadow="2" inkscape:window-height="1034" inkscape:window-maximized="1" inkscape:window-width="1920" inkscape:window-x="-4" inkscape:window-y="-4" inkscape:zoom="0.75989209" pagecolor="#ffffff" showgrid="false"/>
<g class="graph" transform="scale(1) translate(4 829.5)">
<title>place_entity_details</title>
<a xlink:title="Tables for the “place” entity type properties">
<defs>
<linearGradient id="l_0" x1="29.02" x2="455.98" y1="-621.13" y2="-204.37" gradientUnits="userSpaceOnUse">
<stop stop-color="#cb75ab" offset="0"/>
<stop stop-color="#f0976c" offset="1"/>
</linearGradient>
</defs>
<polygon points="-4 4 -4 -829.5 489 -829.5 489 4" fill="url(#l_0)" stroke="transparent"/>
</a>
<!-- annotation -->
<g class="node">
<title>annotation</title>
<polygon points="226 -781 226 -806 327 -806 327 -781" fill="#bbb" fill-opacity=".46667" stroke="transparent"/>
<polygon points="226 -781 226 -806 327 -806 327 -781" fill="none" stroke="#000"/>
<text x="229" y="-789.4" font-family="Times,serif" font-size="17">annotation</text>
<polygon points="226 -760 226 -781 327 -781 327 -760" fill="#eee" fill-opacity=".46667" stroke="transparent"/>
<polygon points="226 -760 226 -781 327 -781 327 -760" fill="none" stroke="#000"/>
<text x="229" y="-767.8" font-family="Times,serif" font-size="14" text-decoration="underline">id</text>
<polygon points="226 -739 226 -760 327 -760 327 -739" fill="#bbb" fill-opacity=".2" stroke="transparent"/>
<polygon points="226 -739 226 -760 327 -760 327 -739" fill="none" stroke="#000"/>
<text x="229" y="-745.8" font-family="Times,serif" font-size="14">editor</text>
<polygon points="226 -718 226 -739 327 -739 327 -718" fill="#bbb" fill-opacity=".2" stroke="transparent"/>
<polygon points="226 -718 226 -739 327 -739 327 -718" fill="none" stroke="#000"/>
<text x="229" y="-724.8" font-family="Times,serif" font-size="14">text</text>
<polygon points="226 -697 226 -718 327 -718 327 -697" fill="#bbb" fill-opacity=".2" stroke="transparent"/>
<polygon points="226 -697 226 -718 327 -718 327 -697" fill="none" stroke="#000"/>
<text x="229" y="-703.8" font-family="Times,serif" font-size="14">changelog</text>
<polygon points="226 -676 226 -697 327 -697 327 -676" fill="#bbb" fill-opacity=".2" stroke="transparent"/>
<polygon points="226 -676 226 -697 327 -697 327 -676" fill="none" stroke="#000"/>
<text x="229" y="-682.8" font-family="Times,serif" font-size="14">created</text>
</g>
<!-- area -->
<g class="node">
<title>area</title>
<polygon points="412.5 -465 412.5 -490 458.5 -490 458.5 -465" fill="#bbb" fill-opacity=".46667" stroke="transparent"/>
<polygon points="412.5 -465 412.5 -490 458.5 -490 458.5 -465" fill="none" stroke="#000"/>
<text x="415.5" y="-473.4" font-family="Times,serif" font-size="17">area</text>
<polygon points="412.5 -444 412.5 -465 458.5 -465 458.5 -444" fill="#eee" fill-opacity=".46667" stroke="transparent"/>
<polygon points="412.5 -444 412.5 -465 458.5 -465 458.5 -444" fill="none" stroke="#000"/>
<text x="415.5" y="-451.8" font-family="Times,serif" font-size="14" text-decoration="underline">id</text>
<polygon points="412.5 -423 412.5 -444 458.5 -444 458.5 -423" fill="#bbb" fill-opacity=".2" stroke="transparent"/>
<polygon points="412.5 -423 412.5 -444 458.5 -444 458.5 -423" fill="none" stroke="#000"/>
<text x="415.5" y="-429.8" font-family="Times,serif" font-size="14">...</text>
</g>
<!-- place -->
<g class="node">
<title>place</title>
<polygon points="208 -633 208 -658 345 -658 345 -633" fill="#eee" fill-opacity=".73333" stroke="transparent"/>
<polygon points="208 -633 208 -658 345 -658 345 -633" fill="none" stroke="#000"/>
<text x="253" y="-641.4" font-family="Times,serif" font-size="17">place</text>
<polygon points="208 -612 208 -633 345 -633 345 -612" fill="#eee" fill-opacity=".46667" stroke="transparent"/>
<polygon points="208 -612 208 -633 345 -633 345 -612" fill="none" stroke="#000"/>
<text x="211" y="-619.8" font-family="Times,serif" font-size="14" text-decoration="underline">id</text>
<polygon points="208 -591 208 -612 345 -612 345 -591" fill="#bbb" fill-opacity=".2" stroke="transparent"/>
<polygon points="208 -591 208 -612 345 -612 345 -591" fill="none" stroke="#000"/>
<text x="211" y="-597.8" font-family="Times,serif" font-size="14">gid</text>
<polygon points="208 -570 208 -591 345 -591 345 -570" fill="#bbb" fill-opacity=".2" stroke="transparent"/>
<polygon points="208 -570 208 -591 345 -591 345 -570" fill="none" stroke="#000"/>
<text x="211" y="-576.8" font-family="Times,serif" font-size="14">name</text>
<polygon points="208 -549 208 -570 345 -570 345 -549" fill="#eee" fill-opacity=".33333" stroke="transparent"/>
<polygon points="208 -549 208 -570 345 -570 345 -549" fill="none" stroke="#000"/>
<text x="211" y="-555.8" font-family="Times,serif" font-size="14">type</text>
<polygon points="208 -528 208 -549 345 -549 345 -528" fill="#bbb" fill-opacity=".2" stroke="transparent"/>
<polygon points="208 -528 208 -549 345 -549 345 -528" fill="none" stroke="#000"/>
<text x="211" y="-534.8" font-family="Times,serif" font-size="14">address</text>
<polygon points="208 -507 208 -528 345 -528 345 -507" fill="#eee" fill-opacity=".33333" stroke="transparent"/>
<polygon points="208 -507 208 -528 345 -528 345 -507" fill="none" stroke="#000"/>
<text x="211" y="-513.8" font-family="Times,serif" font-size="14">area</text>
<polygon points="208 -486 208 -507 345 -507 345 -486" fill="#bbb" fill-opacity=".2" stroke="transparent"/>
<polygon points="208 -486 208 -507 345 -507 345 -486" fill="none" stroke="#000"/>
<text x="211" y="-492.8" font-family="Times,serif" font-size="14">coordinates</text>
<polygon points="208 -465 208 -486 345 -486 345 -465" fill="#bbb" fill-opacity=".2" stroke="transparent"/>
<polygon points="208 -465 208 -486 345 -486 345 -465" fill="none" stroke="#000"/>
<text x="211" y="-471.8" font-family="Times,serif" font-size="14">comment</text>
<polygon points="208 -444 208 -465 345 -465 345 -444" fill="#bbb" fill-opacity=".2" stroke="transparent"/>
<polygon points="208 -444 208 -465 345 -465 345 -444" fill="none" stroke="#000"/>
<text x="211" y="-450.8" font-family="Times,serif" font-size="14">edits_pending</text>
<polygon points="208 -423 208 -444 345 -444 345 -423" fill="#bbb" fill-opacity=".2" stroke="transparent"/>
<polygon points="208 -423 208 -444 345 -444 345 -423" fill="none" stroke="#000"/>
<text x="211" y="-429.8" font-family="Times,serif" font-size="14">last_updated</text>
<polygon points="208 -402 208 -423 345 -423 345 -402" fill="#bbb" fill-opacity=".2" stroke="transparent"/>
<polygon points="208 -402 208 -423 345 -423 345 -402" fill="none" stroke="#000"/>
<text x="211" y="-408.8" font-family="Times,serif" font-size="14">begin_date_year</text>
<polygon points="208 -381 208 -402 345 -402 345 -381" fill="#bbb" fill-opacity=".2" stroke="transparent"/>
<polygon points="208 -381 208 -402 345 -402 345 -381" fill="none" stroke="#000"/>
<text x="211" y="-387.8" font-family="Times,serif" font-size="14">begin_date_month</text>
<polygon points="208 -360 208 -381 345 -381 345 -360" fill="#bbb" fill-opacity=".2" stroke="transparent"/>
<polygon points="208 -360 208 -381 345 -381 345 -360" fill="none" stroke="#000"/>
<text x="211" y="-366.8" font-family="Times,serif" font-size="14">begin_date_day</text>
<polygon points="208 -339 208 -360 345 -360 345 -339" fill="#bbb" fill-opacity=".2" stroke="transparent"/>
<polygon points="208 -339 208 -360 345 -360 345 -339" fill="none" stroke="#000"/>
<text x="211" y="-345.8" font-family="Times,serif" font-size="14">end_date_year</text>
<polygon points="208 -318 208 -339 345 -339 345 -318" fill="#bbb" fill-opacity=".2" stroke="transparent"/>
<polygon points="208 -318 208 -339 345 -339 345 -318" fill="none" stroke="#000"/>
<text x="211" y="-324.8" font-family="Times,serif" font-size="14">end_date_month</text>
<polygon points="208 -297 208 -318 345 -318 345 -297" fill="#bbb" fill-opacity=".2" stroke="transparent"/>
<polygon points="208 -297 208 -318 345 -318 345 -297" fill="none" stroke="#000"/>
<text x="211" y="-303.8" font-family="Times,serif" font-size="14">end_date_day</text>
<polygon points="208 -276 208 -297 345 -297 345 -276" fill="#bbb" fill-opacity=".2" stroke="transparent"/>
<polygon points="208 -276 208 -297 345 -297 345 -276" fill="none" stroke="#000"/>
<text x="211" y="-282.8" font-family="Times,serif" font-size="14">ended</text>
</g>
<!-- place&#45;&gt;area -->
<g class="edge">
<title>place:area-&gt;area:id</title>
<path d="m346-518c36.88 0 27.28 52.56 55.45 62.42" fill="none" stroke="#000"/>
<polygon points="402.17 -459.01 411.5 -454 401.08 -452.1" stroke="#000"/>
</g>
<!-- place_type -->
<g class="node">
<title>place_type</title>
<polygon points="386.5 -634 386.5 -659 485.5 -659 485.5 -634" fill="#bbb" fill-opacity=".46667" stroke="transparent"/>
<polygon points="386.5 -634 386.5 -659 485.5 -659 485.5 -634" fill="none" stroke="#000"/>
<text x="389.5" y="-642.4" font-family="Times,serif" font-size="17">place_type</text>
<polygon points="386.5 -613 386.5 -634 485.5 -634 485.5 -613" fill="#eee" fill-opacity=".46667" stroke="transparent"/>
<polygon points="386.5 -613 386.5 -634 485.5 -634 485.5 -613" fill="none" stroke="#000"/>
<text x="389.5" y="-620.8" font-family="Times,serif" font-size="14" text-decoration="underline">id</text>
<polygon points="386.5 -592 386.5 -613 485.5 -613 485.5 -592" fill="#bbb" fill-opacity=".2" stroke="transparent"/>
<polygon points="386.5 -592 386.5 -613 485.5 -613 485.5 -592" fill="none" stroke="#000"/>
<text x="389.5" y="-598.8" font-family="Times,serif" font-size="14">name</text>
<polygon points="386.5 -571 386.5 -592 485.5 -592 485.5 -571" fill="#eee" fill-opacity=".33333" stroke="transparent"/>
<polygon points="386.5 -571 386.5 -592 485.5 -592 485.5 -571" fill="none" stroke="#000"/>
<text x="389.5" y="-577.8" font-family="Times,serif" font-size="14">parent</text>
<polygon points="386.5 -550 386.5 -571 485.5 -571 485.5 -550" fill="#bbb" fill-opacity=".2" stroke="transparent"/>
<polygon points="386.5 -550 386.5 -571 485.5 -571 485.5 -550" fill="none" stroke="#000"/>
<text x="389.5" y="-556.8" font-family="Times,serif" font-size="14">child_order</text>
<polygon points="386.5 -529 386.5 -550 485.5 -550 485.5 -529" fill="#bbb" fill-opacity=".2" stroke="transparent"/>
<polygon points="386.5 -529 386.5 -550 485.5 -550 485.5 -529" fill="none" stroke="#000"/>
<text x="389.5" y="-535.8" font-family="Times,serif" font-size="14">description</text>
<polygon points="386.5 -508 386.5 -529 485.5 -529 485.5 -508" fill="#bbb" fill-opacity=".2" stroke="transparent"/>
<polygon points="386.5 -508 386.5 -529 485.5 -529 485.5 -508" fill="none" stroke="#000"/>
<text x="389.5" y="-514.8" font-family="Times,serif" font-size="14">gid</text>
</g>
<!-- place&#45;&gt;place_type -->
<g class="edge">
<title>place:type-&gt;place_type:id</title>
<path d="m346-560c29.48 0 12.13-49.44 30.27-61.41" fill="none" stroke="#000"/>
<polygon points="375.44 -624.81 386 -624 377.24 -618.05" stroke="#000"/>
</g>
<!-- place_alias -->
<g class="node">
<title>place_alias</title>
<polygon points="14 -488 14 -513 153 -513 153 -488" fill="#bbb" fill-opacity=".46667" stroke="transparent"/>
<polygon points="14 -488 14 -513 153 -513 153 -488" fill="none" stroke="#000"/>
<text x="35.5" y="-496.4" font-family="Times,serif" font-size="17">place_alias</text>
<polygon points="14 -467 14 -488 153 -488 153 -467" fill="#eee" fill-opacity=".46667" stroke="transparent"/>
<polygon points="14 -467 14 -488 153 -488 153 -467" fill="none" stroke="#000"/>
<text x="17" y="-474.8" font-family="Times,serif" font-size="14" text-decoration="underline">id</text>
<polygon points="14 -446 14 -467 153 -467 153 -446" fill="#eee" fill-opacity=".33333" stroke="transparent"/>
<polygon points="14 -446 14 -467 153 -467 153 -446" fill="none" stroke="#000"/>
<text x="17" y="-452.8" font-family="Times,serif" font-size="14">place</text>
<polygon points="14 -425 14 -446 153 -446 153 -425" fill="#bbb" fill-opacity=".2" stroke="transparent"/>
<polygon points="14 -425 14 -446 153 -446 153 -425" fill="none" stroke="#000"/>
<text x="17" y="-431.8" font-family="Times,serif" font-size="14">name</text>
<polygon points="14 -404 14 -425 153 -425 153 -404" fill="#bbb" fill-opacity=".2" stroke="transparent"/>
<polygon points="14 -404 14 -425 153 -425 153 -404" fill="none" stroke="#000"/>
<text x="17" y="-410.8" font-family="Times,serif" font-size="14">locale</text>
<polygon points="14 -383 14 -404 153 -404 153 -383" fill="#bbb" fill-opacity=".2" stroke="transparent"/>
<polygon points="14 -383 14 -404 153 -404 153 -383" fill="none" stroke="#000"/>
<text x="17" y="-389.8" font-family="Times,serif" font-size="14">edits_pending</text>
<polygon points="14 -362 14 -383 153 -383 153 -362" fill="#bbb" fill-opacity=".2" stroke="transparent"/>
<polygon points="14 -362 14 -383 153 -383 153 -362" fill="none" stroke="#000"/>
<text x="17" y="-368.8" font-family="Times,serif" font-size="14">last_updated</text>
<polygon points="14 -341 14 -362 153 -362 153 -341" fill="#eee" fill-opacity=".33333" stroke="transparent"/>
<polygon points="14 -341 14 -362 153 -362 153 -341" fill="none" stroke="#000"/>
<text x="17" y="-347.8" font-family="Times,serif" font-size="14">type</text>
<polygon points="14 -320 14 -341 153 -341 153 -320" fill="#bbb" fill-opacity=".2" stroke="transparent"/>
<polygon points="14 -320 14 -341 153 -341 153 -320" fill="none" stroke="#000"/>
<text x="17" y="-326.8" font-family="Times,serif" font-size="14">sort_name</text>
<polygon points="14 -299 14 -320 153 -320 153 -299" fill="#bbb" fill-opacity=".2" stroke="transparent"/>
<polygon points="14 -299 14 -320 153 -320 153 -299" fill="none" stroke="#000"/>
<text x="17" y="-305.8" font-family="Times,serif" font-size="14">begin_date_year</text>
<polygon points="14 -278 14 -299 153 -299 153 -278" fill="#bbb" fill-opacity=".2" stroke="transparent"/>
<polygon points="14 -278 14 -299 153 -299 153 -278" fill="none" stroke="#000"/>
<text x="17" y="-284.8" font-family="Times,serif" font-size="14">begin_date_month</text>
<polygon points="14 -257 14 -278 153 -278 153 -257" fill="#bbb" fill-opacity=".2" stroke="transparent"/>
<polygon points="14 -257 14 -278 153 -278 153 -257" fill="none" stroke="#000"/>
<text x="17" y="-263.8" font-family="Times,serif" font-size="14">begin_date_day</text>
<polygon points="14 -236 14 -257 153 -257 153 -236" fill="#bbb" fill-opacity=".2" stroke="transparent"/>
<polygon points="14 -236 14 -257 153 -257 153 -236" fill="none" stroke="#000"/>
<text x="17" y="-242.8" font-family="Times,serif" font-size="14">end_date_year</text>
<polygon points="14 -215 14 -236 153 -236 153 -215" fill="#bbb" fill-opacity=".2" stroke="transparent"/>
<polygon points="14 -215 14 -236 153 -236 153 -215" fill="none" stroke="#000"/>
<text x="17" y="-221.8" font-family="Times,serif" font-size="14">end_date_month</text>
<polygon points="14 -194 14 -215 153 -215 153 -194" fill="#bbb" fill-opacity=".2" stroke="transparent"/>
<polygon points="14 -194 14 -215 153 -215 153 -194" fill="none" stroke="#000"/>
<text x="17" y="-200.8" font-family="Times,serif" font-size="14">end_date_day</text>
<polygon points="14 -173 14 -194 153 -194 153 -173" fill="#bbb" fill-opacity=".2" stroke="transparent"/>
<polygon points="14 -173 14 -194 153 -194 153 -173" fill="none" stroke="#000"/>
<text x="17" y="-179.8" font-family="Times,serif" font-size="14">primary_for_locale</text>
<polygon points="14 -152 14 -173 153 -173 153 -152" fill="#bbb" fill-opacity=".2" stroke="transparent"/>
<polygon points="14 -152 14 -173 153 -173 153 -152" fill="none" stroke="#000"/>
<text x="17" y="-158.8" font-family="Times,serif" font-size="14">ended</text>
</g>
<!-- place_alias&#45;&gt;place -->
<g class="edge">
<title>place_alias:place-&gt;place:id</title>
<path d="m154-457c28.422 0 10.174-154.17 44.183-163.28" fill="none" stroke="#000" sodipodi:nodetypes="cc"/>
<polygon points="196.67 -625.35 207 -623 197.46 -618.39" stroke="#000"/>
</g>
<!-- place_alias_type -->
<g class="node">
<title>place_alias_type</title>
<polygon points="202 -232 202 -257 350 -257 350 -232" fill="#bbb" fill-opacity=".46667" stroke="transparent"/>
<polygon points="202 -232 202 -257 350 -257 350 -232" fill="none" stroke="#000"/>
<text x="205" y="-240.4" font-family="Times,serif" font-size="17">place_alias_type</text>
<polygon points="202 -211 202 -232 350 -232 350 -211" fill="#eee" fill-opacity=".46667" stroke="transparent"/>
<polygon points="202 -211 202 -232 350 -232 350 -211" fill="none" stroke="#000"/>
<text x="205" y="-218.8" font-family="Times,serif" font-size="14" text-decoration="underline">id</text>
<polygon points="202 -190 202 -211 350 -211 350 -190" fill="#bbb" fill-opacity=".2" stroke="transparent"/>
<polygon points="202 -190 202 -211 350 -211 350 -190" fill="none" stroke="#000"/>
<text x="205" y="-196.8" font-family="Times,serif" font-size="14">name</text>
<polygon points="202 -169 202 -190 350 -190 350 -169" fill="#eee" fill-opacity=".33333" stroke="transparent"/>
<polygon points="202 -169 202 -190 350 -190 350 -169" fill="none" stroke="#000"/>
<text x="205" y="-175.8" font-family="Times,serif" font-size="14">parent</text>
<polygon points="202 -148 202 -169 350 -169 350 -148" fill="#bbb" fill-opacity=".2" stroke="transparent"/>
<polygon points="202 -148 202 -169 350 -169 350 -148" fill="none" stroke="#000"/>
<text x="205" y="-154.8" font-family="Times,serif" font-size="14">child_order</text>
<polygon points="202 -127 202 -148 350 -148 350 -127" fill="#bbb" fill-opacity=".2" stroke="transparent"/>
<polygon points="202 -127 202 -148 350 -148 350 -127" fill="none" stroke="#000"/>
<text x="205" y="-133.8" font-family="Times,serif" font-size="14">description</text>
<polygon points="202 -106 202 -127 350 -127 350 -106" fill="#bbb" fill-opacity=".2" stroke="transparent"/>
<polygon points="202 -106 202 -127 350 -127 350 -106" fill="none" stroke="#000"/>
<text x="205" y="-112.8" font-family="Times,serif" font-size="14">gid</text>
</g>
<!-- place_alias&#45;&gt;place_alias_type -->
<g class="edge">
<title>place_alias:type-&gt;place_alias_type:id</title>
<path d="m154-352c57.74 0-4.73 114.26 37.99 128.54" fill="none" stroke="#000"/>
<polygon points="192.61 -226.91 202 -222 191.6 -219.98" stroke="#000"/>
</g>
<!-- place_annotation -->
<g class="node">
<title>place_annotation</title>
<polygon points="5 -800 5 -825 161 -825 161 -800" fill="#bbb" fill-opacity=".46667" stroke="transparent"/>
<polygon points="5 -800 5 -825 161 -825 161 -800" fill="none" stroke="#000"/>
<text x="8" y="-808.4" font-family="Times,serif" font-size="17">place_annotation</text>
<polygon points="5 -779 5 -800 161 -800 161 -779" fill="#eee" fill-opacity=".46667" stroke="transparent"/>
<polygon points="5 -779 5 -800 161 -800 161 -779" fill="none" stroke="#000"/>
<text x="8" y="-786.8" font-family="Times,serif" font-size="14" text-decoration="underline">place</text>
<polygon points="5 -758 5 -779 161 -779 161 -758" fill="#eee" fill-opacity=".46667" stroke="transparent"/>
<polygon points="5 -758 5 -779 161 -779 161 -758" fill="none" stroke="#000"/>
<text x="8" y="-765.8" font-family="Times,serif" font-size="14" text-decoration="underline">annotation</text>
</g>
<!-- place_annotation&#45;&gt;annotation -->
<g class="edge">
<title>place_annotation:annotation-&gt;annotation:id</title>
<path d="m162-768c24.31 0 32.75-2.26 52.85-2.86" fill="none" stroke="#000"/>
<polygon points="214.95 -774.36 225 -771 215.05 -767.36" stroke="#000"/>
</g>
<!-- place_annotation&#45;&gt;place -->
<g class="edge">
<title>place_annotation:place-&gt;place:id</title>
<path d="m162-789c72.56 0-20.96 149.57 34.73 164.76" fill="none" stroke="#000"/>
<polygon points="197.49 -627.67 207 -623 196.65 -620.73" stroke="#000"/>
</g>
<!-- place_gid_redirect -->
<g class="node">
<title>place_gid_redirect</title>
<polygon points="0 -604 0 -629 166 -629 166 -604" fill="#bbb" fill-opacity=".46667" stroke="transparent"/>
<polygon points="0 -604 0 -629 166 -629 166 -604" fill="none" stroke="#000"/>
<text x="3" y="-612.4" font-family="Times,serif" font-size="17">place_gid_redirect</text>
<polygon points="0 -583 0 -604 166 -604 166 -583" fill="#eee" fill-opacity=".46667" stroke="transparent"/>
<polygon points="0 -583 0 -604 166 -604 166 -583" fill="none" stroke="#000"/>
<text x="3" y="-590.8" font-family="Times,serif" font-size="14" text-decoration="underline">gid</text>
<polygon points="0 -562 0 -583 166 -583 166 -562" fill="#eee" fill-opacity=".33333" stroke="transparent"/>
<polygon points="0 -562 0 -583 166 -583 166 -562" fill="none" stroke="#000"/>
<text x="3" y="-568.8" font-family="Times,serif" font-size="14">new_id</text>
<polygon points="0 -541 0 -562 166 -562 166 -541" fill="#bbb" fill-opacity=".2" stroke="transparent"/>
<polygon points="0 -541 0 -562 166 -562 166 -541" fill="none" stroke="#000"/>
<text x="3" y="-547.8" font-family="Times,serif" font-size="14">created</text>
</g>
<!-- place_gid_redirect&#45;&gt;place -->
<g class="edge">
<title>place_gid_redirect:new_id-&gt;place:id</title>
<path d="m166-572c18.583 0 1.0915-48.26 31.22-48.26" fill="none" stroke="#000" sodipodi:nodetypes="cc"/>
<polygon points="196.43 -623.67 207 -623 198.32 -616.93" stroke="#000"/>
</g>
<!-- place_meta -->
<g class="node">
<title>place_meta</title>
<polygon points="31 -710 31 -735 135 -735 135 -710" fill="#bbb" fill-opacity=".46667" stroke="transparent"/>
<polygon points="31 -710 31 -735 135 -735 135 -710" fill="none" stroke="#000"/>
<text x="34" y="-718.4" font-family="Times,serif" font-size="17">place_meta</text>
<polygon points="31 -689 31 -710 135 -710 135 -689" fill="#eee" fill-opacity=".46667" stroke="transparent"/>
<polygon points="31 -689 31 -710 135 -710 135 -689" fill="none" stroke="#000"/>
<text x="34" y="-696.8" font-family="Times,serif" font-size="14" text-decoration="underline">id</text>
<polygon points="31 -668 31 -689 135 -689 135 -668" fill="#bbb" fill-opacity=".2" stroke="transparent"/>
<polygon points="31 -668 31 -689 135 -689 135 -668" fill="none" stroke="#000"/>
<text x="34" y="-674.8" font-family="Times,serif" font-size="14">rating</text>
<polygon points="31 -647 31 -668 135 -668 135 -647" fill="#bbb" fill-opacity=".2" stroke="transparent"/>
<polygon points="31 -647 31 -668 135 -668 135 -647" fill="none" stroke="#000"/>
<text x="34" y="-653.8" font-family="Times,serif" font-size="14">rating_count</text>
</g>
<!-- place_meta&#45;&gt;place -->
<g class="edge">
<title>place_meta:id-&gt;place:id</title>
<path d="m136-700c42.73 0 28.163 72.548 60.85 75.53" fill="none" stroke="#000" sodipodi:nodetypes="cc"/>
<polygon points="197.6 -627.9 207 -623 196.6 -620.97" stroke="#000"/>
</g>
<!-- place_tag -->
<g class="node">
<title>place_tag</title>
<polygon points="34 -88 34 -113 132 -113 132 -88" fill="#bbb" fill-opacity=".46667" stroke="transparent"/>
<polygon points="34 -88 34 -113 132 -113 132 -88" fill="none" stroke="#000"/>
<text x="41" y="-96.4" font-family="Times,serif" font-size="17">place_tag</text>
<polygon points="34 -67 34 -88 132 -88 132 -67" fill="#eee" fill-opacity=".46667" stroke="transparent"/>
<polygon points="34 -67 34 -88 132 -88 132 -67" fill="none" stroke="#000"/>
<text x="37" y="-74.8" font-family="Times,serif" font-size="14" text-decoration="underline">place</text>
<polygon points="34 -46 34 -67 132 -67 132 -46" fill="#eee" fill-opacity=".46667" stroke="transparent"/>
<polygon points="34 -46 34 -67 132 -67 132 -46" fill="none" stroke="#000"/>
<text x="37" y="-53.8" font-family="Times,serif" font-size="14" text-decoration="underline">tag</text>
<polygon points="34 -25 34 -46 132 -46 132 -25" fill="#bbb" fill-opacity=".2" stroke="transparent"/>
<polygon points="34 -25 34 -46 132 -46 132 -25" fill="none" stroke="#000"/>
<text x="37" y="-31.8" font-family="Times,serif" font-size="14">count</text>
<polygon points="34 -4 34 -25 132 -25 132 -4" fill="#bbb" fill-opacity=".2" stroke="transparent"/>
<polygon points="34 -4 34 -25 132 -25 132 -4" fill="none" stroke="#000"/>
<text x="37" y="-10.8" font-family="Times,serif" font-size="14">last_updated</text>
</g>
<!-- place_tag&#45;&gt;place -->
<g class="edge">
<title>place_tag:place-&gt;place:id</title>
<path d="m133-78c19.627 0 24.11-3.2263 33-34.796 13.58-48.2-8.6624-462 32.458-509.17" fill="none" stroke="#000" sodipodi:nodetypes="ccc"/>
<polygon points="196.52 -621.42 207 -623 199.8 -615.23" stroke="#000"/>
</g>
<!-- tag -->
<g class="node">
<title>tag</title>
<polygon points="240 -63 240 -88 313 -88 313 -63" fill="#bbb" fill-opacity=".46667" stroke="transparent"/>
<polygon points="240 -63 240 -88 313 -88 313 -63" fill="none" stroke="#000"/>
<text x="262" y="-71.4" font-family="Times,serif" font-size="17">tag</text>
<polygon points="240 -42 240 -63 313 -63 313 -42" fill="#eee" fill-opacity=".46667" stroke="transparent"/>
<polygon points="240 -42 240 -63 313 -63 313 -42" fill="none" stroke="#000"/>
<text x="243" y="-49.8" font-family="Times,serif" font-size="14" text-decoration="underline">id</text>
<polygon points="240 -21 240 -42 313 -42 313 -21" fill="#bbb" fill-opacity=".2" stroke="transparent"/>
<polygon points="240 -21 240 -42 313 -42 313 -21" fill="none" stroke="#000"/>
<text x="243" y="-27.8" font-family="Times,serif" font-size="14">name</text>
<polygon points="240 0 240 -21 313 -21 313 0" fill="#bbb" fill-opacity=".2" stroke="transparent"/>
<polygon points="240 0 240 -21 313 -21 313 0" fill="none" stroke="#000"/>
<text x="243" y="-6.8" font-family="Times,serif" font-size="14">ref_count</text>
</g>
<!-- place_tag&#45;&gt;tag -->
<g class="edge">
<title>place_tag:tag-&gt;tag:id</title>
<path d="m133-56c43.45 0 56.82 2.55 95.57 2.95" fill="none" stroke="#000"/>
<polygon points="229.02 -56.55 239 -53 228.98 -49.55" stroke="#000"/>
</g>
</g>
</svg>
