<?xml version="1.0" encoding="UTF-8"?>
<!-- Generated by graphviz version 2.43.0 (0)
 -->
<!-- Title: recording_entity_details Pages: 1 -->
<svg width="666pt" height="922pt" inkscape:version="1.2.1 (9c6d41e410, 2022-07-14)" sodipodi:docname="recording_entity_details.svg" version="1.1" viewBox="0 0 666 921.5" xmlns="http://www.w3.org/2000/svg" xmlns:inkscape="http://www.inkscape.org/namespaces/inkscape" xmlns:sodipodi="http://sodipodi.sourceforge.net/DTD/sodipodi-0.dtd" xmlns:xlink="http://www.w3.org/1999/xlink">
<sodipodi:namedview bordercolor="#666666" borderopacity="1.0" inkscape:current-layer="svg4024" inkscape:cx="355.70651" inkscape:cy="675.76963" inkscape:deskcolor="#d1d1d1" inkscape:document-units="pt" inkscape:pagecheckerboard="0" inkscape:pageopacity="0.0" inkscape:showpageshadow="2" inkscape:window-height="1034" inkscape:window-maximized="1" inkscape:window-width="1920" inkscape:window-x="-4" inkscape:window-y="-4" inkscape:zoom="0.68736443" pagecolor="#ffffff" showgrid="false"/>
<g class="graph" transform="scale(1) translate(4 917.5)">
<title>recording_entity_details</title>
<a xlink:title="Tables for the “recording” entity type properties">
<defs>
<linearGradient id="l_0" x1="40.61" x2="617.39" y1="-687.13" y2="-226.37" gradientUnits="userSpaceOnUse">
<stop stop-color="#cb75ab" offset="0"/>
<stop stop-color="#f0976c" offset="1"/>
</linearGradient>
</defs>
<polygon points="-4 4 -4 -917.5 662 -917.5 662 4" fill="url(#l_0)" stroke="transparent"/>
</a>
<!-- annotation -->
<g class="node">
<title>annotation</title>
<polygon points="366.5 -866 366.5 -891 467.5 -891 467.5 -866" fill="#bbb" fill-opacity=".46667" stroke="transparent"/>
<polygon points="366.5 -866 366.5 -891 467.5 -891 467.5 -866" fill="none" stroke="#000"/>
<text x="369.5" y="-874.4" font-family="Times,serif" font-size="17">annotation</text>
<polygon points="366.5 -845 366.5 -866 467.5 -866 467.5 -845" fill="#eee" fill-opacity=".46667" stroke="transparent"/>
<polygon points="366.5 -845 366.5 -866 467.5 -866 467.5 -845" fill="none" stroke="#000"/>
<text x="369.5" y="-852.8" font-family="Times,serif" font-size="14" text-decoration="underline">id</text>
<polygon points="366.5 -824 366.5 -845 467.5 -845 467.5 -824" fill="#bbb" fill-opacity=".2" stroke="transparent"/>
<polygon points="366.5 -824 366.5 -845 467.5 -845 467.5 -824" fill="none" stroke="#000"/>
<text x="369.5" y="-830.8" font-family="Times,serif" font-size="14">editor</text>
<polygon points="366.5 -803 366.5 -824 467.5 -824 467.5 -803" fill="#bbb" fill-opacity=".2" stroke="transparent"/>
<polygon points="366.5 -803 366.5 -824 467.5 -824 467.5 -803" fill="none" stroke="#000"/>
<text x="369.5" y="-809.8" font-family="Times,serif" font-size="14">text</text>
<polygon points="366.5 -782 366.5 -803 467.5 -803 467.5 -782" fill="#bbb" fill-opacity=".2" stroke="transparent"/>
<polygon points="366.5 -782 366.5 -803 467.5 -803 467.5 -782" fill="none" stroke="#000"/>
<text x="369.5" y="-788.8" font-family="Times,serif" font-size="14">changelog</text>
<polygon points="366.5 -761 366.5 -782 467.5 -782 467.5 -761" fill="#bbb" fill-opacity=".2" stroke="transparent"/>
<polygon points="366.5 -761 366.5 -782 467.5 -782 467.5 -761" fill="none" stroke="#000"/>
<text x="369.5" y="-767.8" font-family="Times,serif" font-size="14">created</text>
</g>
<!-- artist -->
<g class="node">
<title>artist</title>
<polygon points="576 -380 576 -405 629 -405 629 -380" fill="#bbb" fill-opacity=".46667" stroke="transparent"/>
<polygon points="576 -380 576 -405 629 -405 629 -380" fill="none" stroke="#000"/>
<text x="579" y="-388.4" font-family="Times,serif" font-size="17">artist</text>
<polygon points="576 -359 576 -380 629 -380 629 -359" fill="#eee" fill-opacity=".46667" stroke="transparent"/>
<polygon points="576 -359 576 -380 629 -380 629 -359" fill="none" stroke="#000"/>
<text x="579" y="-366.8" font-family="Times,serif" font-size="14" text-decoration="underline">id</text>
<polygon points="576 -338 576 -359 629 -359 629 -338" fill="#bbb" fill-opacity=".2" stroke="transparent"/>
<polygon points="576 -338 576 -359 629 -359 629 -338" fill="none" stroke="#000"/>
<text x="579" y="-344.8" font-family="Times,serif" font-size="14">...</text>
</g>
<!-- artist_credit -->
<g class="node">
<title>artist_credit</title>
<polygon points="546 -581 546 -606 658 -606 658 -581" fill="#bbb" fill-opacity=".46667" stroke="transparent"/>
<polygon points="546 -581 546 -606 658 -606 658 -581" fill="none" stroke="#000"/>
<text x="549" y="-589.4" font-family="Times,serif" font-size="17">artist_credit</text>
<polygon points="546 -560 546 -581 658 -581 658 -560" fill="#eee" fill-opacity=".46667" stroke="transparent"/>
<polygon points="546 -560 546 -581 658 -581 658 -560" fill="none" stroke="#000"/>
<text x="549" y="-567.8" font-family="Times,serif" font-size="14" text-decoration="underline">id</text>
<polygon points="546 -539 546 -560 658 -560 658 -539" fill="#bbb" fill-opacity=".2" stroke="transparent"/>
<polygon points="546 -539 546 -560 658 -560 658 -539" fill="none" stroke="#000"/>
<text x="549" y="-545.8" font-family="Times,serif" font-size="14">name</text>
<polygon points="546 -518 546 -539 658 -539 658 -518" fill="#bbb" fill-opacity=".2" stroke="transparent"/>
<polygon points="546 -518 546 -539 658 -539 658 -518" fill="none" stroke="#000"/>
<text x="549" y="-524.8" font-family="Times,serif" font-size="14">artist_count</text>
<polygon points="546 -497 546 -518 658 -518 658 -497" fill="#bbb" fill-opacity=".2" stroke="transparent"/>
<polygon points="546 -497 546 -518 658 -518 658 -497" fill="none" stroke="#000"/>
<text x="549" y="-503.8" font-family="Times,serif" font-size="14">ref_count</text>
<polygon points="546 -476 546 -497 658 -497 658 -476" fill="#bbb" fill-opacity=".2" stroke="transparent"/>
<polygon points="546 -476 546 -497 658 -497 658 -476" fill="none" stroke="#000"/>
<text x="549" y="-482.8" font-family="Times,serif" font-size="14">created</text>
<polygon points="546 -455 546 -476 658 -476 658 -455" fill="#bbb" fill-opacity=".2" stroke="transparent"/>
<polygon points="546 -455 546 -476 658 -476 658 -455" fill="none" stroke="#000"/>
<text x="549" y="-461.8" font-family="Times,serif" font-size="14">edits_pending</text>
<polygon points="546 -434 546 -455 658 -455 658 -434" fill="#bbb" fill-opacity=".2" stroke="transparent"/>
<polygon points="546 -434 546 -455 658 -455 658 -434" fill="none" stroke="#000"/>
<text x="549" y="-440.8" font-family="Times,serif" font-size="14">gid</text>
</g>
<!-- artist_credit_name -->
<g class="node">
<title>artist_credit_name</title>
<polygon points="332.5 -422 332.5 -447 500.5 -447 500.5 -422" fill="#bbb" fill-opacity=".46667" stroke="transparent"/>
<polygon points="332.5 -422 332.5 -447 500.5 -447 500.5 -422" fill="none" stroke="#000"/>
<text x="335.5" y="-430.4" font-family="Times,serif" font-size="17">artist_credit_name</text>
<polygon points="332.5 -401 332.5 -422 500.5 -422 500.5 -401" fill="#eee" fill-opacity=".46667" stroke="transparent"/>
<polygon points="332.5 -401 332.5 -422 500.5 -422 500.5 -401" fill="none" stroke="#000"/>
<text x="335.5" y="-408.8" font-family="Times,serif" font-size="14" text-decoration="underline">artist_credit</text>
<polygon points="332.5 -380 332.5 -401 500.5 -401 500.5 -380" fill="#eee" fill-opacity=".46667" stroke="transparent"/>
<polygon points="332.5 -380 332.5 -401 500.5 -401 500.5 -380" fill="none" stroke="#000"/>
<text x="335.5" y="-387.8" font-family="Times,serif" font-size="14" text-decoration="underline">position</text>
<polygon points="332.5 -359 332.5 -380 500.5 -380 500.5 -359" fill="#eee" fill-opacity=".33333" stroke="transparent"/>
<polygon points="332.5 -359 332.5 -380 500.5 -380 500.5 -359" fill="none" stroke="#000"/>
<text x="335.5" y="-365.8" font-family="Times,serif" font-size="14">artist</text>
<polygon points="332.5 -338 332.5 -359 500.5 -359 500.5 -338" fill="#bbb" fill-opacity=".2" stroke="transparent"/>
<polygon points="332.5 -338 332.5 -359 500.5 -359 500.5 -338" fill="none" stroke="#000"/>
<text x="335.5" y="-344.8" font-family="Times,serif" font-size="14">name</text>
<polygon points="332.5 -317 332.5 -338 500.5 -338 500.5 -317" fill="#bbb" fill-opacity=".2" stroke="transparent"/>
<polygon points="332.5 -317 332.5 -338 500.5 -338 500.5 -317" fill="none" stroke="#000"/>
<text x="335.5" y="-323.8" font-family="Times,serif" font-size="14">join_phrase</text>
</g>
<!-- artist_credit_name&#45;&gt;artist -->
<g class="edge">
<title>artist_credit_name:artist-&gt;artist:id</title>
<path d="m501.5-369h63.27" fill="none" stroke="#000"/>
<polygon points="565 -372.5 575 -369 565 -365.5" stroke="#000"/>
</g>
<!-- artist_credit_name&#45;&gt;artist_credit -->
<g class="edge">
<title>artist_credit_name:artist_credit-&gt;artist_credit:id</title>
<path d="m501.5-412c69.51 0-18.58-142.67 34.3-157.72" fill="none" stroke="#000"/>
<polygon points="535.64 -573.23 546 -571 536.51 -566.28" stroke="#000"/>
</g>
<!-- recording -->
<g class="node">
<title>recording</title>
<polygon points="363.5 -654 363.5 -679 469.5 -679 469.5 -654" fill="#eee" fill-opacity=".73333" stroke="transparent"/>
<polygon points="363.5 -654 363.5 -679 469.5 -679 469.5 -654" fill="none" stroke="#000"/>
<text x="373.5" y="-662.4" font-family="Times,serif" font-size="17">recording</text>
<polygon points="363.5 -633 363.5 -654 469.5 -654 469.5 -633" fill="#eee" fill-opacity=".46667" stroke="transparent"/>
<polygon points="363.5 -633 363.5 -654 469.5 -654 469.5 -633" fill="none" stroke="#000"/>
<text x="366.5" y="-640.8" font-family="Times,serif" font-size="14" text-decoration="underline">id</text>
<polygon points="363.5 -612 363.5 -633 469.5 -633 469.5 -612" fill="#bbb" fill-opacity=".2" stroke="transparent"/>
<polygon points="363.5 -612 363.5 -633 469.5 -633 469.5 -612" fill="none" stroke="#000"/>
<text x="366.5" y="-618.8" font-family="Times,serif" font-size="14">gid</text>
<polygon points="363.5 -591 363.5 -612 469.5 -612 469.5 -591" fill="#bbb" fill-opacity=".2" stroke="transparent"/>
<polygon points="363.5 -591 363.5 -612 469.5 -612 469.5 -591" fill="none" stroke="#000"/>
<text x="366.5" y="-597.8" font-family="Times,serif" font-size="14">name</text>
<polygon points="363.5 -570 363.5 -591 469.5 -591 469.5 -570" fill="#eee" fill-opacity=".33333" stroke="transparent"/>
<polygon points="363.5 -570 363.5 -591 469.5 -591 469.5 -570" fill="none" stroke="#000"/>
<text x="366.5" y="-576.8" font-family="Times,serif" font-size="14">artist_credit</text>
<polygon points="363.5 -549 363.5 -570 469.5 -570 469.5 -549" fill="#bbb" fill-opacity=".2" stroke="transparent"/>
<polygon points="363.5 -549 363.5 -570 469.5 -570 469.5 -549" fill="none" stroke="#000"/>
<text x="366.5" y="-555.8" font-family="Times,serif" font-size="14">length</text>
<polygon points="363.5 -528 363.5 -549 469.5 -549 469.5 -528" fill="#bbb" fill-opacity=".2" stroke="transparent"/>
<polygon points="363.5 -528 363.5 -549 469.5 -549 469.5 -528" fill="none" stroke="#000"/>
<text x="366.5" y="-534.8" font-family="Times,serif" font-size="14">comment</text>
<polygon points="363.5 -507 363.5 -528 469.5 -528 469.5 -507" fill="#bbb" fill-opacity=".2" stroke="transparent"/>
<polygon points="363.5 -507 363.5 -528 469.5 -528 469.5 -507" fill="none" stroke="#000"/>
<text x="366.5" y="-513.8" font-family="Times,serif" font-size="14">edits_pending</text>
<polygon points="363.5 -486 363.5 -507 469.5 -507 469.5 -486" fill="#bbb" fill-opacity=".2" stroke="transparent"/>
<polygon points="363.5 -486 363.5 -507 469.5 -507 469.5 -486" fill="none" stroke="#000"/>
<text x="366.5" y="-492.8" font-family="Times,serif" font-size="14">last_updated</text>
<polygon points="363.5 -465 363.5 -486 469.5 -486 469.5 -465" fill="#bbb" fill-opacity=".2" stroke="transparent"/>
<polygon points="363.5 -465 363.5 -486 469.5 -486 469.5 -465" fill="none" stroke="#000"/>
<text x="366.5" y="-471.8" font-family="Times,serif" font-size="14">video</text>
</g>
<!-- recording&#45;&gt;artist_credit -->
<g class="edge">
<title>recording:artist_credit-&gt;artist_credit:id</title>
<path d="m470.5-581c30.15 0 39.63 7.93 65.26 9.67" fill="none" stroke="#000"/>
<polygon points="536.12 -574.82 546 -571 535.89 -567.83" stroke="#000"/>
</g>
<!-- recording_alias -->
<g class="node">
<title>recording_alias</title>
<polygon points="73.5 -464 73.5 -489 214.5 -489 214.5 -464" fill="#bbb" fill-opacity=".46667" stroke="transparent"/>
<polygon points="73.5 -464 73.5 -489 214.5 -489 214.5 -464" fill="none" stroke="#000"/>
<text x="76.5" y="-472.4" font-family="Times,serif" font-size="17">recording_alias</text>
<polygon points="73.5 -443 73.5 -464 214.5 -464 214.5 -443" fill="#eee" fill-opacity=".46667" stroke="transparent"/>
<polygon points="73.5 -443 73.5 -464 214.5 -464 214.5 -443" fill="none" stroke="#000"/>
<text x="76.5" y="-450.8" font-family="Times,serif" font-size="14" text-decoration="underline">id</text>
<polygon points="73.5 -422 73.5 -443 214.5 -443 214.5 -422" fill="#eee" fill-opacity=".33333" stroke="transparent"/>
<polygon points="73.5 -422 73.5 -443 214.5 -443 214.5 -422" fill="none" stroke="#000"/>
<text x="76.5" y="-428.8" font-family="Times,serif" font-size="14">recording</text>
<polygon points="73.5 -401 73.5 -422 214.5 -422 214.5 -401" fill="#bbb" fill-opacity=".2" stroke="transparent"/>
<polygon points="73.5 -401 73.5 -422 214.5 -422 214.5 -401" fill="none" stroke="#000"/>
<text x="76.5" y="-407.8" font-family="Times,serif" font-size="14">name</text>
<polygon points="73.5 -380 73.5 -401 214.5 -401 214.5 -380" fill="#bbb" fill-opacity=".2" stroke="transparent"/>
<polygon points="73.5 -380 73.5 -401 214.5 -401 214.5 -380" fill="none" stroke="#000"/>
<text x="76.5" y="-386.8" font-family="Times,serif" font-size="14">locale</text>
<polygon points="73.5 -359 73.5 -380 214.5 -380 214.5 -359" fill="#bbb" fill-opacity=".2" stroke="transparent"/>
<polygon points="73.5 -359 73.5 -380 214.5 -380 214.5 -359" fill="none" stroke="#000"/>
<text x="76.5" y="-365.8" font-family="Times,serif" font-size="14">edits_pending</text>
<polygon points="73.5 -338 73.5 -359 214.5 -359 214.5 -338" fill="#bbb" fill-opacity=".2" stroke="transparent"/>
<polygon points="73.5 -338 73.5 -359 214.5 -359 214.5 -338" fill="none" stroke="#000"/>
<text x="76.5" y="-344.8" font-family="Times,serif" font-size="14">last_updated</text>
<polygon points="73.5 -317 73.5 -338 214.5 -338 214.5 -317" fill="#eee" fill-opacity=".33333" stroke="transparent"/>
<polygon points="73.5 -317 73.5 -338 214.5 -338 214.5 -317" fill="none" stroke="#000"/>
<text x="76.5" y="-323.8" font-family="Times,serif" font-size="14">type</text>
<polygon points="73.5 -296 73.5 -317 214.5 -317 214.5 -296" fill="#bbb" fill-opacity=".2" stroke="transparent"/>
<polygon points="73.5 -296 73.5 -317 214.5 -317 214.5 -296" fill="none" stroke="#000"/>
<text x="76.5" y="-302.8" font-family="Times,serif" font-size="14">sort_name</text>
<polygon points="73.5 -275 73.5 -296 214.5 -296 214.5 -275" fill="#bbb" fill-opacity=".2" stroke="transparent"/>
<polygon points="73.5 -275 73.5 -296 214.5 -296 214.5 -275" fill="none" stroke="#000"/>
<text x="76.5" y="-281.8" font-family="Times,serif" font-size="14">begin_date_year</text>
<polygon points="73.5 -254 73.5 -275 214.5 -275 214.5 -254" fill="#bbb" fill-opacity=".2" stroke="transparent"/>
<polygon points="73.5 -254 73.5 -275 214.5 -275 214.5 -254" fill="none" stroke="#000"/>
<text x="76.5" y="-260.8" font-family="Times,serif" font-size="14">begin_date_month</text>
<polygon points="73.5 -233 73.5 -254 214.5 -254 214.5 -233" fill="#bbb" fill-opacity=".2" stroke="transparent"/>
<polygon points="73.5 -233 73.5 -254 214.5 -254 214.5 -233" fill="none" stroke="#000"/>
<text x="76.5" y="-239.8" font-family="Times,serif" font-size="14">begin_date_day</text>
<polygon points="73.5 -212 73.5 -233 214.5 -233 214.5 -212" fill="#bbb" fill-opacity=".2" stroke="transparent"/>
<polygon points="73.5 -212 73.5 -233 214.5 -233 214.5 -212" fill="none" stroke="#000"/>
<text x="76.5" y="-218.8" font-family="Times,serif" font-size="14">end_date_year</text>
<polygon points="73.5 -191 73.5 -212 214.5 -212 214.5 -191" fill="#bbb" fill-opacity=".2" stroke="transparent"/>
<polygon points="73.5 -191 73.5 -212 214.5 -212 214.5 -191" fill="none" stroke="#000"/>
<text x="76.5" y="-197.8" font-family="Times,serif" font-size="14">end_date_month</text>
<polygon points="73.5 -170 73.5 -191 214.5 -191 214.5 -170" fill="#bbb" fill-opacity=".2" stroke="transparent"/>
<polygon points="73.5 -170 73.5 -191 214.5 -191 214.5 -170" fill="none" stroke="#000"/>
<text x="76.5" y="-176.8" font-family="Times,serif" font-size="14">end_date_day</text>
<polygon points="73.5 -149 73.5 -170 214.5 -170 214.5 -149" fill="#bbb" fill-opacity=".2" stroke="transparent"/>
<polygon points="73.5 -149 73.5 -170 214.5 -170 214.5 -149" fill="none" stroke="#000"/>
<text x="76.5" y="-155.8" font-family="Times,serif" font-size="14">primary_for_locale</text>
<polygon points="73.5 -128 73.5 -149 214.5 -149 214.5 -128" fill="#bbb" fill-opacity=".2" stroke="transparent"/>
<polygon points="73.5 -128 73.5 -149 214.5 -149 214.5 -128" fill="none" stroke="#000"/>
<text x="76.5" y="-134.8" font-family="Times,serif" font-size="14">ended</text>
</g>
<!-- recording_alias&#45;&gt;recording -->
<g class="edge">
<title>recording_alias:recording-&gt;recording:id</title>
<path d="m215.5-433c107.73 0 38.296-183.95 136.74-210.33" fill="none" stroke="#000" sodipodi:nodetypes="cc"/>
<polygon points="352.29 -646.85 362.5 -644 352.75 -639.86" stroke="#000"/>
</g>
<!-- recording_alias_type -->
<g class="node">
<title>recording_alias_type</title>
<polygon points="323.5 -273 323.5 -298 510.5 -298 510.5 -273" fill="#bbb" fill-opacity=".46667" stroke="transparent"/>
<polygon points="323.5 -273 323.5 -298 510.5 -298 510.5 -273" fill="none" stroke="#000"/>
<text x="326.5" y="-281.4" font-family="Times,serif" font-size="17">recording_alias_type</text>
<polygon points="323.5 -252 323.5 -273 510.5 -273 510.5 -252" fill="#eee" fill-opacity=".46667" stroke="transparent"/>
<polygon points="323.5 -252 323.5 -273 510.5 -273 510.5 -252" fill="none" stroke="#000"/>
<text x="326.5" y="-259.8" font-family="Times,serif" font-size="14" text-decoration="underline">id</text>
<polygon points="323.5 -231 323.5 -252 510.5 -252 510.5 -231" fill="#bbb" fill-opacity=".2" stroke="transparent"/>
<polygon points="323.5 -231 323.5 -252 510.5 -252 510.5 -231" fill="none" stroke="#000"/>
<text x="326.5" y="-237.8" font-family="Times,serif" font-size="14">name</text>
<polygon points="323.5 -210 323.5 -231 510.5 -231 510.5 -210" fill="#eee" fill-opacity=".33333" stroke="transparent"/>
<polygon points="323.5 -210 323.5 -231 510.5 -231 510.5 -210" fill="none" stroke="#000"/>
<text x="326.5" y="-216.8" font-family="Times,serif" font-size="14">parent</text>
<polygon points="323.5 -189 323.5 -210 510.5 -210 510.5 -189" fill="#bbb" fill-opacity=".2" stroke="transparent"/>
<polygon points="323.5 -189 323.5 -210 510.5 -210 510.5 -189" fill="none" stroke="#000"/>
<text x="326.5" y="-195.8" font-family="Times,serif" font-size="14">child_order</text>
<polygon points="323.5 -168 323.5 -189 510.5 -189 510.5 -168" fill="#bbb" fill-opacity=".2" stroke="transparent"/>
<polygon points="323.5 -168 323.5 -189 510.5 -189 510.5 -168" fill="none" stroke="#000"/>
<text x="326.5" y="-174.8" font-family="Times,serif" font-size="14">description</text>
<polygon points="323.5 -147 323.5 -168 510.5 -168 510.5 -147" fill="#bbb" fill-opacity=".2" stroke="transparent"/>
<polygon points="323.5 -147 323.5 -168 510.5 -168 510.5 -147" fill="none" stroke="#000"/>
<text x="326.5" y="-153.8" font-family="Times,serif" font-size="14">gid</text>
</g>
<!-- recording_alias&#45;&gt;recording_alias_type -->
<g class="edge">
<title>recording_alias:type-&gt;recording_alias_type:id</title>
<path d="m215.5-328c52.23 0 51.96 56.89 97.42 64.22" fill="none" stroke="#000"/>
<polygon points="313.3 -267.26 323 -263 312.76 -260.28" stroke="#000"/>
</g>
<!-- recording_annotation -->
<g class="node">
<title>recording_annotation</title>
<polygon points="46.5 -888 46.5 -913 241.5 -913 241.5 -888" fill="#bbb" fill-opacity=".46667" stroke="transparent"/>
<polygon points="46.5 -888 46.5 -913 241.5 -913 241.5 -888" fill="none" stroke="#000"/>
<text x="49.5" y="-896.4" font-family="Times,serif" font-size="17">recording_annotation</text>
<polygon points="46.5 -867 46.5 -888 241.5 -888 241.5 -867" fill="#eee" fill-opacity=".46667" stroke="transparent"/>
<polygon points="46.5 -867 46.5 -888 241.5 -888 241.5 -867" fill="none" stroke="#000"/>
<text x="49.5" y="-874.8" font-family="Times,serif" font-size="14" text-decoration="underline">recording</text>
<polygon points="46.5 -846 46.5 -867 241.5 -867 241.5 -846" fill="#eee" fill-opacity=".46667" stroke="transparent"/>
<polygon points="46.5 -846 46.5 -867 241.5 -867 241.5 -846" fill="none" stroke="#000"/>
<text x="49.5" y="-853.8" font-family="Times,serif" font-size="14" text-decoration="underline">annotation</text>
</g>
<!-- recording_annotation&#45;&gt;annotation -->
<g class="edge">
<title>recording_annotation:annotation-&gt;annotation:id</title>
<path d="m242.5-856h112.92" fill="none" stroke="#000"/>
<polygon points="355.5 -859.5 365.5 -856 355.5 -852.5" stroke="#000"/>
</g>
<!-- recording_annotation&#45;&gt;recording -->
<g class="edge">
<title>recording_annotation:recording-&gt;recording:id</title>
<path d="m242.5-877c124.47 0 39.494 220 111.03 229.83" fill="none" stroke="#000" sodipodi:nodetypes="cc"/>
<polygon points="352.75 -648.14 362.5 -644 352.29 -641.16" stroke="#000"/>
</g>
<!-- recording_first_release_date -->
<g class="node">
<title>recording_first_release_date</title>
<polygon points="0.5 -803 0.5 -828 287.5 -828 287.5 -803" fill="#bbb" fill-opacity=".46667" stroke="transparent"/>
<polygon points="0.5 -803 0.5 -828 287.5 -828 287.5 -803" fill="none" stroke="#000"/>
<text x="3.5" y="-811.4" font-family="Times,serif" font-size="17">recording_first_release_date (m)</text>
<polygon points="0.5 -782 0.5 -803 287.5 -803 287.5 -782" fill="#eee" fill-opacity=".46667" stroke="transparent"/>
<polygon points="0.5 -782 0.5 -803 287.5 -803 287.5 -782" fill="none" stroke="#000"/>
<text x="3.5" y="-789.8" font-family="Times,serif" font-size="14" text-decoration="underline">recording</text>
<polygon points="0.5 -761 0.5 -782 287.5 -782 287.5 -761" fill="#bbb" fill-opacity=".2" stroke="transparent"/>
<polygon points="0.5 -761 0.5 -782 287.5 -782 287.5 -761" fill="none" stroke="#000"/>
<text x="3.5" y="-767.8" font-family="Times,serif" font-size="14">year</text>
<polygon points="0.5 -740 0.5 -761 287.5 -761 287.5 -740" fill="#bbb" fill-opacity=".2" stroke="transparent"/>
<polygon points="0.5 -740 0.5 -761 287.5 -761 287.5 -740" fill="none" stroke="#000"/>
<text x="3.5" y="-746.8" font-family="Times,serif" font-size="14">month</text>
<polygon points="0.5 -719 0.5 -740 287.5 -740 287.5 -719" fill="#bbb" fill-opacity=".2" stroke="transparent"/>
<polygon points="0.5 -719 0.5 -740 287.5 -740 287.5 -719" fill="none" stroke="#000"/>
<text x="3.5" y="-725.8" font-family="Times,serif" font-size="14">day</text>
</g>
<!-- recording_first_release_date&#45;&gt;recording -->
<g class="edge">
<title>recording_first_release_date:recording-&gt;recording:id</title>
<path d="m287-793c36.195 0 4.5256 147.56 66.323 147.56" fill="none" stroke="#000" sodipodi:nodetypes="cc"/>
<polygon points="354.43 -650.86 362.5 -644 351.91 -644.33" stroke="#000"/>
</g>
<!-- recording_gid_redirect -->
<g class="node">
<title>recording_gid_redirect</title>
<polygon points="41.5 -676 41.5 -701 246.5 -701 246.5 -676" fill="#bbb" fill-opacity=".46667" stroke="transparent"/>
<polygon points="41.5 -676 41.5 -701 246.5 -701 246.5 -676" fill="none" stroke="#000"/>
<text x="44.5" y="-684.4" font-family="Times,serif" font-size="17">recording_gid_redirect</text>
<polygon points="41.5 -655 41.5 -676 246.5 -676 246.5 -655" fill="#eee" fill-opacity=".46667" stroke="transparent"/>
<polygon points="41.5 -655 41.5 -676 246.5 -676 246.5 -655" fill="none" stroke="#000"/>
<text x="44.5" y="-662.8" font-family="Times,serif" font-size="14" text-decoration="underline">gid</text>
<polygon points="41.5 -634 41.5 -655 246.5 -655 246.5 -634" fill="#eee" fill-opacity=".33333" stroke="transparent"/>
<polygon points="41.5 -634 41.5 -655 246.5 -655 246.5 -634" fill="none" stroke="#000"/>
<text x="44.5" y="-640.8" font-family="Times,serif" font-size="14">new_id</text>
<polygon points="41.5 -613 41.5 -634 246.5 -634 246.5 -613" fill="#bbb" fill-opacity=".2" stroke="transparent"/>
<polygon points="41.5 -613 41.5 -634 246.5 -634 246.5 -613" fill="none" stroke="#000"/>
<text x="44.5" y="-619.8" font-family="Times,serif" font-size="14">created</text>
</g>
<!-- recording_gid_redirect&#45;&gt;recording -->
<g class="edge">
<title>recording_gid_redirect:new_id-&gt;recording:id</title>
<path d="m247.5-644h104.76" fill="none" stroke="#000"/>
<polygon points="352.5 -647.5 362.5 -644 352.5 -640.5" stroke="#000"/>
</g>
<!-- recording_meta -->
<g class="node">
<title>recording_meta</title>
<polygon points="72.5 -570 72.5 -595 215.5 -595 215.5 -570" fill="#bbb" fill-opacity=".46667" stroke="transparent"/>
<polygon points="72.5 -570 72.5 -595 215.5 -595 215.5 -570" fill="none" stroke="#000"/>
<text x="75.5" y="-578.4" font-family="Times,serif" font-size="17">recording_meta</text>
<polygon points="72.5 -549 72.5 -570 215.5 -570 215.5 -549" fill="#eee" fill-opacity=".46667" stroke="transparent"/>
<polygon points="72.5 -549 72.5 -570 215.5 -570 215.5 -549" fill="none" stroke="#000"/>
<text x="75.5" y="-556.8" font-family="Times,serif" font-size="14" text-decoration="underline">id</text>
<polygon points="72.5 -528 72.5 -549 215.5 -549 215.5 -528" fill="#bbb" fill-opacity=".2" stroke="transparent"/>
<polygon points="72.5 -528 72.5 -549 215.5 -549 215.5 -528" fill="none" stroke="#000"/>
<text x="75.5" y="-534.8" font-family="Times,serif" font-size="14">rating</text>
<polygon points="72.5 -507 72.5 -528 215.5 -528 215.5 -507" fill="#bbb" fill-opacity=".2" stroke="transparent"/>
<polygon points="72.5 -507 72.5 -528 215.5 -528 215.5 -507" fill="none" stroke="#000"/>
<text x="75.5" y="-513.8" font-family="Times,serif" font-size="14">rating_count</text>
</g>
<!-- recording_meta&#45;&gt;recording -->
<g class="edge">
<title>recording_meta:id-&gt;recording:id</title>
<path d="m216.5-560c71.35 0 44.108-73.302 135.97-83.46" fill="none" stroke="#000" sodipodi:nodetypes="cc"/>
<polygon points="352.33 -646.96 362.5 -644 352.7 -639.97" stroke="#000"/>
</g>
<!-- recording_tag -->
<g class="node">
<title>recording_tag</title>
<polygon points="79.5 -85 79.5 -110 208.5 -110 208.5 -85" fill="#bbb" fill-opacity=".46667" stroke="transparent"/>
<polygon points="79.5 -85 79.5 -110 208.5 -110 208.5 -85" fill="none" stroke="#000"/>
<text x="82.5" y="-93.4" font-family="Times,serif" font-size="17">recording_tag</text>
<polygon points="79.5 -64 79.5 -85 208.5 -85 208.5 -64" fill="#eee" fill-opacity=".46667" stroke="transparent"/>
<polygon points="79.5 -64 79.5 -85 208.5 -85 208.5 -64" fill="none" stroke="#000"/>
<text x="82.5" y="-71.8" font-family="Times,serif" font-size="14" text-decoration="underline">recording</text>
<polygon points="79.5 -43 79.5 -64 208.5 -64 208.5 -43" fill="#eee" fill-opacity=".46667" stroke="transparent"/>
<polygon points="79.5 -43 79.5 -64 208.5 -64 208.5 -43" fill="none" stroke="#000"/>
<text x="82.5" y="-50.8" font-family="Times,serif" font-size="14" text-decoration="underline">tag</text>
<polygon points="79.5 -22 79.5 -43 208.5 -43 208.5 -22" fill="#bbb" fill-opacity=".2" stroke="transparent"/>
<polygon points="79.5 -22 79.5 -43 208.5 -43 208.5 -22" fill="none" stroke="#000"/>
<text x="82.5" y="-28.8" font-family="Times,serif" font-size="14">count</text>
<polygon points="79.5 -1 79.5 -22 208.5 -22 208.5 -1" fill="#bbb" fill-opacity=".2" stroke="transparent"/>
<polygon points="79.5 -1 79.5 -22 208.5 -22 208.5 -1" fill="none" stroke="#000"/>
<text x="82.5" y="-7.8" font-family="Times,serif" font-size="14">last_updated</text>
</g>
<!-- recording_tag&#45;&gt;recording -->
<g class="edge">
<title>recording_tag:recording-&gt;recording:id</title>
<path d="m209.5-75c132.25 0 42.286-540.94 142.65-567.83" fill="none" stroke="#000" sodipodi:nodetypes="cc"/>
<polygon points="352.32 -646.94 362.5 -644 352.71 -639.95" stroke="#000"/>
</g>
<!-- tag -->
<g class="node">
<title>tag</title>
<polygon points="380.5 -63 380.5 -88 453.5 -88 453.5 -63" fill="#bbb" fill-opacity=".46667" stroke="transparent"/>
<polygon points="380.5 -63 380.5 -88 453.5 -88 453.5 -63" fill="none" stroke="#000"/>
<text x="402.5" y="-71.4" font-family="Times,serif" font-size="17">tag</text>
<polygon points="380.5 -42 380.5 -63 453.5 -63 453.5 -42" fill="#eee" fill-opacity=".46667" stroke="transparent"/>
<polygon points="380.5 -42 380.5 -63 453.5 -63 453.5 -42" fill="none" stroke="#000"/>
<text x="383.5" y="-49.8" font-family="Times,serif" font-size="14" text-decoration="underline">id</text>
<polygon points="380.5 -21 380.5 -42 453.5 -42 453.5 -21" fill="#bbb" fill-opacity=".2" stroke="transparent"/>
<polygon points="380.5 -21 380.5 -42 453.5 -42 453.5 -21" fill="none" stroke="#000"/>
<text x="383.5" y="-27.8" font-family="Times,serif" font-size="14">name</text>
<polygon points="380.5 0 380.5 -21 453.5 -21 453.5 0" fill="#bbb" fill-opacity=".2" stroke="transparent"/>
<polygon points="380.5 0 380.5 -21 453.5 -21 453.5 0" fill="none" stroke="#000"/>
<text x="383.5" y="-6.8" font-family="Times,serif" font-size="14">ref_count</text>
</g>
<!-- recording_tag&#45;&gt;tag -->
<g class="edge">
<title>recording_tag:tag-&gt;tag:id</title>
<path d="m209.5-53h159.74" fill="none" stroke="#000"/>
<polygon points="369.5 -56.5 379.5 -53 369.5 -49.5" stroke="#000"/>
</g>
</g>
</svg>
