<?xml version="1.0" encoding="UTF-8"?>
<!-- Generated by graphviz version 2.43.0 (0)
 -->
<!-- Title: relationship_details Pages: 1 -->
<svg width="734pt" height="643pt" inkscape:version="1.2 (dc2aedaf03, 2022-05-15)" sodipodi:docname="relationship_details.svg" version="1.1" viewBox="0 0 734 642.5" xmlns="http://www.w3.org/2000/svg" xmlns:inkscape="http://www.inkscape.org/namespaces/inkscape" xmlns:sodipodi="http://sodipodi.sourceforge.net/DTD/sodipodi-0.dtd" xmlns:xlink="http://www.w3.org/1999/xlink">
<sodipodi:namedview bordercolor="#666666" borderopacity="1.0" inkscape:current-layer="svg5611" inkscape:cx="713.84033" inkscape:cy="287.68842" inkscape:deskcolor="#d1d1d1" inkscape:document-units="pt" inkscape:pagecheckerboard="0" inkscape:pageopacity="0.0" inkscape:showpageshadow="2" inkscape:window-height="1034" inkscape:window-maximized="1" inkscape:window-width="1920" inkscape:window-x="-4" inkscape:window-y="-4" inkscape:zoom="0.69693456" pagecolor="#ffffff" showgrid="false"/>
<g class="graph" transform="scale(1) translate(4 638.5)">
<title>relationship_details</title>
<a xlink:title="Tables for relationship properties">
<defs>
<linearGradient id="l_0" x1="45.17" x2="680.83" y1="-477.88" y2="-156.62" gradientUnits="userSpaceOnUse">
<stop stop-color="#cb75ab" offset="0"/>
<stop stop-color="#f0976c" offset="1"/>
</linearGradient>
</defs>
<polygon points="-4 4 -4 -638.5 730 -638.5 730 4" fill="url(#l_0)" stroke="transparent"/>
</a>
<!-- link -->
<g class="node">
<title>link</title>
<polygon points="320.5 -609.5 320.5 -634.5 457.5 -634.5 457.5 -609.5" fill="#eee" fill-opacity=".73333" stroke="transparent"/>
<polygon points="320.5 -609.5 320.5 -634.5 457.5 -634.5 457.5 -609.5" fill="none" stroke="#000"/>
<text x="372.5" y="-617.9" font-family="Times,serif" font-size="17">link</text>
<polygon points="320.5 -588.5 320.5 -609.5 457.5 -609.5 457.5 -588.5" fill="#eee" fill-opacity=".46667" stroke="transparent"/>
<polygon points="320.5 -588.5 320.5 -609.5 457.5 -609.5 457.5 -588.5" fill="none" stroke="#000"/>
<text x="323.5" y="-596.3" font-family="Times,serif" font-size="14" text-decoration="underline">id</text>
<polygon points="320.5 -567.5 320.5 -588.5 457.5 -588.5 457.5 -567.5" fill="#eee" fill-opacity=".33333" stroke="transparent"/>
<polygon points="320.5 -567.5 320.5 -588.5 457.5 -588.5 457.5 -567.5" fill="none" stroke="#000"/>
<text x="323.5" y="-574.3" font-family="Times,serif" font-size="14">link_type</text>
<polygon points="320.5 -546.5 320.5 -567.5 457.5 -567.5 457.5 -546.5" fill="#bbb" fill-opacity=".2" stroke="transparent"/>
<polygon points="320.5 -546.5 320.5 -567.5 457.5 -567.5 457.5 -546.5" fill="none" stroke="#000"/>
<text x="323.5" y="-553.3" font-family="Times,serif" font-size="14">begin_date_year</text>
<polygon points="320.5 -525.5 320.5 -546.5 457.5 -546.5 457.5 -525.5" fill="#bbb" fill-opacity=".2" stroke="transparent"/>
<polygon points="320.5 -525.5 320.5 -546.5 457.5 -546.5 457.5 -525.5" fill="none" stroke="#000"/>
<text x="323.5" y="-532.3" font-family="Times,serif" font-size="14">begin_date_month</text>
<polygon points="320.5 -504.5 320.5 -525.5 457.5 -525.5 457.5 -504.5" fill="#bbb" fill-opacity=".2" stroke="transparent"/>
<polygon points="320.5 -504.5 320.5 -525.5 457.5 -525.5 457.5 -504.5" fill="none" stroke="#000"/>
<text x="323.5" y="-511.3" font-family="Times,serif" font-size="14">begin_date_day</text>
<polygon points="320.5 -483.5 320.5 -504.5 457.5 -504.5 457.5 -483.5" fill="#bbb" fill-opacity=".2" stroke="transparent"/>
<polygon points="320.5 -483.5 320.5 -504.5 457.5 -504.5 457.5 -483.5" fill="none" stroke="#000"/>
<text x="323.5" y="-490.3" font-family="Times,serif" font-size="14">end_date_year</text>
<polygon points="320.5 -462.5 320.5 -483.5 457.5 -483.5 457.5 -462.5" fill="#bbb" fill-opacity=".2" stroke="transparent"/>
<polygon points="320.5 -462.5 320.5 -483.5 457.5 -483.5 457.5 -462.5" fill="none" stroke="#000"/>
<text x="323.5" y="-469.3" font-family="Times,serif" font-size="14">end_date_month</text>
<polygon points="320.5 -441.5 320.5 -462.5 457.5 -462.5 457.5 -441.5" fill="#bbb" fill-opacity=".2" stroke="transparent"/>
<polygon points="320.5 -441.5 320.5 -462.5 457.5 -462.5 457.5 -441.5" fill="none" stroke="#000"/>
<text x="323.5" y="-448.3" font-family="Times,serif" font-size="14">end_date_day</text>
<polygon points="320.5 -420.5 320.5 -441.5 457.5 -441.5 457.5 -420.5" fill="#bbb" fill-opacity=".2" stroke="transparent"/>
<polygon points="320.5 -420.5 320.5 -441.5 457.5 -441.5 457.5 -420.5" fill="none" stroke="#000"/>
<text x="323.5" y="-427.3" font-family="Times,serif" font-size="14">attribute_count</text>
<polygon points="320.5 -399.5 320.5 -420.5 457.5 -420.5 457.5 -399.5" fill="#bbb" fill-opacity=".2" stroke="transparent"/>
<polygon points="320.5 -399.5 320.5 -420.5 457.5 -420.5 457.5 -399.5" fill="none" stroke="#000"/>
<text x="323.5" y="-406.3" font-family="Times,serif" font-size="14">created</text>
<polygon points="320.5 -378.5 320.5 -399.5 457.5 -399.5 457.5 -378.5" fill="#bbb" fill-opacity=".2" stroke="transparent"/>
<polygon points="320.5 -378.5 320.5 -399.5 457.5 -399.5 457.5 -378.5" fill="none" stroke="#000"/>
<text x="323.5" y="-385.3" font-family="Times,serif" font-size="14">ended</text>
</g>
<!-- link_type -->
<g class="node">
<title>link_type</title>
<polygon points="567.5 -578.5 567.5 -603.5 716.5 -603.5 716.5 -578.5" fill="#bbb" fill-opacity=".46667" stroke="transparent"/>
<polygon points="567.5 -578.5 567.5 -603.5 716.5 -603.5 716.5 -578.5" fill="none" stroke="#000"/>
<text x="602.5" y="-586.9" font-family="Times,serif" font-size="17">link_type</text>
<polygon points="567.5 -557.5 567.5 -578.5 716.5 -578.5 716.5 -557.5" fill="#eee" fill-opacity=".46667" stroke="transparent"/>
<polygon points="567.5 -557.5 567.5 -578.5 716.5 -578.5 716.5 -557.5" fill="none" stroke="#000"/>
<text x="570.5" y="-565.3" font-family="Times,serif" font-size="14" text-decoration="underline">id</text>
<polygon points="567.5 -536.5 567.5 -557.5 716.5 -557.5 716.5 -536.5" fill="#eee" fill-opacity=".33333" stroke="transparent"/>
<polygon points="567.5 -536.5 567.5 -557.5 716.5 -557.5 716.5 -536.5" fill="none" stroke="#000"/>
<text x="570.5" y="-543.3" font-family="Times,serif" font-size="14">parent</text>
<polygon points="567.5 -515.5 567.5 -536.5 716.5 -536.5 716.5 -515.5" fill="#bbb" fill-opacity=".2" stroke="transparent"/>
<polygon points="567.5 -515.5 567.5 -536.5 716.5 -536.5 716.5 -515.5" fill="none" stroke="#000"/>
<text x="570.5" y="-522.3" font-family="Times,serif" font-size="14">child_order</text>
<polygon points="567.5 -494.5 567.5 -515.5 716.5 -515.5 716.5 -494.5" fill="#bbb" fill-opacity=".2" stroke="transparent"/>
<polygon points="567.5 -494.5 567.5 -515.5 716.5 -515.5 716.5 -494.5" fill="none" stroke="#000"/>
<text x="570.5" y="-501.3" font-family="Times,serif" font-size="14">gid</text>
<polygon points="567.5 -473.5 567.5 -494.5 716.5 -494.5 716.5 -473.5" fill="#bbb" fill-opacity=".2" stroke="transparent"/>
<polygon points="567.5 -473.5 567.5 -494.5 716.5 -494.5 716.5 -473.5" fill="none" stroke="#000"/>
<text x="570.5" y="-480.3" font-family="Times,serif" font-size="14">entity_type0</text>
<polygon points="567.5 -452.5 567.5 -473.5 716.5 -473.5 716.5 -452.5" fill="#bbb" fill-opacity=".2" stroke="transparent"/>
<polygon points="567.5 -452.5 567.5 -473.5 716.5 -473.5 716.5 -452.5" fill="none" stroke="#000"/>
<text x="570.5" y="-459.3" font-family="Times,serif" font-size="14">entity_type1</text>
<polygon points="567.5 -431.5 567.5 -452.5 716.5 -452.5 716.5 -431.5" fill="#bbb" fill-opacity=".2" stroke="transparent"/>
<polygon points="567.5 -431.5 567.5 -452.5 716.5 -452.5 716.5 -431.5" fill="none" stroke="#000"/>
<text x="570.5" y="-438.3" font-family="Times,serif" font-size="14">name</text>
<polygon points="567.5 -410.5 567.5 -431.5 716.5 -431.5 716.5 -410.5" fill="#bbb" fill-opacity=".2" stroke="transparent"/>
<polygon points="567.5 -410.5 567.5 -431.5 716.5 -431.5 716.5 -410.5" fill="none" stroke="#000"/>
<text x="570.5" y="-417.3" font-family="Times,serif" font-size="14">description</text>
<polygon points="567.5 -389.5 567.5 -410.5 716.5 -410.5 716.5 -389.5" fill="#bbb" fill-opacity=".2" stroke="transparent"/>
<polygon points="567.5 -389.5 567.5 -410.5 716.5 -410.5 716.5 -389.5" fill="none" stroke="#000"/>
<text x="570.5" y="-396.3" font-family="Times,serif" font-size="14">link_phrase</text>
<polygon points="567.5 -368.5 567.5 -389.5 716.5 -389.5 716.5 -368.5" fill="#bbb" fill-opacity=".2" stroke="transparent"/>
<polygon points="567.5 -368.5 567.5 -389.5 716.5 -389.5 716.5 -368.5" fill="none" stroke="#000"/>
<text x="570.5" y="-375.3" font-family="Times,serif" font-size="14">reverse_link_phrase</text>
<polygon points="567.5 -347.5 567.5 -368.5 716.5 -368.5 716.5 -347.5" fill="#bbb" fill-opacity=".2" stroke="transparent"/>
<polygon points="567.5 -347.5 567.5 -368.5 716.5 -368.5 716.5 -347.5" fill="none" stroke="#000"/>
<text x="570.5" y="-354.3" font-family="Times,serif" font-size="14">long_link_phrase</text>
<polygon points="567.5 -326.5 567.5 -347.5 716.5 -347.5 716.5 -326.5" fill="#bbb" fill-opacity=".2" stroke="transparent"/>
<polygon points="567.5 -326.5 567.5 -347.5 716.5 -347.5 716.5 -326.5" fill="none" stroke="#000"/>
<text x="570.5" y="-333.3" font-family="Times,serif" font-size="14">priority</text>
<polygon points="567.5 -305.5 567.5 -326.5 716.5 -326.5 716.5 -305.5" fill="#bbb" fill-opacity=".2" stroke="transparent"/>
<polygon points="567.5 -305.5 567.5 -326.5 716.5 -326.5 716.5 -305.5" fill="none" stroke="#000"/>
<text x="570.5" y="-312.3" font-family="Times,serif" font-size="14">last_updated</text>
<polygon points="567.5 -284.5 567.5 -305.5 716.5 -305.5 716.5 -284.5" fill="#bbb" fill-opacity=".2" stroke="transparent"/>
<polygon points="567.5 -284.5 567.5 -305.5 716.5 -305.5 716.5 -284.5" fill="none" stroke="#000"/>
<text x="570.5" y="-291.3" font-family="Times,serif" font-size="14">is_deprecated</text>
<polygon points="567.5 -263.5 567.5 -284.5 716.5 -284.5 716.5 -263.5" fill="#bbb" fill-opacity=".2" stroke="transparent"/>
<polygon points="567.5 -263.5 567.5 -284.5 716.5 -284.5 716.5 -263.5" fill="none" stroke="#000"/>
<text x="570.5" y="-270.3" font-family="Times,serif" font-size="14">has_dates</text>
<polygon points="567.5 -242.5 567.5 -263.5 716.5 -263.5 716.5 -242.5" fill="#bbb" fill-opacity=".2" stroke="transparent"/>
<polygon points="567.5 -242.5 567.5 -263.5 716.5 -263.5 716.5 -242.5" fill="none" stroke="#000"/>
<text x="570.5" y="-249.3" font-family="Times,serif" font-size="14">entity0_cardinality</text>
<polygon points="567.5 -221.5 567.5 -242.5 716.5 -242.5 716.5 -221.5" fill="#bbb" fill-opacity=".2" stroke="transparent"/>
<polygon points="567.5 -221.5 567.5 -242.5 716.5 -242.5 716.5 -221.5" fill="none" stroke="#000"/>
<text x="570.5" y="-228.3" font-family="Times,serif" font-size="14">entity1_cardinality</text>
</g>
<!-- link&#45;&gt;link_type -->
<g class="edge">
<title>link:link_type-&gt;link_type:id</title>
<path d="m458.5-578.5c44.63 0 57.87 8.57 97.84 9.84" fill="none" stroke="#000"/>
<polygon points="556.56 -572.15 566.5 -568.5 556.45 -565.16" stroke="#000"/>
</g>
<!-- link_attribute -->
<g class="node">
<title>link_attribute</title>
<polygon points="48 -572.5 48 -597.5 172 -597.5 172 -572.5" fill="#eee" fill-opacity=".73333" stroke="transparent"/>
<polygon points="48 -572.5 48 -597.5 172 -597.5 172 -572.5" fill="none" stroke="#000"/>
<text x="51" y="-580.9" font-family="Times,serif" font-size="17">link_attribute</text>
<polygon points="48 -551.5 48 -572.5 172 -572.5 172 -551.5" fill="#eee" fill-opacity=".46667" stroke="transparent"/>
<polygon points="48 -551.5 48 -572.5 172 -572.5 172 -551.5" fill="none" stroke="#000"/>
<text x="51" y="-559.3" font-family="Times,serif" font-size="14" text-decoration="underline">link</text>
<polygon points="48 -530.5 48 -551.5 172 -551.5 172 -530.5" fill="#eee" fill-opacity=".46667" stroke="transparent"/>
<polygon points="48 -530.5 48 -551.5 172 -551.5 172 -530.5" fill="none" stroke="#000"/>
<text x="51" y="-538.3" font-family="Times,serif" font-size="14" text-decoration="underline">attribute_type</text>
<polygon points="48 -509.5 48 -530.5 172 -530.5 172 -509.5" fill="#bbb" fill-opacity=".2" stroke="transparent"/>
<polygon points="48 -509.5 48 -530.5 172 -530.5 172 -509.5" fill="none" stroke="#000"/>
<text x="51" y="-516.3" font-family="Times,serif" font-size="14">created</text>
</g>
<!-- link_attribute&#45;&gt;link -->
<g class="edge">
<title>link_attribute:link-&gt;link:id</title>
<path d="m173-562.5c63.61 0 77.91-33.2 136.32-36.7" fill="none" stroke="#000"/>
<polygon points="309.4 -602.71 319.5 -599.5 309.61 -595.71" stroke="#000"/>
</g>
<!-- link_attribute_type -->
<g class="node">
<title>link_attribute_type</title>
<polygon points="557.5 -167.5 557.5 -192.5 726.5 -192.5 726.5 -167.5" fill="#bbb" fill-opacity=".46667" stroke="transparent"/>
<polygon points="557.5 -167.5 557.5 -192.5 726.5 -192.5 726.5 -167.5" fill="none" stroke="#000"/>
<text x="560.5" y="-175.9" font-family="Times,serif" font-size="17">link_attribute_type</text>
<polygon points="557.5 -146.5 557.5 -167.5 726.5 -167.5 726.5 -146.5" fill="#eee" fill-opacity=".46667" stroke="transparent"/>
<polygon points="557.5 -146.5 557.5 -167.5 726.5 -167.5 726.5 -146.5" fill="none" stroke="#000"/>
<text x="560.5" y="-154.3" font-family="Times,serif" font-size="14" text-decoration="underline">id</text>
<polygon points="557.5 -125.5 557.5 -146.5 726.5 -146.5 726.5 -125.5" fill="#eee" fill-opacity=".33333" stroke="transparent"/>
<polygon points="557.5 -125.5 557.5 -146.5 726.5 -146.5 726.5 -125.5" fill="none" stroke="#000"/>
<text x="560.5" y="-132.3" font-family="Times,serif" font-size="14">parent</text>
<polygon points="557.5 -104.5 557.5 -125.5 726.5 -125.5 726.5 -104.5" fill="#eee" fill-opacity=".33333" stroke="transparent"/>
<polygon points="557.5 -104.5 557.5 -125.5 726.5 -125.5 726.5 -104.5" fill="none" stroke="#000"/>
<text x="560.5" y="-111.3" font-family="Times,serif" font-size="14">root</text>
<polygon points="557.5 -83.5 557.5 -104.5 726.5 -104.5 726.5 -83.5" fill="#bbb" fill-opacity=".2" stroke="transparent"/>
<polygon points="557.5 -83.5 557.5 -104.5 726.5 -104.5 726.5 -83.5" fill="none" stroke="#000"/>
<text x="560.5" y="-90.3" font-family="Times,serif" font-size="14">child_order</text>
<polygon points="557.5 -62.5 557.5 -83.5 726.5 -83.5 726.5 -62.5" fill="#bbb" fill-opacity=".2" stroke="transparent"/>
<polygon points="557.5 -62.5 557.5 -83.5 726.5 -83.5 726.5 -62.5" fill="none" stroke="#000"/>
<text x="560.5" y="-69.3" font-family="Times,serif" font-size="14">gid</text>
<polygon points="557.5 -41.5 557.5 -62.5 726.5 -62.5 726.5 -41.5" fill="#bbb" fill-opacity=".2" stroke="transparent"/>
<polygon points="557.5 -41.5 557.5 -62.5 726.5 -62.5 726.5 -41.5" fill="none" stroke="#000"/>
<text x="560.5" y="-48.3" font-family="Times,serif" font-size="14">name</text>
<polygon points="557.5 -20.5 557.5 -41.5 726.5 -41.5 726.5 -20.5" fill="#bbb" fill-opacity=".2" stroke="transparent"/>
<polygon points="557.5 -20.5 557.5 -41.5 726.5 -41.5 726.5 -20.5" fill="none" stroke="#000"/>
<text x="560.5" y="-27.3" font-family="Times,serif" font-size="14">description</text>
<polygon points="557.5 0.5 557.5 -20.5 726.5 -20.5 726.5 0.5" fill="#bbb" fill-opacity=".2" stroke="transparent"/>
<polygon points="557.5 0.5 557.5 -20.5 726.5 -20.5 726.5 0.5" fill="none" stroke="#000"/>
<text x="560.5" y="-6.3" font-family="Times,serif" font-size="14">last_updated</text>
</g>
<!-- link_attribute&#45;&gt;link_attribute_type -->
<g class="edge">
<title>link_attribute:attribute_type-&gt;link_attribute_type:id</title>
<path d="m173-540.5c146.21 0 54.718 274.47 108.56 330.06 59.081 57.303 191.3-2.5584 226.17 18.234 18.268 10.887 21.284 29.258 39.393 33.668" fill="none" stroke="#000" sodipodi:nodetypes="cccc"/>
<polygon points="547.99 -163.07 557 -157.5 546.48 -156.24" stroke="#000"/>
</g>
<!-- link_attribute_credit -->
<g class="node">
<title>link_attribute_credit</title>
<polygon points="19 -393.5 19 -418.5 202 -418.5 202 -393.5" fill="#eee" fill-opacity=".73333" stroke="transparent"/>
<polygon points="19 -393.5 19 -418.5 202 -418.5 202 -393.5" fill="none" stroke="#000"/>
<text x="22" y="-401.9" font-family="Times,serif" font-size="17">link_attribute_credit</text>
<polygon points="19 -372.5 19 -393.5 202 -393.5 202 -372.5" fill="#eee" fill-opacity=".46667" stroke="transparent"/>
<polygon points="19 -372.5 19 -393.5 202 -393.5 202 -372.5" fill="none" stroke="#000"/>
<text x="22" y="-380.3" font-family="Times,serif" font-size="14" text-decoration="underline">link</text>
<polygon points="19 -351.5 19 -372.5 202 -372.5 202 -351.5" fill="#eee" fill-opacity=".46667" stroke="transparent"/>
<polygon points="19 -351.5 19 -372.5 202 -372.5 202 -351.5" fill="none" stroke="#000"/>
<text x="22" y="-359.3" font-family="Times,serif" font-size="14" text-decoration="underline">attribute_type</text>
<polygon points="19 -330.5 19 -351.5 202 -351.5 202 -330.5" fill="#bbb" fill-opacity=".2" stroke="transparent"/>
<polygon points="19 -330.5 19 -351.5 202 -351.5 202 -330.5" fill="none" stroke="#000"/>
<text x="22" y="-337.3" font-family="Times,serif" font-size="14">credited_as</text>
</g>
<!-- link_attribute_credit&#45;&gt;link -->
<g class="edge">
<title>link_attribute_credit:link-&gt;link:id</title>
<path d="m203-383.5c51.06 0 13.94-201.89 106.32-215.3" fill="none" stroke="#000" sodipodi:nodetypes="cc"/>
<polygon points="309.28 -602.31 319.5 -599.5 309.76 -595.32" stroke="#000"/>
</g>
<!-- link_creditable_attribute_type -->
<g class="node">
<title>link_creditable_attribute_type</title>
<polygon points="256.5 -149.5 256.5 -174.5 521.5 -174.5 521.5 -149.5" fill="#bbb" fill-opacity=".46667" stroke="transparent"/>
<polygon points="256.5 -149.5 256.5 -174.5 521.5 -174.5 521.5 -149.5" fill="none" stroke="#000"/>
<text x="259.5" y="-157.9" font-family="Times,serif" font-size="17">link_creditable_attribute_type</text>
<polygon points="256.5 -128.5 256.5 -149.5 521.5 -149.5 521.5 -128.5" fill="#eee" fill-opacity=".46667" stroke="transparent"/>
<polygon points="256.5 -128.5 256.5 -149.5 521.5 -149.5 521.5 -128.5" fill="none" stroke="#000"/>
<text x="259.5" y="-136.3" font-family="Times,serif" font-size="14" text-decoration="underline">attribute_type</text>
</g>
<!-- link_attribute_credit&#45;&gt;link_creditable_attribute_type -->
<g class="edge">
<title>link_attribute_credit:attribute_type-&gt;link_creditable_attribute_type:attribute_type</title>
<path d="m203-361.5c47.16 0 8.77 191.13 43.23 219.5" fill="none" stroke="#000"/>
<polygon points="247.77 -145.17 256 -138.5 245.41 -138.58" stroke="#000"/>
</g>
<!-- link_attribute_text_value -->
<g class="node">
<title>link_attribute_text_value</title>
<polygon points="0 -142.5 0 -167.5 220 -167.5 220 -142.5" fill="#eee" fill-opacity=".73333" stroke="transparent"/>
<polygon points="0 -142.5 0 -167.5 220 -167.5 220 -142.5" fill="none" stroke="#000"/>
<text x="3" y="-150.9" font-family="Times,serif" font-size="17">link_attribute_text_value</text>
<polygon points="0 -121.5 0 -142.5 220 -142.5 220 -121.5" fill="#eee" fill-opacity=".46667" stroke="transparent"/>
<polygon points="0 -121.5 0 -142.5 220 -142.5 220 -121.5" fill="none" stroke="#000"/>
<text x="3" y="-129.3" font-family="Times,serif" font-size="14" text-decoration="underline">link</text>
<polygon points="0 -100.5 0 -121.5 220 -121.5 220 -100.5" fill="#eee" fill-opacity=".46667" stroke="transparent"/>
<polygon points="0 -100.5 0 -121.5 220 -121.5 220 -100.5" fill="none" stroke="#000"/>
<text x="3" y="-108.3" font-family="Times,serif" font-size="14" text-decoration="underline">attribute_type</text>
<polygon points="0 -79.5 0 -100.5 220 -100.5 220 -79.5" fill="#bbb" fill-opacity=".2" stroke="transparent"/>
<polygon points="0 -79.5 0 -100.5 220 -100.5 220 -79.5" fill="none" stroke="#000"/>
<text x="3" y="-86.3" font-family="Times,serif" font-size="14">text_value</text>
</g>
<!-- link_attribute_text_value&#45;&gt;link -->
<g class="edge">
<title>link_attribute_text_value:link-&gt;link:id</title>
<path d="m220-132.5c57.438 0-19.133-451.36 89.49-466.59" fill="none" stroke="#000" sodipodi:nodetypes="cc"/>
<polygon points="309.36 -602.59 319.5 -599.5 309.65 -595.59" stroke="#000"/>
</g>
<!-- link_text_attribute_type -->
<g class="node">
<title>link_text_attribute_type</title>
<polygon points="283.5 -85.5 283.5 -110.5 494.5 -110.5 494.5 -85.5" fill="#bbb" fill-opacity=".46667" stroke="transparent"/>
<polygon points="283.5 -85.5 283.5 -110.5 494.5 -110.5 494.5 -85.5" fill="none" stroke="#000"/>
<text x="286.5" y="-93.9" font-family="Times,serif" font-size="17">link_text_attribute_type</text>
<polygon points="283.5 -64.5 283.5 -85.5 494.5 -85.5 494.5 -64.5" fill="#eee" fill-opacity=".46667" stroke="transparent"/>
<polygon points="283.5 -64.5 283.5 -85.5 494.5 -85.5 494.5 -64.5" fill="none" stroke="#000"/>
<text x="286.5" y="-72.3" font-family="Times,serif" font-size="14" text-decoration="underline">attribute_type</text>
</g>
<!-- link_attribute_text_value&#45;&gt;link_text_attribute_type -->
<g class="edge">
<title>link_attribute_text_value:attribute_type-&gt;link_text_attribute_type:attribute_type</title>
<path d="m220-110.5c28.3 0 30.36 28.06 52.51 34.63" fill="none" stroke="#000"/>
<polygon points="273.07 -79.32 282.5 -74.5 272.12 -72.39" stroke="#000"/>
</g>
<!-- link_creditable_attribute_type&#45;&gt;link_attribute_type -->
<g class="edge">
<title>link_creditable_attribute_type:attribute_type-&gt;link_attribute_type:id</title>
<path d="m521-138.5c13.99 0 9.9543-13.122 25.9-17.394" fill="none" stroke="#000" sodipodi:nodetypes="cc"/>
<polygon points="546.45 -158.46 557 -157.5 548.15 -151.67" stroke="#000"/>
</g>
<!-- link_text_attribute_type&#45;&gt;link_attribute_type -->
<g class="edge">
<title>link_text_attribute_type:attribute_type-&gt;link_attribute_type:id</title>
<path d="m495.5-74.5c41.97 0 20.506-68.324 51.526-80.244" fill="none" stroke="#000" sodipodi:nodetypes="cc"/>
<polygon points="546.56 -159.28 557 -157.5 547.72 -152.38" stroke="#000"/>
</g>
<!-- link_type_attribute_type -->
<g class="node">
<title>link_type_attribute_type</title>
<polygon points="281.5 -335.5 281.5 -360.5 496.5 -360.5 496.5 -335.5" fill="#bbb" fill-opacity=".46667" stroke="transparent"/>
<polygon points="281.5 -335.5 281.5 -360.5 496.5 -360.5 496.5 -335.5" fill="none" stroke="#000"/>
<text x="284.5" y="-343.9" font-family="Times,serif" font-size="17">link_type_attribute_type</text>
<polygon points="281.5 -314.5 281.5 -335.5 496.5 -335.5 496.5 -314.5" fill="#eee" fill-opacity=".46667" stroke="transparent"/>
<polygon points="281.5 -314.5 281.5 -335.5 496.5 -335.5 496.5 -314.5" fill="none" stroke="#000"/>
<text x="284.5" y="-322.3" font-family="Times,serif" font-size="14" text-decoration="underline">link_type</text>
<polygon points="281.5 -293.5 281.5 -314.5 496.5 -314.5 496.5 -293.5" fill="#eee" fill-opacity=".46667" stroke="transparent"/>
<polygon points="281.5 -293.5 281.5 -314.5 496.5 -314.5 496.5 -293.5" fill="none" stroke="#000"/>
<text x="284.5" y="-301.3" font-family="Times,serif" font-size="14" text-decoration="underline">attribute_type</text>
<polygon points="281.5 -272.5 281.5 -293.5 496.5 -293.5 496.5 -272.5" fill="#bbb" fill-opacity=".2" stroke="transparent"/>
<polygon points="281.5 -272.5 281.5 -293.5 496.5 -293.5 496.5 -272.5" fill="none" stroke="#000"/>
<text x="284.5" y="-279.3" font-family="Times,serif" font-size="14">min</text>
<polygon points="281.5 -251.5 281.5 -272.5 496.5 -272.5 496.5 -251.5" fill="#bbb" fill-opacity=".2" stroke="transparent"/>
<polygon points="281.5 -251.5 281.5 -272.5 496.5 -272.5 496.5 -251.5" fill="none" stroke="#000"/>
<text x="284.5" y="-258.3" font-family="Times,serif" font-size="14">max</text>
<polygon points="281.5 -230.5 281.5 -251.5 496.5 -251.5 496.5 -230.5" fill="#bbb" fill-opacity=".2" stroke="transparent"/>
<polygon points="281.5 -230.5 281.5 -251.5 496.5 -251.5 496.5 -230.5" fill="none" stroke="#000"/>
<text x="284.5" y="-237.3" font-family="Times,serif" font-size="14">last_updated</text>
</g>
<!-- link_type_attribute_type&#45;&gt;link_attribute_type -->
<g class="edge">
<title>link_type_attribute_type:attribute_type-&gt;link_attribute_type:id</title>
<path d="m497.5-304.5c66.63 0 0.2048 130.86 49.582 144.56" fill="none" stroke="#000" sodipodi:nodetypes="cc"/>
<polygon points="547.51 -162.2 557 -157.5 546.65 -155.26" stroke="#000"/>
</g>
<!-- link_type_attribute_type&#45;&gt;link_type -->
<g class="edge">
<title>link_type_attribute_type:link_type-&gt;link_type:id</title>
<path d="m497.5-325.5c108.65 0-33.52-227.59 58.96-242.26" fill="none" stroke="#000"/>
<polygon points="556.27 -571.25 566.5 -568.5 556.78 -564.27" stroke="#000"/>
</g>
</g>
</svg>
