<?xml version="1.0" encoding="UTF-8"?>
<!DOCTYPE svg  PUBLIC '-//W3C//DTD SVG 1.1//EN'  'http://www.w3.org/Graphics/SVG/1.1/DTD/svg11.dtd'>
<!-- Generated by graphviz version 2.43.0 (0)
 -->
<!-- Title: relationship_details Pages: 1 -->
<svg width="734pt" height="632pt" inkscape:version="1.3.2 (091e20ef0f, 2023-11-25, custom)" sodipodi:docname="relationship_details.svg" version="1.1" viewBox="0 0 734 631.5" xmlns="http://www.w3.org/2000/svg" xmlns:inkscape="http://www.inkscape.org/namespaces/inkscape" xmlns:sodipodi="http://sodipodi.sourceforge.net/DTD/sodipodi-0.dtd" xmlns:xlink="http://www.w3.org/1999/xlink">
<sodipodi:namedview bordercolor="#666666" borderopacity="1.0" inkscape:current-layer="svg134" inkscape:cx="539.33976" inkscape:cy="330.72063" inkscape:deskcolor="#d1d1d1" inkscape:document-units="pt" inkscape:pagecheckerboard="0" inkscape:pageopacity="0.0" inkscape:showpageshadow="2" inkscape:window-height="1060" inkscape:window-maximized="1" inkscape:window-width="1920" inkscape:window-x="-4" inkscape:window-y="-4" inkscape:zoom="0.71661692" pagecolor="#ffffff"/>
<g class="graph" transform="scale(1) translate(4 627.5)">
<title>relationship_details</title>
<a xlink:title="Tables for relationship properties">
<polygon points="-4 4 -4 -627.5 730 -627.5 730 4" fill="#e8c2da" stroke="transparent"/>
</a>
<!-- musicbrainz.link -->
<g class="node">
<title>musicbrainz.link</title>
<polygon points="320.5 -598.5 320.5 -623.5 457.5 -623.5 457.5 -598.5" fill="#eb743b" stroke="transparent"/>
<polygon points="320.5 -598.5 320.5 -623.5 457.5 -623.5 457.5 -598.5" fill="none" stroke="#000"/>
<text x="372.5" y="-606.9" font-family="Times,serif" font-size="17">link</text>
<polygon points="320.5 -577.5 320.5 -598.5 457.5 -598.5 457.5 -577.5" fill="#f0976c" stroke="transparent"/>
<polygon points="320.5 -577.5 320.5 -598.5 457.5 -598.5 457.5 -577.5" fill="none" stroke="#000"/>
<text x="323.5" y="-585.3" font-family="Times,serif" font-size="14" text-decoration="underline">id</text>
<polygon points="320.5 -556.5 320.5 -577.5 457.5 -577.5 457.5 -556.5" fill="#f8d1be" stroke="transparent"/>
<polygon points="320.5 -556.5 320.5 -577.5 457.5 -577.5 457.5 -556.5" fill="none" stroke="#000"/>
<text x="323.5" y="-563.3" font-family="Times,serif" font-size="14">link_type</text>
<polygon points="320.5 -535.5 320.5 -556.5 457.5 -556.5 457.5 -535.5" fill="#eee" stroke="transparent"/>
<polygon points="320.5 -535.5 320.5 -556.5 457.5 -556.5 457.5 -535.5" fill="none" stroke="#000"/>
<text x="323.5" y="-542.3" font-family="Times,serif" font-size="14">begin_date_year</text>
<polygon points="320.5 -514.5 320.5 -535.5 457.5 -535.5 457.5 -514.5" fill="#eee" stroke="transparent"/>
<polygon points="320.5 -514.5 320.5 -535.5 457.5 -535.5 457.5 -514.5" fill="none" stroke="#000"/>
<text x="323.5" y="-521.3" font-family="Times,serif" font-size="14">begin_date_month</text>
<polygon points="320.5 -493.5 320.5 -514.5 457.5 -514.5 457.5 -493.5" fill="#eee" stroke="transparent"/>
<polygon points="320.5 -493.5 320.5 -514.5 457.5 -514.5 457.5 -493.5" fill="none" stroke="#000"/>
<text x="323.5" y="-500.3" font-family="Times,serif" font-size="14">begin_date_day</text>
<polygon points="320.5 -472.5 320.5 -493.5 457.5 -493.5 457.5 -472.5" fill="#eee" stroke="transparent"/>
<polygon points="320.5 -472.5 320.5 -493.5 457.5 -493.5 457.5 -472.5" fill="none" stroke="#000"/>
<text x="323.5" y="-479.3" font-family="Times,serif" font-size="14">end_date_year</text>
<polygon points="320.5 -451.5 320.5 -472.5 457.5 -472.5 457.5 -451.5" fill="#eee" stroke="transparent"/>
<polygon points="320.5 -451.5 320.5 -472.5 457.5 -472.5 457.5 -451.5" fill="none" stroke="#000"/>
<text x="323.5" y="-458.3" font-family="Times,serif" font-size="14">end_date_month</text>
<polygon points="320.5 -430.5 320.5 -451.5 457.5 -451.5 457.5 -430.5" fill="#eee" stroke="transparent"/>
<polygon points="320.5 -430.5 320.5 -451.5 457.5 -451.5 457.5 -430.5" fill="none" stroke="#000"/>
<text x="323.5" y="-437.3" font-family="Times,serif" font-size="14">end_date_day</text>
<polygon points="320.5 -409.5 320.5 -430.5 457.5 -430.5 457.5 -409.5" fill="#eee" stroke="transparent"/>
<polygon points="320.5 -409.5 320.5 -430.5 457.5 -430.5 457.5 -409.5" fill="none" stroke="#000"/>
<text x="323.5" y="-416.3" font-family="Times,serif" font-size="14">attribute_count</text>
<polygon points="320.5 -388.5 320.5 -409.5 457.5 -409.5 457.5 -388.5" fill="#eee" stroke="transparent"/>
<polygon points="320.5 -388.5 320.5 -409.5 457.5 -409.5 457.5 -388.5" fill="none" stroke="#000"/>
<text x="323.5" y="-395.3" font-family="Times,serif" font-size="14">created</text>
<polygon points="320.5 -367.5 320.5 -388.5 457.5 -388.5 457.5 -367.5" fill="#eee" stroke="transparent"/>
<polygon points="320.5 -367.5 320.5 -388.5 457.5 -388.5 457.5 -367.5" fill="none" stroke="#000"/>
<text x="323.5" y="-374.3" font-family="Times,serif" font-size="14">ended</text>
</g>
<!-- musicbrainz.link_type -->
<g class="node">
<title>musicbrainz.link_type</title>
<polygon points="567.5 -561.5 567.5 -586.5 716.5 -586.5 716.5 -561.5" fill="#eee" stroke="transparent"/>
<polygon points="567.5 -561.5 567.5 -586.5 716.5 -586.5 716.5 -561.5" fill="none" stroke="#000"/>
<text x="602.5" y="-569.9" font-family="Times,serif" font-size="17">link_type</text>
<polygon points="567.5 -540.5 567.5 -561.5 716.5 -561.5 716.5 -540.5" fill="#f0976c" stroke="transparent"/>
<polygon points="567.5 -540.5 567.5 -561.5 716.5 -561.5 716.5 -540.5" fill="none" stroke="#000"/>
<text x="570.5" y="-548.3" font-family="Times,serif" font-size="14" text-decoration="underline">id</text>
<polygon points="567.5 -519.5 567.5 -540.5 716.5 -540.5 716.5 -519.5" fill="#f8d1be" stroke="transparent"/>
<polygon points="567.5 -519.5 567.5 -540.5 716.5 -540.5 716.5 -519.5" fill="none" stroke="#000"/>
<text x="570.5" y="-526.3" font-family="Times,serif" font-size="14">parent</text>
<polygon points="567.5 -498.5 567.5 -519.5 716.5 -519.5 716.5 -498.5" fill="#eee" stroke="transparent"/>
<polygon points="567.5 -498.5 567.5 -519.5 716.5 -519.5 716.5 -498.5" fill="none" stroke="#000"/>
<text x="570.5" y="-505.3" font-family="Times,serif" font-size="14">child_order</text>
<polygon points="567.5 -477.5 567.5 -498.5 716.5 -498.5 716.5 -477.5" fill="#eee" stroke="transparent"/>
<polygon points="567.5 -477.5 567.5 -498.5 716.5 -498.5 716.5 -477.5" fill="none" stroke="#000"/>
<text x="570.5" y="-484.3" font-family="Times,serif" font-size="14">gid</text>
<polygon points="567.5 -456.5 567.5 -477.5 716.5 -477.5 716.5 -456.5" fill="#eee" stroke="transparent"/>
<polygon points="567.5 -456.5 567.5 -477.5 716.5 -477.5 716.5 -456.5" fill="none" stroke="#000"/>
<text x="570.5" y="-463.3" font-family="Times,serif" font-size="14">entity_type0</text>
<polygon points="567.5 -435.5 567.5 -456.5 716.5 -456.5 716.5 -435.5" fill="#eee" stroke="transparent"/>
<polygon points="567.5 -435.5 567.5 -456.5 716.5 -456.5 716.5 -435.5" fill="none" stroke="#000"/>
<text x="570.5" y="-442.3" font-family="Times,serif" font-size="14">entity_type1</text>
<polygon points="567.5 -414.5 567.5 -435.5 716.5 -435.5 716.5 -414.5" fill="#eee" stroke="transparent"/>
<polygon points="567.5 -414.5 567.5 -435.5 716.5 -435.5 716.5 -414.5" fill="none" stroke="#000"/>
<text x="570.5" y="-421.3" font-family="Times,serif" font-size="14">name</text>
<polygon points="567.5 -393.5 567.5 -414.5 716.5 -414.5 716.5 -393.5" fill="#eee" stroke="transparent"/>
<polygon points="567.5 -393.5 567.5 -414.5 716.5 -414.5 716.5 -393.5" fill="none" stroke="#000"/>
<text x="570.5" y="-400.3" font-family="Times,serif" font-size="14">description</text>
<polygon points="567.5 -372.5 567.5 -393.5 716.5 -393.5 716.5 -372.5" fill="#eee" stroke="transparent"/>
<polygon points="567.5 -372.5 567.5 -393.5 716.5 -393.5 716.5 -372.5" fill="none" stroke="#000"/>
<text x="570.5" y="-379.3" font-family="Times,serif" font-size="14">link_phrase</text>
<polygon points="567.5 -351.5 567.5 -372.5 716.5 -372.5 716.5 -351.5" fill="#eee" stroke="transparent"/>
<polygon points="567.5 -351.5 567.5 -372.5 716.5 -372.5 716.5 -351.5" fill="none" stroke="#000"/>
<text x="570.5" y="-358.3" font-family="Times,serif" font-size="14">reverse_link_phrase</text>
<polygon points="567.5 -330.5 567.5 -351.5 716.5 -351.5 716.5 -330.5" fill="#eee" stroke="transparent"/>
<polygon points="567.5 -330.5 567.5 -351.5 716.5 -351.5 716.5 -330.5" fill="none" stroke="#000"/>
<text x="570.5" y="-337.3" font-family="Times,serif" font-size="14">long_link_phrase</text>
<polygon points="567.5 -309.5 567.5 -330.5 716.5 -330.5 716.5 -309.5" fill="#eee" stroke="transparent"/>
<polygon points="567.5 -309.5 567.5 -330.5 716.5 -330.5 716.5 -309.5" fill="none" stroke="#000"/>
<text x="570.5" y="-316.3" font-family="Times,serif" font-size="14">last_updated</text>
<polygon points="567.5 -288.5 567.5 -309.5 716.5 -309.5 716.5 -288.5" fill="#eee" stroke="transparent"/>
<polygon points="567.5 -288.5 567.5 -309.5 716.5 -309.5 716.5 -288.5" fill="none" stroke="#000"/>
<text x="570.5" y="-295.3" font-family="Times,serif" font-size="14">is_deprecated</text>
<polygon points="567.5 -267.5 567.5 -288.5 716.5 -288.5 716.5 -267.5" fill="#eee" stroke="transparent"/>
<polygon points="567.5 -267.5 567.5 -288.5 716.5 -288.5 716.5 -267.5" fill="none" stroke="#000"/>
<text x="570.5" y="-274.3" font-family="Times,serif" font-size="14">has_dates</text>
<polygon points="567.5 -246.5 567.5 -267.5 716.5 -267.5 716.5 -246.5" fill="#eee" stroke="transparent"/>
<polygon points="567.5 -246.5 567.5 -267.5 716.5 -267.5 716.5 -246.5" fill="none" stroke="#000"/>
<text x="570.5" y="-253.3" font-family="Times,serif" font-size="14">entity0_cardinality</text>
<polygon points="567.5 -225.5 567.5 -246.5 716.5 -246.5 716.5 -225.5" fill="#eee" stroke="transparent"/>
<polygon points="567.5 -225.5 567.5 -246.5 716.5 -246.5 716.5 -225.5" fill="none" stroke="#000"/>
<text x="570.5" y="-232.3" font-family="Times,serif" font-size="14">entity1_cardinality</text>
</g>
<!-- musicbrainz.link&#45;&gt;musicbrainz.link_type -->
<g class="edge">
<title>musicbrainz.link:link_type-&gt;musicbrainz.link_type:id</title>
<path d="m458.5-567.5c44.92 0 57.64 13.71 97.79 15.75" fill="none" stroke="#000"/>
<polygon points="556.59 -555.25 566.5 -551.5 556.42 -548.25" stroke="#000"/>
</g>
<!-- musicbrainz.link_attribute -->
<g class="node">
<title>musicbrainz.link_attribute</title>
<polygon points="48 -561.5 48 -586.5 172 -586.5 172 -561.5" fill="#eb743b" stroke="transparent"/>
<polygon points="48 -561.5 48 -586.5 172 -586.5 172 -561.5" fill="none" stroke="#000"/>
<text x="51" y="-569.9" font-family="Times,serif" font-size="17">link_attribute</text>
<polygon points="48 -540.5 48 -561.5 172 -561.5 172 -540.5" fill="#f0976c" stroke="transparent"/>
<polygon points="48 -540.5 48 -561.5 172 -561.5 172 -540.5" fill="none" stroke="#000"/>
<text x="51" y="-548.3" font-family="Times,serif" font-size="14" text-decoration="underline">link</text>
<polygon points="48 -519.5 48 -540.5 172 -540.5 172 -519.5" fill="#f0976c" stroke="transparent"/>
<polygon points="48 -519.5 48 -540.5 172 -540.5 172 -519.5" fill="none" stroke="#000"/>
<text x="51" y="-527.3" font-family="Times,serif" font-size="14" text-decoration="underline">attribute_type</text>
<polygon points="48 -498.5 48 -519.5 172 -519.5 172 -498.5" fill="#eee" stroke="transparent"/>
<polygon points="48 -498.5 48 -519.5 172 -519.5 172 -498.5" fill="none" stroke="#000"/>
<text x="51" y="-505.3" font-family="Times,serif" font-size="14">created</text>
</g>
<!-- musicbrainz.link_attribute&#45;&gt;musicbrainz.link -->
<g class="edge">
<title>musicbrainz.link_attribute:link-&gt;musicbrainz.link:id</title>
<path d="m173-551.5c63.61 0 77.91-33.2 136.32-36.7" fill="none" stroke="#000"/>
<polygon points="309.4 -591.71 319.5 -588.5 309.61 -584.71" stroke="#000"/>
</g>
<!-- musicbrainz.link_attribute_type -->
<g class="node">
<title>musicbrainz.link_attribute_type</title>
<polygon points="557.5 -167.5 557.5 -192.5 726.5 -192.5 726.5 -167.5" fill="#eee" stroke="transparent"/>
<polygon points="557.5 -167.5 557.5 -192.5 726.5 -192.5 726.5 -167.5" fill="none" stroke="#000"/>
<text x="560.5" y="-175.9" font-family="Times,serif" font-size="17">link_attribute_type</text>
<polygon points="557.5 -146.5 557.5 -167.5 726.5 -167.5 726.5 -146.5" fill="#f0976c" stroke="transparent"/>
<polygon points="557.5 -146.5 557.5 -167.5 726.5 -167.5 726.5 -146.5" fill="none" stroke="#000"/>
<text x="560.5" y="-154.3" font-family="Times,serif" font-size="14" text-decoration="underline">id</text>
<polygon points="557.5 -125.5 557.5 -146.5 726.5 -146.5 726.5 -125.5" fill="#f8d1be" stroke="transparent"/>
<polygon points="557.5 -125.5 557.5 -146.5 726.5 -146.5 726.5 -125.5" fill="none" stroke="#000"/>
<text x="560.5" y="-132.3" font-family="Times,serif" font-size="14">parent</text>
<polygon points="557.5 -104.5 557.5 -125.5 726.5 -125.5 726.5 -104.5" fill="#f8d1be" stroke="transparent"/>
<polygon points="557.5 -104.5 557.5 -125.5 726.5 -125.5 726.5 -104.5" fill="none" stroke="#000"/>
<text x="560.5" y="-111.3" font-family="Times,serif" font-size="14">root</text>
<polygon points="557.5 -83.5 557.5 -104.5 726.5 -104.5 726.5 -83.5" fill="#eee" stroke="transparent"/>
<polygon points="557.5 -83.5 557.5 -104.5 726.5 -104.5 726.5 -83.5" fill="none" stroke="#000"/>
<text x="560.5" y="-90.3" font-family="Times,serif" font-size="14">child_order</text>
<polygon points="557.5 -62.5 557.5 -83.5 726.5 -83.5 726.5 -62.5" fill="#eee" stroke="transparent"/>
<polygon points="557.5 -62.5 557.5 -83.5 726.5 -83.5 726.5 -62.5" fill="none" stroke="#000"/>
<text x="560.5" y="-69.3" font-family="Times,serif" font-size="14">gid</text>
<polygon points="557.5 -41.5 557.5 -62.5 726.5 -62.5 726.5 -41.5" fill="#eee" stroke="transparent"/>
<polygon points="557.5 -41.5 557.5 -62.5 726.5 -62.5 726.5 -41.5" fill="none" stroke="#000"/>
<text x="560.5" y="-48.3" font-family="Times,serif" font-size="14">name</text>
<polygon points="557.5 -20.5 557.5 -41.5 726.5 -41.5 726.5 -20.5" fill="#eee" stroke="transparent"/>
<polygon points="557.5 -20.5 557.5 -41.5 726.5 -41.5 726.5 -20.5" fill="none" stroke="#000"/>
<text x="560.5" y="-27.3" font-family="Times,serif" font-size="14">description</text>
<polygon points="557.5 0.5 557.5 -20.5 726.5 -20.5 726.5 0.5" fill="#eee" stroke="transparent"/>
<polygon points="557.5 0.5 557.5 -20.5 726.5 -20.5 726.5 0.5" fill="none" stroke="#000"/>
<text x="560.5" y="-6.3" font-family="Times,serif" font-size="14">last_updated</text>
</g>
<!-- musicbrainz.link_attribute&#45;&gt;musicbrainz.link_attribute_type -->
<g class="edge">
<title>musicbrainz.link_attribute:attribute_type-&gt;musicbrainz.link_attribute_type:id</title>
<path d="m173-529.5c147.55 0 60.661 283.44 109.3 330.61 49.746 48.243 181.34 10.598 238.7 26.388 12.79 3.52 13.997 13.427 25.78 14.773" fill="none" stroke="#000" sodipodi:nodetypes="cccc"/>
<polygon points="547.63 -162.44 557 -157.5 546.59 -155.52" stroke="#000"/>
</g>
<!-- musicbrainz.link_attribute_credit -->
<g class="node">
<title>musicbrainz.link_attribute_credit</title>
<polygon points="19 -382.5 19 -407.5 202 -407.5 202 -382.5" fill="#eb743b" stroke="transparent"/>
<polygon points="19 -382.5 19 -407.5 202 -407.5 202 -382.5" fill="none" stroke="#000"/>
<text x="22" y="-390.9" font-family="Times,serif" font-size="17">link_attribute_credit</text>
<polygon points="19 -361.5 19 -382.5 202 -382.5 202 -361.5" fill="#f0976c" stroke="transparent"/>
<polygon points="19 -361.5 19 -382.5 202 -382.5 202 -361.5" fill="none" stroke="#000"/>
<text x="22" y="-369.3" font-family="Times,serif" font-size="14" text-decoration="underline">link</text>
<polygon points="19 -340.5 19 -361.5 202 -361.5 202 -340.5" fill="#f0976c" stroke="transparent"/>
<polygon points="19 -340.5 19 -361.5 202 -361.5 202 -340.5" fill="none" stroke="#000"/>
<text x="22" y="-348.3" font-family="Times,serif" font-size="14" text-decoration="underline">attribute_type</text>
<polygon points="19 -319.5 19 -340.5 202 -340.5 202 -319.5" fill="#eee" stroke="transparent"/>
<polygon points="19 -319.5 19 -340.5 202 -340.5 202 -319.5" fill="none" stroke="#000"/>
<text x="22" y="-326.3" font-family="Times,serif" font-size="14">credited_as</text>
</g>
<!-- musicbrainz.link_attribute_credit&#45;&gt;musicbrainz.link -->
<g class="edge">
<title>musicbrainz.link_attribute_credit:link-&gt;musicbrainz.link:id</title>
<path d="m203-372.5c43.6 0 13.94-201.89 106.32-215.3" fill="none" stroke="#000" sodipodi:nodetypes="cc"/>
<polygon points="309.28 -591.31 319.5 -588.5 309.76 -584.32" stroke="#000"/>
</g>
<!-- musicbrainz.link_creditable_attribute_type -->
<g class="node">
<title>musicbrainz.link_creditable_attribute_type</title>
<polygon points="256.5 -138.5 256.5 -163.5 521.5 -163.5 521.5 -138.5" fill="#eee" stroke="transparent"/>
<polygon points="256.5 -138.5 256.5 -163.5 521.5 -163.5 521.5 -138.5" fill="none" stroke="#000"/>
<text x="259.5" y="-146.9" font-family="Times,serif" font-size="17">link_creditable_attribute_type</text>
<polygon points="256.5 -117.5 256.5 -138.5 521.5 -138.5 521.5 -117.5" fill="#f0976c" stroke="transparent"/>
<polygon points="256.5 -117.5 256.5 -138.5 521.5 -138.5 521.5 -117.5" fill="none" stroke="#000"/>
<text x="259.5" y="-125.3" font-family="Times,serif" font-size="14" text-decoration="underline">attribute_type</text>
</g>
<!-- musicbrainz.link_attribute_credit&#45;&gt;musicbrainz.link_creditable_attribute_type -->
<g class="edge">
<title>musicbrainz.link_attribute_credit:attribute_type-&gt;musicbrainz.link_creditable_attribute_type:attribute_type</title>
<path d="m203-350.5c47.16 0 8.77 191.13 43.23 219.5" fill="none" stroke="#000"/>
<polygon points="247.77 -134.17 256 -127.5 245.41 -127.58" stroke="#000"/>
</g>
<!-- musicbrainz.link_attribute_text_value -->
<g class="node">
<title>musicbrainz.link_attribute_text_value</title>
<polygon points="0 -131.5 0 -156.5 220 -156.5 220 -131.5" fill="#eb743b" stroke="transparent"/>
<polygon points="0 -131.5 0 -156.5 220 -156.5 220 -131.5" fill="none" stroke="#000"/>
<text x="3" y="-139.9" font-family="Times,serif" font-size="17">link_attribute_text_value</text>
<polygon points="0 -110.5 0 -131.5 220 -131.5 220 -110.5" fill="#f0976c" stroke="transparent"/>
<polygon points="0 -110.5 0 -131.5 220 -131.5 220 -110.5" fill="none" stroke="#000"/>
<text x="3" y="-118.3" font-family="Times,serif" font-size="14" text-decoration="underline">link</text>
<polygon points="0 -89.5 0 -110.5 220 -110.5 220 -89.5" fill="#f0976c" stroke="transparent"/>
<polygon points="0 -89.5 0 -110.5 220 -110.5 220 -89.5" fill="none" stroke="#000"/>
<text x="3" y="-97.3" font-family="Times,serif" font-size="14" text-decoration="underline">attribute_type</text>
<polygon points="0 -68.5 0 -89.5 220 -89.5 220 -68.5" fill="#eee" stroke="transparent"/>
<polygon points="0 -68.5 0 -89.5 220 -89.5 220 -68.5" fill="none" stroke="#000"/>
<text x="3" y="-75.3" font-family="Times,serif" font-size="14">text_value</text>
</g>
<!-- musicbrainz.link_attribute_text_value&#45;&gt;musicbrainz.link -->
<g class="edge">
<title>musicbrainz.link_attribute_text_value:link-&gt;musicbrainz.link:id</title>
<path d="m220-121.5c58.912 0-17.411-451.29 89.49-466.59" fill="none" stroke="#000" sodipodi:nodetypes="cc"/>
<polygon points="309.36 -591.59 319.5 -588.5 309.65 -584.59" stroke="#000"/>
</g>
<!-- musicbrainz.link_text_attribute_type -->
<g class="node">
<title>musicbrainz.link_text_attribute_type</title>
<polygon points="283.5 -74.5 283.5 -99.5 494.5 -99.5 494.5 -74.5" fill="#eee" stroke="transparent"/>
<polygon points="283.5 -74.5 283.5 -99.5 494.5 -99.5 494.5 -74.5" fill="none" stroke="#000"/>
<text x="286.5" y="-82.9" font-family="Times,serif" font-size="17">link_text_attribute_type</text>
<polygon points="283.5 -53.5 283.5 -74.5 494.5 -74.5 494.5 -53.5" fill="#f0976c" stroke="transparent"/>
<polygon points="283.5 -53.5 283.5 -74.5 494.5 -74.5 494.5 -53.5" fill="none" stroke="#000"/>
<text x="286.5" y="-61.3" font-family="Times,serif" font-size="14" text-decoration="underline">attribute_type</text>
</g>
<!-- musicbrainz.link_attribute_text_value&#45;&gt;musicbrainz.link_text_attribute_type -->
<g class="edge">
<title>musicbrainz.link_attribute_text_value:attribute_type-&gt;musicbrainz.link_text_attribute_type:attribute_type</title>
<path d="m220-99.5c28.3 0 30.36 28.06 52.51 34.63" fill="none" stroke="#000"/>
<polygon points="273.07 -68.32 282.5 -63.5 272.12 -61.39" stroke="#000"/>
</g>
<!-- musicbrainz.link_creditable_attribute_type&#45;&gt;musicbrainz.link_attribute_type -->
<g class="edge">
<title>musicbrainz.link_creditable_attribute_type:attribute_type-&gt;musicbrainz.link_attribute_type:id</title>
<path d="m521-127.5c16.551 0.27698 9.3482-25.755 26.43-29.444" fill="none" stroke="#000" sodipodi:nodetypes="cc"/>
<polygon points="546.41 -157.86 557 -157.5 548.5 -151.18" stroke="#000"/>
</g>
<!-- musicbrainz.link_text_attribute_type&#45;&gt;musicbrainz.link_attribute_type -->
<g class="edge">
<title>musicbrainz.link_text_attribute_type:attribute_type-&gt;musicbrainz.link_attribute_type:id</title>
<path d="m495.5-63.5c61.811 0 24.987-80.265 51.33-92.37" fill="none" stroke="#000" sodipodi:nodetypes="cc"/>
<polygon points="546.57 -159.37 557 -157.5 547.68 -152.46" stroke="#000"/>
</g>
<!-- musicbrainz.link_type_attribute_type -->
<g class="node">
<title>musicbrainz.link_type_attribute_type</title>
<polygon points="281.5 -324.5 281.5 -349.5 496.5 -349.5 496.5 -324.5" fill="#eee" stroke="transparent"/>
<polygon points="281.5 -324.5 281.5 -349.5 496.5 -349.5 496.5 -324.5" fill="none" stroke="#000"/>
<text x="284.5" y="-332.9" font-family="Times,serif" font-size="17">link_type_attribute_type</text>
<polygon points="281.5 -303.5 281.5 -324.5 496.5 -324.5 496.5 -303.5" fill="#f0976c" stroke="transparent"/>
<polygon points="281.5 -303.5 281.5 -324.5 496.5 -324.5 496.5 -303.5" fill="none" stroke="#000"/>
<text x="284.5" y="-311.3" font-family="Times,serif" font-size="14" text-decoration="underline">link_type</text>
<polygon points="281.5 -282.5 281.5 -303.5 496.5 -303.5 496.5 -282.5" fill="#f0976c" stroke="transparent"/>
<polygon points="281.5 -282.5 281.5 -303.5 496.5 -303.5 496.5 -282.5" fill="none" stroke="#000"/>
<text x="284.5" y="-290.3" font-family="Times,serif" font-size="14" text-decoration="underline">attribute_type</text>
<polygon points="281.5 -261.5 281.5 -282.5 496.5 -282.5 496.5 -261.5" fill="#eee" stroke="transparent"/>
<polygon points="281.5 -261.5 281.5 -282.5 496.5 -282.5 496.5 -261.5" fill="none" stroke="#000"/>
<text x="284.5" y="-268.3" font-family="Times,serif" font-size="14">min</text>
<polygon points="281.5 -240.5 281.5 -261.5 496.5 -261.5 496.5 -240.5" fill="#eee" stroke="transparent"/>
<polygon points="281.5 -240.5 281.5 -261.5 496.5 -261.5 496.5 -240.5" fill="none" stroke="#000"/>
<text x="284.5" y="-247.3" font-family="Times,serif" font-size="14">max</text>
<polygon points="281.5 -219.5 281.5 -240.5 496.5 -240.5 496.5 -219.5" fill="#eee" stroke="transparent"/>
<polygon points="281.5 -219.5 281.5 -240.5 496.5 -240.5 496.5 -219.5" fill="none" stroke="#000"/>
<text x="284.5" y="-226.3" font-family="Times,serif" font-size="14">last_updated</text>
</g>
<!-- musicbrainz.link_type_attribute_type&#45;&gt;musicbrainz.link_attribute_type -->
<g class="edge">
<title>musicbrainz.link_type_attribute_type:attribute_type-&gt;musicbrainz.link_attribute_type:id</title>
<path d="m497.5-293.5c62.24 0 1.29 121.03 49.57 134.74" fill="none" stroke="#000"/>
<polygon points="547.52 -162.23 557 -157.5 546.64 -155.29" stroke="#000"/>
</g>
<!-- musicbrainz.link_type_attribute_type&#45;&gt;musicbrainz.link_type -->
<g class="edge">
<title>musicbrainz.link_type_attribute_type:link_type-&gt;musicbrainz.link_type:id</title>
<path d="m497.5-314.5c106.06 0-31.01-221.52 58.91-236.23" fill="none" stroke="#000"/>
<polygon points="556.26 -554.23 566.5 -551.5 556.79 -547.25" stroke="#000"/>
</g>
</g>
</svg>
