<?xml version="1.0" encoding="UTF-8"?>
<!DOCTYPE svg  PUBLIC '-//W3C//DTD SVG 1.1//EN'  'http://www.w3.org/Graphics/SVG/1.1/DTD/svg11.dtd'>
<!-- Generated by graphviz version 2.43.0 (0)
 -->
<!-- Title: relationship_overview Pages: 1 -->
<svg width="215pt" height="267pt" viewBox="0 0 215 266.5" xmlns="http://www.w3.org/2000/svg" xmlns:xlink="http://www.w3.org/1999/xlink">
<g class="graph" transform="scale(1) translate(4 262.5)">
<title>relationship_overview</title>
<a xlink:title="Tables for relationship connections">
<defs>
<linearGradient id="l_0" x1="10.4" x2="196.6" y1="-195.88" y2="-62.62" gradientUnits="userSpaceOnUse">
<stop stop-color="#cb75ab" offset="0"/>
<stop stop-color="#f0976c" offset="1"/>
</linearGradient>
</defs>
<polygon points="-4 4 -4 -262.5 211 -262.5 211 4" fill="url(#l_0)" stroke="transparent"/>
</a>
<!-- artist -->
<g class="node">
<title>artist</title>
<polygon points="154.5 -148 154.5 -173 207.5 -173 207.5 -148" fill="#bbb" fill-opacity=".46667" stroke="transparent"/>
<polygon points="154.5 -148 154.5 -173 207.5 -173 207.5 -148" fill="none" stroke="#000"/>
<text x="157.5" y="-156.4" font-family="Times,serif" font-size="17">artist</text>
<polygon points="154.5 -127 154.5 -148 207.5 -148 207.5 -127" fill="#eee" fill-opacity=".46667" stroke="transparent"/>
<polygon points="154.5 -127 154.5 -148 207.5 -148 207.5 -127" fill="none" stroke="#000"/>
<text x="157.5" y="-134.8" font-family="Times,serif" font-size="14" text-decoration="underline">id</text>
<polygon points="154.5 -106 154.5 -127 207.5 -127 207.5 -106" fill="#bbb" fill-opacity=".2" stroke="transparent"/>
<polygon points="154.5 -106 154.5 -127 207.5 -127 207.5 -106" fill="none" stroke="#000"/>
<text x="157.5" y="-112.8" font-family="Times,serif" font-size="14">...</text>
</g>
<!-- l_artist_work -->
<g class="node">
<title>l_artist_work</title>
<polygon points="0 -189 0 -214 118 -214 118 -189" fill="#eee" fill-opacity=".73333" stroke="transparent"/>
<polygon points="0 -189 0 -214 118 -214 118 -189" fill="none" stroke="#000"/>
<text x="3" y="-197.4" font-family="Times,serif" font-size="17">l_artist_work</text>
<polygon points="0 -168 0 -189 118 -189 118 -168" fill="#eee" fill-opacity=".46667" stroke="transparent"/>
<polygon points="0 -168 0 -189 118 -189 118 -168" fill="none" stroke="#000"/>
<text x="3" y="-175.8" font-family="Times,serif" font-size="14" text-decoration="underline">id</text>
<polygon points="0 -147 0 -168 118 -168 118 -147" fill="#eee" fill-opacity=".33333" stroke="transparent"/>
<polygon points="0 -147 0 -168 118 -168 118 -147" fill="none" stroke="#000"/>
<text x="3" y="-153.8" font-family="Times,serif" font-size="14">link</text>
<polygon points="0 -126 0 -147 118 -147 118 -126" fill="#eee" fill-opacity=".33333" stroke="transparent"/>
<polygon points="0 -126 0 -147 118 -147 118 -126" fill="none" stroke="#000"/>
<text x="3" y="-132.8" font-family="Times,serif" font-size="14">entity0</text>
<polygon points="0 -105 0 -126 118 -126 118 -105" fill="#eee" fill-opacity=".33333" stroke="transparent"/>
<polygon points="0 -105 0 -126 118 -126 118 -105" fill="none" stroke="#000"/>
<text x="3" y="-111.8" font-family="Times,serif" font-size="14">entity1</text>
<polygon points="0 -84 0 -105 118 -105 118 -84" fill="#bbb" fill-opacity=".2" stroke="transparent"/>
<polygon points="0 -84 0 -105 118 -105 118 -84" fill="none" stroke="#000"/>
<text x="3" y="-90.8" font-family="Times,serif" font-size="14">edits_pending</text>
<polygon points="0 -63 0 -84 118 -84 118 -63" fill="#bbb" fill-opacity=".2" stroke="transparent"/>
<polygon points="0 -63 0 -84 118 -84 118 -63" fill="none" stroke="#000"/>
<text x="3" y="-69.8" font-family="Times,serif" font-size="14">last_updated</text>
<polygon points="0 -42 0 -63 118 -63 118 -42" fill="#bbb" fill-opacity=".2" stroke="transparent"/>
<polygon points="0 -42 0 -63 118 -63 118 -42" fill="none" stroke="#000"/>
<text x="3" y="-48.8" font-family="Times,serif" font-size="14">link_order</text>
<polygon points="0 -21 0 -42 118 -42 118 -21" fill="#bbb" fill-opacity=".2" stroke="transparent"/>
<polygon points="0 -21 0 -42 118 -42 118 -21" fill="none" stroke="#000"/>
<text x="3" y="-27.8" font-family="Times,serif" font-size="14">entity0_credit</text>
<polygon points="0 0 0 -21 118 -21 118 0" fill="#bbb" fill-opacity=".2" stroke="transparent"/>
<polygon points="0 0 0 -21 118 -21 118 0" fill="none" stroke="#000"/>
<text x="3" y="-6.8" font-family="Times,serif" font-size="14">entity1_credit</text>
</g>
<!-- l_artist_work&#45;&gt;artist -->
<g class="edge">
<title>l_artist_work:entity0-&gt;artist:id</title>
<path d="m118-137h25.88" fill="none" stroke="#000"/>
<polygon points="144 -140.5 154 -137 144 -133.5" stroke="#000"/>
</g>
<!-- link -->
<g class="node">
<title>link</title>
<polygon points="161.5 -233 161.5 -258 200.5 -258 200.5 -233" fill="#bbb" fill-opacity=".46667" stroke="transparent"/>
<polygon points="161.5 -233 161.5 -258 200.5 -258 200.5 -233" fill="none" stroke="#000"/>
<text x="164.5" y="-241.4" font-family="Times,serif" font-size="17">link</text>
<polygon points="161.5 -212 161.5 -233 200.5 -233 200.5 -212" fill="#eee" fill-opacity=".46667" stroke="transparent"/>
<polygon points="161.5 -212 161.5 -233 200.5 -233 200.5 -212" fill="none" stroke="#000"/>
<text x="164.5" y="-219.8" font-family="Times,serif" font-size="14" text-decoration="underline">id</text>
<polygon points="161.5 -191 161.5 -212 200.5 -212 200.5 -191" fill="#bbb" fill-opacity=".2" stroke="transparent"/>
<polygon points="161.5 -191 161.5 -212 200.5 -212 200.5 -191" fill="none" stroke="#000"/>
<text x="164.5" y="-197.8" font-family="Times,serif" font-size="14">...</text>
</g>
<!-- l_artist_work&#45;&gt;link -->
<g class="edge">
<title>l_artist_work:link-&gt;link:id</title>
<path d="m118-158c30.14 0 13.58-49.88 32.77-61.57" fill="none" stroke="#000"/>
<polygon points="149.95 -222.97 160.5 -222 151.65 -216.18" stroke="#000"/>
</g>
<!-- work -->
<g class="node">
<title>work</title>
<polygon points="155.5 -63 155.5 -88 205.5 -88 205.5 -63" fill="#bbb" fill-opacity=".46667" stroke="transparent"/>
<polygon points="155.5 -63 155.5 -88 205.5 -88 205.5 -63" fill="none" stroke="#000"/>
<text x="158.5" y="-71.4" font-family="Times,serif" font-size="17">work</text>
<polygon points="155.5 -42 155.5 -63 205.5 -63 205.5 -42" fill="#eee" fill-opacity=".46667" stroke="transparent"/>
<polygon points="155.5 -42 155.5 -63 205.5 -63 205.5 -42" fill="none" stroke="#000"/>
<text x="158.5" y="-49.8" font-family="Times,serif" font-size="14" text-decoration="underline">id</text>
<polygon points="155.5 -21 155.5 -42 205.5 -42 205.5 -21" fill="#bbb" fill-opacity=".2" stroke="transparent"/>
<polygon points="155.5 -21 155.5 -42 205.5 -42 205.5 -21" fill="none" stroke="#000"/>
<text x="158.5" y="-27.8" font-family="Times,serif" font-size="14">...</text>
</g>
<!-- l_artist_work&#45;&gt;work -->
<g class="edge">
<title>l_artist_work:entity1-&gt;work:id</title>
<path d="m118-116c28.65 0 10.04 49 26.87 61.25" fill="none" stroke="#000"/>
<polygon points="145.85 -58.11 154.5 -52 143.92 -51.38" stroke="#000"/>
</g>
</g>
</svg>
