<?xml version="1.0" encoding="UTF-8"?>
<!-- Generated by graphviz version 2.43.0 (0)
 -->
<!-- Title: release_group_entity_details Pages: 1 -->
<svg width="921pt" height="1391pt" inkscape:version="1.2.1 (9c6d41e410, 2022-07-14)" sodipodi:docname="release_group_entity_details.svg" version="1.1" viewBox="0 0 921 1391" xmlns="http://www.w3.org/2000/svg" xmlns:inkscape="http://www.inkscape.org/namespaces/inkscape" xmlns:sodipodi="http://sodipodi.sourceforge.net/DTD/sodipodi-0.dtd" xmlns:xlink="http://www.w3.org/1999/xlink">
<sodipodi:namedview bordercolor="#666666" borderopacity="1.0" inkscape:current-layer="svg6196" inkscape:cx="80.112821" inkscape:cy="925.13846" inkscape:deskcolor="#d1d1d1" inkscape:document-units="pt" inkscape:pagecheckerboard="0" inkscape:pageopacity="0.0" inkscape:showpageshadow="2" inkscape:window-height="1034" inkscape:window-maximized="1" inkscape:window-width="1920" inkscape:window-x="-4" inkscape:window-y="-4" inkscape:zoom="0.45560748" pagecolor="#ffffff" showgrid="false"/>
<g class="graph" transform="scale(1) translate(4 1387)">
<title>release_group_entity_details</title>
<a xlink:title="Tables for the “release_group” entity type properties">
<defs>
<linearGradient id="l_0" x1="57.7" x2="855.3" y1="-1039.2" y2="-343.75" gradientUnits="userSpaceOnUse">
<stop stop-color="#cb75ab" offset="0"/>
<stop stop-color="#f0976c" offset="1"/>
</linearGradient>
</defs>
<polygon points="-4 4 -4 -1387 917 -1387 917 4" fill="url(#l_0)" stroke="transparent"/>
</a>
<!-- annotation -->
<g class="node">
<title>annotation</title>
<polygon points="437 -976 437 -1001 538 -1001 538 -976" fill="#bbb" fill-opacity=".46667" stroke="transparent"/>
<polygon points="437 -976 437 -1001 538 -1001 538 -976" fill="none" stroke="#000"/>
<text x="440" y="-984.4" font-family="Times,serif" font-size="17">annotation</text>
<polygon points="437 -955 437 -976 538 -976 538 -955" fill="#eee" fill-opacity=".46667" stroke="transparent"/>
<polygon points="437 -955 437 -976 538 -976 538 -955" fill="none" stroke="#000"/>
<text x="440" y="-962.8" font-family="Times,serif" font-size="14" text-decoration="underline">id</text>
<polygon points="437 -934 437 -955 538 -955 538 -934" fill="#bbb" fill-opacity=".2" stroke="transparent"/>
<polygon points="437 -934 437 -955 538 -955 538 -934" fill="none" stroke="#000"/>
<text x="440" y="-940.8" font-family="Times,serif" font-size="14">editor</text>
<polygon points="437 -913 437 -934 538 -934 538 -913" fill="#bbb" fill-opacity=".2" stroke="transparent"/>
<polygon points="437 -913 437 -934 538 -934 538 -913" fill="none" stroke="#000"/>
<text x="440" y="-919.8" font-family="Times,serif" font-size="14">text</text>
<polygon points="437 -892 437 -913 538 -913 538 -892" fill="#bbb" fill-opacity=".2" stroke="transparent"/>
<polygon points="437 -892 437 -913 538 -913 538 -892" fill="none" stroke="#000"/>
<text x="440" y="-898.8" font-family="Times,serif" font-size="14">changelog</text>
<polygon points="437 -871 437 -892 538 -892 538 -871" fill="#bbb" fill-opacity=".2" stroke="transparent"/>
<polygon points="437 -871 437 -892 538 -892 538 -871" fill="none" stroke="#000"/>
<text x="440" y="-877.8" font-family="Times,serif" font-size="14">created</text>
</g>
<!-- artist -->
<g class="node">
<title>artist</title>
<polygon points="461 -1215 461 -1240 514 -1240 514 -1215" fill="#bbb" fill-opacity=".46667" stroke="transparent"/>
<polygon points="461 -1215 461 -1240 514 -1240 514 -1215" fill="none" stroke="#000"/>
<text x="464" y="-1223.4" font-family="Times,serif" font-size="17">artist</text>
<polygon points="461 -1194 461 -1215 514 -1215 514 -1194" fill="#eee" fill-opacity=".46667" stroke="transparent"/>
<polygon points="461 -1194 461 -1215 514 -1215 514 -1194" fill="none" stroke="#000"/>
<text x="464" y="-1201.8" font-family="Times,serif" font-size="14" text-decoration="underline">id</text>
<polygon points="461 -1173 461 -1194 514 -1194 514 -1173" fill="#bbb" fill-opacity=".2" stroke="transparent"/>
<polygon points="461 -1173 461 -1194 514 -1194 514 -1173" fill="none" stroke="#000"/>
<text x="464" y="-1179.8" font-family="Times,serif" font-size="14">...</text>
</g>
<!-- artist_credit -->
<g class="node">
<title>artist_credit</title>
<polygon points="730.5 -1119 730.5 -1144 842.5 -1144 842.5 -1119" fill="#bbb" fill-opacity=".46667" stroke="transparent"/>
<polygon points="730.5 -1119 730.5 -1144 842.5 -1144 842.5 -1119" fill="none" stroke="#000"/>
<text x="733.5" y="-1127.4" font-family="Times,serif" font-size="17">artist_credit</text>
<polygon points="730.5 -1098 730.5 -1119 842.5 -1119 842.5 -1098" fill="#eee" fill-opacity=".46667" stroke="transparent"/>
<polygon points="730.5 -1098 730.5 -1119 842.5 -1119 842.5 -1098" fill="none" stroke="#000"/>
<text x="733.5" y="-1105.8" font-family="Times,serif" font-size="14" text-decoration="underline">id</text>
<polygon points="730.5 -1077 730.5 -1098 842.5 -1098 842.5 -1077" fill="#bbb" fill-opacity=".2" stroke="transparent"/>
<polygon points="730.5 -1077 730.5 -1098 842.5 -1098 842.5 -1077" fill="none" stroke="#000"/>
<text x="733.5" y="-1083.8" font-family="Times,serif" font-size="14">name</text>
<polygon points="730.5 -1056 730.5 -1077 842.5 -1077 842.5 -1056" fill="#bbb" fill-opacity=".2" stroke="transparent"/>
<polygon points="730.5 -1056 730.5 -1077 842.5 -1077 842.5 -1056" fill="none" stroke="#000"/>
<text x="733.5" y="-1062.8" font-family="Times,serif" font-size="14">artist_count</text>
<polygon points="730.5 -1035 730.5 -1056 842.5 -1056 842.5 -1035" fill="#bbb" fill-opacity=".2" stroke="transparent"/>
<polygon points="730.5 -1035 730.5 -1056 842.5 -1056 842.5 -1035" fill="none" stroke="#000"/>
<text x="733.5" y="-1041.8" font-family="Times,serif" font-size="14">ref_count</text>
<polygon points="730.5 -1014 730.5 -1035 842.5 -1035 842.5 -1014" fill="#bbb" fill-opacity=".2" stroke="transparent"/>
<polygon points="730.5 -1014 730.5 -1035 842.5 -1035 842.5 -1014" fill="none" stroke="#000"/>
<text x="733.5" y="-1020.8" font-family="Times,serif" font-size="14">created</text>
<polygon points="730.5 -993 730.5 -1014 842.5 -1014 842.5 -993" fill="#bbb" fill-opacity=".2" stroke="transparent"/>
<polygon points="730.5 -993 730.5 -1014 842.5 -1014 842.5 -993" fill="none" stroke="#000"/>
<text x="733.5" y="-999.8" font-family="Times,serif" font-size="14">edits_pending</text>
<polygon points="730.5 -972 730.5 -993 842.5 -993 842.5 -972" fill="#bbb" fill-opacity=".2" stroke="transparent"/>
<polygon points="730.5 -972 730.5 -993 842.5 -993 842.5 -972" fill="none" stroke="#000"/>
<text x="733.5" y="-978.8" font-family="Times,serif" font-size="14">gid</text>
</g>
<!-- artist_credit_name -->
<g class="node">
<title>artist_credit_name</title>
<polygon points="73 -1358 73 -1383 241 -1383 241 -1358" fill="#bbb" fill-opacity=".46667" stroke="transparent"/>
<polygon points="73 -1358 73 -1383 241 -1383 241 -1358" fill="none" stroke="#000"/>
<text x="76" y="-1366.4" font-family="Times,serif" font-size="17">artist_credit_name</text>
<polygon points="73 -1337 73 -1358 241 -1358 241 -1337" fill="#eee" fill-opacity=".46667" stroke="transparent"/>
<polygon points="73 -1337 73 -1358 241 -1358 241 -1337" fill="none" stroke="#000"/>
<text x="76" y="-1344.8" font-family="Times,serif" font-size="14" text-decoration="underline">artist_credit</text>
<polygon points="73 -1316 73 -1337 241 -1337 241 -1316" fill="#eee" fill-opacity=".46667" stroke="transparent"/>
<polygon points="73 -1316 73 -1337 241 -1337 241 -1316" fill="none" stroke="#000"/>
<text x="76" y="-1323.8" font-family="Times,serif" font-size="14" text-decoration="underline">position</text>
<polygon points="73 -1295 73 -1316 241 -1316 241 -1295" fill="#eee" fill-opacity=".33333" stroke="transparent"/>
<polygon points="73 -1295 73 -1316 241 -1316 241 -1295" fill="none" stroke="#000"/>
<text x="76" y="-1301.8" font-family="Times,serif" font-size="14">artist</text>
<polygon points="73 -1274 73 -1295 241 -1295 241 -1274" fill="#bbb" fill-opacity=".2" stroke="transparent"/>
<polygon points="73 -1274 73 -1295 241 -1295 241 -1274" fill="none" stroke="#000"/>
<text x="76" y="-1280.8" font-family="Times,serif" font-size="14">name</text>
<polygon points="73 -1253 73 -1274 241 -1274 241 -1253" fill="#bbb" fill-opacity=".2" stroke="transparent"/>
<polygon points="73 -1253 73 -1274 241 -1274 241 -1253" fill="none" stroke="#000"/>
<text x="76" y="-1259.8" font-family="Times,serif" font-size="14">join_phrase</text>
</g>
<!-- artist_credit_name&#45;&gt;artist -->
<g class="edge">
<title>artist_credit_name:artist-&gt;artist:id</title>
<path d="m242-1305c103.34 0 110.83 94.6 207.99 100.69" fill="none" stroke="#000"/>
<polygon points="450.11 -1207.8 460 -1204 449.9 -1200.8" stroke="#000"/>
</g>
<!-- artist_credit_name&#45;&gt;artist_credit -->
<g class="edge">
<title>artist_credit_name:artist_credit-&gt;artist_credit:id</title>
<path d="m242-1348c404.46 0 385.55 221.37 477.24 238.37" fill="none" stroke="#000" sodipodi:nodetypes="cc"/>
<polygon points="719.73 -1113.1 729.5 -1109 719.31 -1106.1" stroke="#000"/>
</g>
<!-- artist_release_group -->
<g class="node">
<title>artist_release_group</title>
<polygon points="48 -1209 48 -1234 267 -1234 267 -1209" fill="#bbb" fill-opacity=".46667" stroke="transparent"/>
<polygon points="48 -1209 48 -1234 267 -1234 267 -1209" fill="none" stroke="#000"/>
<text x="51" y="-1217.4" font-family="Times,serif" font-size="17">artist_release_group (m)</text>
<polygon points="48 -1188 48 -1209 267 -1209 267 -1188" fill="#bbb" fill-opacity=".2" stroke="transparent"/>
<polygon points="48 -1188 48 -1209 267 -1209 267 -1188" fill="none" stroke="#000"/>
<text x="51" y="-1194.8" font-family="Times,serif" font-size="14">is_track_artist</text>
<polygon points="48 -1167 48 -1188 267 -1188 267 -1167" fill="#eee" fill-opacity=".33333" stroke="transparent"/>
<polygon points="48 -1167 48 -1188 267 -1188 267 -1167" fill="none" stroke="#000"/>
<text x="51" y="-1173.8" font-family="Times,serif" font-size="14">artist</text>
<polygon points="48 -1146 48 -1167 267 -1167 267 -1146" fill="#bbb" fill-opacity=".2" stroke="transparent"/>
<polygon points="48 -1146 48 -1167 267 -1167 267 -1146" fill="none" stroke="#000"/>
<text x="51" y="-1152.8" font-family="Times,serif" font-size="14">unofficial</text>
<polygon points="48 -1125 48 -1146 267 -1146 267 -1125" fill="#bbb" fill-opacity=".2" stroke="transparent"/>
<polygon points="48 -1125 48 -1146 267 -1146 267 -1125" fill="none" stroke="#000"/>
<text x="51" y="-1131.8" font-family="Times,serif" font-size="14">primary_type</text>
<polygon points="48 -1104 48 -1125 267 -1125 267 -1104" fill="#bbb" fill-opacity=".2" stroke="transparent"/>
<polygon points="48 -1104 48 -1125 267 -1125 267 -1104" fill="none" stroke="#000"/>
<text x="51" y="-1110.8" font-family="Times,serif" font-size="14">secondary_types</text>
<polygon points="48 -1083 48 -1104 267 -1104 267 -1083" fill="#bbb" fill-opacity=".2" stroke="transparent"/>
<polygon points="48 -1083 48 -1104 267 -1104 267 -1083" fill="none" stroke="#000"/>
<text x="51" y="-1089.8" font-family="Times,serif" font-size="14">first_release_date</text>
<polygon points="48 -1062 48 -1083 267 -1083 267 -1062" fill="#bbb" fill-opacity=".2" stroke="transparent"/>
<polygon points="48 -1062 48 -1083 267 -1083 267 -1062" fill="none" stroke="#000"/>
<text x="51" y="-1068.8" font-family="Times,serif" font-size="14">sort_character</text>
<polygon points="48 -1041 48 -1062 267 -1062 267 -1041" fill="#eee" fill-opacity=".33333" stroke="transparent"/>
<polygon points="48 -1041 48 -1062 267 -1062 267 -1041" fill="none" stroke="#000"/>
<text x="51" y="-1047.8" font-family="Times,serif" font-size="14">release_group</text>
</g>
<!-- artist_release_group&#45;&gt;artist -->
<g class="edge">
<title>artist_release_group:artist-&gt;artist:id</title>
<path d="m268-1178c82.58 0 104.15-23.91 181.73-25.87" fill="none" stroke="#000"/>
<polygon points="449.96 -1207.4 460 -1204 450.04 -1200.4" stroke="#000"/>
</g>
<!-- release_group -->
<g class="node">
<title>release_group</title>
<polygon points="422 -817 422 -842 552 -842 552 -817" fill="#eee" fill-opacity=".73333" stroke="transparent"/>
<polygon points="422 -817 422 -842 552 -842 552 -817" fill="none" stroke="#000"/>
<text x="425" y="-825.4" font-family="Times,serif" font-size="17">release_group</text>
<polygon points="422 -796 422 -817 552 -817 552 -796" fill="#eee" fill-opacity=".46667" stroke="transparent"/>
<polygon points="422 -796 422 -817 552 -817 552 -796" fill="none" stroke="#000"/>
<text x="425" y="-803.8" font-family="Times,serif" font-size="14" text-decoration="underline">id</text>
<polygon points="422 -775 422 -796 552 -796 552 -775" fill="#bbb" fill-opacity=".2" stroke="transparent"/>
<polygon points="422 -775 422 -796 552 -796 552 -775" fill="none" stroke="#000"/>
<text x="425" y="-781.8" font-family="Times,serif" font-size="14">gid</text>
<polygon points="422 -754 422 -775 552 -775 552 -754" fill="#bbb" fill-opacity=".2" stroke="transparent"/>
<polygon points="422 -754 422 -775 552 -775 552 -754" fill="none" stroke="#000"/>
<text x="425" y="-760.8" font-family="Times,serif" font-size="14">name</text>
<polygon points="422 -733 422 -754 552 -754 552 -733" fill="#eee" fill-opacity=".33333" stroke="transparent"/>
<polygon points="422 -733 422 -754 552 -754 552 -733" fill="none" stroke="#000"/>
<text x="425" y="-739.8" font-family="Times,serif" font-size="14">artist_credit</text>
<polygon points="422 -712 422 -733 552 -733 552 -712" fill="#eee" fill-opacity=".33333" stroke="transparent"/>
<polygon points="422 -712 422 -733 552 -733 552 -712" fill="none" stroke="#000"/>
<text x="425" y="-718.8" font-family="Times,serif" font-size="14">type</text>
<polygon points="422 -691 422 -712 552 -712 552 -691" fill="#bbb" fill-opacity=".2" stroke="transparent"/>
<polygon points="422 -691 422 -712 552 -712 552 -691" fill="none" stroke="#000"/>
<text x="425" y="-697.8" font-family="Times,serif" font-size="14">comment</text>
<polygon points="422 -670 422 -691 552 -691 552 -670" fill="#bbb" fill-opacity=".2" stroke="transparent"/>
<polygon points="422 -670 422 -691 552 -691 552 -670" fill="none" stroke="#000"/>
<text x="425" y="-676.8" font-family="Times,serif" font-size="14">edits_pending</text>
<polygon points="422 -649 422 -670 552 -670 552 -649" fill="#bbb" fill-opacity=".2" stroke="transparent"/>
<polygon points="422 -649 422 -670 552 -670 552 -649" fill="none" stroke="#000"/>
<text x="425" y="-655.8" font-family="Times,serif" font-size="14">last_updated</text>
</g>
<!-- artist_release_group&#45;&gt;release_group -->
<g class="edge">
<title>artist_release_group:release_group-&gt;release_group:id</title>
<path d="m268-1051c21.95 0 31.81 1.25 46 18 51.572 74.546 20.37 209.35 96.94 225.49" fill="none" stroke="#000" sodipodi:nodetypes="ccc"/>
<polygon points="411.19 -811 421 -807 410.84 -804.01" stroke="#000"/>
</g>
<!-- release_group&#45;&gt;artist_credit -->
<g class="edge">
<title>release_group:artist_credit-&gt;artist_credit:id</title>
<path d="m553-743c177.07 0 2.98-351.84 166.33-365.59" fill="none" stroke="#000"/>
<polygon points="719.37 -1112.1 729.5 -1109 719.65 -1105.1" stroke="#000"/>
</g>
<!-- release_group_primary_type -->
<g class="node">
<title>release_group_primary_type</title>
<polygon points="660.5 -732 660.5 -757 913.5 -757 913.5 -732" fill="#bbb" fill-opacity=".46667" stroke="transparent"/>
<polygon points="660.5 -732 660.5 -757 913.5 -757 913.5 -732" fill="none" stroke="#000"/>
<text x="663.5" y="-740.4" font-family="Times,serif" font-size="17">release_group_primary_type</text>
<polygon points="660.5 -711 660.5 -732 913.5 -732 913.5 -711" fill="#eee" fill-opacity=".46667" stroke="transparent"/>
<polygon points="660.5 -711 660.5 -732 913.5 -732 913.5 -711" fill="none" stroke="#000"/>
<text x="663.5" y="-718.8" font-family="Times,serif" font-size="14" text-decoration="underline">id</text>
<polygon points="660.5 -690 660.5 -711 913.5 -711 913.5 -690" fill="#bbb" fill-opacity=".2" stroke="transparent"/>
<polygon points="660.5 -690 660.5 -711 913.5 -711 913.5 -690" fill="none" stroke="#000"/>
<text x="663.5" y="-696.8" font-family="Times,serif" font-size="14">name</text>
<polygon points="660.5 -669 660.5 -690 913.5 -690 913.5 -669" fill="#eee" fill-opacity=".33333" stroke="transparent"/>
<polygon points="660.5 -669 660.5 -690 913.5 -690 913.5 -669" fill="none" stroke="#000"/>
<text x="663.5" y="-675.8" font-family="Times,serif" font-size="14">parent</text>
<polygon points="660.5 -648 660.5 -669 913.5 -669 913.5 -648" fill="#bbb" fill-opacity=".2" stroke="transparent"/>
<polygon points="660.5 -648 660.5 -669 913.5 -669 913.5 -648" fill="none" stroke="#000"/>
<text x="663.5" y="-654.8" font-family="Times,serif" font-size="14">child_order</text>
<polygon points="660.5 -627 660.5 -648 913.5 -648 913.5 -627" fill="#bbb" fill-opacity=".2" stroke="transparent"/>
<polygon points="660.5 -627 660.5 -648 913.5 -648 913.5 -627" fill="none" stroke="#000"/>
<text x="663.5" y="-633.8" font-family="Times,serif" font-size="14">description</text>
<polygon points="660.5 -606 660.5 -627 913.5 -627 913.5 -606" fill="#bbb" fill-opacity=".2" stroke="transparent"/>
<polygon points="660.5 -606 660.5 -627 913.5 -627 913.5 -606" fill="none" stroke="#000"/>
<text x="663.5" y="-612.8" font-family="Times,serif" font-size="14">gid</text>
</g>
<!-- release_group&#45;&gt;release_group_primary_type -->
<g class="edge">
<title>release_group:type-&gt;release_group_primary_type:id</title>
<path d="m553-722h96.97" fill="none" stroke="#000"/>
<polygon points="650 -725.5 660 -722 650 -718.5" stroke="#000"/>
</g>
<!-- release_group_alias -->
<g class="node">
<title>release_group_alias</title>
<polygon points="68 -616 68 -641 246 -641 246 -616" fill="#bbb" fill-opacity=".46667" stroke="transparent"/>
<polygon points="68 -616 68 -641 246 -641 246 -616" fill="none" stroke="#000"/>
<text x="71" y="-624.4" font-family="Times,serif" font-size="17">release_group_alias</text>
<polygon points="68 -595 68 -616 246 -616 246 -595" fill="#eee" fill-opacity=".46667" stroke="transparent"/>
<polygon points="68 -595 68 -616 246 -616 246 -595" fill="none" stroke="#000"/>
<text x="71" y="-602.8" font-family="Times,serif" font-size="14" text-decoration="underline">id</text>
<polygon points="68 -574 68 -595 246 -595 246 -574" fill="#eee" fill-opacity=".33333" stroke="transparent"/>
<polygon points="68 -574 68 -595 246 -595 246 -574" fill="none" stroke="#000"/>
<text x="71" y="-580.8" font-family="Times,serif" font-size="14">release_group</text>
<polygon points="68 -553 68 -574 246 -574 246 -553" fill="#bbb" fill-opacity=".2" stroke="transparent"/>
<polygon points="68 -553 68 -574 246 -574 246 -553" fill="none" stroke="#000"/>
<text x="71" y="-559.8" font-family="Times,serif" font-size="14">name</text>
<polygon points="68 -532 68 -553 246 -553 246 -532" fill="#bbb" fill-opacity=".2" stroke="transparent"/>
<polygon points="68 -532 68 -553 246 -553 246 -532" fill="none" stroke="#000"/>
<text x="71" y="-538.8" font-family="Times,serif" font-size="14">locale</text>
<polygon points="68 -511 68 -532 246 -532 246 -511" fill="#bbb" fill-opacity=".2" stroke="transparent"/>
<polygon points="68 -511 68 -532 246 -532 246 -511" fill="none" stroke="#000"/>
<text x="71" y="-517.8" font-family="Times,serif" font-size="14">edits_pending</text>
<polygon points="68 -490 68 -511 246 -511 246 -490" fill="#bbb" fill-opacity=".2" stroke="transparent"/>
<polygon points="68 -490 68 -511 246 -511 246 -490" fill="none" stroke="#000"/>
<text x="71" y="-496.8" font-family="Times,serif" font-size="14">last_updated</text>
<polygon points="68 -469 68 -490 246 -490 246 -469" fill="#eee" fill-opacity=".33333" stroke="transparent"/>
<polygon points="68 -469 68 -490 246 -490 246 -469" fill="none" stroke="#000"/>
<text x="71" y="-475.8" font-family="Times,serif" font-size="14">type</text>
<polygon points="68 -448 68 -469 246 -469 246 -448" fill="#bbb" fill-opacity=".2" stroke="transparent"/>
<polygon points="68 -448 68 -469 246 -469 246 -448" fill="none" stroke="#000"/>
<text x="71" y="-454.8" font-family="Times,serif" font-size="14">sort_name</text>
<polygon points="68 -427 68 -448 246 -448 246 -427" fill="#bbb" fill-opacity=".2" stroke="transparent"/>
<polygon points="68 -427 68 -448 246 -448 246 -427" fill="none" stroke="#000"/>
<text x="71" y="-433.8" font-family="Times,serif" font-size="14">begin_date_year</text>
<polygon points="68 -406 68 -427 246 -427 246 -406" fill="#bbb" fill-opacity=".2" stroke="transparent"/>
<polygon points="68 -406 68 -427 246 -427 246 -406" fill="none" stroke="#000"/>
<text x="71" y="-412.8" font-family="Times,serif" font-size="14">begin_date_month</text>
<polygon points="68 -385 68 -406 246 -406 246 -385" fill="#bbb" fill-opacity=".2" stroke="transparent"/>
<polygon points="68 -385 68 -406 246 -406 246 -385" fill="none" stroke="#000"/>
<text x="71" y="-391.8" font-family="Times,serif" font-size="14">begin_date_day</text>
<polygon points="68 -364 68 -385 246 -385 246 -364" fill="#bbb" fill-opacity=".2" stroke="transparent"/>
<polygon points="68 -364 68 -385 246 -385 246 -364" fill="none" stroke="#000"/>
<text x="71" y="-370.8" font-family="Times,serif" font-size="14">end_date_year</text>
<polygon points="68 -343 68 -364 246 -364 246 -343" fill="#bbb" fill-opacity=".2" stroke="transparent"/>
<polygon points="68 -343 68 -364 246 -364 246 -343" fill="none" stroke="#000"/>
<text x="71" y="-349.8" font-family="Times,serif" font-size="14">end_date_month</text>
<polygon points="68 -322 68 -343 246 -343 246 -322" fill="#bbb" fill-opacity=".2" stroke="transparent"/>
<polygon points="68 -322 68 -343 246 -343 246 -322" fill="none" stroke="#000"/>
<text x="71" y="-328.8" font-family="Times,serif" font-size="14">end_date_day</text>
<polygon points="68 -301 68 -322 246 -322 246 -301" fill="#bbb" fill-opacity=".2" stroke="transparent"/>
<polygon points="68 -301 68 -322 246 -322 246 -301" fill="none" stroke="#000"/>
<text x="71" y="-307.8" font-family="Times,serif" font-size="14">primary_for_locale</text>
<polygon points="68 -280 68 -301 246 -301 246 -280" fill="#bbb" fill-opacity=".2" stroke="transparent"/>
<polygon points="68 -280 68 -301 246 -301 246 -280" fill="none" stroke="#000"/>
<text x="71" y="-286.8" font-family="Times,serif" font-size="14">ended</text>
</g>
<!-- release_group_alias&#45;&gt;release_group -->
<g class="edge">
<title>release_group_alias:release_group-&gt;release_group:id</title>
<path d="m247-585c121.81 0 52.82-209.6 163.83-221.48" fill="none" stroke="#000"/>
<polygon points="410.83 -809.98 421 -807 411.19 -802.99" stroke="#000"/>
</g>
<!-- release_group_alias_type -->
<g class="node">
<title>release_group_alias_type</title>
<polygon points="375 -490 375 -515 599 -515 599 -490" fill="#bbb" fill-opacity=".46667" stroke="transparent"/>
<polygon points="375 -490 375 -515 599 -515 599 -490" fill="none" stroke="#000"/>
<text x="378" y="-498.4" font-family="Times,serif" font-size="17">release_group_alias_type</text>
<polygon points="375 -469 375 -490 599 -490 599 -469" fill="#eee" fill-opacity=".46667" stroke="transparent"/>
<polygon points="375 -469 375 -490 599 -490 599 -469" fill="none" stroke="#000"/>
<text x="378" y="-476.8" font-family="Times,serif" font-size="14" text-decoration="underline">id</text>
<polygon points="375 -448 375 -469 599 -469 599 -448" fill="#bbb" fill-opacity=".2" stroke="transparent"/>
<polygon points="375 -448 375 -469 599 -469 599 -448" fill="none" stroke="#000"/>
<text x="378" y="-454.8" font-family="Times,serif" font-size="14">name</text>
<polygon points="375 -427 375 -448 599 -448 599 -427" fill="#eee" fill-opacity=".33333" stroke="transparent"/>
<polygon points="375 -427 375 -448 599 -448 599 -427" fill="none" stroke="#000"/>
<text x="378" y="-433.8" font-family="Times,serif" font-size="14">parent</text>
<polygon points="375 -406 375 -427 599 -427 599 -406" fill="#bbb" fill-opacity=".2" stroke="transparent"/>
<polygon points="375 -406 375 -427 599 -427 599 -406" fill="none" stroke="#000"/>
<text x="378" y="-412.8" font-family="Times,serif" font-size="14">child_order</text>
<polygon points="375 -385 375 -406 599 -406 599 -385" fill="#bbb" fill-opacity=".2" stroke="transparent"/>
<polygon points="375 -385 375 -406 599 -406 599 -385" fill="none" stroke="#000"/>
<text x="378" y="-391.8" font-family="Times,serif" font-size="14">description</text>
<polygon points="375 -364 375 -385 599 -385 599 -364" fill="#bbb" fill-opacity=".2" stroke="transparent"/>
<polygon points="375 -364 375 -385 599 -385 599 -364" fill="none" stroke="#000"/>
<text x="378" y="-370.8" font-family="Times,serif" font-size="14">gid</text>
</g>
<!-- release_group_alias&#45;&gt;release_group_alias_type -->
<g class="edge">
<title>release_group_alias:type-&gt;release_group_alias_type:id</title>
<path d="m247-480h116.89" fill="none" stroke="#000"/>
<polygon points="364 -483.5 374 -480 364 -476.5" stroke="#000"/>
</g>
<!-- release_group_annotation -->
<g class="node">
<title>release_group_annotation</title>
<polygon points="41 -998 41 -1023 273 -1023 273 -998" fill="#bbb" fill-opacity=".46667" stroke="transparent"/>
<polygon points="41 -998 41 -1023 273 -1023 273 -998" fill="none" stroke="#000"/>
<text x="44" y="-1006.4" font-family="Times,serif" font-size="17">release_group_annotation</text>
<polygon points="41 -977 41 -998 273 -998 273 -977" fill="#eee" fill-opacity=".46667" stroke="transparent"/>
<polygon points="41 -977 41 -998 273 -998 273 -977" fill="none" stroke="#000"/>
<text x="44" y="-984.8" font-family="Times,serif" font-size="14" text-decoration="underline">release_group</text>
<polygon points="41 -956 41 -977 273 -977 273 -956" fill="#eee" fill-opacity=".46667" stroke="transparent"/>
<polygon points="41 -956 41 -977 273 -977 273 -956" fill="none" stroke="#000"/>
<text x="44" y="-963.8" font-family="Times,serif" font-size="14" text-decoration="underline">annotation</text>
</g>
<!-- release_group_annotation&#45;&gt;annotation -->
<g class="edge">
<title>release_group_annotation:annotation-&gt;annotation:id</title>
<path d="m274-966h151.83" fill="none" stroke="#000"/>
<polygon points="426 -969.5 436 -966 426 -962.5" stroke="#000"/>
</g>
<!-- release_group_annotation&#45;&gt;release_group -->
<g class="edge">
<title>release_group_annotation:release_group-&gt;release_group:id</title>
<path d="m274-987c82.7 27.902 51.642 167.12 137.01 179.44" fill="none" stroke="#000" sodipodi:nodetypes="cc"/>
<polygon points="411.21 -811.05 421 -807 410.82 -804.06" stroke="#000"/>
</g>
<!-- release_group_gid_redirect -->
<g class="node">
<title>release_group_gid_redirect</title>
<polygon points="36 -913 36 -938 279 -938 279 -913" fill="#bbb" fill-opacity=".46667" stroke="transparent"/>
<polygon points="36 -913 36 -938 279 -938 279 -913" fill="none" stroke="#000"/>
<text x="39" y="-921.4" font-family="Times,serif" font-size="17">release_group_gid_redirect</text>
<polygon points="36 -892 36 -913 279 -913 279 -892" fill="#eee" fill-opacity=".46667" stroke="transparent"/>
<polygon points="36 -892 36 -913 279 -913 279 -892" fill="none" stroke="#000"/>
<text x="39" y="-899.8" font-family="Times,serif" font-size="14" text-decoration="underline">gid</text>
<polygon points="36 -871 36 -892 279 -892 279 -871" fill="#eee" fill-opacity=".33333" stroke="transparent"/>
<polygon points="36 -871 36 -892 279 -892 279 -871" fill="none" stroke="#000"/>
<text x="39" y="-877.8" font-family="Times,serif" font-size="14">new_id</text>
<polygon points="36 -850 36 -871 279 -871 279 -850" fill="#bbb" fill-opacity=".2" stroke="transparent"/>
<polygon points="36 -850 36 -871 279 -871 279 -850" fill="none" stroke="#000"/>
<text x="39" y="-856.8" font-family="Times,serif" font-size="14">created</text>
</g>
<!-- release_group_gid_redirect&#45;&gt;release_group -->
<g class="edge">
<title>release_group_gid_redirect:new_id-&gt;release_group:id</title>
<path d="m280-881c67.18 0 70.1 66.68 130.75 73.45" fill="none" stroke="#000"/>
<polygon points="411.2 -811.03 421 -807 410.83 -804.04" stroke="#000"/>
</g>
<!-- release_group_meta -->
<g class="node">
<title>release_group_meta</title>
<polygon points="65 -807 65 -832 250 -832 250 -807" fill="#bbb" fill-opacity=".46667" stroke="transparent"/>
<polygon points="65 -807 65 -832 250 -832 250 -807" fill="none" stroke="#000"/>
<text x="70" y="-815.4" font-family="Times,serif" font-size="17">release_group_meta</text>
<polygon points="65 -786 65 -807 250 -807 250 -786" fill="#eee" fill-opacity=".46667" stroke="transparent"/>
<polygon points="65 -786 65 -807 250 -807 250 -786" fill="none" stroke="#000"/>
<text x="68" y="-793.8" font-family="Times,serif" font-size="14" text-decoration="underline">id</text>
<polygon points="65 -765 65 -786 250 -786 250 -765" fill="#bbb" fill-opacity=".2" stroke="transparent"/>
<polygon points="65 -765 65 -786 250 -786 250 -765" fill="none" stroke="#000"/>
<text x="68" y="-771.8" font-family="Times,serif" font-size="14">release_count</text>
<polygon points="65 -744 65 -765 250 -765 250 -744" fill="#bbb" fill-opacity=".2" stroke="transparent"/>
<polygon points="65 -744 65 -765 250 -765 250 -744" fill="none" stroke="#000"/>
<text x="68" y="-750.8" font-family="Times,serif" font-size="14">first_release_date_year</text>
<polygon points="65 -723 65 -744 250 -744 250 -723" fill="#bbb" fill-opacity=".2" stroke="transparent"/>
<polygon points="65 -723 65 -744 250 -744 250 -723" fill="none" stroke="#000"/>
<text x="68" y="-729.8" font-family="Times,serif" font-size="14">first_release_date_month</text>
<polygon points="65 -702 65 -723 250 -723 250 -702" fill="#bbb" fill-opacity=".2" stroke="transparent"/>
<polygon points="65 -702 65 -723 250 -723 250 -702" fill="none" stroke="#000"/>
<text x="68" y="-708.8" font-family="Times,serif" font-size="14">first_release_date_day</text>
<polygon points="65 -681 65 -702 250 -702 250 -681" fill="#bbb" fill-opacity=".2" stroke="transparent"/>
<polygon points="65 -681 65 -702 250 -702 250 -681" fill="none" stroke="#000"/>
<text x="68" y="-687.8" font-family="Times,serif" font-size="14">rating</text>
<polygon points="65 -660 65 -681 250 -681 250 -660" fill="#bbb" fill-opacity=".2" stroke="transparent"/>
<polygon points="65 -660 65 -681 250 -681 250 -660" fill="none" stroke="#000"/>
<text x="68" y="-666.8" font-family="Times,serif" font-size="14">rating_count</text>
</g>
<!-- release_group_meta&#45;&gt;release_group -->
<g class="edge">
<title>release_group_meta:id-&gt;release_group:id</title>
<path d="m251-797c72.14 0 92.44-9.08 159.72-9.94" fill="none" stroke="#000"/>
<polygon points="410.98 -810.44 421 -807 411.02 -803.44" stroke="#000"/>
</g>
<!-- release_group_secondary_type -->
<g class="node">
<title>release_group_secondary_type</title>
<polygon points="350 -232 350 -257 624 -257 624 -232" fill="#bbb" fill-opacity=".46667" stroke="transparent"/>
<polygon points="350 -232 350 -257 624 -257 624 -232" fill="none" stroke="#000"/>
<text x="353" y="-240.4" font-family="Times,serif" font-size="17">release_group_secondary_type</text>
<polygon points="350 -211 350 -232 624 -232 624 -211" fill="#eee" fill-opacity=".46667" stroke="transparent"/>
<polygon points="350 -211 350 -232 624 -232 624 -211" fill="none" stroke="#000"/>
<text x="353" y="-218.8" font-family="Times,serif" font-size="14" text-decoration="underline">id</text>
<polygon points="350 -190 350 -211 624 -211 624 -190" fill="#bbb" fill-opacity=".2" stroke="transparent"/>
<polygon points="350 -190 350 -211 624 -211 624 -190" fill="none" stroke="#000"/>
<text x="353" y="-196.8" font-family="Times,serif" font-size="14">name</text>
<polygon points="350 -169 350 -190 624 -190 624 -169" fill="#eee" fill-opacity=".33333" stroke="transparent"/>
<polygon points="350 -169 350 -190 624 -190 624 -169" fill="none" stroke="#000"/>
<text x="353" y="-175.8" font-family="Times,serif" font-size="14">parent</text>
<polygon points="350 -148 350 -169 624 -169 624 -148" fill="#bbb" fill-opacity=".2" stroke="transparent"/>
<polygon points="350 -148 350 -169 624 -169 624 -148" fill="none" stroke="#000"/>
<text x="353" y="-154.8" font-family="Times,serif" font-size="14">child_order</text>
<polygon points="350 -127 350 -148 624 -148 624 -127" fill="#bbb" fill-opacity=".2" stroke="transparent"/>
<polygon points="350 -127 350 -148 624 -148 624 -127" fill="none" stroke="#000"/>
<text x="353" y="-133.8" font-family="Times,serif" font-size="14">description</text>
<polygon points="350 -106 350 -127 624 -127 624 -106" fill="#bbb" fill-opacity=".2" stroke="transparent"/>
<polygon points="350 -106 350 -127 624 -127 624 -106" fill="none" stroke="#000"/>
<text x="353" y="-112.8" font-family="Times,serif" font-size="14">gid</text>
</g>
<!-- release_group_secondary_type_join -->
<g class="node">
<title>release_group_secondary_type_join</title>
<polygon points="0 -238 0 -263 314 -263 314 -238" fill="#bbb" fill-opacity=".46667" stroke="transparent"/>
<polygon points="0 -238 0 -263 314 -263 314 -238" fill="none" stroke="#000"/>
<text x="3" y="-246.4" font-family="Times,serif" font-size="17">release_group_secondary_type_join</text>
<polygon points="0 -217 0 -238 314 -238 314 -217" fill="#eee" fill-opacity=".46667" stroke="transparent"/>
<polygon points="0 -217 0 -238 314 -238 314 -217" fill="none" stroke="#000"/>
<text x="3" y="-224.8" font-family="Times,serif" font-size="14" text-decoration="underline">release_group</text>
<polygon points="0 -196 0 -217 314 -217 314 -196" fill="#eee" fill-opacity=".46667" stroke="transparent"/>
<polygon points="0 -196 0 -217 314 -217 314 -196" fill="none" stroke="#000"/>
<text x="3" y="-203.8" font-family="Times,serif" font-size="14" text-decoration="underline">secondary_type</text>
<polygon points="0 -175 0 -196 314 -196 314 -175" fill="#bbb" fill-opacity=".2" stroke="transparent"/>
<polygon points="0 -175 0 -196 314 -196 314 -175" fill="none" stroke="#000"/>
<text x="3" y="-181.8" font-family="Times,serif" font-size="14">created</text>
</g>
<!-- release_group_secondary_type_join&#45;&gt;release_group -->
<g class="edge">
<title>release_group_secondary_type_join:release_group-&gt;release_group:id</title>
<path d="m314-228c50.072 0-44.441-561.21 96.86-578.66" fill="none" stroke="#000" sodipodi:nodetypes="cc"/>
<polygon points="410.89 -810.16 421 -807 411.12 -803.16" stroke="#000"/>
</g>
<!-- release_group_secondary_type_join&#45;&gt;release_group_secondary_type -->
<g class="edge">
<title>release_group_secondary_type_join:secondary_type-&gt;release_group_secondary_type:id</title>
<path d="m314-206c13.41 0 17.12-9.38 25.99-13.78" fill="none" stroke="#000"/>
<polygon points="339.48 -223.25 350 -222 341 -216.41" stroke="#000"/>
</g>
<!-- release_group_tag -->
<g class="node">
<title>release_group_tag</title>
<polygon points="74 -100 74 -125 240 -125 240 -100" fill="#bbb" fill-opacity=".46667" stroke="transparent"/>
<polygon points="74 -100 74 -125 240 -125 240 -100" fill="none" stroke="#000"/>
<text x="77" y="-108.4" font-family="Times,serif" font-size="17">release_group_tag</text>
<polygon points="74 -79 74 -100 240 -100 240 -79" fill="#eee" fill-opacity=".46667" stroke="transparent"/>
<polygon points="74 -79 74 -100 240 -100 240 -79" fill="none" stroke="#000"/>
<text x="77" y="-86.8" font-family="Times,serif" font-size="14" text-decoration="underline">release_group</text>
<polygon points="74 -58 74 -79 240 -79 240 -58" fill="#eee" fill-opacity=".46667" stroke="transparent"/>
<polygon points="74 -58 74 -79 240 -79 240 -58" fill="none" stroke="#000"/>
<text x="77" y="-65.8" font-family="Times,serif" font-size="14" text-decoration="underline">tag</text>
<polygon points="74 -37 74 -58 240 -58 240 -37" fill="#bbb" fill-opacity=".2" stroke="transparent"/>
<polygon points="74 -37 74 -58 240 -58 240 -37" fill="none" stroke="#000"/>
<text x="77" y="-43.8" font-family="Times,serif" font-size="14">count</text>
<polygon points="74 -16 74 -37 240 -37 240 -16" fill="#bbb" fill-opacity=".2" stroke="transparent"/>
<polygon points="74 -16 74 -37 240 -37 240 -16" fill="none" stroke="#000"/>
<text x="77" y="-22.8" font-family="Times,serif" font-size="14">last_updated</text>
</g>
<!-- release_group_tag&#45;&gt;release_group -->
<g class="edge">
<title>release_group_tag:release_group-&gt;release_group:id</title>
<path d="m241-90c46.84 0 55.582-8.2423 75.222-50.762 59.07-127.91-34.952-641.57 94.628-665.34" fill="none" stroke="#000" sodipodi:nodetypes="ccc"/>
<polygon points="410.73 -809.6 421 -807 411.35 -802.63" stroke="#000"/>
</g>
<!-- tag -->
<g class="node">
<title>tag</title>
<polygon points="451 -63 451 -88 524 -88 524 -63" fill="#bbb" fill-opacity=".46667" stroke="transparent"/>
<polygon points="451 -63 451 -88 524 -88 524 -63" fill="none" stroke="#000"/>
<text x="473" y="-71.4" font-family="Times,serif" font-size="17">tag</text>
<polygon points="451 -42 451 -63 524 -63 524 -42" fill="#eee" fill-opacity=".46667" stroke="transparent"/>
<polygon points="451 -42 451 -63 524 -63 524 -42" fill="none" stroke="#000"/>
<text x="454" y="-49.8" font-family="Times,serif" font-size="14" text-decoration="underline">id</text>
<polygon points="451 -21 451 -42 524 -42 524 -21" fill="#bbb" fill-opacity=".2" stroke="transparent"/>
<polygon points="451 -21 451 -42 524 -42 524 -21" fill="none" stroke="#000"/>
<text x="454" y="-27.8" font-family="Times,serif" font-size="14">name</text>
<polygon points="451 0 451 -21 524 -21 524 0" fill="#bbb" fill-opacity=".2" stroke="transparent"/>
<polygon points="451 0 451 -21 524 -21 524 0" fill="none" stroke="#000"/>
<text x="454" y="-6.8" font-family="Times,serif" font-size="14">ref_count</text>
</g>
<!-- release_group_tag&#45;&gt;tag -->
<g class="edge">
<title>release_group_tag:tag-&gt;tag:id</title>
<path d="m241-68c89.67 0 114.09 13.91 198.92 14.94" fill="none" stroke="#000"/>
<polygon points="440.02 -56.56 450 -53 439.98 -49.56" stroke="#000"/>
</g>
</g>
</svg>
