<?xml version="1.0" encoding="UTF-8"?>
<!-- Generated by graphviz version 2.43.0 (0)
 -->
<!-- Title: series_entity_details Pages: 1 -->
<svg width="590pt" height="721pt" inkscape:version="1.2.1 (9c6d41e410, 2022-07-14)" sodipodi:docname="series_entity_details.svg" version="1.1" viewBox="0 0 590 720.5" xmlns="http://www.w3.org/2000/svg" xmlns:inkscape="http://www.inkscape.org/namespaces/inkscape" xmlns:sodipodi="http://sodipodi.sourceforge.net/DTD/sodipodi-0.dtd" xmlns:xlink="http://www.w3.org/1999/xlink">
<sodipodi:namedview bordercolor="#666666" borderopacity="1.0" inkscape:current-layer="svg8683" inkscape:cx="394.20355" inkscape:cy="481.80434" inkscape:deskcolor="#d1d1d1" inkscape:document-units="pt" inkscape:pagecheckerboard="0" inkscape:pageopacity="0.0" inkscape:showpageshadow="2" inkscape:window-height="1034" inkscape:window-maximized="1" inkscape:window-width="1920" inkscape:window-x="-4" inkscape:window-y="-4" inkscape:zoom="0.87898752" pagecolor="#ffffff" showgrid="false"/>
<g class="graph" transform="scale(1) translate(4 716.5)">
<title>series_entity_details</title>
<a xlink:title="Tables for the “series” entity type properties">
<defs>
<linearGradient id="l_0" x1="35.52" x2="546.48" y1="-536.38" y2="-176.12" gradientUnits="userSpaceOnUse">
<stop stop-color="#cb75ab" offset="0"/>
<stop stop-color="#f0976c" offset="1"/>
</linearGradient>
</defs>
<polygon points="-4 4 -4 -716.5 586 -716.5 586 4" fill="url(#l_0)" stroke="transparent"/>
</a>
<!-- annotation -->
<g class="node">
<title>annotation</title>
<polygon points="233 -681 233 -706 334 -706 334 -681" fill="#bbb" fill-opacity=".46667" stroke="transparent"/>
<polygon points="233 -681 233 -706 334 -706 334 -681" fill="none" stroke="#000"/>
<text x="236" y="-689.4" font-family="Times,serif" font-size="17">annotation</text>
<polygon points="233 -660 233 -681 334 -681 334 -660" fill="#eee" fill-opacity=".46667" stroke="transparent"/>
<polygon points="233 -660 233 -681 334 -681 334 -660" fill="none" stroke="#000"/>
<text x="236" y="-667.8" font-family="Times,serif" font-size="14" text-decoration="underline">id</text>
<polygon points="233 -639 233 -660 334 -660 334 -639" fill="#bbb" fill-opacity=".2" stroke="transparent"/>
<polygon points="233 -639 233 -660 334 -660 334 -639" fill="none" stroke="#000"/>
<text x="236" y="-645.8" font-family="Times,serif" font-size="14">editor</text>
<polygon points="233 -618 233 -639 334 -639 334 -618" fill="#bbb" fill-opacity=".2" stroke="transparent"/>
<polygon points="233 -618 233 -639 334 -639 334 -618" fill="none" stroke="#000"/>
<text x="236" y="-624.8" font-family="Times,serif" font-size="14">text</text>
<polygon points="233 -597 233 -618 334 -618 334 -597" fill="#bbb" fill-opacity=".2" stroke="transparent"/>
<polygon points="233 -597 233 -618 334 -618 334 -597" fill="none" stroke="#000"/>
<text x="236" y="-603.8" font-family="Times,serif" font-size="14">changelog</text>
<polygon points="233 -576 233 -597 334 -597 334 -576" fill="#bbb" fill-opacity=".2" stroke="transparent"/>
<polygon points="233 -576 233 -597 334 -597 334 -576" fill="none" stroke="#000"/>
<text x="236" y="-582.8" font-family="Times,serif" font-size="14">created</text>
</g>
<!-- series -->
<g class="node">
<title>series</title>
<polygon points="230 -532 230 -557 336 -557 336 -532" fill="#eee" fill-opacity=".73333" stroke="transparent"/>
<polygon points="230 -532 230 -557 336 -557 336 -532" fill="none" stroke="#000"/>
<text x="257" y="-540.4" font-family="Times,serif" font-size="17">series</text>
<polygon points="230 -511 230 -532 336 -532 336 -511" fill="#eee" fill-opacity=".46667" stroke="transparent"/>
<polygon points="230 -511 230 -532 336 -532 336 -511" fill="none" stroke="#000"/>
<text x="233" y="-518.8" font-family="Times,serif" font-size="14" text-decoration="underline">id</text>
<polygon points="230 -490 230 -511 336 -511 336 -490" fill="#bbb" fill-opacity=".2" stroke="transparent"/>
<polygon points="230 -490 230 -511 336 -511 336 -490" fill="none" stroke="#000"/>
<text x="233" y="-496.8" font-family="Times,serif" font-size="14">gid</text>
<polygon points="230 -469 230 -490 336 -490 336 -469" fill="#bbb" fill-opacity=".2" stroke="transparent"/>
<polygon points="230 -469 230 -490 336 -490 336 -469" fill="none" stroke="#000"/>
<text x="233" y="-475.8" font-family="Times,serif" font-size="14">name</text>
<polygon points="230 -448 230 -469 336 -469 336 -448" fill="#bbb" fill-opacity=".2" stroke="transparent"/>
<polygon points="230 -448 230 -469 336 -469 336 -448" fill="none" stroke="#000"/>
<text x="233" y="-454.8" font-family="Times,serif" font-size="14">comment</text>
<polygon points="230 -427 230 -448 336 -448 336 -427" fill="#eee" fill-opacity=".33333" stroke="transparent"/>
<polygon points="230 -427 230 -448 336 -448 336 -427" fill="none" stroke="#000"/>
<text x="233" y="-433.8" font-family="Times,serif" font-size="14">type</text>
<polygon points="230 -406 230 -427 336 -427 336 -406" fill="#eee" fill-opacity=".33333" stroke="transparent"/>
<polygon points="230 -406 230 -427 336 -427 336 -406" fill="none" stroke="#000"/>
<text x="233" y="-412.8" font-family="Times,serif" font-size="14">ordering_type</text>
<polygon points="230 -385 230 -406 336 -406 336 -385" fill="#bbb" fill-opacity=".2" stroke="transparent"/>
<polygon points="230 -385 230 -406 336 -406 336 -385" fill="none" stroke="#000"/>
<text x="233" y="-391.8" font-family="Times,serif" font-size="14">edits_pending</text>
<polygon points="230 -364 230 -385 336 -385 336 -364" fill="#bbb" fill-opacity=".2" stroke="transparent"/>
<polygon points="230 -364 230 -385 336 -385 336 -364" fill="none" stroke="#000"/>
<text x="233" y="-370.8" font-family="Times,serif" font-size="14">last_updated</text>
</g>
<!-- series_ordering_type -->
<g class="node">
<title>series_ordering_type</title>
<polygon points="395.5 -341 395.5 -366 582.5 -366 582.5 -341" fill="#bbb" fill-opacity=".46667" stroke="transparent"/>
<polygon points="395.5 -341 395.5 -366 582.5 -366 582.5 -341" fill="none" stroke="#000"/>
<text x="398.5" y="-349.4" font-family="Times,serif" font-size="17">series_ordering_type</text>
<polygon points="395.5 -320 395.5 -341 582.5 -341 582.5 -320" fill="#eee" fill-opacity=".46667" stroke="transparent"/>
<polygon points="395.5 -320 395.5 -341 582.5 -341 582.5 -320" fill="none" stroke="#000"/>
<text x="398.5" y="-327.8" font-family="Times,serif" font-size="14" text-decoration="underline">id</text>
<polygon points="395.5 -299 395.5 -320 582.5 -320 582.5 -299" fill="#bbb" fill-opacity=".2" stroke="transparent"/>
<polygon points="395.5 -299 395.5 -320 582.5 -320 582.5 -299" fill="none" stroke="#000"/>
<text x="398.5" y="-305.8" font-family="Times,serif" font-size="14">name</text>
<polygon points="395.5 -278 395.5 -299 582.5 -299 582.5 -278" fill="#eee" fill-opacity=".33333" stroke="transparent"/>
<polygon points="395.5 -278 395.5 -299 582.5 -299 582.5 -278" fill="none" stroke="#000"/>
<text x="398.5" y="-284.8" font-family="Times,serif" font-size="14">parent</text>
<polygon points="395.5 -257 395.5 -278 582.5 -278 582.5 -257" fill="#bbb" fill-opacity=".2" stroke="transparent"/>
<polygon points="395.5 -257 395.5 -278 582.5 -278 582.5 -257" fill="none" stroke="#000"/>
<text x="398.5" y="-263.8" font-family="Times,serif" font-size="14">child_order</text>
<polygon points="395.5 -236 395.5 -257 582.5 -257 582.5 -236" fill="#bbb" fill-opacity=".2" stroke="transparent"/>
<polygon points="395.5 -236 395.5 -257 582.5 -257 582.5 -236" fill="none" stroke="#000"/>
<text x="398.5" y="-242.8" font-family="Times,serif" font-size="14">description</text>
<polygon points="395.5 -215 395.5 -236 582.5 -236 582.5 -215" fill="#bbb" fill-opacity=".2" stroke="transparent"/>
<polygon points="395.5 -215 395.5 -236 582.5 -236 582.5 -215" fill="none" stroke="#000"/>
<text x="398.5" y="-221.8" font-family="Times,serif" font-size="14">gid</text>
</g>
<!-- series&#45;&gt;series_ordering_type -->
<g class="edge">
<title>series:ordering_type-&gt;series_ordering_type:id</title>
<path d="m337-416c41.8 0 17.43 71.02 47.86 83.22" fill="none" stroke="#000"/>
<polygon points="385.75 -336.17 395 -331 384.55 -329.28" stroke="#000"/>
</g>
<!-- series_type -->
<g class="node">
<title>series_type</title>
<polygon points="437.5 -532 437.5 -557 540.5 -557 540.5 -532" fill="#bbb" fill-opacity=".46667" stroke="transparent"/>
<polygon points="437.5 -532 437.5 -557 540.5 -557 540.5 -532" fill="none" stroke="#000"/>
<text x="440.5" y="-540.4" font-family="Times,serif" font-size="17">series_type</text>
<polygon points="437.5 -511 437.5 -532 540.5 -532 540.5 -511" fill="#eee" fill-opacity=".46667" stroke="transparent"/>
<polygon points="437.5 -511 437.5 -532 540.5 -532 540.5 -511" fill="none" stroke="#000"/>
<text x="440.5" y="-518.8" font-family="Times,serif" font-size="14" text-decoration="underline">id</text>
<polygon points="437.5 -490 437.5 -511 540.5 -511 540.5 -490" fill="#bbb" fill-opacity=".2" stroke="transparent"/>
<polygon points="437.5 -490 437.5 -511 540.5 -511 540.5 -490" fill="none" stroke="#000"/>
<text x="440.5" y="-496.8" font-family="Times,serif" font-size="14">name</text>
<polygon points="437.5 -469 437.5 -490 540.5 -490 540.5 -469" fill="#bbb" fill-opacity=".2" stroke="transparent"/>
<polygon points="437.5 -469 437.5 -490 540.5 -490 540.5 -469" fill="none" stroke="#000"/>
<text x="440.5" y="-475.8" font-family="Times,serif" font-size="14">entity_type</text>
<polygon points="437.5 -448 437.5 -469 540.5 -469 540.5 -448" fill="#eee" fill-opacity=".33333" stroke="transparent"/>
<polygon points="437.5 -448 437.5 -469 540.5 -469 540.5 -448" fill="none" stroke="#000"/>
<text x="440.5" y="-454.8" font-family="Times,serif" font-size="14">parent</text>
<polygon points="437.5 -427 437.5 -448 540.5 -448 540.5 -427" fill="#bbb" fill-opacity=".2" stroke="transparent"/>
<polygon points="437.5 -427 437.5 -448 540.5 -448 540.5 -427" fill="none" stroke="#000"/>
<text x="440.5" y="-433.8" font-family="Times,serif" font-size="14">child_order</text>
<polygon points="437.5 -406 437.5 -427 540.5 -427 540.5 -406" fill="#bbb" fill-opacity=".2" stroke="transparent"/>
<polygon points="437.5 -406 437.5 -427 540.5 -427 540.5 -406" fill="none" stroke="#000"/>
<text x="440.5" y="-412.8" font-family="Times,serif" font-size="14">description</text>
<polygon points="437.5 -385 437.5 -406 540.5 -406 540.5 -385" fill="#bbb" fill-opacity=".2" stroke="transparent"/>
<polygon points="437.5 -385 437.5 -406 540.5 -406 540.5 -385" fill="none" stroke="#000"/>
<text x="440.5" y="-391.8" font-family="Times,serif" font-size="14">gid</text>
</g>
<!-- series&#45;&gt;series_type -->
<g class="edge">
<title>series:type-&gt;series_type:id</title>
<path d="m337-437c54.53 0 43.15-74.71 89.44-84.05" fill="none" stroke="#000"/>
<polygon points="426.21 -524.54 436.5 -522 426.88 -517.57" stroke="#000"/>
</g>
<!-- series_alias -->
<g class="node">
<title>series_alias</title>
<polygon points="16.5 -464 16.5 -489 155.5 -489 155.5 -464" fill="#bbb" fill-opacity=".46667" stroke="transparent"/>
<polygon points="16.5 -464 16.5 -489 155.5 -489 155.5 -464" fill="none" stroke="#000"/>
<text x="36" y="-472.4" font-family="Times,serif" font-size="17">series_alias</text>
<polygon points="16.5 -443 16.5 -464 155.5 -464 155.5 -443" fill="#eee" fill-opacity=".46667" stroke="transparent"/>
<polygon points="16.5 -443 16.5 -464 155.5 -464 155.5 -443" fill="none" stroke="#000"/>
<text x="19.5" y="-450.8" font-family="Times,serif" font-size="14" text-decoration="underline">id</text>
<polygon points="16.5 -422 16.5 -443 155.5 -443 155.5 -422" fill="#eee" fill-opacity=".33333" stroke="transparent"/>
<polygon points="16.5 -422 16.5 -443 155.5 -443 155.5 -422" fill="none" stroke="#000"/>
<text x="19.5" y="-428.8" font-family="Times,serif" font-size="14">series</text>
<polygon points="16.5 -401 16.5 -422 155.5 -422 155.5 -401" fill="#bbb" fill-opacity=".2" stroke="transparent"/>
<polygon points="16.5 -401 16.5 -422 155.5 -422 155.5 -401" fill="none" stroke="#000"/>
<text x="19.5" y="-407.8" font-family="Times,serif" font-size="14">name</text>
<polygon points="16.5 -380 16.5 -401 155.5 -401 155.5 -380" fill="#bbb" fill-opacity=".2" stroke="transparent"/>
<polygon points="16.5 -380 16.5 -401 155.5 -401 155.5 -380" fill="none" stroke="#000"/>
<text x="19.5" y="-386.8" font-family="Times,serif" font-size="14">locale</text>
<polygon points="16.5 -359 16.5 -380 155.5 -380 155.5 -359" fill="#bbb" fill-opacity=".2" stroke="transparent"/>
<polygon points="16.5 -359 16.5 -380 155.5 -380 155.5 -359" fill="none" stroke="#000"/>
<text x="19.5" y="-365.8" font-family="Times,serif" font-size="14">edits_pending</text>
<polygon points="16.5 -338 16.5 -359 155.5 -359 155.5 -338" fill="#bbb" fill-opacity=".2" stroke="transparent"/>
<polygon points="16.5 -338 16.5 -359 155.5 -359 155.5 -338" fill="none" stroke="#000"/>
<text x="19.5" y="-344.8" font-family="Times,serif" font-size="14">last_updated</text>
<polygon points="16.5 -317 16.5 -338 155.5 -338 155.5 -317" fill="#eee" fill-opacity=".33333" stroke="transparent"/>
<polygon points="16.5 -317 16.5 -338 155.5 -338 155.5 -317" fill="none" stroke="#000"/>
<text x="19.5" y="-323.8" font-family="Times,serif" font-size="14">type</text>
<polygon points="16.5 -296 16.5 -317 155.5 -317 155.5 -296" fill="#bbb" fill-opacity=".2" stroke="transparent"/>
<polygon points="16.5 -296 16.5 -317 155.5 -317 155.5 -296" fill="none" stroke="#000"/>
<text x="19.5" y="-302.8" font-family="Times,serif" font-size="14">sort_name</text>
<polygon points="16.5 -275 16.5 -296 155.5 -296 155.5 -275" fill="#bbb" fill-opacity=".2" stroke="transparent"/>
<polygon points="16.5 -275 16.5 -296 155.5 -296 155.5 -275" fill="none" stroke="#000"/>
<text x="19.5" y="-281.8" font-family="Times,serif" font-size="14">begin_date_year</text>
<polygon points="16.5 -254 16.5 -275 155.5 -275 155.5 -254" fill="#bbb" fill-opacity=".2" stroke="transparent"/>
<polygon points="16.5 -254 16.5 -275 155.5 -275 155.5 -254" fill="none" stroke="#000"/>
<text x="19.5" y="-260.8" font-family="Times,serif" font-size="14">begin_date_month</text>
<polygon points="16.5 -233 16.5 -254 155.5 -254 155.5 -233" fill="#bbb" fill-opacity=".2" stroke="transparent"/>
<polygon points="16.5 -233 16.5 -254 155.5 -254 155.5 -233" fill="none" stroke="#000"/>
<text x="19.5" y="-239.8" font-family="Times,serif" font-size="14">begin_date_day</text>
<polygon points="16.5 -212 16.5 -233 155.5 -233 155.5 -212" fill="#bbb" fill-opacity=".2" stroke="transparent"/>
<polygon points="16.5 -212 16.5 -233 155.5 -233 155.5 -212" fill="none" stroke="#000"/>
<text x="19.5" y="-218.8" font-family="Times,serif" font-size="14">end_date_year</text>
<polygon points="16.5 -191 16.5 -212 155.5 -212 155.5 -191" fill="#bbb" fill-opacity=".2" stroke="transparent"/>
<polygon points="16.5 -191 16.5 -212 155.5 -212 155.5 -191" fill="none" stroke="#000"/>
<text x="19.5" y="-197.8" font-family="Times,serif" font-size="14">end_date_month</text>
<polygon points="16.5 -170 16.5 -191 155.5 -191 155.5 -170" fill="#bbb" fill-opacity=".2" stroke="transparent"/>
<polygon points="16.5 -170 16.5 -191 155.5 -191 155.5 -170" fill="none" stroke="#000"/>
<text x="19.5" y="-176.8" font-family="Times,serif" font-size="14">end_date_day</text>
<polygon points="16.5 -149 16.5 -170 155.5 -170 155.5 -149" fill="#bbb" fill-opacity=".2" stroke="transparent"/>
<polygon points="16.5 -149 16.5 -170 155.5 -170 155.5 -149" fill="none" stroke="#000"/>
<text x="19.5" y="-155.8" font-family="Times,serif" font-size="14">primary_for_locale</text>
<polygon points="16.5 -128 16.5 -149 155.5 -149 155.5 -128" fill="#bbb" fill-opacity=".2" stroke="transparent"/>
<polygon points="16.5 -128 16.5 -149 155.5 -149 155.5 -128" fill="none" stroke="#000"/>
<text x="19.5" y="-134.8" font-family="Times,serif" font-size="14">ended</text>
</g>
<!-- series_alias&#45;&gt;series -->
<g class="edge">
<title>series_alias:series-&gt;series:id</title>
<path d="m156.5-433c27.728 0 25.42-76.28 62.41-87.6" fill="none" stroke="#000" sodipodi:nodetypes="cc"/>
<polygon points="218.61 -524.1 229 -522 219.57 -517.16" stroke="#000"/>
</g>
<!-- series_alias_type -->
<g class="node">
<title>series_alias_type</title>
<polygon points="207 -321 207 -346 359 -346 359 -321" fill="#bbb" fill-opacity=".46667" stroke="transparent"/>
<polygon points="207 -321 207 -346 359 -346 359 -321" fill="none" stroke="#000"/>
<text x="210" y="-329.4" font-family="Times,serif" font-size="17">series_alias_type</text>
<polygon points="207 -300 207 -321 359 -321 359 -300" fill="#eee" fill-opacity=".46667" stroke="transparent"/>
<polygon points="207 -300 207 -321 359 -321 359 -300" fill="none" stroke="#000"/>
<text x="210" y="-307.8" font-family="Times,serif" font-size="14" text-decoration="underline">id</text>
<polygon points="207 -279 207 -300 359 -300 359 -279" fill="#bbb" fill-opacity=".2" stroke="transparent"/>
<polygon points="207 -279 207 -300 359 -300 359 -279" fill="none" stroke="#000"/>
<text x="210" y="-285.8" font-family="Times,serif" font-size="14">name</text>
<polygon points="207 -258 207 -279 359 -279 359 -258" fill="#eee" fill-opacity=".33333" stroke="transparent"/>
<polygon points="207 -258 207 -279 359 -279 359 -258" fill="none" stroke="#000"/>
<text x="210" y="-264.8" font-family="Times,serif" font-size="14">parent</text>
<polygon points="207 -237 207 -258 359 -258 359 -237" fill="#bbb" fill-opacity=".2" stroke="transparent"/>
<polygon points="207 -237 207 -258 359 -258 359 -237" fill="none" stroke="#000"/>
<text x="210" y="-243.8" font-family="Times,serif" font-size="14">child_order</text>
<polygon points="207 -216 207 -237 359 -237 359 -216" fill="#bbb" fill-opacity=".2" stroke="transparent"/>
<polygon points="207 -216 207 -237 359 -237 359 -216" fill="none" stroke="#000"/>
<text x="210" y="-222.8" font-family="Times,serif" font-size="14">description</text>
<polygon points="207 -195 207 -216 359 -216 359 -195" fill="#bbb" fill-opacity=".2" stroke="transparent"/>
<polygon points="207 -195 207 -216 359 -216 359 -195" fill="none" stroke="#000"/>
<text x="210" y="-201.8" font-family="Times,serif" font-size="14">gid</text>
</g>
<!-- series_alias&#45;&gt;series_alias_type -->
<g class="edge">
<title>series_alias:type-&gt;series_alias_type:id</title>
<path d="m156.5-328c19.8 0 25.24 11.88 40.32 15.78" fill="none" stroke="#000"/>
<polygon points="197.49 -315.67 207 -311 196.65 -308.72" stroke="#000"/>
</g>
<!-- series_annotation -->
<g class="node">
<title>series_annotation</title>
<polygon points="5.5 -687 5.5 -712 165.5 -712 165.5 -687" fill="#bbb" fill-opacity=".46667" stroke="transparent"/>
<polygon points="5.5 -687 5.5 -712 165.5 -712 165.5 -687" fill="none" stroke="#000"/>
<text x="8.5" y="-695.4" font-family="Times,serif" font-size="17">series_annotation</text>
<polygon points="5.5 -666 5.5 -687 165.5 -687 165.5 -666" fill="#eee" fill-opacity=".46667" stroke="transparent"/>
<polygon points="5.5 -666 5.5 -687 165.5 -687 165.5 -666" fill="none" stroke="#000"/>
<text x="8.5" y="-673.8" font-family="Times,serif" font-size="14" text-decoration="underline">series</text>
<polygon points="5.5 -645 5.5 -666 165.5 -666 165.5 -645" fill="#eee" fill-opacity=".46667" stroke="transparent"/>
<polygon points="5.5 -645 5.5 -666 165.5 -666 165.5 -645" fill="none" stroke="#000"/>
<text x="8.5" y="-652.8" font-family="Times,serif" font-size="14" text-decoration="underline">annotation</text>
</g>
<!-- series_annotation&#45;&gt;annotation -->
<g class="edge">
<title>series_annotation:annotation-&gt;annotation:id</title>
<path d="m166.5-655c26.22 0 33.76-12.25 55.31-15.31" fill="none" stroke="#000"/>
<polygon points="221.79 -673.82 232 -671 222.26 -666.83" stroke="#000"/>
</g>
<!-- series_annotation&#45;&gt;series -->
<g class="edge">
<title>series_annotation:series-&gt;series:id</title>
<path d="m166.5-676c70.12 0-3.12 138.76 52.44 152.85" fill="none" stroke="#000"/>
<polygon points="219.46 -526.61 229 -522 218.67 -519.66" stroke="#000"/>
</g>
<!-- series_gid_redirect -->
<g class="node">
<title>series_gid_redirect</title>
<polygon points="0.5 -570 0.5 -595 171.5 -595 171.5 -570" fill="#bbb" fill-opacity=".46667" stroke="transparent"/>
<polygon points="0.5 -570 0.5 -595 171.5 -595 171.5 -570" fill="none" stroke="#000"/>
<text x="3.5" y="-578.4" font-family="Times,serif" font-size="17">series_gid_redirect</text>
<polygon points="0.5 -549 0.5 -570 171.5 -570 171.5 -549" fill="#eee" fill-opacity=".46667" stroke="transparent"/>
<polygon points="0.5 -549 0.5 -570 171.5 -570 171.5 -549" fill="none" stroke="#000"/>
<text x="3.5" y="-556.8" font-family="Times,serif" font-size="14" text-decoration="underline">gid</text>
<polygon points="0.5 -528 0.5 -549 171.5 -549 171.5 -528" fill="#eee" fill-opacity=".33333" stroke="transparent"/>
<polygon points="0.5 -528 0.5 -549 171.5 -549 171.5 -528" fill="none" stroke="#000"/>
<text x="3.5" y="-534.8" font-family="Times,serif" font-size="14">new_id</text>
<polygon points="0.5 -507 0.5 -528 171.5 -528 171.5 -507" fill="#bbb" fill-opacity=".2" stroke="transparent"/>
<polygon points="0.5 -507 0.5 -528 171.5 -528 171.5 -507" fill="none" stroke="#000"/>
<text x="3.5" y="-513.8" font-family="Times,serif" font-size="14">created</text>
</g>
<!-- series_gid_redirect&#45;&gt;series -->
<g class="edge">
<title>series_gid_redirect:new_id-&gt;series:id</title>
<path d="m171-538c22.98 0 29.55 11.82 47.91 15.14" fill="none" stroke="#000"/>
<polygon points="219.33 -526.34 229 -522 218.74 -519.36" stroke="#000"/>
</g>
<!-- series_tag -->
<g class="node">
<title>series_tag</title>
<polygon points="36.5 -85 36.5 -110 134.5 -110 134.5 -85" fill="#bbb" fill-opacity=".46667" stroke="transparent"/>
<polygon points="36.5 -85 36.5 -110 134.5 -110 134.5 -85" fill="none" stroke="#000"/>
<text x="41.5" y="-93.4" font-family="Times,serif" font-size="17">series_tag</text>
<polygon points="36.5 -64 36.5 -85 134.5 -85 134.5 -64" fill="#eee" fill-opacity=".46667" stroke="transparent"/>
<polygon points="36.5 -64 36.5 -85 134.5 -85 134.5 -64" fill="none" stroke="#000"/>
<text x="39.5" y="-71.8" font-family="Times,serif" font-size="14" text-decoration="underline">series</text>
<polygon points="36.5 -43 36.5 -64 134.5 -64 134.5 -43" fill="#eee" fill-opacity=".46667" stroke="transparent"/>
<polygon points="36.5 -43 36.5 -64 134.5 -64 134.5 -43" fill="none" stroke="#000"/>
<text x="39.5" y="-50.8" font-family="Times,serif" font-size="14" text-decoration="underline">tag</text>
<polygon points="36.5 -22 36.5 -43 134.5 -43 134.5 -22" fill="#bbb" fill-opacity=".2" stroke="transparent"/>
<polygon points="36.5 -22 36.5 -43 134.5 -43 134.5 -22" fill="none" stroke="#000"/>
<text x="39.5" y="-28.8" font-family="Times,serif" font-size="14">count</text>
<polygon points="36.5 -1 36.5 -22 134.5 -22 134.5 -1" fill="#bbb" fill-opacity=".2" stroke="transparent"/>
<polygon points="36.5 -1 36.5 -22 134.5 -22 134.5 -1" fill="none" stroke="#000"/>
<text x="39.5" y="-7.8" font-family="Times,serif" font-size="14">last_updated</text>
</g>
<!-- series_tag&#45;&gt;series -->
<g class="edge">
<title>series_tag:series-&gt;series:id</title>
<path d="m135.5-75c97.92 0-0.55-416.12 83.56-445.38" fill="none" stroke="#000"/>
<polygon points="218.57 -523.85 229 -522 219.69 -516.94" stroke="#000"/>
</g>
<!-- tag -->
<g class="node">
<title>tag</title>
<polygon points="247 -63 247 -88 320 -88 320 -63" fill="#bbb" fill-opacity=".46667" stroke="transparent"/>
<polygon points="247 -63 247 -88 320 -88 320 -63" fill="none" stroke="#000"/>
<text x="269" y="-71.4" font-family="Times,serif" font-size="17">tag</text>
<polygon points="247 -42 247 -63 320 -63 320 -42" fill="#eee" fill-opacity=".46667" stroke="transparent"/>
<polygon points="247 -42 247 -63 320 -63 320 -42" fill="none" stroke="#000"/>
<text x="250" y="-49.8" font-family="Times,serif" font-size="14" text-decoration="underline">id</text>
<polygon points="247 -21 247 -42 320 -42 320 -21" fill="#bbb" fill-opacity=".2" stroke="transparent"/>
<polygon points="247 -21 247 -42 320 -42 320 -21" fill="none" stroke="#000"/>
<text x="250" y="-27.8" font-family="Times,serif" font-size="14">name</text>
<polygon points="247 0 247 -21 320 -21 320 0" fill="#bbb" fill-opacity=".2" stroke="transparent"/>
<polygon points="247 0 247 -21 320 -21 320 0" fill="none" stroke="#000"/>
<text x="250" y="-6.8" font-family="Times,serif" font-size="14">ref_count</text>
</g>
<!-- series_tag&#45;&gt;tag -->
<g class="edge">
<title>series_tag:tag-&gt;tag:id</title>
<path d="m135.5-53h100.4" fill="none" stroke="#000"/>
<polygon points="236 -56.5 246 -53 236 -49.5" stroke="#000"/>
</g>
</g>
</svg>
