<?xml version="1.0" encoding="UTF-8"?>
<!DOCTYPE svg  PUBLIC '-//W3C//DTD SVG 1.1//EN'  'http://www.w3.org/Graphics/SVG/1.1/DTD/svg11.dtd'>
<!-- Generated by graphviz version 2.43.0 (0)
 -->
<!-- Title: url_entity_details Pages: 1 -->
<svg width="295pt" height="160pt" viewBox="0 0 295 160" xmlns="http://www.w3.org/2000/svg" xmlns:xlink="http://www.w3.org/1999/xlink">
<g class="graph" transform="scale(1) translate(4 156)">
<title>url_entity_details</title>
<a xlink:title="Tables for the “url” entity type properties">
<polygon points="-4 4 -4 -156 291 -156 291 4" fill="#e8c2da" stroke="transparent"/>
</a>
<!-- musicbrainz.url -->
<g class="node">
<title>musicbrainz.url</title>
<polygon points="181 -105 181 -130 287 -130 287 -105" fill="#eb743b" stroke="transparent"/>
<polygon points="181 -105 181 -130 287 -130 287 -105" fill="none" stroke="#000"/>
<text x="221.5" y="-113.4" font-family="Times,serif" font-size="17">url</text>
<polygon points="181 -84 181 -105 287 -105 287 -84" fill="#f0976c" stroke="transparent"/>
<polygon points="181 -84 181 -105 287 -105 287 -84" fill="none" stroke="#000"/>
<text x="184" y="-91.8" font-family="Times,serif" font-size="14" text-decoration="underline">id</text>
<polygon points="181 -63 181 -84 287 -84 287 -63" fill="#eee" stroke="transparent"/>
<polygon points="181 -63 181 -84 287 -84 287 -63" fill="none" stroke="#000"/>
<text x="184" y="-69.8" font-family="Times,serif" font-size="14">gid</text>
<polygon points="181 -42 181 -63 287 -63 287 -42" fill="#eee" stroke="transparent"/>
<polygon points="181 -42 181 -63 287 -63 287 -42" fill="none" stroke="#000"/>
<text x="184" y="-48.8" font-family="Times,serif" font-size="14">url</text>
<polygon points="181 -21 181 -42 287 -42 287 -21" fill="#eee" stroke="transparent"/>
<polygon points="181 -21 181 -42 287 -42 287 -21" fill="none" stroke="#000"/>
<text x="184" y="-27.8" font-family="Times,serif" font-size="14">edits_pending</text>
<polygon points="181 0 181 -21 287 -21 287 0" fill="#eee" stroke="transparent"/>
<polygon points="181 0 181 -21 287 -21 287 0" fill="none" stroke="#000"/>
<text x="184" y="-6.8" font-family="Times,serif" font-size="14">last_updated</text>
</g>
<!-- musicbrainz.url_gid_redirect -->
<g class="node">
<title>musicbrainz.url_gid_redirect</title>
<polygon points="0.5 -127 0.5 -152 145.5 -152 145.5 -127" fill="#eee" stroke="transparent"/>
<polygon points="0.5 -127 0.5 -152 145.5 -152 145.5 -127" fill="none" stroke="#000"/>
<text x="3.5" y="-135.4" font-family="Times,serif" font-size="17">url_gid_redirect</text>
<polygon points="0.5 -106 0.5 -127 145.5 -127 145.5 -106" fill="#f0976c" stroke="transparent"/>
<polygon points="0.5 -106 0.5 -127 145.5 -127 145.5 -106" fill="none" stroke="#000"/>
<text x="3.5" y="-113.8" font-family="Times,serif" font-size="14" text-decoration="underline">gid</text>
<polygon points="0.5 -85 0.5 -106 145.5 -106 145.5 -85" fill="#f8d1be" stroke="transparent"/>
<polygon points="0.5 -85 0.5 -106 145.5 -106 145.5 -85" fill="none" stroke="#000"/>
<text x="3.5" y="-91.8" font-family="Times,serif" font-size="14">new_id</text>
<polygon points="0.5 -64 0.5 -85 145.5 -85 145.5 -64" fill="#eee" stroke="transparent"/>
<polygon points="0.5 -64 0.5 -85 145.5 -85 145.5 -64" fill="none" stroke="#000"/>
<text x="3.5" y="-70.8" font-family="Times,serif" font-size="14">created</text>
</g>
<!-- musicbrainz.url_gid_redirect&#45;&gt;musicbrainz.url -->
<g class="edge">
<title>musicbrainz.url_gid_redirect:new_id-&gt;musicbrainz.url:id</title>
<path d="m145-95h25.88" fill="none" stroke="#000"/>
<polygon points="171 -98.5 181 -95 171 -91.5" stroke="#000"/>
</g>
</g>
</svg>
