<?xml version="1.0" encoding="UTF-8"?>
<!-- Generated by graphviz version 2.43.0 (0)
 -->
<!-- Title: work_entity_details Pages: 1 -->
<svg width="828pt" height="1216pt" inkscape:version="1.2 (dc2aedaf03, 2022-05-15)" sodipodi:docname="work_entity_details.svg" version="1.1" viewBox="0 0 828 1215.5" xmlns="http://www.w3.org/2000/svg" xmlns:inkscape="http://www.inkscape.org/namespaces/inkscape" xmlns:sodipodi="http://sodipodi.sourceforge.net/DTD/sodipodi-0.dtd" xmlns:xlink="http://www.w3.org/1999/xlink">
<sodipodi:namedview bordercolor="#666666" borderopacity="1.0" inkscape:current-layer="svg6593" inkscape:cx="488.31874" inkscape:cy="705.13609" inkscape:deskcolor="#d1d1d1" inkscape:document-units="pt" inkscape:pagecheckerboard="0" inkscape:pageopacity="0.0" inkscape:showpageshadow="2" inkscape:window-height="1034" inkscape:window-maximized="1" inkscape:window-width="1920" inkscape:window-x="-4" inkscape:window-y="-4" inkscape:zoom="0.52117599" pagecolor="#ffffff" showgrid="false"/>
<g class="graph" transform="scale(1) translate(4 1211.5)">
<title>work_entity_details</title>
<a xlink:title="Tables for the “work” entity type properties">
<defs>
<linearGradient id="l_0" x1="51.47" x2="768.53" y1="-907.63" y2="-299.87" gradientUnits="userSpaceOnUse">
<stop stop-color="#cb75ab" offset="0"/>
<stop stop-color="#f0976c" offset="1"/>
</linearGradient>
</defs>
<polygon points="-4 4 -4 -1211.5 824 -1211.5 824 4" fill="url(#l_0)" stroke="transparent"/>
</a>
<!-- annotation -->
<g class="node">
<title>annotation</title>
<polygon points="398 -1160 398 -1185 499 -1185 499 -1160" fill="#bbb" fill-opacity=".46667" stroke="transparent"/>
<polygon points="398 -1160 398 -1185 499 -1185 499 -1160" fill="none" stroke="#000"/>
<text x="401" y="-1168.4" font-family="Times,serif" font-size="17">annotation</text>
<polygon points="398 -1139 398 -1160 499 -1160 499 -1139" fill="#eee" fill-opacity=".46667" stroke="transparent"/>
<polygon points="398 -1139 398 -1160 499 -1160 499 -1139" fill="none" stroke="#000"/>
<text x="401" y="-1146.8" font-family="Times,serif" font-size="14" text-decoration="underline">id</text>
<polygon points="398 -1118 398 -1139 499 -1139 499 -1118" fill="#bbb" fill-opacity=".2" stroke="transparent"/>
<polygon points="398 -1118 398 -1139 499 -1139 499 -1118" fill="none" stroke="#000"/>
<text x="401" y="-1124.8" font-family="Times,serif" font-size="14">editor</text>
<polygon points="398 -1097 398 -1118 499 -1118 499 -1097" fill="#bbb" fill-opacity=".2" stroke="transparent"/>
<polygon points="398 -1097 398 -1118 499 -1118 499 -1097" fill="none" stroke="#000"/>
<text x="401" y="-1103.8" font-family="Times,serif" font-size="14">text</text>
<polygon points="398 -1076 398 -1097 499 -1097 499 -1076" fill="#bbb" fill-opacity=".2" stroke="transparent"/>
<polygon points="398 -1076 398 -1097 499 -1097 499 -1076" fill="none" stroke="#000"/>
<text x="401" y="-1082.8" font-family="Times,serif" font-size="14">changelog</text>
<polygon points="398 -1055 398 -1076 499 -1076 499 -1055" fill="#bbb" fill-opacity=".2" stroke="transparent"/>
<polygon points="398 -1055 398 -1076 499 -1076 499 -1055" fill="none" stroke="#000"/>
<text x="401" y="-1061.8" font-family="Times,serif" font-size="14">created</text>
</g>
<!-- language -->
<g class="node">
<title>language</title>
<polygon points="403 -253 403 -278 494 -278 494 -253" fill="#bbb" fill-opacity=".46667" stroke="transparent"/>
<polygon points="403 -253 403 -278 494 -278 494 -253" fill="none" stroke="#000"/>
<text x="407.5" y="-261.4" font-family="Times,serif" font-size="17">language</text>
<polygon points="403 -232 403 -253 494 -253 494 -232" fill="#eee" fill-opacity=".46667" stroke="transparent"/>
<polygon points="403 -232 403 -253 494 -253 494 -232" fill="none" stroke="#000"/>
<text x="406" y="-239.8" font-family="Times,serif" font-size="14" text-decoration="underline">id</text>
<polygon points="403 -211 403 -232 494 -232 494 -211" fill="#bbb" fill-opacity=".2" stroke="transparent"/>
<polygon points="403 -211 403 -232 494 -232 494 -211" fill="none" stroke="#000"/>
<text x="406" y="-217.8" font-family="Times,serif" font-size="14">iso_code_2t</text>
<polygon points="403 -190 403 -211 494 -211 494 -190" fill="#bbb" fill-opacity=".2" stroke="transparent"/>
<polygon points="403 -190 403 -211 494 -211 494 -190" fill="none" stroke="#000"/>
<text x="406" y="-196.8" font-family="Times,serif" font-size="14">iso_code_2b</text>
<polygon points="403 -169 403 -190 494 -190 494 -169" fill="#bbb" fill-opacity=".2" stroke="transparent"/>
<polygon points="403 -169 403 -190 494 -190 494 -169" fill="none" stroke="#000"/>
<text x="406" y="-175.8" font-family="Times,serif" font-size="14">iso_code_1</text>
<polygon points="403 -148 403 -169 494 -169 494 -148" fill="#bbb" fill-opacity=".2" stroke="transparent"/>
<polygon points="403 -148 403 -169 494 -169 494 -148" fill="none" stroke="#000"/>
<text x="406" y="-154.8" font-family="Times,serif" font-size="14">name</text>
<polygon points="403 -127 403 -148 494 -148 494 -127" fill="#bbb" fill-opacity=".2" stroke="transparent"/>
<polygon points="403 -127 403 -148 494 -148 494 -127" fill="none" stroke="#000"/>
<text x="406" y="-133.8" font-family="Times,serif" font-size="14">frequency</text>
<polygon points="403 -106 403 -127 494 -127 494 -106" fill="#bbb" fill-opacity=".2" stroke="transparent"/>
<polygon points="403 -106 403 -127 494 -127 494 -106" fill="none" stroke="#000"/>
<text x="406" y="-112.8" font-family="Times,serif" font-size="14">iso_code_3</text>
</g>
<!-- tag -->
<g class="node">
<title>tag</title>
<polygon points="412 -63 412 -88 485 -88 485 -63" fill="#bbb" fill-opacity=".46667" stroke="transparent"/>
<polygon points="412 -63 412 -88 485 -88 485 -63" fill="none" stroke="#000"/>
<text x="434" y="-71.4" font-family="Times,serif" font-size="17">tag</text>
<polygon points="412 -42 412 -63 485 -63 485 -42" fill="#eee" fill-opacity=".46667" stroke="transparent"/>
<polygon points="412 -42 412 -63 485 -63 485 -42" fill="none" stroke="#000"/>
<text x="415" y="-49.8" font-family="Times,serif" font-size="14" text-decoration="underline">id</text>
<polygon points="412 -21 412 -42 485 -42 485 -21" fill="#bbb" fill-opacity=".2" stroke="transparent"/>
<polygon points="412 -21 412 -42 485 -42 485 -21" fill="none" stroke="#000"/>
<text x="415" y="-27.8" font-family="Times,serif" font-size="14">name</text>
<polygon points="412 0 412 -21 485 -21 485 0" fill="#bbb" fill-opacity=".2" stroke="transparent"/>
<polygon points="412 0 412 -21 485 -21 485 0" fill="none" stroke="#000"/>
<text x="415" y="-6.8" font-family="Times,serif" font-size="14">ref_count</text>
</g>
<!-- work -->
<g class="node">
<title>work</title>
<polygon points="395 -671 395 -696 501 -696 501 -671" fill="#eee" fill-opacity=".73333" stroke="transparent"/>
<polygon points="395 -671 395 -696 501 -696 501 -671" fill="none" stroke="#000"/>
<text x="426" y="-679.4" font-family="Times,serif" font-size="17">work</text>
<polygon points="395 -650 395 -671 501 -671 501 -650" fill="#eee" fill-opacity=".46667" stroke="transparent"/>
<polygon points="395 -650 395 -671 501 -671 501 -650" fill="none" stroke="#000"/>
<text x="398" y="-657.8" font-family="Times,serif" font-size="14" text-decoration="underline">id</text>
<polygon points="395 -629 395 -650 501 -650 501 -629" fill="#bbb" fill-opacity=".2" stroke="transparent"/>
<polygon points="395 -629 395 -650 501 -650 501 -629" fill="none" stroke="#000"/>
<text x="398" y="-635.8" font-family="Times,serif" font-size="14">gid</text>
<polygon points="395 -608 395 -629 501 -629 501 -608" fill="#bbb" fill-opacity=".2" stroke="transparent"/>
<polygon points="395 -608 395 -629 501 -629 501 -608" fill="none" stroke="#000"/>
<text x="398" y="-614.8" font-family="Times,serif" font-size="14">name</text>
<polygon points="395 -587 395 -608 501 -608 501 -587" fill="#eee" fill-opacity=".33333" stroke="transparent"/>
<polygon points="395 -587 395 -608 501 -608 501 -587" fill="none" stroke="#000"/>
<text x="398" y="-593.8" font-family="Times,serif" font-size="14">type</text>
<polygon points="395 -566 395 -587 501 -587 501 -566" fill="#bbb" fill-opacity=".2" stroke="transparent"/>
<polygon points="395 -566 395 -587 501 -587 501 -566" fill="none" stroke="#000"/>
<text x="398" y="-572.8" font-family="Times,serif" font-size="14">comment</text>
<polygon points="395 -545 395 -566 501 -566 501 -545" fill="#bbb" fill-opacity=".2" stroke="transparent"/>
<polygon points="395 -545 395 -566 501 -566 501 -545" fill="none" stroke="#000"/>
<text x="398" y="-551.8" font-family="Times,serif" font-size="14">edits_pending</text>
<polygon points="395 -524 395 -545 501 -545 501 -524" fill="#bbb" fill-opacity=".2" stroke="transparent"/>
<polygon points="395 -524 395 -545 501 -545 501 -524" fill="none" stroke="#000"/>
<text x="398" y="-530.8" font-family="Times,serif" font-size="14">last_updated</text>
</g>
<!-- work_type -->
<g class="node">
<title>work_type</title>
<polygon points="681.5 -607 681.5 -632 777.5 -632 777.5 -607" fill="#bbb" fill-opacity=".46667" stroke="transparent"/>
<polygon points="681.5 -607 681.5 -632 777.5 -632 777.5 -607" fill="none" stroke="#000"/>
<text x="684.5" y="-615.4" font-family="Times,serif" font-size="17">work_type</text>
<polygon points="681.5 -586 681.5 -607 777.5 -607 777.5 -586" fill="#eee" fill-opacity=".46667" stroke="transparent"/>
<polygon points="681.5 -586 681.5 -607 777.5 -607 777.5 -586" fill="none" stroke="#000"/>
<text x="684.5" y="-593.8" font-family="Times,serif" font-size="14" text-decoration="underline">id</text>
<polygon points="681.5 -565 681.5 -586 777.5 -586 777.5 -565" fill="#bbb" fill-opacity=".2" stroke="transparent"/>
<polygon points="681.5 -565 681.5 -586 777.5 -586 777.5 -565" fill="none" stroke="#000"/>
<text x="684.5" y="-571.8" font-family="Times,serif" font-size="14">name</text>
<polygon points="681.5 -544 681.5 -565 777.5 -565 777.5 -544" fill="#eee" fill-opacity=".33333" stroke="transparent"/>
<polygon points="681.5 -544 681.5 -565 777.5 -565 777.5 -544" fill="none" stroke="#000"/>
<text x="684.5" y="-550.8" font-family="Times,serif" font-size="14">parent</text>
<polygon points="681.5 -523 681.5 -544 777.5 -544 777.5 -523" fill="#bbb" fill-opacity=".2" stroke="transparent"/>
<polygon points="681.5 -523 681.5 -544 777.5 -544 777.5 -523" fill="none" stroke="#000"/>
<text x="684.5" y="-529.8" font-family="Times,serif" font-size="14">child_order</text>
<polygon points="681.5 -502 681.5 -523 777.5 -523 777.5 -502" fill="#bbb" fill-opacity=".2" stroke="transparent"/>
<polygon points="681.5 -502 681.5 -523 777.5 -523 777.5 -502" fill="none" stroke="#000"/>
<text x="684.5" y="-508.8" font-family="Times,serif" font-size="14">description</text>
<polygon points="681.5 -481 681.5 -502 777.5 -502 777.5 -481" fill="#bbb" fill-opacity=".2" stroke="transparent"/>
<polygon points="681.5 -481 681.5 -502 777.5 -502 777.5 -481" fill="none" stroke="#000"/>
<text x="684.5" y="-487.8" font-family="Times,serif" font-size="14">gid</text>
</g>
<!-- work&#45;&gt;work_type -->
<g class="edge">
<title>work:type-&gt;work_type:id</title>
<path d="m502-597h168.16" fill="none" stroke="#000"/>
<polygon points="670.5 -600.5 680.5 -597 670.5 -593.5" stroke="#000"/>
</g>
<!-- work_alias -->
<g class="node">
<title>work_alias</title>
<polygon points="59.5 -1097 59.5 -1122 198.5 -1122 198.5 -1097" fill="#bbb" fill-opacity=".46667" stroke="transparent"/>
<polygon points="59.5 -1097 59.5 -1122 198.5 -1122 198.5 -1097" fill="none" stroke="#000"/>
<text x="82.5" y="-1105.4" font-family="Times,serif" font-size="17">work_alias</text>
<polygon points="59.5 -1076 59.5 -1097 198.5 -1097 198.5 -1076" fill="#eee" fill-opacity=".46667" stroke="transparent"/>
<polygon points="59.5 -1076 59.5 -1097 198.5 -1097 198.5 -1076" fill="none" stroke="#000"/>
<text x="62.5" y="-1083.8" font-family="Times,serif" font-size="14" text-decoration="underline">id</text>
<polygon points="59.5 -1055 59.5 -1076 198.5 -1076 198.5 -1055" fill="#eee" fill-opacity=".33333" stroke="transparent"/>
<polygon points="59.5 -1055 59.5 -1076 198.5 -1076 198.5 -1055" fill="none" stroke="#000"/>
<text x="62.5" y="-1061.8" font-family="Times,serif" font-size="14">work</text>
<polygon points="59.5 -1034 59.5 -1055 198.5 -1055 198.5 -1034" fill="#bbb" fill-opacity=".2" stroke="transparent"/>
<polygon points="59.5 -1034 59.5 -1055 198.5 -1055 198.5 -1034" fill="none" stroke="#000"/>
<text x="62.5" y="-1040.8" font-family="Times,serif" font-size="14">name</text>
<polygon points="59.5 -1013 59.5 -1034 198.5 -1034 198.5 -1013" fill="#bbb" fill-opacity=".2" stroke="transparent"/>
<polygon points="59.5 -1013 59.5 -1034 198.5 -1034 198.5 -1013" fill="none" stroke="#000"/>
<text x="62.5" y="-1019.8" font-family="Times,serif" font-size="14">locale</text>
<polygon points="59.5 -992 59.5 -1013 198.5 -1013 198.5 -992" fill="#bbb" fill-opacity=".2" stroke="transparent"/>
<polygon points="59.5 -992 59.5 -1013 198.5 -1013 198.5 -992" fill="none" stroke="#000"/>
<text x="62.5" y="-998.8" font-family="Times,serif" font-size="14">edits_pending</text>
<polygon points="59.5 -971 59.5 -992 198.5 -992 198.5 -971" fill="#bbb" fill-opacity=".2" stroke="transparent"/>
<polygon points="59.5 -971 59.5 -992 198.5 -992 198.5 -971" fill="none" stroke="#000"/>
<text x="62.5" y="-977.8" font-family="Times,serif" font-size="14">last_updated</text>
<polygon points="59.5 -950 59.5 -971 198.5 -971 198.5 -950" fill="#eee" fill-opacity=".33333" stroke="transparent"/>
<polygon points="59.5 -950 59.5 -971 198.5 -971 198.5 -950" fill="none" stroke="#000"/>
<text x="62.5" y="-956.8" font-family="Times,serif" font-size="14">type</text>
<polygon points="59.5 -929 59.5 -950 198.5 -950 198.5 -929" fill="#bbb" fill-opacity=".2" stroke="transparent"/>
<polygon points="59.5 -929 59.5 -950 198.5 -950 198.5 -929" fill="none" stroke="#000"/>
<text x="62.5" y="-935.8" font-family="Times,serif" font-size="14">sort_name</text>
<polygon points="59.5 -908 59.5 -929 198.5 -929 198.5 -908" fill="#bbb" fill-opacity=".2" stroke="transparent"/>
<polygon points="59.5 -908 59.5 -929 198.5 -929 198.5 -908" fill="none" stroke="#000"/>
<text x="62.5" y="-914.8" font-family="Times,serif" font-size="14">begin_date_year</text>
<polygon points="59.5 -887 59.5 -908 198.5 -908 198.5 -887" fill="#bbb" fill-opacity=".2" stroke="transparent"/>
<polygon points="59.5 -887 59.5 -908 198.5 -908 198.5 -887" fill="none" stroke="#000"/>
<text x="62.5" y="-893.8" font-family="Times,serif" font-size="14">begin_date_month</text>
<polygon points="59.5 -866 59.5 -887 198.5 -887 198.5 -866" fill="#bbb" fill-opacity=".2" stroke="transparent"/>
<polygon points="59.5 -866 59.5 -887 198.5 -887 198.5 -866" fill="none" stroke="#000"/>
<text x="62.5" y="-872.8" font-family="Times,serif" font-size="14">begin_date_day</text>
<polygon points="59.5 -845 59.5 -866 198.5 -866 198.5 -845" fill="#bbb" fill-opacity=".2" stroke="transparent"/>
<polygon points="59.5 -845 59.5 -866 198.5 -866 198.5 -845" fill="none" stroke="#000"/>
<text x="62.5" y="-851.8" font-family="Times,serif" font-size="14">end_date_year</text>
<polygon points="59.5 -824 59.5 -845 198.5 -845 198.5 -824" fill="#bbb" fill-opacity=".2" stroke="transparent"/>
<polygon points="59.5 -824 59.5 -845 198.5 -845 198.5 -824" fill="none" stroke="#000"/>
<text x="62.5" y="-830.8" font-family="Times,serif" font-size="14">end_date_month</text>
<polygon points="59.5 -803 59.5 -824 198.5 -824 198.5 -803" fill="#bbb" fill-opacity=".2" stroke="transparent"/>
<polygon points="59.5 -803 59.5 -824 198.5 -824 198.5 -803" fill="none" stroke="#000"/>
<text x="62.5" y="-809.8" font-family="Times,serif" font-size="14">end_date_day</text>
<polygon points="59.5 -782 59.5 -803 198.5 -803 198.5 -782" fill="#bbb" fill-opacity=".2" stroke="transparent"/>
<polygon points="59.5 -782 59.5 -803 198.5 -803 198.5 -782" fill="none" stroke="#000"/>
<text x="62.5" y="-788.8" font-family="Times,serif" font-size="14">primary_for_locale</text>
<polygon points="59.5 -761 59.5 -782 198.5 -782 198.5 -761" fill="#bbb" fill-opacity=".2" stroke="transparent"/>
<polygon points="59.5 -761 59.5 -782 198.5 -782 198.5 -761" fill="none" stroke="#000"/>
<text x="62.5" y="-767.8" font-family="Times,serif" font-size="14">ended</text>
</g>
<!-- work_alias&#45;&gt;work -->
<g class="edge">
<title>work_alias:work-&gt;work:id</title>
<path d="m199.5-1066c140.23 56.47-41.372 374.03 184.46 404.57" fill="none" stroke="#000" sodipodi:nodetypes="cc"/>
<polygon points="384.16 -664.92 394 -661 383.86 -657.93" stroke="#000"/>
</g>
<!-- work_alias_type -->
<g class="node">
<title>work_alias_type</title>
<polygon points="376 -971 376 -996 521 -996 521 -971" fill="#bbb" fill-opacity=".46667" stroke="transparent"/>
<polygon points="376 -971 376 -996 521 -996 521 -971" fill="none" stroke="#000"/>
<text x="379" y="-979.4" font-family="Times,serif" font-size="17">work_alias_type</text>
<polygon points="376 -950 376 -971 521 -971 521 -950" fill="#eee" fill-opacity=".46667" stroke="transparent"/>
<polygon points="376 -950 376 -971 521 -971 521 -950" fill="none" stroke="#000"/>
<text x="379" y="-957.8" font-family="Times,serif" font-size="14" text-decoration="underline">id</text>
<polygon points="376 -929 376 -950 521 -950 521 -929" fill="#bbb" fill-opacity=".2" stroke="transparent"/>
<polygon points="376 -929 376 -950 521 -950 521 -929" fill="none" stroke="#000"/>
<text x="379" y="-935.8" font-family="Times,serif" font-size="14">name</text>
<polygon points="376 -908 376 -929 521 -929 521 -908" fill="#eee" fill-opacity=".33333" stroke="transparent"/>
<polygon points="376 -908 376 -929 521 -929 521 -908" fill="none" stroke="#000"/>
<text x="379" y="-914.8" font-family="Times,serif" font-size="14">parent</text>
<polygon points="376 -887 376 -908 521 -908 521 -887" fill="#bbb" fill-opacity=".2" stroke="transparent"/>
<polygon points="376 -887 376 -908 521 -908 521 -887" fill="none" stroke="#000"/>
<text x="379" y="-893.8" font-family="Times,serif" font-size="14">child_order</text>
<polygon points="376 -866 376 -887 521 -887 521 -866" fill="#bbb" fill-opacity=".2" stroke="transparent"/>
<polygon points="376 -866 376 -887 521 -887 521 -866" fill="none" stroke="#000"/>
<text x="379" y="-872.8" font-family="Times,serif" font-size="14">description</text>
<polygon points="376 -845 376 -866 521 -866 521 -845" fill="#bbb" fill-opacity=".2" stroke="transparent"/>
<polygon points="376 -845 376 -866 521 -866 521 -845" fill="none" stroke="#000"/>
<text x="379" y="-851.8" font-family="Times,serif" font-size="14">gid</text>
</g>
<!-- work_alias&#45;&gt;work_alias_type -->
<g class="edge">
<title>work_alias:type-&gt;work_alias_type:id</title>
<path d="m199.5-961h165.33" fill="none" stroke="#000"/>
<polygon points="365 -964.5 375 -961 365 -957.5" stroke="#000"/>
</g>
<!-- work_annotation -->
<g class="node">
<title>work_annotation</title>
<polygon points="52.5 -1182 52.5 -1207 205.5 -1207 205.5 -1182" fill="#bbb" fill-opacity=".46667" stroke="transparent"/>
<polygon points="52.5 -1182 52.5 -1207 205.5 -1207 205.5 -1182" fill="none" stroke="#000"/>
<text x="55.5" y="-1190.4" font-family="Times,serif" font-size="17">work_annotation</text>
<polygon points="52.5 -1161 52.5 -1182 205.5 -1182 205.5 -1161" fill="#eee" fill-opacity=".46667" stroke="transparent"/>
<polygon points="52.5 -1161 52.5 -1182 205.5 -1182 205.5 -1161" fill="none" stroke="#000"/>
<text x="55.5" y="-1168.8" font-family="Times,serif" font-size="14" text-decoration="underline">work</text>
<polygon points="52.5 -1140 52.5 -1161 205.5 -1161 205.5 -1140" fill="#eee" fill-opacity=".46667" stroke="transparent"/>
<polygon points="52.5 -1140 52.5 -1161 205.5 -1161 205.5 -1140" fill="none" stroke="#000"/>
<text x="55.5" y="-1147.8" font-family="Times,serif" font-size="14" text-decoration="underline">annotation</text>
</g>
<!-- work_annotation&#45;&gt;annotation -->
<g class="edge">
<title>work_annotation:annotation-&gt;annotation:id</title>
<path d="m206.5-1150h180.39" fill="none" stroke="#000"/>
<polygon points="387 -1153.5 397 -1150 387 -1146.5" stroke="#000"/>
</g>
<!-- work_annotation&#45;&gt;work -->
<g class="edge">
<title>work_annotation:work-&gt;work:id</title>
<path d="m206.5-1171c169.15 70.652 4.3179 487.55 177.42 509.59" fill="none" stroke="#000" sodipodi:nodetypes="cc"/>
<polygon points="384.15 -664.9 394 -661 383.87 -657.91" stroke="#000"/>
</g>
<!-- work_attribute -->
<g class="node">
<title>work_attribute</title>
<polygon points="0.5 -507 0.5 -532 257.5 -532 257.5 -507" fill="#bbb" fill-opacity=".46667" stroke="transparent"/>
<polygon points="0.5 -507 0.5 -532 257.5 -532 257.5 -507" fill="none" stroke="#000"/>
<text x="64.5" y="-515.4" font-family="Times,serif" font-size="17">work_attribute</text>
<polygon points="0.5 -486 0.5 -507 257.5 -507 257.5 -486" fill="#eee" fill-opacity=".46667" stroke="transparent"/>
<polygon points="0.5 -486 0.5 -507 257.5 -507 257.5 -486" fill="none" stroke="#000"/>
<text x="3.5" y="-493.8" font-family="Times,serif" font-size="14" text-decoration="underline">id</text>
<polygon points="0.5 -465 0.5 -486 257.5 -486 257.5 -465" fill="#eee" fill-opacity=".33333" stroke="transparent"/>
<polygon points="0.5 -465 0.5 -486 257.5 -486 257.5 -465" fill="none" stroke="#000"/>
<text x="3.5" y="-471.8" font-family="Times,serif" font-size="14">work</text>
<polygon points="0.5 -444 0.5 -465 257.5 -465 257.5 -444" fill="#eee" fill-opacity=".33333" stroke="transparent"/>
<polygon points="0.5 -444 0.5 -465 257.5 -465 257.5 -444" fill="none" stroke="#000"/>
<text x="3.5" y="-450.8" font-family="Times,serif" font-size="14">work_attribute_type</text>
<polygon points="0.5 -423 0.5 -444 257.5 -444 257.5 -423" fill="#eee" fill-opacity=".33333" stroke="transparent"/>
<polygon points="0.5 -423 0.5 -444 257.5 -444 257.5 -423" fill="none" stroke="#000"/>
<text x="3.5" y="-429.8" font-family="Times,serif" font-size="14">work_attribute_type_allowed_value</text>
<polygon points="0.5 -402 0.5 -423 257.5 -423 257.5 -402" fill="#bbb" fill-opacity=".2" stroke="transparent"/>
<polygon points="0.5 -402 0.5 -423 257.5 -423 257.5 -402" fill="none" stroke="#000"/>
<text x="3.5" y="-408.8" font-family="Times,serif" font-size="14">work_attribute_text</text>
</g>
<!-- work_attribute&#45;&gt;work -->
<g class="edge">
<title>work_attribute:work-&gt;work:id</title>
<path d="m257-476c23.365 0-40.939-180.05 127.89-180.05" fill="none" stroke="#000" sodipodi:nodetypes="cc"/>
<polygon points="383.54 -659.3 394 -661 386.88 -653.15" stroke="#000"/>
</g>
<!-- work_attribute_type -->
<g class="node">
<title>work_attribute_type</title>
<polygon points="639.5 -430 639.5 -455 820.5 -455 820.5 -430" fill="#bbb" fill-opacity=".46667" stroke="transparent"/>
<polygon points="639.5 -430 639.5 -455 820.5 -455 820.5 -430" fill="none" stroke="#000"/>
<text x="642.5" y="-438.4" font-family="Times,serif" font-size="17">work_attribute_type</text>
<polygon points="639.5 -409 639.5 -430 820.5 -430 820.5 -409" fill="#eee" fill-opacity=".46667" stroke="transparent"/>
<polygon points="639.5 -409 639.5 -430 820.5 -430 820.5 -409" fill="none" stroke="#000"/>
<text x="642.5" y="-416.8" font-family="Times,serif" font-size="14" text-decoration="underline">id</text>
<polygon points="639.5 -388 639.5 -409 820.5 -409 820.5 -388" fill="#bbb" fill-opacity=".2" stroke="transparent"/>
<polygon points="639.5 -388 639.5 -409 820.5 -409 820.5 -388" fill="none" stroke="#000"/>
<text x="642.5" y="-394.8" font-family="Times,serif" font-size="14">name</text>
<polygon points="639.5 -367 639.5 -388 820.5 -388 820.5 -367" fill="#bbb" fill-opacity=".2" stroke="transparent"/>
<polygon points="639.5 -367 639.5 -388 820.5 -388 820.5 -367" fill="none" stroke="#000"/>
<text x="642.5" y="-373.8" font-family="Times,serif" font-size="14">comment</text>
<polygon points="639.5 -346 639.5 -367 820.5 -367 820.5 -346" fill="#bbb" fill-opacity=".2" stroke="transparent"/>
<polygon points="639.5 -346 639.5 -367 820.5 -367 820.5 -346" fill="none" stroke="#000"/>
<text x="642.5" y="-352.8" font-family="Times,serif" font-size="14">free_text</text>
<polygon points="639.5 -325 639.5 -346 820.5 -346 820.5 -325" fill="#eee" fill-opacity=".33333" stroke="transparent"/>
<polygon points="639.5 -325 639.5 -346 820.5 -346 820.5 -325" fill="none" stroke="#000"/>
<text x="642.5" y="-331.8" font-family="Times,serif" font-size="14">parent</text>
<polygon points="639.5 -304 639.5 -325 820.5 -325 820.5 -304" fill="#bbb" fill-opacity=".2" stroke="transparent"/>
<polygon points="639.5 -304 639.5 -325 820.5 -325 820.5 -304" fill="none" stroke="#000"/>
<text x="642.5" y="-310.8" font-family="Times,serif" font-size="14">child_order</text>
<polygon points="639.5 -283 639.5 -304 820.5 -304 820.5 -283" fill="#bbb" fill-opacity=".2" stroke="transparent"/>
<polygon points="639.5 -283 639.5 -304 820.5 -304 820.5 -283" fill="none" stroke="#000"/>
<text x="642.5" y="-289.8" font-family="Times,serif" font-size="14">description</text>
<polygon points="639.5 -262 639.5 -283 820.5 -283 820.5 -262" fill="#bbb" fill-opacity=".2" stroke="transparent"/>
<polygon points="639.5 -262 639.5 -283 820.5 -283 820.5 -262" fill="none" stroke="#000"/>
<text x="642.5" y="-268.8" font-family="Times,serif" font-size="14">gid</text>
</g>
<!-- work_attribute&#45;&gt;work_attribute_type -->
<g class="edge">
<title>work_attribute:work_attribute_type-&gt;work_attribute_type:id</title>
<path d="m257-454c18.99 0 17.78-17.68 36-23 66.12-19.32 249.67-33.25 310 0 22.55 12.43 10.8 45.59 26.07 54.67" fill="none" stroke="#000"/>
<polygon points="630.06 -425.69 639 -420 628.47 -418.87" stroke="#000"/>
</g>
<!-- work_attribute_type_allowed_value -->
<g class="node">
<title>work_attribute_type_allowed_value</title>
<polygon points="293 -443 293 -468 603 -468 603 -443" fill="#bbb" fill-opacity=".46667" stroke="transparent"/>
<polygon points="293 -443 293 -468 603 -468 603 -443" fill="none" stroke="#000"/>
<text x="296" y="-451.4" font-family="Times,serif" font-size="17">work_attribute_type_allowed_value</text>
<polygon points="293 -422 293 -443 603 -443 603 -422" fill="#eee" fill-opacity=".46667" stroke="transparent"/>
<polygon points="293 -422 293 -443 603 -443 603 -422" fill="none" stroke="#000"/>
<text x="296" y="-429.8" font-family="Times,serif" font-size="14" text-decoration="underline">id</text>
<polygon points="293 -401 293 -422 603 -422 603 -401" fill="#eee" fill-opacity=".33333" stroke="transparent"/>
<polygon points="293 -401 293 -422 603 -422 603 -401" fill="none" stroke="#000"/>
<text x="296" y="-407.8" font-family="Times,serif" font-size="14">work_attribute_type</text>
<polygon points="293 -380 293 -401 603 -401 603 -380" fill="#bbb" fill-opacity=".2" stroke="transparent"/>
<polygon points="293 -380 293 -401 603 -401 603 -380" fill="none" stroke="#000"/>
<text x="296" y="-386.8" font-family="Times,serif" font-size="14">value</text>
<polygon points="293 -359 293 -380 603 -380 603 -359" fill="#eee" fill-opacity=".33333" stroke="transparent"/>
<polygon points="293 -359 293 -380 603 -380 603 -359" fill="none" stroke="#000"/>
<text x="296" y="-365.8" font-family="Times,serif" font-size="14">parent</text>
<polygon points="293 -338 293 -359 603 -359 603 -338" fill="#bbb" fill-opacity=".2" stroke="transparent"/>
<polygon points="293 -338 293 -359 603 -359 603 -338" fill="none" stroke="#000"/>
<text x="296" y="-344.8" font-family="Times,serif" font-size="14">child_order</text>
<polygon points="293 -317 293 -338 603 -338 603 -317" fill="#bbb" fill-opacity=".2" stroke="transparent"/>
<polygon points="293 -317 293 -338 603 -338 603 -317" fill="none" stroke="#000"/>
<text x="296" y="-323.8" font-family="Times,serif" font-size="14">description</text>
<polygon points="293 -296 293 -317 603 -317 603 -296" fill="#bbb" fill-opacity=".2" stroke="transparent"/>
<polygon points="293 -296 293 -317 603 -317 603 -296" fill="none" stroke="#000"/>
<text x="296" y="-302.8" font-family="Times,serif" font-size="14">gid</text>
</g>
<!-- work_attribute&#45;&gt;work_attribute_type_allowed_value -->
<g class="edge">
<title>work_attribute:work_attribute_type_allowed_value-&gt;work_attribute_type_allowed_value:id</title>
<path d="m257-433h25.88" fill="none" stroke="#000"/>
<polygon points="283 -436.5 293 -433 283 -429.5" stroke="#000"/>
</g>
<!-- work_attribute_type_allowed_value&#45;&gt;work_attribute_type -->
<g class="edge">
<title>work_attribute_type_allowed_value:work_attribute_type-&gt;work_attribute_type:id</title>
<path d="m603-412c12.42 0 17.28-4.59 26.03-6.82" fill="none" stroke="#000"/>
<polygon points="628.66 -422.3 639 -420 629.48 -415.35" stroke="#000"/>
</g>
<!-- work_gid_redirect -->
<g class="node">
<title>work_gid_redirect</title>
<polygon points="47.5 -613 47.5 -638 210.5 -638 210.5 -613" fill="#bbb" fill-opacity=".46667" stroke="transparent"/>
<polygon points="47.5 -613 47.5 -638 210.5 -638 210.5 -613" fill="none" stroke="#000"/>
<text x="50.5" y="-621.4" font-family="Times,serif" font-size="17">work_gid_redirect</text>
<polygon points="47.5 -592 47.5 -613 210.5 -613 210.5 -592" fill="#eee" fill-opacity=".46667" stroke="transparent"/>
<polygon points="47.5 -592 47.5 -613 210.5 -613 210.5 -592" fill="none" stroke="#000"/>
<text x="50.5" y="-599.8" font-family="Times,serif" font-size="14" text-decoration="underline">gid</text>
<polygon points="47.5 -571 47.5 -592 210.5 -592 210.5 -571" fill="#eee" fill-opacity=".33333" stroke="transparent"/>
<polygon points="47.5 -571 47.5 -592 210.5 -592 210.5 -571" fill="none" stroke="#000"/>
<text x="50.5" y="-577.8" font-family="Times,serif" font-size="14">new_id</text>
<polygon points="47.5 -550 47.5 -571 210.5 -571 210.5 -550" fill="#bbb" fill-opacity=".2" stroke="transparent"/>
<polygon points="47.5 -550 47.5 -571 210.5 -571 210.5 -550" fill="none" stroke="#000"/>
<text x="50.5" y="-556.8" font-family="Times,serif" font-size="14">created</text>
</g>
<!-- work_gid_redirect&#45;&gt;work -->
<g class="edge">
<title>work_gid_redirect:new_id-&gt;work:id</title>
<path d="m211.5-581c69.295 0 35.288-74.947 173.66-74.947" fill="none" stroke="#000" sodipodi:nodetypes="cc"/>
<polygon points="383.88 -664.14 394 -661 384.13 -657.15" stroke="#000"/>
</g>
<!-- work_language -->
<g class="node">
<title>work_language</title>
<polygon points="59.5 -316 59.5 -341 198.5 -341 198.5 -316" fill="#bbb" fill-opacity=".46667" stroke="transparent"/>
<polygon points="59.5 -316 59.5 -341 198.5 -341 198.5 -316" fill="none" stroke="#000"/>
<text x="62.5" y="-324.4" font-family="Times,serif" font-size="17">work_language</text>
<polygon points="59.5 -295 59.5 -316 198.5 -316 198.5 -295" fill="#eee" fill-opacity=".46667" stroke="transparent"/>
<polygon points="59.5 -295 59.5 -316 198.5 -316 198.5 -295" fill="none" stroke="#000"/>
<text x="62.5" y="-302.8" font-family="Times,serif" font-size="14" text-decoration="underline">work</text>
<polygon points="59.5 -274 59.5 -295 198.5 -295 198.5 -274" fill="#eee" fill-opacity=".46667" stroke="transparent"/>
<polygon points="59.5 -274 59.5 -295 198.5 -295 198.5 -274" fill="none" stroke="#000"/>
<text x="62.5" y="-281.8" font-family="Times,serif" font-size="14" text-decoration="underline">language</text>
<polygon points="59.5 -253 59.5 -274 198.5 -274 198.5 -253" fill="#bbb" fill-opacity=".2" stroke="transparent"/>
<polygon points="59.5 -253 59.5 -274 198.5 -274 198.5 -253" fill="none" stroke="#000"/>
<text x="62.5" y="-259.8" font-family="Times,serif" font-size="14">edits_pending</text>
<polygon points="59.5 -232 59.5 -253 198.5 -253 198.5 -232" fill="#bbb" fill-opacity=".2" stroke="transparent"/>
<polygon points="59.5 -232 59.5 -253 198.5 -253 198.5 -232" fill="none" stroke="#000"/>
<text x="62.5" y="-238.8" font-family="Times,serif" font-size="14">created</text>
</g>
<!-- work_language&#45;&gt;language -->
<g class="edge">
<title>work_language:language-&gt;language:id</title>
<path d="m199.5-284c88.33 0 109.13 37.94 192.32 40.83" fill="none" stroke="#000"/>
<polygon points="392.06 -246.67 402 -243 391.94 -239.67" stroke="#000"/>
</g>
<!-- work_language&#45;&gt;work -->
<g class="edge">
<title>work_language:work-&gt;work:id</title>
<path d="m199.5-306c141.41 0-21.247-349.92 184.96-349.92" fill="none" stroke="#000" sodipodi:nodetypes="cc"/>
<polygon points="383.9 -664.19 394 -661 384.11 -657.2" stroke="#000"/>
</g>
<!-- work_meta -->
<g class="node">
<title>work_meta</title>
<polygon points="78.5 -719 78.5 -744 179.5 -744 179.5 -719" fill="#bbb" fill-opacity=".46667" stroke="transparent"/>
<polygon points="78.5 -719 78.5 -744 179.5 -744 179.5 -719" fill="none" stroke="#000"/>
<text x="81.5" y="-727.4" font-family="Times,serif" font-size="17">work_meta</text>
<polygon points="78.5 -698 78.5 -719 179.5 -719 179.5 -698" fill="#eee" fill-opacity=".46667" stroke="transparent"/>
<polygon points="78.5 -698 78.5 -719 179.5 -719 179.5 -698" fill="none" stroke="#000"/>
<text x="81.5" y="-705.8" font-family="Times,serif" font-size="14" text-decoration="underline">id</text>
<polygon points="78.5 -677 78.5 -698 179.5 -698 179.5 -677" fill="#bbb" fill-opacity=".2" stroke="transparent"/>
<polygon points="78.5 -677 78.5 -698 179.5 -698 179.5 -677" fill="none" stroke="#000"/>
<text x="81.5" y="-683.8" font-family="Times,serif" font-size="14">rating</text>
<polygon points="78.5 -656 78.5 -677 179.5 -677 179.5 -656" fill="#bbb" fill-opacity=".2" stroke="transparent"/>
<polygon points="78.5 -656 78.5 -677 179.5 -677 179.5 -656" fill="none" stroke="#000"/>
<text x="81.5" y="-662.8" font-family="Times,serif" font-size="14">rating_count</text>
</g>
<!-- work_meta&#45;&gt;work -->
<g class="edge">
<title>work_meta:id-&gt;work:id</title>
<path d="m180.5-709c93.74 0 114.77 44.59 203.26 47.82" fill="none" stroke="#000"/>
<polygon points="384.06 -664.68 394 -661 383.94 -657.68" stroke="#000"/>
</g>
<!-- work_tag -->
<g class="node">
<title>work_tag</title>
<polygon points="79.5 -158 79.5 -183 177.5 -183 177.5 -158" fill="#bbb" fill-opacity=".46667" stroke="transparent"/>
<polygon points="79.5 -158 79.5 -183 177.5 -183 177.5 -158" fill="none" stroke="#000"/>
<text x="88" y="-166.4" font-family="Times,serif" font-size="17">work_tag</text>
<polygon points="79.5 -137 79.5 -158 177.5 -158 177.5 -137" fill="#eee" fill-opacity=".46667" stroke="transparent"/>
<polygon points="79.5 -137 79.5 -158 177.5 -158 177.5 -137" fill="none" stroke="#000"/>
<text x="82.5" y="-144.8" font-family="Times,serif" font-size="14" text-decoration="underline">work</text>
<polygon points="79.5 -116 79.5 -137 177.5 -137 177.5 -116" fill="#eee" fill-opacity=".46667" stroke="transparent"/>
<polygon points="79.5 -116 79.5 -137 177.5 -137 177.5 -116" fill="none" stroke="#000"/>
<text x="82.5" y="-123.8" font-family="Times,serif" font-size="14" text-decoration="underline">tag</text>
<polygon points="79.5 -95 79.5 -116 177.5 -116 177.5 -95" fill="#bbb" fill-opacity=".2" stroke="transparent"/>
<polygon points="79.5 -95 79.5 -116 177.5 -116 177.5 -95" fill="none" stroke="#000"/>
<text x="82.5" y="-101.8" font-family="Times,serif" font-size="14">count</text>
<polygon points="79.5 -74 79.5 -95 177.5 -95 177.5 -74" fill="#bbb" fill-opacity=".2" stroke="transparent"/>
<polygon points="79.5 -74 79.5 -95 177.5 -95 177.5 -74" fill="none" stroke="#000"/>
<text x="82.5" y="-80.8" font-family="Times,serif" font-size="14">last_updated</text>
</g>
<!-- work_tag&#45;&gt;tag -->
<g class="edge">
<title>work_tag:tag-&gt;tag:id</title>
<path d="m178.5-126c104.82 0 123.07 68.37 222.31 72.78" fill="none" stroke="#000"/>
<polygon points="401.08 -56.72 411 -53 400.93 -49.72" stroke="#000"/>
</g>
<!-- work_tag&#45;&gt;work -->
<g class="edge">
<title>work_tag:work-&gt;work:id</title>
<path d="m180.05-143.31c213.9 0-24-498.57 205.31-512.69" fill="none" stroke="#000" sodipodi:nodetypes="cc"/>
<polygon points="383.9 -664.2 394 -661 384.11 -657.2" stroke="#000"/>
</g>
</g>
</svg>
