<?xml version="1.0" encoding="utf-8"?>
<!-- Generator: Adobe Illustrator 27.6.1, SVG Export Plug-In . SVG Version: 6.00 Build 0)  -->
<svg version="1.1" id="Layer_2_00000057131925191428662150000015138191158868132242_"
	 xmlns="http://www.w3.org/2000/svg" xmlns:xlink="http://www.w3.org/1999/xlink" x="0px" y="0px" viewBox="0 0 61.6 61.6"
	 style="enable-background:new 0 0 61.6 61.6;" xml:space="preserve">
<style type="text/css">
	.st0{fill:#FFB124;}
	.st1{fill:#F65570;}
	.st2{fill:#C9D6DA;}
	.st3{fill:#99A8B4;}
	.st4{fill:#E09E84;}
	.st5{fill:#2B2E35;}
</style>
<g>
	<g>
		<path class="st0" d="M34.4,13.7c4.5,4.5,8.9,8.9,13.5,13.5c-0.1,0.1-0.3,0.3-0.4,0.4C38,37,28.6,46.5,19.2,56
			c-0.4,0.4-0.8,0.6-1.2,0.7c-2.6,0.3-5.2,0.6-7.8,0.8c-1.1,0.1-2.3,0.3-3.5,0.4c-1.6,0.1-3-1.1-2.8-2.8c0.3-2.6,0.6-5,0.8-7.6
			C4.8,46,5,44.6,5.1,43.3c0-0.3,0.1-0.4,0.3-0.6c2.5-2.5,4.9-4.9,7.3-7.3c6.9-6.9,13.7-13.7,20.6-20.6
			C33.6,14.4,34.1,14.1,34.4,13.7z"/>
		<path class="st1" d="M50.4,24.8c-0.1-0.1-0.3-0.3-0.3-0.3C46,20.3,41.6,16,37.4,11.8c-0.1-0.1-0.4-0.4-0.4-0.4c0,0,0-0.1,0-0.3
			c1.9-1.9,4-4,5.9-5.9c1.1-1.1,2.3-1.5,3.7-1.4c1.4,0.1,2.6,0.6,3.5,1.6c2.1,2.1,4.1,4.1,6.2,6.2c1.1,1.1,1.6,2.5,1.5,4
			c-0.1,1.4-0.7,2.5-1.6,3.4C54.3,20.9,52.5,22.7,50.4,24.8C50.5,24.6,50.5,24.7,50.4,24.8z"/>
	</g>
	<path class="st2" d="M28.8,19.3l13.5,13.5c0.6-0.6,1.2-1.2,1.9-1.9L30.6,17.4C30,18.1,29.4,18.7,28.8,19.3z"/>
	<path class="st2" d="M49.7,25.5l0.7-0.7c0,0,0.5-0.5,1.2-1.2L38.1,10c-0.4,0.4-0.7,0.7-1.1,1.1l-0.8,0.8L49.7,25.5z"/>
	<polygon class="st3" points="34.3,13.8 47.8,27.3 49.7,25.5 36.2,12 	"/>
	<path class="st2" d="M46.1,29.1c0.5-0.5,1.1-1.1,1.6-1.5l0.4-0.4L34.5,13.7l-1.1,1.1c-0.3,0.3-0.5,0.5-0.8,0.8L46.1,29.1z"/>
	<path class="st3" d="M30.6,17.4l13.5,13.5c0.6-0.6,1.2-1.2,1.9-1.9L32.5,15.6C31.9,16.2,31.2,16.8,30.6,17.4z"/>
	<path class="st4" d="M5.4,42.7c-0.1,0.3-0.3,0.4-0.3,0.5c-0.1,1.3-0.4,2.6-0.4,4c-0.3,2.6-0.6,5.2-0.9,7.9c0,0.2,0,0.4,0,0.6
		C4,57,5.2,57.9,6.6,57.8c1.1-0.1,2.3-0.3,3.5-0.4c2.6-0.3,5.2-0.6,7.8-0.8c0.4-0.1,1-0.4,1.2-0.7c0.7-0.7,1.4-1.4,2.1-2.1l-14.1-13
		C6.6,41.5,6,42.1,5.4,42.7z"/>
	<path class="st5" d="M6.6,57.8c0.4-0.1,1-0.1,1.4-0.2c0.7-2.7-1.4-4.8-4.1-4c-0.1,0.4-0.1,0.9-0.2,1.3c0,0.2,0,0.4,0,0.6
		C4,57,5.2,57.9,6.6,57.8z"/>
</g>
</svg>
