<svg width="18" height="18" viewBox="0 0 18 18" fill="none" xmlns="http://www.w3.org/2000/svg">
<path d="M9.00031 16.875C6.91173 16.875 4.90869 16.0453 3.43184 14.5685C1.95499 13.0916 1.12531 11.0886 1.12531 9C1.12531 6.91142 1.95499 4.90838 3.43184 3.43153C4.90869 1.95468 6.91173 1.125 9.00031 1.125C11.0889 1.125 13.0919 1.95468 14.5688 3.43153C16.0456 4.90838 16.8753 6.91142 16.8753 9C16.8753 11.0886 16.0456 13.0916 14.5688 14.5685C13.0919 16.0453 11.0889 16.875 9.00031 16.875ZM9.00031 18C11.3873 18 13.6764 17.0518 15.3643 15.364C17.0521 13.6761 18.0003 11.3869 18.0003 9C18.0003 6.61305 17.0521 4.32387 15.3643 2.63604C13.6764 0.948212 11.3873 0 9.00031 0C6.61336 0 4.32417 0.948212 2.63634 2.63604C0.948517 4.32387 0.000305176 6.61305 0.000305176 9C0.000305176 11.3869 0.948517 13.6761 2.63634 15.364C4.32417 17.0518 6.61336 18 9.00031 18Z" fill="#BA478F"/>
<path d="M8.28058 5C10.092 5.00026 11.5609 6.46879 11.5609 8.28027C11.5609 9.06579 11.283 9.7858 10.8226 10.3506L13.0071 12.5352C13.2022 12.7304 13.2023 13.047 13.0071 13.2422C12.8119 13.4374 12.4954 13.4373 12.3001 13.2422L10.0794 11.0215C9.56273 11.3613 8.9452 11.5605 8.28058 11.5605C6.46893 11.5605 4.99933 10.0919 4.99933 8.28027C4.99933 6.46863 6.46893 5 8.28058 5ZM8.28058 6C7.02122 6 6.00031 7.02091 6.00031 8.28027C6.00031 9.53963 7.02122 10.5605 8.28058 10.5605C9.53972 10.5603 10.5609 9.53947 10.5609 8.28027C10.5609 7.02108 9.53971 6.00026 8.28058 6Z" fill="#BA478F"/>
</svg>
