<svg xmlns="http://www.w3.org/2000/svg" xml:space="preserve" style="fill-rule:evenodd;clip-rule:evenodd;stroke-linejoin:round;stroke-miterlimit:2" viewBox="0 0 14 12"><path d="M5.479 9H2.2C1.538 9 1 8.462 1 7.8V2.2C1 1.538 1.538 1 2.2 1h9.6c.662 0 1.2.538 1.2 1.2v5.6c0 .662-.538 1.2-1.2 1.2H8.521v1h1.611a.25.25 0 0 1 .25.25v.5a.25.25 0 0 1-.25.25H3.868a.25.25 0 0 1-.25-.25v-.5a.25.25 0 0 1 .25-.25h1.611zM12 2.9a.9.9 0 0 0-.9-.9H2.9a.9.9 0 0 0-.9.9v4.2a.9.9 0 0 0 .9.9h8.2a.9.9 0 0 0 .9-.9z" style="fill:#6e6e6e"/></svg>