<?xml version="1.0" standalone="no"?>
<!DOCTYPE svg PUBLIC "-//W3C//DTD SVG 20010904//EN"
 "http://www.w3.org/TR/2001/REC-SVG-20010904/DTD/svg10.dtd">
<svg version="1.0" xmlns="http://www.w3.org/2000/svg"
 width="640.000000pt" height="640.000000pt" viewBox="0 0 640.000000 640.000000"
 preserveAspectRatio="xMidYMid meet">
<metadata>
Created by potrace 1.14, written by Peter Selinger 2001-2017
</metadata>
<g transform="translate(0.000000,640.000000) scale(0.100000,-0.100000)"
fill="#000000" stroke="none">
<path d="M3073 6065 c-36 -25 -215 -125 -224 -125 -5 0 -9 -4 -9 -10 0 -5 -4
-10 -10 -10 -5 0 -47 -22 -92 -49 -84 -49 -735 -423 -818 -469 -25 -14 -58
-33 -75 -43 -83 -49 -157 -89 -165 -89 -4 0 -10 -4 -12 -8 -4 -10 -166 -102
-179 -102 -5 0 -9 -4 -9 -10 0 -5 -4 -10 -10 -10 -5 0 -64 -32 -132 -72 -68
-39 -134 -78 -148 -85 -14 -8 -46 -26 -71 -41 -26 -15 -86 -49 -135 -76 -49
-27 -95 -56 -102 -63 -7 -7 -17 -13 -22 -13 -5 0 -49 -24 -98 -52 l-88 -53 0
-1477 1 -1476 27 -21 c14 -12 33 -21 41 -21 9 0 17 -4 19 -8 2 -5 28 -22 58
-39 30 -17 142 -80 248 -142 106 -61 197 -111 202 -111 6 0 10 -4 10 -10 0 -5
5 -10 10 -10 6 0 40 -18 76 -40 36 -22 68 -40 70 -40 2 0 33 -18 69 -40 36
-22 69 -40 74 -40 5 0 14 -7 21 -15 7 -9 15 -13 18 -10 3 3 12 -1 21 -8 14
-12 54 -35 211 -124 19 -11 58 -34 86 -51 28 -16 78 -45 110 -63 115 -63 266
-151 294 -169 8 -6 22 -13 30 -17 8 -4 67 -37 130 -73 63 -37 135 -78 160 -92
25 -14 61 -35 80 -47 19 -11 41 -24 49 -28 8 -3 63 -35 122 -69 117 -68 198
-114 202 -114 2 0 0 5700 -2 5733 -1 21 -10 22 -38 2z"/>
<path d="M3314 3205 c0 -1581 1 -2875 3 -2875 1 0 41 22 89 50 48 27 89 50 91
50 3 0 17 8 31 18 15 11 52 32 82 49 30 17 78 44 106 60 27 17 70 41 95 55 24
14 89 51 144 83 55 32 120 69 145 83 83 47 105 59 156 90 45 26 119 68 189
106 11 6 22 13 25 17 5 5 70 40 117 63 13 6 23 14 23 19 0 4 4 7 9 7 4 0 90
47 191 105 100 58 184 105 188 105 3 0 13 6 21 14 9 8 39 26 66 40 28 15 57
31 65 36 66 41 314 180 321 180 5 0 9 4 9 8 0 4 12 13 28 19 15 7 47 24 72 39
25 15 59 34 75 43 40 22 89 54 95 62 8 11 5 2943 -3 2956 -4 6 -30 23 -59 38
-29 15 -60 33 -68 39 -8 7 -40 25 -70 40 -30 16 -62 34 -70 41 -8 7 -25 16
-37 19 -13 4 -23 12 -23 17 0 5 -4 9 -10 9 -5 0 -85 43 -177 97 -178 102 -211
121 -283 161 -25 14 -89 52 -143 84 -55 32 -101 58 -103 58 -2 0 -38 20 -80
45 -41 25 -78 45 -82 45 -3 0 -13 6 -21 14 -9 7 -47 30 -86 51 -67 36 -342
195 -415 239 -19 11 -37 21 -40 21 -3 0 -16 8 -30 16 -64 40 -152 89 -161 89
-5 0 -9 5 -9 10 0 6 -4 10 -9 10 -5 0 -107 56 -227 125 -120 69 -221 125 -224
125 -3 0 -6 -1294 -6 -2875z"/>
</g>
</svg>
