<?xml version="1.0" standalone="no"?>
<!DOCTYPE svg PUBLIC "-//W3C//DTD SVG 20010904//EN"
 "http://www.w3.org/TR/2001/REC-SVG-20010904/DTD/svg10.dtd">
<svg version="1.0" xmlns="http://www.w3.org/2000/svg"
 width="700.000000pt" height="700.000000pt" viewBox="0 0 700.000000 700.000000"
 preserveAspectRatio="xMidYMid meet">
<metadata>
Created by potrace 1.11, written by Peter Selinger 2001-2013
</metadata>
<g transform="translate(0.000000,700.000000) scale(0.100000,-0.100000)"
fill="#000000" stroke="none">
<path d="M1945 6146 l-1470 -843 -2 -1794 -2 -1794 497 -284 c273 -157 722
-414 997 -572 1175 -674 1446 -829 1450 -829 3 0 4 957 3 2128 -1 1170 -4
2082 -7 2027 l-6 -99 -235 -140 c-129 -76 -421 -249 -648 -383 l-412 -245 0
-587 0 -588 -22 -44 c-68 -133 -269 -290 -441 -344 -184 -58 -363 -13 -446
112 -40 61 -54 112 -54 198 0 273 268 525 560 525 l73 0 0 1236 c0 1375 -5
1278 68 1327 49 33 1534 938 1549 944 6 2 13 -6 16 -19 2 -13 5 187 6 445 0
257 0 467 -1 467 -2 0 -664 -380 -1473 -844z"/>
<path d="M3656 6982 c-9 -8 -7 -6952 2 -6952 4 0 669 380 1477 844 l1470 844
3 1789 2 1789 -982 564 c-541 310 -1204 691 -1475 846 -270 155 -494 279 -497
276z m1806 -2053 c232 -48 405 -278 384 -510 -25 -273 -245 -463 -517 -446
l-86 6 -47 -65 c-63 -85 -181 -210 -284 -300 -46 -40 -82 -76 -80 -81 1 -4 44
-24 94 -44 167 -66 290 -146 431 -282 l91 -88 64 11 c207 38 420 -76 515 -276
61 -129 58 -291 -9 -425 -66 -132 -216 -238 -363 -259 -248 -34 -489 130 -544
370 -25 106 -6 249 45 339 13 24 24 49 24 56 0 16 -106 109 -186 164 -143 97
-343 165 -516 178 l-87 6 -179 -77 c-200 -86 -323 -121 -460 -131 l-92 -8 0
180 0 180 108 6 c181 11 321 51 539 157 264 129 467 291 638 511 l36 47 -30
43 c-61 91 -89 222 -71 334 32 205 186 364 395 408 40 9 135 7 187 -4z"/>
<path d="M5297 4635 c-102 -36 -155 -158 -113 -258 17 -41 74 -91 121 -107 80
-26 181 14 223 89 26 45 29 124 8 174 -25 62 -113 118 -181 117 -11 -1 -37 -7
-58 -15z"/>
<path d="M5486 2816 c-77 -46 -109 -152 -72 -239 18 -44 77 -94 127 -107 114
-31 239 64 239 180 0 70 -59 155 -123 179 -50 19 -128 13 -171 -13z"/>
<path d="M3412 5490 l-2 -485 -650 -385 -650 -384 0 -294 0 -293 53 30 c45 25
1208 716 1245 739 10 6 12 169 9 782 -1 576 -3 651 -5 290z"/>
</g>
</svg>
