<?xml version="1.0"?>
<svg width="2000" height="2000" xmlns="http://www.w3.org/2000/svg" xmlns:svg="http://www.w3.org/2000/svg" preserveAspectRatio="xMidYMid meet">

 <g class="layer">
  <title>Layer 1</title>
  <ellipse cx="1000" cy="1000" fill="#fffedb" id="svg_1" rx="940.98743" ry="949.9491"/>
  <g fill="#ba478fff" id="svg_2" transform="translate(-520.05047,-479.30283)">
   <path d="m1330,2361c-177,-39 -341,-131 -462,-259c-83,-88 -121,-143 -168,-245c-62,-135 -75,-200 -75,-377c0,-180 13,-243 80,-385c97,-207 274,-372 487,-455c269,-105 590,-68 828,93c66,45 186,163 236,234c178,248 210,606 79,889c-108,235 -319,415 -572,490c-121,36 -310,42 -433,15m282,-111c192,-22 406,-136 472,-251c19,-34 19,-34 -21,7c-53,54 -120,99 -166,112c-44,12 -53,3 -33,-36c8,-16 24,-62 35,-102c11,-40 25,-78 31,-85c35,-42 28,-164 -8,-161c-10,0 -17,-6 -17,-14c0,-10 8,-14 23,-13c31,4 28,-20 -5,-34c-20,-9 -46,-10 -92,-3c-72,10 -87,5 -139,-44c-51,-47 -60,-73 -57,-148c2,-52 9,-79 29,-113c15,-25 31,-45 36,-45c5,0 23,-20 40,-45c29,-42 30,-47 16,-67c-19,-27 -21,-69 -4,-86c7,-7 23,-12 37,-12l24,0l-24,-26c-13,-14 -34,-30 -46,-35c-13,-5 -23,-15 -23,-23c0,-19 39,-86 51,-86c4,0 21,16 36,35c28,35 53,46 53,23c-1,-7 -11,-26 -24,-41c-20,-25 -22,-32 -12,-62c20,-57 35,-68 86,-61l45,6l-53,-34c-90,-58 -225,-96 -360,-102c-109,-5 -115,-5 -89,10c20,11 44,14 90,10c51,-4 68,-2 95,15c27,18 31,24 22,40c-5,11 -10,28 -10,37c0,10 -7,26 -17,36c-15,17 -15,18 13,18c37,0 58,18 43,37c-7,7 -21,13 -34,13c-23,0 -60,-32 -48,-43c3,-4 0,-7 -8,-7c-23,1 -102,40 -127,63c-17,16 -27,19 -39,11c-35,-22 -39,-42 -16,-83c21,-37 21,-39 4,-55c-35,-32 -65,-14 -51,32c8,31 7,34 -30,57l-39,25l1,73c2,85 -4,99 -40,96c-15,-2 -46,7 -70,20c-24,12 -51,19 -61,16c-11,-3 -25,3 -36,15c-10,11 -24,20 -32,20c-7,0 -43,29 -80,65c-59,58 -67,69 -67,104c-1,48 -8,56 -35,41c-14,-7 -21,-21 -21,-38c0,-23 -4,-27 -25,-27c-35,2 -56,26 -65,74c-4,23 -6,41 -3,41c2,0 22,-12 44,-26c42,-26 42,-26 83,-8c22,10 48,24 57,31c9,8 34,19 55,24c55,15 74,35 74,79c0,21 7,43 15,50c8,6 13,21 12,32c-1,15 6,24 28,31c17,5 50,29 75,53c32,31 63,49 108,63c102,31 119,57 82,119c-13,21 -20,50 -20,82c0,42 -4,52 -25,66c-16,11 -24,24 -23,38c2,11 -1,43 -5,70c-8,45 -6,50 19,77c18,19 34,27 45,24c12,-4 22,1 29,15c13,24 54,26 192,10m-396,-91c-36,-33 -88,-91 -115,-127c-27,-37 -63,-75 -79,-84c-16,-10 -56,-50 -88,-89c-57,-70 -59,-73 -62,-142c-4,-61 -8,-74 -29,-90c-13,-10 -40,-44 -61,-75c-32,-50 -37,-54 -40,-33c-2,13 1,53 8,89c35,200 149,386 304,497c56,40 199,115 219,115c4,0 -22,-27 -57,-61m1020,-386c8,-18 12,-33 9,-33c-7,0 -41,70 -49,100c-6,23 -5,22 10,-4c9,-16 23,-45 30,-63m-1339,-213c27,-21 62,-26 79,-11c5,4 23,11 40,14l31,6l-7,-40c-4,-22 -10,-42 -13,-45c-2,-3 -38,-5 -78,-6c-65,-1 -77,-4 -101,-26l-28,-26l0,26c0,14 7,31 15,38c8,7 15,27 15,45c0,49 10,55 47,25m1273,-300c0,-19 -29,-31 -49,-21c-17,9 -26,6 -53,-18l-34,-29l-16,29c-15,25 -15,30 -2,37c18,10 154,12 154,2m-202,-73c7,-5 10,-12 7,-15c-2,-3 -11,1 -19,7c-17,15 -36,7 -36,-15c0,-32 -39,-11 -53,28c-5,16 -1,17 41,11c26,-3 53,-10 60,-16m-808,-249c34,-25 38,-38 11,-38c-23,0 -73,39 -66,51c9,14 23,11 55,-13m186,-191c4,-4 15,-7 24,-7c9,0 25,-7 36,-16c18,-14 16,-15 -29,-9c-26,3 -71,14 -100,24l-52,18l57,-1c31,-1 60,-4 64,-9" id="svg_3"/>
   <path d="m1762,792c-25,-20 -20,-32 13,-32c30,0 48,20 34,37c-15,17 -19,16 -47,-5" id="svg_4"/>
  </g>
 </g>
</svg>
