<!DOCTYPE svg PUBLIC "-//W3C//DTD SVG 20010904//EN" "http://www.w3.org/TR/2001/REC-SVG-20010904/DTD/svg10.dtd">
<svg version="1.0" xmlns="http://www.w3.org/2000/svg" width="300px" height="300px" viewBox="0 0 3000 3000" preserveAspectRatio="xMidYMid meet"><g fill="#fffedb" stroke="none">
 <path d="M1565 2971 c-3 -6 3 -15 14 -21 12 -6 22 -6 26 -1 3 6 -3 15 -14 21 -12 6 -22 6 -26 1z"/>
 <path d="M2005 2721 c-3 -6 3 -15 14 -21 12 -6 22 -6 26 -1 3 6 -3 15 -14 21 -12 6 -22 6 -26 1z"/>
 <path d="M2265 2571 c-3 -6 3 -15 14 -21 12 -6 22 -6 26 -1 3 6 -3 15 -14 21 -12 6 -22 6 -26 1z"/>
 <path d="M1330 2361 c-177 -39 -341 -131 -462 -259 -83 -88 -121 -143 -168 -245 -62 -135 -75 -200 -75 -377 0 -180 13 -243 80 -385 97 -207 274 -372 487 -455 269 -105 590 -68 828 93 66 45 186 163 236 234 178 248 210 606 79 889 -108 235 -319 415 -572 490 -121 36 -310 42 -433 15z m282 -111 c192 -22 406 -136 472 -251 19 -34 19 -34 -21 7 -53 54 -120 99 -166 112 -44 12 -53 3 -33 -36 8 -16 24 -62 35 -102 11 -40 25 -78 31 -85 35 -42 28 -164 -8 -161 -10 0 -17 -6 -17 -14 0 -10 8 -14 23 -13 31 4 28 -20 -5 -34 -20 -9 -46 -10 -92 -3 -72 10 -87 5 -139 -44 -51 -47 -60 -73 -57 -148 2 -52 9 -79 29 -113 15 -25 31 -45 36 -45 5 0 23 -20 40 -45 29 -42 30 -47 16 -67 -19 -27 -21 -69 -4 -86 7 -7 23 -12 37 -12 l24 0 -24 -26 c-13 -14 -34 -30 -46 -35 -13 -5 -23 -15 -23 -23 0 -19 39 -86 51 -86 4 0 21 16 36 35 28 35 53 46 53 23 -1 -7 -11 -26 -24 -41 -20 -25 -22 -32 -12 -62 20 -57 35 -68 86 -61 l45 6 -53 -34 c-90 -58 -225 -96 -360 -102 -109 -5 -115 -5 -89 10 20 11 44 14 90 10 51 -4 68 -2 95 15 27 18 31 24 22 40 -5 11 -10 28 -10 37 0 10 -7 26 -17 36 -15 17 -15 18 13 18 37 0 58 18 43 37 -7 7 -21 13 -34 13 -23 0 -60 -32 -48 -43 3 -4 0 -7 -8 -7 -23 1 -102 40 -127 63 -17 16 -27 19 -39 11 -35 -22 -39 -42 -16 -83 21 -37 21 -39 4 -55 -35 -32 -65 -14 -51 32 8 31 7 34 -30 57 l-39 25 1 73 c2 85 -4 99 -40 96 -15 -2 -46 7 -70 20 -24 12 -51 19 -61 16 -11 -3 -25 3 -36 15 -10 11 -24 20 -32 20 -7 0 -43 29 -80 65 -59 58 -67 69 -67 104 -1 48 -8 56 -35 41 -14 -7 -21 -21 -21 -38 0 -23 -4 -27 -25 -27 -35 2 -56 26 -65 74 -4 23 -6 41 -3 41 2 0 22 -12 44 -26 42 -26 42 -26 83 -8 22 10 48 24 57 31 9 8 34 19 55 24 55 15 74 35 74 79 0 21 7 43 15 50 8 6 13 21 12 32 -1 15 6 24 28 31 17 5 50 29 75 53 32 31 63 49 108 63 102 31 119 57 82 119 -13 21 -20 50 -20 82 0 42 -4 52 -25 66 -16 11 -24 24 -23 38 2 11 -1 43 -5 70 -8 45 -6 50 19 77 18 19 34 27 45 24 12 -4 22 1 29 15 13 24 54 26 192 10z m-396 -91 c-36 -33 -88 -91 -115 -127 -27 -37 -63 -75 -79 -84 -16 -10 -56 -50 -88 -89 -57 -70 -59 -73 -62 -142 -4 -61 -8 -74 -29 -90 -13 -10 -40 -44 -61 -75 -32 -50 -37 -54 -40 -33 -2 13 1 53 8 89 35 200 149 386 304 497 56 40 199 115 219 115 4 0 -22 -27 -57 -61z m1020 -386 c8 -18 12 -33 9 -33 -7 0 -41 70 -49 100 -6 23 -5 22 10 -4 9 -16 23 -45 30 -63z m-1339 -213 c27 -21 62 -26 79 -11 5 4 23 11 40 14 l31 6 -7 -40 c-4 -22 -10 -42 -13 -45 -2 -3 -38 -5 -78 -6 -65 -1 -77 -4 -101 -26 l-28 -26 0 26 c0 14 7 31 15 38 8 7 15 27 15 45 0 49 10 55 47 25z m1273 -300 c0 -19 -29 -31 -49 -21 -17 9 -26 6 -53 -18 l-34 -29 -16 29 c-15 25 -15 30 -2 37 18 10 154 12 154 2z m-202 -73 c7 -5 10 -12 7 -15 -2 -3 -11 1 -19 7 -17 15 -36 7 -36 -15 0 -32 -39 -11 -53 28 -5 16 -1 17 41 11 26 -3 53 -10 60 -16z m-808 -249 c34 -25 38 -38 11 -38 -23 0 -73 39 -66 51 9 14 23 11 55 -13z m186 -191 c4 -4 15 -7 24 -7 9 0 25 -7 36 -16 18 -14 16 -15 -29 -9 -26 3 -71 14 -100 24 l-52 18 57 -1 c31 -1 60 -4 64 -9z"/>
 <path d="M1762 792 c-25 -20 -20 -32 13 -32 30 0 48 20 34 37 -15 17 -19 16 -47 -5z"/>
 <path d="M2786 2272 c-3 -6 1 -15 8 -21 8 -7 17 -8 20 -3 3 6 -1 15 -8 21 -8 7 -17 8 -20 3z"/>
 <path d="M425 611 c-3 -6 3 -15 14 -21 12 -6 22 -6 26 -1 3 6 -3 15 -14 21 -12 6 -22 6 -26 1z"/>
 <path d="M1125 211 c-3 -6 3 -15 14 -21 12 -6 22 -6 26 -1 3 6 -3 15 -14 21 -12 6 -22 6 -26 1z"/>
 <path d="M1195 171 c-3 -6 3 -15 14 -21 12 -6 22 -6 26 -1 3 6 -3 15 -14 21 -12 6 -22 6 -26 1z"/>
 <path d="M1315 101 c-3 -6 3 -15 14 -21 12 -6 22 -6 26 -1 3 6 -3 15 -14 21 -12 6 -22 6 -26 1z"/>
 <path d="M1385 60 c-3 -5 8 -16 24 -25 18 -9 32 -11 36 -5 3 5 -8 16 -24 25 -18 9 -32 11 -36 5z"/>
 <path d="M1455 21 c-3 -5 4 -13 16 -16 28 -9 33 -2 9 13 -11 6 -21 8 -25 3z"/>
 </g>

<g fill="#cb248b" stroke="none">
 <path d="M1410 2959 c-41 -22 -87 -48 -102 -57 -22 -14 -88 -52 -280 -162 -56 -32 -200 -116 -232 -135 -18 -11 -75 -44 -127 -73 -52 -30 -130 -76 -174 -103 -44 -27 -98 -58 -120 -70 -77 -41 -106 -57 -145 -83 l-39 -26 1 -755 1 -756 56 -33 c31 -19 76 -44 101 -58 25 -13 64 -36 88 -51 24 -15 53 -32 65 -38 12 -5 40 -20 62 -34 22 -13 47 -27 55 -31 8 -4 23 -14 33 -22 9 -8 17 -12 17 -7 0 4 15 -3 33 -17 17 -13 43 -29 57 -36 14 -6 32 -16 40 -21 14 -9 321 -184 400 -228 19 -11 64 -38 100 -60 36 -22 68 -40 73 -41 4 -1 34 -15 67 -32 33 -16 66 -30 73 -30 19 0 72 24 122 55 22 13 56 33 75 43 19 11 62 35 95 54 33 19 71 41 85 49 14 8 32 19 40 25 8 6 47 28 85 49 39 20 77 43 85 50 8 6 50 32 93 56 43 24 98 55 122 69 24 14 74 42 112 64 37 21 84 49 103 61 19 13 58 35 85 50 28 15 55 32 62 37 7 5 41 24 75 42 l63 32 1 744 c0 410 -3 754 -7 766 -5 14 -94 72 -258 167 -139 81 -253 147 -255 147 -3 0 -41 23 -86 50 -45 28 -91 55 -103 61 -12 5 -40 20 -62 34 -22 13 -53 31 -70 40 -59 31 -132 72 -280 158 -82 47 -163 89 -180 92 -23 4 -49 -5 -105 -36z m370 -633 c399 -130 636 -473 617 -891 -9 -184 -55 -321 -158 -470 -177 -257 -493 -398 -814 -364 -379 40 -680 304 -772 676 -23 93 -23 313 0 406 81 329 318 568 650 658 60 16 98 18 232 16 142 -3 169 -7 245 -31z"/>
 <path d="M1404 2255 c-4 -8 -11 -15 -17 -15 -6 0 -27 -16 -47 -35 l-36 -35 11 -73 c7 -52 16 -78 33 -95 16 -16 22 -34 22 -69 0 -27 7 -57 15 -67 36 -48 11 -84 -74 -106 -27 -7 -64 -29 -96 -57 -29 -25 -67 -51 -86 -57 -27 -9 -34 -16 -34 -36 0 -14 -5 -29 -11 -35 -7 -5 -14 -30 -17 -54 -5 -44 -19 -61 -47 -60 -9 0 -6 4 7 9 14 6 23 21 28 49 4 22 4 45 0 51 -10 15 -50 12 -84 -7 -29 -17 -31 -17 -60 5 -17 12 -37 22 -45 22 -20 0 -36 -31 -36 -68 0 -17 -6 -32 -15 -36 -19 -7 -19 -40 0 -56 13 -11 20 -9 43 13 25 24 31 25 87 17 33 -4 52 -8 42 -9 -9 0 -25 -9 -35 -18 -10 -10 -23 -19 -28 -20 -5 -1 -23 -8 -41 -15 -26 -10 -37 -9 -60 3 -15 7 -33 20 -39 28 -20 25 -37 2 -31 -42 8 -55 36 -92 75 -94 33 -1 48 10 53 41 7 36 25 28 21 -9 -4 -33 1 -40 65 -100 89 -83 137 -115 171 -115 15 0 42 -9 60 -20 18 -11 45 -20 61 -20 25 0 29 -5 34 -32 2 -18 0 -39 -5 -46 -6 -6 -8 -25 -5 -42 5 -22 3 -28 -7 -24 -16 6 -30 -11 -21 -26 5 -8 11 -8 20 0 9 8 22 5 48 -10 32 -19 35 -24 30 -55 -4 -28 -1 -36 22 -51 26 -17 27 -17 53 9 26 26 26 27 9 56 -9 16 -17 41 -17 55 0 34 25 34 70 1 18 -13 56 -32 84 -41 28 -9 53 -18 55 -20 2 -2 7 -21 11 -43 6 -35 4 -41 -16 -52 -15 -7 -45 -10 -83 -6 -43 4 -65 1 -81 -10 -19 -13 -24 -13 -48 4 -15 10 -31 18 -37 18 -5 0 -17 5 -25 10 -8 5 -33 8 -56 6 -27 -1 -65 7 -103 22 -62 25 -85 22 -53 -6 25 -22 132 -65 204 -82 93 -22 267 -19 363 5 90 23 212 80 245 115 27 29 16 36 -40 24 -48 -11 -51 -9 -69 44 -12 35 -11 39 14 68 25 30 25 32 9 51 -17 18 -19 18 -55 -18 l-38 -37 -20 24 c-26 30 -26 38 -2 47 11 4 31 24 45 45 28 40 29 38 -21 53 -19 5 -16 64 4 86 15 17 13 21 -35 77 -69 79 -96 126 -88 155 3 13 1 38 -5 55 -9 27 -7 37 15 75 14 24 42 54 62 67 34 20 42 22 106 13 40 -6 72 -6 77 -1 5 5 20 15 33 21 12 7 21 19 19 27 -5 18 -5 33 4 95 6 43 4 57 -19 100 -14 27 -26 58 -26 69 0 11 -12 47 -25 80 -14 33 -25 62 -25 64 0 2 12 0 28 -4 39 -9 98 -50 164 -112 31 -30 58 -51 61 -46 2 4 -11 32 -30 60 -63 98 -230 203 -388 243 -100 26 -292 29 -301 5z m260 -1351 c22 -9 10 -24 -20 -24 -25 0 -33 15 -11 23 6 3 13 6 14 6 1 1 8 -2 17 -5z m136 -124 c0 -5 -10 -10 -22 -10 -19 0 -20 2 -8 10 19 13 30 13 30 0z"/>
 <path d="M1227 2216 c-117 -51 -163 -82 -254 -169 -135 -130 -207 -265 -239 -447 -15 -91 -14 -110 11 -110 12 0 75 84 75 101 0 4 16 17 36 28 l37 22 -6 56 c-8 80 8 111 116 217 51 50 117 121 146 158 28 37 74 83 100 102 99 73 89 90 -22 42z"/>
 <path d="M2187 1873 c-13 -12 -7 -44 17 -91 55 -108 84 -86 32 23 -36 77 -38 80 -49 68z"/>
 <path d="M2023 1275 c-38 -16 -37 -12 -18 -59 18 -43 33 -45 65 -10 18 18 31 23 48 19 15 -4 34 1 49 10 20 14 22 19 12 32 -10 11 -25 14 -60 10 -25 -3 -50 -2 -55 3 -5 5 -23 3 -41 -5z"/>
 <path d="M1846 1223 c-9 -10 9 -54 31 -75 l25 -23 17 22 c14 16 21 19 30 10 8 -8 15 -7 28 6 16 15 16 18 2 33 -14 14 -123 36 -133 27z"/>
 <path d="M2095 1140 c-10 -16 4 -30 29 -30 29 0 39 10 25 27 -13 15 -45 17 -54 3z"/>
 <path d="M1186 1071 c-3 -4 3 -16 13 -25 22 -20 40 -4 21 19 -14 17 -26 19 -34 6z"/>
 <path d="M1924 979 c-3 -6 0 -17 8 -25 13 -13 16 -13 27 0 7 8 10 20 6 26 -8 13 -32 13 -41 -1z"/>
 <path d="M1099 964 c-17 -21 -3 -44 41 -66 25 -13 38 -15 53 -6 20 10 19 13 -21 49 -46 43 -54 46 -73 23z"/>
 </g>

</svg>