<!DOCTYPE svg PUBLIC "-//W3C//DTD SVG 20010904//EN" "http://www.w3.org/TR/2001/REC-SVG-20010904/DTD/svg10.dtd">
<svg version="1.0" xmlns="http://www.w3.org/2000/svg" width="300px" height="300px" viewBox="0 0 3000 3000" preserveAspectRatio="xMidYMid meet"><g fill="#fefcda" stroke="none">
 <path d="M1155 2420 c-102 -9 -250 -50 -312 -86 -22 -13 -60 -45 -83 -71 l-42 -48 4 -96 3 -96 45 -58 c70 -91 204 -175 448 -283 83 -37 84 -91 2 -202 -187 -253 -199 -578 -27 -784 104 -125 355 -171 523 -96 63 27 165 128 198 196 102 208 62 474 -108 713 -48 68 -61 126 -32 150 7 6 71 36 141 66 199 86 343 191 391 288 19 36 26 67 27 116 2 62 0 70 -36 118 -54 73 -149 124 -287 154 -95 20 -137 22 -435 25 -181 1 -370 -2 -420 -6z m830 -90 c119 -25 193 -60 241 -112 29 -32 34 -45 34 -86 -1 -129 -120 -234 -404 -353 -152 -63 -166 -78 -166 -176 0 -57 3 -65 41 -113 48 -60 111 -175 133 -243 80 -240 5 -494 -171 -577 -103 -48 -254 -43 -362 12 -53 27 -72 44 -108 96 -58 85 -77 153 -76 277 0 153 38 254 157 422 56 80 65 129 34 191 -25 50 -30 53 -228 146 -137 64 -245 138 -285 196 -24 34 -30 55 -33 109 -4 61 -2 70 22 98 40 47 80 68 191 99 132 37 222 43 580 39 260 -3 313 -6 400 -25z"/>
 <path d="M195 910 c-4 -6 -3 -16 3 -22 6 -6 12 -6 17 2 4 6 3 16 -3 22 -6 6 -12 6 -17 -2z"/>
 <path d="M195 860 c-4 -6 -3 -16 3 -22 6 -6 12 -6 17 2 4 6 3 16 -3 22 -6 6 -12 6 -17 -2z"/>
 </g>

<g fill="#cb248b" stroke="none">
 <path d="M1470 2989 c-8 -5 -58 -33 -110 -62 -52 -30 -284 -163 -515 -297 -231 -134 -471 -273 -534 -309 l-115 -66 3 -750 c2 -562 5 -753 14 -762 12 -11 1038 -599 1200 -687 65 -36 95 -47 115 -43 31 6 59 22 637 357 231 134 467 270 525 303 58 33 113 67 124 76 18 16 19 39 12 761 -5 553 -10 748 -19 757 -13 12 -1159 668 -1239 709 -50 25 -74 29 -98 13z m375 -579 c257 -25 398 -84 462 -194 21 -37 16 -145 -11 -201 -47 -101 -206 -210 -444 -305 -45 -18 -87 -41 -92 -51 -22 -40 -11 -87 34 -148 203 -277 220 -618 40 -811 -115 -123 -307 -160 -484 -94 -92 35 -131 64 -175 130 -65 98 -89 180 -89 314 0 104 3 124 33 211 33 96 60 147 136 254 44 63 51 111 21 144 -10 11 -63 38 -117 62 -131 55 -293 152 -347 209 -68 70 -82 105 -82 203 0 81 1 85 35 124 20 23 50 51 68 62 50 31 248 82 350 91 141 11 539 11 662 0z"/>
 <path d="M1190 2361 c-81 -7 -221 -38 -285 -63 -16 -7 -51 -32 -77 -56 l-48 -45 0 -72 c0 -70 2 -75 39 -120 73 -88 176 -156 384 -250 123 -55 141 -76 139 -157 -1 -54 -9 -72 -67 -148 -146 -191 -183 -432 -95 -618 39 -83 88 -134 160 -166 87 -39 165 -51 247 -36 93 16 140 38 199 96 178 173 161 500 -40 758 -43 55 -46 64 -46 117 0 59 14 104 34 113 6 2 64 27 129 54 139 59 252 127 326 197 63 59 81 95 81 166 0 66 -36 113 -117 157 -109 57 -234 74 -578 77 -165 2 -338 0 -385 -4z"/>
 </g>

</svg>