<?xml version="1.0"?>
<svg width="2000" height="2000" xmlns="http://www.w3.org/2000/svg" xmlns:svg="http://www.w3.org/2000/svg" preserveAspectRatio="xMidYMid meet">

 <g class="layer">
  <title>Layer 1</title>
  <g fill="#fefcda" id="svg_1" transform="matrix(0.29959326,0,0,0.30061863,-1141.2423,-833.57377)">
   <path d="m7143.582,2917.8027c-495.3233,14.9806 -1047.165,202.1227 -1294.7399,664.197c-288.8338,432.8012 -303.8109,976.4963 -240.5254,1475.1153c97.3106,454.9926 332.0568,861.4443 595.1307,1239.204c150.8994,175.919 -1.3759,382.3014 -183.1349,443.554c-276.5227,175.3275 -617.37,202.4361 -880.6351,403.093c-342.419,213.1944 -740.0153,507.3472 -742.5659,953.2708c-47.5137,316.3315 82.8679,640.3356 357.3467,813.3228c551.1459,282.7102 1184.792,365.3014 1798.5166,367.0156c903.2206,-7.8213 1842.1962,76.5289 2706.4954,-242.8112c340.301,-129.9778 663.5981,-426.5406 646.2215,-818.2051c22.1458,-426.5087 -286.1497,-764.6318 -620.4686,-983.15c-384.8985,-278.0456 -838.558,-429.4678 -1256.6411,-645.655c-74.9991,-232.8056 164.4692,-408.2295 254.2758,-599.5874c431.4579,-693.0494 604.6693,-1643.1127 157.9722,-2371.7874c-274.9004,-448.1181 -774.9622,-707.3636 -1297.248,-697.5764" id="svg_2"/>
  </g>
  <g fill="#ba478fff" id="svg_3" transform="matrix(0.3,0,0,0.3,-524.29327,-495.7741)">
   <path d="m4305,8059c-532.1982,-13.4809 -1076.3994,-105.4966 -1556.4922,-342.2656c-268.761,-161.0013 -368.7073,-480.1374 -314.0234,-777.5156c29.7123,-390.7449 392.9795,-634.524 694.5156,-827.2188c260.2485,-193.9247 594.0256,-224.0776 866.4844,-394.9844c303.7205,-89.78 394.4979,-457.1514 168.0937,-680.2812c-330.2311,-462.2281 -594.722,-1012.6373 -548.2109,-1594.4922c-13.2019,-486.7634 193.9487,-999.8297 590.9551,-1292.6289c571.5757,-346.0775 1396.9569,-349.3499 1879.6777,154.3867c537.9336,527.8498 540.7935,1383.2485 279.4504,2046.2588c-109.3063,324.8046 -331.9595,590.5789 -491.2785,888.0381c-168.5166,348.6442 284.3086,430.3146 509.0637,541.7175c462.6402,216.8871 967.347,449.5081 1254.2764,893.0632c169.5621,317.3758 137.6131,775.5342 -185.4331,985.2c-443.4837,313.7949 -1011.2493,359.754 -1538.325,395.5915c-535.8853,20.5182 -1072.6906,16.0228 -1608.7539,5.1309m1025,-458c605.6965,-26.3531 1242.5375,2.9311 1808.5,-248.625c214.3078,-142.2924 204.0537,-512.6174 -8.6562,-654.7656c-337.1722,-263.4093 -724.4388,-450.9745 -1115.8028,-618.3965c-304.5306,-147.8822 -634.6319,-447.172 -545.041,-821.2129c62.8739,-263.3116 228.2625,-490.2014 346.0391,-732.3789c169.8413,-292.6998 318.083,-617.8562 272.8247,-965.364c-6.369,-293.1529 23.962,-628.077 -208.2466,-851.1868c-242.9932,-336.4525 -699.8013,-434.8718 -1083.9922,-320.0703c-463.2576,110.9314 -808.7037,591.9806 -753.7266,1067.3574c-23.0554,371.7477 142.5467,708.7916 274.2715,1045.3848c60.0114,237.8109 213.9009,427.1639 308.2041,649.7092c117.5382,275.3636 59.0081,598.6042 -206.374,766.5486c-235.4223,178.9033 -526.8154,258.0606 -793,380c-261.0894,136.805 -583.7512,249.8589 -719,534c-67.2683,258.527 97.4915,596.9461 387.1094,611.8125c299.1175,59.1584 587.9187,164.7658 896.8613,156.5176c379.6905,18.5811 760.33,19.5539 1140.0293,0.6699" id="svg_4"/>
  </g>
 </g>
</svg>
