<!DOCTYPE svg PUBLIC "-//W3C//DTD SVG 20010904//EN" "http://www.w3.org/TR/2001/REC-SVG-20010904/DTD/svg10.dtd">
<svg version="1.0" xmlns="http://www.w3.org/2000/svg" width="1000px" height="1000px" viewBox="0 0 10000 10000" preserveAspectRatio="xMidYMid meet"><g fill="#fefcda" stroke="none">
 <path d="M4305 8059 c-404 -11 -629 -42 -1005 -140 -260 -68 -334 -94 -529 -188 -45 -21 -221 -189 -260 -248 -36 -54 -53 -110 -76 -243 -14 -80 -15 -117 -6 -240 6 -80 18 -170 27 -200 39 -132 113 -239 267 -386 115 -111 201 -175 406 -302 180 -113 285 -165 396 -197 166 -48 190 -57 335 -129 212 -105 289 -152 346 -212 76 -79 97 -131 92 -225 -6 -100 -45 -182 -181 -382 -231 -340 -327 -534 -433 -880 -62 -200 -68 -254 -69 -552 0 -268 7 -361 41 -515 72 -322 305 -705 518 -850 77 -52 232 -125 358 -169 366 -126 726 -129 1064 -10 195 69 338 160 490 313 196 197 314 406 389 686 86 325 81 678 -15 1060 -85 334 -215 612 -445 950 -51 74 -104 159 -119 187 -31 63 -56 153 -56 205 0 43 26 126 46 149 24 26 198 112 402 198 516 218 903 448 1150 685 201 193 282 362 298 621 6 83 3 121 -16 210 -29 145 -63 208 -170 316 -165 166 -374 272 -698 353 -333 84 -649 123 -1102 136 -362 11 -1037 10 -1445 -1z m1025 -458 c107 -5 319 -12 470 -16 354 -7 463 -17 780 -71 232 -39 331 -65 475 -122 74 -29 100 -46 146 -92 72 -74 84 -114 84 -285 0 -129 -1 -132 -30 -177 -48 -73 -136 -159 -216 -210 -41 -26 -108 -71 -150 -100 -42 -29 -114 -73 -159 -97 -45 -25 -118 -66 -162 -92 -104 -61 -139 -78 -278 -135 -285 -115 -450 -211 -608 -353 -92 -82 -143 -156 -187 -270 -47 -121 -53 -190 -26 -323 25 -127 29 -139 70 -203 17 -27 31 -56 31 -65 0 -9 19 -47 43 -85 39 -64 127 -238 127 -251 0 -3 9 -18 19 -33 26 -35 131 -232 191 -357 65 -134 93 -211 120 -326 21 -93 22 -111 17 -435 -5 -329 -14 -433 -46 -541 -17 -58 -114 -203 -191 -287 -179 -196 -306 -269 -549 -316 -107 -20 -124 -21 -255 -10 -188 15 -321 50 -476 125 -74 35 -102 58 -217 170 -125 121 -136 135 -189 239 -31 60 -72 155 -90 210 -33 97 -34 107 -34 252 0 83 5 222 11 310 9 137 15 176 45 269 19 60 41 119 48 131 8 12 18 39 22 61 4 21 22 72 41 114 39 85 97 232 119 301 7 25 22 57 32 70 11 13 21 42 24 65 8 55 64 182 98 219 41 44 106 158 133 234 63 170 89 393 58 486 -24 72 -189 275 -253 313 -24 14 -60 41 -81 60 -37 32 -154 92 -181 92 -12 0 -146 64 -196 94 -14 8 -47 22 -75 31 -165 56 -215 76 -260 103 -27 18 -104 55 -170 83 -66 28 -142 68 -170 89 -27 21 -77 54 -110 73 -127 74 -230 185 -269 289 -15 38 -17 67 -14 145 6 109 36 198 97 283 17 25 42 59 54 76 29 43 111 81 211 100 44 8 126 27 181 41 55 14 131 29 168 34 38 5 89 18 115 29 69 31 118 39 307 51 439 28 887 31 1305 10z"/>
 <path d="M645 5880 c-4 -6 -3 -16 3 -22 6 -6 12 -6 17 2 4 6 3 16 -3 22 -6 6 -12 6 -17 -2z"/>
 <path d="M647 3052 c-25 -27 -21 -74 6 -100 30 -28 37 -20 37 43 0 62 -18 85 -43 57z"/>
 <path d="M647 2882 c-23 -25 -21 -75 3 -97 32 -29 48 -14 43 42 -8 80 -15 89 -46 55z"/>
 </g>

<g fill="#ba478f" stroke="none">
 <path d="M4929 9986 c-46 -16 -215 -112 -1164 -659 -654 -377 -2773 -1601 -3040 -1756 l-80 -47 4 -1624 c4 -1882 18 -3219 36 -3366 4 -30 13 -58 23 -67 50 -42 2434 -1412 3622 -2080 597 -336 675 -371 775 -353 80 15 310 143 1585 881 382 221 1048 606 1480 855 1207 696 1225 707 1249 775 18 51 29 663 24 1275 -22 2699 -41 3670 -72 3729 -10 19 -384 241 -1011 601 -1443 829 -3013 1721 -3156 1793 -54 27 -167 57 -212 57 -15 -1 -43 -7 -63 -14z m971 -1946 c580 -26 1073 -128 1380 -286 102 -53 246 -159 294 -217 79 -96 104 -145 127 -244 40 -167 24 -372 -41 -546 -121 -321 -622 -680 -1415 -1012 -379 -159 -424 -200 -413 -379 6 -95 39 -165 163 -347 283 -417 431 -771 502 -1204 25 -157 25 -510 0 -650 -66 -357 -199 -626 -417 -846 -345 -347 -884 -473 -1420 -333 -128 33 -336 118 -439 179 -154 92 -294 260 -417 501 -140 277 -180 495 -171 944 5 292 13 341 90 565 119 345 170 446 399 788 176 262 213 354 190 464 -12 58 -64 136 -127 192 -49 43 -206 133 -348 201 -123 58 -151 69 -337 125 -130 40 -375 180 -600 343 -240 174 -391 363 -436 544 -25 102 -30 344 -9 463 24 144 50 190 170 310 91 92 113 108 201 150 272 130 844 265 1234 291 295 19 1429 22 1840 4z"/>
 <path d="M4365 7620 c-482 -22 -557 -30 -645 -69 -25 -11 -70 -23 -100 -26 -30 -4 -100 -18 -155 -32 -55 -14 -143 -33 -197 -43 -127 -25 -186 -56 -244 -128 -106 -134 -144 -230 -144 -368 0 -58 5 -107 14 -128 42 -101 157 -218 296 -303 41 -25 91 -58 110 -73 33 -25 187 -100 207 -100 4 0 44 -21 88 -46 44 -25 116 -59 160 -75 44 -15 104 -37 133 -47 29 -10 94 -40 145 -66 50 -25 128 -60 172 -76 51 -19 100 -46 135 -75 30 -26 69 -54 86 -63 57 -31 215 -233 233 -297 27 -98 1 -328 -54 -484 -21 -59 -100 -198 -135 -236 -32 -35 -100 -182 -100 -216 0 -13 -13 -51 -29 -84 -16 -33 -39 -87 -51 -120 -12 -33 -44 -114 -72 -180 -27 -66 -55 -140 -62 -165 -6 -25 -17 -55 -24 -68 -8 -13 -29 -73 -48 -132 -39 -124 -53 -274 -54 -566 0 -156 1 -163 34 -260 18 -54 57 -146 86 -204 49 -99 61 -114 194 -246 127 -126 150 -144 229 -182 159 -77 278 -108 473 -124 134 -11 147 -11 260 12 65 13 147 33 181 46 166 59 387 259 507 458 88 145 106 268 106 715 0 320 -7 373 -72 543 -39 103 -213 444 -259 510 -11 14 -19 29 -19 33 0 15 -83 178 -126 248 -24 39 -44 78 -44 86 0 9 -16 41 -35 72 -27 44 -41 87 -62 181 -24 112 -25 130 -15 199 13 89 59 211 108 285 64 97 324 303 421 335 21 6 49 20 63 30 14 9 66 34 115 54 50 21 110 46 134 57 25 11 61 26 82 33 20 7 70 32 110 56 140 80 214 122 291 164 42 23 104 63 138 89 34 26 93 67 131 90 76 48 187 164 219 232 26 52 28 242 5 321 -18 60 -86 141 -150 178 -79 47 -261 104 -442 139 -359 69 -499 84 -873 91 -162 3 -349 10 -415 15 -168 14 -824 20 -1040 10z"/>
 </g>

</svg>