<!DOCTYPE svg PUBLIC "-//W3C//DTD SVG 20010904//EN" "http://www.w3.org/TR/2001/REC-SVG-20010904/DTD/svg10.dtd">
<svg version="1.0" xmlns="http://www.w3.org/2000/svg" width="300px" height="300px" viewBox="0 0 3000 3000" preserveAspectRatio="xMidYMid meet"><g fill="#cb248b" stroke="none">
 <path d="M1304 2897 c-230 -132 -406 -234 -784 -455 l-305 -177 -3 -756 -2 -756 107 -63 c60 -34 194 -113 298 -175 105 -62 280 -165 390 -230 110 -65 247 -146 305 -180 132 -79 164 -95 187 -95 18 0 135 65 483 267 85 49 268 155 405 235 138 80 284 165 325 190 l75 44 3 755 2 756 -217 128 c-120 71 -303 179 -408 240 -104 62 -269 159 -365 215 -243 144 -272 160 -296 160 -11 0 -101 -46 -200 -103z"/>
 </g>

</svg>