<!DOCTYPE svg PUBLIC "-//W3C//DTD SVG 20010904//EN" "http://www.w3.org/TR/2001/REC-SVG-20010904/DTD/svg10.dtd">
<svg version="1.0" xmlns="http://www.w3.org/2000/svg" width="300px" height="300px" viewBox="0 0 3000 3000" preserveAspectRatio="xMidYMid meet"><g fill="#fffedb" stroke="none">
 <path d="M1565 2971 c-3 -6 3 -15 14 -21 12 -6 22 -6 26 -1 3 6 -3 15 -14 21 -12 6 -22 6 -26 1z"/>
 <path d="M2005 2721 c-3 -6 3 -15 14 -21 12 -6 22 -6 26 -1 3 6 -3 15 -14 21 -12 6 -22 6 -26 1z"/>
 <path d="M2265 2571 c-3 -6 3 -15 14 -21 12 -6 22 -6 26 -1 3 6 -3 15 -14 21 -12 6 -22 6 -26 1z"/>
 <path d="M1535 2371 c-47 -28 -115 -108 -140 -164 -46 -100 -58 -171 -52 -307 8 -176 55 -340 162 -567 46 -97 57 -113 77 -113 57 0 332 88 433 138 130 64 383 241 405 282 8 16 1 37 -36 112 -163 324 -365 541 -573 614 -87 31 -230 34 -276 5z m280 -220 c33 -16 69 -36 80 -45 19 -14 14 -15 -65 -16 -158 0 -206 -29 -323 -190 -18 -25 -18 -24 -12 45 6 70 32 143 63 179 58 65 156 75 257 27z m314 -247 c10 -9 -68 -89 -103 -105 -39 -18 -146 -27 -146 -12 0 4 12 24 27 46 40 58 113 90 183 80 19 -3 37 -7 39 -9z m-359 -177 c0 -22 -62 -89 -96 -103 -34 -14 -144 -20 -144 -7 0 21 58 85 93 102 48 24 147 29 147 8z"/>
 <path d="M2786 2272 c-3 -6 1 -15 8 -21 8 -7 17 -8 20 -3 3 6 -1 15 -8 21 -8 7 -17 8 -20 3z"/>
 <path d="M1152 1715 c-144 -72 -292 -242 -392 -450 -63 -130 -130 -302 -130 -334 0 -25 42 -60 157 -127 201 -119 310 -155 580 -194 166 -23 182 -21 201 27 40 99 112 401 112 469 0 30 -7 34 -55 25 -53 -9 -101 1 -132 30 -13 13 -43 61 -65 107 l-40 82 -46 0 c-98 1 -175 65 -207 173 -8 28 -15 55 -15 60 0 5 25 -14 56 -41 31 -28 76 -61 100 -73 66 -36 72 -21 36 92 -16 52 -33 110 -37 129 -8 40 -22 60 -40 60 -7 0 -44 -16 -83 -35z m-135 -456 c15 -6 39 -20 51 -32 24 -22 62 -88 62 -107 0 -19 -100 -11 -136 11 -36 22 -68 68 -79 112 -7 26 -6 27 33 27 23 0 53 -5 69 -11z m487 -193 c22 -11 41 -26 43 -32 5 -15 -66 -52 -113 -59 -31 -5 -50 -1 -94 22 -30 15 -55 33 -57 38 -4 13 51 46 91 55 41 10 83 2 130 -24z"/>
 <path d="M425 611 c-3 -6 3 -15 14 -21 12 -6 22 -6 26 -1 3 6 -3 15 -14 21 -12 6 -22 6 -26 1z"/>
 <path d="M1125 211 c-3 -6 3 -15 14 -21 12 -6 22 -6 26 -1 3 6 -3 15 -14 21 -12 6 -22 6 -26 1z"/>
 <path d="M1195 171 c-3 -6 3 -15 14 -21 12 -6 22 -6 26 -1 3 6 -3 15 -14 21 -12 6 -22 6 -26 1z"/>
 <path d="M1315 101 c-3 -6 3 -15 14 -21 12 -6 22 -6 26 -1 3 6 -3 15 -14 21 -12 6 -22 6 -26 1z"/>
 <path d="M1385 60 c-3 -5 8 -16 24 -25 18 -9 32 -11 36 -5 3 5 -8 16 -24 25 -18 9 -32 11 -36 5z"/>
 <path d="M1455 21 c-3 -5 4 -13 16 -16 28 -9 33 -2 9 13 -11 6 -21 8 -25 3z"/>
 </g>

<g fill="#cb248b" stroke="none">
 <path d="M1410 2959 c-41 -22 -87 -48 -102 -57 -22 -14 -88 -52 -280 -162 -56 -32 -200 -116 -232 -135 -18 -11 -75 -44 -127 -73 -52 -30 -130 -76 -174 -103 -44 -27 -98 -58 -120 -70 -77 -41 -106 -57 -145 -83 l-39 -26 1 -755 1 -756 57 -34 c31 -19 67 -39 80 -45 27 -12 42 -21 108 -63 24 -15 53 -32 65 -38 12 -5 40 -20 62 -34 22 -13 47 -27 55 -31 8 -4 23 -14 33 -22 9 -8 17 -12 17 -7 0 4 15 -3 33 -17 17 -13 43 -29 57 -36 14 -6 32 -16 40 -21 14 -9 321 -184 400 -228 19 -11 64 -38 100 -60 36 -22 68 -40 73 -41 4 -1 34 -15 67 -32 33 -16 66 -30 73 -30 19 0 72 24 122 55 22 13 56 33 75 43 19 11 62 35 95 54 33 19 71 41 85 49 14 8 32 19 40 25 8 6 47 28 85 49 39 20 77 43 85 50 8 6 50 32 93 56 43 24 98 55 122 69 24 14 74 42 112 64 37 21 84 49 103 61 19 13 55 34 80 48 25 13 61 34 80 45 19 12 55 32 80 45 l45 24 1 744 c0 409 -3 753 -7 765 -5 14 -95 72 -258 167 -139 81 -253 147 -255 147 -3 0 -41 23 -86 50 -45 28 -91 55 -103 61 -12 5 -40 20 -62 34 -22 13 -53 31 -70 40 -59 31 -132 72 -280 158 -82 47 -163 89 -180 92 -23 4 -49 -5 -105 -36z m430 -618 c139 -56 276 -182 398 -365 76 -113 172 -294 172 -324 0 -30 -242 -201 -385 -272 -77 -38 -168 -73 -255 -98 -213 -61 -195 -62 -231 11 -56 109 -120 279 -150 396 -25 97 -30 134 -30 240 0 137 14 207 56 291 28 55 77 115 109 133 54 30 227 23 316 -12z m-586 -636 c4 -19 22 -82 40 -140 19 -58 32 -105 29 -105 -18 0 -92 50 -143 96 -77 72 -92 64 -60 -32 39 -116 132 -193 235 -194 27 0 33 -6 54 -56 56 -129 108 -170 203 -160 l58 6 -6 -43 c-23 -164 -106 -454 -131 -464 -45 -17 -407 49 -528 96 -79 30 -325 167 -355 197 -13 13 -12 24 14 97 131 373 302 610 511 708 33 15 63 28 66 29 4 0 10 -16 13 -35z"/>
 <path d="M1615 2182 c-51 -25 -79 -55 -106 -117 -24 -55 -39 -188 -21 -199 5 -3 24 15 40 42 42 64 109 128 157 148 27 12 72 18 138 19 54 2 101 6 105 9 9 10 -32 41 -102 77 -77 40 -155 48 -211 21z"/>
 <path d="M1979 1910 c-40 -21 -109 -95 -109 -117 0 -40 106 -39 175 2 51 29 109 107 93 123 -19 19 -118 14 -159 -8z"/>
 <path d="M1667 1750 c-47 -9 -82 -34 -125 -90 -32 -41 -33 -45 -16 -57 23 -17 96 -17 137 1 32 13 127 107 127 125 0 5 -3 12 -7 14 -18 10 -81 14 -116 7z"/>
 <path d="M903 1279 c-29 -29 47 -146 114 -175 38 -16 119 -19 128 -4 11 18 -41 116 -76 143 -53 40 -143 59 -166 36z"/>
 <path d="M1334 1089 c-23 -11 -49 -28 -59 -39 -16 -17 -14 -20 32 -52 42 -29 56 -33 109 -33 49 0 68 5 102 28 23 15 42 34 42 42 0 8 -24 28 -52 45 -63 36 -115 39 -174 9z"/>
 </g>

</svg>