<?xml version="1.0"?>
<svg width="2000" height="2000" xmlns="http://www.w3.org/2000/svg" xmlns:svg="http://www.w3.org/2000/svg" preserveAspectRatio="xMidYMid meet">

 <g class="layer">
  <title>Layer 1</title>
  <g fill="#fffddbff" id="svg_1" transform="translate(-527.58118,-493.47634)">
   <path d="m1511.9512,555.4082c-233.5664,17.86931 -473.6258,56.18814 -678.87476,176.17445c-82.15463,62.81015 -248.49703,99.11986 -239.31277,225.22398c89.60413,273.87727 215.51689,554.99387 448.81823,736.44887c75.3593,47.4264 165.89,125.3712 258.6616,79.1964c25.6012,28.3898 -9.1622,129.0362 0.3575,186.9293c-4.3592,173.9526 72.0127,358.5049 223.7531,451.6377c158.9787,52.01 338.0025,-0.023 468.7823,-97.5907c209.4328,-155.0073 352.9541,-382.7673 459.1992,-617.0005c40.8896,-95.0033 -77.272,-143.642 -134.2843,-194.5258c-147.0385,-106.5609 -303.6539,-203.8178 -479.479,-254.7673c-51.0729,-33.3964 -213.103,-20.8789 -126.2241,-104.3524c17.704,-92.7281 -22.4119,-186.39705 -37.5583,-277.44581c-27.7397,-96.32916 -41.1543,-201.51517 -97.1853,-285.89531c-17.8462,-16.77905 -42.9219,-22.76097 -66.6534,-24.03288" id="svg_2"/>
  </g>
  <g fill="#ba478fff" id="svg_3" transform="translate(-526.4804,-493.42047)">
   <path d="m1535,2371c-47,-28 -115,-108 -140,-164c-46,-100 -58,-171 -52,-307c8,-176 55,-340 162,-567c46,-97 57,-113 77,-113c57,0 332,88 433,138c130,64 383,241 405,282c8,16 1,37 -36,112c-163,324 -365,541 -573,614c-87,31 -230,34 -276,5m280,-220c33,-16 69,-36 80,-45c19,-14 14,-15 -65,-16c-158,0 -206,-29 -323,-190c-18,-25 -18,-24 -12,45c6,70 32,143 63,179c58,65 156,75 257,27m314,-247c10,-9 -68,-89 -103,-105c-39,-18 -146,-27 -146,-12c0,4 12,24 27,46c40,58 113,90 183,80c19,-3 37,-7 39,-9m-359,-177c0,-22 -62,-89 -96,-103c-34,-14 -144,-20 -144,-7c0,21 58,85 93,102c48,24 147,29 147,8" id="svg_4"/>
   <path d="m1152,1715c-144,-72 -292,-242 -392,-450c-63,-130 -130,-302 -130,-334c0,-25 42,-60 157,-127c201,-119 310,-155 580,-194c166,-23 182,-21 201,27c40,99 112,401 112,469c0,30 -7,34 -55,25c-53,-9 -101,1 -132,30c-13,13 -43,61 -65,107l-40,82l-46,0c-98,1 -175,65 -207,173c-8,28 -15,55 -15,60c0,5 25,-14 56,-41c31,-28 76,-61 100,-73c66,-36 72,-21 36,92c-16,52 -33,110 -37,129c-8,40 -22,60 -40,60c-7,0 -44,-16 -83,-35m-135,-456c15,-6 39,-20 51,-32c24,-22 62,-88 62,-107c0,-19 -100,-11 -136,11c-36,22 -68,68 -79,112c-7,26 -6,27 33,27c23,0 53,-5 69,-11m487,-193c22,-11 41,-26 43,-32c5,-15 -66,-52 -113,-59c-31,-5 -50,-1 -94,22c-30,15 -55,33 -57,38c-4,13 51,46 91,55c41,10 83,2 130,-24" id="svg_5"/>
  </g>
 </g>
</svg>
