<?xml version="1.0"?>
<svg width="2000" height="2000" xmlns="http://www.w3.org/2000/svg" xmlns:svg="http://www.w3.org/2000/svg" preserveAspectRatio="xMidYMid meet">

 <g class="layer">
  <title>Layer 1</title>
  <g fill="#fffddbff" id="svg_1" transform="matrix(0.9,0,0,0.9,-348.83565,-323.48179)">
   <path d="m2010.957,530.05859c-145.1094,-3.35142 -284.6116,122.40528 -289.0464,267.75785c6.299,144.80025 -174.0699,-2.86953 -255.816,38.907c-70.9115,5.71842 -159.7457,77.24329 -156.0345,-45.3696c-29.2728,-142.37238 -155.6,-276.51136 -310.2679,-260.08369c-149.46998,-4.79365 -293.04482,113.52587 -300.58832,265.98581c-26.43997,71.56168 35.27145,195.27388 -16.24716,230.79274c-68.09966,22.329 -202.79322,17.6853 -199.95978,107.3021c28.7424,93.1146 -146.98041,136.0096 -50.58566,219.0018c42.32142,51.8512 220.58128,10.4869 110.3789,91.3812c-79.87091,64.0189 -133.67527,182.6833 -72.93294,276.9206c86.69229,116.4964 248.93314,122.4257 381.52657,134.3862c44.03946,16.658 247.89769,-28.8961 144.42635,42.8648c-82.10544,71.1652 -186.83708,160.8023 -155.93936,283.3513c31.69048,144.9367 195.2423,188.9979 322.3486,210.2582c225.1687,22.2955 453.2234,23.8116 678.6457,3.8848c124.6418,-22.5042 285.2368,-48.7552 337.8512,-181.8845c41.055,-111.3596 -29.4992,-222.9248 -114.5252,-290.842c-32.5257,-31.9324 -91.777,-73.9422 -7.9473,-61.9355c164.9836,-11.5276 353.6161,-4.7621 486.2579,-119.7445c74.5004,-88.3797 36.8591,-228.4163 -55.6158,-289.1706c-74.0575,-52.9891 -146.0922,-108.8408 -218.5519,-164.071c95.9845,-6.1388 206.1436,45.4565 291.5249,-11.302c37.698,-76.8314 62.9758,-232.8034 -27.4373,-280.82655c-71.3769,-23.09746 -191.8035,88.25295 -217.3178,46.07325c19.5372,-144.19086 41.3461,-322.23027 -80.4353,-429.50354c-58.3855,-59.71988 -141.0416,-87.96554 -223.7115,-84.13417" id="svg_2"/>
  </g>
  <g fill="#ba478fff" id="svg_3" transform="matrix(0.9,0,0,0.9,-345.93003,-323.28112)">
   <path d="m1144,2350c-163,-33 -240,-82 -263,-167c-31,-115 58,-214 297,-330c144,-70 162,-88 162,-159c0,-29 -13,-57 -55,-119c-30,-45 -67,-113 -82,-151c-23,-60 -27,-84 -27,-184c-1,-104 2,-120 25,-170c125,-265 506,-260 632,8c28,60 29,67 25,175c-4,107 -6,116 -44,197c-23,47 -60,110 -82,140c-39,50 -42,59 -42,116c0,75 4,79 128,132c228,98 332,194 332,307c0,113 -85,173 -296,210c-131,23 -587,20 -710,-5m406,-780c44,-23 49,-135 9,-179c-28,-30 -72,-27 -98,5c-34,43 -26,150 13,176c16,11 54,10 76,-2" id="svg_4"/>
   <path d="m729,1805c-190,-30 -266,-99 -240,-215c16,-72 105,-145 267,-220c48,-22 92,-46 96,-53c4,-7 8,-32 8,-57c0,-36 -9,-58 -45,-113c-63,-99 -79,-153 -80,-272c0,-143 35,-214 133,-272c52,-31 154,-41 222,-23c66,18 142,97 166,172l18,58l-62,56c-112,101 -152,200 -152,374c0,151 43,282 136,412l33,47l-126,60c-123,60 -127,61 -207,60c-44,-1 -120,-7 -167,-14m245,-743c17,-61 -27,-117 -73,-92c-41,21 -35,133 7,143c26,6 56,-17 66,-51" id="svg_5"/>
   <path d="m2026,1812c-3,-5 -49,-28 -103,-52c-54,-24 -104,-48 -110,-54c-10,-9 -5,-23 23,-61c192,-268 187,-594 -11,-772c-72,-64 -77,-81 -46,-148c44,-97 131,-155 234,-155c82,0 130,17 184,64c70,62 93,120 93,239c0,110 -18,177 -72,262c-57,91 -61,103 -52,148c9,42 10,43 130,102c121,60 179,101 222,159c33,44 31,133 -3,170c-39,42 -122,75 -231,91c-108,16 -250,20 -258,7m138,-738c10,-9 16,-33 16,-59c0,-49 -19,-75 -55,-75c-29,0 -45,26 -45,75c0,20 5,45 10,56c13,23 53,25 74,3" id="svg_6"/>
   <path d="m454,1319c-19,-21 -18,-21 8,-44c15,-13 32,-25 39,-27c6,-2 14,-32 18,-68l6,-65l69,-24c67,-24 69,-24 83,-5c18,24 13,174 -6,198c-17,20 -65,21 -81,1c-11,-13 -9,-20 10,-40c13,-14 32,-25 42,-25c14,0 18,-8 18,-36c0,-34 -2,-36 -27,-31c-74,15 -80,21 -86,89c-5,47 -12,67 -28,81c-28,22 -42,22 -65,-4" id="svg_7"/>
   <path d="m2320,1285c-19,-22 -8,-49 27,-65c31,-14 33,-18 33,-71c0,-67 12,-80 89,-103c74,-22 81,-14 81,89c0,98 -5,113 -37,126c-62,23 -86,-43 -26,-71c27,-12 33,-21 33,-48c0,-33 -1,-33 -32,-27c-75,17 -78,20 -78,78c0,82 -53,136 -90,92" id="svg_8"/>
  </g>
 </g>
</svg>
