<!DOCTYPE svg PUBLIC "-//W3C//DTD SVG 20010904//EN" "http://www.w3.org/TR/2001/REC-SVG-20010904/DTD/svg10.dtd">
<svg version="1.0" xmlns="http://www.w3.org/2000/svg" width="300px" height="300px" viewBox="0 0 3000 3000" preserveAspectRatio="xMidYMid meet"><g fill="#fffedb" stroke="none">
 <path d="M1452 2984 c-18 -8 -30 -19 -27 -24 6 -9 35 2 75 29 23 16 -7 13 -48 -5z"/>
 <path d="M1357 2934 c-38 -20 -24 -38 14 -19 16 9 27 20 24 25 -7 12 -4 13 -38 -6z"/>
 <path d="M1175 2826 c-11 -8 -14 -16 -8 -19 6 -4 18 0 28 7 11 8 14 16 8 19 -6 4 -18 0 -28 -7z"/>
 <path d="M1885 2791 c-3 -6 3 -15 14 -21 12 -6 22 -6 26 -1 3 6 -3 15 -14 21 -12 6 -22 6 -26 1z"/>
 <path d="M2585 2391 c-3 -6 3 -15 14 -21 12 -6 22 -6 26 -1 3 6 -3 15 -14 21 -12 6 -22 6 -26 1z"/>
 <path d="M1144 2350 c-163 -33 -240 -82 -263 -167 -31 -115 58 -214 297 -330 144 -70 162 -88 162 -159 0 -29 -13 -57 -55 -119 -30 -45 -67 -113 -82 -151 -23 -60 -27 -84 -27 -184 -1 -104 2 -120 25 -170 125 -265 506 -260 632 8 28 60 29 67 25 175 -4 107 -6 116 -44 197 -23 47 -60 110 -82 140 -39 50 -42 59 -42 116 0 75 4 79 128 132 228 98 332 194 332 307 0 113 -85 173 -296 210 -131 23 -587 20 -710 -5z m406 -780 c44 -23 49 -135 9 -179 -28 -30 -72 -27 -98 5 -34 43 -26 150 13 176 16 11 54 10 76 -2z"/>
 <path d="M2655 2351 c-3 -6 3 -15 14 -21 12 -6 22 -6 26 -1 3 6 -3 15 -14 21 -12 6 -22 6 -26 1z"/>
 <path d="M2725 2311 c-3 -6 3 -15 14 -21 12 -6 22 -6 26 -1 3 6 -3 15 -14 21 -12 6 -22 6 -26 1z"/>
 <path d="M729 1805 c-190 -30 -266 -99 -240 -215 16 -72 105 -145 267 -220 48 -22 92 -46 96 -53 4 -7 8 -32 8 -57 0 -36 -9 -58 -45 -113 -63 -99 -79 -153 -80 -272 0 -143 35 -214 133 -272 52 -31 154 -41 222 -23 66 18 142 97 166 172 l18 58 -62 56 c-112 101 -152 200 -152 374 0 151 43 282 136 412 l33 47 -126 60 c-123 60 -127 61 -207 60 -44 -1 -120 -7 -167 -14z m245 -743 c17 -61 -27 -117 -73 -92 -41 21 -35 133 7 143 26 6 56 -17 66 -51z"/>
 <path d="M2026 1812 c-3 -5 -49 -28 -103 -52 -54 -24 -104 -48 -110 -54 -10 -9 -5 -23 23 -61 192 -268 187 -594 -11 -772 -72 -64 -77 -81 -46 -148 44 -97 131 -155 234 -155 82 0 130 17 184 64 70 62 93 120 93 239 0 110 -18 177 -72 262 -57 91 -61 103 -52 148 9 42 10 43 130 102 121 60 179 101 222 159 33 44 31 133 -3 170 -39 42 -122 75 -231 91 -108 16 -250 20 -258 7z m138 -738 c10 -9 16 -33 16 -59 0 -49 -19 -75 -55 -75 -29 0 -45 26 -45 75 0 20 5 45 10 56 13 23 53 25 74 3z"/>
 <path d="M454 1319 c-19 -21 -18 -21 8 -44 15 -13 32 -25 39 -27 6 -2 14 -32 18 -68 l6 -65 69 -24 c67 -24 69 -24 83 -5 18 24 13 174 -6 198 -17 20 -65 21 -81 1 -11 -13 -9 -20 10 -40 13 -14 32 -25 42 -25 14 0 18 -8 18 -36 0 -34 -2 -36 -27 -31 -74 15 -80 21 -86 89 -5 47 -12 67 -28 81 -28 22 -42 22 -65 -4z"/>
 <path d="M2320 1285 c-19 -22 -8 -49 27 -65 31 -14 33 -18 33 -71 0 -67 12 -80 89 -103 74 -22 81 -14 81 89 0 98 -5 113 -37 126 -62 23 -86 -43 -26 -71 27 -12 33 -21 33 -48 0 -33 -1 -33 -32 -27 -75 17 -78 20 -78 78 0 82 -53 136 -90 92z"/>
 <path d="M365 661 c-3 -6 3 -15 14 -21 12 -6 22 -6 26 -1 3 6 -3 15 -14 21 -12 6 -22 6 -26 1z"/>
 <path d="M435 621 c-3 -6 3 -15 14 -21 12 -6 22 -6 26 -1 3 6 -3 15 -14 21 -12 6 -22 6 -26 1z"/>
 <path d="M505 581 c-3 -6 3 -15 14 -21 12 -6 22 -6 26 -1 3 6 -3 15 -14 21 -12 6 -22 6 -26 1z"/>
 <path d="M1534 25 c-15 -11 -16 -14 -4 -15 21 0 44 16 33 23 -6 4 -19 0 -29 -8z"/>
 </g>

<g fill="#cb248b" stroke="none">
 <path d="M1464 2981 c-23 -9 -47 -21 -55 -27 -8 -6 -61 -38 -119 -70 -58 -32 -112 -63 -121 -69 -9 -5 -60 -35 -114 -65 -53 -30 -113 -65 -133 -77 -21 -12 -55 -32 -77 -43 -22 -12 -63 -36 -92 -53 -48 -30 -225 -133 -285 -167 -16 -8 -74 -42 -130 -75 -57 -33 -110 -63 -119 -67 -15 -6 -17 -72 -18 -751 -1 -739 -1 -744 20 -771 11 -14 26 -26 33 -26 6 0 17 -5 24 -12 15 -15 113 -71 172 -99 25 -11 59 -31 77 -45 17 -13 42 -29 55 -34 36 -16 250 -138 522 -298 60 -35 118 -68 130 -73 22 -10 53 -28 167 -98 95 -58 122 -58 219 -2 41 24 92 53 112 65 20 11 75 44 123 71 47 28 106 61 130 75 24 14 83 48 130 75 47 28 102 59 123 70 20 12 55 32 77 46 22 14 47 29 55 32 8 4 32 17 52 30 86 51 245 143 268 155 14 6 45 25 70 40 l45 28 3 761 2 761 -59 36 c-32 20 -61 36 -64 36 -3 0 -36 18 -74 41 -37 22 -75 45 -83 50 -8 5 -28 16 -45 24 -16 8 -43 24 -60 35 -16 11 -43 27 -60 35 -16 9 -48 26 -70 39 -22 13 -68 39 -103 57 -35 19 -68 40 -74 46 -6 7 -15 13 -20 13 -5 0 -84 44 -176 97 -210 122 -238 137 -287 162 -22 11 -47 24 -55 29 -63 36 -60 36 -116 13z m431 -649 c154 -33 234 -85 236 -155 3 -94 -9 -124 -73 -183 -53 -49 -142 -100 -262 -150 -101 -42 -126 -70 -126 -143 0 -37 8 -57 49 -115 99 -145 136 -255 129 -382 -8 -130 -73 -230 -180 -280 -56 -26 -74 -29 -158 -29 -84 0 -102 3 -152 28 -116 57 -168 155 -168 315 0 80 5 111 29 178 15 45 41 101 58 125 16 24 42 62 57 84 22 32 27 48 23 81 -7 70 -28 89 -181 163 -204 100 -274 165 -284 260 -9 101 54 160 211 196 123 28 209 34 457 30 192 -3 265 -8 335 -23z m-806 -581 l121 -58 -31 -43 c-86 -119 -139 -275 -139 -410 0 -157 44 -267 146 -367 42 -41 64 -71 64 -86 0 -41 -51 -127 -92 -157 -93 -68 -250 -59 -331 18 -53 50 -70 98 -75 204 -5 122 17 204 83 304 41 61 46 74 42 113 -6 56 -32 81 -124 119 -65 28 -153 79 -193 114 -43 37 -60 71 -60 124 0 109 83 151 350 177 104 11 115 8 239 -52z m1206 37 c81 -12 162 -40 199 -69 24 -19 26 -27 26 -92 l0 -71 -50 -48 c-35 -33 -86 -65 -167 -104 -65 -31 -126 -66 -135 -78 -33 -39 -23 -102 27 -179 65 -101 80 -153 80 -277 0 -99 -2 -108 -31 -160 -23 -41 -45 -63 -84 -87 -49 -30 -61 -33 -135 -33 -97 0 -147 20 -193 76 -18 22 -39 61 -47 88 l-15 50 78 80 c109 113 135 173 140 322 3 80 0 128 -12 175 -21 81 -75 197 -123 262 -21 28 -33 52 -28 54 6 2 57 28 115 57 l105 54 90 -4 c50 -3 122 -10 160 -16z m-1777 -480 c7 -7 12 -20 12 -29 0 -27 -64 -10 -68 19 -3 17 2 22 20 22 13 0 29 -5 36 -12z m136 -24 c9 -3 16 -16 16 -29 0 -20 -3 -22 -32 -16 -24 5 -34 13 -36 29 -4 23 17 29 52 16z m1734 -36 c3 -23 0 -26 -20 -21 -56 14 -69 56 -15 51 26 -2 33 -8 35 -30z m138 -12 c12 -31 1 -43 -33 -34 -45 12 -47 48 -3 48 17 0 33 -6 36 -14z m-1888 -99 c26 -2 32 -6 32 -26 0 -21 -3 -23 -33 -18 -65 10 -107 34 -107 60 l0 24 38 -19 c22 -10 53 -20 70 -21z m1826 -30 c27 -9 52 -14 57 -11 5 3 9 -6 9 -20 0 -30 -5 -31 -76 -10 -31 9 -54 21 -54 29 0 7 -3 22 -7 32 -5 14 -4 16 8 7 8 -6 36 -18 63 -27z"/>
 <path d="M1472 1584 c-54 -38 -68 -127 -29 -184 31 -46 71 -58 106 -33 36 28 51 60 51 117 0 41 -5 53 -34 82 -37 37 -60 42 -94 18z"/>
 <path d="M881 1104 c-30 -38 -28 -103 2 -132 31 -29 61 -28 86 4 42 53 13 154 -44 154 -14 0 -32 -11 -44 -26z"/>
 <path d="M2086 1079 c-36 -43 -35 -91 3 -130 36 -35 42 -36 78 -5 23 20 28 32 28 71 0 39 -5 51 -28 71 -37 31 -50 30 -81 -7z"/>
 </g>

</svg>