<?xml version="1.0" encoding="UTF-8"?><svg id="Layer_1" xmlns="http://www.w3.org/2000/svg" width="300" height="300" viewBox="0 0 300 300"><defs><style>.cls-1{fill:#fffedb;}.cls-2{fill:#ba478f;}</style></defs><path class="cls-2" d="M130.4,289.7c-23-13.2-40.6-23.4-78.4-45.5l-30.5-17.7-.3-75.6-.2-75.6,10.7-6.3c6-3.4,19.4-11.3,29.8-17.5,10.5-6.2,28-16.5,39-23s24.7-14.6,30.5-18c13.2-7.9,16.4-9.5,18.7-9.5,1.8,0,13.5,6.5,48.3,26.7,8.5,4.9,26.8,15.5,40.5,23.5,13.8,8,28.4,16.5,32.5,19l7.5,4.4,.3,75.5,.2,75.6-21.7,12.8c-12,7.1-30.3,17.9-40.8,24-10.4,6.2-26.9,15.9-36.5,21.5-24.3,14.4-27.2,16-29.6,16-1.1,0-10.1-4.6-20-10.3Z"/><polygon class="cls-1" points="208.39 87.47 209.48 79.03 90.53 79.03 91.63 87.47 208.39 87.47"/><polygon class="cls-1" points="74.49 119.3 87.82 221.53 212.18 221.96 225.52 119.3 74.49 119.3"/><g><polygon class="cls-1" points="82.78 119.3 92.28 192.25 207.72 192.59 217.23 119.3 82.78 119.3"/><polygon class="cls-1" points="218.53 109.3 220.06 97.47 79.94 97.47 81.48 109.3 218.53 109.3"/></g></svg>