<?xml version="1.0" encoding="utf-8"?>
<!-- Generator: Adobe Illustrator 26.0.2, SVG Export Plug-In . SVG Version: 6.00 Build 0)  -->
<svg version="1.1" id="Layer_1" xmlns="http://www.w3.org/2000/svg" xmlns:xlink="http://www.w3.org/1999/xlink" x="0px" y="0px"
	 viewBox="0 0 300 300" style="enable-background:new 0 0 300 300;" xml:space="preserve">
<style type="text/css">
	.st0{fill:#FFFEDB;}
	.st1{fill:#BA478F;}
</style>
<path class="st0" d="M113.2,213.3c-4.2,3.6-5,4.2-5.2,4.3l-0.1,0.1c-0.3,0.2-2.6,1.4-16.4,4c-4.4,0.9-5.9,1.4-6.5,1.8
	c-1.6,0.5-8.8,2-11,2.2c-0.5-0.4-1.5-1.2-2.6-2.3c-3.1-3-2.6-4.5-1.5-6.3c1.2-2.4,4.1-13.9,4.1-16.6c0-0.5,0.5-2.5,1.2-4.8
	c0.8-2.4,1.7-5.6,2.1-7.1c0.6-2.2,6-8.3,8.4-9.9c0.9,0.7,3.3,2.6,8.4,7.7c3.7,3.7,6.5,6.7,7.7,8c0.2,0.2,0.3,0.4,0.3,0.4
	c0,0.1,0.3,0.4,0.7,0.9c0.8,1.1,2.7,3,6.7,6.6c1.7,1.6,4.2,3.8,5.7,5.5c0.7,0.9,1.1,1.7,1.3,2.4C115.8,211,113.9,212.7,113.2,213.3z
	"/>
<path class="st0" d="M232.5,98.3c-4,3.9-6.9,6.7-8.2,6.9c-0.9,0.1-2.9-1.9-5.5-4.5l-0.4-0.4c-7.6-7.5-13.4-13.4-16.8-17.1
	c-1.6-1.7-4.2-4.2-5.8-5.6c-2-1.6-2-1.6-2-2.8c0-1.2,0-1.2,1.6-2.5c1.6-1.3,4.9-4.2,7.3-6.5c4.8-4.7,7.2-6,8.7-6
	c0.8,0,1.4,0.4,2,0.8c1.4,1,11.2,10.8,16.8,16.9c1.4,1.6,4.6,4.7,6.9,6.9c1.2,1.2,2.1,2,2.6,2.5c0.6,0.8,0.9,1.5,0.9,2.2
	c-0.1,1.1-0.7,2-7.5,8.5L232.5,98.3z"/>
<path class="st0" d="M140.7,126c5.9-5.5,7.5-7.4,7.9-8.4c0.2-0.2,0.7-0.7,1.2-1c1.8-1.2,6.5-6,9-8.6c3.3-3.5,8.6-8.7,11.6-11.5
	c3-2.7,6.6-6.1,8.1-7.5c2-1.9,2-1.9,3.1-1.2c2.6,1.6,7.4,6.6,15.5,14.8c5.2,5.2,9.9,10.2,12.5,13.1c0.9,1.1,1.4,1.9,1.7,2.5
	c-0.9,1.5-4.8,5.3-6.5,7c-3.6,3.5-7.9,8-8.7,9.1c-0.1,0.2-0.3,0.4-0.4,0.5c-1,0.3-2.7,1.4-7.4,6.6c-2.8,3.1-6.6,7-8.4,8.6
	c-2.9,2.8-13,12.7-15.9,15.7l-0.2,0.2c-1.4,1.4-8.2,8.1-15.9,15.6c-2.5,2.5-14.8,14.6-16.4,16.5l0,0c-0.2,0.2-0.9,0.7-1.7,0.8
	c-0.1,0-0.4,0.1-0.5,0.1c-0.7-0.5-2.6-2.7-5-5.5c-1.8-2.1-6-7-7.6-8c-0.7-0.5-4-3.6-8.4-8c-0.1-0.1-7.1-7.3-9.1-8.7
	c0-0.1,0-0.3,0-0.6c0-1.5,8.2-9.3,13.1-13.9c1.4-1.3,3-2.9,3.6-3.5l0.1-0.1c0.3-0.3,1.5-1.5,2.6-2.5l1.6-1.5
	c1.9-1.8,5.8-5.6,8.5-8.6C131.3,135,136.8,129.7,140.7,126z"/>
<path class="st1" d="M281.8,149.5c-0.3-65.5-0.5-75.6-1.8-76.9c-0.8-0.8-6.2-4.1-12-7.4s-22-12.5-36-20.5
	c-43.7-24.8-73.9-41.6-77.7-43.2c-4.8-2-5.7-1.9-11.7,1.1C135.4,6.2,22.9,72,20.6,73.9c-1.7,1.5-1.8,4.6-1.5,77
	c0.4,74,0.4,75.4,2.4,76.8c3.3,2.4,117.6,67.3,123,69.9c2.8,1.2,5.7,2.3,6.6,2.3c3.5,0.2,6.7-1.6,57.9-31.6
	c11.3-6.6,31.3-18.4,44.5-26.1s25-14.8,26.3-15.7l2.3-1.7L281.8,149.5z M230.4,97.2c-3.7,3.6-6.4,6.2-7.6,6.4
	c-0.8,0.1-2.7-1.8-5.1-4.2l-0.4-0.4c-7.1-6.9-12.5-12.4-15.6-15.9c-1.5-1.6-3.9-3.9-5.4-5.2c-1.8-1.5-1.8-1.5-1.8-2.6
	c0-1.1,0-1.2,1.5-2.3c1.5-1.2,4.6-3.9,6.8-6c4.5-4.4,6.6-5.5,8-5.5c0.8,0,1.3,0.4,1.9,0.8c1.3,0.9,10.4,10,15.6,15.7
	c1.3,1.5,4.2,4.4,6.4,6.4c1.2,1.1,1.9,1.8,2.4,2.3c0.6,0.8,0.8,1.4,0.9,2.1c-0.1,1-0.7,1.8-7,7.9L230.4,97.2z M141.1,127.6
	c5.5-5.1,7-6.8,7.3-7.8c0.2-0.2,0.6-0.6,1.1-1c1.7-1.1,6.1-5.5,8.4-8c3.1-3.2,8-8.1,10.7-10.7c2.7-2.5,6.1-5.7,7.5-7
	c1.8-1.7,1.8-1.7,2.9-1.1c2.4,1.5,6.9,6.1,14.4,13.7c4.8,4.9,9.2,9.4,11.6,12.2c0.9,1,1.3,1.8,1.5,2.3c-0.9,1.4-4.4,4.9-6,6.5
	c-3.3,3.2-7.4,7.4-8.1,8.5c-0.1,0.2-0.3,0.3-0.4,0.4c-0.9,0.2-2.5,1.3-6.8,6.1c-2.6,2.8-6.2,6.5-7.8,8c-2.7,2.6-12.1,11.8-14.8,14.5
	l-0.2,0.2c-1.3,1.3-7.6,7.5-14.7,14.5c-2.3,2.3-13.8,13.5-15.2,15.4l0,0c-0.2,0.2-0.8,0.6-1.5,0.7c-0.1,0-0.3,0.1-0.5,0.1
	c-0.6-0.4-2.4-2.5-4.6-5.1c-1.6-2-5.6-6.5-7.1-7.4c-0.6-0.5-3.7-3.3-7.8-7.5c-0.1-0.1-6.6-6.8-8.5-8.1c0-0.1,0-0.3,0-0.6
	c0-1.4,7.6-8.6,12.1-12.9c1.3-1.2,2.8-2.7,3.3-3.2l0.1-0.1c0.3-0.3,1.4-1.4,2.4-2.3l1.5-1.4c1.7-1.7,5.3-5.2,7.9-8
	C132.4,136,137.4,131,141.1,127.6z M112.1,213.9c-3.9,3.4-4.7,3.9-4.8,4l-0.1,0.1c-0.3,0.2-2.5,1.3-15.2,3.7
	c-4.1,0.8-5.5,1.3-6.1,1.6c-1.5,0.5-8.2,1.8-10.2,2.1c-0.5-0.3-1.4-1.1-2.4-2.1c-2.8-2.8-2.4-4.2-1.4-5.9c1.2-2.2,3.8-12.9,3.8-15.4
	c0-0.4,0.5-2.3,1.2-4.4c0.7-2.3,1.6-5.2,1.9-6.6c0.5-2,5.6-7.7,7.8-9.2c0.9,0.6,3,2.4,7.8,7.2c3.4,3.4,6,6.2,7.1,7.5
	c0.2,0.2,0.2,0.3,0.2,0.4c0,0.1,0.2,0.4,0.7,0.8c0.8,1,2.5,2.8,6.2,6.1c1.6,1.5,3.9,3.5,5.3,5.1c0.7,0.8,1.1,1.5,1.2,2.2
	C114.5,211.8,112.7,213.3,112.1,213.9z M215.5,93.9c0,1.5,0.4,2.6,1.1,3.6c-0.9-1-1.1-1.7-1.1-3.1C215.4,94.2,215.5,94.1,215.5,93.9
	z M92.1,238.2c0.1,2,1,3.6,2,5C92.6,241.5,91.9,239.9,92.1,238.2z"/>
</svg>
