<?xml version="1.0"?>
<svg width="2000" height="2000" xmlns="http://www.w3.org/2000/svg" xmlns:svg="http://www.w3.org/2000/svg" preserveAspectRatio="xMidYMid meet">
 <g class="layer">
  <title>Layer 1</title>
  <g fill="#fffddb" id="svg_1">
   <path d="m1410.039585,34.742366c-121.908,-19.79129 -96.4534,162.77037 -197.8644,143.88988c-163.0072,2.49979 -327.0832,-13.77485 -489.3544,5.4285c-7.107,-91.5758 -105.0105,-184.76708 -197.3398,-135.28149c-81.53189,28.32526 -48.88373,155.77786 -152.38963,122.64855c-105.61694,-1.28351 -227.54345,17.45547 -286.26588,116.74534c-39.46807,44.63051 -52.55709,97.18551 -46.32111,155.21266c0,442.47888 0,884.95778 0,1327.43668c46.92941,79.3264 109.91884,150.7757 198.69336,183.4589c484.25566,-1.9955 968.62916,4.6841 1452.80216,-4.6176c141.204,9.412 272.5043,-122.8347 263.2927,-263.5271c7.9838,-406.9156 6.354,-814.0551 2.4179,-1221.01868c5.1165,-80.2722 -22.4256,-159.22138 -81.314,-214.95453c-85.9387,-91.82057 -222.0241,-74.53943 -335.445,-81.05253c-5.121,-69.63703 -56.8702,-134.98031 -130.9119,-134.36858" id="svg_2"/>
  </g>
  <g fill="#ba478fff" id="svg_3">
   <path d="m209,1876.761719c-27,-14 -57,-42 -76,-71l-33,-48l0,-687l0,-687l29,-46c47,-74 96,-96 216,-100l100,-3l5,95c6,109 19,138 73,164c64,30 126,14 166,-43c17,-23 21,-44 21,-103c0,-116 -20,-109 295,-106l270,3l5,90c6,101 15,124 64,154c42,26 91,27 133,1c47,-28 57,-55 63,-160l5,-95l99,3c133,4 178,28 235,122c21,35 21,42 21,703c0,538 -3,674 -13,700c-20,47 -64,95 -108,117c-37,19 -63,20 -782,20l-744,0m1522,-146c18,-22 19,-46 19,-512l0,-512l-799,0l-755,0l0,479c0,291 4,490 10,506c5,14 20,30 32,35c14,6 299,9 726,7l704,-2" id="svg_4"/>
   <path d="m532,426.761719c-20,-21 -22,-34 -22,-153c0,-123 1,-132 23,-152c33,-31 70,-28 101,9c25,29 26,37 26,140c0,143 -17,179 -84,179c-12,0 -32,-10 -44,-23" id="svg_5"/>
   <path d="m1361,425.761719c-20,-21 -22,-34 -24,-149c-2,-120 -1,-126 22,-151c31,-33 70,-34 99,-3c20,22 22,33 22,160c0,129 -1,137 -22,151c-32,23 -71,20 -97,-8" id="svg_6"/>
   <rect fill="none" height="705.66583" id="svg_7" stroke="#ba478f" stroke-miterlimit="4" stroke-width="80" width="1169.9194" x="416.839905" y="896.618408"/>
   <line id="svg_8" stroke="#ba478fff" stroke-width="80px" x1="740" x2="742" y1="1600" y2="910"/>
   <line id="svg_9" stroke="#ba478fff" stroke-width="80px" x1="1020" x2="1010" y1="1600" y2="910"/>
   <line id="svg_10" stroke="#ba478fff" stroke-width="80px" x1="1310" x2="1320" y1="1610" y2="910"/>
   <line id="svg_11" stroke="#ba478fff" stroke-width="80px" x1="420" x2="1590" y1="1120" y2="1120"/>
   <line id="svg_12" stroke="#ba478fff" stroke-width="80px" x1="400" x2="1580" y1="1380" y2="1400"/>
  </g>
 </g>

</svg>
