<!DOCTYPE svg PUBLIC "-//W3C//DTD SVG 20010904//EN" "http://www.w3.org/TR/2001/REC-SVG-20010904/DTD/svg10.dtd">
<svg version="1.0" xmlns="http://www.w3.org/2000/svg" width="300px" height="300px" viewBox="0 0 3000 3000" preserveAspectRatio="xMidYMid meet"><g fill="#fffddb" stroke="none">
 <path d="M1565 2971 c-3 -6 3 -15 14 -21 12 -6 22 -6 26 -1 3 6 -3 15 -14 21 -12 6 -22 6 -26 1z"/>
 <path d="M2005 2721 c-3 -6 3 -15 14 -21 12 -6 22 -6 26 -1 3 6 -3 15 -14 21 -12 6 -22 6 -26 1z"/>
 <path d="M709 2357 c-27 -14 -57 -42 -76 -71 l-33 -48 0 -687 0 -687 29 -46 c47 -74 96 -96 216 -100 l100 -3 5 95 c6 109 19 138 73 164 64 30 126 14 166 -43 17 -23 21 -44 21 -103 0 -116 -20 -109 295 -106 l270 3 5 90 c6 101 15 124 64 154 42 26 91 27 133 1 47 -28 57 -55 63 -160 l5 -95 99 3 c133 4 178 28 235 122 21 35 21 42 21 703 0 538 -3 674 -13 700 -20 47 -64 95 -108 117 -37 19 -63 20 -782 20 l-744 0 -44 -23z m1522 -146 c18 -22 19 -46 19 -512 l0 -489 -755 0 -755 0 0 479 c0 291 4 490 10 506 5 14 20 30 32 35 14 6 299 9 726 7 l704 -2 19 -24z"/>
 <path d="M882 2098 c-17 -17 -17 -729 0 -746 16 -16 1189 -17 1219 -2 18 10 19 25 19 373 0 269 -3 366 -12 375 -17 17 -1209 17 -1226 0z m263 -97 c5 -23 0 -34 -31 -65 -34 -34 -40 -36 -100 -36 l-64 0 0 65 0 65 94 0 94 0 7 -29z m345 -1 l0 -30 -130 0 -130 0 0 30 0 30 130 0 130 0 0 -30z m270 -35 l0 -65 -62 0 c-56 0 -65 3 -95 32 -24 23 -33 41 -33 65 l0 33 95 0 95 0 0 -65z m280 0 l0 -65 -95 0 -95 0 0 65 0 65 95 0 95 0 0 -65z m-960 -245 l0 -101 -62 3 -63 3 -3 98 -3 97 66 0 65 0 0 -100z m410 5 l0 -95 -130 0 -130 0 0 95 0 95 130 0 130 0 0 -95z m270 -5 l0 -100 -60 0 -60 0 0 100 0 100 60 0 60 0 0 -100z m280 0 l0 -101 -92 3 -93 3 -3 98 -3 97 96 0 95 0 0 -100z m-926 -209 c31 -32 37 -44 32 -65 -6 -26 -8 -26 -101 -26 l-95 0 0 59 0 60 33 4 c84 10 92 8 131 -32z m646 -26 l0 -65 -95 0 -95 0 0 29 c0 19 11 41 33 64 29 32 37 35 95 36 l62 1 0 -65z m280 -4 l0 -60 -47 -3 c-27 -2 -69 -1 -95 0 l-48 4 0 59 0 59 95 0 95 0 0 -59z m-550 -31 l0 -30 -130 0 -130 0 0 30 0 30 130 0 130 0 0 -30z"/>
 <path d="M1032 907 c-20 -21 -22 -34 -22 -153 0 -123 1 -132 23 -152 33 -31 70 -28 101 9 25 29 26 37 26 140 0 143 -17 179 -84 179 -12 0 -32 -10 -44 -23z"/>
 <path d="M1861 906 c-20 -21 -22 -34 -24 -149 -2 -120 -1 -126 22 -151 31 -33 70 -34 99 -3 20 22 22 33 22 160 0 129 -1 137 -22 151 -32 23 -71 20 -97 -8z"/>
 <path d="M1125 211 c-3 -6 3 -15 14 -21 12 -6 22 -6 26 -1 3 6 -3 15 -14 21 -12 6 -22 6 -26 1z"/>
 <path d="M1195 171 c-3 -6 3 -15 14 -21 12 -6 22 -6 26 -1 3 6 -3 15 -14 21 -12 6 -22 6 -26 1z"/>
 <path d="M1265 131 c-3 -6 3 -15 14 -21 12 -6 22 -6 26 -1 3 6 -3 15 -14 21 -12 6 -22 6 -26 1z"/>
 <path d="M1315 101 c-3 -6 3 -15 14 -21 12 -6 22 -6 26 -1 3 6 -3 15 -14 21 -12 6 -22 6 -26 1z"/>
 <path d="M1385 60 c-3 -5 17 -21 44 -35 53 -26 76 -32 66 -15 -11 18 -104 60 -110 50z"/>
 <path d="M1605 56 c-11 -8 -14 -16 -8 -19 6 -4 18 0 28 7 11 8 14 16 8 19 -6 4 -18 0 -28 -7z"/>
 <path d="M1535 14 c-13 -10 -15 -14 -4 -14 20 0 43 16 32 23 -4 3 -17 -1 -28 -9z"/>
 </g>

<g fill="#cb248b" stroke="none">
 <path d="M1410 2959 c-41 -22 -87 -48 -102 -57 -22 -14 -88 -52 -280 -162 -56 -32 -200 -116 -232 -135 -18 -11 -75 -44 -127 -73 -52 -30 -130 -76 -174 -103 -44 -27 -96 -57 -115 -67 -42 -22 -87 -48 -145 -84 l-44 -27 1 -756 1 -755 50 -31 c27 -17 61 -35 74 -40 13 -5 55 -29 93 -54 38 -25 80 -50 92 -55 13 -6 32 -15 43 -22 49 -30 70 -43 75 -43 4 0 71 -39 130 -75 64 -39 403 -230 408 -230 4 0 31 -16 59 -35 64 -43 277 -155 295 -155 20 0 291 145 373 200 22 15 76 46 120 69 44 24 87 49 95 57 9 7 24 17 35 21 11 5 46 24 78 43 32 19 73 44 91 55 18 11 75 44 127 73 52 29 108 62 124 72 17 11 41 25 55 32 14 7 38 21 55 32 16 11 57 35 90 52 l60 31 1 744 c0 409 -3 753 -7 765 -4 12 -50 46 -111 81 -56 33 -169 99 -250 147 -81 47 -149 86 -152 86 -2 0 -41 23 -86 50 -45 28 -91 55 -103 61 -12 5 -40 20 -62 34 -22 13 -53 31 -70 40 -59 31 -132 72 -280 158 -82 47 -163 89 -180 92 -23 4 -49 -5 -105 -36z m880 -621 c20 -10 47 -35 60 -55 l25 -37 3 -685 c2 -495 -1 -693 -9 -713 -16 -40 -81 -95 -126 -107 -21 -6 -70 -11 -109 -11 l-72 0 -4 88 c-4 96 -14 117 -69 158 -24 18 -46 24 -81 24 -43 0 -54 -5 -89 -38 -44 -41 -58 -82 -59 -179 l0 -53 -265 0 -265 0 0 83 c0 73 -3 87 -25 117 -37 50 -73 70 -128 70 -42 0 -53 -5 -89 -38 -43 -41 -56 -82 -57 -184 l-1 -48 -72 0 c-127 0 -192 33 -229 115 -17 37 -19 82 -19 708 0 596 2 671 16 700 19 38 51 74 79 90 22 13 1045 27 1375 19 149 -4 180 -7 210 -24z m-1160 -1447 c5 -11 10 -72 10 -136 0 -64 -5 -125 -10 -136 -16 -28 -85 -27 -101 2 -12 24 -9 256 4 277 13 20 85 15 97 -7z m830 0 c15 -28 13 -264 -2 -279 -7 -7 -29 -12 -50 -12 -50 0 -58 20 -58 155 0 136 7 155 59 155 30 0 43 -5 51 -19z"/>
 <path d="M754 2225 l-24 -24 2 -498 3 -498 765 0 765 0 0 498 0 499 -28 24 -28 24 -715 0 -715 0 -25 -25z m1356 -447 c0 -172 -3 -336 -6 -364 l-6 -51 -457 -6 c-251 -3 -523 -3 -606 1 l-150 7 -3 350 c-1 192 0 356 3 362 3 10 134 13 615 13 l610 0 0 -312z"/>
 <path d="M970 2041 c-35 -6 -35 -6 -38 -64 -4 -78 5 -87 87 -87 64 0 68 2 104 38 43 44 51 94 18 112 -21 11 -113 11 -171 1z"/>
 <path d="M1245 2042 c-26 -6 -30 -12 -30 -42 l0 -35 145 0 145 0 3 29 c2 16 0 32 -5 36 -11 11 -221 20 -258 12z"/>
 <path d="M1590 2042 c-20 -6 -26 -15 -28 -42 -2 -29 3 -41 36 -73 38 -37 40 -38 108 -35 l69 3 3 64 c2 35 -1 67 -5 72 -12 11 -154 19 -183 11z"/>
 <path d="M1865 2042 c-29 -7 -30 -9 -33 -68 -4 -82 2 -85 124 -82 l99 3 3 64 c2 35 -1 67 -5 71 -12 11 -153 19 -188 12z"/>
 <path d="M937 1824 c-4 -4 -7 -49 -7 -99 0 -112 4 -117 92 -113 l63 3 0 105 0 105 -70 3 c-39 1 -74 0 -78 -4z"/>
 <path d="M1214 1817 c-2 -7 -3 -56 -2 -108 l3 -94 134 -3 c91 -2 138 1 147 9 11 9 14 35 12 108 l-3 96 -143 3 c-112 2 -144 0 -148 -11z"/>
 <path d="M1627 1824 c-11 -11 -8 -159 3 -189 9 -25 13 -26 77 -23 l68 3 0 105 0 105 -70 3 c-39 1 -74 0 -78 -4z"/>
 <path d="M1837 1824 c-4 -4 -7 -49 -7 -99 0 -67 4 -96 14 -104 9 -8 48 -11 112 -9 l99 3 0 105 0 105 -106 3 c-58 1 -108 -1 -112 -4z"/>
 <path d="M937 1553 c-14 -13 -7 -130 7 -142 9 -8 48 -11 112 -9 l99 3 3 38 c3 33 -2 43 -37 78 -40 38 -43 39 -109 39 -38 0 -72 -3 -75 -7z"/>
 <path d="M1597 1522 c-33 -34 -38 -45 -35 -78 l3 -39 105 0 105 0 0 75 0 75 -70 3 c-70 3 -70 3 -108 -36z"/>
 <path d="M1842 1548 c-16 -16 -16 -120 0 -136 18 -18 192 -16 207 2 7 9 11 40 9 78 l-3 63 -100 3 c-70 2 -104 -1 -113 -10z"/>
 <path d="M1214 1476 c-3 -8 -4 -27 -2 -43 l3 -28 145 0 145 0 0 40 0 40 -143 3 c-117 2 -143 0 -148 -12z"/>
 </g>

</svg>