<?xml version="1.0" encoding="utf-8"?>
<!-- Generator: Adobe Illustrator 26.5.0, SVG Export Plug-In . SVG Version: 6.00 Build 0)  -->
<svg version="1.1" id="Layer_1" xmlns="http://www.w3.org/2000/svg" xmlns:xlink="http://www.w3.org/1999/xlink" x="0px" y="0px"
	 width="300px" height="300px" viewBox="0 0 300 300" style="enable-background:new 0 0 300 300;" xml:space="preserve">
<style type="text/css">
	.st0{fill:#BA478F;}
	.st1{fill:#FFFEDB;}
</style>
<g>
	<path class="st0" d="M130.4,289.2c-23-13.2-40.6-23.4-78.4-45.5L21.5,226l-0.3-75.6L21,74.8l10.7-6.3c6-3.4,19.4-11.3,29.8-17.5
		c10.5-6.2,28-16.5,39-23s24.7-14.6,30.5-18c13.2-7.9,16.4-9.5,18.7-9.5c1.8,0,13.5,6.5,48.3,26.7c8.5,4.9,26.8,15.5,40.5,23.5
		c13.8,8,28.4,16.5,32.5,19l7.5,4.4l0.3,75.5l0.2,75.6L257.3,238c-12,7.1-30.3,17.9-40.8,24c-10.4,6.2-26.9,15.9-36.5,21.5
		c-24.3,14.4-27.2,16-29.6,16C149.3,299.5,140.3,294.9,130.4,289.2z"/>
</g>
<path class="st1" d="M244,158.9c-28.5-28.7-57.1-57.4-85.6-86.1c-4.1-4.2-9.1-6.1-15-6.1L77,66.8C65.8,66.9,57.8,75,57.7,86.2
	c-0.1,22.5,0,45,0,67.5c0,5.3,1.9,9.9,5.6,13.6c28.8,29,57.6,58,86.5,86.9c8.2,8.2,19.5,8,27.7-0.2c22.2-22.2,44.4-44.5,66.5-66.8
	C252.4,178.7,252.4,167.4,244,158.9z M91.5,115.1c-7.9,0.2-14.7-6.5-14.7-14.4c-0.1-7.9,6.5-14.6,14.5-14.7
	c7.9,0,14.5,6.6,14.5,14.6C105.8,108.4,99.3,115,91.5,115.1z M186.9,170.3c-1.8,3.6-4.5,6.2-7.1,8.5l-4.7,4.1l1.7-7.5
	c0.2-1.1,0.5-2.2,0.8-3.3c1.1-4.3,1.4-9.1,1-15c-0.5-6.4-2-11.7-4.8-16.3c-3.2-5.3-7.4-8.4-12.9-9.4l0,0.2c0.2,4.2,0.3,8.4,0.5,12.7
	c0.1,2.3,0.2,4.5,0.3,6.8c0.2,4.4,0.5,9,0.6,13.5c0.2,6.8,0.3,13.8,0.2,20.9c0,5.1-2.2,9.7-6.6,14c-4.1,4-9.3,6.9-15.5,8.6
	c-3,0.8-5.9,1.2-8.9,1.2c-2.1,0-4.2-0.2-6.3-0.6c-3.7-0.7-8.3-2-11.9-6.3c-2.8-3.3-3.3-7.2-1.8-11.8c2.6-7.6,8.6-11.6,13.5-14.2
	c7.5-4,15.9-5.2,25-3.4c0-0.7,0-1.4,0-2l-0.1-4.3c-0.3-9.4-0.5-18.8-0.8-28.1c-0.3-8.4-0.5-16.7-0.8-25.1l-0.4-11.2
	c0-0.2,0-0.3,0-0.5c0-0.2,0-0.4,0-0.5c-0.1-1.2,0.4-2,0.8-2.4c0.4-0.4,1.1-0.9,2.4-1c0.9,0,1.9-0.1,2.8-0.1c1,0,1.9-0.1,2.9-0.1
	c2.4,0,3.1,1.8,3.5,2.5c0.3,0.7,0.6,1.4,0.9,2.1c0.8,2,1.6,3.9,2.7,5.3c2.6,3.2,5.8,6.1,8.8,8.9l0.4,0.3c0.8,0.7,1.6,1.4,2.4,2.2
	c3.9,3.4,7.8,7,11,11.5c3.1,4.5,5,9.5,5.5,15C192.7,154,191.1,162.1,186.9,170.3z"/>
</svg>
