<?xml version="1.0" encoding="utf-8"?>
<!-- Generator: Adobe Illustrator 27.7.0, SVG Export Plug-In . SVG Version: 6.00 Build 0)  -->
<svg version="1.1" id="Layer_1" xmlns:svg="http://www.w3.org/2000/svg"
	 xmlns="http://www.w3.org/2000/svg" xmlns:xlink="http://www.w3.org/1999/xlink" x="0px" y="0px" viewBox="0 0 2000 2000"
	 style="enable-background:new 0 0 2000 2000;" xml:space="preserve">
<style type="text/css">
	.st0{fill:#FFFEDB;}
	.st1{fill:#BA478F;}
</style>
<g>
	<path class="st0" d="M1087,1944.3c-59.1,0-116.7-25.1-162.3-70.7c-206-205.8-414.6-415.7-616.3-618.6
		c-60.7-61.1-121.5-122.2-182.2-183.3c-44.3-44.6-66.7-99-66.6-161.7c0.1-84.6,0.1-170.6,0-253.8c-0.1-121.1-0.2-246.4,0.3-369.6
		c0.2-63.8,23.5-122.1,65.5-164.2c41.9-42,100-65.4,163.7-66l0.4,0l602.2-0.5l9.5-0.1c68.6-0.6,127.5,23.4,175.1,71.2
		c90.5,91,182.7,183.4,271.7,272.8c170.2,170.8,346.3,347.5,519,521.7c23.7,23.9,42,50.2,54.4,78.4c12.6,28.5,19,58.3,19,88.5
		c0,30.2-6.4,59.9-19.1,88.4c-12.5,28.1-30.8,54.5-54.4,78.3c-223.4,225.3-424.3,426.9-614.3,616.5c-46.3,46.2-104.5,72-163.7,72.6
		C1088.4,1944.2,1087.7,1944.3,1087,1944.3z M416.9,336.2c-20.2,1.1-39.4,9.8-54.2,24.9c-15.8,16.1-24.4,36.9-24.2,58.6
		c0.2,22,9.4,42.8,25.8,58.7c16.1,15.6,36.7,24,58,23.6c44-0.8,81.2-38.7,81.3-82.6c0.1-22-8.8-43-24.8-59
		c-15.8-15.8-36.3-24.4-57.8-24.3L416.9,336.2z"/>
</g>
<path class="st1" d="M1830.6,957.8c-263-264.8-526.9-529.6-789.8-794.5c-37.8-38.8-84-56.3-138.4-56.3L289.7,108
	c-103.3,0.9-177.2,75.7-178.1,179c-0.9,207.6,0,415.2,0,622.8c0,48.9,17.5,91.3,51.7,125.5c265.7,267.6,531.5,535.2,798.1,801.8
	c75.7,75.7,179.9,73.8,255.6-1.8c204.8-204.8,409.7-410.6,613.6-616.4C1908.2,1140.5,1908.2,1036.2,1830.6,957.8z M423.5,553.6
	c-72.9,1.8-135.6-60-135.6-132.9c-0.9-72.9,60-134.7,133.8-135.6c72.9,0,133.8,60.9,133.8,134.7
	C555.5,491.8,495.5,552.7,423.5,553.6z M1303.8,1063c-16.6,33.2-41.5,57.2-65.5,78.4l-43.4,37.8l15.7-69.2
	c1.8-10.1,4.6-20.3,7.4-30.4c10.1-39.7,12.9-84,9.2-138.4c-4.6-59.1-18.5-108-44.3-150.4c-29.5-48.9-68.3-77.5-119-86.7v1.8
	c1.8,38.8,2.8,77.5,4.6,117.2c0.9,21.2,1.8,41.5,2.8,62.7c1.8,40.6,4.6,83,5.5,124.6c1.8,62.7,2.8,127.3,1.8,192.8
	c0,47.1-20.3,89.5-60.9,129.2c-37.8,36.9-85.8,63.7-143,79.4c-27.7,7.4-54.4,11.1-82.1,11.1c-19.4,0-38.8-1.8-58.1-5.5
	c-34.1-6.5-76.6-18.5-109.8-58.1c-25.8-30.4-30.4-66.4-16.6-108.9c24-70.1,79.4-107,124.6-131c69.2-36.9,146.7-48,230.7-31.4
	c0-6.5,0-12.9,0-18.5l-0.9-39.7c-2.8-86.7-4.6-173.5-7.4-259.3c-2.8-77.5-4.6-154.1-7.4-231.6l-3.7-103.3c0-1.8,0-2.8,0-4.6
	c0-1.8,0-3.7,0-4.6c-0.9-11.1,3.7-18.5,7.4-22.1c3.7-3.7,10.1-8.3,22.1-9.2c8.3,0,17.5-0.9,25.8-0.9c9.2,0,17.5-0.9,26.8-0.9
	c22.1,0,28.6,16.6,32.3,23.1c2.8,6.5,5.5,12.9,8.3,19.4c7.4,18.5,14.8,36,24.9,48.9c24,29.5,53.5,56.3,81.2,82.1l3.7,2.8
	c7.4,6.5,14.8,12.9,22.1,20.3c36,31.4,72,64.6,101.5,106.1c28.6,41.5,46.1,87.7,50.7,138.4C1357.3,912.6,1342.5,987.3,1303.8,1063z"
	/>
</svg>
