<!DOCTYPE svg PUBLIC "-//W3C//DTD SVG 20010904//EN" "http://www.w3.org/TR/2001/REC-SVG-20010904/DTD/svg10.dtd">
<svg version="1.0" xmlns="http://www.w3.org/2000/svg" width="300px" height="300px" viewBox="0 0 3000 3000" preserveAspectRatio="xMidYMid meet"><g fill="#fffedb" stroke="none">
 <path d="M1277 2329 c-162 -16 -285 -60 -327 -119 -78 -109 2 -226 236 -347 67 -35 128 -70 135 -79 28 -34 15 -94 -36 -173 -71 -109 -95 -185 -95 -301 0 -113 23 -173 90 -240 60 -60 119 -84 205 -84 123 1 200 38 272 132 44 58 56 110 51 219 -5 80 -10 101 -41 165 -20 40 -53 99 -74 132 -37 58 -47 106 -31 148 4 9 62 44 130 77 232 113 312 211 264 326 -37 88 -171 133 -431 146 -198 9 -230 9 -348 -2z"/>
 <path d="M860 1834 c-139 -21 -215 -46 -257 -86 -27 -26 -38 -87 -23 -132 16 -50 93 -115 202 -170 51 -26 101 -55 111 -63 27 -25 20 -63 -32 -165 -77 -151 -88 -272 -35 -384 21 -45 84 -98 133 -112 122 -37 241 11 295 120 36 72 34 91 -16 130 -89 71 -148 207 -148 340 1 113 49 259 119 362 17 24 31 47 31 51 0 3 -51 31 -112 60 -103 50 -119 55 -178 54 -36 -1 -76 -3 -90 -5z"/>
 <path d="M1865 1790 c-55 -28 -103 -54 -108 -59 -5 -5 12 -39 37 -75 24 -37 57 -102 73 -144 25 -70 28 -89 28 -207 0 -121 -2 -134 -27 -188 -17 -36 -52 -83 -93 -124 -36 -35 -65 -72 -65 -81 1 -61 94 -168 164 -192 21 -7 66 -10 101 -8 216 14 293 280 149 519 -40 66 -50 108 -35 137 6 12 56 44 111 73 109 55 190 121 210 169 16 38 7 105 -17 132 -46 52 -158 83 -327 92 l-101 6 -100 -50z"/>
 </g>

<g fill="#cb248b" stroke="none">
 <path d="M1445 2976 c-54 -26 -1197 -675 -1230 -699 -20 -14 -20 -28 -24 -768 -3 -724 -2 -755 15 -770 23 -19 1148 -677 1220 -713 60 -30 69 -31 117 -11 38 16 340 184 777 432 140 80 302 172 360 205 58 33 112 66 120 74 13 13 15 114 18 769 l3 753 -23 17 c-13 9 -131 80 -263 157 -132 77 -332 195 -445 261 -512 300 -544 318 -579 316 -9 0 -38 -11 -66 -23z m374 -681 c93 -18 177 -52 204 -82 10 -11 20 -37 24 -56 17 -109 -41 -175 -242 -273 -82 -40 -142 -76 -152 -90 -30 -46 -19 -97 41 -192 80 -126 89 -156 90 -292 1 -100 -2 -120 -21 -155 -46 -86 -129 -138 -239 -150 -123 -14 -234 43 -289 149 -26 53 -30 68 -29 150 0 113 25 191 94 301 49 77 54 93 50 145 -3 39 -35 66 -144 121 -205 105 -274 174 -263 264 2 25 12 56 20 69 31 47 157 90 310 106 123 13 447 4 546 -15z m-704 -522 c55 -26 102 -48 104 -50 2 -1 -15 -32 -39 -68 -89 -136 -129 -326 -97 -452 24 -93 60 -155 126 -218 65 -64 66 -67 23 -150 -36 -72 -95 -105 -184 -105 -160 0 -234 83 -232 260 1 96 24 171 75 251 17 27 33 66 36 87 5 34 1 42 -26 65 -18 15 -72 47 -122 73 -49 26 -111 66 -137 89 -46 42 -47 44 -47 105 0 56 3 64 29 85 51 41 184 72 316 74 70 1 82 -2 175 -46z m1035 36 c182 -22 250 -60 250 -139 0 -88 -41 -130 -205 -213 -49 -24 -99 -55 -110 -67 -30 -34 -24 -87 18 -156 58 -94 70 -137 71 -249 0 -108 -15 -155 -66 -202 -60 -56 -185 -71 -266 -32 -49 24 -97 89 -108 145 -5 29 0 37 58 96 95 94 121 153 126 287 6 152 -28 265 -121 400 -19 28 -26 46 -19 49 6 2 51 23 99 47 98 49 128 52 273 34z"/>
 </g>

</svg>