<!DOCTYPE svg PUBLIC "-//W3C//DTD SVG 20010904//EN" "http://www.w3.org/TR/2001/REC-SVG-20010904/DTD/svg10.dtd">
<svg version="1.0" xmlns="http://www.w3.org/2000/svg" width="300px" height="300px" viewBox="0 0 3000 3000" preserveAspectRatio="xMidYMid meet"><g fill="#fffddb" stroke="none">
 <path d="M1114 2146 c-166 -41 -264 -195 -264 -414 0 -193 85 -329 247 -398 l68 -29 405 -5 405 -5 65 -31 c89 -42 166 -108 250 -213 69 -87 92 -107 111 -95 5 3 9 194 9 450 0 388 -2 445 -15 450 -21 9 -40 -10 -98 -96 -105 -155 -202 -225 -332 -237 l-66 -6 32 47 c41 62 59 124 59 205 0 127 -42 225 -128 302 -87 78 -108 82 -422 85 -198 2 -289 0 -326 -10z m467 -157 c81 -57 78 -174 -4 -194 -14 -4 -93 -5 -177 -3 l-152 3 -24 28 c-41 48 -28 162 20 172 38 8 90 12 199 13 96 2 112 -1 138 -19z m245 -135 c30 -103 9 -188 -64 -261 l-37 -38 -3 35 c-5 57 -8 63 -34 48 -13 -6 -48 -17 -78 -23 l-55 -11 -3 -42 c-3 -37 -6 -42 -27 -42 -21 0 -24 5 -27 43 l-3 42 -75 0 -75 0 -3 -42 c-3 -38 -6 -43 -28 -43 -21 0 -24 4 -24 40 0 24 -5 42 -12 44 -7 2 -38 11 -68 19 -30 9 -59 17 -65 17 -5 0 -12 -21 -15 -46 -3 -26 -11 -49 -18 -52 -20 -6 -89 70 -101 113 -21 78 -5 207 36 276 28 46 38 42 34 -14 -6 -96 38 -175 123 -220 35 -18 62 -22 192 -25 195 -5 241 6 307 77 59 63 72 130 42 216 -5 13 5 8 29 -17 23 -24 41 -57 52 -94z"/>
 <path d="M595 1595 c-24 -24 -25 -27 -25 -185 0 -158 1 -161 25 -185 13 -14 34 -25 45 -25 29 0 70 44 70 75 0 25 1 25 83 25 46 0 87 3 90 6 4 4 -8 23 -25 42 -27 31 -62 98 -81 155 -4 11 -17 17 -37 17 -25 0 -30 4 -30 25 0 31 -41 75 -70 75 -11 0 -32 -11 -45 -25z"/>
 <path d="M1137 1164 c-4 -4 -7 -17 -7 -30 0 -12 -13 -36 -30 -52 -37 -38 -39 -80 -6 -119 21 -24 32 -28 95 -31 43 -3 83 1 101 8 23 10 33 10 45 0 9 -8 39 -10 92 -6 43 3 89 5 103 5 201 -5 190 -6 216 24 33 39 31 81 -5 118 -16 16 -31 42 -33 57 -3 27 -4 27 -73 27 l-70 0 -3 -32 c-2 -22 -10 -34 -24 -39 -25 -8 -36 3 -40 41 l-3 30 -70 0 c-68 0 -70 -1 -73 -27 -7 -58 -68 -63 -74 -5 l-3 32 -65 3 c-36 2 -69 0 -73 -4z"/>
 </g>

<g fill="#cb248b" stroke="none">
 <path d="M1430 2975 c-25 -13 -313 -179 -640 -368 l-595 -345 0 -763 0 -763 639 -368 c352 -202 650 -368 663 -368 34 0 80 25 723 398 l585 339 0 764 0 763 -380 219 c-836 482 -899 517 -924 517 -14 -1 -46 -12 -71 -25z m362 -868 c99 -49 162 -146 181 -282 13 -88 -7 -183 -52 -257 -16 -25 -27 -49 -23 -52 13 -13 115 -5 165 14 71 27 161 109 239 219 59 83 75 101 91 101 4 0 7 -198 7 -440 0 -378 -2 -440 -15 -440 -7 0 -45 38 -84 84 -93 111 -172 180 -251 219 l-64 32 -391 8 c-215 4 -412 12 -440 18 -116 26 -210 100 -254 200 -79 179 -28 459 100 550 78 55 108 59 434 56 l300 -2 57 -28z m-1114 -519 c7 -7 12 -22 12 -34 0 -26 16 -41 49 -46 18 -2 28 -15 42 -54 11 -29 38 -72 60 -98 l40 -45 -93 -3 -93 -3 -3 -30 c-5 -40 -19 -55 -51 -55 -48 0 -51 12 -51 190 0 178 3 190 50 190 14 0 31 -5 38 -12z m594 -464 c4 -37 29 -51 62 -36 18 8 26 19 26 37 0 24 3 25 60 25 57 0 60 -1 60 -25 0 -18 8 -29 26 -37 33 -15 58 -1 62 36 3 25 6 26 63 26 52 0 59 -2 59 -19 0 -11 11 -28 25 -39 34 -27 47 -64 34 -101 -6 -17 -18 -33 -27 -35 -15 -5 -393 -9 -542 -6 -68 2 -90 19 -90 71 0 31 6 43 30 61 18 13 30 31 30 45 0 21 4 23 59 23 57 0 60 -1 63 -26z"/>
 <path d="M1220 1992 c-62 -63 -47 -160 30 -200 42 -22 54 -23 186 -20 112 3 147 8 168 21 70 46 71 110 4 183 l-41 44 -159 0 -160 0 -28 -28z"/>
 <path d="M1052 1955 c-64 -79 -84 -249 -39 -336 25 -47 98 -106 116 -95 6 4 11 30 11 57 0 48 1 50 23 43 12 -4 42 -13 67 -19 42 -11 45 -15 50 -51 5 -36 8 -39 35 -39 28 0 30 2 33 44 l3 44 52 -7 c29 -3 60 -6 69 -6 12 0 18 -10 20 -37 3 -35 6 -38 33 -38 28 0 30 3 33 43 3 41 4 42 38 42 19 0 50 6 69 14 l34 15 3 -36 c2 -20 8 -38 15 -40 19 -7 90 64 113 115 44 93 11 255 -62 306 -32 22 -40 7 -27 -50 14 -63 0 -121 -42 -168 -52 -59 -90 -68 -295 -64 -178 3 -181 3 -222 31 -59 39 -85 94 -86 184 -1 39 -4 74 -7 78 -4 3 -20 -10 -37 -30z"/>
 </g>

</svg>