<!DOCTYPE svg PUBLIC "-//W3C//DTD SVG 20010904//EN" "http://www.w3.org/TR/2001/REC-SVG-20010904/DTD/svg10.dtd">
<svg version="1.0" xmlns="http://www.w3.org/2000/svg" width="300px" height="300px" viewBox="0 0 3000 3000" preserveAspectRatio="xMidYMid meet"><g fill="#fffddb" stroke="none">
 <path d="M845 2421 c-175 -50 -314 -183 -365 -349 -27 -87 -27 -227 0 -314 67 -217 278 -369 514 -368 54 0 157 28 239 64 16 8 17 -15 18 -390 1 -220 4 -412 8 -429 l6 -30 515 0 515 0 6 75 c8 100 9 1310 1 1380 l-7 55 -365 0 -365 0 0 -25 c0 -23 4 -25 53 -28 l52 -3 0 -85 c0 -111 11 -124 109 -124 63 0 71 2 90 26 17 22 21 41 21 105 l0 79 175 0 175 0 0 -700 0 -700 -458 0 -459 0 -6 263 c-4 144 -7 334 -7 423 l0 160 31 30 c16 16 51 59 76 96 29 43 53 68 65 68 10 0 24 12 30 26 10 21 9 31 -3 53 -12 21 -13 45 -7 121 4 52 10 110 14 128 5 28 2 38 -23 65 -17 18 -43 55 -59 82 -39 69 -137 164 -210 202 -116 62 -260 78 -379 44z m379 -112 c20 -11 36 -25 36 -29 0 -10 -84 -123 -104 -139 -11 -10 -21 -9 -46 4 -17 9 -33 22 -36 29 -3 8 7 52 21 99 l27 85 33 -14 c18 -7 49 -23 69 -35z m-187 -204 c166 -49 191 -291 37 -365 -140 -68 -294 23 -294 173 0 95 51 164 143 193 54 17 55 17 114 -1z m-182 -426 c41 -24 41 -28 1 -146 l-21 -64 -63 32 c-35 17 -66 38 -69 45 -4 12 99 154 112 154 2 0 20 -10 40 -21z"/>
 <path d="M940 1944 c-19 -22 -1 -68 29 -72 24 -4 61 23 61 43 0 18 -34 45 -57 45 -11 0 -26 -7 -33 -16z"/>
 <path d="M1757 1799 c-43 -25 -41 -75 4 -99 30 -17 69 11 69 49 0 41 -40 68 -73 50z"/>
 <path d="M2070 1797 c-19 -10 -25 -20 -25 -47 0 -62 64 -73 99 -17 12 20 1 43 -30 63 -15 11 -24 11 -44 1z"/>
 <path d="M1582 1788 c-7 -7 -12 -24 -12 -38 0 -33 17 -50 50 -50 29 0 60 27 60 52 0 37 -70 64 -98 36z"/>
 <path d="M1897 1782 c-22 -24 -21 -45 1 -65 47 -43 110 1 84 58 -14 31 -61 34 -85 7z"/>
 <path d="M1430 1630 c-25 -25 -26 -52 -2 -73 24 -22 55 -21 75 1 22 24 21 55 -1 75 -25 22 -48 21 -72 -3z"/>
 <path d="M1587 1632 c-22 -24 -21 -55 1 -75 24 -22 55 -21 75 1 22 25 21 48 -3 72 -25 25 -52 26 -73 2z"/>
 <path d="M1741 1624 c-35 -45 2 -97 56 -78 34 12 43 56 17 85 -24 26 -49 24 -73 -7z"/>
 <path d="M1900 1630 c-25 -25 -26 -52 -2 -73 24 -22 55 -21 75 1 23 26 21 58 -5 76 -30 21 -44 20 -68 -4z"/>
 <path d="M2057 1632 c-22 -24 -21 -55 1 -75 26 -23 58 -21 76 5 21 30 20 44 -4 68 -25 25 -52 26 -73 2z"/>
 <path d="M1425 1470 c-23 -25 -13 -67 20 -82 53 -24 100 46 57 85 -25 23 -55 21 -77 -3z"/>
 <path d="M1587 1472 c-23 -25 -21 -55 3 -77 25 -23 67 -13 82 20 24 53 -46 100 -85 57z"/>
 <path d="M1748 1478 c-26 -21 -28 -45 -7 -72 24 -31 49 -33 72 -8 46 50 -13 121 -65 80z"/>
 <path d="M1895 1470 c-23 -25 -13 -67 20 -82 53 -24 100 46 57 85 -25 23 -55 21 -77 -3z"/>
 <path d="M2057 1472 c-23 -25 -21 -55 3 -77 25 -23 67 -13 82 20 24 53 -46 100 -85 57z"/>
 <path d="M1427 1312 c-24 -26 -21 -47 8 -70 47 -38 102 8 77 63 -14 31 -61 34 -85 7z"/>
 <path d="M1582 1318 c-16 -16 -15 -63 1 -75 26 -21 46 -21 71 -2 14 11 26 28 26 38 0 40 -69 68 -98 39z"/>
 <path d="M1742 1318 c-21 -21 -14 -66 13 -84 23 -15 27 -15 50 0 17 11 25 26 25 44 0 35 -16 52 -50 52 -14 0 -31 -5 -38 -12z"/>
 <path d="M1896 1311 c-23 -25 -18 -49 15 -73 22 -16 30 -18 48 -9 25 14 38 58 24 80 -15 24 -66 26 -87 2z"/>
 <path d="M2052 1318 c-21 -21 -14 -66 14 -84 24 -16 27 -16 52 3 34 25 39 49 16 74 -19 21 -64 25 -82 7z"/>
 <path d="M1430 1160 c-25 -25 -26 -52 -2 -73 24 -22 55 -21 75 1 23 26 21 58 -5 76 -30 21 -44 20 -68 -4z"/>
 <path d="M1587 1162 c-22 -24 -21 -55 1 -75 24 -22 55 -21 75 1 22 25 21 48 -3 72 -25 25 -52 26 -73 2z"/>
 <path d="M1741 1154 c-19 -25 -19 -45 2 -71 12 -16 59 -17 75 -1 18 18 14 63 -6 81 -26 24 -47 21 -71 -9z"/>
 <path d="M1900 1160 c-24 -24 -25 -38 -4 -68 18 -27 55 -29 77 -4 22 24 21 55 -1 75 -25 22 -48 21 -72 -3z"/>
 <path d="M2057 1162 c-22 -24 -21 -55 1 -75 26 -23 58 -21 76 5 21 30 20 44 -4 68 -25 25 -52 26 -73 2z"/>
 <path d="M1425 1000 c-23 -25 -13 -67 20 -82 53 -24 100 46 57 85 -25 23 -55 21 -77 -3z"/>
 <path d="M1587 1002 c-23 -25 -21 -55 3 -77 25 -23 67 -13 82 20 24 53 -46 100 -85 57z"/>
 <path d="M1743 1008 c-21 -27 -21 -47 -2 -72 11 -14 28 -26 38 -26 40 0 68 69 39 98 -16 16 -63 15 -75 0z"/>
 <path d="M1895 1000 c-23 -25 -13 -67 20 -82 53 -24 100 46 57 85 -25 23 -55 21 -77 -3z"/>
 <path d="M2057 1002 c-23 -25 -21 -55 3 -77 25 -23 67 -13 82 20 24 53 -46 100 -85 57z"/>
 <path d="M1435 848 c-30 -23 -32 -49 -7 -71 46 -42 110 1 84 57 -14 32 -46 38 -77 14z"/>
 <path d="M1603 859 c-26 -9 -41 -55 -26 -78 14 -23 61 -26 84 -5 24 21 24 46 2 66 -28 24 -37 26 -60 17z"/>
 <path d="M1905 848 c-30 -23 -32 -49 -7 -71 46 -42 110 1 84 57 -14 32 -46 38 -77 14z"/>
 <path d="M2070 857 c-19 -10 -25 -20 -25 -47 0 -62 64 -73 99 -17 12 20 1 43 -30 63 -15 11 -24 11 -44 1z"/>
 <path d="M1743 848 c-31 -40 -12 -88 36 -88 34 0 51 17 51 50 0 14 -5 31 -12 38 -16 16 -63 15 -75 0z"/>
 </g>

<g fill="#cb248b" stroke="none">
 <path d="M1413 2965 c-166 -92 -1190 -689 -1205 -702 -16 -14 -17 -69 -15 -772 l2 -756 80 -46 c44 -25 186 -106 315 -181 129 -74 255 -146 280 -160 25 -14 88 -50 140 -80 52 -30 100 -57 105 -59 6 -2 64 -36 130 -75 177 -105 233 -134 262 -134 36 0 66 16 635 346 282 164 549 318 593 344 l80 46 1 763 2 762 -37 23 c-62 39 -1153 662 -1208 690 -68 34 -85 33 -160 -9z m-292 -561 c127 -38 229 -117 296 -228 20 -34 47 -70 61 -81 27 -23 27 -26 12 -183 -9 -98 -8 -115 6 -136 19 -29 5 -66 -25 -66 -12 0 -31 -19 -51 -52 -18 -29 -52 -73 -76 -98 l-44 -46 2 -434 3 -435 475 0 475 0 0 710 0 710 -190 0 -190 0 -5 -95 -5 -95 -85 0 -85 0 -5 95 -5 95 -52 3 c-38 2 -53 7 -53 18 0 12 52 14 355 14 l355 0 -2 -742 -3 -743 -507 -3 -508 -2 -2 432 c-3 378 -5 433 -18 431 -8 -1 -44 -14 -80 -29 -51 -22 -86 -29 -159 -32 -114 -5 -184 8 -272 55 -337 175 -361 655 -44 873 107 74 297 102 426 64z m537 -648 c6 -48 -50 -65 -70 -21 -14 32 5 57 41 53 20 -2 27 -9 29 -32z m152 19 c26 -32 -13 -81 -47 -59 -35 22 -23 74 17 74 10 0 23 -7 30 -15z m160 -5 c16 -31 -4 -62 -38 -58 -28 3 -40 32 -28 64 8 21 54 17 66 -6z m155 -20 c0 -31 -3 -35 -27 -38 -19 -2 -30 3 -38 17 -16 32 4 63 38 59 24 -3 27 -7 27 -38z m-625 -139 c19 -36 -11 -68 -51 -56 -19 6 -27 54 -12 68 13 14 53 6 63 -12z m158 -12 c4 -31 -20 -53 -47 -44 -23 7 -34 31 -25 57 4 15 13 18 37 16 26 -2 33 -8 35 -29z m156 15 c16 -42 -16 -74 -54 -54 -19 10 -27 49 -13 63 13 13 61 7 67 -9z m156 1 c25 -30 -11 -72 -51 -60 -19 6 -27 54 -12 68 12 12 50 7 63 -8z m158 -16 c4 -31 -20 -53 -47 -44 -23 7 -34 31 -25 57 4 15 13 18 37 16 26 -2 33 -8 35 -29z m-634 -135 c19 -19 20 -25 3 -48 -21 -29 -61 -17 -65 18 -5 43 32 61 62 30z m156 2 c21 -26 8 -61 -24 -64 -43 -5 -61 32 -30 62 19 20 38 20 54 2z m155 1 c13 -10 16 -21 11 -41 -6 -24 -11 -27 -39 -24 -25 2 -33 8 -35 27 -3 15 3 30 14 38 22 16 26 16 49 0z m159 -3 c19 -19 20 -25 3 -48 -19 -26 -61 -18 -65 12 -7 44 32 67 62 36z m156 2 c21 -26 8 -61 -24 -64 -43 -5 -61 32 -30 62 19 20 38 20 54 2z m-620 -166 c16 -31 -4 -62 -38 -58 -28 3 -40 32 -28 64 8 21 54 17 66 -6z m148 11 c8 -5 12 -21 10 -37 -3 -32 -38 -45 -64 -24 -40 34 9 90 54 61z m162 -6 c26 -32 -13 -81 -47 -59 -35 22 -23 74 17 74 10 0 23 -7 30 -15z m160 -5 c16 -31 -4 -62 -38 -58 -21 2 -28 9 -30 32 -5 45 47 65 68 26z m144 14 c9 -4 16 -18 16 -34 0 -42 -51 -56 -70 -20 -20 38 12 70 54 54z m-614 -173 c19 -36 -8 -63 -52 -53 -18 3 -26 51 -11 65 13 14 53 6 63 -12z m158 -13 c5 -45 -57 -62 -72 -21 -13 32 4 54 37 51 26 -2 33 -8 35 -30z m156 16 c16 -42 -16 -74 -54 -54 -19 10 -27 49 -13 63 13 13 61 7 67 -9z m156 1 c14 -16 5 -51 -14 -58 -29 -11 -56 4 -56 32 0 15 3 31 7 34 12 12 50 7 63 -8z m158 -17 c5 -45 -57 -62 -72 -21 -13 32 4 54 37 51 26 -2 33 -8 35 -30z m-634 -134 c19 -19 20 -25 3 -48 -21 -29 -61 -17 -65 18 -5 43 32 61 62 30z m156 2 c21 -26 8 -61 -24 -64 -43 -5 -61 32 -30 62 19 20 38 20 54 2z m155 1 c13 -10 16 -21 11 -41 -6 -24 -11 -27 -39 -24 -25 2 -33 8 -35 26 -4 25 13 52 32 52 7 0 20 -6 31 -13z m159 -3 c19 -19 20 -25 3 -48 -21 -29 -61 -17 -65 18 -5 43 32 61 62 30z m156 2 c21 -26 8 -61 -24 -64 -43 -5 -61 32 -30 62 19 20 38 20 54 2z m-620 -166 c20 -38 -12 -70 -54 -54 -16 6 -22 54 -9 67 14 14 53 6 63 -13z m158 -14 c5 -45 -47 -65 -68 -26 -16 31 4 62 38 58 21 -2 28 -9 30 -32z m152 19 c26 -32 -13 -81 -47 -59 -35 22 -23 74 17 74 10 0 23 -7 30 -15z m160 -5 c16 -31 -4 -62 -38 -58 -28 3 -40 32 -28 64 8 21 54 17 66 -6z m158 -14 c5 -45 -47 -65 -68 -26 -16 31 4 62 38 58 21 -2 28 -9 30 -32z"/>
 <path d="M1112 2358 c-20 -25 -63 -180 -53 -192 6 -6 28 -22 49 -34 l40 -22 66 82 c36 46 66 86 66 90 0 8 -108 73 -136 82 -12 4 -26 1 -32 -6z"/>
 <path d="M895 2111 c-74 -33 -135 -122 -135 -197 0 -71 62 -161 135 -195 136 -63 295 42 295 193 -1 157 -157 262 -295 199z m99 -167 c23 -9 20 -51 -4 -59 -27 -8 -40 1 -40 29 0 34 12 42 44 30z"/>
 <path d="M745 1637 c-36 -45 -65 -84 -65 -88 0 -20 134 -93 155 -85 14 5 77 184 70 197 -3 4 -25 19 -50 32 l-45 25 -65 -81z"/>
 </g>

</svg>