<!DOCTYPE svg PUBLIC "-//W3C//DTD SVG 20010904//EN" "http://www.w3.org/TR/2001/REC-SVG-20010904/DTD/svg10.dtd">
<svg version="1.0" xmlns="http://www.w3.org/2000/svg" width="300px" height="300px" viewBox="0 0 3000 3000" preserveAspectRatio="xMidYMid meet"><g fill="#fffedb" stroke="none">
 <path d="M1306 2439 l-26 -31 0 -220 0 -220 -29 -33 -28 -33 -8 -252 -7 -252 -67 64 c-84 82 -119 108 -144 108 -13 0 -77 -56 -174 -152 -132 -131 -153 -156 -153 -183 0 -51 61 -95 103 -74 12 6 68 57 125 112 l102 102 104 -104 104 -104 101 -10 c62 -7 105 -7 111 -1 5 5 23 117 40 249 17 132 32 244 33 249 2 5 17 -102 34 -238 17 -136 35 -252 41 -258 8 -8 41 -8 109 -1 l99 10 104 100 104 101 26 -18 c14 -10 56 -50 95 -89 l70 -71 -135 -135 c-115 -115 -133 -138 -124 -153 6 -9 18 -18 26 -20 8 -1 78 58 155 133 78 74 146 135 151 135 6 0 24 12 41 26 23 19 31 34 31 58 0 28 -19 51 -153 184 -122 121 -159 152 -181 152 -20 0 -48 -21 -115 -85 -48 -47 -91 -82 -94 -78 -4 3 -7 116 -7 251 l0 244 -35 35 -35 35 0 227 c0 292 16 271 -207 271 l-161 0 -26 -31z"/>
 <path d="M1426 1075 c-45 -16 -99 -65 -121 -111 -17 -37 -20 -120 -4 -161 15 -40 67 -92 114 -114 167 -77 343 107 266 277 -32 70 -117 125 -191 124 -14 -1 -42 -7 -64 -15z"/>
 </g>

<g fill="#cb248b" stroke="none">
 <path d="M1370 2941 c-58 -32 -267 -152 -465 -268 -198 -115 -440 -256 -537 -313 l-178 -103 0 -757 c0 -708 1 -758 18 -772 30 -26 1225 -705 1265 -719 28 -10 45 -10 66 -3 23 9 572 325 1131 651 l135 79 3 762 2 762 -37 23 c-46 29 -1118 644 -1197 686 -31 17 -67 31 -79 31 -12 0 -70 -26 -127 -59z m311 -521 c4 -14 7 -122 8 -240 l1 -214 33 -34 32 -33 3 -247 c1 -136 5 -253 7 -260 3 -9 38 17 98 72 131 122 124 123 299 -52 134 -134 138 -139 138 -180 0 -40 -3 -44 -35 -58 -20 -8 -99 -76 -175 -150 -77 -75 -145 -134 -152 -132 -30 10 -11 39 113 164 l133 134 -94 95 c-52 52 -99 95 -105 95 -5 0 -55 -45 -111 -101 l-101 -101 -99 -5 -100 -6 -32 253 c-18 139 -35 257 -38 262 -16 26 -28 -29 -58 -259 l-31 -248 -40 -3 c-22 -2 -68 -1 -102 3 l-63 7 -105 100 -105 100 -101 -96 c-110 -106 -134 -122 -174 -112 -28 7 -49 48 -41 81 3 11 68 82 144 158 174 172 166 171 293 52 51 -46 96 -82 100 -79 5 3 9 117 9 255 l0 249 35 39 35 38 0 222 c0 136 4 230 10 242 10 18 21 19 188 17 l176 -3 7 -25z m-74 -1387 c56 -45 76 -86 76 -153 0 -114 -76 -190 -192 -190 -127 0 -211 107 -183 231 24 103 91 153 199 147 52 -3 69 -9 100 -35z"/>
 </g>

</svg>