<!DOCTYPE svg PUBLIC "-//W3C//DTD SVG 20010904//EN" "http://www.w3.org/TR/2001/REC-SVG-20010904/DTD/svg10.dtd">
<svg version="1.0" xmlns="http://www.w3.org/2000/svg" width="300px" height="300px" viewBox="0 0 3000 3000" preserveAspectRatio="xMidYMid meet"><g fill="#fffedb" stroke="none">
 <path d="M1170 2369 c-219 -28 -375 -93 -417 -172 -24 -45 -21 -152 5 -203 45 -86 205 -199 402 -284 112 -48 140 -74 140 -132 0 -33 -10 -56 -49 -112 -91 -133 -134 -237 -151 -370 -36 -269 90 -465 333 -516 97 -20 234 10 321 69 111 77 166 197 166 367 0 156 -40 278 -141 427 -52 76 -61 96 -63 137 -1 62 15 80 113 121 234 97 379 198 430 297 25 49 28 149 7 190 -53 101 -220 164 -479 182 -160 11 -528 11 -617 -1z"/>
 </g>

<g fill="#cb248b" stroke="none">
 <path d="M1385 2957 c-100 -54 -1106 -630 -1158 -663 l-37 -24 0 -769 0 -768 142 -83 c840 -488 1072 -621 1105 -635 55 -23 92 -18 173 24 84 43 1178 668 1198 683 9 8 12 172 10 780 l-3 770 -370 215 c-508 295 -845 487 -878 501 -51 22 -97 14 -182 -31z m280 -597 c449 -18 621 -96 602 -275 -14 -141 -135 -243 -432 -366 -44 -18 -93 -46 -109 -61 -26 -26 -28 -34 -24 -81 4 -44 13 -65 61 -134 92 -131 130 -235 143 -388 7 -94 -11 -197 -49 -272 -127 -250 -556 -256 -692 -10 -102 185 -61 467 101 694 54 75 63 114 36 162 -20 37 -35 46 -212 130 -169 80 -279 162 -316 234 -24 46 -30 144 -11 189 31 75 158 133 356 163 168 26 240 28 546 15z"/>
 </g>

</svg>