<!DOCTYPE svg PUBLIC "-//W3C//DTD SVG 20010904//EN" "http://www.w3.org/TR/2001/REC-SVG-20010904/DTD/svg10.dtd">
<svg version="1.0" xmlns="http://www.w3.org/2000/svg" width="300px" height="300px" viewBox="0 0 3000 3000" preserveAspectRatio="xMidYMid meet"><g fill="#fffedb" stroke="none">
 <path d="M1450 2990 c-8 -5 -36 -21 -63 -35 -26 -15 -44 -31 -41 -36 5 -9 85 30 139 67 19 14 19 14 0 13 -11 0 -27 -4 -35 -9z"/>
 <path d="M1531 2981 c39 -30 67 -42 74 -31 3 5 -12 18 -34 30 -50 25 -72 26 -40 1z"/>
 <path d="M1615 2941 c-7 -13 102 -74 116 -65 8 4 9 3 5 -4 -4 -6 6 -18 23 -27 29 -15 54 -5 29 12 -67 43 -168 92 -173 84z"/>
 <path d="M1280 2894 c-74 -42 -91 -54 -85 -64 3 -5 37 9 75 32 39 22 68 44 64 49 -7 11 -2 13 -54 -17z"/>
 <path d="M1805 2830 c-3 -5 8 -16 24 -25 18 -9 32 -11 36 -5 3 5 -8 16 -24 25 -18 9 -32 11 -36 5z"/>
 <path d="M1127 2804 c-38 -20 -24 -38 14 -19 16 9 27 20 24 25 -7 12 -4 13 -38 -6z"/>
 <path d="M1875 2790 c-7 -12 32 -33 45 -25 6 4 8 10 5 14 -7 13 -44 20 -50 11z"/>
 <path d="M1045 2756 c-11 -8 -14 -16 -8 -19 6 -4 18 0 28 7 11 8 14 16 8 19 -6 4 -18 0 -28 -7z"/>
 <path d="M1945 2750 c-7 -11 35 -31 49 -22 5 3 1 11 -9 19 -22 16 -32 16 -40 3z"/>
 <path d="M962 2708 c-17 -11 -30 -24 -26 -29 5 -9 58 14 69 30 11 19 -11 18 -43 -1z"/>
 <path d="M2006 2721 c-6 -10 10 -25 36 -34 31 -11 30 12 -1 28 -16 8 -32 11 -35 6z"/>
 <path d="M877 2659 c-21 -11 -35 -24 -32 -29 4 -6 23 -1 46 10 22 12 37 25 34 30 -7 12 -2 13 -48 -11z"/>
 <path d="M2145 2641 c-3 -6 3 -15 14 -21 12 -6 22 -6 26 -1 3 6 -3 15 -14 21 -12 6 -22 6 -26 1z"/>
 <path d="M797 2614 c-38 -20 -24 -38 14 -19 16 9 27 20 24 25 -7 12 -4 13 -38 -6z"/>
 <path d="M2195 2611 c-3 -6 3 -15 14 -21 12 -6 22 -6 26 -1 3 6 -3 15 -14 21 -12 6 -22 6 -26 1z"/>
 <path d="M2265 2570 c-3 -5 8 -16 24 -25 18 -9 32 -11 36 -5 3 5 -8 16 -24 25 -18 9 -32 11 -36 5z"/>
 <path d="M705 2556 c-11 -8 -14 -16 -8 -19 6 -4 18 0 28 7 11 8 14 16 8 19 -6 4 -18 0 -28 -7z"/>
 <path d="M632 2518 c-17 -11 -30 -24 -26 -29 5 -9 58 14 69 30 11 19 -11 18 -43 -1z"/>
 <path d="M2335 2531 c-3 -6 3 -15 14 -21 12 -6 22 -6 26 -1 3 6 -3 15 -14 21 -12 6 -22 6 -26 1z"/>
 <path d="M2385 2500 c-3 -5 8 -16 24 -25 18 -9 32 -11 36 -5 3 5 -8 16 -24 25 -18 9 -32 11 -36 5z"/>
 <path d="M2455 2461 c-3 -6 3 -15 14 -21 12 -6 22 -6 26 -1 3 6 -3 15 -14 21 -12 6 -22 6 -26 1z"/>
 <path d="M1429 2437 c-18 -12 -45 -40 -60 -62 -76 -115 -461 -801 -480 -856 -30 -87 -37 -257 -15 -351 55 -235 249 -434 481 -493 96 -24 258 -20 352 10 182 57 330 188 409 360 41 90 54 152 54 270 0 176 -10 199 -273 660 -126 220 -241 413 -255 428 -39 41 -74 57 -130 57 -34 0 -59 -7 -83 -23z m187 -911 c154 -71 182 -279 53 -389 -105 -91 -268 -69 -346 46 -133 198 76 444 293 343z"/>
 <path d="M2505 2430 c-3 -5 8 -16 24 -25 18 -9 32 -11 36 -5 3 5 -8 16 -24 25 -18 9 -32 11 -36 5z"/>
 <path d="M457 2414 c-38 -20 -24 -38 14 -19 16 9 27 20 24 25 -7 12 -4 13 -38 -6z"/>
 <path d="M2575 2390 c-3 -5 8 -16 24 -25 18 -9 32 -11 36 -5 3 5 -8 16 -24 25 -18 9 -32 11 -36 5z"/>
 <path d="M367 2364 c-15 -8 -25 -19 -22 -24 9 -14 17 -12 44 9 30 23 15 34 -22 15z"/>
 <path d="M2645 2351 c-3 -6 3 -15 14 -21 12 -6 22 -6 26 -1 3 6 -3 15 -14 21 -12 6 -22 6 -26 1z"/>
 <path d="M292 2318 c-18 -11 -29 -24 -26 -29 5 -9 58 14 69 30 11 19 -12 19 -43 -1z"/>
 <path d="M2695 2320 c-3 -5 8 -16 24 -25 18 -9 32 -11 36 -5 3 5 -8 16 -24 25 -18 9 -32 11 -36 5z"/>
 <path d="M2765 2280 c-3 -4 6 -15 20 -24 23 -15 43 -7 31 13 -8 12 -45 21 -51 11z"/>
 <path d="M2795 1878 c-9 -24 -1 -143 10 -143 13 0 19 135 6 148 -7 7 -12 5 -16 -5z"/>
 <path d="M198 883 c-8 -15 -3 -53 7 -53 11 0 15 49 4 56 -4 2 -9 1 -11 -3z"/>
 <path d="M235 721 c-3 -6 3 -15 14 -21 12 -6 22 -6 26 -1 3 6 -3 15 -14 21 -12 6 -22 6 -26 1z"/>
 <path d="M2707 699 c-21 -11 -35 -24 -32 -29 4 -6 23 -1 46 10 22 12 37 25 34 30 -7 12 -2 13 -48 -11z"/>
 <path d="M306 681 c-3 -5 13 -21 37 -34 54 -32 62 -35 64 -22 2 14 -94 68 -101 56z"/>
 <path d="M425 611 c-3 -6 3 -15 14 -21 12 -6 22 -6 26 -1 3 6 -3 15 -14 21 -12 6 -22 6 -26 1z"/>
 <path d="M2531 596 c-7 -8 -8 -17 -3 -20 6 -3 15 1 21 8 7 8 8 17 3 20 -6 3 -15 -1 -21 -8z"/>
 <path d="M495 571 c-3 -6 3 -15 14 -21 12 -6 22 -6 26 -1 3 6 -3 15 -14 21 -12 6 -22 6 -26 1z"/>
 <path d="M2445 546 c-11 -8 -14 -16 -8 -19 6 -4 18 0 28 7 11 8 14 16 8 19 -6 4 -18 0 -28 -7z"/>
 <path d="M545 540 c-3 -5 8 -16 24 -25 30 -15 52 -6 28 12 -20 16 -46 23 -52 13z"/>
 <path d="M2375 506 c-11 -8 -14 -16 -8 -19 6 -4 18 0 28 7 11 8 14 16 8 19 -6 4 -18 0 -28 -7z"/>
 <path d="M616 501 c-7 -11 115 -82 127 -74 9 6 -11 33 -25 33 -5 0 -26 11 -46 25 -40 27 -48 30 -56 16z"/>
 <path d="M2287 454 c-38 -20 -24 -38 14 -19 16 9 27 20 24 25 -7 12 -4 13 -38 -6z"/>
 <path d="M756 421 c-3 -5 21 -23 53 -40 76 -39 90 -23 16 18 -61 34 -62 35 -69 22z"/>
 <path d="M2217 414 c-38 -20 -24 -38 14 -19 16 9 27 20 24 25 -7 12 -4 13 -38 -6z"/>
 <path d="M2109 352 c-13 -12 -18 -21 -12 -25 6 -4 21 1 34 11 13 12 18 21 12 25 -6 4 -21 -1 -34 -11z"/>
 <path d="M885 351 c-3 -6 3 -15 14 -21 12 -6 22 -6 26 -1 3 6 -3 15 -14 21 -12 6 -22 6 -26 1z"/>
 <path d="M935 320 c-3 -5 8 -16 24 -25 18 -9 32 -11 36 -5 3 5 -8 16 -24 25 -18 9 -32 11 -36 5z"/>
 <path d="M1005 281 c-3 -6 3 -15 14 -21 12 -6 22 -6 26 -1 3 6 -3 15 -14 21 -12 6 -22 6 -26 1z"/>
 <path d="M1947 259 c-21 -11 -35 -24 -32 -29 4 -6 23 -1 46 10 22 12 37 25 34 30 -7 12 -2 13 -48 -11z"/>
 <path d="M1076 241 c-3 -5 13 -21 37 -34 54 -32 62 -35 64 -22 2 14 -94 68 -101 56z"/>
 <path d="M1195 170 c-3 -5 8 -16 24 -25 18 -9 32 -11 36 -5 3 5 -8 16 -24 25 -18 9 -32 11 -36 5z"/>
 <path d="M1787 164 c-38 -20 -24 -38 14 -19 16 9 27 20 24 25 -7 12 -4 13 -38 -6z"/>
 <path d="M1265 131 c-3 -6 3 -15 14 -21 12 -6 22 -6 26 -1 3 6 -3 15 -14 21 -12 6 -22 6 -26 1z"/>
 <path d="M1685 106 c-11 -8 -14 -16 -8 -19 6 -4 18 0 28 7 11 8 14 16 8 19 -6 4 -18 0 -28 -7z"/>
 <path d="M1315 100 c-7 -12 160 -102 181 -98 10 2 -16 22 -62 49 -91 53 -111 62 -119 49z"/>
 <path d="M1612 62 c-13 -10 -20 -21 -16 -24 10 -10 66 21 59 32 -9 14 -17 12 -43 -8z"/>
 <path d="M1535 14 c-13 -10 -15 -14 -4 -14 20 0 43 16 32 23 -4 3 -17 -1 -28 -9z"/>
 </g>

<g fill="#cb248b" stroke="none">
 <path d="M1428 2967 c-74 -41 -335 -193 -462 -270 -55 -32 -105 -60 -112 -61 -7 -1 -22 -10 -33 -20 -10 -10 -25 -18 -33 -20 -7 -1 -27 -10 -43 -21 -51 -34 -177 -109 -245 -146 -16 -9 -37 -22 -45 -29 -8 -7 -15 -9 -15 -6 0 4 -15 -4 -32 -17 -18 -14 -57 -38 -86 -53 -29 -16 -69 -38 -90 -50 l-37 -20 0 -751 c0 -725 1 -752 19 -772 11 -12 21 -19 24 -16 3 2 19 -6 36 -18 17 -12 33 -22 36 -22 13 -2 77 -40 97 -58 13 -11 23 -17 23 -13 0 4 15 -3 32 -16 18 -13 35 -23 38 -23 6 0 91 -48 233 -132 59 -34 110 -63 112 -63 6 0 102 -55 143 -82 15 -10 34 -21 42 -24 8 -4 23 -14 33 -22 9 -8 17 -12 17 -9 0 8 148 -78 173 -100 9 -9 17 -13 17 -10 0 3 38 -16 85 -43 139 -80 150 -84 188 -69 17 7 44 21 59 31 14 10 53 32 85 49 32 17 76 41 98 55 22 13 51 29 65 36 14 7 39 23 56 35 17 13 36 23 41 23 6 0 16 7 23 15 7 9 15 13 18 11 3 -3 19 5 36 17 17 12 33 22 36 22 3 0 19 9 35 20 17 12 44 27 60 35 17 8 44 23 60 35 17 11 32 20 35 20 3 0 19 9 35 21 17 11 37 24 45 27 8 4 33 18 55 32 22 14 55 32 73 41 18 8 56 31 83 50 28 19 60 39 73 43 12 5 43 23 68 40 25 17 66 40 92 51 l47 20 -4 747 c-2 523 -7 754 -14 769 -7 11 -36 33 -65 48 -29 15 -66 36 -83 46 -16 11 -48 28 -70 39 -22 12 -53 30 -70 41 -16 11 -39 24 -50 30 -36 19 -63 36 -76 47 -8 6 -17 12 -22 12 -12 1 -69 32 -102 55 -16 11 -33 21 -36 21 -3 0 -29 14 -58 32 -28 18 -53 33 -56 33 -3 0 -55 30 -117 67 -62 36 -142 81 -178 101 -36 19 -76 42 -90 51 -46 29 -65 40 -105 60 -22 12 -56 30 -75 41 -44 26 -53 25 -122 -13z m159 -536 c36 -17 50 -34 111 -138 222 -377 411 -718 431 -779 32 -96 39 -236 17 -338 -69 -308 -348 -520 -661 -503 -208 11 -392 113 -499 276 -115 174 -144 379 -81 567 28 83 447 824 499 883 46 51 113 63 183 32z"/>
 <path d="M1465 1561 c-48 -12 -87 -36 -127 -78 -48 -49 -68 -99 -68 -168 0 -69 20 -119 68 -168 94 -97 223 -110 326 -32 114 88 136 236 52 347 -57 75 -171 119 -251 99z"/>
 </g>

</svg>