<!DOCTYPE svg PUBLIC "-//W3C//DTD SVG 20010904//EN" "http://www.w3.org/TR/2001/REC-SVG-20010904/DTD/svg10.dtd">
<svg version="1.0" xmlns="http://www.w3.org/2000/svg" width="242px" height="242px" viewBox="0 0 2420 2420" preserveAspectRatio="xMidYMid meet"><g fill="#fffedb" stroke="none">
 <path d="M1151 2401 c-7 -5 -9 -11 -4 -14 6 -4 19 0 29 8 15 11 16 14 4 15 -8 0 -21 -4 -29 -9z"/>
 <path d="M1275 2391 c-3 -6 3 -15 14 -21 12 -6 22 -6 26 -1 3 6 -3 15 -14 21 -12 6 -22 6 -26 1z"/>
 <path d="M1085 2366 c-11 -8 -14 -16 -8 -19 6 -4 18 0 28 7 11 8 14 16 8 19 -6 4 -18 0 -28 -7z"/>
 <path d="M1345 2351 c-3 -6 3 -15 14 -21 12 -6 22 -6 26 -1 3 6 -3 15 -14 21 -12 6 -22 6 -26 1z"/>
 <path d="M1015 2326 c-11 -8 -14 -16 -8 -19 6 -4 18 0 28 7 11 8 14 16 8 19 -6 4 -18 0 -28 -7z"/>
 <path d="M1415 2311 c-3 -6 3 -15 14 -21 12 -6 22 -6 26 -1 3 6 -3 15 -14 21 -12 6 -22 6 -26 1z"/>
 <path d="M965 2296 c-11 -8 -14 -16 -8 -19 6 -4 18 0 28 7 11 8 14 16 8 19 -6 4 -18 0 -28 -7z"/>
 <path d="M1485 2271 c-3 -6 3 -15 14 -21 12 -6 22 -6 26 -1 3 6 -3 15 -14 21 -12 6 -22 6 -26 1z"/>
 <path d="M895 2256 c-11 -8 -14 -16 -8 -19 6 -4 18 0 28 7 11 8 14 16 8 19 -6 4 -18 0 -28 -7z"/>
 <path d="M1555 2231 c-3 -6 3 -15 14 -21 12 -6 22 -6 26 -1 3 6 -3 15 -14 21 -12 6 -22 6 -26 1z"/>
 <path d="M825 2216 c-11 -8 -14 -16 -8 -19 6 -4 18 0 28 7 11 8 14 16 8 19 -6 4 -18 0 -28 -7z"/>
 <path d="M1625 2191 c-3 -6 3 -15 14 -21 12 -6 22 -6 26 -1 3 6 -3 15 -14 21 -12 6 -22 6 -26 1z"/>
 <path d="M705 2146 c-11 -8 -14 -16 -8 -19 6 -4 18 0 28 7 11 8 14 16 8 19 -6 4 -18 0 -28 -7z"/>
 <path d="M1695 2151 c-3 -6 3 -15 14 -21 12 -6 22 -6 26 -1 3 6 -3 15 -14 21 -12 6 -22 6 -26 1z"/>
 <path d="M635 2106 c-11 -8 -14 -16 -8 -19 6 -4 18 0 28 7 11 8 14 16 8 19 -6 4 -18 0 -28 -7z"/>
 <path d="M1765 2111 c-3 -6 3 -15 14 -21 12 -6 22 -6 26 -1 3 6 -3 15 -14 21 -12 6 -22 6 -26 1z"/>
 <path d="M585 2076 c-11 -8 -14 -16 -8 -19 6 -4 18 0 28 7 11 8 14 16 8 19 -6 4 -18 0 -28 -7z"/>
 <path d="M1835 2071 c-3 -6 3 -15 14 -21 12 -6 22 -6 26 -1 3 6 -3 15 -14 21 -12 6 -22 6 -26 1z"/>
 <path d="M515 2036 c-11 -8 -14 -16 -8 -19 6 -4 18 0 28 7 11 8 14 16 8 19 -6 4 -18 0 -28 -7z"/>
 <path d="M465 2006 c-11 -8 -14 -16 -8 -19 6 -4 18 0 28 7 11 8 14 16 8 19 -6 4 -18 0 -28 -7z"/>
 <path d="M395 1966 c-11 -8 -14 -16 -8 -19 6 -4 18 0 28 7 11 8 14 16 8 19 -6 4 -18 0 -28 -7z"/>
 <path d="M874 1925 c-8 -20 4 -66 23 -87 13 -15 33 -18 110 -18 l93 0 0 -55 c0 -44 -4 -57 -17 -61 -63 -20 -167 -80 -210 -122 -106 -102 -153 -205 -161 -350 -4 -87 -3 -95 19 -118 28 -30 41 -30 72 -1 21 19 26 37 35 119 8 78 17 110 43 158 39 73 102 133 177 168 50 24 70 27 157 27 93 0 105 -2 167 -33 130 -64 204 -179 215 -332 8 -109 44 -152 98 -116 31 20 38 70 25 171 -14 114 -63 210 -150 296 -64 64 -173 129 -214 129 -13 0 -16 12 -16 60 l0 60 88 0 c80 0 91 2 111 24 16 17 22 33 19 57 l-3 34 -338 3 c-294 2 -338 0 -343 -13z"/>
 <path d="M2095 1921 c-3 -6 3 -15 14 -21 12 -6 22 -6 26 -1 3 6 -3 15 -14 21 -12 6 -22 6 -26 1z"/>
 <path d="M275 1896 c-11 -8 -14 -16 -8 -19 6 -4 18 0 28 7 11 8 14 16 8 19 -6 4 -18 0 -28 -7z"/>
 <path d="M2215 1851 c-3 -6 3 -15 14 -21 12 -6 22 -6 26 -1 3 6 -3 15 -14 21 -12 6 -22 6 -26 1z"/>
 <path d="M2255 1808 c-9 -24 -1 -188 10 -191 14 -3 19 183 6 196 -7 7 -12 5 -16 -5z"/>
 <path d="M1133 1482 c-93 -33 -158 -97 -187 -185 -13 -39 -16 -97 -16 -317 0 -261 1 -271 23 -322 27 -61 90 -128 145 -154 53 -26 149 -30 210 -10 67 23 135 84 166 151 l26 54 0 288 c0 281 -1 289 -24 338 -26 56 -99 129 -151 151 -58 24 -134 27 -192 6z m247 -466 c0 -16 -21 -26 -53 -26 -53 0 -78 -74 -35 -104 12 -9 37 -16 55 -16 26 0 33 -4 33 -19 0 -13 -10 -20 -36 -24 -47 -8 -74 -33 -74 -68 0 -32 31 -59 67 -59 31 0 29 -10 -9 -47 -65 -63 -162 -61 -228 5 l-35 36 35 7 c88 19 87 111 -1 125 -29 5 -39 11 -39 25 0 15 7 19 34 19 25 0 40 7 55 26 12 15 21 32 21 38 0 25 -28 49 -66 55 -26 4 -40 12 -42 24 -3 16 10 17 157 17 131 0 161 -3 161 -14z"/>
 <path d="M175 591 c-3 -6 3 -15 14 -21 12 -6 22 -6 26 -1 3 6 -3 15 -14 21 -12 6 -22 6 -26 1z"/>
 <path d="M2185 566 c-11 -8 -14 -16 -8 -19 6 -4 18 0 28 7 11 8 14 16 8 19 -6 4 -18 0 -28 -7z"/>
 <path d="M295 521 c-3 -6 3 -15 14 -21 12 -6 22 -6 26 -1 3 6 -3 15 -14 21 -12 6 -22 6 -26 1z"/>
 <path d="M2065 496 c-11 -8 -14 -16 -8 -19 6 -4 18 0 28 7 11 8 14 16 8 19 -6 4 -18 0 -28 -7z"/>
 <path d="M365 481 c-3 -6 3 -15 14 -21 12 -6 22 -6 26 -1 3 6 -3 15 -14 21 -12 6 -22 6 -26 1z"/>
 <path d="M435 441 c-3 -6 3 -15 14 -21 12 -6 22 -6 26 -1 3 6 -3 15 -14 21 -12 6 -22 6 -26 1z"/>
 <path d="M1945 426 c-11 -8 -14 -16 -8 -19 6 -4 18 0 28 7 11 8 14 16 8 19 -6 4 -18 0 -28 -7z"/>
 <path d="M505 401 c-3 -6 3 -15 14 -21 12 -6 22 -6 26 -1 3 6 -3 15 -14 21 -12 6 -22 6 -26 1z"/>
 <path d="M575 361 c-3 -6 3 -15 14 -21 12 -6 22 -6 26 -1 3 6 -3 15 -14 21 -12 6 -22 6 -26 1z"/>
 <path d="M1825 356 c-11 -8 -14 -16 -8 -19 6 -4 18 0 28 7 11 8 14 16 8 19 -6 4 -18 0 -28 -7z"/>
 <path d="M645 321 c-3 -6 3 -15 14 -21 12 -6 22 -6 26 -1 3 6 -3 15 -14 21 -12 6 -22 6 -26 1z"/>
 <path d="M1755 316 c-11 -8 -14 -16 -8 -19 6 -4 18 0 28 7 11 8 14 16 8 19 -6 4 -18 0 -28 -7z"/>
 <path d="M1705 286 c-11 -8 -14 -16 -8 -19 6 -4 18 0 28 7 11 8 14 16 8 19 -6 4 -18 0 -28 -7z"/>
 <path d="M715 281 c-3 -6 3 -15 14 -21 12 -6 22 -6 26 -1 3 6 -3 15 -14 21 -12 6 -22 6 -26 1z"/>
 <path d="M785 241 c-3 -6 3 -15 14 -21 12 -6 22 -6 26 -1 3 6 -3 15 -14 21 -12 6 -22 6 -26 1z"/>
 <path d="M855 201 c-3 -6 3 -15 14 -21 12 -6 22 -6 26 -1 3 6 -3 15 -14 21 -12 6 -22 6 -26 1z"/>
 <path d="M1515 176 c-11 -8 -14 -16 -8 -19 6 -4 18 0 28 7 11 8 14 16 8 19 -6 4 -18 0 -28 -7z"/>
 <path d="M925 161 c-3 -6 3 -15 14 -21 12 -6 22 -6 26 -1 3 6 -3 15 -14 21 -12 6 -22 6 -26 1z"/>
 <path d="M995 121 c-3 -6 3 -15 14 -21 12 -6 22 -6 26 -1 3 6 -3 15 -14 21 -12 6 -22 6 -26 1z"/>
 <path d="M1395 106 c-11 -8 -14 -16 -8 -19 6 -4 18 0 28 7 11 8 14 16 8 19 -6 4 -18 0 -28 -7z"/>
 <path d="M1065 81 c-3 -6 3 -15 14 -21 12 -6 22 -6 26 -1 3 6 -3 15 -14 21 -12 6 -22 6 -26 1z"/>
 <path d="M1135 40 c-3 -6 6 -15 21 -20 41 -16 54 -6 17 13 -20 11 -34 13 -38 7z"/>
 <path d="M1274 35 c-18 -14 -18 -14 3 -15 23 0 39 15 25 24 -5 3 -18 -1 -28 -9z"/>
 </g>

<g fill="#cb248b" stroke="none">
 <path d="M1004 2311 c-104 -60 -335 -194 -514 -298 l-325 -189 -3 -612 -2 -612 37 -24 c79 -52 987 -567 1009 -572 12 -3 37 2 55 11 65 33 984 568 1002 583 16 14 17 51 11 616 -4 364 -11 606 -16 613 -6 7 -33 25 -62 41 -28 16 -235 134 -461 264 -429 246 -505 288 -528 288 -8 0 -99 -49 -203 -109z m534 -423 l-3 -43 -105 -10 -105 -10 0 -64 0 -63 63 -24 c200 -75 322 -256 322 -478 0 -66 -11 -86 -46 -86 -33 0 -41 17 -52 118 -20 165 -91 271 -230 339 -71 36 -82 38 -166 38 -80 -1 -99 -4 -157 -31 -139 -66 -223 -189 -238 -351 -4 -49 -11 -95 -15 -102 -4 -6 -20 -11 -36 -11 -44 0 -54 28 -46 123 16 196 113 342 278 422 37 18 76 35 88 38 19 5 21 12 18 69 l-3 63 -100 9 c-55 5 -103 14 -107 20 -4 6 -8 26 -8 44 l0 32 326 0 325 0 -3 -42z m-227 -423 c62 -21 109 -63 144 -126 l30 -54 0 -295 c0 -288 -1 -296 -23 -342 -27 -54 -88 -113 -141 -136 -56 -24 -165 -21 -223 7 -55 27 -103 77 -129 137 -17 37 -19 72 -20 331 -1 306 0 308 50 386 57 89 198 131 312 92z"/>
 <path d="M1044 1036 c-13 -33 1 -51 41 -56 54 -8 65 -16 65 -50 0 -34 -6 -39 -62 -48 -39 -7 -43 -10 -43 -37 0 -28 3 -30 40 -33 47 -4 65 -17 65 -46 0 -28 -18 -46 -46 -46 -12 0 -27 -7 -34 -15 -11 -13 -8 -21 21 -51 44 -46 79 -64 124 -64 50 0 100 25 136 69 27 33 28 37 12 49 -9 6 -27 12 -39 12 -32 0 -49 26 -38 58 8 23 17 28 54 32 42 5 45 7 45 35 0 26 -4 30 -39 37 -46 10 -66 24 -66 47 0 30 18 44 62 50 40 6 43 8 43 36 l0 30 -168 3 c-140 2 -168 0 -173 -12z"/>
 </g>

</svg>