<?xml version="1.0"?>
<svg width="2000" height="2000" xmlns="http://www.w3.org/2000/svg" xmlns:svg="http://www.w3.org/2000/svg" preserveAspectRatio="xMidYMid meet">
 <metadata id="metadata7417">image/svg+xml</metadata>

 <g class="layer">
  <title>Layer 1</title>
  <g display="inline" fill="#fffddb" id="g7383">
   <g id="g8013" stroke-width="1.25786" transform="matrix(0.795,0,0,0.795,-230.7498,-299.74815)">
    <path d="m1138.0762,569.82227c-132.105,18.87116 -232.53114,121.19167 -345.61516,184.01945c-152.98544,105.88675 -319.37214,195.36797 -457.97726,320.24288c-76.82934,83.7973 -4.97936,190.5978 42.47711,268.511c59.8666,89.4097 110.57867,190.6269 195.27348,258.945c109.31765,57.6957 212.82672,-42.5796 303.66079,-92.2793c154.25544,-96.6418 305.67084,-197.693 456.66734,-299.3218c-25.1041,116.4319 -33.2261,234.3455 85.143,301.4752c55.643,56.4948 -124.289,29.2892 -170.0909,54.7104c-304.10061,63.1699 -523.48093,399.0074 -436.35995,702.0489c62.18129,256.5493 322.77835,451.6819 587.71525,430.2037c224.3121,0.191 418.3675,-170.7391 506.6033,-367.3972c68.0294,-180.2691 33.2625,-388.2047 -74.2894,-545.8736c-25.5478,-58.8116 -143.2214,-202.673 -13.3843,-118.0417c196.7648,87.1193 388.4846,188.9587 590.2521,263.0233c90.617,-44.2706 104.2077,-171.3111 157.5113,-251.8043c75.69,-170.4365 169.0236,-334.2404 229.5468,-510.6684c8.1717,-124.4202 -159.3449,-124.7494 -237.1376,-181.85699c-279.7807,-131.82422 -560.1186,-262.99824 -844.6707,-384.16387c-90.3723,11.26378 -103.649,136.21336 -147.7852,202.85358c-33.6161,31.14565 -54.2411,211.46728 -95.428,142.50852c-83.2864,-116.47813 -144.3892,-252.54187 -251.3712,-349.81275c-23.1515,-17.19378 -51.7254,-27.70294 -80.7408,-27.32202z" id="path7347" stroke-width="1.25786"/>
   </g>
   <g id="g8009" stroke-width="1.25786" transform="matrix(0.795,0,0,0.795,205,205)"/>
   <g id="g8002" stroke-width="1.25786" transform="matrix(0.795,0,0,0.795,205,205)"/>
  </g>
  <g display="inline" fill="#ba478f" id="g8123" stroke-width="1.25786" transform="matrix(0.795,0,0,0.795,-231.25286,-299.24783)">
   <g fill="#ba478f" id="g8103" stroke-width="1.25786">
    <path d="m1231,2644c-137,-37 -279,-152 -340,-275c-103,-210 -67,-442 96,-611c210,-217 543,-221 753,-9c108,109 160,233 160,381c0,151 -44,254 -160,371c-78,79 -159,127 -250,148c-64,15 -195,12 -259,-5zm-74,-212l52,-77l-33,-34l-34,-33l-63,42c-111,74 -107,66 -47,127c29,29 57,53 63,53c5,-1 33,-35 62,-78zm326,-138c88,-61 112,-175 57,-270c-62,-109 -216,-131 -314,-45c-50,44 -72,157 -45,228c42,112 200,158 302,87zm262,-435c8,-12 -82,-109 -102,-109c-7,0 -35,34 -64,76l-51,76l32,33l33,34l73,-49c40,-28 76,-55 79,-61z" fill="#ba478f" id="path8099" stroke-width="1.25786"/>
    <path d="m1337,2162c-32,-35 -15,-82 28,-82c23,0 55,28 55,48c0,16 -37,52 -53,52c-8,0 -21,-8 -30,-18z" fill="#ba478f" id="path8101" stroke-width="1.25786"/>
   </g>
   <g fill="#ba478f" id="g8115" stroke-width="1.25786">
    <path d="m2081,1745c-581,-269 -726,-340 -729,-357c-2,-8 42,-112 96,-229c55,-118 114,-248 132,-289c56,-128 110,-230 122,-230c11,0 556,247 789,358c68,33 152,72 186,87c109,48 110,29 -18,302c-213,453 -238,503 -251,503c-7,0 -154,-65 -327,-145zm424,-170c97,-208 185,-402 185,-408c0,-4 -131,-66 -405,-193c-126,-59 -301,-140 -388,-180c-87,-41 -162,-74 -166,-74c-4,0 -31,51 -60,113c-162,341 -249,532 -246,537c2,4 33,19 68,34l63,27l70,-41c50,-30 76,-40 96,-36c27,5 474,210 494,227c6,5 16,47 23,93l13,84l66,31c37,17 70,27 73,23c4,-4 55,-110 114,-237zm-328,104c-3,-23 -11,-47 -19,-54c-7,-7 -111,-58 -232,-114l-219,-102l-39,26c-22,15 -38,28 -36,31c7,7 532,252 542,253c5,1 6,-18 3,-40z" fill="#ba478f" id="path8105" stroke-width="1.25786"/>
    <path d="m2283,1511c-88,-55 -80,-181 13,-226c94,-44 201,48 173,148c-22,80 -119,120 -186,78zm105,-57c15,-10 22,-25 22,-47c0,-40 -9,-53 -40,-65c-33,-12 -67,1 -81,32c-30,64 40,121 99,80z" fill="#ba478f" id="path8107" stroke-width="1.25786"/>
    <path d="m2015,1389c-157,-71 -153,-65 -105,-172c44,-100 56,-117 79,-117c26,0 241,108 247,124c6,16 -85,208 -101,213c-5,1 -59,-20 -120,-48zm127,-89l27,-55l-81,-37c-44,-21 -83,-38 -85,-38c-4,0 -53,107 -53,116c0,8 143,73 155,70c6,-1 22,-26 37,-56z" fill="#ba478f" id="path8109" stroke-width="1.25786"/>
    <path d="m1703,1241c-88,-55 -81,-181 12,-225c50,-24 99,-14 142,29c29,29 33,40 33,84c0,44 -5,56 -33,87c-42,46 -104,56 -154,25zm107,-61c24,-24 26,-72 4,-94c-24,-24 -80,-20 -98,6c-23,33 -19,64 10,87c33,26 58,27 84,1z" fill="#ba478f" id="path8111" stroke-width="1.25786"/>
    <path d="m2244,1116c-363,-169 -419,-198 -419,-221c0,-11 7,-21 16,-23c14,-2 208,84 542,241c65,31 117,62 117,69c0,14 -19,38 -29,38c-4,-1 -106,-47 -227,-104z" fill="#ba478f" id="path8113" stroke-width="1.25786"/>
   </g>
   <g fill="#ba478f" id="g8121" stroke-width="1.25786">
    <path d="m587,1564c-42,-23 -239,-327 -245,-379c-8,-77 7,-91 276,-269c136,-90 298,-195 361,-235c177,-110 203,-103 333,96c46,70 94,144 106,164c29,48 29,106 0,149c-22,32 -305,224 -612,416c-128,79 -163,89 -219,58zm89,-148c3,-8 -17,-48 -45,-90c-52,-77 -53,-98 -3,-72c41,21 65,5 56,-39c-11,-61 14,-48 67,34c52,83 55,86 76,73c17,-11 -146,-264 -167,-259c-12,2 -15,19 -16,72c0,39 -1,74 -2,78c-1,5 -26,-5 -56,-22c-56,-33 -81,-38 -91,-20c-8,11 152,259 167,259c5,0 11,-6 14,-14zm229,-147c4,-5 -9,-34 -28,-64l-36,-53l49,-33c66,-45 82,-81 59,-132c-12,-27 -47,-47 -83,-47c-31,0 -149,77 -143,93c11,30 158,247 166,247c6,0 13,-5 16,-11zm295,-190c47,-29 59,-48 60,-91c0,-30 -6,-42 -34,-65c-20,-16 -37,-42 -41,-60c-12,-59 -75,-89 -128,-62c-50,26 -77,62 -77,101c0,21 3,38 8,38c18,-1 32,-18 26,-33c-7,-20 38,-65 74,-74c56,-14 85,51 38,83c-27,17 -34,38 -16,49c5,3 20,-1 32,-9c32,-23 55,-20 74,9c15,23 15,27 1,48c-22,34 -76,58 -100,45c-20,-10 -47,-5 -47,10c0,13 40,31 70,31c14,1 41,-9 60,-20z" fill="#ba478f" id="path8117" stroke-width="1.25786"/>
    <path d="m796,1077c-15,-19 -26,-37 -26,-40c0,-11 86,-57 106,-57c26,0 44,19 44,47c0,15 -14,32 -44,53c-25,16 -47,30 -50,30c-3,0 -16,-15 -30,-33z" fill="#ba478f" id="path8119" stroke-width="1.25786"/>
   </g>
  </g>
 </g>
</svg>
