<!DOCTYPE svg PUBLIC "-//W3C//DTD SVG 20010904//EN" "http://www.w3.org/TR/2001/REC-SVG-20010904/DTD/svg10.dtd">
<svg version="1.0" xmlns="http://www.w3.org/2000/svg" width="300px" height="300px" viewBox="0 0 3000 3000" preserveAspectRatio="xMidYMid meet"><g fill="#fffedb" stroke="none">
 <path d="M1565 2971 c-3 -6 3 -15 14 -21 12 -6 22 -6 26 -1 3 6 -3 15 -14 21 -12 6 -22 6 -26 1z"/>
 <path d="M2005 2721 c-3 -6 3 -15 14 -21 12 -6 22 -6 26 -1 3 6 -3 15 -14 21 -12 6 -22 6 -26 1z"/>
 <path d="M2265 2571 c-3 -6 3 -15 14 -21 12 -6 22 -6 26 -1 3 6 -3 15 -14 21 -12 6 -22 6 -26 1z"/>
 <path d="M1380 2383 c-197 -33 -369 -120 -506 -257 -274 -274 -343 -683 -174 -1032 115 -239 343 -422 602 -484 100 -24 289 -27 388 -6 289 61 532 263 651 540 50 117 63 189 63 346 0 173 -14 238 -83 385 -124 261 -362 444 -649 501 -68 13 -232 17 -292 7z m-229 -374 c48 -68 88 -129 88 -134 1 -6 -24 -35 -54 -65 l-54 -54 -131 88 c-72 47 -133 93 -136 101 -11 26 162 201 190 192 5 -2 49 -59 97 -128z m505 -208 c78 -37 129 -88 166 -168 28 -58 30 -70 26 -156 -4 -111 -28 -168 -100 -239 -63 -62 -137 -89 -243 -91 -67 -1 -89 3 -136 25 -113 52 -179 139 -200 264 -14 87 4 168 55 248 38 59 68 84 148 121 43 20 69 25 138 25 73 0 94 -4 146 -29z m380 -677 c68 -47 124 -91 124 -97 0 -14 -130 -150 -166 -174 -13 -8 -28 -12 -33 -9 -6 4 -49 65 -97 137 l-88 129 54 55 c32 33 60 53 69 50 7 -3 69 -44 137 -91z"/>
 <path d="M1456 1549 c-20 -16 -26 -29 -26 -58 0 -74 83 -109 135 -56 73 72 -28 178 -109 114z"/>
 <path d="M425 611 c-3 -6 3 -15 14 -21 12 -6 22 -6 26 -1 3 6 -3 15 -14 21 -12 6 -22 6 -26 1z"/>
 <path d="M1125 211 c-3 -6 3 -15 14 -21 12 -6 22 -6 26 -1 3 6 -3 15 -14 21 -12 6 -22 6 -26 1z"/>
 <path d="M1195 171 c-3 -6 3 -15 14 -21 12 -6 22 -6 26 -1 3 6 -3 15 -14 21 -12 6 -22 6 -26 1z"/>
 <path d="M1315 101 c-3 -6 3 -15 14 -21 12 -6 22 -6 26 -1 3 6 -3 15 -14 21 -12 6 -22 6 -26 1z"/>
 <path d="M1385 60 c-3 -5 8 -16 24 -25 18 -9 32 -11 36 -5 3 5 -8 16 -24 25 -18 9 -32 11 -36 5z"/>
 <path d="M1455 21 c-3 -5 4 -13 16 -16 28 -9 33 -2 9 13 -11 6 -21 8 -25 3z"/>
 </g>

<g fill="#cb248b" stroke="none">
 <path d="M1410 2959 c-41 -22 -87 -48 -102 -57 -22 -14 -88 -52 -280 -162 -56 -32 -200 -116 -232 -135 -18 -11 -75 -44 -127 -73 -52 -30 -130 -76 -174 -103 -44 -27 -98 -58 -120 -70 -77 -41 -106 -57 -145 -83 l-39 -26 1 -755 1 -756 61 -35 c58 -33 73 -42 121 -69 11 -6 39 -23 63 -38 24 -15 53 -32 65 -38 12 -5 40 -20 62 -34 22 -13 47 -27 55 -31 8 -4 23 -14 33 -22 9 -8 17 -12 17 -7 0 4 15 -3 33 -17 17 -13 43 -29 57 -36 14 -6 32 -16 40 -21 14 -9 321 -184 400 -228 19 -11 64 -38 100 -60 36 -22 68 -40 73 -41 4 -1 34 -15 67 -32 33 -16 66 -30 73 -30 19 0 72 24 122 55 22 13 56 33 75 43 19 11 62 35 95 54 33 19 71 41 85 49 14 8 32 19 40 25 8 6 47 28 85 49 39 20 77 43 85 50 8 6 50 32 93 56 43 24 98 55 122 69 24 14 74 42 112 64 37 21 84 49 103 61 19 13 55 34 80 48 25 13 61 34 80 45 19 12 55 32 80 45 l45 24 1 744 c0 409 -3 753 -7 765 -5 14 -95 72 -258 167 -139 81 -253 147 -255 147 -3 0 -41 23 -86 50 -45 28 -91 55 -103 61 -12 5 -40 20 -62 34 -22 13 -53 31 -70 40 -59 31 -132 72 -280 158 -82 47 -163 89 -180 92 -23 4 -49 -5 -105 -36z m309 -609 c264 -64 475 -236 591 -483 58 -124 80 -226 80 -378 0 -165 -27 -278 -102 -421 -114 -220 -317 -376 -573 -444 -103 -27 -322 -25 -428 4 -275 75 -494 265 -596 519 -53 129 -63 196 -59 370 4 148 6 164 37 255 98 288 324 498 614 573 124 32 313 34 436 5z"/>
 <path d="M972 2095 c-39 -37 -86 -84 -103 -106 -31 -40 -32 -41 -13 -59 10 -10 76 -57 147 -104 l127 -85 66 65 65 64 -98 142 c-54 78 -103 143 -109 145 -6 2 -43 -26 -82 -62z"/>
 <path d="M1420 1841 c-102 -33 -195 -114 -240 -206 -36 -73 -40 -189 -9 -270 31 -83 130 -183 212 -213 77 -29 177 -29 252 -1 74 27 165 112 202 187 24 50 28 69 28 147 0 77 -4 98 -27 147 -35 76 -95 138 -170 179 -54 28 -75 33 -143 36 -44 1 -91 -1 -105 -6z m139 -307 c23 -21 18 -74 -9 -96 -42 -34 -110 -6 -110 45 0 63 73 95 119 51z"/>
 <path d="M1824 1171 l-62 -67 97 -139 c53 -76 102 -141 109 -143 13 -4 212 189 212 207 0 9 -178 138 -260 188 l-35 21 -61 -67z"/>
 </g>

</svg>