<!DOCTYPE svg PUBLIC "-//W3C//DTD SVG 20010904//EN" "http://www.w3.org/TR/2001/REC-SVG-20010904/DTD/svg10.dtd">
<svg version="1.0" xmlns="http://www.w3.org/2000/svg" width="300px" height="300px" viewBox="0 0 3000 3000" preserveAspectRatio="xMidYMid meet"><g fill="#fffddb" stroke="none">
 <path d="M1494 2993 c16 -3 39 -11 52 -19 12 -8 25 -11 28 -6 8 13 -40 32 -77 31 l-32 -2 29 -4z"/>
 <path d="M1417 2969 c-30 -17 -8 -30 24 -14 16 9 29 18 29 20 0 9 -35 5 -53 -6z"/>
 <path d="M1585 2960 c-3 -5 8 -16 24 -25 18 -9 32 -11 36 -5 3 5 -8 16 -24 25 -18 9 -32 11 -36 5z"/>
 <path d="M1325 2916 c-11 -8 -14 -16 -8 -19 6 -4 18 0 28 7 11 8 14 16 8 19 -6 4 -18 0 -28 -7z"/>
 <path d="M1675 2911 c-3 -6 3 -15 14 -21 12 -6 22 -6 26 -1 3 6 -3 15 -14 21 -12 6 -22 6 -26 1z"/>
 <path d="M1205 2846 c-11 -8 -14 -16 -8 -19 6 -4 18 0 28 7 11 8 14 16 8 19 -6 4 -18 0 -28 -7z"/>
 <path d="M1135 2806 c-11 -8 -14 -16 -8 -19 6 -4 18 0 28 7 11 8 14 16 8 19 -6 4 -18 0 -28 -7z"/>
 <path d="M1065 2766 c-11 -8 -14 -16 -8 -19 6 -4 18 0 28 7 11 8 14 16 8 19 -6 4 -18 0 -28 -7z"/>
 <path d="M1231 2644 c-137 -37 -279 -152 -340 -275 -103 -210 -67 -442 96 -611 210 -217 543 -221 753 -9 108 109 160 233 160 381 0 151 -44 254 -160 371 -78 79 -159 127 -250 148 -64 15 -195 12 -259 -5z m-74 -212 l52 -77 -33 -34 -34 -33 -63 42 c-111 74 -107 66 -47 127 29 29 57 53 63 53 5 -1 33 -35 62 -78z m326 -138 c88 -61 112 -175 57 -270 -62 -109 -216 -131 -314 -45 -50 44 -72 157 -45 228 42 112 200 158 302 87z m262 -435 c8 -12 -82 -109 -102 -109 -7 0 -35 34 -64 76 l-51 76 32 33 33 34 73 -49 c40 -28 76 -55 79 -61z"/>
 <path d="M1337 2162 c-32 -35 -15 -82 28 -82 23 0 55 28 55 48 0 16 -37 52 -53 52 -8 0 -21 -8 -30 -18z"/>
 <path d="M242 2290 c-18 -11 -30 -25 -27 -30 3 -5 21 0 40 11 19 12 32 25 29 30 -7 11 -4 12 -42 -11z"/>
 <path d="M2081 1745 c-581 -269 -726 -340 -729 -357 -2 -8 42 -112 96 -229 55 -118 114 -248 132 -289 56 -128 110 -230 122 -230 11 0 556 247 789 358 68 33 152 72 186 87 109 48 110 29 -18 302 -213 453 -238 503 -251 503 -7 0 -154 -65 -327 -145z m424 -170 c97 -208 185 -402 185 -408 0 -4 -131 -66 -405 -193 -126 -59 -301 -140 -388 -180 -87 -41 -162 -74 -166 -74 -4 0 -31 51 -60 113 -162 341 -249 532 -246 537 2 4 33 19 68 34 l63 27 70 -41 c50 -30 76 -40 96 -36 27 5 474 210 494 227 6 5 16 47 23 93 l13 84 66 31 c37 17 70 27 73 23 4 -4 55 -110 114 -237z m-328 104 c-3 -23 -11 -47 -19 -54 -7 -7 -111 -58 -232 -114 l-219 -102 -39 26 c-22 15 -38 28 -36 31 7 7 532 252 542 253 5 1 6 -18 3 -40z"/>
 <path d="M2283 1511 c-88 -55 -80 -181 13 -226 94 -44 201 48 173 148 -22 80 -119 120 -186 78z m105 -57 c15 -10 22 -25 22 -47 0 -40 -9 -53 -40 -65 -33 -12 -67 1 -81 32 -30 64 40 121 99 80z"/>
 <path d="M2015 1389 c-157 -71 -153 -65 -105 -172 44 -100 56 -117 79 -117 26 0 241 108 247 124 6 16 -85 208 -101 213 -5 1 -59 -20 -120 -48z m127 -89 l27 -55 -81 -37 c-44 -21 -83 -38 -85 -38 -4 0 -53 107 -53 116 0 8 143 73 155 70 6 -1 22 -26 37 -56z"/>
 <path d="M1703 1241 c-88 -55 -81 -181 12 -225 50 -24 99 -14 142 29 29 29 33 40 33 84 0 44 -5 56 -33 87 -42 46 -104 56 -154 25z m107 -61 c24 -24 26 -72 4 -94 -24 -24 -80 -20 -98 6 -23 33 -19 64 10 87 33 26 58 27 84 1z"/>
 <path d="M2244 1116 c-363 -169 -419 -198 -419 -221 0 -11 7 -21 16 -23 14 -2 208 84 542 241 65 31 117 62 117 69 0 14 -19 38 -29 38 -4 -1 -106 -47 -227 -104z"/>
 <path d="M587 1564 c-42 -23 -239 -327 -245 -379 -8 -77 7 -91 276 -269 136 -90 298 -195 361 -235 177 -110 203 -103 333 96 46 70 94 144 106 164 29 48 29 106 0 149 -22 32 -305 224 -612 416 -128 79 -163 89 -219 58z m89 -148 c3 -8 -17 -48 -45 -90 -52 -77 -53 -98 -3 -72 41 21 65 5 56 -39 -11 -61 14 -48 67 34 52 83 55 86 76 73 17 -11 -146 -264 -167 -259 -12 2 -15 19 -16 72 0 39 -1 74 -2 78 -1 5 -26 -5 -56 -22 -56 -33 -81 -38 -91 -20 -8 11 152 259 167 259 5 0 11 -6 14 -14z m229 -147 c4 -5 -9 -34 -28 -64 l-36 -53 49 -33 c66 -45 82 -81 59 -132 -12 -27 -47 -47 -83 -47 -31 0 -149 77 -143 93 11 30 158 247 166 247 6 0 13 -5 16 -11z m295 -190 c47 -29 59 -48 60 -91 0 -30 -6 -42 -34 -65 -20 -16 -37 -42 -41 -60 -12 -59 -75 -89 -128 -62 -50 26 -77 62 -77 101 0 21 3 38 8 38 18 -1 32 -18 26 -33 -7 -20 38 -65 74 -74 56 -14 85 51 38 83 -27 17 -34 38 -16 49 5 3 20 -1 32 -9 32 -23 55 -20 74 9 15 23 15 27 1 48 -22 34 -76 58 -100 45 -20 -10 -47 -5 -47 10 0 13 40 31 70 31 14 1 41 -9 60 -20z"/>
 <path d="M796 1077 c-15 -19 -26 -37 -26 -40 0 -11 86 -57 106 -57 26 0 44 19 44 47 0 15 -14 32 -44 53 -25 16 -47 30 -50 30 -3 0 -16 -15 -30 -33z"/>
 <path d="M226 731 c-3 -5 5 -16 19 -25 24 -16 45 -6 22 11 -24 19 -36 23 -41 14z"/>
 <path d="M2715 696 c-11 -8 -14 -16 -8 -19 6 -4 18 0 28 7 11 8 14 16 8 19 -6 4 -18 0 -28 -7z"/>
 <path d="M2645 656 c-11 -8 -14 -16 -8 -19 6 -4 18 0 28 7 11 8 14 16 8 19 -6 4 -18 0 -28 -7z"/>
 <path d="M375 641 c-3 -6 3 -15 14 -21 12 -6 22 -6 26 -1 3 6 -3 15 -14 21 -12 6 -22 6 -26 1z"/>
 <path d="M1635 76 c-11 -8 -14 -16 -8 -19 6 -4 18 0 28 7 11 8 14 16 8 19 -6 4 -18 0 -28 -7z"/>
 <path d="M1375 60 c-3 -5 8 -16 24 -25 18 -9 32 -11 36 -5 3 5 -8 16 -24 25 -18 9 -32 11 -36 5z"/>
 <path d="M1557 34 c-15 -8 -27 -17 -27 -20 0 -8 53 5 63 16 16 15 -8 18 -36 4z"/>
 <path d="M1445 21 c-3 -5 4 -13 16 -16 28 -9 33 -2 9 13 -11 6 -21 8 -25 3z"/>
 </g>

<g fill="#cb248b" stroke="none">
 <path d="M1415 2961 c-27 -15 -68 -39 -89 -54 -21 -15 -43 -27 -49 -27 -6 0 -18 -6 -26 -14 -18 -16 -126 -77 -181 -102 -19 -9 -58 -32 -86 -50 -28 -19 -55 -34 -60 -34 -5 0 -35 -18 -68 -40 -32 -22 -63 -40 -68 -40 -5 0 -24 -11 -42 -25 -18 -14 -35 -23 -38 -20 -3 3 -11 -1 -18 -10 -7 -8 -16 -15 -20 -15 -5 0 -32 -16 -62 -35 -29 -19 -62 -38 -73 -42 -11 -3 -33 -16 -50 -28 -16 -12 -75 -47 -130 -78 -55 -31 -113 -67 -130 -80 l-29 -25 -4 -745 -3 -746 41 -26 c22 -14 59 -37 83 -52 23 -15 44 -28 47 -28 5 -1 145 -82 243 -141 26 -16 68 -40 92 -54 24 -14 94 -54 155 -90 61 -36 132 -77 158 -92 26 -15 61 -35 79 -45 343 -197 453 -249 453 -213 0 6 6 10 14 10 16 0 894 500 935 531 13 11 29 19 35 19 6 0 36 16 66 36 30 20 64 40 75 45 11 5 34 18 50 29 17 11 45 27 62 35 18 8 35 25 38 38 3 12 4 355 3 761 l-3 740 -45 27 c-25 15 -94 56 -154 91 -60 35 -124 72 -142 83 -54 33 -155 91 -209 120 -27 15 -57 33 -65 39 -8 7 -26 18 -40 24 -14 7 -43 23 -65 37 -22 14 -62 37 -90 51 -27 15 -68 38 -90 53 -22 14 -52 31 -66 37 -14 6 -45 24 -70 40 -24 16 -60 36 -79 46 -19 10 -53 29 -75 43 -86 54 -132 58 -210 16z m118 -341 c211 -65 351 -261 351 -490 -1 -296 -222 -519 -514 -520 -200 0 -377 106 -462 277 -47 93 -61 166 -56 273 8 137 59 251 159 348 54 52 184 119 259 131 73 13 187 5 263 -19z m903 -792 c15 -29 57 -118 94 -198 37 -80 102 -218 144 -307 42 -90 76 -169 76 -176 0 -8 -33 -29 -72 -47 -40 -18 -120 -55 -178 -82 -269 -128 -758 -350 -780 -354 -29 -6 -29 -6 -140 241 -37 83 -99 218 -137 300 -38 83 -73 158 -76 168 -6 16 13 28 121 79 122 59 915 427 919 428 2 0 15 -24 29 -52z m-1666 -315 c41 -25 200 -127 352 -227 253 -165 279 -185 294 -221 9 -23 13 -52 10 -70 -8 -38 -194 -326 -227 -348 -27 -20 -100 -22 -132 -5 -35 18 -556 356 -626 405 -70 51 -96 93 -86 147 4 18 55 104 113 192 140 209 155 215 302 127z"/>
 <path d="M1031 2472 c-34 -33 -61 -65 -61 -71 0 -14 150 -120 171 -121 15 0 79 59 79 74 0 10 -98 152 -115 166 -10 9 -27 -2 -74 -48z"/>
 <path d="M1325 2340 c-136 -32 -212 -175 -156 -295 80 -172 306 -179 392 -13 23 45 26 146 5 186 -16 31 -81 95 -111 109 -30 15 -96 22 -130 13z m73 -212 c4 -33 -31 -49 -55 -25 -24 24 -8 59 25 55 21 -2 28 -9 30 -30z"/>
 <path d="M1547 1942 l-37 -38 60 -87 c34 -48 66 -87 71 -87 17 0 131 119 124 129 -8 14 -161 121 -172 121 -5 0 -26 -17 -46 -38z"/>
 <path d="M2312 1800 c-69 -32 -76 -42 -91 -139 -6 -36 -14 -68 -18 -72 -9 -9 -449 -213 -479 -223 -13 -4 -43 8 -88 34 -37 22 -74 40 -81 40 -26 0 -145 -59 -145 -72 0 -7 43 -105 96 -218 53 -113 120 -256 150 -319 29 -63 57 -118 61 -122 10 -9 77 20 418 181 143 67 299 140 347 161 134 59 208 98 214 114 3 7 -37 107 -89 222 -160 350 -206 443 -219 443 -7 0 -41 -13 -76 -30z m97 -305 c61 -31 67 -128 10 -179 -28 -25 -38 -28 -81 -24 -57 6 -84 27 -98 79 -13 46 5 97 41 123 29 20 91 21 128 1z m-229 -161 c22 -47 40 -93 40 -101 0 -13 -210 -123 -236 -123 -11 0 -94 174 -94 196 0 12 214 114 238 114 7 0 31 -39 52 -86z m-337 -118 c76 -70 26 -196 -77 -196 -53 0 -90 26 -106 75 -15 44 1 96 37 125 38 30 112 28 146 -4z m647 -27 c0 -10 -56 -38 -417 -205 -213 -98 -234 -106 -240 -88 -2 6 43 33 99 59 548 257 558 261 558 234z"/>
 <path d="M2296 1459 c-35 -28 -36 -80 -1 -114 33 -33 70 -32 106 4 36 36 37 60 3 100 -31 37 -69 41 -108 10z"/>
 <path d="M2024 1340 c-45 -20 -84 -41 -87 -46 -8 -14 50 -134 66 -134 20 0 163 66 171 79 8 12 -35 112 -55 127 -11 9 -32 3 -95 -26z"/>
 <path d="M1716 1189 c-35 -28 -36 -80 -1 -114 33 -33 70 -32 106 4 36 36 37 60 3 100 -31 37 -69 41 -108 10z"/>
 <path d="M1896 1606 c-153 -72 -279 -135 -280 -141 -1 -11 73 -64 91 -65 19 0 446 200 465 219 20 18 30 112 13 116 -5 2 -135 -56 -289 -129z"/>
 <path d="M560 1313 l-90 -138 21 -20 20 -20 61 34 61 33 -5 -66 c-5 -59 -3 -68 15 -81 14 -10 25 -11 33 -5 6 6 49 67 94 135 81 122 82 126 65 145 -10 11 -21 20 -25 20 -4 0 -30 -35 -59 -77 -48 -74 -51 -76 -51 -45 0 40 -34 61 -69 43 -11 -7 -21 -9 -21 -6 0 4 20 38 45 76 47 72 48 81 14 99 -17 10 -28 -3 -109 -127z"/>
 <path d="M797 1173 c-46 -70 -87 -133 -91 -140 -4 -8 18 -29 64 -60 88 -58 130 -62 172 -14 52 58 31 121 -59 181 l-23 15 34 55 c36 57 37 64 5 80 -17 10 -28 -2 -102 -117z m81 -110 c35 -27 40 -44 16 -64 -13 -11 -23 -9 -60 10 -49 26 -51 31 -28 66 17 26 21 26 72 -12z"/>
 <path d="M1093 1100 c-38 -22 -39 -27 -17 -51 12 -14 20 -15 43 -6 24 9 33 7 60 -12 59 -42 17 -97 -44 -57 -22 14 -24 14 -40 -10 -16 -24 -15 -26 15 -54 26 -25 29 -32 20 -50 -13 -25 -26 -25 -67 0 -22 13 -33 27 -33 43 0 26 -33 62 -49 53 -5 -3 -12 -19 -16 -35 -14 -63 63 -141 138 -141 45 0 97 43 97 81 0 13 15 35 37 54 32 27 38 38 38 73 0 48 -27 81 -90 112 -51 25 -52 25 -92 0z"/>
 </g>

</svg>