<!DOCTYPE svg PUBLIC "-//W3C//DTD SVG 20010904//EN" "http://www.w3.org/TR/2001/REC-SVG-20010904/DTD/svg10.dtd">
<svg version="1.0" xmlns="http://www.w3.org/2000/svg" width="1000px" height="1000px" viewBox="0 0 10000 10000" preserveAspectRatio="xMidYMid meet"><g fill="#fffedb" stroke="none">
 <path d="M2641 7220 c-71 -33 -125 -83 -162 -152 -31 -58 -34 -70 -34 -148 0 -73 4 -93 28 -141 81 -166 277 -235 440 -155 67 32 120 89 155 165 35 75 37 183 4 256 -27 59 -101 138 -157 168 -60 31 -213 36 -274 7z"/>
 <path d="M3725 7227 c-3 -7 -4 -152 -3 -322 l3 -310 1915 0 1915 0 0 320 0 320 -1913 3 c-1533 2 -1914 0 -1917 -11z"/>
 <path d="M2646 5946 c-73 -31 -138 -93 -174 -166 -23 -47 -27 -68 -27 -140 0 -78 3 -90 34 -148 71 -131 211 -200 349 -171 77 15 118 38 174 96 67 68 92 130 92 223 0 88 -28 161 -89 228 -85 94 -240 128 -359 78z"/>
 <path d="M3725 5957 c-3 -7 -4 -154 -3 -327 l3 -315 1915 0 1915 0 0 325 0 325 -1913 3 c-1532 2 -1914 0 -1917 -11z"/>
 <path d="M2703 4690 c-92 -19 -175 -82 -224 -172 -31 -58 -34 -70 -34 -148 0 -73 4 -93 28 -141 36 -75 107 -140 183 -169 118 -44 267 -10 349 82 61 67 89 140 89 228 0 93 -25 155 -92 223 -55 57 -97 80 -170 96 -59 12 -69 12 -129 1z"/>
 <path d="M3725 4687 c-3 -7 -4 -154 -3 -327 l3 -315 1915 0 1915 0 0 325 0 325 -1913 3 c-1532 2 -1914 0 -1917 -11z"/>
 <path d="M2646 3396 c-73 -31 -138 -93 -174 -166 -23 -47 -27 -68 -27 -140 0 -78 3 -90 34 -148 71 -131 211 -200 349 -171 77 15 118 38 174 96 67 68 92 130 92 223 0 88 -28 161 -89 228 -85 94 -240 128 -359 78z"/>
 <path d="M3725 3407 c-3 -7 -4 -154 -3 -327 l3 -315 1915 0 1915 0 0 325 0 325 -1913 3 c-1532 2 -1914 0 -1917 -11z"/>
 </g>

<g fill="#ba478f" stroke="none">
 <path d="M4929 9981 c-59 -23 -277 -137 -479 -251 -148 -84 -231 -131 -775 -445 -132 -76 -564 -327 -960 -558 -396 -230 -1003 -584 -1350 -784 -346 -201 -638 -373 -647 -382 -17 -15 -18 -164 -20 -2540 l-3 -2524 300 -175 c165 -96 611 -358 990 -582 2927 -1728 2762 -1631 2861 -1676 117 -54 145 -55 255 -2 116 55 515 277 954 531 337 195 1307 757 1765 1022 281 163 1038 606 1305 763 l170 100 5 943 c3 519 7 1656 8 2526 l2 1583 -40 25 c-22 14 -228 136 -458 271 -498 294 -712 421 -887 524 -71 43 -339 200 -595 350 -256 150 -535 314 -620 365 -85 51 -315 186 -510 300 -195 114 -400 235 -455 268 -221 132 -501 291 -573 325 -93 44 -171 51 -243 23z m-2011 -2787 c180 -90 218 -357 71 -503 -66 -66 -178 -100 -273 -82 -104 19 -175 69 -221 153 -24 44 -30 68 -33 140 -4 77 -2 92 22 145 34 73 77 119 141 149 42 20 66 24 146 24 82 0 102 -3 147 -26z m4622 -284 l0 -310 -1905 0 -1905 0 0 310 0 310 1905 0 1905 0 0 -310z m-4708 -961 c149 -32 237 -135 246 -289 10 -183 -108 -316 -291 -328 -135 -8 -248 59 -302 179 -25 56 -27 70 -23 148 3 71 9 95 33 139 43 80 117 134 208 152 60 11 70 11 129 -1z m4708 -304 l0 -315 -1905 0 -1905 0 0 315 0 315 1905 0 1905 0 0 -315z m-4626 -999 c111 -54 171 -164 164 -296 -9 -155 -98 -258 -250 -289 -133 -28 -269 34 -333 151 -24 44 -30 68 -33 139 -4 77 -1 93 23 146 34 76 85 127 161 159 81 34 186 30 268 -10z m4626 -281 l0 -315 -1905 0 -1905 0 0 315 0 315 1905 0 1905 0 0 -315z m-4708 -966 c149 -32 237 -135 246 -289 10 -183 -108 -316 -291 -328 -135 -8 -248 59 -302 179 -25 56 -27 70 -23 148 3 71 9 95 33 139 43 80 117 134 208 152 60 11 70 11 129 -1z m4708 -304 l0 -315 -1905 0 -1905 0 0 315 0 315 1905 0 1905 0 0 -315z"/>
 </g>

</svg>