<!DOCTYPE svg PUBLIC "-//W3C//DTD SVG 20010904//EN" "http://www.w3.org/TR/2001/REC-SVG-20010904/DTD/svg10.dtd">
<svg version="1.0" xmlns="http://www.w3.org/2000/svg" width="300px" height="300px" viewBox="0 0 3000 3000" preserveAspectRatio="xMidYMid meet"><g fill="#fffedb" stroke="none">
 <path d="M639 2311 c-32 -32 -39 -45 -39 -79 0 -32 7 -48 34 -76 29 -31 39 -36 81 -36 40 0 52 5 81 34 28 28 34 41 34 78 0 50 -18 82 -60 103 -51 26 -88 19 -131 -24z"/>
 <path d="M1054 2337 c-2 -7 -3 -58 -2 -113 l3 -99 670 0 670 0 0 110 0 110 -668 3 c-548 2 -668 0 -673 -11z"/>
 <path d="M658 1884 c-52 -28 -72 -98 -44 -153 21 -39 58 -61 107 -61 33 0 47 6 75 34 29 29 34 41 34 81 0 40 -5 52 -34 81 -27 27 -42 34 -72 34 -22 -1 -51 -7 -66 -16z"/>
 <path d="M1054 1887 c-2 -7 -3 -58 -2 -113 l3 -99 670 0 670 0 0 110 0 110 -668 3 c-548 2 -668 0 -673 -11z"/>
 <path d="M1054 1447 c-2 -7 -3 -60 -2 -118 l3 -104 670 0 670 0 0 115 0 115 -668 3 c-547 2 -668 0 -673 -11z"/>
 <path d="M652 1434 c-29 -20 -52 -66 -52 -105 0 -23 10 -42 40 -71 38 -38 43 -40 87 -35 65 7 103 49 103 113 0 39 -5 51 -34 80 -28 28 -41 34 -78 34 -24 0 -54 -7 -66 -16z"/>
 <path d="M674 996 c-46 -20 -74 -62 -74 -109 0 -32 7 -46 39 -78 29 -29 47 -39 70 -39 70 0 121 51 121 120 0 32 -7 47 -32 74 -38 40 -80 51 -124 32z"/>
 <path d="M1054 997 c-2 -7 -3 -60 -2 -118 l3 -104 670 0 670 0 0 115 0 115 -668 3 c-547 2 -668 0 -673 -11z"/>
 </g>

<g fill="#cb248b" stroke="none">
 <path d="M1294 2897 c-447 -257 -1071 -622 -1086 -635 -17 -14 -18 -63 -18 -767 0 -590 3 -755 12 -763 13 -10 161 -96 823 -474 397 -228 454 -258 483 -258 12 0 43 12 69 27 94 51 880 506 1116 645 l117 69 -2 762 -3 762 -115 66 c-63 36 -333 191 -600 344 -528 303 -568 325 -597 325 -11 0 -100 -46 -199 -103z m-511 -587 c57 -45 40 -148 -28 -170 -43 -14 -81 -6 -112 22 -33 31 -32 110 2 143 32 32 100 35 138 5z m1607 -80 l0 -100 -665 0 -665 0 0 100 0 100 665 0 665 0 0 -100z m-1602 -374 c14 -13 26 -40 29 -63 5 -35 1 -45 -25 -74 -27 -30 -36 -34 -77 -33 -52 1 -80 21 -94 70 -28 100 94 173 167 100z m1602 -71 l0 -105 -665 0 -665 0 0 105 0 105 665 0 665 0 0 -105z m-1626 -359 c60 -25 73 -111 24 -163 -17 -18 -32 -23 -70 -23 -66 0 -98 30 -98 92 0 87 63 128 144 94z m1626 -86 l0 -100 -665 0 -665 0 0 100 0 100 665 0 665 0 0 -100z m-1621 -365 c58 -29 66 -124 14 -165 -38 -30 -106 -27 -138 5 -20 19 -25 34 -25 74 0 43 4 53 31 75 35 29 76 33 118 11z m1621 -85 l0 -100 -665 0 -665 0 0 100 0 100 665 0 665 0 0 -100z"/>
 </g>

</svg>