<?xml version="1.0"?>
<svg width="2000" height="2000" xmlns="http://www.w3.org/2000/svg" xmlns:svg="http://www.w3.org/2000/svg" preserveAspectRatio="xMidYMid meet">
 <metadata id="metadata967">image/svg+xml</metadata>

 <g class="layer">
  <title>Layer 1</title>
  <g fill="#fffedb" id="g955" transform="translate(-23.580752,-9.7829876)">
   <path d="m198.72656,1552.8105c-137.997451,-10.8353 -223.317866,187.0123 -119.032821,278.6924c93.921881,106.2802 301.021651,18.5583 279.922191,-125.6981c-6.0877,-81.0974 -78.09033,-153.8609 -160.88937,-152.9943z" id="path939" stroke-width="0.999999"/>
   <path d="m508.32812,1574.6855c12.51497,99.0737 -32.77721,207.9647 25.707,298.9336c458.05342,8.8603 916.19168,1.3672 1374.28518,2.7344c112.4177,39.2377 110.1063,-106.0211 102.3203,-178.5493c0,-47.6404 0,-95.2809 0,-142.9214c-500.7057,0 -1001.4115,0 -1502.1172,0l-0.19532,19.8027l0.00004,0z" id="path941" stroke-width="0.999999"/>
   <path d="m187.53125,1080.4102c-139.275591,-0.4222 -210.732128,204.2469 -97.994429,288.6073c92.481269,85.1499 269.048189,16.6499 269.989779,-112.5061c8.23818,-94.1076 -77.23326,-182.878 -171.99535,-176.1012z" id="path943" stroke-width="0.999999"/>
   <path d="m508.32227,1100.7578c12.47444,100.3581 -32.85638,210.4545 25.8476,302.6543c474.31563,9.3952 948.72193,-0.049 1423.07423,3.6303c86.4319,-21.3297 45.4391,-120.7064 53.3948,-184.4544c0,-47.2129 0,-94.4259 0,-141.6388c-500.7084,0 -1001.4167,0 -1502.12508,0c-0.0639,6.6028 -0.12742,13.206 -0.19155,19.8086z" id="path945" stroke-width="0.999999"/>
   <path d="m187.07227,608.69531c-140.729832,-0.03676 -211.182528,209.12884 -94.385358,291.36128c100.426768,90.58476 287.684928,-3.81389 266.464978,-140.13126c-6.69257,-85.29447 -85.37708,-158.15953 -172.07962,-151.23002z" id="path947" stroke-width="0.999999"/>
   <path d="m508.32227,630.52734c12.47157,100.35557 -32.85387,210.45671 25.8476,302.6543c475.43463,8.84203 951.19983,1.01887 1426.52063,2.77434c91.1498,-32.40408 34.6973,-146.17988 49.9483,-217.61617c0,-35.87369 0,-71.74737 0,-107.62106c-500.7083,0 -1001.4167,0 -1502.12498,0c-0.0639,6.60282 -0.12742,13.20601 -0.19155,19.80859z" id="path949" stroke-width="0.999999"/>
   <path d="m187.53125,136.24609c-139.486649,-0.41728 -210.873928,204.79522 -97.598957,288.96043c92.649427,84.66352 268.633257,16.09416 269.595067,-112.86902c8.23589,-94.0988 -77.24912,-182.8761 -171.99611,-176.09141z" id="path951" stroke-width="0.999999"/>
   <path d="m508.32227,156.5957c12.46524,100.3663 -32.84169,210.44681 25.8476,302.66016c475.17463,9.08918 950.43223,0.53381 1425.64453,3.15039c84.7447,-25.5804 42.0883,-123.46605 50.8242,-188.03239c0,-45.86225 0,-91.7245 0,-137.58675c-500.7083,0 -1001.4167,0 -1502.12498,0c-0.0638,6.60285 -0.12766,13.20582 -0.19135,19.80859z" id="path953" stroke-width="0.999999"/>
  </g>
  <g display="inline" fill="#ba478f" id="g1021" stroke-width="2.7008" transform="matrix(0.37026,0,0,0.37026,-851.3,-851.97871)">
   <path d="m2641,7220c-71,-33 -125,-83 -162,-152c-31,-58 -34,-70 -34,-148c0,-73 4,-93 28,-141c81,-166 277,-235 440,-155c67,32 120,89 155,165c35,75 37,183 4,256c-27,59 -101,138 -157,168c-60,31 -213,36 -274,7z" fill="#ba478f" id="path1005" stroke-width="2.7008"/>
   <path d="m3725,7227c-3,-7 -4,-152 -3,-322l3,-310l1915,0l1915,0l0,320l0,320l-1913,3c-1533,2 -1914,0 -1917,-11z" fill="#ba478f" id="path1007" stroke-width="2.7008"/>
   <path d="m2646,5946c-73,-31 -138,-93 -174,-166c-23,-47 -27,-68 -27,-140c0,-78 3,-90 34,-148c71,-131 211,-200 349,-171c77,15 118,38 174,96c67,68 92,130 92,223c0,88 -28,161 -89,228c-85,94 -240,128 -359,78z" fill="#ba478f" id="path1009" stroke-width="2.7008"/>
   <path d="m3725,5957c-3,-7 -4,-154 -3,-327l3,-315l1915,0l1915,0l0,325l0,325l-1913,3c-1532,2 -1914,0 -1917,-11z" fill="#ba478f" id="path1011" stroke-width="2.7008"/>
   <path d="m2703,4690c-92,-19 -175,-82 -224,-172c-31,-58 -34,-70 -34,-148c0,-73 4,-93 28,-141c36,-75 107,-140 183,-169c118,-44 267,-10 349,82c61,67 89,140 89,228c0,93 -25,155 -92,223c-55,57 -97,80 -170,96c-59,12 -69,12 -129,1z" fill="#ba478f" id="path1013" stroke-width="2.7008"/>
   <path d="m3725,4687c-3,-7 -4,-154 -3,-327l3,-315l1915,0l1915,0l0,325l0,325l-1913,3c-1532,2 -1914,0 -1917,-11z" fill="#ba478f" id="path1015" stroke-width="2.7008"/>
   <path d="m2646,3396c-73,-31 -138,-93 -174,-166c-23,-47 -27,-68 -27,-140c0,-78 3,-90 34,-148c71,-131 211,-200 349,-171c77,15 118,38 174,96c67,68 92,130 92,223c0,88 -28,161 -89,228c-85,94 -240,128 -359,78z" fill="#ba478f" id="path1017" stroke-width="2.7008"/>
   <path d="m3725,3407c-3,-7 -4,-154 -3,-327l3,-315l1915,0l1915,0l0,325l0,325l-1913,3c-1532,2 -1914,0 -1917,-11z" fill="#ba478f" id="path1019" stroke-width="2.7008"/>
  </g>
 </g>
</svg>
