<?xml version="1.0" encoding="utf-8"?>
<!-- Generator: Adobe Illustrator 27.7.0, SVG Export Plug-In . SVG Version: 6.00 Build 0)  -->
<svg version="1.1" id="Layer_1" xmlns:svg="http://www.w3.org/2000/svg"
	 xmlns="http://www.w3.org/2000/svg" xmlns:xlink="http://www.w3.org/1999/xlink" x="0px" y="0px" viewBox="0 0 2000 2000"
	 style="enable-background:new 0 0 2000 2000;" xml:space="preserve">
<style type="text/css">
	.st0{fill:#FFFEDB;}
	.st1{fill:#BA478F;}
</style>
<g>
	<path class="st0" d="M1087,1944.3c-59.1,0-116.7-25.1-162.3-70.7c-206-205.8-414.6-415.7-616.3-618.6
		c-60.7-61.1-121.5-122.2-182.2-183.3c-44.3-44.6-66.7-99-66.6-161.7c0.1-84.6,0.1-170.6,0-253.8c-0.1-121.1-0.2-246.4,0.3-369.6
		c0.2-63.8,23.5-122.1,65.5-164.2c41.9-42,100-65.4,163.7-66l0.4,0l602.2-0.5l9.5-0.1c68.6-0.6,127.5,23.4,175.1,71.2
		c90.5,91,182.7,183.4,271.7,272.8c170.2,170.8,346.3,347.5,519,521.7c23.7,23.9,42,50.2,54.4,78.4c12.6,28.5,19,58.3,19,88.5
		c0,30.2-6.4,59.9-19.1,88.4c-12.5,28.1-30.8,54.5-54.4,78.3c-223.4,225.3-424.3,426.9-614.3,616.5c-46.3,46.2-104.5,72-163.7,72.6
		C1088.4,1944.2,1087.7,1944.3,1087,1944.3z M416.9,336.2c-20.2,1.1-39.4,9.8-54.2,24.9c-15.8,16.1-24.4,36.9-24.2,58.6
		c0.2,22,9.4,42.8,25.8,58.7c16.1,15.6,36.7,24,58,23.6c44-0.8,81.2-38.7,81.3-82.6c0.1-22-8.8-43-24.8-59
		c-15.8-15.8-36.3-24.4-57.8-24.3L416.9,336.2z"/>
	<path class="st1" d="M901.6,107.1c54.5-0.5,100,17.6,138.3,56.1c263.6,264.9,527.6,529.2,790.7,794.5c78.2,78.8,78,182.7,0,261.4
		c-204.2,206-408.8,411.5-614.1,616.3c-75.9,75.7-180.2,77.3-255.5,1.9c-266.9-266.6-532.5-534.4-798.5-801.9
		c-34.3-34.5-51.8-76.2-51.7-125.5c0.3-207.8-0.5-415.5,0.3-623.3c0.4-103.9,74.8-178.1,178.4-179L901.6,107.1L901.6,107.1z
		 M420.7,284.8c-73.3,0.3-134.2,62-133.5,135.4c0.7,73.5,63.1,134.5,136,133.1c71.9-1.4,131.5-61.9,131.6-133.8
		C555,345.9,493.9,284.5,420.7,284.8L420.7,284.8z"/>
</g>
</svg>
