<?xml version="1.0" encoding="UTF-8"?><svg id="Layer_1" xmlns="http://www.w3.org/2000/svg" width="300" height="300" viewBox="0 0 300 300"><defs><style>.cls-1{fill:#fffedb;}.cls-2{fill:#ba478f;}</style></defs><path class="cls-2" d="M130.4,289.2c-23-13.2-40.6-23.4-78.4-45.5l-30.5-17.7-.3-75.6-.2-75.6,10.7-6.3c6-3.4,19.4-11.3,29.8-17.5,10.5-6.2,28-16.5,39-23s24.7-14.6,30.5-18c13.2-7.9,16.4-9.5,18.7-9.5,1.8,0,13.5,6.5,48.3,26.7,8.5,4.9,26.8,15.5,40.5,23.5,13.8,8,28.4,16.5,32.5,19l7.5,4.4,.3,75.5,.2,75.6-21.7,12.8c-12,7.1-30.3,17.9-40.8,24-10.4,6.2-26.9,15.9-36.5,21.5-24.3,14.4-27.2,16-29.6,16-1.1,0-10.1-4.6-20-10.3Z"/><path class="cls-1" d="M143.35,66.77c5.9-.05,10.83,1.91,14.98,6.08,28.55,28.69,57.15,57.32,85.65,86.06,8.47,8.54,8.45,19.79,0,28.31-22.12,22.31-44.28,44.57-66.52,66.76-8.22,8.2-19.52,8.37-27.68,.21-28.91-28.88-57.68-57.89-86.49-86.86-3.72-3.74-5.61-8.25-5.6-13.59,.03-22.51-.05-45.01,.03-67.52,.04-11.25,8.1-19.29,19.32-19.39l66.31-.05Zm-52.1,19.25c-7.94,.03-14.54,6.72-14.46,14.67,.08,7.96,6.83,14.57,14.73,14.42,7.79-.15,14.24-6.71,14.26-14.49,.02-7.98-6.6-14.63-14.53-14.59Z"/></svg>