<?xml version="1.0"?>
<svg width="2000" height="2000" xmlns="http://www.w3.org/2000/svg" xmlns:svg="http://www.w3.org/2000/svg" preserveAspectRatio="xMidYMid meet">

 <g class="layer">
  <title>Layer 1</title>
  <g fill="#fffddb" id="g965" stroke-width="1.19015" transform="matrix(0.8402275,0,0,0.8402275,-305.30673,-256.53559)">
   <path d="m1190.1191,319.00391c-112.467,24.45359 -167.6711,150.15785 -184.7932,254.36174c-33.57088,90.43588 27.63,230.87103 -56.08576,282.2551c-178.21241,90.87704 -372.32744,206.86885 -442.79272,404.73705c-33.81296,133.9526 -3.8107,284.1309 97.56741,382.4792c43.23199,67.6114 207.28495,89.5384 106.58007,176.3657c-60.45475,105.9365 15.56457,228.4668 111.35521,281.0439c131.55992,83.7271 313.33269,-14.618 341.36569,-161.2792c-7.0637,-106.4264 53.1986,-170.8825 145.4291,-208.1082c66.2008,-45.4537 114.0493,-207.4208 168.1122,-61.2962c63.1054,116.789 250.1317,101.999 298.0286,-19.5374c62.6151,-89.3572 -72.972,-210.6642 -52.5332,-260.4305c119.2578,4.1988 263.4605,1.0056 334.7222,116.8948c148.2757,211.1038 81.0958,498.129 -52.9127,699.0363c-95.6347,153.8476 -244.291,261.1014 -398.0575,350.8234c-97.5931,107.8698 86.8284,157.2726 153.0088,73.0098c268.9612,-141.8789 478.3283,-392.7685 563.5371,-685.4414c74.6872,86.3082 221.7225,99.984 276.1504,-13.5051c76.88,-118.7109 -172.3056,-202.1042 -31.1997,-297.5959c94.6842,-78.8189 9.1213,-242.474 -104.3849,-232.6302c-102.0765,-19.9248 -159.3522,202.4253 -214.6483,54.9191c-85.4285,-126.5749 -227.7401,-236.144 -387.8116,-220.0879c-107.4719,-8.458 -220.4657,16.6793 -295.6909,99.2559c-52.0073,36.8883 -119.5566,199.3198 -139.7769,66.0513c-19.1297,-128.174 -139.6043,-198.5295 -245.2846,-227.9933c0,-66.4531 0,-132.9062 0,-199.35924c109.0276,-102.47144 214.0301,-235.42458 198.6606,-394.45325c-3.3196,-109.49606 -71.2903,-242.5252 -188.5454,-259.5155" id="path863" stroke-width="1.19015"/>
  </g>
  <g fill="#ba478f" id="g1003" stroke-width="1.19015" transform="matrix(0.8402275,0,0,0.8402275,-304.56625,-259.91982)">
   <path d="m1620,2620c-9,-18 -5,-24 37,-49c136,-84 170,-108 229,-164c284,-266 378,-659 216,-906c-67,-101 -149,-144 -272,-145c-88,0 -144,17 -199,62c-24,20 -22,42 5,42c28,0 75,31 94,63c71,117 -77,245 -186,162c-111,-85 -28,-309 145,-389c39,-18 65,-21 161,-21c111,0 117,1 179,33c120,63 207,169 248,304c23,74 22,242 -1,333c-68,263 -276,514 -543,653c-45,23 -86,42 -92,42c-6,0 -15,-9 -21,-20z" fill="#ba478f" id="path995" stroke-width="1.19015"/>
   <path d="m855,2073c-40,-20 -93,-71 -111,-105c-20,-39 -18,-111 4,-131c44,-40 82,-6 82,74c0,66 18,95 66,108c78,22 113,-17 126,-139c5,-50 7,-97 4,-105c-3,-9 -19,-15 -38,-15c-57,0 -169,-29 -234,-59c-85,-40 -147,-100 -187,-180c-29,-59 -32,-75 -32,-151c0,-70 5,-95 26,-140c52,-112 194,-233 385,-328l82,-41l4,-138c6,-167 29,-249 90,-318c53,-61 85,-61 143,-2c56,55 80,131 73,228c-7,92 -44,164 -129,254l-69,72l0,131l0,131l48,7c131,19 195,99 195,244c0,136 -71,241 -186,275l-54,16l-5,83c-7,107 -41,176 -107,218c-52,33 -126,38 -176,11zm165,-554c0,-135 -2,-160 -14,-150c-8,7 -15,42 -19,87c-6,82 -17,104 -53,104c-53,0 -71,-114 -34,-214c21,-55 69,-108 109,-121c19,-6 21,-14 21,-100c0,-52 -4,-96 -8,-99c-14,-8 -106,50 -165,104c-37,34 -68,74 -88,116c-29,58 -31,70 -27,136c6,91 38,166 90,213c46,42 72,54 186,84c1,1 2,-72 2,-160zm219,132c50,-35 65,-68 69,-144c4,-67 2,-74 -22,-99c-15,-14 -46,-31 -71,-37c-80,-20 -75,-30 -75,150l0,161l38,-6c20,-4 48,-15 61,-25zm-30,-898c60,-59 78,-110 62,-184c-17,-79 -64,-150 -89,-135c-24,15 -56,366 -33,366c6,0 33,-21 60,-47z" fill="#ba478f" id="path997" stroke-width="1.19015"/>
   <path d="m2440,1973c-8,-3 -27,-17 -42,-31c-49,-45 -33,-129 29,-161c39,-20 73,-13 109,23c56,56 42,131 -32,162c-36,15 -41,15 -64,7z" fill="#ba478f" id="path999" stroke-width="1.19015"/>
   <path d="m2411,1624c-13,-9 -29,-32 -37,-50c-27,-64 24,-134 97,-134c30,0 43,7 68,35c20,23 31,46 31,65c0,19 -11,42 -31,65c-25,28 -38,35 -68,35c-20,0 -47,-7 -60,-16z" fill="#ba478f" id="path1001" stroke-width="1.19015"/>
  </g>
 </g>
</svg>
