<!DOCTYPE svg PUBLIC "-//W3C//DTD SVG 20010904//EN" "http://www.w3.org/TR/2001/REC-SVG-20010904/DTD/svg10.dtd">
<svg version="1.0" xmlns="http://www.w3.org/2000/svg" width="300px" height="300px" viewBox="0 0 3000 3000" preserveAspectRatio="xMidYMid meet"><g fill="#fffddb" stroke="none">
 <path d="M1451 2991 c-8 -5 -9 -11 -3 -15 6 -3 13 -2 17 4 3 5 19 10 35 10 16 0 32 -5 35 -10 4 -6 11 -7 17 -4 16 10 -13 24 -52 24 -19 0 -41 -4 -49 -9z"/>
 <path d="M1399 2962 c-13 -12 -18 -21 -12 -25 6 -4 21 1 34 11 13 12 18 21 12 25 -6 4 -21 -1 -34 -11z"/>
 <path d="M1575 2961 c-7 -13 32 -34 47 -25 7 4 8 3 4 -4 -9 -16 53 -47 67 -33 7 7 1 14 -19 23 -16 7 -40 20 -53 30 -27 20 -37 22 -46 9z"/>
 <path d="M1332 2924 c-32 -22 -17 -37 19 -19 16 9 27 20 24 25 -8 14 -17 12 -43 -6z"/>
 <path d="M1253 2879 c-45 -29 -31 -43 18 -19 22 12 37 25 34 30 -9 14 -16 12 -52 -11z"/>
 <path d="M1715 2881 c-7 -12 12 -24 25 -16 11 7 4 25 -10 25 -5 0 -11 -4 -15 -9z"/>
 <path d="M1766 2851 c-9 -14 104 -75 117 -62 7 7 3 13 -14 20 -13 5 -37 19 -54 30 -33 23 -41 25 -49 12z"/>
 <path d="M1157 2824 c-38 -20 -24 -38 14 -19 16 9 27 20 24 25 -7 12 -4 13 -38 -6z"/>
 <path d="M1087 2784 c-15 -8 -25 -19 -22 -24 9 -14 17 -12 44 9 30 23 15 34 -22 15z"/>
 <path d="M1905 2770 c-3 -5 8 -16 24 -25 37 -18 50 -3 16 19 -28 19 -32 19 -40 6z"/>
 <path d="M1011 2737 c-6 -8 -8 -17 -5 -20 10 -9 45 13 39 24 -9 13 -21 11 -34 -4z"/>
 <path d="M1975 2731 c-3 -6 3 -15 14 -21 12 -6 22 -6 26 -1 3 6 -3 15 -14 21 -12 6 -22 6 -26 1z"/>
 <path d="M892 2668 c-40 -22 -70 -44 -66 -49 3 -6 35 6 72 27 77 42 87 50 75 57 -5 3 -41 -13 -81 -35z"/>
 <path d="M2065 2681 c-3 -6 3 -15 14 -21 12 -6 22 -6 26 -1 3 6 -3 15 -14 21 -12 6 -22 6 -26 1z"/>
 <path d="M2116 2651 c-7 -11 114 -82 127 -74 12 7 3 14 -65 52 -32 18 -59 27 -62 22z"/>
 <path d="M1620 2620 c-9 -18 -5 -24 37 -49 136 -84 170 -108 229 -164 284 -266 378 -659 216 -906 -67 -101 -149 -144 -272 -145 -88 0 -144 17 -199 62 -24 20 -22 42 5 42 28 0 75 31 94 63 71 117 -77 245 -186 162 -111 -85 -28 -309 145 -389 39 -18 65 -21 161 -21 111 0 117 1 179 33 120 63 207 169 248 304 23 74 22 242 -1 333 -68 263 -276 514 -543 653 -45 23 -86 42 -92 42 -6 0 -15 -9 -21 -20z"/>
 <path d="M765 2596 c-14 -10 -15 -15 -6 -21 8 -4 19 -1 28 8 20 19 1 30 -22 13z"/>
 <path d="M701 2559 c-17 -10 -29 -24 -26 -29 6 -10 23 -4 59 23 30 22 3 28 -33 6z"/>
 <path d="M2255 2570 c-3 -5 8 -16 24 -25 18 -9 32 -11 36 -5 3 5 -8 16 -24 25 -18 9 -32 11 -36 5z"/>
 <path d="M2325 2531 c-3 -6 3 -15 14 -21 12 -6 22 -6 26 -1 3 6 -3 15 -14 21 -12 6 -22 6 -26 1z"/>
 <path d="M627 2514 c-38 -20 -24 -38 14 -19 16 9 27 20 24 25 -7 12 -4 13 -38 -6z"/>
 <path d="M2395 2490 c-3 -5 8 -16 24 -25 18 -9 32 -11 36 -5 3 5 -8 16 -24 25 -18 9 -32 11 -36 5z"/>
 <path d="M557 2474 c-38 -20 -24 -38 14 -19 16 9 27 20 24 25 -7 12 -4 13 -38 -6z"/>
 <path d="M2465 2451 c-3 -6 3 -15 14 -21 12 -6 22 -6 26 -1 3 6 -3 15 -14 21 -12 6 -22 6 -26 1z"/>
 <path d="M455 2416 c-11 -8 -14 -16 -8 -19 6 -4 18 0 28 7 11 8 14 16 8 19 -6 4 -18 0 -28 -7z"/>
 <path d="M2515 2420 c-3 -5 12 -18 34 -30 23 -11 42 -16 46 -10 3 5 -12 18 -34 30 -23 11 -42 16 -46 10z"/>
 <path d="M391 2379 c-40 -24 -32 -45 9 -24 16 8 31 19 35 24 11 19 -12 19 -44 0z"/>
 <path d="M2605 2371 c-3 -6 3 -15 14 -21 12 -6 22 -6 26 -1 3 6 -3 15 -14 21 -12 6 -22 6 -26 1z"/>
 <path d="M317 2334 c-38 -20 -24 -38 14 -19 16 9 27 20 24 25 -7 12 -4 13 -38 -6z"/>
 <path d="M2655 2340 c-3 -5 8 -16 24 -25 18 -9 32 -11 36 -5 3 5 -8 16 -24 25 -18 9 -32 11 -36 5z"/>
 <path d="M255 2298 c-48 -26 -65 -39 -60 -48 3 -5 25 3 50 17 25 13 43 29 39 34 -6 11 -4 11 -29 -3z"/>
 <path d="M2745 2290 c-3 -5 8 -16 24 -25 18 -9 32 -11 36 -5 3 5 -8 16 -24 25 -18 9 -32 11 -36 5z"/>
 <path d="M855 2073 c-40 -20 -93 -71 -111 -105 -20 -39 -18 -111 4 -131 44 -40 82 -6 82 74 0 66 18 95 66 108 78 22 113 -17 126 -139 5 -50 7 -97 4 -105 -3 -9 -19 -15 -38 -15 -57 0 -169 -29 -234 -59 -85 -40 -147 -100 -187 -180 -29 -59 -32 -75 -32 -151 0 -70 5 -95 26 -140 52 -112 194 -233 385 -328 l82 -41 4 -138 c6 -167 29 -249 90 -318 53 -61 85 -61 143 -2 56 55 80 131 73 228 -7 92 -44 164 -129 254 l-69 72 0 131 0 131 48 7 c131 19 195 99 195 244 0 136 -71 241 -186 275 l-54 16 -5 83 c-7 107 -41 176 -107 218 -52 33 -126 38 -176 11z m165 -554 c0 -135 -2 -160 -14 -150 -8 7 -15 42 -19 87 -6 82 -17 104 -53 104 -53 0 -71 -114 -34 -214 21 -55 69 -108 109 -121 19 -6 21 -14 21 -100 0 -52 -4 -96 -8 -99 -14 -8 -106 50 -165 104 -37 34 -68 74 -88 116 -29 58 -31 70 -27 136 6 91 38 166 90 213 46 42 72 54 186 84 1 1 2 -72 2 -160z m219 132 c50 -35 65 -68 69 -144 4 -67 2 -74 -22 -99 -15 -14 -46 -31 -71 -37 -80 -20 -75 -30 -75 150 l0 161 38 -6 c20 -4 48 -15 61 -25z m-30 -898 c60 -59 78 -110 62 -184 -17 -79 -64 -150 -89 -135 -24 15 -56 366 -33 366 6 0 33 -21 60 -47z"/>
 <path d="M2440 1973 c-8 -3 -27 -17 -42 -31 -49 -45 -33 -129 29 -161 39 -20 73 -13 109 23 56 56 42 131 -32 162 -36 15 -41 15 -64 7z"/>
 <path d="M2411 1624 c-13 -9 -29 -32 -37 -50 -27 -64 24 -134 97 -134 30 0 43 7 68 35 20 23 31 46 31 65 0 19 -11 42 -31 65 -25 28 -38 35 -68 35 -20 0 -47 -7 -60 -16z"/>
 <path d="M196 751 c-9 -15 23 -36 35 -24 8 8 5 14 -9 22 -12 6 -23 7 -26 2z"/>
 <path d="M2732 720 c-18 -11 -30 -25 -27 -30 3 -5 21 0 40 11 19 12 32 25 29 30 -7 11 -4 12 -42 -11z"/>
 <path d="M235 720 c-3 -5 8 -16 24 -25 37 -18 50 -3 16 19 -28 19 -32 19 -40 6z"/>
 <path d="M305 680 c-3 -5 8 -16 24 -25 30 -15 52 -6 28 12 -20 16 -46 23 -52 13z"/>
 <path d="M2641 667 c-6 -8 -8 -17 -5 -20 10 -9 45 13 39 24 -9 13 -21 11 -34 -4z"/>
 <path d="M2555 616 c-11 -8 -14 -16 -8 -19 6 -4 18 0 28 7 11 8 14 16 8 19 -6 4 -18 0 -28 -7z"/>
 <path d="M445 600 c-3 -5 8 -16 24 -25 18 -9 32 -11 36 -5 3 5 -8 16 -24 25 -18 9 -32 11 -36 5z"/>
 <path d="M2477 574 c-38 -20 -24 -38 14 -19 16 9 27 20 24 25 -7 12 -4 13 -38 -6z"/>
 <path d="M515 561 c-3 -6 3 -15 14 -21 12 -6 22 -6 26 -1 3 6 -3 15 -14 21 -12 6 -22 6 -26 1z"/>
 <path d="M2409 532 c-29 -24 -11 -36 20 -13 14 11 19 21 13 25 -5 3 -20 -2 -33 -12z"/>
 <path d="M585 520 c-3 -5 8 -16 24 -25 18 -9 32 -11 36 -5 3 5 -8 16 -24 25 -18 9 -32 11 -36 5z"/>
 <path d="M2331 487 c-6 -8 -8 -17 -5 -20 10 -9 45 13 39 24 -9 13 -21 11 -34 -4z"/>
 <path d="M655 481 c-3 -6 3 -15 14 -21 12 -6 22 -6 26 -1 3 6 -3 15 -14 21 -12 6 -22 6 -26 1z"/>
 <path d="M2257 444 c-38 -20 -24 -38 14 -19 16 9 27 20 24 25 -7 12 -4 13 -38 -6z"/>
 <path d="M725 441 c-3 -6 3 -15 14 -21 12 -6 22 -6 26 -1 3 6 -3 15 -14 21 -12 6 -22 6 -26 1z"/>
 <path d="M2187 404 c-38 -20 -24 -38 14 -19 16 9 27 20 24 25 -7 12 -4 13 -38 -6z"/>
 <path d="M795 400 c-3 -5 8 -16 24 -25 18 -9 32 -11 36 -5 3 5 -8 16 -24 25 -18 9 -32 11 -36 5z"/>
 <path d="M865 361 c-3 -6 3 -15 14 -21 12 -6 22 -6 26 -1 3 6 -3 15 -14 21 -12 6 -22 6 -26 1z"/>
 <path d="M936 321 c-3 -5 13 -21 37 -34 54 -32 62 -35 64 -22 2 14 -94 68 -101 56z"/>
 <path d="M2025 311 c-7 -12 12 -24 25 -16 11 7 4 25 -10 25 -5 0 -11 -4 -15 -9z"/>
 <path d="M1947 264 c-38 -20 -24 -38 14 -19 16 9 27 20 24 25 -7 12 -4 13 -38 -6z"/>
 <path d="M1055 250 c-3 -5 12 -18 34 -30 23 -11 42 -16 46 -10 3 5 -12 18 -34 30 -23 11 -42 16 -46 10z"/>
 <path d="M1877 224 c-38 -20 -24 -38 14 -19 16 9 27 20 24 25 -7 12 -4 13 -38 -6z"/>
 <path d="M1145 201 c-3 -6 3 -15 14 -21 12 -6 22 -6 26 -1 3 6 -3 15 -14 21 -12 6 -22 6 -26 1z"/>
 <path d="M1195 170 c-3 -5 8 -16 24 -25 18 -9 32 -11 36 -5 3 5 -8 16 -24 25 -18 9 -32 11 -36 5z"/>
 <path d="M1775 166 c-11 -8 -14 -16 -8 -19 6 -4 18 0 28 7 11 8 14 16 8 19 -6 4 -18 0 -28 -7z"/>
 <path d="M1702 124 c-32 -22 -17 -37 19 -19 16 9 27 20 24 25 -8 14 -17 12 -43 -6z"/>
 <path d="M1286 121 c-3 -5 13 -21 37 -34 54 -32 62 -35 64 -22 2 14 -94 68 -101 56z"/>
 <path d="M1638 86 c-45 -24 -49 -27 -43 -37 4 -5 24 0 46 11 22 12 37 25 34 30 -8 12 -5 13 -37 -4z"/>
 <path d="M1405 50 c-7 -12 31 -32 53 -28 13 3 9 8 -15 21 -18 10 -34 13 -38 7z"/>
 <path d="M1540 31 c-14 -11 -36 -21 -50 -24 l-25 -4 26 -2 c34 -1 102 27 94 39 -9 14 -16 12 -45 -9z"/>
 </g>

<g fill="#cb248b" stroke="none">
 <path d="M1470 2990 c-8 -5 -60 -34 -115 -65 -118 -67 -110 -62 -205 -118 -41 -24 -95 -55 -120 -69 -25 -14 -59 -34 -77 -44 -131 -79 -180 -106 -190 -108 -7 -1 -20 -9 -30 -17 -19 -17 -182 -114 -192 -115 -7 0 -88 -49 -145 -86 -22 -15 -46 -28 -52 -28 -6 0 -17 -7 -24 -15 -6 -8 -15 -14 -18 -13 -4 1 -31 -13 -59 -32 l-53 -33 0 -572 c0 -314 3 -653 7 -753 l6 -181 196 -112 c108 -62 210 -121 226 -133 17 -12 32 -21 35 -21 9 -1 75 -38 105 -59 17 -11 33 -21 36 -21 4 0 26 -12 49 -27 23 -16 45 -28 50 -28 4 0 13 -7 20 -15 7 -8 15 -13 19 -11 3 2 25 -9 49 -25 23 -16 46 -29 50 -29 5 0 30 -14 58 -32 27 -18 51 -32 54 -33 3 0 31 -16 63 -35 32 -19 77 -45 100 -58 23 -12 56 -31 72 -42 37 -25 72 -40 106 -47 28 -5 81 19 204 91 39 22 81 47 95 54 14 7 43 24 65 37 55 33 119 69 125 70 3 0 25 14 50 31 25 16 56 36 70 43 49 24 90 49 105 61 8 7 15 9 15 6 0 -4 15 4 33 18 17 13 34 24 37 24 3 -1 24 11 48 26 24 15 60 37 80 48 20 12 55 32 77 45 22 13 54 30 71 38 17 8 59 32 92 55 34 22 64 40 67 40 3 0 23 12 45 26 l40 27 0 572 c0 314 -3 653 -7 753 l-6 181 -41 28 c-23 14 -41 25 -42 22 0 -2 -17 9 -37 24 -20 15 -37 25 -37 21 0 -3 -16 6 -35 20 -19 15 -35 24 -35 20 0 -3 -16 6 -35 20 -19 15 -35 24 -35 20 0 -3 -15 4 -32 18 -18 13 -44 29 -58 36 -38 19 -66 36 -84 51 -9 7 -16 10 -16 6 0 -4 -7 -1 -16 6 -18 15 -40 27 -99 58 -22 12 -53 30 -70 41 -16 10 -43 26 -60 34 -16 9 -48 26 -70 40 -22 14 -51 31 -65 39 -14 8 -86 49 -160 92 -169 98 -260 145 -274 144 -6 0 -18 -4 -26 -9z m258 -404 c328 -166 552 -497 552 -815 0 -209 -93 -371 -260 -450 -70 -33 -81 -36 -170 -35 -73 1 -108 6 -152 23 -111 43 -188 155 -188 271 0 62 36 108 91 116 46 8 102 -17 118 -52 14 -32 14 -86 0 -118 -11 -23 -71 -56 -104 -56 -27 0 -27 -22 1 -52 48 -50 100 -71 190 -76 119 -6 171 13 255 97 105 106 146 219 136 376 -19 288 -206 571 -489 740 -117 69 -101 92 20 31z m-735 -520 c21 -8 48 -22 59 -33 32 -28 68 -113 68 -163 1 -25 4 -63 8 -84 7 -37 10 -40 55 -52 112 -29 177 -112 185 -238 9 -154 -48 -235 -180 -254 l-53 -7 -3 -138 -3 -138 64 -70 c107 -117 143 -214 125 -340 -10 -77 -45 -139 -93 -164 -32 -18 -38 -19 -63 -5 -65 37 -110 170 -119 357 l-6 134 -91 46 c-184 92 -303 190 -361 294 -28 50 -30 62 -30 154 0 117 17 165 86 240 71 76 212 134 330 135 25 0 50 5 57 12 19 19 16 173 -4 214 -33 69 -92 91 -154 59 -37 -19 -50 -43 -51 -97 -1 -65 -12 -93 -36 -96 -50 -7 -56 88 -10 157 28 42 113 91 156 91 15 -1 43 -7 64 -14z m1531 -127 c35 -27 37 -98 4 -129 -28 -26 -88 -27 -119 -1 -34 28 -34 104 0 132 31 25 82 24 115 -2z m9 -340 c10 -13 17 -38 17 -64 0 -54 -26 -80 -82 -80 -71 0 -112 77 -72 133 32 46 103 52 137 11z"/>
 <path d="M1134 1687 c-2 -7 -3 -87 -2 -177 l3 -165 35 3 c61 5 98 22 131 59 30 35 31 40 26 100 -6 74 -36 129 -89 160 -44 27 -97 37 -104 20z"/>
 <path d="M940 1675 c-75 -24 -140 -82 -179 -158 -30 -59 -35 -76 -35 -145 0 -87 22 -142 89 -219 42 -49 200 -158 215 -148 6 4 10 51 10 115 l0 108 -44 22 c-62 30 -96 97 -96 191 0 83 6 99 36 99 27 0 31 -11 37 -103 4 -62 24 -94 51 -84 14 6 16 28 14 169 l-3 163 -25 2 c-14 1 -45 -4 -70 -12z"/>
 <path d="M1134 805 c-10 -26 2 -274 16 -327 7 -26 18 -52 25 -58 19 -15 59 21 89 82 51 102 26 211 -65 279 -53 40 -59 42 -65 24z"/>
 </g>

</svg>