<?xml version="1.0" ?><svg height="32px" version="1.1" viewBox="0 0 32 32" width="32px" xmlns="http://www.w3.org/2000/svg" xmlns:xlink="http://www.w3.org/1999/xlink"><title/><desc/><defs/><g fill="none" fill-rule="evenodd" id="Clearly-Night" stroke="none" stroke-width="1"><g stroke="#979797" transform="translate(4.000000, 3.000000)"><path d="M8.58855755,0.76761511 C7.57578659,2.61805976 7,4.7417888 7,7 C7,14.1797017 12.8202983,20 20,20 C21.5486507,20 23.034054,19.7292058 24.4114424,19.2323849 C22.2042341,23.2651989 17.9214905,26 13,26 C5.82029825,26 0,20.1797017 0,13 C0,7.36894896 3.58023357,2.57410627 8.58855755,0.76761511 Z" id="Combined-Shape" stroke-linecap="round" stroke-linejoin="round" stroke-width="2"/><polygon fill="#D8D8D8" id="Star" points="12.25 6.39154576 12.1030537 6.45225425 12.115382 6.29374004 12.0122359 6.17274575 12.1668015 6.13548708 12.25 6 12.3331985 6.13548708 12.4877641 6.17274575 12.384618 6.29374004 12.3969463 6.45225425"/><polygon fill="#D8D8D8" id="Star" points="20 6.56618304 19.4122147 6.80901699 19.4615279 6.17496018 19.0489435 5.69098301 19.667206 5.5419483 20 5 20.332794 5.5419483 20.9510565 5.69098301 20.5384721 6.17496018 20.5877853 6.80901699"/><polygon fill="#D8D8D8" id="Star" points="15.5 9.78309152 15.2061074 9.9045085 15.230764 9.58748009 15.0244717 9.3454915 15.333603 9.27097415 15.5 9 15.666397 9.27097415 15.9755283 9.3454915 15.769236 9.58748009 15.7938926 9.9045085"/><polygon fill="#D8D8D8" id="Star" points="16 2.56618304 15.4122147 2.80901699 15.4615279 2.17496018 15.0489435 1.69098301 15.667206 1.5419483 16 1 16.332794 1.5419483 16.9510565 1.69098301 16.5384721 2.17496018 16.5877853 2.80901699"/></g></g></svg>