<svg xmlns="http://www.w3.org/2000/svg" viewBox="0 0 176.95 28">
    <title>BookBrainz_logo_mini</title>
    <polygon points="12 0 0 7 0 21 12 28 12 0" style="fill:#754e37"/>
    <polygon points="13 0 25 7 25 21 13 28 13 0" style="fill:#eb743b"/>
    <path d="M35.56,25V5.09h7.15a14.77,14.77,0,0,1,3.3.33,7.29,7.29,0,0,1,2.47,1A4.6,4.6,0,0,1,50,8.16a5.22,5.22,0,0,1,.53,2.43,5.69,5.69,0,0,1-.15,1.32,4.21,4.21,0,0,1-.49,1.2,3.92,3.92,0,0,1-.87,1,4.45,4.45,0,0,1-1.3.73,4.56,4.56,0,0,1,1.5.67,3.89,3.89,0,0,1,1,1,4,4,0,0,1,.55,1.24A5.36,5.36,0,0,1,51,19.11a5.26,5.26,0,0,1-1.89,4.42A9,9,0,0,1,43.5,25Zm4.8-11.61h2.5a3.56,3.56,0,0,0,2.24-.57,2,2,0,0,0,.67-1.65A2.14,2.14,0,0,0,45,9.35a3.89,3.89,0,0,0-2.34-.55H40.36Zm0,3.14v4.77H43.5a3.8,3.8,0,0,0,1.24-.18,2.25,2.25,0,0,0,.83-.49,1.88,1.88,0,0,0,.47-.72A2.55,2.55,0,0,0,46.2,19a3.69,3.69,0,0,0-.14-1,1.92,1.92,0,0,0-.44-.79,2,2,0,0,0-.78-.5,3.36,3.36,0,0,0-1.16-.18Z"
          transform="translate(-2 -1)" style="fill:#754e37"/>
    <path d="M52.83,17.47a9.34,9.34,0,0,1,.46-3,6.81,6.81,0,0,1,1.37-2.39A6.19,6.19,0,0,1,56.9,10.5a8.59,8.59,0,0,1,6.14,0,6.19,6.19,0,0,1,2.24,1.58,6.81,6.81,0,0,1,1.37,2.39,9.34,9.34,0,0,1,.46,3v.29a9.43,9.43,0,0,1-.46,3,6.67,6.67,0,0,1-1.36,2.38A6.24,6.24,0,0,1,63,24.71a8.59,8.59,0,0,1-6.14,0,6.31,6.31,0,0,1-2.24-1.57,6.69,6.69,0,0,1-1.37-2.38,9.32,9.32,0,0,1-.46-3Zm4.61.29a9.9,9.9,0,0,0,.12,1.56A3.84,3.84,0,0,0,58,20.57a2.26,2.26,0,0,0,.79.84,2.28,2.28,0,0,0,1.23.31,2.09,2.09,0,0,0,2-1.15,4.08,4.08,0,0,0,.41-1.26,9.32,9.32,0,0,0,.12-1.56v-.29a9.71,9.71,0,0,0-.12-1.53A3.91,3.91,0,0,0,62,14.67a2.35,2.35,0,0,0-.79-.86A2.21,2.21,0,0,0,60,13.49a2.15,2.15,0,0,0-1.21.32,2.31,2.31,0,0,0-.77.86,4.17,4.17,0,0,0-.41,1.26,9.14,9.14,0,0,0-.12,1.53Z"
          transform="translate(-2 -1)" style="fill:#754e37"/>
    <path d="M68.55,17.47a9.34,9.34,0,0,1,.46-3,6.81,6.81,0,0,1,1.37-2.39,6.19,6.19,0,0,1,2.24-1.58,8.59,8.59,0,0,1,6.14,0A6.19,6.19,0,0,1,81,12.08a6.81,6.81,0,0,1,1.37,2.39,9.34,9.34,0,0,1,.46,3v.29a9.43,9.43,0,0,1-.46,3A6.67,6.67,0,0,1,81,23.13a6.24,6.24,0,0,1-2.24,1.57,8.59,8.59,0,0,1-6.14,0,6.31,6.31,0,0,1-2.24-1.57A6.69,6.69,0,0,1,69,20.75a9.32,9.32,0,0,1-.46-3Zm4.61.29a9.9,9.9,0,0,0,.12,1.56,3.84,3.84,0,0,0,.41,1.26,2.26,2.26,0,0,0,.79.84,2.28,2.28,0,0,0,1.23.31,2.09,2.09,0,0,0,2-1.15,4.08,4.08,0,0,0,.41-1.26,9.32,9.32,0,0,0,.12-1.56v-.29a9.71,9.71,0,0,0-.12-1.53,3.91,3.91,0,0,0-.41-1.26,2.35,2.35,0,0,0-.79-.86,2.21,2.21,0,0,0-1.23-.32,2.15,2.15,0,0,0-1.21.32,2.31,2.31,0,0,0-.77.86,4.17,4.17,0,0,0-.41,1.26,9.14,9.14,0,0,0-.12,1.53Z"
          transform="translate(-2 -1)" style="fill:#754e37"/>
    <path d="M90.79,19.49l-1.3,1.3V25H84.89V4H89.5V15.14l.46-.62,3.47-4.32H99l-5.18,6.08L99.3,25H94Z"
          transform="translate(-2 -1)" style="fill:#754e37"/>
    <path d="M100.38,25V5.09h7.15a14.77,14.77,0,0,1,3.3.33,7.29,7.29,0,0,1,2.47,1,4.6,4.6,0,0,1,1.54,1.72,5.22,5.22,0,0,1,.53,2.43,5.69,5.69,0,0,1-.15,1.32,4.21,4.21,0,0,1-.49,1.2,3.92,3.92,0,0,1-.87,1,4.45,4.45,0,0,1-1.3.73,4.56,4.56,0,0,1,1.5.67,3.89,3.89,0,0,1,1,1,4,4,0,0,1,.55,1.24,5.36,5.36,0,0,1,.17,1.35,5.26,5.26,0,0,1-1.89,4.42A9,9,0,0,1,108.32,25Zm4.8-11.61h2.5a3.56,3.56,0,0,0,2.24-.57,2,2,0,0,0,.67-1.65,2.14,2.14,0,0,0-.72-1.81,3.89,3.89,0,0,0-2.34-.55h-2.35Zm0,3.14v4.77h3.14a3.8,3.8,0,0,0,1.24-.18,2.25,2.25,0,0,0,.83-.49,1.88,1.88,0,0,0,.47-.72A2.55,2.55,0,0,0,111,19a3.69,3.69,0,0,0-.14-1,1.92,1.92,0,0,0-.44-.79,2,2,0,0,0-.78-.5,3.36,3.36,0,0,0-1.16-.18Z"
          transform="translate(-2 -1)" style="fill:#eb743b"/>
    <path d="M127.18,14.38l-.33,0-.41,0-.42,0h-.36a4.09,4.09,0,0,0-1.79.33,2.06,2.06,0,0,0-1,1V25h-4.61V10.21h4.32l.15,1.9a4.51,4.51,0,0,1,1.36-1.6A3.18,3.18,0,0,1,126,9.93a5.57,5.57,0,0,1,.68,0,3.68,3.68,0,0,1,.61.12Z"
          transform="translate(-2 -1)" style="fill:#eb743b"/>
    <path d="M136.76,25a3.19,3.19,0,0,1-.25-.61q-.1-.34-.18-.72a4.24,4.24,0,0,1-3.55,1.6,5.66,5.66,0,0,1-1.93-.33,5.11,5.11,0,0,1-1.59-.91,4.31,4.31,0,0,1-1.09-1.4,4,4,0,0,1-.4-1.8,4.83,4.83,0,0,1,.42-2.05,3.89,3.89,0,0,1,1.27-1.52,6.3,6.3,0,0,1,2.16-1,12.56,12.56,0,0,1,3.1-.33h1.42v-.78a2.43,2.43,0,0,0-.41-1.49,1.58,1.58,0,0,0-1.35-.55,1.71,1.71,0,0,0-1.22.4,1.59,1.59,0,0,0-.42,1.22h-4.61a4.11,4.11,0,0,1,.46-1.91,4.49,4.49,0,0,1,1.31-1.53,6.54,6.54,0,0,1,2-1,9,9,0,0,1,2.67-.37,8.76,8.76,0,0,1,2.45.33,5.5,5.5,0,0,1,1.95,1,4.61,4.61,0,0,1,1.29,1.65,5.38,5.38,0,0,1,.46,2.3v6.06q0,.73,0,1.26a7.71,7.71,0,0,0,.12.94,5,5,0,0,0,.2.72,4.26,4.26,0,0,0,.27.59V25Zm-2.88-3a2.57,2.57,0,0,0,1.43-.37,2.32,2.32,0,0,0,.81-.83V18.42h-1.45a2.94,2.94,0,0,0-1.09.18,1.85,1.85,0,0,0-.71.48,1.8,1.8,0,0,0-.38.69,2.84,2.84,0,0,0-.12.81,1.32,1.32,0,0,0,.42,1A1.53,1.53,0,0,0,133.88,22Z"
          transform="translate(-2 -1)" style="fill:#eb743b"/>
    <path d="M143.25,6.39a2.17,2.17,0,0,1,.18-.9,2.07,2.07,0,0,1,.53-.71,2.44,2.44,0,0,1,.81-.46,3.37,3.37,0,0,1,2.08,0,2.44,2.44,0,0,1,.81.46,2.07,2.07,0,0,1,.53.71,2.3,2.3,0,0,1,0,1.8,2.07,2.07,0,0,1-.53.71,2.44,2.44,0,0,1-.81.46,3.37,3.37,0,0,1-2.08,0A2.44,2.44,0,0,1,144,8a2.07,2.07,0,0,1-.53-.71A2.17,2.17,0,0,1,143.25,6.39ZM148.15,25h-4.62V10.21h4.62Z"
          transform="translate(-2 -1)" style="fill:#eb743b"/>
    <path d="M155.22,10.21l.15,1.74a5,5,0,0,1,1.83-1.5,5.5,5.5,0,0,1,2.4-.51,5.74,5.74,0,0,1,1.88.29,3.5,3.5,0,0,1,1.47,1,4.59,4.59,0,0,1,1,1.78,9.43,9.43,0,0,1,.33,2.71V25h-4.62V15.68a3.48,3.48,0,0,0-.14-1.09,1.58,1.58,0,0,0-.41-.67,1.41,1.41,0,0,0-.66-.33,4,4,0,0,0-.88-.09,2.37,2.37,0,0,0-1.22.29,2.26,2.26,0,0,0-.79.78V25H150.9V10.21Z"
          transform="translate(-2 -1)" style="fill:#eb743b"/>
    <path d="M172.21,21.45H179V25H166.39V22.43l6.56-8.67h-6.28V10.21H178.8V12.7Z" transform="translate(-2 -1)"
          style="fill:#eb743b"/>
</svg>
