<svg xmlns="http://www.w3.org/2000/svg" viewBox="0 0 212.38 29.65">
    <defs>
        <style>.a{fill:#36b5b2;}.b{fill:#eb743b;}</style>
    </defs>
    <title>CritiqueBrainz_logo_mini</title>
    <polygon class="a" points="12 0 0 7 0 21 12 28 12 0"/>
    <polygon class="b" points="13 0 25 7 25 21 13 28 13 0"/>
    <path class="a"
          d="M51.15,18.22a7.46,7.46,0,0,1-.67,2.85,6.56,6.56,0,0,1-1.67,2.21,7.67,7.67,0,0,1-2.56,1.44,10.21,10.21,0,0,1-3.34.51,9,9,0,0,1-3.56-.67,7.22,7.22,0,0,1-2.65-1.92,8.46,8.46,0,0,1-1.65-3,13.4,13.4,0,0,1-.57-4V14.48a12.82,12.82,0,0,1,.59-4,8.76,8.76,0,0,1,1.7-3.06,7.43,7.43,0,0,1,2.65-1.93,8.5,8.5,0,0,1,3.45-.68,10.1,10.1,0,0,1,3.44.54,7.4,7.4,0,0,1,2.54,1.5,6.86,6.86,0,0,1,1.63,2.27,8.84,8.84,0,0,1,.72,2.86H46.41a5.68,5.68,0,0,0-.23-1.48,2.53,2.53,0,0,0-.62-1.07,2.71,2.71,0,0,0-1.08-.64,5.16,5.16,0,0,0-1.61-.22,3.41,3.41,0,0,0-1.54.33,2.71,2.71,0,0,0-1.09,1,5.41,5.41,0,0,0-.65,1.84,14.91,14.91,0,0,0-.21,2.71v1.11a16.33,16.33,0,0,0,.19,2.71,5.51,5.51,0,0,0,.61,1.84,2.54,2.54,0,0,0,1.09,1,3.79,3.79,0,0,0,1.66.33,3.68,3.68,0,0,0,2.53-.78,3.31,3.31,0,0,0,.93-2.47h4.77Z"
          transform="translate(-2 -1)"/>
    <path class="a"
          d="M62.16,14.34l-0.33,0-0.41,0-0.42,0H60.64a4.09,4.09,0,0,0-1.79.33,2.06,2.06,0,0,0-1,1V25H53.24V10.17h4.32l0.15,1.9a4.51,4.51,0,0,1,1.36-1.6A3.18,3.18,0,0,1,61,9.9a5.57,5.57,0,0,1,.68,0,3.68,3.68,0,0,1,.61.12Z"
          transform="translate(-2 -1)"/>
    <path class="a"
          d="M63.79,6.35A2.17,2.17,0,0,1,64,5.45a2.07,2.07,0,0,1,.53-0.71,2.44,2.44,0,0,1,.81-0.46,3.37,3.37,0,0,1,2.08,0,2.44,2.44,0,0,1,.81.46,2.07,2.07,0,0,1,.53.71,2.3,2.3,0,0,1,0,1.8,2.07,2.07,0,0,1-.53.71,2.44,2.44,0,0,1-.81.46,3.37,3.37,0,0,1-2.08,0A2.44,2.44,0,0,1,64.5,8,2.07,2.07,0,0,1,64,7.26,2.17,2.17,0,0,1,63.79,6.35ZM68.68,25H64.06V10.17h4.62V25Z"
          transform="translate(-2 -1)"/>
    <path class="a"
          d="M76.88,6.49v3.68h2.43v3.2H76.88v6.77a2.94,2.94,0,0,0,.08.72,1,1,0,0,0,.25.46,0.94,0.94,0,0,0,.46.24,3.11,3.11,0,0,0,.71.07l0.66,0,0.49-.06v3.29a8.61,8.61,0,0,1-1.23.29,8.51,8.51,0,0,1-1.37.1,7.06,7.06,0,0,1-2-.25,3.62,3.62,0,0,1-1.46-.8,3.45,3.45,0,0,1-.9-1.41,6.16,6.16,0,0,1-.31-2.06V13.37H70.39v-3.2h1.89V6.49h4.61Z"
          transform="translate(-2 -1)"/>
    <path class="a"
          d="M81.09,6.35a2.17,2.17,0,0,1,.18-0.9,2.07,2.07,0,0,1,.53-0.71,2.44,2.44,0,0,1,.81-0.46,3.37,3.37,0,0,1,2.08,0,2.44,2.44,0,0,1,.81.46,2.07,2.07,0,0,1,.53.71,2.3,2.3,0,0,1,0,1.8A2.07,2.07,0,0,1,85.5,8a2.44,2.44,0,0,1-.81.46,3.37,3.37,0,0,1-2.08,0A2.44,2.44,0,0,1,81.8,8a2.07,2.07,0,0,1-.53-0.71A2.17,2.17,0,0,1,81.09,6.35ZM86,25H81.37V10.17H86V25Z"
          transform="translate(-2 -1)"/>
    <path class="a"
          d="M88.24,17.42a11.93,11.93,0,0,1,.37-3.07A7,7,0,0,1,89.71,12a5,5,0,0,1,1.8-1.53A5.45,5.45,0,0,1,94,9.9a4.28,4.28,0,0,1,2.11.49,4.75,4.75,0,0,1,1.53,1.37L98,10.17h4V30.65H97.34V23.73a4.59,4.59,0,0,1-1.45,1.11,4.35,4.35,0,0,1-1.91.4,5.15,5.15,0,0,1-2.47-.57,5.24,5.24,0,0,1-1.8-1.58,7.22,7.22,0,0,1-1.09-2.39,11.57,11.57,0,0,1-.37-3V17.42Zm4.61,0.29A10.42,10.42,0,0,0,93,19.26a4.31,4.31,0,0,0,.38,1.26,2.18,2.18,0,0,0,.71.85,1.89,1.89,0,0,0,1.1.31,2.65,2.65,0,0,0,1.37-.31,2.11,2.11,0,0,0,.81-0.89V14.63a2,2,0,0,0-.81-0.88,2.73,2.73,0,0,0-1.35-.29,1.92,1.92,0,0,0-1.09.29,2.14,2.14,0,0,0-.72.83,4.33,4.33,0,0,0-.4,1.26,9.5,9.5,0,0,0-.12,1.59V17.7Z"
          transform="translate(-2 -1)"/>
    <path class="a"
          d="M113.37,23.36a4.9,4.9,0,0,1-1.68,1.38,5,5,0,0,1-2.27.49,6.22,6.22,0,0,1-2-.31,3.89,3.89,0,0,1-1.56-1,4.51,4.51,0,0,1-1-1.71,7.7,7.7,0,0,1-.36-2.51V10.17h4.61v9.6a2,2,0,0,0,.47,1.45,1.88,1.88,0,0,0,1.37.46,2.87,2.87,0,0,0,1.4-.3,2.24,2.24,0,0,0,.85-0.83V10.17h4.63V25h-4.32Z"
          transform="translate(-2 -1)"/>
    <path class="a"
          d="M127.51,25.24a8.56,8.56,0,0,1-3.23-.57,7,7,0,0,1-2.39-1.56,6.74,6.74,0,0,1-1.48-2.28,7.45,7.45,0,0,1-.51-2.76V17.54a9.93,9.93,0,0,1,.44-3,6.73,6.73,0,0,1,1.34-2.43,6.26,6.26,0,0,1,2.23-1.61A7.66,7.66,0,0,1,127,9.9a7.48,7.48,0,0,1,2.82.51A5.78,5.78,0,0,1,132,11.85a6.36,6.36,0,0,1,1.33,2.28,9.25,9.25,0,0,1,.46,3V19h-9.16a3.32,3.32,0,0,0,1.08,2,3.22,3.22,0,0,0,2.16.71,5,5,0,0,0,1.85-.36,3.73,3.73,0,0,0,1.57-1.18l2.11,2.49a5.37,5.37,0,0,1-.91,1,6.35,6.35,0,0,1-1.29.83A8.24,8.24,0,0,1,127.51,25.24ZM127,13.45a2.3,2.3,0,0,0-1,.21,2,2,0,0,0-.7.56,2.78,2.78,0,0,0-.44.85,6.1,6.1,0,0,0-.25,1.07h4.65V15.77a2.28,2.28,0,0,0-.56-1.72A2.23,2.23,0,0,0,127,13.45Z"
          transform="translate(-2 -1)"/>
    <path class="b"
          d="M135.81,25V5.06H143a14.77,14.77,0,0,1,3.3.33,7.29,7.29,0,0,1,2.47,1,4.6,4.6,0,0,1,1.54,1.72,5.22,5.22,0,0,1,.53,2.43,5.69,5.69,0,0,1-.15,1.32,4.21,4.21,0,0,1-.49,1.2,3.92,3.92,0,0,1-.87,1,4.45,4.45,0,0,1-1.3.73,4.56,4.56,0,0,1,1.5.67,3.89,3.89,0,0,1,1,1,4,4,0,0,1,.55,1.24,5.36,5.36,0,0,1,.17,1.35,5.26,5.26,0,0,1-1.89,4.42A9,9,0,0,1,143.75,25h-7.94Zm4.8-11.61h2.5a3.56,3.56,0,0,0,2.24-.57,2,2,0,0,0,.67-1.65,2.14,2.14,0,0,0-.72-1.81A3.89,3.89,0,0,0,143,8.76h-2.35v4.59Zm0,3.14v4.77h3.14a3.8,3.8,0,0,0,1.24-.18,2.25,2.25,0,0,0,.83-0.49,1.88,1.88,0,0,0,.47-0.72,2.55,2.55,0,0,0,.15-0.89,3.69,3.69,0,0,0-.14-1,1.92,1.92,0,0,0-.44-0.79,2,2,0,0,0-.78-0.5,3.36,3.36,0,0,0-1.16-.18h-3.32Z"
          transform="translate(-2 -1)"/>
    <path class="b"
          d="M162.61,14.34l-0.33,0-0.41,0-0.42,0h-0.36a4.09,4.09,0,0,0-1.79.33,2.06,2.06,0,0,0-1,1V25h-4.61V10.17H158l0.15,1.9a4.51,4.51,0,0,1,1.36-1.6,3.18,3.18,0,0,1,1.88-.57,5.57,5.57,0,0,1,.68,0,3.68,3.68,0,0,1,.61.12Z"
          transform="translate(-2 -1)"/>
    <path class="b"
          d="M172.19,25a3.19,3.19,0,0,1-.25-0.61q-0.1-.34-0.18-0.72a4.24,4.24,0,0,1-3.55,1.6,5.66,5.66,0,0,1-1.93-.33,5.11,5.11,0,0,1-1.59-.91,4.31,4.31,0,0,1-1.09-1.4,4,4,0,0,1-.4-1.8,4.83,4.83,0,0,1,.42-2.05,3.89,3.89,0,0,1,1.27-1.52,6.3,6.3,0,0,1,2.16-1,12.56,12.56,0,0,1,3.1-.33h1.42V15.15a2.43,2.43,0,0,0-.41-1.49,1.58,1.58,0,0,0-1.35-.55,1.71,1.71,0,0,0-1.22.4,1.59,1.59,0,0,0-.42,1.22h-4.61a4.11,4.11,0,0,1,.46-1.91,4.49,4.49,0,0,1,1.31-1.53,6.54,6.54,0,0,1,2-1A9,9,0,0,1,170,9.9a8.76,8.76,0,0,1,2.45.33,5.5,5.5,0,0,1,1.95,1,4.61,4.61,0,0,1,1.29,1.65,5.38,5.38,0,0,1,.46,2.3v6.06q0,0.73,0,1.26a7.71,7.71,0,0,0,.12.94,5,5,0,0,0,.2.72,4.26,4.26,0,0,0,.27.59V25h-4.61Zm-2.88-3a2.57,2.57,0,0,0,1.43-.37,2.32,2.32,0,0,0,.81-0.83V18.39H170.1a2.94,2.94,0,0,0-1.09.18,1.85,1.85,0,0,0-.71.48,1.8,1.8,0,0,0-.38.69,2.84,2.84,0,0,0-.12.81,1.32,1.32,0,0,0,.42,1A1.53,1.53,0,0,0,169.3,22Z"
          transform="translate(-2 -1)"/>
    <path class="b"
          d="M178.68,6.35a2.17,2.17,0,0,1,.18-0.9,2.07,2.07,0,0,1,.53-0.71,2.44,2.44,0,0,1,.81-0.46,3.37,3.37,0,0,1,2.08,0,2.44,2.44,0,0,1,.81.46,2.07,2.07,0,0,1,.53.71,2.3,2.3,0,0,1,0,1.8,2.07,2.07,0,0,1-.53.71,2.44,2.44,0,0,1-.81.46,3.37,3.37,0,0,1-2.08,0A2.44,2.44,0,0,1,179.39,8a2.07,2.07,0,0,1-.53-0.71A2.17,2.17,0,0,1,178.68,6.35ZM183.58,25H179V10.17h4.62V25Z"
          transform="translate(-2 -1)"/>
    <path class="b"
          d="M190.65,10.17l0.15,1.74a5,5,0,0,1,1.83-1.5A5.5,5.5,0,0,1,195,9.9a5.74,5.74,0,0,1,1.88.29,3.5,3.5,0,0,1,1.47,1,4.59,4.59,0,0,1,1,1.78,9.43,9.43,0,0,1,.33,2.71V25H195V15.64a3.48,3.48,0,0,0-.14-1.09,1.58,1.58,0,0,0-.41-0.67,1.41,1.41,0,0,0-.66-0.33,4,4,0,0,0-.88-0.09,2.37,2.37,0,0,0-1.22.29,2.26,2.26,0,0,0-.79.78V25h-4.61V10.17h4.32Z"
          transform="translate(-2 -1)"/>
    <path class="b" d="M207.64,21.41h6.74V25H201.82V22.39l6.56-8.67H202.1V10.17h12.13v2.49Z"
          transform="translate(-2 -1)"/>
</svg>
