<svg xmlns="http://www.w3.org/2000/svg" viewBox="0 0 176.58 28">
    <title>MetaBrainz_logo_mini</title>
    <polygon points="12 0 0 7 0 21 12 28 12 0" style="fill:#5aa854"/>
    <polygon points="13 0 25 7 25 21 13 28 13 0" style="fill:#eb743b"/>
    <path d="M42.06,5.09,46.5,18.94,50.93,5.09h6.32V25H52.43V20.35l.46-9.52L48.09,25H44.91L40.09,10.82l.46,9.53V25h-4.8V5.09Z"
          transform="translate(-2 -1)" style="fill:#5aa854"/>
    <path d="M67.24,25.27A8.56,8.56,0,0,1,64,24.7a7,7,0,0,1-2.39-1.56,6.74,6.74,0,0,1-1.48-2.28,7.45,7.45,0,0,1-.51-2.76v-.52a9.93,9.93,0,0,1,.44-3,6.73,6.73,0,0,1,1.34-2.43,6.26,6.26,0,0,1,2.23-1.61,7.66,7.66,0,0,1,3.11-.59,7.48,7.48,0,0,1,2.82.51,5.78,5.78,0,0,1,2.12,1.45A6.36,6.36,0,0,1,73,14.17a9.25,9.25,0,0,1,.46,3v1.87H64.31a3.32,3.32,0,0,0,1.08,2,3.22,3.22,0,0,0,2.16.71,5,5,0,0,0,1.85-.36A3.73,3.73,0,0,0,71,20.19l2.11,2.49a5.37,5.37,0,0,1-.91,1,6.35,6.35,0,0,1-1.29.83,8.24,8.24,0,0,1-3.64.81Zm-.52-11.79a2.3,2.3,0,0,0-1,.21,2,2,0,0,0-.7.56,2.78,2.78,0,0,0-.44.85,6.1,6.1,0,0,0-.25,1.07H69v-.36a2.28,2.28,0,0,0-.56-1.72A2.23,2.23,0,0,0,66.72,13.49Z"
          transform="translate(-2 -1)" style="fill:#5aa854"/>
    <path d="M80.69,6.53v3.68h2.43v3.2H80.69v6.77a2.94,2.94,0,0,0,.08.72,1,1,0,0,0,.25.46.94.94,0,0,0,.46.24,3.11,3.11,0,0,0,.71.07l.66,0,.49-.06v3.29a8.61,8.61,0,0,1-1.23.29,8.51,8.51,0,0,1-1.37.1,7.06,7.06,0,0,1-2-.25,3.62,3.62,0,0,1-1.46-.8,3.45,3.45,0,0,1-.9-1.41,6.16,6.16,0,0,1-.31-2.06V13.41H74.2v-3.2h1.89V6.53Z"
          transform="translate(-2 -1)" style="fill:#5aa854"/>
    <path d="M93.27,25a3.19,3.19,0,0,1-.25-.61q-.1-.34-.18-.72a4.24,4.24,0,0,1-3.55,1.6,5.66,5.66,0,0,1-1.93-.33A5.11,5.11,0,0,1,85.75,24a4.31,4.31,0,0,1-1.09-1.4,4,4,0,0,1-.4-1.8,4.83,4.83,0,0,1,.42-2.05A3.89,3.89,0,0,1,86,17.25a6.3,6.3,0,0,1,2.16-1,12.56,12.56,0,0,1,3.1-.33h1.42v-.78a2.43,2.43,0,0,0-.41-1.49,1.58,1.58,0,0,0-1.35-.55,1.71,1.71,0,0,0-1.22.4,1.59,1.59,0,0,0-.42,1.22H84.62a4.11,4.11,0,0,1,.46-1.91,4.49,4.49,0,0,1,1.31-1.53,6.54,6.54,0,0,1,2-1,9,9,0,0,1,2.67-.37,8.76,8.76,0,0,1,2.45.33,5.5,5.5,0,0,1,1.95,1,4.61,4.61,0,0,1,1.29,1.65,5.38,5.38,0,0,1,.46,2.3v6.06q0,.73,0,1.26a7.71,7.71,0,0,0,.12.94,5,5,0,0,0,.2.72,4.26,4.26,0,0,0,.27.59V25Zm-2.88-3a2.57,2.57,0,0,0,1.43-.37,2.32,2.32,0,0,0,.81-.83V18.42H91.18a2.94,2.94,0,0,0-1.09.18,1.85,1.85,0,0,0-.71.48,1.8,1.8,0,0,0-.38.69,2.84,2.84,0,0,0-.12.81,1.32,1.32,0,0,0,.42,1A1.53,1.53,0,0,0,90.39,22Z"
          transform="translate(-2 -1)" style="fill:#5aa854"/>
    <path d="M100,25V5.09h7.15a14.77,14.77,0,0,1,3.3.33,7.29,7.29,0,0,1,2.47,1,4.6,4.6,0,0,1,1.54,1.72,5.22,5.22,0,0,1,.53,2.43,5.69,5.69,0,0,1-.15,1.32,4.21,4.21,0,0,1-.49,1.2,3.92,3.92,0,0,1-.87,1,4.45,4.45,0,0,1-1.3.73,4.56,4.56,0,0,1,1.5.67,3.89,3.89,0,0,1,1,1,4,4,0,0,1,.55,1.24,5.36,5.36,0,0,1,.17,1.35,5.26,5.26,0,0,1-1.89,4.42A9,9,0,0,1,108,25Zm4.8-11.61h2.5a3.56,3.56,0,0,0,2.24-.57,2,2,0,0,0,.67-1.65,2.14,2.14,0,0,0-.72-1.81,3.89,3.89,0,0,0-2.34-.55h-2.35Zm0,3.14v4.77H108a3.8,3.8,0,0,0,1.24-.18,2.25,2.25,0,0,0,.83-.49,1.88,1.88,0,0,0,.47-.72,2.55,2.55,0,0,0,.15-.89,3.69,3.69,0,0,0-.14-1,1.92,1.92,0,0,0-.44-.79,2,2,0,0,0-.78-.5,3.36,3.36,0,0,0-1.16-.18Z"
          transform="translate(-2 -1)" style="fill:#eb743b"/>
    <path d="M126.81,14.38l-.33,0-.41,0-.42,0h-.36a4.09,4.09,0,0,0-1.79.33,2.06,2.06,0,0,0-1,1V25h-4.61V10.21h4.32l.15,1.9a4.51,4.51,0,0,1,1.36-1.6,3.18,3.18,0,0,1,1.88-.57,5.57,5.57,0,0,1,.68,0,3.68,3.68,0,0,1,.61.12Z"
          transform="translate(-2 -1)" style="fill:#eb743b"/>
    <path d="M136.39,25a3.19,3.19,0,0,1-.25-.61q-.1-.34-.18-.72a4.24,4.24,0,0,1-3.55,1.6,5.66,5.66,0,0,1-1.93-.33,5.11,5.11,0,0,1-1.59-.91,4.31,4.31,0,0,1-1.09-1.4,4,4,0,0,1-.4-1.8,4.83,4.83,0,0,1,.42-2.05,3.89,3.89,0,0,1,1.27-1.52,6.3,6.3,0,0,1,2.16-1,12.56,12.56,0,0,1,3.1-.33h1.42v-.78a2.43,2.43,0,0,0-.41-1.49,1.58,1.58,0,0,0-1.35-.55,1.71,1.71,0,0,0-1.22.4,1.59,1.59,0,0,0-.42,1.22h-4.61a4.11,4.11,0,0,1,.46-1.91,4.49,4.49,0,0,1,1.31-1.53,6.54,6.54,0,0,1,2-1,9,9,0,0,1,2.67-.37,8.76,8.76,0,0,1,2.45.33,5.5,5.5,0,0,1,1.95,1,4.61,4.61,0,0,1,1.29,1.65,5.38,5.38,0,0,1,.46,2.3v6.06q0,.73,0,1.26a7.71,7.71,0,0,0,.12.94,5,5,0,0,0,.2.72,4.26,4.26,0,0,0,.27.59V25Zm-2.88-3a2.57,2.57,0,0,0,1.43-.37,2.32,2.32,0,0,0,.81-.83V18.42H134.3a2.94,2.94,0,0,0-1.09.18,1.85,1.85,0,0,0-.71.48,1.8,1.8,0,0,0-.38.69,2.84,2.84,0,0,0-.12.81,1.32,1.32,0,0,0,.42,1A1.53,1.53,0,0,0,133.51,22Z"
          transform="translate(-2 -1)" style="fill:#eb743b"/>
    <path d="M142.89,6.39a2.17,2.17,0,0,1,.18-.9,2.07,2.07,0,0,1,.53-.71,2.44,2.44,0,0,1,.81-.46,3.37,3.37,0,0,1,2.08,0,2.44,2.44,0,0,1,.81.46,2.07,2.07,0,0,1,.53.71,2.3,2.3,0,0,1,0,1.8,2.07,2.07,0,0,1-.53.71,2.44,2.44,0,0,1-.81.46,3.37,3.37,0,0,1-2.08,0A2.44,2.44,0,0,1,143.6,8a2.07,2.07,0,0,1-.53-.71A2.17,2.17,0,0,1,142.89,6.39ZM147.78,25h-4.62V10.21h4.62Z"
          transform="translate(-2 -1)" style="fill:#eb743b"/>
    <path d="M154.85,10.21l.15,1.74a5,5,0,0,1,1.83-1.5,5.5,5.5,0,0,1,2.4-.51,5.74,5.74,0,0,1,1.88.29,3.5,3.5,0,0,1,1.47,1,4.59,4.59,0,0,1,1,1.78,9.43,9.43,0,0,1,.33,2.71V25h-4.62V15.68a3.48,3.48,0,0,0-.14-1.09,1.58,1.58,0,0,0-.41-.67,1.41,1.41,0,0,0-.66-.33,4,4,0,0,0-.88-.09,2.37,2.37,0,0,0-1.22.29,2.26,2.26,0,0,0-.79.78V25h-4.61V10.21Z"
          transform="translate(-2 -1)" style="fill:#eb743b"/>
    <path d="M171.84,21.45h6.74V25H166V22.43l6.56-8.67h-6.28V10.21h12.13V12.7Z" transform="translate(-2 -1)"
          style="fill:#eb743b"/>
</svg>
