<svg xmlns="http://www.w3.org/2000/svg" viewBox="0 0 112.19 28">
    <title>Picard_logo_mini</title>
    <polygon points="12 0 0 7 0 21 12 28 12 0" style="fill:#771b85"/>
    <polygon points="13 0 25 7 25 21 13 28 13 0" style="fill:#eb743b"/>
    <path d="M40.39,18.18v6.75h-4.8V5h7.94a9.67,9.67,0,0,1,3.23.51,7.08,7.08,0,0,1,2.43,1.41,6.11,6.11,0,0,1,1.53,2.14,6.75,6.75,0,0,1,.53,2.7,6.29,6.29,0,0,1-.53,2.63,5.67,5.67,0,0,1-1.53,2,7.06,7.06,0,0,1-2.43,1.3,10.58,10.58,0,0,1-3.23.46Zm0-3.71h3.14a3.77,3.77,0,0,0,1.29-.2,2.35,2.35,0,0,0,.89-.55,2.18,2.18,0,0,0,.51-.85,3.35,3.35,0,0,0,.16-1.07,4.09,4.09,0,0,0-.16-1.17,2.75,2.75,0,0,0-.51-1A2.51,2.51,0,0,0,44.83,9a3,3,0,0,0-1.29-.25H40.39Z"
          transform="translate(-2 -1)" style="fill:#771b85"/>
    <path d="M53.57,6.33a2.17,2.17,0,0,1,.18-.9,2.07,2.07,0,0,1,.53-.71,2.44,2.44,0,0,1,.81-.46,3.37,3.37,0,0,1,2.08,0,2.44,2.44,0,0,1,.81.46,2.07,2.07,0,0,1,.53.71,2.3,2.3,0,0,1,0,1.8,2.07,2.07,0,0,1-.53.71,2.44,2.44,0,0,1-.81.46,3.37,3.37,0,0,1-2.08,0,2.44,2.44,0,0,1-.81-.46,2.07,2.07,0,0,1-.53-.71A2.17,2.17,0,0,1,53.57,6.33Zm4.89,18.61H53.84V10.14h4.62Z"
          transform="translate(-2 -1)" style="fill:#771b85"/>
    <path d="M67.55,21.65a2.05,2.05,0,0,0,1.5-.53,1.93,1.93,0,0,0,.52-1.47H73.9a5.35,5.35,0,0,1-.47,2.28,5.22,5.22,0,0,1-1.31,1.75,5.88,5.88,0,0,1-2,1.13,8.13,8.13,0,0,1-5.51-.18,6,6,0,0,1-2.17-1.58,6.7,6.7,0,0,1-1.31-2.38,9.74,9.74,0,0,1-.44-3v-.31a9.81,9.81,0,0,1,.44-3A6.75,6.75,0,0,1,62.46,12a6,6,0,0,1,2.15-1.58,7.37,7.37,0,0,1,3-.57,7.81,7.81,0,0,1,2.55.4,5.57,5.57,0,0,1,2,1.16,5.18,5.18,0,0,1,1.29,1.87,6.53,6.53,0,0,1,.46,2.52H69.58a3.62,3.62,0,0,0-.12-.93,2,2,0,0,0-.38-.76,1.83,1.83,0,0,0-.65-.51,2.14,2.14,0,0,0-.92-.18,1.87,1.87,0,0,0-1.14.32,2.07,2.07,0,0,0-.66.86,4.3,4.3,0,0,0-.31,1.26,14.81,14.81,0,0,0-.08,1.52v.31a14.89,14.89,0,0,0,.08,1.54,4.3,4.3,0,0,0,.31,1.26,1.93,1.93,0,0,0,.68.85A2,2,0,0,0,67.55,21.65Z"
          transform="translate(-2 -1)" style="fill:#771b85"/>
    <path d="M84.18,24.93a3.19,3.19,0,0,1-.25-.61q-.1-.34-.18-.72a4.24,4.24,0,0,1-3.55,1.6,5.66,5.66,0,0,1-1.93-.33A5.11,5.11,0,0,1,76.66,24a4.31,4.31,0,0,1-1.09-1.4,4,4,0,0,1-.4-1.8,4.83,4.83,0,0,1,.42-2.05,3.89,3.89,0,0,1,1.27-1.52,6.3,6.3,0,0,1,2.16-1,12.56,12.56,0,0,1,3.1-.33h1.42v-.78a2.43,2.43,0,0,0-.41-1.49,1.58,1.58,0,0,0-1.35-.55,1.71,1.71,0,0,0-1.22.4,1.59,1.59,0,0,0-.42,1.22H75.53A4.11,4.11,0,0,1,76,12.78a4.49,4.49,0,0,1,1.31-1.53,6.54,6.54,0,0,1,2-1A9,9,0,0,1,82,9.87a8.76,8.76,0,0,1,2.45.33,5.5,5.5,0,0,1,1.95,1,4.61,4.61,0,0,1,1.29,1.65,5.38,5.38,0,0,1,.46,2.3V21.2q0,.73,0,1.26a7.71,7.71,0,0,0,.12.94,5,5,0,0,0,.2.72,4.26,4.26,0,0,0,.27.59v.23Zm-2.88-3a2.57,2.57,0,0,0,1.43-.37,2.32,2.32,0,0,0,.81-.83V18.36H82.09a2.94,2.94,0,0,0-1.09.18,1.85,1.85,0,0,0-.71.48,1.8,1.8,0,0,0-.38.69,2.84,2.84,0,0,0-.12.81,1.32,1.32,0,0,0,.42,1A1.53,1.53,0,0,0,81.29,21.93Z"
          transform="translate(-2 -1)" style="fill:#771b85"/>
    <path d="M99.66,14.31l-.33,0-.41,0-.42,0h-.36a4.09,4.09,0,0,0-1.79.33,2.06,2.06,0,0,0-1,1v9.37H90.74V10.14h4.32l.15,1.9a4.51,4.51,0,0,1,1.36-1.6,3.18,3.18,0,0,1,1.88-.57,5.57,5.57,0,0,1,.68,0,3.68,3.68,0,0,1,.61.12Z"
          transform="translate(-2 -1)" style="fill:#771b85"/>
    <path d="M100.48,17.43a12,12,0,0,1,.37-3.08A7.13,7.13,0,0,1,101.94,12a5,5,0,0,1,1.8-1.54,5.43,5.43,0,0,1,2.5-.55,4.13,4.13,0,0,1,1.87.41,4.75,4.75,0,0,1,1.46,1.15V3.93h4.62v21H110l-.23-1.59a5,5,0,0,1-1.54,1.36,4.14,4.14,0,0,1-2.06.5,5,5,0,0,1-4.27-2.13,7.14,7.14,0,0,1-1.09-2.37,11.49,11.49,0,0,1-.37-3Zm4.61.29a10.28,10.28,0,0,0,.11,1.55,4.21,4.21,0,0,0,.38,1.25,2.13,2.13,0,0,0,.71.83,1.92,1.92,0,0,0,1.1.3,2.49,2.49,0,0,0,1.33-.33,2.33,2.33,0,0,0,.86-1V14.73a2.21,2.21,0,0,0-2.16-1.31,1.89,1.89,0,0,0-1.09.3,2.18,2.18,0,0,0-.72.84,4.43,4.43,0,0,0-.4,1.27,9.62,9.62,0,0,0-.12,1.59Z"
          transform="translate(-2 -1)" style="fill:#771b85"/>
</svg>
