<svg xmlns="http://www.w3.org/2000/svg" viewBox="0 0 544.58 144"><title>BookBrainz_logo</title><g style="isolation:isolate"><polygon points="66 0 66 144 127 109 127 35 66 0" style="fill:#eb743b"/><polygon points="61 0 0 35 0 109 61 144 61 0" style="fill:#754e37"/><path d="M65.35,125.11h-7a1.6,1.6,0,0,1-1.6-1.6c0-2.31,0-4.92-8.35-6-8.71-1.16-31.48-4.94-31.71-5a1.6,1.6,0,0,1-1.34-1.58V49.09a1.6,1.6,0,0,1,1.78-1.59l7.2.8A1.6,1.6,0,0,1,24,51.49l-5.42-.6v58.68c5,.83,22.83,3.74,30.27,4.74,8.47,1.13,10.61,4.2,11,7.61h5.49Z" transform="translate(-4.35 -2.82)" style="fill:#573a29"/><path d="M61.76,57.4C61.76,48,44.29,35,24.16,39.63v61.83c20.67-.86,37.6,6.65,37.6,16.15Z" transform="translate(-4.35 -2.82)" style="fill:#573a29"/><path d="M35.58,55.11A1.57,1.57,0,0,0,34,56.62a1.4,1.4,0,0,0,1.51,1.63c14.48,0,26.24,12.36,26.24,16.2V70.25c0-4-11-15.14-26.12-15.14Z" transform="translate(-4.35 -2.82)" style="fill:#573a29"/><path d="M35.58,66A1.57,1.57,0,0,0,34,67.51a1.4,1.4,0,0,0,1.51,1.63c14.48,0,26.24,12.36,26.24,16.2V81.15c0-4-11-15.14-26.12-15.14Z" transform="translate(-4.35 -2.82)" style="fill:#573a29"/><path d="M35.58,76.9A1.57,1.57,0,0,0,34,78.41,1.4,1.4,0,0,0,35.52,80C50,80,61.76,92.39,61.76,96.23V92c0-4-11-15.14-26.12-15.14Z" transform="translate(-4.35 -2.82)" style="fill:#573a29"/><path d="M65.35,122.11h-7a1.6,1.6,0,0,1-1.6-1.6c0-2.31,0-4.92-8.35-6-8.71-1.16-31.48-4.94-31.71-5a1.6,1.6,0,0,1-1.34-1.58V46.09a1.6,1.6,0,0,1,1.78-1.59l7.2.8A1.6,1.6,0,0,1,24,48.49l-5.42-.6v58.68c5,.83,22.83,3.74,30.27,4.74,8.47,1.13,10.61,4.2,11,7.61h5.49Z" transform="translate(-4.35 -2.82)" style="fill:#fffedb"/><path d="M61.76,54.4C61.76,45,44.29,32,24.16,36.63V98.46c20.67-.86,37.6,6.65,37.6,16.15Z" transform="translate(-4.35 -2.82)" style="fill:#cfa691"/><path d="M35.58,52.11A1.57,1.57,0,0,0,34,53.62a1.4,1.4,0,0,0,1.51,1.63c14.48,0,26.24,12.36,26.24,16.2V67.25c0-4-11-15.14-26.12-15.14Z" transform="translate(-4.35 -2.82)" style="fill:#fffedb"/><path d="M35.58,63A1.57,1.57,0,0,0,34,64.51a1.4,1.4,0,0,0,1.51,1.63c14.48,0,26.24,12.36,26.24,16.2V78.15c0-4-11-15.14-26.12-15.14Z" transform="translate(-4.35 -2.82)" style="fill:#fffedb"/><path d="M35.58,73.9A1.57,1.57,0,0,0,34,75.41,1.4,1.4,0,0,0,35.52,77C50,77,61.76,89.39,61.76,93.23V89c0-4-11-15.14-26.12-15.14Z" transform="translate(-4.35 -2.82)" style="fill:#fffedb"/><g style="opacity:0.07;mix-blend-mode:multiply"><path d="M87.66,94.56a2.11,2.11,0,1,1-.23,1.6A2.1,2.1,0,0,1,87.66,94.56Zm12.6,22.36a2.08,2.08,0,0,1-1.37.51,2.11,2.11,0,0,1-1.38-3.72,2.08,2.08,0,0,1,1.37-.51,2.12,2.12,0,0,1,2.11,2.28A2.09,2.09,0,0,1,100.26,116.92Z" transform="translate(-4.35 -2.82)"/><path d="M79.36,48.43l.21,0Z" transform="translate(-4.35 -2.82)"/><path d="M90.73,58.08a2.07,2.07,0,0,1,.67-.66,2.11,2.11,0,1,1,1.11,3.91A2.1,2.1,0,0,1,91.39,61,2.13,2.13,0,0,1,90.73,58.08Zm6.38-20.19a2.14,2.14,0,0,1-2.91.65l-.1-.06a2.11,2.11,0,1,1,3.29-2.17A2.08,2.08,0,0,1,97.11,37.89Z" transform="translate(-4.35 -2.82)"/><path d="M113.88,49.49a2.11,2.11,0,1,1,3.57,2.26,2.14,2.14,0,0,1-2.91.65l-.09-.06A2.1,2.1,0,0,1,113.88,49.49Zm0,23.46a2.11,2.11,0,1,1,3.57,2.26,2.14,2.14,0,0,1-2.91.65l-.09-.06A2.1,2.1,0,0,1,113.88,73Zm0,26.3a2.11,2.11,0,1,1,3.57,2.26,2.14,2.14,0,0,1-2.91.65l-.09-.06A2.11,2.11,0,0,1,113.88,99.26Z" transform="translate(-4.35 -2.82)"/><path d="M103.53,108.93a6.12,6.12,0,0,0-10.72,4.74A19.86,19.86,0,0,1,87.48,115a4,4,0,0,1-2.22-1,10.71,10.71,0,0,0-4.15-1.85A37.64,37.64,0,0,0,89.7,99.34a6.12,6.12,0,1,0-5.48-9.24,6.12,6.12,0,0,0,1.62,8.06c-4.05,9.22-9.22,13.08-12.57,14.68a2,2,0,0,0-.36.17,11.26,11.26,0,0,1-2.56.81v4a12.59,12.59,0,0,0,4.25-1.19c5.35-1.36,6.84-.35,8.41.71A7.88,7.88,0,0,0,87.27,119h.31a23.61,23.61,0,0,0,7-1.72A6.13,6.13,0,0,0,98.89,119h0a6.12,6.12,0,0,0,4.64-10.1ZM87.66,92.15a2.11,2.11,0,1,1-.23,1.6A2.1,2.1,0,0,1,87.66,92.15Zm12.6,22.36a2.08,2.08,0,0,1-1.37.51,2.11,2.11,0,0,1-1.38-3.72,2.08,2.08,0,0,1,1.37-.51,2.12,2.12,0,0,1,2.11,2.28A2.09,2.09,0,0,1,100.26,114.51Z" transform="translate(-4.35 -2.82)"/><path d="M79.36,46l.21,0Z" transform="translate(-4.35 -2.82)"/><path d="M101.3,33a6.12,6.12,0,1,0-11,4.82,13.35,13.35,0,0,1-9.94,4.29,29.15,29.15,0,0,0-10-2.32v4A24.8,24.8,0,0,1,79.1,46h0a21.59,21.59,0,0,1,8.61,7,6.32,6.32,0,0,0-.38.54,6.12,6.12,0,1,0,8.45-1.91,6.22,6.22,0,0,0-4.67-.75,26,26,0,0,0-5.34-5.57,16.35,16.35,0,0,0,7.78-5.1,6.15,6.15,0,0,0,1.77.27,6.13,6.13,0,0,0,6-7.45ZM90.73,55.67a2.07,2.07,0,0,1,.67-.66,2.11,2.11,0,1,1,1.11,3.91,2.1,2.1,0,0,1-1.12-.33A2.13,2.13,0,0,1,90.73,55.67Zm6.38-20.19a2.14,2.14,0,0,1-2.91.65l-.1-.06a2.11,2.11,0,1,1,3.29-2.17A2.08,2.08,0,0,1,97.11,35.49Z" transform="translate(-4.35 -2.82)"/><path d="M110,74a6,6,0,0,0,2.11,2.65l.28.19a6.12,6.12,0,1,0,3.27-11.29l-.37,0a25.73,25.73,0,0,1,0-11.26l.34,0a6.12,6.12,0,1,0-4.15-1.63l.07.06a28.65,28.65,0,0,0,0,14.42c-.14.13-.29.25-.43.4a6.24,6.24,0,0,0-.63.82,6.16,6.16,0,0,0-.71,1.58A15.2,15.2,0,0,0,103,72.72c-2,1.32-4,2.57-9.64,2.67A32.64,32.64,0,0,0,88,75.27c-1.43.05-2.91.11-4.85,0-1.33-.07-2.1-.88-3.46-2.42-1.8-2.05-4.22-4.65-9.37-5v4c3.29.3,4.8,1.89,6.36,3.67s3.17,3.62,6.26,3.78c2.12.11,3.76.05,5.21,0A24.22,24.22,0,0,1,96,80c2.61.64,12.1,9.67,14.77,14.32-.11.14-.22.28-.31.43a6.1,6.1,0,0,0,1.62,8.25l.28.19a6.12,6.12,0,1,0,3.27-11.29,6.18,6.18,0,0,0-1.54.2c-2.56-4.19-8.65-10.46-13.19-13.79a18.18,18.18,0,0,0,4.21-2.19A11.31,11.31,0,0,1,110,74Zm3.88-26.92a2.11,2.11,0,1,1,3.57,2.26,2.14,2.14,0,0,1-2.91.65l-.09-.06A2.1,2.1,0,0,1,113.88,47.09Zm0,23.46a2.11,2.11,0,1,1,3.57,2.26,2.14,2.14,0,0,1-2.91.65l-.09-.06A2.1,2.1,0,0,1,113.88,70.55Zm0,26.3a2.11,2.11,0,1,1,3.57,2.26,2.14,2.14,0,0,1-2.91.65l-.09-.06A2.11,2.11,0,0,1,113.88,96.85Z" transform="translate(-4.35 -2.82)"/></g><path d="M103.53,111.93a6.12,6.12,0,0,0-10.72,4.74A19.86,19.86,0,0,1,87.48,118a4,4,0,0,1-2.22-1,10.71,10.71,0,0,0-4.15-1.85,37.64,37.64,0,0,0,8.58-12.83,6.12,6.12,0,1,0-5.48-9.24,6.12,6.12,0,0,0,1.62,8.06c-4.05,9.22-9.22,13.08-12.57,14.68a2,2,0,0,0-.36.17,11.26,11.26,0,0,1-2.56.81v4a12.59,12.59,0,0,0,4.25-1.19c5.35-1.36,6.84-.35,8.41.71A7.88,7.88,0,0,0,87.27,122h.31a23.61,23.61,0,0,0,7-1.72A6.13,6.13,0,0,0,98.89,122h0a6.12,6.12,0,0,0,4.64-10.1ZM87.66,95.15a2.11,2.11,0,1,1-.23,1.6A2.1,2.1,0,0,1,87.66,95.15Zm12.6,22.36a2.08,2.08,0,0,1-1.37.51,2.11,2.11,0,0,1-1.38-3.72,2.08,2.08,0,0,1,1.37-.51,2.12,2.12,0,0,1,2.11,2.28A2.09,2.09,0,0,1,100.26,117.51Z" transform="translate(-4.35 -2.82)" style="fill:#d3562c"/><path d="M79.36,48.43l.21,0Z" transform="translate(-4.35 -2.82)"/><path d="M101.3,36a6.12,6.12,0,1,0-11,4.82,13.35,13.35,0,0,1-9.94,4.29,29.15,29.15,0,0,0-10-2.32v4A24.81,24.81,0,0,1,79.1,49h0a21.59,21.59,0,0,1,8.61,7,6.32,6.32,0,0,0-.38.54,6.12,6.12,0,1,0,8.45-1.91,6.22,6.22,0,0,0-4.67-.75,26,26,0,0,0-5.34-5.57,16.35,16.35,0,0,0,7.78-5.1,6.15,6.15,0,0,0,1.77.27,6.13,6.13,0,0,0,6-7.45ZM90.73,58.68a2.07,2.07,0,0,1,.67-.66,2.11,2.11,0,1,1,1.11,3.91,2.1,2.1,0,0,1-1.12-.33A2.13,2.13,0,0,1,90.73,58.68Zm6.38-20.19a2.14,2.14,0,0,1-2.91.65l-.1-.06a2.11,2.11,0,1,1,3.29-2.17A2.08,2.08,0,0,1,97.11,38.49Z" transform="translate(-4.35 -2.82)" style="fill:#d3562c"/><path d="M110,77a6,6,0,0,0,2.11,2.65l.28.19a6.12,6.12,0,1,0,3.27-11.29l-.37,0a25.73,25.73,0,0,1,0-11.26l.34,0a6.12,6.12,0,1,0-4.15-1.63l.07.06a28.65,28.65,0,0,0,0,14.42c-.14.13-.29.25-.43.4a6.24,6.24,0,0,0-.63.82,6.16,6.16,0,0,0-.71,1.58A15.2,15.2,0,0,0,103,75.72c-2,1.32-4,2.57-9.64,2.67A32.64,32.64,0,0,0,88,78.27c-1.43.05-2.91.11-4.85,0-1.33-.07-2.1-.88-3.46-2.42-1.8-2.05-4.22-4.65-9.37-5v4c3.29.3,4.8,1.89,6.36,3.67s3.17,3.62,6.26,3.78c2.12.11,3.76.05,5.21,0A24.22,24.22,0,0,1,96,83c2.61.64,12.1,9.67,14.77,14.32-.11.14-.22.28-.31.43a6.1,6.1,0,0,0,1.62,8.25l.28.19a6.12,6.12,0,1,0,3.27-11.29,6.18,6.18,0,0,0-1.54.2c-2.56-4.19-8.65-10.46-13.19-13.79a18.18,18.18,0,0,0,4.21-2.19A11.31,11.31,0,0,1,110,77Zm3.88-26.92a2.11,2.11,0,1,1,3.57,2.26,2.14,2.14,0,0,1-2.91.65l-.09-.06A2.1,2.1,0,0,1,113.88,50.09Zm0,23.46a2.11,2.11,0,1,1,3.57,2.26,2.14,2.14,0,0,1-2.91.65l-.09-.06A2.1,2.1,0,0,1,113.88,73.55Zm0,26.3a2.11,2.11,0,1,1,3.57,2.26,2.14,2.14,0,0,1-2.91.65l-.09-.06A2.11,2.11,0,0,1,113.88,99.85Z" transform="translate(-4.35 -2.82)" style="fill:#d3562c"/><path d="M103.53,108.93a6.12,6.12,0,0,0-10.72,4.74A19.86,19.86,0,0,1,87.48,115a4,4,0,0,1-2.22-1,10.71,10.71,0,0,0-4.15-1.85A37.64,37.64,0,0,0,89.7,99.34a6.12,6.12,0,1,0-5.48-9.24,6.12,6.12,0,0,0,1.62,8.06c-4.05,9.22-9.22,13.08-12.57,14.68a2,2,0,0,0-.36.17,11.26,11.26,0,0,1-2.56.81v4a12.59,12.59,0,0,0,4.25-1.19c5.35-1.36,6.84-.35,8.41.71A7.88,7.88,0,0,0,87.27,119h.31a23.61,23.61,0,0,0,7-1.72A6.13,6.13,0,0,0,98.89,119h0a6.12,6.12,0,0,0,4.64-10.1ZM87.66,92.15a2.11,2.11,0,1,1-.23,1.6A2.1,2.1,0,0,1,87.66,92.15Zm12.6,22.36a2.08,2.08,0,0,1-1.37.51,2.11,2.11,0,0,1-1.38-3.72,2.08,2.08,0,0,1,1.37-.51,2.12,2.12,0,0,1,2.11,2.28A2.09,2.09,0,0,1,100.26,114.51Z" transform="translate(-4.35 -2.82)" style="fill:#fffedb"/><path d="M79.36,46l.21,0Z" transform="translate(-4.35 -2.82)" style="fill:#fffedb"/><path d="M101.3,33a6.12,6.12,0,1,0-11,4.82,13.35,13.35,0,0,1-9.94,4.29,29.15,29.15,0,0,0-10-2.32v4A24.8,24.8,0,0,1,79.1,46h0a21.59,21.59,0,0,1,8.61,7,6.32,6.32,0,0,0-.38.54,6.12,6.12,0,1,0,8.45-1.91,6.22,6.22,0,0,0-4.67-.75,26,26,0,0,0-5.34-5.57,16.35,16.35,0,0,0,7.78-5.1,6.15,6.15,0,0,0,1.77.27,6.13,6.13,0,0,0,6-7.45ZM90.73,55.67a2.07,2.07,0,0,1,.67-.66,2.11,2.11,0,1,1,1.11,3.91,2.1,2.1,0,0,1-1.12-.33A2.13,2.13,0,0,1,90.73,55.67Zm6.38-20.19a2.14,2.14,0,0,1-2.91.65l-.1-.06a2.11,2.11,0,1,1,3.29-2.17A2.08,2.08,0,0,1,97.11,35.49Z" transform="translate(-4.35 -2.82)" style="fill:#fffedb"/><path d="M110,74a6,6,0,0,0,2.11,2.65l.28.19a6.12,6.12,0,1,0,3.27-11.29l-.37,0a25.73,25.73,0,0,1,0-11.26l.34,0a6.12,6.12,0,1,0-4.15-1.63l.07.06a28.65,28.65,0,0,0,0,14.42c-.14.13-.29.25-.43.4a6.24,6.24,0,0,0-.63.82,6.16,6.16,0,0,0-.71,1.58A15.2,15.2,0,0,0,103,72.72c-2,1.32-4,2.57-9.64,2.67A32.64,32.64,0,0,0,88,75.27c-1.43.05-2.91.11-4.85,0-1.33-.07-2.1-.88-3.46-2.42-1.8-2.05-4.22-4.65-9.37-5v4c3.29.3,4.8,1.89,6.36,3.67s3.17,3.62,6.26,3.78c2.12.11,3.76.05,5.21,0A24.22,24.22,0,0,1,96,80c2.61.64,12.1,9.67,14.77,14.32-.11.14-.22.28-.31.43a6.1,6.1,0,0,0,1.62,8.25l.28.19a6.12,6.12,0,1,0,3.27-11.29,6.18,6.18,0,0,0-1.54.2c-2.56-4.19-8.65-10.46-13.19-13.79a18.18,18.18,0,0,0,4.21-2.19A11.31,11.31,0,0,1,110,74Zm3.88-26.92a2.11,2.11,0,1,1,3.57,2.26,2.14,2.14,0,0,1-2.91.65l-.09-.06A2.1,2.1,0,0,1,113.88,47.09Zm0,23.46a2.11,2.11,0,1,1,3.57,2.26,2.14,2.14,0,0,1-2.91.65l-.09-.06A2.1,2.1,0,0,1,113.88,70.55Zm0,26.3a2.11,2.11,0,1,1,3.57,2.26,2.14,2.14,0,0,1-2.91.65l-.09-.06A2.11,2.11,0,0,1,113.88,96.85Z" transform="translate(-4.35 -2.82)" style="fill:#fffedb"/><path d="M159.73,102.82v-54h19.41a40.17,40.17,0,0,1,9,.91,19.81,19.81,0,0,1,6.7,2.76A12.5,12.5,0,0,1,199,57.12a14.17,14.17,0,0,1,1.45,6.59,15.54,15.54,0,0,1-.41,3.58,11.44,11.44,0,0,1-1.32,3.25,10.66,10.66,0,0,1-2.36,2.73,12.07,12.07,0,0,1-3.53,2,12.42,12.42,0,0,1,4.08,1.82,10.58,10.58,0,0,1,2.71,2.75,11,11,0,0,1,1.5,3.36,14.62,14.62,0,0,1,.46,3.66q0,8-5.12,12t-15.18,4Zm13-31.51h6.79q4.27,0,6.09-1.56a5.52,5.52,0,0,0,1.82-4.49q0-3.41-2-4.92t-6.35-1.5h-6.38Zm0,8.54v13h8.54a10.29,10.29,0,0,0,3.36-.48A6.12,6.12,0,0,0,186.91,91a5.1,5.1,0,0,0,1.28-1.95,7,7,0,0,0,.41-2.41,10,10,0,0,0-.37-2.82A5.24,5.24,0,0,0,187,81.69a5.45,5.45,0,0,0-2.12-1.35,9.11,9.11,0,0,0-3.15-.48Z" transform="translate(-4.35 -2.82)" style="fill:#754e37"/><path d="M206.6,82.38a25.31,25.31,0,0,1,1.26-8.13,18.49,18.49,0,0,1,3.71-6.49,16.84,16.84,0,0,1,6.07-4.29,23.3,23.3,0,0,1,16.66,0,16.84,16.84,0,0,1,6.07,4.29,18.51,18.51,0,0,1,3.71,6.49,25.33,25.33,0,0,1,1.26,8.13v.78a25.64,25.64,0,0,1-1.24,8.15,18.1,18.1,0,0,1-3.69,6.46,16.93,16.93,0,0,1-6.07,4.27,23.3,23.3,0,0,1-16.66,0,17.11,17.11,0,0,1-6.09-4.27,18.17,18.17,0,0,1-3.73-6.46,25.26,25.26,0,0,1-1.26-8.15Zm12.51.78a26.66,26.66,0,0,0,.32,4.23,10.44,10.44,0,0,0,1.11,3.41,6.11,6.11,0,0,0,2.13,2.28,6.19,6.19,0,0,0,3.34.83,5.68,5.68,0,0,0,5.38-3.12,11.08,11.08,0,0,0,1.11-3.41,25.28,25.28,0,0,0,.33-4.23v-.78a26.29,26.29,0,0,0-.32-4.16,10.71,10.71,0,0,0-1.11-3.43,6.39,6.39,0,0,0-2.13-2.34,6,6,0,0,0-3.34-.87,5.83,5.83,0,0,0-3.28.87,6.29,6.29,0,0,0-2.1,2.34,11.32,11.32,0,0,0-1.11,3.43,24.82,24.82,0,0,0-.33,4.16Z" transform="translate(-4.35 -2.82)" style="fill:#754e37"/><path d="M249.27,82.38a25.31,25.31,0,0,1,1.26-8.13,18.49,18.49,0,0,1,3.71-6.49,16.84,16.84,0,0,1,6.07-4.29,23.3,23.3,0,0,1,16.66,0A16.84,16.84,0,0,1,283,67.75a18.51,18.51,0,0,1,3.71,6.49A25.33,25.33,0,0,1,288,82.38v.78a25.64,25.64,0,0,1-1.24,8.15,18.1,18.1,0,0,1-3.69,6.46A16.93,16.93,0,0,1,277,102a23.3,23.3,0,0,1-16.66,0,17.11,17.11,0,0,1-6.09-4.27,18.17,18.17,0,0,1-3.73-6.46,25.26,25.26,0,0,1-1.26-8.15Zm12.51.78a26.66,26.66,0,0,0,.32,4.23,10.44,10.44,0,0,0,1.11,3.41,6.11,6.11,0,0,0,2.13,2.28,6.19,6.19,0,0,0,3.34.83,5.68,5.68,0,0,0,5.38-3.12,11.08,11.08,0,0,0,1.11-3.41,25.28,25.28,0,0,0,.33-4.23v-.78a26.29,26.29,0,0,0-.32-4.16,10.71,10.71,0,0,0-1.11-3.43,6.39,6.39,0,0,0-2.13-2.34,6,6,0,0,0-3.34-.87,5.83,5.83,0,0,0-3.28.87,6.29,6.29,0,0,0-2.1,2.34,11.32,11.32,0,0,0-1.11,3.43,24.82,24.82,0,0,0-.33,4.16Z" transform="translate(-4.35 -2.82)" style="fill:#754e37"/><path d="M309.65,87.87l-3.53,3.53v11.43H293.62v-57h12.51V76.07l1.26-1.67,9.43-11.73h15L317.74,79.18l15,23.64H318.41Z" transform="translate(-4.35 -2.82)" style="fill:#754e37"/><path d="M335.66,102.82v-54h19.41a40.17,40.17,0,0,1,9,.91,19.81,19.81,0,0,1,6.7,2.76,12.5,12.5,0,0,1,4.19,4.66,14.17,14.17,0,0,1,1.45,6.59,15.54,15.54,0,0,1-.41,3.58,11.44,11.44,0,0,1-1.32,3.25,10.66,10.66,0,0,1-2.36,2.73,12.07,12.07,0,0,1-3.53,2,12.42,12.42,0,0,1,4.08,1.82,10.58,10.58,0,0,1,2.71,2.75,11,11,0,0,1,1.5,3.36,14.62,14.62,0,0,1,.46,3.66q0,8-5.12,12t-15.18,4Zm13-31.51h6.79q4.27,0,6.09-1.56a5.52,5.52,0,0,0,1.82-4.49q0-3.41-2-4.92t-6.35-1.5h-6.38Zm0,8.54v13h8.54a10.29,10.29,0,0,0,3.36-.48A6.12,6.12,0,0,0,362.85,91a5.1,5.1,0,0,0,1.28-1.95,7,7,0,0,0,.41-2.41,10,10,0,0,0-.37-2.82A5.24,5.24,0,0,0,363,81.69a5.45,5.45,0,0,0-2.12-1.35,9.11,9.11,0,0,0-3.15-.48Z" transform="translate(-4.35 -2.82)" style="fill:#eb743b"/><path d="M408.4,74l-.91-.09-1.11-.09-1.13-.07c-.37,0-.69,0-1,0a11.11,11.11,0,0,0-4.86.91,5.58,5.58,0,0,0-2.71,2.8v25.42H384.2V62.67h11.73l.41,5.16A12.22,12.22,0,0,1,400,63.49a8.62,8.62,0,0,1,5.1-1.56A15.11,15.11,0,0,1,407,62a10,10,0,0,1,1.65.33Z" transform="translate(-4.35 -2.82)" style="fill:#eb743b"/><path d="M434.41,102.82a8.66,8.66,0,0,1-.69-1.65q-.28-.91-.5-1.95a11.52,11.52,0,0,1-9.65,4.34,15.35,15.35,0,0,1-5.25-.89,13.86,13.86,0,0,1-4.32-2.47,11.7,11.7,0,0,1-3-3.8A10.94,10.94,0,0,1,410,91.5a13.12,13.12,0,0,1,1.13-5.57,10.54,10.54,0,0,1,3.45-4.14,17.11,17.11,0,0,1,5.86-2.6,34.16,34.16,0,0,1,8.41-.91h3.86V76.18a6.6,6.6,0,0,0-1.11-4,4.3,4.3,0,0,0-3.67-1.48,4.66,4.66,0,0,0-3.3,1.08,4.32,4.32,0,0,0-1.15,3.3H410.92a11.17,11.17,0,0,1,1.24-5.2,12.2,12.2,0,0,1,3.54-4.16,17.77,17.77,0,0,1,5.55-2.75,24.55,24.55,0,0,1,7.25-1,23.77,23.77,0,0,1,6.66.89,15,15,0,0,1,5.29,2.69A12.53,12.53,0,0,1,443.95,70a14.59,14.59,0,0,1,1.26,6.25V92.69q0,2,.11,3.41a21,21,0,0,0,.33,2.54,13.15,13.15,0,0,0,.54,1.95,11.64,11.64,0,0,0,.72,1.6v.63Zm-7.83-8.16a7,7,0,0,0,3.88-1,6.28,6.28,0,0,0,2.21-2.26V85h-3.93a8,8,0,0,0-3,.48,5,5,0,0,0-1.93,1.3,4.9,4.9,0,0,0-1,1.87,7.66,7.66,0,0,0-.32,2.21,3.58,3.58,0,0,0,1.15,2.76A4.16,4.16,0,0,0,426.58,94.66Z" transform="translate(-4.35 -2.82)" style="fill:#eb743b"/><path d="M452,52.32a5.9,5.9,0,0,1,.5-2.45A5.61,5.61,0,0,1,454,47.94a6.59,6.59,0,0,1,2.19-1.26,9.15,9.15,0,0,1,5.64,0A6.61,6.61,0,0,1,464,47.94a5.62,5.62,0,0,1,1.43,1.93,6.24,6.24,0,0,1,0,4.9A5.61,5.61,0,0,1,464,56.7,6.6,6.6,0,0,1,461.8,58a9.15,9.15,0,0,1-5.64,0A6.58,6.58,0,0,1,454,56.7a5.6,5.6,0,0,1-1.43-1.93A5.9,5.9,0,0,1,452,52.32Zm13.29,50.51H452.78V62.67h12.54Z" transform="translate(-4.35 -2.82)" style="fill:#eb743b"/><path d="M484.51,62.67l.41,4.71a13.49,13.49,0,0,1,5-4.06,14.91,14.91,0,0,1,6.51-1.39,15.62,15.62,0,0,1,5.1.8,9.49,9.49,0,0,1,4,2.63,12.45,12.45,0,0,1,2.58,4.82,25.65,25.65,0,0,1,.91,7.37v25.27H496.42V77.51a9.44,9.44,0,0,0-.39-3,4.29,4.29,0,0,0-1.11-1.82,3.83,3.83,0,0,0-1.78-.91,10.84,10.84,0,0,0-2.39-.24,6.44,6.44,0,0,0-3.32.78,6.12,6.12,0,0,0-2.13,2.12v28.35H472.78V62.67Z" transform="translate(-4.35 -2.82)" style="fill:#eb743b"/><path d="M530.64,93.17h18.29v9.65h-34.1v-7l17.81-23.53h-17V62.67h32.92v6.75Z" transform="translate(-4.35 -2.82)" style="fill:#eb743b"/></g></svg>