<?xml version="1.0" encoding="UTF-8"?><svg id="a" xmlns="http://www.w3.org/2000/svg" viewBox="0 0 201.45 30"><defs><style>.b{fill:#754e37;}.c{fill:#eb743b;}</style></defs><g><polygon class="b" points="14 1 2 8 2 22 14 29 14 1"/><polygon class="c" points="15 1 27 8 27 22 15 29 15 1"/></g><g><path class="b" d="M35.72,26V3.28h8.16c2.92,0,5.15,.54,6.67,1.61,1.52,1.07,2.29,2.63,2.29,4.67,0,1.18-.27,2.18-.81,3.01-.54,.83-1.34,1.45-2.39,1.84,1.19,.31,2.1,.89,2.73,1.75,.63,.85,.95,1.89,.95,3.12,0,2.23-.7,3.9-2.11,5.02s-3.5,1.69-6.27,1.71h-9.22Zm5.48-13.25h2.86c1.2,0,2.05-.23,2.56-.66s.76-1.06,.76-1.89c0-.96-.28-1.65-.83-2.07s-1.44-.63-2.67-.63h-2.68v5.26Zm0,3.59v5.45h3.59c.99,0,1.75-.23,2.28-.68,.53-.45,.8-1.09,.8-1.91,0-1.89-.94-2.85-2.83-2.86h-3.84Z"/><path class="b" d="M55.43,17.4c0-1.69,.33-3.19,.98-4.5,.66-1.32,1.6-2.33,2.83-3.04,1.23-.71,2.67-1.06,4.32-1.06,2.53,0,4.52,.78,5.98,2.35,1.46,1.57,2.18,3.7,2.18,6.39v.19c0,2.63-.73,4.72-2.19,6.27-1.46,1.55-3.44,2.32-5.94,2.32s-4.33-.72-5.79-2.16c-1.46-1.44-2.24-3.39-2.36-5.86l-.02-.89Zm5.26,.33c0,1.56,.24,2.71,.73,3.43s1.21,1.09,2.17,1.09c1.87,0,2.83-1.44,2.87-4.32v-.53c0-3.03-.97-4.54-2.9-4.54-1.76,0-2.71,1.31-2.86,3.92l-.02,.95Z"/><path class="b" d="M73.38,17.4c0-1.69,.33-3.19,.98-4.5,.66-1.32,1.6-2.33,2.83-3.04,1.23-.71,2.67-1.06,4.32-1.06,2.53,0,4.52,.78,5.98,2.35,1.46,1.57,2.18,3.7,2.18,6.39v.19c0,2.63-.73,4.72-2.19,6.27-1.46,1.55-3.44,2.32-5.94,2.32s-4.33-.72-5.79-2.16c-1.46-1.44-2.24-3.39-2.36-5.86l-.02-.89Zm5.26,.33c0,1.56,.24,2.71,.73,3.43s1.21,1.09,2.17,1.09c1.87,0,2.83-1.44,2.87-4.32v-.53c0-3.03-.97-4.54-2.9-4.54-1.76,0-2.71,1.31-2.86,3.92l-.02,.95Z"/><path class="b" d="M98.77,19.71l-1.48,1.48v4.81h-5.26V2.01h5.26V14.75l.53-.7,3.96-4.93h6.3l-5.92,6.95,6.31,9.94h-6.02l-3.68-6.29Z"/><path class="c" d="M109.71,26V3.28h8.16c2.92,0,5.15,.54,6.67,1.61,1.52,1.07,2.29,2.63,2.29,4.67,0,1.18-.27,2.18-.81,3.01-.54,.83-1.34,1.45-2.39,1.84,1.19,.31,2.1,.89,2.73,1.75,.63,.85,.95,1.89,.95,3.12,0,2.23-.7,3.9-2.11,5.02s-3.5,1.69-6.27,1.71h-9.22Zm5.48-13.25h2.86c1.2,0,2.05-.23,2.56-.66s.76-1.06,.76-1.89c0-.96-.28-1.65-.83-2.07s-1.44-.63-2.67-.63h-2.68v5.26Zm0,3.59v5.45h3.59c.99,0,1.75-.23,2.28-.68,.53-.45,.8-1.09,.8-1.91,0-1.89-.94-2.85-2.83-2.86h-3.84Z"/><path class="c" d="M140.3,13.87l-1.73-.12c-1.65,0-2.71,.52-3.18,1.56v10.69h-5.26V9.11h4.93l.17,2.17c.88-1.65,2.12-2.48,3.7-2.48,.56,0,1.05,.06,1.47,.19l-.09,4.88Z"/><path class="c" d="M151.24,26c-.19-.34-.35-.85-.5-1.51-.97,1.22-2.32,1.83-4.06,1.83-1.59,0-2.94-.48-4.06-1.44-1.11-.96-1.67-2.17-1.67-3.63,0-1.83,.68-3.22,2.03-4.15,1.35-.94,3.32-1.4,5.9-1.4h1.62v-.89c0-1.56-.67-2.34-2.01-2.34-1.25,0-1.87,.62-1.87,1.85h-5.26c0-1.63,.69-2.96,2.08-3.97,1.39-1.02,3.16-1.53,5.31-1.53s3.86,.53,5.1,1.58c1.25,1.05,1.89,2.49,1.92,4.32v7.48c.02,1.55,.26,2.74,.72,3.56v.27h-5.26Zm-3.29-3.43c.66,0,1.2-.14,1.63-.42,.43-.28,.74-.6,.93-.95v-2.7h-1.53c-1.83,0-2.75,.82-2.75,2.47,0,.48,.16,.87,.48,1.16,.32,.3,.73,.44,1.23,.44Z"/><path class="c" d="M158.65,4.74c0-.75,.27-1.37,.81-1.85,.54-.48,1.24-.72,2.11-.72s1.57,.24,2.11,.72c.54,.48,.81,1.1,.81,1.85s-.27,1.37-.81,1.85-1.24,.72-2.11,.72-1.57-.24-2.11-.72-.81-1.1-.81-1.85Zm5.59,21.26h-5.28V9.11h5.28V26Z"/><path class="c" d="M172.31,9.11l.17,1.98c1.17-1.53,2.77-2.29,4.82-2.29,1.76,0,3.07,.53,3.94,1.58,.87,1.05,1.32,2.63,1.35,4.75v10.88h-5.28V15.34c0-.85-.17-1.48-.52-1.88-.34-.4-.97-.6-1.87-.6-1.03,0-1.79,.41-2.29,1.22v11.92h-5.26V9.11h4.93Z"/><path class="c" d="M191.71,21.94h7.69v4.06h-14.34v-2.93l7.49-9.89h-7.16v-4.06h13.84v2.84l-7.52,9.99Z"/></g></svg>