<svg xmlns="http://www.w3.org/2000/svg" viewBox="0 0 763.27 144"><title>CoverArtArchive_logo</title><g style="isolation:isolate"><polygon points="66 0 66 144 127 109 127 35 66 0" style="fill:#eb743b"/><polygon points="61 0 0 35 0 109 61 144 61 0" style="fill:#20656c"/><g style="opacity:0.07;mix-blend-mode:multiply"><path d="M87.66,94.56a2.11,2.11,0,1,1-.23,1.6A2.1,2.1,0,0,1,87.66,94.56Zm12.6,22.36a2.08,2.08,0,0,1-1.37.51,2.11,2.11,0,0,1-1.38-3.72,2.08,2.08,0,0,1,1.37-.51,2.12,2.12,0,0,1,2.11,2.28A2.09,2.09,0,0,1,100.26,116.92Z" transform="translate(-4.35 -2.82)"/><path d="M79.36,48.43l.21,0Z" transform="translate(-4.35 -2.82)"/><path d="M90.73,58.08a2.07,2.07,0,0,1,.67-.66,2.11,2.11,0,1,1,1.11,3.91A2.1,2.1,0,0,1,91.39,61,2.13,2.13,0,0,1,90.73,58.08Zm6.38-20.19a2.14,2.14,0,0,1-2.91.65l-.1-.06a2.11,2.11,0,1,1,3.29-2.17A2.08,2.08,0,0,1,97.11,37.89Z" transform="translate(-4.35 -2.82)"/><path d="M113.88,49.49a2.11,2.11,0,1,1,3.57,2.26,2.14,2.14,0,0,1-2.91.65l-.09-.06A2.1,2.1,0,0,1,113.88,49.49Zm0,23.46a2.11,2.11,0,1,1,3.57,2.26,2.14,2.14,0,0,1-2.91.65l-.09-.06A2.1,2.1,0,0,1,113.88,73Zm0,26.3a2.11,2.11,0,1,1,3.57,2.26,2.14,2.14,0,0,1-2.91.65l-.09-.06A2.11,2.11,0,0,1,113.88,99.26Z" transform="translate(-4.35 -2.82)"/><path d="M103.53,108.93a6.12,6.12,0,0,0-10.72,4.74A19.86,19.86,0,0,1,87.48,115a4,4,0,0,1-2.22-1,10.71,10.71,0,0,0-4.15-1.85A37.64,37.64,0,0,0,89.7,99.34a6.12,6.12,0,1,0-5.48-9.24,6.12,6.12,0,0,0,1.62,8.06c-4.05,9.22-9.22,13.08-12.57,14.68a2,2,0,0,0-.36.17,11.26,11.26,0,0,1-2.56.81v4a12.59,12.59,0,0,0,4.25-1.19c5.35-1.36,6.84-.35,8.41.71A7.88,7.88,0,0,0,87.27,119h.31a23.61,23.61,0,0,0,7-1.72A6.13,6.13,0,0,0,98.89,119h0a6.12,6.12,0,0,0,4.64-10.1ZM87.66,92.15a2.11,2.11,0,1,1-.23,1.6A2.1,2.1,0,0,1,87.66,92.15Zm12.6,22.36a2.08,2.08,0,0,1-1.37.51,2.11,2.11,0,0,1-1.38-3.72,2.08,2.08,0,0,1,1.37-.51,2.12,2.12,0,0,1,2.11,2.28A2.09,2.09,0,0,1,100.26,114.51Z" transform="translate(-4.35 -2.82)"/><path d="M79.36,46l.21,0Z" transform="translate(-4.35 -2.82)"/><path d="M101.3,33a6.12,6.12,0,1,0-11,4.82,13.35,13.35,0,0,1-9.94,4.29,29.15,29.15,0,0,0-10-2.32v4A24.8,24.8,0,0,1,79.1,46h0a21.59,21.59,0,0,1,8.61,7,6.32,6.32,0,0,0-.38.54,6.12,6.12,0,1,0,8.45-1.91,6.22,6.22,0,0,0-4.67-.75,26,26,0,0,0-5.34-5.57,16.35,16.35,0,0,0,7.78-5.1,6.15,6.15,0,0,0,1.77.27,6.13,6.13,0,0,0,6-7.45ZM90.73,55.67a2.07,2.07,0,0,1,.67-.66,2.11,2.11,0,1,1,1.11,3.91,2.1,2.1,0,0,1-1.12-.33A2.13,2.13,0,0,1,90.73,55.67Zm6.38-20.19a2.14,2.14,0,0,1-2.91.65l-.1-.06a2.11,2.11,0,1,1,3.29-2.17A2.08,2.08,0,0,1,97.11,35.49Z" transform="translate(-4.35 -2.82)"/><path d="M110,74a6,6,0,0,0,2.11,2.65l.28.19a6.12,6.12,0,1,0,3.27-11.29l-.37,0a25.73,25.73,0,0,1,0-11.26l.34,0a6.12,6.12,0,1,0-4.15-1.63l.07.06a28.65,28.65,0,0,0,0,14.42c-.14.13-.29.25-.43.4a6.24,6.24,0,0,0-.63.82,6.16,6.16,0,0,0-.71,1.58A15.2,15.2,0,0,0,103,72.72c-2,1.32-4,2.57-9.64,2.67A32.64,32.64,0,0,0,88,75.27c-1.43.05-2.91.11-4.85,0-1.33-.07-2.1-.88-3.46-2.42-1.8-2.05-4.22-4.65-9.37-5v4c3.29.3,4.8,1.89,6.36,3.67s3.17,3.62,6.26,3.78c2.12.11,3.76.05,5.21,0A24.22,24.22,0,0,1,96,80c2.61.64,12.1,9.67,14.77,14.32-.11.14-.22.28-.31.43a6.1,6.1,0,0,0,1.62,8.25l.28.19a6.12,6.12,0,1,0,3.27-11.29,6.18,6.18,0,0,0-1.54.2c-2.56-4.19-8.65-10.46-13.19-13.79a18.18,18.18,0,0,0,4.21-2.19A11.31,11.31,0,0,1,110,74Zm3.88-26.92a2.11,2.11,0,1,1,3.57,2.26,2.14,2.14,0,0,1-2.91.65l-.09-.06A2.1,2.1,0,0,1,113.88,47.09Zm0,23.46a2.11,2.11,0,1,1,3.57,2.26,2.14,2.14,0,0,1-2.91.65l-.09-.06A2.1,2.1,0,0,1,113.88,70.55Zm0,26.3a2.11,2.11,0,1,1,3.57,2.26,2.14,2.14,0,0,1-2.91.65l-.09-.06A2.11,2.11,0,0,1,113.88,96.85Z" transform="translate(-4.35 -2.82)"/></g><path d="M103.53,111.93a6.12,6.12,0,0,0-10.72,4.74A19.86,19.86,0,0,1,87.48,118a4,4,0,0,1-2.22-1,10.71,10.71,0,0,0-4.15-1.85,37.64,37.64,0,0,0,8.58-12.83,6.12,6.12,0,1,0-5.48-9.24,6.12,6.12,0,0,0,1.62,8.06c-4.05,9.22-9.22,13.08-12.57,14.68a2,2,0,0,0-.36.17,11.26,11.26,0,0,1-2.56.81v4a12.59,12.59,0,0,0,4.25-1.19c5.35-1.36,6.84-.35,8.41.71A7.88,7.88,0,0,0,87.27,122h.31a23.61,23.61,0,0,0,7-1.72A6.13,6.13,0,0,0,98.89,122h0a6.12,6.12,0,0,0,4.64-10.1ZM87.66,95.15a2.11,2.11,0,1,1-.23,1.6A2.1,2.1,0,0,1,87.66,95.15Zm12.6,22.36a2.08,2.08,0,0,1-1.37.51,2.11,2.11,0,0,1-1.38-3.72,2.08,2.08,0,0,1,1.37-.51,2.12,2.12,0,0,1,2.11,2.28A2.09,2.09,0,0,1,100.26,117.51Z" transform="translate(-4.35 -2.82)" style="fill:#d3562c"/><path d="M79.36,48.43l.21,0Z" transform="translate(-4.35 -2.82)"/><path d="M101.3,36a6.12,6.12,0,1,0-11,4.82,13.35,13.35,0,0,1-9.94,4.29,29.15,29.15,0,0,0-10-2.32v4A24.81,24.81,0,0,1,79.1,49h0a21.59,21.59,0,0,1,8.61,7,6.32,6.32,0,0,0-.38.54,6.12,6.12,0,1,0,8.45-1.91,6.22,6.22,0,0,0-4.67-.75,26,26,0,0,0-5.34-5.57,16.35,16.35,0,0,0,7.78-5.1,6.15,6.15,0,0,0,1.77.27,6.13,6.13,0,0,0,6-7.45ZM90.73,58.68a2.07,2.07,0,0,1,.67-.66,2.11,2.11,0,1,1,1.11,3.91,2.1,2.1,0,0,1-1.12-.33A2.13,2.13,0,0,1,90.73,58.68Zm6.38-20.19a2.14,2.14,0,0,1-2.91.65l-.1-.06a2.11,2.11,0,1,1,3.29-2.17A2.08,2.08,0,0,1,97.11,38.49Z" transform="translate(-4.35 -2.82)" style="fill:#d3562c"/><path d="M110,77a6,6,0,0,0,2.11,2.65l.28.19a6.12,6.12,0,1,0,3.27-11.29l-.37,0a25.73,25.73,0,0,1,0-11.26l.34,0a6.12,6.12,0,1,0-4.15-1.63l.07.06a28.65,28.65,0,0,0,0,14.42c-.14.13-.29.25-.43.4a6.24,6.24,0,0,0-.63.82,6.16,6.16,0,0,0-.71,1.58A15.2,15.2,0,0,0,103,75.72c-2,1.32-4,2.57-9.64,2.67A32.64,32.64,0,0,0,88,78.27c-1.43.05-2.91.11-4.85,0-1.33-.07-2.1-.88-3.46-2.42-1.8-2.05-4.22-4.65-9.37-5v4c3.29.3,4.8,1.89,6.36,3.67s3.17,3.62,6.26,3.78c2.12.11,3.76.05,5.21,0A24.22,24.22,0,0,1,96,83c2.61.64,12.1,9.67,14.77,14.32-.11.14-.22.28-.31.43a6.1,6.1,0,0,0,1.62,8.25l.28.19a6.12,6.12,0,1,0,3.27-11.29,6.18,6.18,0,0,0-1.54.2c-2.56-4.19-8.65-10.46-13.19-13.79a18.18,18.18,0,0,0,4.21-2.19A11.31,11.31,0,0,1,110,77Zm3.88-26.92a2.11,2.11,0,1,1,3.57,2.26,2.14,2.14,0,0,1-2.91.65l-.09-.06A2.1,2.1,0,0,1,113.88,50.09Zm0,23.46a2.11,2.11,0,1,1,3.57,2.26,2.14,2.14,0,0,1-2.91.65l-.09-.06A2.1,2.1,0,0,1,113.88,73.55Zm0,26.3a2.11,2.11,0,1,1,3.57,2.26,2.14,2.14,0,0,1-2.91.65l-.09-.06A2.11,2.11,0,0,1,113.88,99.85Z" transform="translate(-4.35 -2.82)" style="fill:#d3562c"/><path d="M103.53,108.93a6.12,6.12,0,0,0-10.72,4.74A19.86,19.86,0,0,1,87.48,115a4,4,0,0,1-2.22-1,10.71,10.71,0,0,0-4.15-1.85A37.64,37.64,0,0,0,89.7,99.34a6.12,6.12,0,1,0-5.48-9.24,6.12,6.12,0,0,0,1.62,8.06c-4.05,9.22-9.22,13.08-12.57,14.68a2,2,0,0,0-.36.17,11.26,11.26,0,0,1-2.56.81v4a12.59,12.59,0,0,0,4.25-1.19c5.35-1.36,6.84-.35,8.41.71A7.88,7.88,0,0,0,87.27,119h.31a23.61,23.61,0,0,0,7-1.72A6.13,6.13,0,0,0,98.89,119h0a6.12,6.12,0,0,0,4.64-10.1ZM87.66,92.15a2.11,2.11,0,1,1-.23,1.6A2.1,2.1,0,0,1,87.66,92.15Zm12.6,22.36a2.08,2.08,0,0,1-1.37.51,2.11,2.11,0,0,1-1.38-3.72,2.08,2.08,0,0,1,1.37-.51,2.12,2.12,0,0,1,2.11,2.28A2.09,2.09,0,0,1,100.26,114.51Z" transform="translate(-4.35 -2.82)" style="fill:#fffedb"/><path d="M79.36,46l.21,0Z" transform="translate(-4.35 -2.82)" style="fill:#fffedb"/><path d="M101.3,33a6.12,6.12,0,1,0-11,4.82,13.35,13.35,0,0,1-9.94,4.29,29.15,29.15,0,0,0-10-2.32v4A24.8,24.8,0,0,1,79.1,46h0a21.59,21.59,0,0,1,8.61,7,6.32,6.32,0,0,0-.38.54,6.12,6.12,0,1,0,8.45-1.91,6.22,6.22,0,0,0-4.67-.75,26,26,0,0,0-5.34-5.57,16.35,16.35,0,0,0,7.78-5.1,6.15,6.15,0,0,0,1.77.27,6.13,6.13,0,0,0,6-7.45ZM90.73,55.67a2.07,2.07,0,0,1,.67-.66,2.11,2.11,0,1,1,1.11,3.91,2.1,2.1,0,0,1-1.12-.33A2.13,2.13,0,0,1,90.73,55.67Zm6.38-20.19a2.14,2.14,0,0,1-2.91.65l-.1-.06a2.11,2.11,0,1,1,3.29-2.17A2.08,2.08,0,0,1,97.11,35.49Z" transform="translate(-4.35 -2.82)" style="fill:#fffedb"/><path d="M110,74a6,6,0,0,0,2.11,2.65l.28.19a6.12,6.12,0,1,0,3.27-11.29l-.37,0a25.73,25.73,0,0,1,0-11.26l.34,0a6.12,6.12,0,1,0-4.15-1.63l.07.06a28.65,28.65,0,0,0,0,14.42c-.14.13-.29.25-.43.4a6.24,6.24,0,0,0-.63.82,6.16,6.16,0,0,0-.71,1.58A15.2,15.2,0,0,0,103,72.72c-2,1.32-4,2.57-9.64,2.67A32.64,32.64,0,0,0,88,75.27c-1.43.05-2.91.11-4.85,0-1.33-.07-2.1-.88-3.46-2.42-1.8-2.05-4.22-4.65-9.37-5v4c3.29.3,4.8,1.89,6.36,3.67s3.17,3.62,6.26,3.78c2.12.11,3.76.05,5.21,0A24.22,24.22,0,0,1,96,80c2.61.64,12.1,9.67,14.77,14.32-.11.14-.22.28-.31.43a6.1,6.1,0,0,0,1.62,8.25l.28.19a6.12,6.12,0,1,0,3.27-11.29,6.18,6.18,0,0,0-1.54.2c-2.56-4.19-8.65-10.46-13.19-13.79a18.18,18.18,0,0,0,4.21-2.19A11.31,11.31,0,0,1,110,74Zm3.88-26.92a2.11,2.11,0,1,1,3.57,2.26,2.14,2.14,0,0,1-2.91.65l-.09-.06A2.1,2.1,0,0,1,113.88,47.09Zm0,23.46a2.11,2.11,0,1,1,3.57,2.26,2.14,2.14,0,0,1-2.91.65l-.09-.06A2.1,2.1,0,0,1,113.88,70.55Zm0,26.3a2.11,2.11,0,1,1,3.57,2.26,2.14,2.14,0,0,1-2.91.65l-.09-.06A2.11,2.11,0,0,1,113.88,96.85Z" transform="translate(-4.35 -2.82)" style="fill:#fffedb"/><polygon points="13.09 103.09 20.54 101.61 20.54 55.71 13.09 54.23 13.09 103.09" style="fill:#264346"/><path d="M17.45,105.91V57.05l7.44,1.48V55.91l-8.35-1.85h-.18l-.17,0a.66.66,0,0,0-.16.1.75.75,0,0,0-.14.15,1,1,0,0,0-.12.19,1.37,1.37,0,0,0-.09.23,1.85,1.85,0,0,0-.05.25,2.08,2.08,0,0,0,0,.27V107.7a2,2,0,0,0,0,.27,1.82,1.82,0,0,0,.05.25,1.43,1.43,0,0,0,.09.23,1.16,1.16,0,0,0,.12.19.77.77,0,0,0,.14.14.68.68,0,0,0,.16.09l.17,0h.18l8.35-1.85v-2.62Z" transform="translate(-4.35 -2.82)" style="fill:#264346"/><polygon points="23.32 108.55 33 106.91 33 50.42 23.32 48.78 23.32 108.55" style="fill:#264346"/><path d="M27.68,111.37V51.6l9.67,1.64V50l-7.26-1.37-3.8-.71a1.08,1.08,0,0,0-.27,0,1.06,1.06,0,0,0-.5.16,1.13,1.13,0,0,0-.21.18,1.29,1.29,0,0,0-.17.23,1.48,1.48,0,0,0-.13.27,1.73,1.73,0,0,0-.08.31,2.06,2.06,0,0,0,0,.33v64.18a2.07,2.07,0,0,0,0,.33,1.75,1.75,0,0,0,.08.31,1.52,1.52,0,0,0,.13.28,1.32,1.32,0,0,0,.17.23,1.13,1.13,0,0,0,.21.18,1.09,1.09,0,0,0,.24.11,1,1,0,0,0,.26,0,1.08,1.08,0,0,0,.27,0l3.8-.71L37.35,113v-3.23Z" transform="translate(-4.35 -2.82)" style="fill:#264346"/><rect x="37.04" y="43.65" width="23.96" height="70.03" style="fill:#264346"/><path d="M37.35,44.45v74.07a2,2,0,0,0,2,2h26v-4h-24v-70h24v-4h-26A2,2,0,0,0,37.35,44.45Z" transform="translate(-4.35 -2.82)" style="fill:#264346"/><polygon points="13.09 100.09 20.54 98.61 20.54 52.71 13.09 51.23 13.09 100.09" style="fill:#20656c"/><path d="M17.45,102.91V54.05l7.44,1.48V52.91l-8.35-1.85h-.18l-.17,0a.66.66,0,0,0-.16.1.75.75,0,0,0-.14.15,1,1,0,0,0-.12.19,1.37,1.37,0,0,0-.09.23,1.85,1.85,0,0,0-.05.25,2.08,2.08,0,0,0,0,.27V104.7a2,2,0,0,0,0,.27,1.82,1.82,0,0,0,.05.25,1.43,1.43,0,0,0,.09.23,1.16,1.16,0,0,0,.12.19.77.77,0,0,0,.14.14.68.68,0,0,0,.16.09l.17,0h.18l8.35-1.85v-2.62Z" transform="translate(-4.35 -2.82)" style="fill:#fffedb"/><polygon points="23.32 105.55 33 103.91 33 47.42 23.32 45.78 23.32 105.55" style="fill:#20656c"/><path d="M27.68,108.37V48.6l9.67,1.64V47l-7.26-1.37-3.8-.71a1.08,1.08,0,0,0-.27,0,1.06,1.06,0,0,0-.5.16,1.13,1.13,0,0,0-.21.18,1.29,1.29,0,0,0-.17.23,1.48,1.48,0,0,0-.13.27,1.73,1.73,0,0,0-.08.31,2.06,2.06,0,0,0,0,.33v64.18a2.07,2.07,0,0,0,0,.33,1.75,1.75,0,0,0,.08.31,1.52,1.52,0,0,0,.13.28,1.32,1.32,0,0,0,.17.23,1.13,1.13,0,0,0,.21.18,1.09,1.09,0,0,0,.24.11,1,1,0,0,0,.26,0,1.08,1.08,0,0,0,.27,0l3.8-.71L37.35,110v-3.23Z" transform="translate(-4.35 -2.82)" style="fill:#fffedb"/><rect x="37.04" y="40.65" width="23.96" height="70.03" style="fill:#579ca0"/><path d="M37.35,41.45v74.07a2,2,0,0,0,2,2h26v-4h-24v-70h24v-4h-26A2,2,0,0,0,37.35,41.45Z" transform="translate(-4.35 -2.82)" style="fill:#fffedb"/><path d="M199,84.29a20.53,20.53,0,0,1-1.84,7.84,18,18,0,0,1-4.59,6.09,21.1,21.1,0,0,1-7,3.95,28.07,28.07,0,0,1-9.17,1.41,24.69,24.69,0,0,1-9.79-1.84,19.88,19.88,0,0,1-7.29-5.28,23.27,23.27,0,0,1-4.55-8.38A36.84,36.84,0,0,1,153.12,77V74a35.28,35.28,0,0,1,1.64-11.11,24.07,24.07,0,0,1,4.66-8.4,20.45,20.45,0,0,1,7.28-5.32,23.37,23.37,0,0,1,9.47-1.86,27.81,27.81,0,0,1,9.46,1.48,20.35,20.35,0,0,1,7,4.12,18.9,18.9,0,0,1,4.47,6.24,24.35,24.35,0,0,1,2,7.86H185.91a15.52,15.52,0,0,0-.62-4.06A7,7,0,0,0,183.58,60a7.47,7.47,0,0,0-3-1.77,14.19,14.19,0,0,0-4.44-.6,9.39,9.39,0,0,0-4.25.9,7.46,7.46,0,0,0-3,2.86,14.89,14.89,0,0,0-1.79,5.06,41.07,41.07,0,0,0-.58,7.46v3a45,45,0,0,0,.53,7.44,15.14,15.14,0,0,0,1.67,5.06,7,7,0,0,0,3,2.88,10.42,10.42,0,0,0,4.57.9q4.55,0,7-2.14t2.56-6.8Z" transform="translate(-4.35 -2.82)" style="fill:#20656c"/><path d="M203,82.11a25.65,25.65,0,0,1,1.28-8.23,18.72,18.72,0,0,1,3.76-6.58A17,17,0,0,1,214.2,63a23.61,23.61,0,0,1,16.88,0,17,17,0,0,1,6.15,4.34A18.74,18.74,0,0,1,241,73.87a25.68,25.68,0,0,1,1.28,8.23v.79A26,26,0,0,1,241,91.15a18.35,18.35,0,0,1-3.74,6.54,17.17,17.17,0,0,1-6.15,4.32,23.61,23.61,0,0,1-16.88,0,17.35,17.35,0,0,1-6.17-4.32,18.41,18.41,0,0,1-3.78-6.54A25.6,25.6,0,0,1,203,82.9Zm12.67.79a27,27,0,0,0,.32,4.29,10.58,10.58,0,0,0,1.13,3.46A6.19,6.19,0,0,0,219.29,93a6.28,6.28,0,0,0,3.38.85,5.76,5.76,0,0,0,5.45-3.16,11.22,11.22,0,0,0,1.13-3.46,25.62,25.62,0,0,0,.34-4.29v-.79a26.61,26.61,0,0,0-.32-4.21,10.8,10.8,0,0,0-1.13-3.48A6.47,6.47,0,0,0,226,72a6.07,6.07,0,0,0-3.38-.88,5.9,5.9,0,0,0-3.33.88,6.37,6.37,0,0,0-2.12,2.37A11.46,11.46,0,0,0,216,77.9a25.15,25.15,0,0,0-.34,4.21Z" transform="translate(-4.35 -2.82)" style="fill:#20656c"/><path d="M263.51,87.75l6.43-25.6h13.35L270,102.82H257.08L243.81,62.14h13.38Z" transform="translate(-4.35 -2.82)" style="fill:#20656c"/><path d="M306.26,103.58a23.53,23.53,0,0,1-8.87-1.58,19.18,19.18,0,0,1-6.58-4.29,18.54,18.54,0,0,1-4.08-6.28,20.5,20.5,0,0,1-1.41-7.59V82.41a27.26,27.26,0,0,1,1.22-8.29,18.49,18.49,0,0,1,3.68-6.67A17.24,17.24,0,0,1,296.35,63a21.05,21.05,0,0,1,8.55-1.62,20.55,20.55,0,0,1,7.76,1.39,15.9,15.9,0,0,1,5.83,4A17.52,17.52,0,0,1,322.14,73a25.47,25.47,0,0,1,1.26,8.27v5.15H298.21a9.13,9.13,0,0,0,3,5.38,8.83,8.83,0,0,0,5.94,2,13.87,13.87,0,0,0,5.09-1,10.24,10.24,0,0,0,4.31-3.23l5.79,6.84a14.71,14.71,0,0,1-2.5,2.63,17.42,17.42,0,0,1-3.55,2.27,22.53,22.53,0,0,1-4.55,1.62A22.79,22.79,0,0,1,306.26,103.58Zm-1.43-32.41a6.34,6.34,0,0,0-2.78.56,5.46,5.46,0,0,0-1.94,1.54,7.63,7.63,0,0,0-1.22,2.33,16.76,16.76,0,0,0-.68,2.93H311v-1a6.28,6.28,0,0,0-1.54-4.72A6.14,6.14,0,0,0,304.83,71.17Z" transform="translate(-4.35 -2.82)" style="fill:#20656c"/><path d="M353.11,73.61l-.92-.09-1.13-.09-1.15-.08q-.56,0-1,0a11.24,11.24,0,0,0-4.92.92,5.65,5.65,0,0,0-2.75,2.84v25.75H328.59V62.14h11.88l.41,5.23a12.38,12.38,0,0,1,3.74-4.4,8.74,8.74,0,0,1,5.17-1.58,15.5,15.5,0,0,1,1.86.11,10.23,10.23,0,0,1,1.67.34Z" transform="translate(-4.35 -2.82)" style="fill:#20656c"/><path d="M408.52,92.6H390.44l-3.16,10.23h-14.1l20.08-54.74h12.41l20.23,54.74H411.72ZM393.6,82.41h11.77l-5.9-19Z" transform="translate(-4.35 -2.82)" style="fill:#20656c"/><path d="M453.9,73.61l-.92-.09-1.13-.09-1.15-.08q-.56,0-1,0a11.24,11.24,0,0,0-4.92.92,5.65,5.65,0,0,0-2.75,2.84v25.75H429.39V62.14h11.88l.41,5.23a12.38,12.38,0,0,1,3.74-4.4,8.74,8.74,0,0,1,5.17-1.58,15.5,15.5,0,0,1,1.86.11,10.23,10.23,0,0,1,1.67.34Z" transform="translate(-4.35 -2.82)" style="fill:#20656c"/><path d="M475.11,52V62.14h6.69v8.8h-6.69V89.55a8,8,0,0,0,.21,2A2.71,2.71,0,0,0,476,92.8a2.59,2.59,0,0,0,1.26.66,8.62,8.62,0,0,0,2,.19q1.09,0,1.8-.06t1.35-.17v9.06a23.77,23.77,0,0,1-3.38.81,23.36,23.36,0,0,1-3.76.28,19.46,19.46,0,0,1-5.43-.7,10,10,0,0,1-4-2.2,9.49,9.49,0,0,1-2.48-3.87,17,17,0,0,1-.85-5.68V70.94h-5.19v-8.8h5.19V52Z" transform="translate(-4.35 -2.82)" style="fill:#20656c"/><path d="M537.63,92.6H519.55l-3.16,10.23h-14.1l20.08-54.74h12.41L555,102.82H540.83ZM522.71,82.41h11.77l-5.9-19Z" transform="translate(-4.35 -2.82)" style="fill:#eb743b"/><path d="M583,73.61l-.92-.09L581,73.42l-1.15-.08q-.56,0-1,0a11.24,11.24,0,0,0-4.92.92,5.65,5.65,0,0,0-2.75,2.84v25.75H558.5V62.14h11.88l.41,5.23a12.38,12.38,0,0,1,3.74-4.4,8.74,8.74,0,0,1,5.17-1.58,15.5,15.5,0,0,1,1.86.11,10.23,10.23,0,0,1,1.67.34Z" transform="translate(-4.35 -2.82)" style="fill:#eb743b"/><path d="M604.07,93.8a5.64,5.64,0,0,0,4.14-1.45,5.31,5.31,0,0,0,1.43-4h11.88a14.73,14.73,0,0,1-1.3,6.26,14.35,14.35,0,0,1-3.59,4.81,16.16,16.16,0,0,1-5.45,3.1,20.72,20.72,0,0,1-6.8,1.09A20.49,20.49,0,0,1,596,102a16.61,16.61,0,0,1-6-4.34,18.41,18.41,0,0,1-3.59-6.54,26.79,26.79,0,0,1-1.2-8.18v-.87a27,27,0,0,1,1.2-8.2A18.54,18.54,0,0,1,590,67.31,16.48,16.48,0,0,1,596,63a20.26,20.26,0,0,1,8.29-1.58,21.48,21.48,0,0,1,7,1.09,15.29,15.29,0,0,1,5.45,3.18,14.23,14.23,0,0,1,3.53,5.13,18,18,0,0,1,1.26,6.92H609.63a9.93,9.93,0,0,0-.32-2.56,5.56,5.56,0,0,0-1-2.09,5,5,0,0,0-1.79-1.39,5.87,5.87,0,0,0-2.54-.51,5.12,5.12,0,0,0-3.14.88A5.69,5.69,0,0,0,599,74.42a11.9,11.9,0,0,0-.85,3.48,40.53,40.53,0,0,0-.21,4.17v.87a40.73,40.73,0,0,0,.21,4.23,11.87,11.87,0,0,0,.85,3.46A5.32,5.32,0,0,0,600.86,93,5.54,5.54,0,0,0,604.07,93.8Z" transform="translate(-4.35 -2.82)" style="fill:#eb743b"/><path d="M639.26,66.5a14,14,0,0,1,4.53-3.76,12.52,12.52,0,0,1,5.85-1.35,16.89,16.89,0,0,1,5.55.86,10.57,10.57,0,0,1,4.3,2.78,13,13,0,0,1,2.8,5,24.68,24.68,0,0,1,1,7.52v25.27H650.58V77.48a10.11,10.11,0,0,0-.39-3.06,4.68,4.68,0,0,0-1.15-2,4,4,0,0,0-1.82-1,9.52,9.52,0,0,0-2.42-.28,7.79,7.79,0,0,0-3.44.66,5.11,5.11,0,0,0-2.09,1.82v29.18H626.59V45.07h12.67Z" transform="translate(-4.35 -2.82)" style="fill:#eb743b"/><path d="M670.24,51.65a6,6,0,0,1,.51-2.48,5.68,5.68,0,0,1,1.45-2,6.69,6.69,0,0,1,2.22-1.28,9.27,9.27,0,0,1,5.71,0,6.7,6.7,0,0,1,2.22,1.28,5.69,5.69,0,0,1,1.45,2,6.32,6.32,0,0,1,0,5,5.68,5.68,0,0,1-1.45,2,6.69,6.69,0,0,1-2.22,1.28,9.27,9.27,0,0,1-5.71,0,6.67,6.67,0,0,1-2.22-1.28,5.67,5.67,0,0,1-1.45-2A6,6,0,0,1,670.24,51.65Zm13.46,51.17H671V62.14H683.7Z" transform="translate(-4.35 -2.82)" style="fill:#eb743b"/><path d="M707.73,87.75l6.43-25.6H727.5l-13.27,40.68H701.3L688,62.14h13.38Z" transform="translate(-4.35 -2.82)" style="fill:#eb743b"/><path d="M750.48,103.58A23.53,23.53,0,0,1,741.6,102,19.18,19.18,0,0,1,735,97.71a18.54,18.54,0,0,1-4.08-6.28,20.5,20.5,0,0,1-1.41-7.59V82.41a27.26,27.26,0,0,1,1.22-8.29,18.49,18.49,0,0,1,3.68-6.67A17.24,17.24,0,0,1,740.57,63a21.05,21.05,0,0,1,8.55-1.62,20.55,20.55,0,0,1,7.76,1.39,15.9,15.9,0,0,1,5.83,4A17.52,17.52,0,0,1,766.36,73a25.47,25.47,0,0,1,1.26,8.27v5.15H742.43a9.13,9.13,0,0,0,3,5.38,8.83,8.83,0,0,0,5.94,2,13.87,13.87,0,0,0,5.09-1,10.24,10.24,0,0,0,4.31-3.23l5.79,6.84a14.71,14.71,0,0,1-2.5,2.63,17.42,17.42,0,0,1-3.55,2.27,22.53,22.53,0,0,1-4.55,1.62A22.79,22.79,0,0,1,750.48,103.58ZM749,71.17a6.34,6.34,0,0,0-2.78.56,5.46,5.46,0,0,0-1.94,1.54,7.63,7.63,0,0,0-1.22,2.33,16.76,16.76,0,0,0-.68,2.93h12.78v-1a6.28,6.28,0,0,0-1.54-4.72A6.14,6.14,0,0,0,749,71.17Z" transform="translate(-4.35 -2.82)" style="fill:#eb743b"/></g></svg>