<svg xmlns="http://www.w3.org/2000/svg" viewBox="0 0 638.32 144"><title>CritiqueBrainz_logo</title><g style="isolation:isolate"><polygon points="66 0 66 144 127 109 127 35 66 0" style="fill:#eb743b"/><polygon points="61 0 0 35 0 109 61 144 61 0" style="fill:#36b5b2"/><polygon points="15.99 46.79 14.59 87.06 23.6 97.44 23.87 97.45 22.96 110.18 47.53 98.42 61 98.97 61 39.19 26.37 37.77 15.99 46.79" style="fill:#289793"/><polygon points="15.99 43.79 14.59 84.06 23.6 94.44 23.87 94.45 22.96 107.18 47.53 95.42 61 95.97 61 36.19 26.37 34.77 15.99 43.79" style="fill:#65d9d7"/><path d="M38.73,55.75a1.57,1.57,0,0,0-.06,3.14l26.68,1V56.76l-26.56-1Z" transform="translate(-4.35 -2.82)" style="fill:#fffedb"/><path d="M37.16,68.29a1.57,1.57,0,0,0,1.51,1.63l26.68,1V67.79l-26.56-1A1.54,1.54,0,0,0,37.16,68.29Z" transform="translate(-4.35 -2.82)" style="fill:#fffedb"/><path d="M37.16,79.32a1.57,1.57,0,0,0,1.51,1.63l26.68,1V78.82l-26.56-1A1.54,1.54,0,0,0,37.16,79.32Z" transform="translate(-4.35 -2.82)" style="fill:#fffedb"/><g style="opacity:0.07;mix-blend-mode:multiply"><path d="M87.66,94.56a2.11,2.11,0,1,1-.23,1.6A2.1,2.1,0,0,1,87.66,94.56Zm12.6,22.36a2.08,2.08,0,0,1-1.37.51,2.11,2.11,0,0,1-1.38-3.72,2.08,2.08,0,0,1,1.37-.51,2.12,2.12,0,0,1,2.11,2.28A2.09,2.09,0,0,1,100.26,116.92Z" transform="translate(-4.35 -2.82)"/><path d="M79.36,48.43l.21,0Z" transform="translate(-4.35 -2.82)"/><path d="M90.73,58.08a2.07,2.07,0,0,1,.67-.66,2.11,2.11,0,1,1,1.11,3.91A2.1,2.1,0,0,1,91.39,61,2.13,2.13,0,0,1,90.73,58.08Zm6.38-20.19a2.14,2.14,0,0,1-2.91.65l-.1-.06a2.11,2.11,0,1,1,3.29-2.17A2.08,2.08,0,0,1,97.11,37.89Z" transform="translate(-4.35 -2.82)"/><path d="M113.88,49.49a2.11,2.11,0,1,1,3.57,2.26,2.14,2.14,0,0,1-2.91.65l-.09-.06A2.1,2.1,0,0,1,113.88,49.49Zm0,23.46a2.11,2.11,0,1,1,3.57,2.26,2.14,2.14,0,0,1-2.91.65l-.09-.06A2.1,2.1,0,0,1,113.88,73Zm0,26.3a2.11,2.11,0,1,1,3.57,2.26,2.14,2.14,0,0,1-2.91.65l-.09-.06A2.11,2.11,0,0,1,113.88,99.26Z" transform="translate(-4.35 -2.82)"/><path d="M103.53,108.93a6.12,6.12,0,0,0-10.72,4.74A19.86,19.86,0,0,1,87.48,115a4,4,0,0,1-2.22-1,10.71,10.71,0,0,0-4.15-1.85A37.64,37.64,0,0,0,89.7,99.34a6.12,6.12,0,1,0-5.48-9.24,6.12,6.12,0,0,0,1.62,8.06c-4.05,9.22-9.22,13.08-12.57,14.68a2,2,0,0,0-.36.17,11.26,11.26,0,0,1-2.56.81v4a12.59,12.59,0,0,0,4.25-1.19c5.35-1.36,6.84-.35,8.41.71A7.88,7.88,0,0,0,87.27,119h.31a23.61,23.61,0,0,0,7-1.72A6.13,6.13,0,0,0,98.89,119h0a6.12,6.12,0,0,0,4.64-10.1ZM87.66,92.15a2.11,2.11,0,1,1-.23,1.6A2.1,2.1,0,0,1,87.66,92.15Zm12.6,22.36a2.08,2.08,0,0,1-1.37.51,2.11,2.11,0,0,1-1.38-3.72,2.08,2.08,0,0,1,1.37-.51,2.12,2.12,0,0,1,2.11,2.28A2.09,2.09,0,0,1,100.26,114.51Z" transform="translate(-4.35 -2.82)"/><path d="M79.36,46l.21,0Z" transform="translate(-4.35 -2.82)"/><path d="M101.3,33a6.12,6.12,0,1,0-11,4.82,13.35,13.35,0,0,1-9.94,4.29,29.15,29.15,0,0,0-10-2.32v4A24.8,24.8,0,0,1,79.1,46h0a21.59,21.59,0,0,1,8.61,7,6.32,6.32,0,0,0-.38.54,6.12,6.12,0,1,0,8.45-1.91,6.22,6.22,0,0,0-4.67-.75,26,26,0,0,0-5.34-5.57,16.35,16.35,0,0,0,7.78-5.1,6.15,6.15,0,0,0,1.77.27,6.13,6.13,0,0,0,6-7.45ZM90.73,55.67a2.07,2.07,0,0,1,.67-.66,2.11,2.11,0,1,1,1.11,3.91,2.1,2.1,0,0,1-1.12-.33A2.13,2.13,0,0,1,90.73,55.67Zm6.38-20.19a2.14,2.14,0,0,1-2.91.65l-.1-.06a2.11,2.11,0,1,1,3.29-2.17A2.08,2.08,0,0,1,97.11,35.49Z" transform="translate(-4.35 -2.82)"/><path d="M110,74a6,6,0,0,0,2.11,2.65l.28.19a6.12,6.12,0,1,0,3.27-11.29l-.37,0a25.73,25.73,0,0,1,0-11.26l.34,0a6.12,6.12,0,1,0-4.15-1.63l.07.06a28.65,28.65,0,0,0,0,14.42c-.14.13-.29.25-.43.4a6.24,6.24,0,0,0-.63.82,6.16,6.16,0,0,0-.71,1.58A15.2,15.2,0,0,0,103,72.72c-2,1.32-4,2.57-9.64,2.67A32.64,32.64,0,0,0,88,75.27c-1.43.05-2.91.11-4.85,0-1.33-.07-2.1-.88-3.46-2.42-1.8-2.05-4.22-4.65-9.37-5v4c3.29.3,4.8,1.89,6.36,3.67s3.17,3.62,6.26,3.78c2.12.11,3.76.05,5.21,0A24.22,24.22,0,0,1,96,80c2.61.64,12.1,9.67,14.77,14.32-.11.14-.22.28-.31.43a6.1,6.1,0,0,0,1.62,8.25l.28.19a6.12,6.12,0,1,0,3.27-11.29,6.18,6.18,0,0,0-1.54.2c-2.56-4.19-8.65-10.46-13.19-13.79a18.18,18.18,0,0,0,4.21-2.19A11.31,11.31,0,0,1,110,74Zm3.88-26.92a2.11,2.11,0,1,1,3.57,2.26,2.14,2.14,0,0,1-2.91.65l-.09-.06A2.1,2.1,0,0,1,113.88,47.09Zm0,23.46a2.11,2.11,0,1,1,3.57,2.26,2.14,2.14,0,0,1-2.91.65l-.09-.06A2.1,2.1,0,0,1,113.88,70.55Zm0,26.3a2.11,2.11,0,1,1,3.57,2.26,2.14,2.14,0,0,1-2.91.65l-.09-.06A2.11,2.11,0,0,1,113.88,96.85Z" transform="translate(-4.35 -2.82)"/></g><path d="M103.53,111.93a6.12,6.12,0,0,0-10.72,4.74A19.86,19.86,0,0,1,87.48,118a4,4,0,0,1-2.22-1,10.71,10.71,0,0,0-4.15-1.85,37.64,37.64,0,0,0,8.58-12.83,6.12,6.12,0,1,0-5.48-9.24,6.12,6.12,0,0,0,1.62,8.06c-4.05,9.22-9.22,13.08-12.57,14.68a2,2,0,0,0-.36.17,11.26,11.26,0,0,1-2.56.81v4a12.59,12.59,0,0,0,4.25-1.19c5.35-1.36,6.84-.35,8.41.71A7.88,7.88,0,0,0,87.27,122h.31a23.61,23.61,0,0,0,7-1.72A6.13,6.13,0,0,0,98.89,122h0a6.12,6.12,0,0,0,4.64-10.1ZM87.66,95.15a2.11,2.11,0,1,1-.23,1.6A2.1,2.1,0,0,1,87.66,95.15Zm12.6,22.36a2.08,2.08,0,0,1-1.37.51,2.11,2.11,0,0,1-1.38-3.72,2.08,2.08,0,0,1,1.37-.51,2.12,2.12,0,0,1,2.11,2.28A2.09,2.09,0,0,1,100.26,117.51Z" transform="translate(-4.35 -2.82)" style="fill:#d3562c"/><path d="M79.36,48.43l.21,0Z" transform="translate(-4.35 -2.82)"/><path d="M101.3,36a6.12,6.12,0,1,0-11,4.82,13.35,13.35,0,0,1-9.94,4.29,29.15,29.15,0,0,0-10-2.32v4A24.81,24.81,0,0,1,79.1,49h0a21.59,21.59,0,0,1,8.61,7,6.32,6.32,0,0,0-.38.54,6.12,6.12,0,1,0,8.45-1.91,6.22,6.22,0,0,0-4.67-.75,26,26,0,0,0-5.34-5.57,16.35,16.35,0,0,0,7.78-5.1,6.15,6.15,0,0,0,1.77.27,6.13,6.13,0,0,0,6-7.45ZM90.73,58.68a2.07,2.07,0,0,1,.67-.66,2.11,2.11,0,1,1,1.11,3.91,2.1,2.1,0,0,1-1.12-.33A2.13,2.13,0,0,1,90.73,58.68Zm6.38-20.19a2.14,2.14,0,0,1-2.91.65l-.1-.06a2.11,2.11,0,1,1,3.29-2.17A2.08,2.08,0,0,1,97.11,38.49Z" transform="translate(-4.35 -2.82)" style="fill:#d3562c"/><path d="M110,77a6,6,0,0,0,2.11,2.65l.28.19a6.12,6.12,0,1,0,3.27-11.29l-.37,0a25.73,25.73,0,0,1,0-11.26l.34,0a6.12,6.12,0,1,0-4.15-1.63l.07.06a28.65,28.65,0,0,0,0,14.42c-.14.13-.29.25-.43.4a6.24,6.24,0,0,0-.63.82,6.16,6.16,0,0,0-.71,1.58A15.2,15.2,0,0,0,103,75.72c-2,1.32-4,2.57-9.64,2.67A32.64,32.64,0,0,0,88,78.27c-1.43.05-2.91.11-4.85,0-1.33-.07-2.1-.88-3.46-2.42-1.8-2.05-4.22-4.65-9.37-5v4c3.29.3,4.8,1.89,6.36,3.67s3.17,3.62,6.26,3.78c2.12.11,3.76.05,5.21,0A24.22,24.22,0,0,1,96,83c2.61.64,12.1,9.67,14.77,14.32-.11.14-.22.28-.31.43a6.1,6.1,0,0,0,1.62,8.25l.28.19a6.12,6.12,0,1,0,3.27-11.29,6.18,6.18,0,0,0-1.54.2c-2.56-4.19-8.65-10.46-13.19-13.79a18.18,18.18,0,0,0,4.21-2.19A11.31,11.31,0,0,1,110,77Zm3.88-26.92a2.11,2.11,0,1,1,3.57,2.26,2.14,2.14,0,0,1-2.91.65l-.09-.06A2.1,2.1,0,0,1,113.88,50.09Zm0,23.46a2.11,2.11,0,1,1,3.57,2.26,2.14,2.14,0,0,1-2.91.65l-.09-.06A2.1,2.1,0,0,1,113.88,73.55Zm0,26.3a2.11,2.11,0,1,1,3.57,2.26,2.14,2.14,0,0,1-2.91.65l-.09-.06A2.11,2.11,0,0,1,113.88,99.85Z" transform="translate(-4.35 -2.82)" style="fill:#d3562c"/><path d="M103.53,108.93a6.12,6.12,0,0,0-10.72,4.74A19.86,19.86,0,0,1,87.48,115a4,4,0,0,1-2.22-1,10.71,10.71,0,0,0-4.15-1.85A37.64,37.64,0,0,0,89.7,99.34a6.12,6.12,0,1,0-5.48-9.24,6.12,6.12,0,0,0,1.62,8.06c-4.05,9.22-9.22,13.08-12.57,14.68a2,2,0,0,0-.36.17,11.26,11.26,0,0,1-2.56.81v4a12.59,12.59,0,0,0,4.25-1.19c5.35-1.36,6.84-.35,8.41.71A7.88,7.88,0,0,0,87.27,119h.31a23.61,23.61,0,0,0,7-1.72A6.13,6.13,0,0,0,98.89,119h0a6.12,6.12,0,0,0,4.64-10.1ZM87.66,92.15a2.11,2.11,0,1,1-.23,1.6A2.1,2.1,0,0,1,87.66,92.15Zm12.6,22.36a2.08,2.08,0,0,1-1.37.51,2.11,2.11,0,0,1-1.38-3.72,2.08,2.08,0,0,1,1.37-.51,2.12,2.12,0,0,1,2.11,2.28A2.09,2.09,0,0,1,100.26,114.51Z" transform="translate(-4.35 -2.82)" style="fill:#fffedb"/><path d="M79.36,46l.21,0Z" transform="translate(-4.35 -2.82)" style="fill:#fffedb"/><path d="M101.3,33a6.12,6.12,0,1,0-11,4.82,13.35,13.35,0,0,1-9.94,4.29,29.15,29.15,0,0,0-10-2.32v4A24.8,24.8,0,0,1,79.1,46h0a21.59,21.59,0,0,1,8.61,7,6.32,6.32,0,0,0-.38.54,6.12,6.12,0,1,0,8.45-1.91,6.22,6.22,0,0,0-4.67-.75,26,26,0,0,0-5.34-5.57,16.35,16.35,0,0,0,7.78-5.1,6.15,6.15,0,0,0,1.77.27,6.13,6.13,0,0,0,6-7.45ZM90.73,55.67a2.07,2.07,0,0,1,.67-.66,2.11,2.11,0,1,1,1.11,3.91,2.1,2.1,0,0,1-1.12-.33A2.13,2.13,0,0,1,90.73,55.67Zm6.38-20.19a2.14,2.14,0,0,1-2.91.65l-.1-.06a2.11,2.11,0,1,1,3.29-2.17A2.08,2.08,0,0,1,97.11,35.49Z" transform="translate(-4.35 -2.82)" style="fill:#fffedb"/><path d="M110,74a6,6,0,0,0,2.11,2.65l.28.19a6.12,6.12,0,1,0,3.27-11.29l-.37,0a25.73,25.73,0,0,1,0-11.26l.34,0a6.12,6.12,0,1,0-4.15-1.63l.07.06a28.65,28.65,0,0,0,0,14.42c-.14.13-.29.25-.43.4a6.24,6.24,0,0,0-.63.82,6.16,6.16,0,0,0-.71,1.58A15.2,15.2,0,0,0,103,72.72c-2,1.32-4,2.57-9.64,2.67A32.64,32.64,0,0,0,88,75.27c-1.43.05-2.91.11-4.85,0-1.33-.07-2.1-.88-3.46-2.42-1.8-2.05-4.22-4.65-9.37-5v4c3.29.3,4.8,1.89,6.36,3.67s3.17,3.62,6.26,3.78c2.12.11,3.76.05,5.21,0A24.22,24.22,0,0,1,96,80c2.61.64,12.1,9.67,14.77,14.32-.11.14-.22.28-.31.43a6.1,6.1,0,0,0,1.62,8.25l.28.19a6.12,6.12,0,1,0,3.27-11.29,6.18,6.18,0,0,0-1.54.2c-2.56-4.19-8.65-10.46-13.19-13.79a18.18,18.18,0,0,0,4.21-2.19A11.31,11.31,0,0,1,110,74Zm3.88-26.92a2.11,2.11,0,1,1,3.57,2.26,2.14,2.14,0,0,1-2.91.65l-.09-.06A2.1,2.1,0,0,1,113.88,47.09Zm0,23.46a2.11,2.11,0,1,1,3.57,2.26,2.14,2.14,0,0,1-2.91.65l-.09-.06A2.1,2.1,0,0,1,113.88,70.55Zm0,26.3a2.11,2.11,0,1,1,3.57,2.26,2.14,2.14,0,0,1-2.91.65l-.09-.06A2.11,2.11,0,0,1,113.88,96.85Z" transform="translate(-4.35 -2.82)" style="fill:#fffedb"/><path d="M199.62,84.52a20.27,20.27,0,0,1-1.82,7.74,17.79,17.79,0,0,1-4.53,6,20.82,20.82,0,0,1-6.94,3.9,27.72,27.72,0,0,1-9.05,1.39,24.36,24.36,0,0,1-9.67-1.82,19.62,19.62,0,0,1-7.2-5.21,23,23,0,0,1-4.49-8.28,36.34,36.34,0,0,1-1.54-11V74.35a34.82,34.82,0,0,1,1.61-11,23.74,23.74,0,0,1,4.6-8.29,20.18,20.18,0,0,1,7.18-5.25A23.06,23.06,0,0,1,177.13,48a27.44,27.44,0,0,1,9.33,1.47,20.08,20.08,0,0,1,6.88,4.06,18.66,18.66,0,0,1,4.42,6.16,24,24,0,0,1,2,7.76h-13a15.36,15.36,0,0,0-.61-4,6.9,6.9,0,0,0-1.69-2.89,7.37,7.37,0,0,0-2.93-1.74,14,14,0,0,0-4.38-.59,9.27,9.27,0,0,0-4.19.89,7.35,7.35,0,0,0-3,2.82,14.69,14.69,0,0,0-1.76,5,40.52,40.52,0,0,0-.58,7.37v3a44.41,44.41,0,0,0,.52,7.35,14.93,14.93,0,0,0,1.65,5,6.89,6.89,0,0,0,3,2.84,10.28,10.28,0,0,0,4.51.89q4.49,0,6.87-2.12t2.52-6.72Z" transform="translate(-4.35 -2.82)" style="fill:#36b5b2"/><path d="M229.5,74l-.91-.09-1.11-.09-1.13-.07c-.37,0-.69,0-1,0a11.11,11.11,0,0,0-4.86.91,5.58,5.58,0,0,0-2.71,2.8v25.42H205.3V62.66H217l.41,5.16a12.22,12.22,0,0,1,3.69-4.34,8.62,8.62,0,0,1,5.1-1.56,15.11,15.11,0,0,1,1.84.11,10,10,0,0,1,1.65.33Z" transform="translate(-4.35 -2.82)" style="fill:#36b5b2"/><path d="M233.91,52.31a5.9,5.9,0,0,1,.5-2.45,5.61,5.61,0,0,1,1.43-1.93A6.59,6.59,0,0,1,238,46.66a9.15,9.15,0,0,1,5.64,0,6.61,6.61,0,0,1,2.19,1.26,5.62,5.62,0,0,1,1.43,1.93,6.24,6.24,0,0,1,0,4.9,5.61,5.61,0,0,1-1.43,1.93,6.6,6.6,0,0,1-2.19,1.26,9.15,9.15,0,0,1-5.64,0,6.58,6.58,0,0,1-2.19-1.26,5.6,5.6,0,0,1-1.43-1.93A5.9,5.9,0,0,1,233.91,52.31Zm13.29,50.51H234.65V62.66H247.2Z" transform="translate(-4.35 -2.82)" style="fill:#36b5b2"/><path d="M269.46,52.68v10h6.61v8.68h-6.61V89.71a7.9,7.9,0,0,0,.2,2,2.66,2.66,0,0,0,.67,1.24,2.54,2.54,0,0,0,1.24.65,8.47,8.47,0,0,0,1.93.19q1.08,0,1.78-.06t1.34-.17v8.94a23.55,23.55,0,0,1-3.34.8,23.11,23.11,0,0,1-3.71.28,19.21,19.21,0,0,1-5.36-.69,9.8,9.8,0,0,1-4-2.17,9.36,9.36,0,0,1-2.45-3.82,16.71,16.71,0,0,1-.83-5.6V71.34h-5.12V62.66H257v-10Z" transform="translate(-4.35 -2.82)" style="fill:#36b5b2"/><path d="M280.89,52.31a5.9,5.9,0,0,1,.5-2.45,5.61,5.61,0,0,1,1.43-1.93A6.59,6.59,0,0,1,285,46.66a9.15,9.15,0,0,1,5.64,0,6.61,6.61,0,0,1,2.19,1.26,5.62,5.62,0,0,1,1.43,1.93,6.24,6.24,0,0,1,0,4.9,5.61,5.61,0,0,1-1.43,1.93,6.6,6.6,0,0,1-2.19,1.26,9.15,9.15,0,0,1-5.64,0,6.58,6.58,0,0,1-2.19-1.26,5.6,5.6,0,0,1-1.43-1.93A5.9,5.9,0,0,1,280.89,52.31Zm13.29,50.51H281.63V62.66h12.54Z" transform="translate(-4.35 -2.82)" style="fill:#36b5b2"/><path d="M300.3,82.33a32.39,32.39,0,0,1,1-8.33,19,19,0,0,1,3-6.46,13.65,13.65,0,0,1,4.9-4.16,14.8,14.8,0,0,1,6.74-1.47,11.62,11.62,0,0,1,5.71,1.34A12.89,12.89,0,0,1,325.79,67l.89-4.3h10.84v55.59H325V99.47a12.44,12.44,0,0,1-3.93,3,11.82,11.82,0,0,1-5.2,1.08,14,14,0,0,1-6.7-1.56,14.21,14.21,0,0,1-4.88-4.29,19.61,19.61,0,0,1-3-6.48,31.38,31.38,0,0,1-1-8.13Zm12.51.78a28.33,28.33,0,0,0,.3,4.23,11.63,11.63,0,0,0,1,3.43,5.9,5.9,0,0,0,1.93,2.3,5.12,5.12,0,0,0,3,.83,7.21,7.21,0,0,0,3.73-.85A5.71,5.71,0,0,0,325,90.64V74.76a5.37,5.37,0,0,0-2.19-2.39,7.43,7.43,0,0,0-3.67-.8,5.23,5.23,0,0,0-3,.8,5.78,5.78,0,0,0-1.95,2.25A11.78,11.78,0,0,0,313.14,78a25.78,25.78,0,0,0-.33,4.3Z" transform="translate(-4.35 -2.82)" style="fill:#36b5b2"/><path d="M368.51,98.47a13.31,13.31,0,0,1-4.56,3.75,13.6,13.6,0,0,1-6.16,1.34,16.87,16.87,0,0,1-5.44-.83,10.56,10.56,0,0,1-4.23-2.63,12.22,12.22,0,0,1-2.75-4.64,20.87,20.87,0,0,1-1-6.81v-26h12.51V88.71a5.32,5.32,0,0,0,1.28,3.93,5.09,5.09,0,0,0,3.73,1.26,7.77,7.77,0,0,0,3.8-.82A6.09,6.09,0,0,0,368,90.83V62.66h12.58v40.15H368.88Z" transform="translate(-4.35 -2.82)" style="fill:#36b5b2"/><path d="M406.88,103.55a23.22,23.22,0,0,1-8.76-1.56,18.93,18.93,0,0,1-6.49-4.23,18.3,18.3,0,0,1-4-6.2,20.23,20.23,0,0,1-1.39-7.5V82.66a26.91,26.91,0,0,1,1.21-8.18,18.26,18.26,0,0,1,3.64-6.59,17,17,0,0,1,6-4.38,20.77,20.77,0,0,1,8.44-1.6,20.3,20.3,0,0,1,7.66,1.37A15.7,15.7,0,0,1,419,67.22a17.28,17.28,0,0,1,3.6,6.2,25.16,25.16,0,0,1,1.24,8.16v5.08H398.94A9,9,0,0,0,401.87,92a8.72,8.72,0,0,0,5.86,1.93,13.7,13.7,0,0,0,5-1A10.11,10.11,0,0,0,417,89.75l5.71,6.75a14.58,14.58,0,0,1-2.47,2.6,17.19,17.19,0,0,1-3.51,2.25,22.22,22.22,0,0,1-4.49,1.6A22.47,22.47,0,0,1,406.88,103.55Zm-1.41-32a6.25,6.25,0,0,0-2.75.56,5.38,5.38,0,0,0-1.91,1.52,7.51,7.51,0,0,0-1.21,2.3,16.54,16.54,0,0,0-.67,2.89h12.62v-1A6.2,6.2,0,0,0,410,73.22,6.06,6.06,0,0,0,405.47,71.57Z" transform="translate(-4.35 -2.82)" style="fill:#36b5b2"/><path d="M429.4,102.81v-54h19.41a40.17,40.17,0,0,1,9,.91,19.81,19.81,0,0,1,6.7,2.76,12.5,12.5,0,0,1,4.19,4.66,14.17,14.17,0,0,1,1.45,6.59,15.54,15.54,0,0,1-.41,3.58,11.44,11.44,0,0,1-1.32,3.25A10.66,10.66,0,0,1,466,73.25a12.07,12.07,0,0,1-3.53,2,12.42,12.42,0,0,1,4.08,1.82,10.58,10.58,0,0,1,2.71,2.75,11,11,0,0,1,1.5,3.36,14.62,14.62,0,0,1,.46,3.66q0,8-5.12,12t-15.18,4Zm13-31.51h6.79q4.27,0,6.09-1.56a5.52,5.52,0,0,0,1.82-4.49q0-3.41-2-4.92t-6.35-1.5h-6.38Zm0,8.54v13H451a10.29,10.29,0,0,0,3.36-.48A6.12,6.12,0,0,0,456.59,91,5.1,5.1,0,0,0,457.87,89a7,7,0,0,0,.41-2.41,10,10,0,0,0-.37-2.82,5.24,5.24,0,0,0-1.19-2.13,5.45,5.45,0,0,0-2.12-1.35,9.11,9.11,0,0,0-3.15-.48Z" transform="translate(-4.35 -2.82)" style="fill:#eb743b"/><path d="M502.14,74l-.91-.09-1.11-.09L499,73.72c-.37,0-.69,0-1,0a11.11,11.11,0,0,0-4.86.91,5.58,5.58,0,0,0-2.71,2.8v25.42H477.94V62.66h11.73l.41,5.16a12.22,12.22,0,0,1,3.69-4.34,8.62,8.62,0,0,1,5.1-1.56,15.11,15.11,0,0,1,1.84.11,10,10,0,0,1,1.65.33Z" transform="translate(-4.35 -2.82)" style="fill:#eb743b"/><path d="M528.15,102.81a8.66,8.66,0,0,1-.69-1.65q-.28-.91-.5-1.95a11.52,11.52,0,0,1-9.65,4.34,15.35,15.35,0,0,1-5.25-.89,13.86,13.86,0,0,1-4.32-2.47,11.7,11.7,0,0,1-3-3.8,10.94,10.94,0,0,1-1.09-4.9,13.12,13.12,0,0,1,1.13-5.57,10.54,10.54,0,0,1,3.45-4.14,17.11,17.11,0,0,1,5.86-2.6,34.16,34.16,0,0,1,8.41-.91h3.86V76.17a6.6,6.6,0,0,0-1.11-4,4.3,4.3,0,0,0-3.67-1.48,4.66,4.66,0,0,0-3.3,1.08,4.32,4.32,0,0,0-1.15,3.3H504.66a11.17,11.17,0,0,1,1.24-5.2,12.2,12.2,0,0,1,3.54-4.16A17.77,17.77,0,0,1,515,62.92a24.55,24.55,0,0,1,7.25-1,23.77,23.77,0,0,1,6.66.89,15,15,0,0,1,5.29,2.69A12.53,12.53,0,0,1,537.69,70,14.59,14.59,0,0,1,539,76.24V92.68q0,2,.11,3.41a21,21,0,0,0,.33,2.54,13.15,13.15,0,0,0,.54,1.95,11.64,11.64,0,0,0,.72,1.6v.63Zm-7.83-8.16a7,7,0,0,0,3.88-1,6.28,6.28,0,0,0,2.21-2.26V85h-3.93a8,8,0,0,0-3,.48,5,5,0,0,0-1.93,1.3,4.9,4.9,0,0,0-1,1.87,7.66,7.66,0,0,0-.32,2.21,3.58,3.58,0,0,0,1.15,2.76A4.16,4.16,0,0,0,520.32,94.65Z" transform="translate(-4.35 -2.82)" style="fill:#eb743b"/><path d="M545.78,52.31a5.9,5.9,0,0,1,.5-2.45,5.61,5.61,0,0,1,1.43-1.93,6.59,6.59,0,0,1,2.19-1.26,9.15,9.15,0,0,1,5.64,0,6.61,6.61,0,0,1,2.19,1.26,5.62,5.62,0,0,1,1.43,1.93,6.24,6.24,0,0,1,0,4.9,5.61,5.61,0,0,1-1.43,1.93,6.6,6.6,0,0,1-2.19,1.26,9.15,9.15,0,0,1-5.64,0,6.58,6.58,0,0,1-2.19-1.26,5.6,5.6,0,0,1-1.43-1.93A5.9,5.9,0,0,1,545.78,52.31Zm13.29,50.51H546.52V62.66h12.54Z" transform="translate(-4.35 -2.82)" style="fill:#eb743b"/><path d="M578.25,62.66l.41,4.71a13.49,13.49,0,0,1,5-4.06,14.91,14.91,0,0,1,6.51-1.39,15.62,15.62,0,0,1,5.1.8,9.49,9.49,0,0,1,4,2.63,12.45,12.45,0,0,1,2.58,4.82,25.65,25.65,0,0,1,.91,7.37v25.27H590.16V77.5a9.44,9.44,0,0,0-.39-3,4.29,4.29,0,0,0-1.11-1.82,3.83,3.83,0,0,0-1.78-.91,10.84,10.84,0,0,0-2.39-.24,6.44,6.44,0,0,0-3.32.78A6.12,6.12,0,0,0,579,74.46v28.35H566.52V62.66Z" transform="translate(-4.35 -2.82)" style="fill:#eb743b"/><path d="M624.38,93.16h18.29v9.65h-34.1v-7l17.81-23.53h-17V62.66h32.92v6.75Z" transform="translate(-4.35 -2.82)" style="fill:#eb743b"/></g></svg>