<svg xmlns="http://www.w3.org/2000/svg" xmlns:xlink="http://www.w3.org/1999/xlink" width="603" height="160"><path fill="#EB743B" d="M75.354 7.823v144l61-35v-74z"/><path fill="#353070" d="M70.354 7.823l-61 35v74l61 35z"/><g opacity=".07"><defs><path id="a" d="M75.354 33.239h51.433v90.792H75.354z"/></defs><clipPath id="b"><use xlink:href="#a" overflow="visible"/></clipPath><path clip-path="url(#b)" d="M92.657 99.557a2.1 2.1 0 011.819-1.03c.378 0 .752.104 1.078.297a2.12 2.12 0 01.735 2.898 2.097 2.097 0 01-1.817 1.032c-.379 0-.755-.105-1.084-.301a2.092 2.092 0 01-.964-1.294 2.1 2.1 0 01.233-1.602m12.602 22.362a2.121 2.121 0 01-2.981-.225 2.116 2.116 0 01.231-2.981 2.08 2.08 0 011.373-.512 2.117 2.117 0 012.109 2.278 2.086 2.086 0 01-.732 1.44M95.734 63.08a2.128 2.128 0 012.916-.656 2.12 2.12 0 01.66 2.919 2.115 2.115 0 01-2.919.661 2.128 2.128 0 01-.657-2.924m6.379-20.187c-.6.951-1.937 1.271-2.912.653l-.096-.062a2.107 2.107 0 01-.557-2.851 2.093 2.093 0 011.784-.98 2.11 2.11 0 011.781 3.24M118.88 54.491a2.096 2.096 0 011.783-.98c.4 0 .79.113 1.125.325.481.304.813.775.937 1.33a2.08 2.08 0 01-.28 1.584c-.597.951-1.938 1.273-2.912.653l-.093-.062a2.105 2.105 0 01-.56-2.85m0 23.463a2.096 2.096 0 011.783-.98c.4 0 .79.112 1.125.326.481.304.813.774.937 1.329a2.083 2.083 0 01-.28 1.585c-.597.95-1.938 1.271-2.912.652l-.093-.062a2.105 2.105 0 01-.56-2.85m0 26.303a2.099 2.099 0 011.783-.98c.4 0 .79.113 1.125.326.481.304.813.775.937 1.33a2.08 2.08 0 01-.28 1.584c-.597.951-1.938 1.271-2.912.653l-.093-.062a2.107 2.107 0 01-.56-2.851"/><path clip-path="url(#b)" d="M108.53 113.927a6.11 6.11 0 00-8.631-.662 6.12 6.12 0 00-2.087 5.396c-1.949.701-4.258 1.366-5.328 1.332-.822-.043-1.302-.345-2.224-.971-1.172-.795-2.418-1.512-4.149-1.847 2.936-2.761 6.009-6.83 8.584-12.834a6.15 6.15 0 005.039-2.972c1.724-2.896.773-6.659-2.124-8.394a6.133 6.133 0 00-3.134-.864 6.154 6.154 0 00-5.261 2.986 6.079 6.079 0 00-.678 4.636 6.075 6.075 0 002.302 3.429c-4.053 9.218-9.219 13.08-12.565 14.685a2.016 2.016 0 00-.361.168c-1.186.531-2.05.704-2.558.808v4c.275-.03 1.884-.118 4.247-1.192 5.347-1.357 6.839-.354 8.407.709 1.021.692 2.291 1.554 4.263 1.655.099.006.204.009.308.009 2.11 0 5.172-1.022 7.021-1.723a6.132 6.132 0 004.285 1.75 6.112 6.112 0 003.983-1.476 6.072 6.072 0 002.119-4.176 6.072 6.072 0 00-1.458-4.452M92.657 97.151a2.114 2.114 0 013.632 2.165 2.097 2.097 0 01-1.817 1.032c-.379 0-.755-.105-1.084-.301a2.092 2.092 0 01-.964-1.294 2.101 2.101 0 01.233-1.602m12.602 22.363a2.121 2.121 0 01-2.981-.225 2.116 2.116 0 01.231-2.981 2.08 2.08 0 011.373-.512 2.117 2.117 0 012.109 2.278 2.086 2.086 0 01-.732 1.44M106.304 38.027a6.088 6.088 0 00-2.708-3.844 6.12 6.12 0 00-3.264-.944 6.076 6.076 0 00-5.174 2.85 6.108 6.108 0 00.144 6.758c-3.646 4.124-8.707 4.314-9.943 4.293-3.692-1.604-7.234-2.164-10.005-2.317v3.996c2.442.144 5.553.686 8.748 2.136.005.002.01.002.015.005 3.445 1.562 6.334 3.927 8.607 7.041a6.364 6.364 0 00-.381.538c-1.796 2.854-.943 6.643 1.903 8.444.98.622 2.111.951 3.269.951a6.105 6.105 0 005.183-2.851c1.806-2.851.951-6.642-1.908-8.453-1.384-.872-3.092-1.114-4.667-.755-1.538-2.155-3.323-4.017-5.345-5.567 2.517-.778 5.401-2.268 7.78-5.095a6.18 6.18 0 001.77.266 6.08 6.08 0 005.172-2.848 6.053 6.053 0 00.804-4.604m-10.57 22.647a2.128 2.128 0 012.916-.656 2.12 2.12 0 01.66 2.919 2.115 2.115 0 01-2.919.661 2.128 2.128 0 01-.657-2.924m6.379-20.187c-.6.951-1.937 1.271-2.912.653l-.096-.062a2.107 2.107 0 01-.557-2.851 2.093 2.093 0 011.784-.98 2.11 2.11 0 011.781 3.24"/><path clip-path="url(#b)" d="M115 79.011a6.036 6.036 0 002.11 2.649 6.098 6.098 0 003.55 1.14 6.083 6.083 0 005.173-2.848 6.064 6.064 0 00.805-4.605 6.103 6.103 0 00-2.709-3.844 6.128 6.128 0 00-3.266-.944c-.125 0-.25.008-.375.018-.71-3.158-.919-7.769.035-11.265.113.011.225.024.337.024a6.08 6.08 0 005.173-2.848 6.062 6.062 0 00.805-4.604 6.103 6.103 0 00-2.709-3.844 6.128 6.128 0 00-3.266-.944 6.079 6.079 0 00-5.173 2.85 6.104 6.104 0 001.025 7.764c.021.02.048.037.071.059-1.349 4.518-1.145 10.324-.036 14.417-.144.132-.294.254-.426.399a6.327 6.327 0 00-.634.825 6.2 6.2 0 00-.71 1.578c-3.371.488-5.198 1.671-6.824 2.729-2.035 1.324-3.961 2.572-9.636 2.666-1.963-.23-3.552-.178-5.29-.116-1.43.052-2.91.105-4.848.003-1.335-.071-2.104-.882-3.458-2.424-1.803-2.055-4.219-4.648-9.369-5.022v4c3.295.299 4.796 1.887 6.356 3.667 1.487 1.694 3.175 3.615 6.256 3.782 2.118.114 3.76.052 5.208.001 2.491-.092 4.453-.161 7.855.683 2.608.644 12.099 9.674 14.774 14.323-.109.142-.219.282-.314.434-1.743 2.755-1.026 6.385 1.62 8.251.072.052.151.104.283.191.981.621 2.11.948 3.267.948a6.081 6.081 0 005.173-2.849 6.06 6.06 0 00.805-4.603 6.1 6.1 0 00-2.709-3.845 6.128 6.128 0 00-4.809-.749c-2.56-4.188-8.652-10.455-13.189-13.792 1.813-.628 3.05-1.436 4.212-2.188 1.427-.93 2.614-1.69 4.857-2.067m3.88-26.926a2.096 2.096 0 011.783-.98c.4 0 .79.113 1.125.325.481.304.813.775.937 1.33a2.08 2.08 0 01-.28 1.584c-.597.951-1.938 1.273-2.912.653l-.093-.062a2.105 2.105 0 01-.56-2.85m0 23.463a2.096 2.096 0 011.783-.98c.4 0 .79.112 1.125.326.481.304.813.774.937 1.329a2.083 2.083 0 01-.28 1.585c-.597.95-1.938 1.272-2.912.652l-.093-.062a2.105 2.105 0 01-.56-2.85m0 26.304a2.099 2.099 0 011.783-.98c.4 0 .79.113 1.125.326.481.304.813.775.937 1.33a2.08 2.08 0 01-.28 1.584c-.597.951-1.938 1.271-2.912.653l-.093-.062a2.107 2.107 0 01-.56-2.851"/></g><path fill="#D3562C" d="M108.53 116.927a6.11 6.11 0 00-8.631-.662 6.12 6.12 0 00-2.087 5.396c-1.949.701-4.258 1.366-5.328 1.332-.822-.043-1.302-.345-2.224-.971-1.172-.795-2.418-1.512-4.149-1.847 2.936-2.761 6.009-6.83 8.584-12.834a6.15 6.15 0 005.039-2.972c1.724-2.896.773-6.659-2.124-8.394a6.133 6.133 0 00-3.134-.864 6.154 6.154 0 00-5.261 2.986 6.079 6.079 0 00-.678 4.636 6.075 6.075 0 002.302 3.429c-4.053 9.218-9.219 13.08-12.565 14.685a2.016 2.016 0 00-.361.168c-1.186.531-2.05.704-2.558.808v4c.275-.03 1.884-.118 4.247-1.192 5.347-1.357 6.839-.354 8.407.709 1.021.692 2.291 1.554 4.263 1.655.099.006.204.009.308.009 2.11 0 5.172-1.022 7.021-1.723a6.132 6.132 0 004.285 1.75 6.112 6.112 0 003.983-1.476 6.072 6.072 0 002.119-4.176 6.072 6.072 0 00-1.458-4.452m-15.873-16.776a2.114 2.114 0 013.632 2.165 2.097 2.097 0 01-1.817 1.032c-.379 0-.755-.105-1.084-.301a2.092 2.092 0 01-.964-1.294 2.101 2.101 0 01.233-1.602m12.602 22.363a2.121 2.121 0 01-2.981-.225 2.116 2.116 0 01.231-2.981 2.08 2.08 0 011.373-.512 2.117 2.117 0 012.109 2.278 2.086 2.086 0 01-.732 1.44"/><path d="M84.355 53.434"/><path fill="#D3562C" d="M106.304 40.031a6.088 6.088 0 00-2.708-3.844 6.12 6.12 0 00-3.264-.944 6.076 6.076 0 00-5.174 2.85 6.108 6.108 0 00.144 6.758c-3.646 4.124-8.707 4.314-9.943 4.293-3.692-1.604-7.234-2.164-10.005-2.317v3.996c2.442.144 5.553.686 8.748 2.136.005.002.01.002.015.005 3.445 1.562 6.334 3.927 8.607 7.041a6.206 6.206 0 00-.381.538c-1.796 2.854-.943 6.643 1.903 8.444.98.622 2.111.951 3.269.951a6.105 6.105 0 005.183-2.851c1.806-2.851.951-6.642-1.908-8.453-1.384-.872-3.092-1.114-4.667-.755-1.538-2.155-3.323-4.017-5.345-5.567 2.517-.778 5.401-2.268 7.78-5.095a6.18 6.18 0 001.77.266 6.08 6.08 0 005.172-2.849 6.05 6.05 0 00.804-4.603m-10.57 22.647a2.128 2.128 0 012.916-.656 2.12 2.12 0 01.66 2.919 2.115 2.115 0 01-2.919.661 2.128 2.128 0 01-.657-2.924m6.379-20.187c-.6.951-1.937 1.271-2.912.653l-.096-.062a2.107 2.107 0 01-.557-2.851 2.093 2.093 0 011.784-.98 2.11 2.11 0 011.781 3.24"/><path fill="#D3562C" d="M115 82.011a6.036 6.036 0 002.11 2.649 6.098 6.098 0 003.55 1.14 6.081 6.081 0 005.173-2.849 6.063 6.063 0 00.805-4.604 6.103 6.103 0 00-2.709-3.844 6.128 6.128 0 00-3.266-.944c-.125 0-.25.008-.375.018-.71-3.158-.919-7.769.035-11.265.113.011.225.024.337.024a6.08 6.08 0 005.173-2.848 6.062 6.062 0 00.805-4.604 6.103 6.103 0 00-2.709-3.844 6.128 6.128 0 00-3.266-.944 6.079 6.079 0 00-5.173 2.85 6.104 6.104 0 001.025 7.764c.021.02.048.037.071.059-1.349 4.518-1.145 10.324-.036 14.417-.144.132-.294.254-.426.399a6.327 6.327 0 00-.634.825 6.2 6.2 0 00-.71 1.578c-3.371.488-5.198 1.671-6.824 2.729-2.035 1.323-3.961 2.571-9.636 2.665-1.963-.23-3.552-.178-5.29-.116-1.43.052-2.91.105-4.848.003-1.335-.071-2.104-.882-3.458-2.424-1.803-2.055-4.219-4.648-9.369-5.022v4c3.295.298 4.796 1.887 6.356 3.667 1.487 1.694 3.175 3.615 6.256 3.782 2.118.114 3.76.052 5.208.001 2.491-.092 4.453-.161 7.855.683 2.608.644 12.099 9.674 14.774 14.323-.109.142-.219.282-.314.434-1.743 2.755-1.026 6.385 1.62 8.251.072.052.151.104.283.191.981.621 2.11.948 3.267.948a6.081 6.081 0 005.173-2.849 6.06 6.06 0 00.805-4.603 6.1 6.1 0 00-2.709-3.845 6.128 6.128 0 00-4.809-.749c-2.56-4.188-8.652-10.455-13.189-13.792 1.813-.628 3.05-1.436 4.212-2.188 1.427-.929 2.614-1.689 4.857-2.066m3.88-26.926a2.096 2.096 0 011.783-.98c.4 0 .79.113 1.125.325.481.304.813.775.937 1.33a2.08 2.08 0 01-.28 1.584c-.597.951-1.938 1.273-2.912.653l-.093-.062a2.105 2.105 0 01-.56-2.85m0 23.463a2.096 2.096 0 011.783-.98c.4 0 .79.112 1.125.326.481.304.813.774.937 1.329a2.084 2.084 0 01-.28 1.585c-.597.95-1.938 1.271-2.912.652l-.093-.062a2.105 2.105 0 01-.56-2.85m0 26.304a2.099 2.099 0 011.783-.98c.4 0 .79.113 1.125.326.481.304.813.775.937 1.33a2.08 2.08 0 01-.28 1.584c-.597.951-1.938 1.271-2.912.653l-.093-.062a2.107 2.107 0 01-.56-2.851"/><path fill="#FFFEDB" d="M108.53 113.927a6.11 6.11 0 00-8.631-.662 6.12 6.12 0 00-2.087 5.396c-1.949.701-4.258 1.366-5.328 1.332-.822-.043-1.302-.345-2.224-.971-1.172-.795-2.418-1.512-4.149-1.847 2.936-2.761 6.009-6.83 8.584-12.834a6.15 6.15 0 005.039-2.972c1.724-2.896.773-6.659-2.124-8.394a6.133 6.133 0 00-3.134-.864 6.154 6.154 0 00-5.261 2.986 6.079 6.079 0 00-.678 4.636 6.075 6.075 0 002.302 3.429c-4.053 9.218-9.219 13.08-12.565 14.685a2.016 2.016 0 00-.361.168c-1.186.531-2.05.704-2.558.808v4c.275-.03 1.884-.118 4.247-1.192 5.347-1.357 6.839-.354 8.407.709 1.021.692 2.291 1.554 4.263 1.655.099.006.204.009.308.009 2.11 0 5.172-1.022 7.021-1.723a6.132 6.132 0 004.285 1.75 6.112 6.112 0 003.983-1.476 6.072 6.072 0 002.119-4.176 6.072 6.072 0 00-1.458-4.452M92.657 97.151a2.114 2.114 0 013.632 2.165 2.097 2.097 0 01-1.817 1.032c-.379 0-.755-.105-1.084-.301a2.092 2.092 0 01-.964-1.294 2.101 2.101 0 01.233-1.602m12.602 22.363a2.121 2.121 0 01-2.981-.225 2.116 2.116 0 01.231-2.981 2.08 2.08 0 011.373-.512 2.117 2.117 0 012.109 2.278 2.086 2.086 0 01-.732 1.44M106.304 38.027a6.088 6.088 0 00-2.708-3.844 6.12 6.12 0 00-3.264-.944 6.076 6.076 0 00-5.174 2.85 6.108 6.108 0 00.144 6.758c-3.646 4.124-8.707 4.314-9.943 4.293-3.692-1.604-7.234-2.164-10.005-2.317v3.996c2.442.144 5.553.686 8.748 2.136.005.002.01.002.015.005 3.445 1.562 6.334 3.927 8.607 7.041a6.364 6.364 0 00-.381.538c-1.796 2.854-.943 6.643 1.903 8.444.98.622 2.111.951 3.269.951a6.105 6.105 0 005.183-2.851c1.806-2.851.951-6.642-1.908-8.453-1.384-.872-3.092-1.114-4.667-.755-1.538-2.155-3.323-4.017-5.345-5.567 2.517-.778 5.401-2.268 7.78-5.095a6.18 6.18 0 001.77.266 6.08 6.08 0 005.172-2.848 6.053 6.053 0 00.804-4.604m-10.57 22.647a2.128 2.128 0 012.916-.656 2.12 2.12 0 01.66 2.919 2.115 2.115 0 01-2.919.661 2.128 2.128 0 01-.657-2.924m6.379-20.187c-.6.951-1.937 1.271-2.912.653l-.096-.062a2.107 2.107 0 01-.557-2.851 2.093 2.093 0 011.784-.98 2.11 2.11 0 011.781 3.24"/><path fill="#FFFEDB" d="M115 79.011a6.036 6.036 0 002.11 2.649 6.098 6.098 0 003.55 1.14 6.083 6.083 0 005.173-2.848 6.064 6.064 0 00.805-4.605 6.103 6.103 0 00-2.709-3.844 6.128 6.128 0 00-3.266-.944c-.125 0-.25.008-.375.018-.71-3.158-.919-7.769.035-11.265.113.011.225.024.337.024a6.08 6.08 0 005.173-2.848 6.062 6.062 0 00.805-4.604 6.103 6.103 0 00-2.709-3.844 6.128 6.128 0 00-3.266-.944 6.079 6.079 0 00-5.173 2.85 6.104 6.104 0 001.025 7.764c.021.02.048.037.071.059-1.349 4.518-1.145 10.324-.036 14.417-.144.132-.294.254-.426.399a6.327 6.327 0 00-.634.825 6.2 6.2 0 00-.71 1.578c-3.371.488-5.198 1.671-6.824 2.729-2.035 1.324-3.961 2.572-9.636 2.666-1.963-.23-3.552-.178-5.29-.116-1.43.052-2.91.105-4.848.003-1.335-.071-2.104-.882-3.458-2.424-1.803-2.055-4.219-4.648-9.369-5.022v4c3.295.299 4.796 1.887 6.356 3.667 1.487 1.694 3.175 3.615 6.256 3.782 2.118.114 3.76.052 5.208.001 2.491-.092 4.453-.161 7.855.683 2.608.644 12.099 9.674 14.774 14.323-.109.142-.219.282-.314.434-1.743 2.755-1.026 6.385 1.62 8.251.072.052.151.104.283.191.981.621 2.11.948 3.267.948a6.081 6.081 0 005.173-2.849 6.06 6.06 0 00.805-4.603 6.1 6.1 0 00-2.709-3.845 6.128 6.128 0 00-4.809-.749c-2.56-4.188-8.652-10.455-13.189-13.792 1.813-.628 3.05-1.436 4.212-2.188 1.427-.93 2.614-1.69 4.857-2.067m3.88-26.926a2.096 2.096 0 011.783-.98c.4 0 .79.113 1.125.325.481.304.813.775.937 1.33a2.08 2.08 0 01-.28 1.584c-.597.951-1.938 1.273-2.912.653l-.093-.062a2.105 2.105 0 01-.56-2.85m0 23.463a2.096 2.096 0 011.783-.98c.4 0 .79.112 1.125.326.481.304.813.774.937 1.329a2.083 2.083 0 01-.28 1.585c-.597.95-1.938 1.272-2.912.652l-.093-.062a2.105 2.105 0 01-.56-2.85m0 26.304a2.099 2.099 0 011.783-.98c.4 0 .79.113 1.125.326.481.304.813.775.937 1.33a2.08 2.08 0 01-.28 1.584c-.597.951-1.938 1.271-2.912.653l-.093-.062a2.107 2.107 0 01-.56-2.851"/><g opacity=".25"><path d="M53.783 104.537c-.239 0-.48-.072-.691-.219a1.21 1.21 0 01-.29-1.684c.273-.387.519-.799.73-1.227a9.028 9.028 0 00-.501-8.961 1.208 1.208 0 112.032-1.307c2.176 3.389 2.42 7.736.633 11.34a11.833 11.833 0 01-.92 1.547 1.204 1.204 0 01-.993.511M59.339 107.414a1.207 1.207 0 01-.968-1.922c.453-.615.854-1.279 1.198-1.973a13.243 13.243 0 00-1.251-13.846 1.207 1.207 0 111.937-1.441 15.643 15.643 0 011.478 16.357c-.404.818-.88 1.604-1.414 2.33a1.213 1.213 0 01-.98.495M48.345 101.486a1.21 1.21 0 01-1.045-1.802 4.802 4.802 0 00.18-4.369 1.208 1.208 0 012.193-1.01 7.22 7.22 0 01-.271 6.57 1.209 1.209 0 01-1.057.611"/></g><g fill="#EB743B"><path d="M53.783 101.537c-.239 0-.48-.072-.691-.219a1.21 1.21 0 01-.29-1.684c.273-.387.519-.799.73-1.227a9.028 9.028 0 00-.501-8.961 1.208 1.208 0 112.032-1.307c2.176 3.389 2.42 7.736.633 11.34a11.833 11.833 0 01-.92 1.547 1.204 1.204 0 01-.993.511M59.339 104.414a1.207 1.207 0 01-.968-1.922c.453-.615.854-1.279 1.198-1.973a13.243 13.243 0 00-1.251-13.846 1.207 1.207 0 111.937-1.441 15.643 15.643 0 011.478 16.357c-.404.818-.88 1.604-1.414 2.33a1.213 1.213 0 01-.98.495M48.345 98.486a1.21 1.21 0 01-1.045-1.802 4.802 4.802 0 00.18-4.369 1.208 1.208 0 012.193-1.01 7.22 7.22 0 01-.271 6.57 1.209 1.209 0 01-1.057.611"/></g><g><path d="M66.082 47.24c-10.12 0-20.365 3.656-26.736 9.543-6.886 6.361-10.521 16.245-10.348 27.989a3.99 3.99 0 00-3.41 3.941v18.119a4 4 0 004 4h2.033c.316 0 .619-.047.914-.115v1.602c0 2.209 1.565 4 3.495 4h1.898c1.93 0 3.495-1.791 3.495-4V82.65c0-2.209-1.565-4-3.495-4H36.03c-1.717 0-3.138 1.42-3.432 3.288.065-1.855.204-3.652.435-5.096 1.154-7.232 4.119-13.268 8.688-17.488 5.664-5.232 15.226-8.613 24.361-8.613 1.042 0 3.241.043 4.277.143v-3.49c-1.2-.117-3.163-.154-4.277-.154zm-34.459 59.188a2.652 2.652 0 01-2.651-2.65v-12.01a2.651 2.651 0 012.651-2.652h.913v17.312h-.913z" opacity=".25"/><path fill="#FFFEDB" d="M66.082 44.24c-10.12 0-20.365 3.656-26.736 9.543-6.886 6.361-10.521 16.245-10.348 27.989a3.99 3.99 0 00-3.41 3.941v18.119a4 4 0 004 4h2.033c.316 0 .619-.047.914-.115v1.602c0 2.209 1.565 4 3.495 4h1.898c1.93 0 3.495-1.791 3.495-4V79.65c0-2.209-1.565-4-3.495-4H36.03c-1.717 0-3.138 1.42-3.432 3.287.065-1.854.204-3.651.435-5.096 1.154-7.232 4.119-13.268 8.688-17.488 5.664-5.232 15.226-8.613 24.361-8.613 1.042 0 3.241.043 4.277.143v-3.49c-1.2-.116-3.163-.153-4.277-.153zm-34.459 59.188a2.652 2.652 0 01-2.651-2.65v-12.01a2.651 2.651 0 012.651-2.652h.913v17.312h-.913z"/></g><g fill="#353070"><path d="M174.775 97.672h22.972v10.151h-36.169V53.081h13.197v44.591zM202.635 56.653c0-1.805.651-3.283 1.955-4.437 1.303-1.153 2.995-1.729 5.076-1.729 2.08 0 3.772.577 5.076 1.729 1.303 1.153 1.955 2.632 1.955 4.437s-.652 3.284-1.955 4.437c-1.304 1.153-2.996 1.729-5.076 1.729-2.081 0-3.772-.576-5.076-1.729-1.304-1.153-1.955-2.632-1.955-4.437zm13.46 51.17h-12.708v-40.68h12.708v40.68zM245.195 96.394c0-1.077-.564-1.942-1.692-2.594-1.128-.652-3.271-1.329-6.429-2.031-3.158-.701-5.765-1.622-7.82-2.763-2.056-1.141-3.622-2.525-4.7-4.155-1.078-1.629-1.617-3.496-1.617-5.602 0-3.734 1.542-6.811 4.625-9.23 3.083-2.418 7.118-3.628 12.106-3.628 5.364 0 9.675 1.216 12.934 3.647 3.258 2.432 4.888 5.627 4.888 9.587h-12.708c0-3.258-1.717-4.888-5.151-4.888-1.329 0-2.444.37-3.346 1.109s-1.354 1.661-1.354 2.763c0 1.128.551 2.042 1.654 2.745 1.103.702 2.863 1.278 5.282 1.729s4.543.99 6.373 1.616c6.116 2.105 9.174 5.879 9.174 11.317 0 3.71-1.648 6.729-4.944 9.062-3.296 2.33-7.563 3.496-12.802 3.496-3.484 0-6.592-.627-9.324-1.88s-4.863-2.957-6.392-5.113c-1.529-2.155-2.293-4.424-2.293-6.806h11.843c.05 1.881.677 3.253 1.88 4.117 1.203.865 2.745 1.297 4.625 1.297 1.729 0 3.027-.351 3.891-1.053.865-.699 1.297-1.615 1.297-2.742zM278.093 57.029v10.114h6.692v8.798h-6.692v18.611c0 1.528.275 2.594.827 3.195.551.602 1.642.902 3.271.902 1.253 0 2.306-.075 3.158-.226v9.062a23.38 23.38 0 01-7.144 1.09c-4.361 0-7.583-1.027-9.663-3.083-2.081-2.055-3.121-5.176-3.121-9.362V75.94h-5.188v-8.798h5.188V57.029h12.672zM309.449 108.575c-6.24 0-11.292-1.861-15.151-5.583-3.86-3.723-5.79-8.566-5.79-14.532v-1.053c0-4.16.771-7.832 2.312-11.016 1.542-3.183 3.791-5.646 6.749-7.388 2.958-1.742 6.466-2.613 10.527-2.613 5.715 0 10.227 1.773 13.535 5.32s4.963 8.49 4.963 14.832v4.925h-25.189c.451 2.281 1.441 4.074 2.971 5.377 1.527 1.304 3.508 1.955 5.939 1.955 4.01 0 7.145-1.403 9.4-4.211l5.789 6.843c-1.578 2.181-3.816 3.917-6.711 5.207-2.895 1.292-6.01 1.937-9.344 1.937zm-1.428-32.409c-3.711 0-5.916 2.457-6.617 7.369h12.783v-.978c.049-2.03-.465-3.603-1.541-4.719-1.078-1.114-2.621-1.672-4.625-1.672zM343.325 67.143l.414 4.775c2.807-3.685 6.679-5.527 11.617-5.527 4.235 0 7.4 1.266 9.493 3.797 2.093 2.532 3.177 6.342 3.253 11.43v26.205h-12.709v-25.68c0-2.055-.413-3.565-1.24-4.53-.827-.964-2.331-1.447-4.512-1.447-2.481 0-4.324.978-5.527 2.933v28.725h-12.67V67.143h11.881z"/></g><g fill="#EB743B"><path d="M375.638 107.823V53.081h19.663c7.044 0 12.401 1.291 16.073 3.873 3.672 2.582 5.509 6.329 5.509 11.242 0 2.833-.652 5.251-1.955 7.256-1.304 2.005-3.222 3.484-5.753 4.437 2.857.752 5.051 2.156 6.579 4.21 1.529 2.056 2.294 4.562 2.294 7.52 0 5.364-1.698 9.394-5.095 12.088-3.396 2.695-8.428 4.067-15.096 4.117h-22.219zm13.196-31.92h6.881c2.882-.025 4.938-.553 6.166-1.584 1.228-1.03 1.842-2.551 1.842-4.562 0-2.313-.664-3.979-1.992-4.997-1.329-1.018-3.472-1.527-6.43-1.527h-6.467v12.67zm0 8.647v13.122h8.648c2.381 0 4.211-.545 5.488-1.636 1.279-1.09 1.918-2.625 1.918-4.605 0-4.562-2.269-6.855-6.805-6.881h-9.249zM449.328 78.61l-4.173-.301c-3.985 0-6.542 1.253-7.67 3.76v25.754h-12.671v-40.68h11.881l.414 5.226c2.13-3.985 5.101-5.978 8.91-5.978 1.354 0 2.532.15 3.535.451l-.226 11.768zM475.734 107.823c-.451-.827-.853-2.043-1.203-3.646-2.331 2.932-5.59 4.398-9.775 4.398-3.835 0-7.094-1.159-9.775-3.478-2.683-2.318-4.023-5.232-4.023-8.741 0-4.412 1.63-7.746 4.889-10.002 3.258-2.256 7.995-3.383 14.211-3.383h3.91v-2.154c0-3.752-1.616-5.629-4.85-5.629-3.008 0-4.512 1.486-4.512 4.458h-12.67c0-3.93 1.673-7.123 5.019-9.576 3.347-2.454 7.614-3.681 12.802-3.681 5.189 0 9.287 1.266 12.295 3.797 3.008 2.532 4.549 6.003 4.625 10.415v18.01c.05 3.734.626 6.592 1.729 8.572v.639h-12.672zm-7.933-8.271c1.58 0 2.889-.338 3.93-1.016 1.04-.676 1.785-1.44 2.236-2.293v-6.504h-3.684c-4.412 0-6.617 1.979-6.617 5.939 0 1.153.388 2.087 1.165 2.802.776.714 1.767 1.072 2.97 1.072zM493.594 56.653c0-1.805.651-3.283 1.955-4.437 1.303-1.153 2.995-1.729 5.076-1.729 2.08 0 3.771.577 5.075 1.729 1.303 1.153 1.955 2.632 1.955 4.437s-.652 3.284-1.955 4.437c-1.304 1.153-2.995 1.729-5.075 1.729-2.081 0-3.773-.576-5.076-1.729-1.304-1.153-1.955-2.632-1.955-4.437zm13.46 51.17h-12.708v-40.68h12.708v40.68zM526.492 67.143l.414 4.775c2.807-3.685 6.679-5.527 11.617-5.527 4.235 0 7.4 1.266 9.493 3.797 2.093 2.532 3.177 6.342 3.253 11.43v26.205H538.56v-25.68c0-2.055-.413-3.565-1.24-4.53-.827-.964-2.331-1.447-4.512-1.447-2.481 0-4.324.978-5.527 2.933v28.725h-12.67V67.143h11.881zM573.227 98.048h18.535v9.775H557.21v-7.068l18.047-23.837H558v-9.775h33.349v6.843l-18.122 24.062z"/></g></svg>