<?xml version="1.0" encoding="utf-8"?>
<!-- Generator: Adobe Illustrator 16.0.0, SVG Export Plug-In . SVG Version: 6.00 Build 0)  -->
<!DOCTYPE svg PUBLIC "-//W3C//DTD SVG 1.1//EN" "http://www.w3.org/Graphics/SVG/1.1/DTD/svg11.dtd" [
	<!ENTITY ns_extend "http://ns.adobe.com/Extensibility/1.0/">
	<!ENTITY ns_ai "http://ns.adobe.com/AdobeIllustrator/10.0/">
	<!ENTITY ns_graphs "http://ns.adobe.com/Graphs/1.0/">
	<!ENTITY ns_vars "http://ns.adobe.com/Variables/1.0/">
	<!ENTITY ns_imrep "http://ns.adobe.com/ImageReplacement/1.0/">
	<!ENTITY ns_sfw "http://ns.adobe.com/SaveForWeb/1.0/">
	<!ENTITY ns_custom "http://ns.adobe.com/GenericCustomNamespace/1.0/">
	<!ENTITY ns_adobe_xpath "http://ns.adobe.com/XPath/1.0/">
]>
<svg version="1.1" id="Layer_1" xmlns:x="&ns_extend;" xmlns:i="&ns_ai;" xmlns:graph="&ns_graphs;"
	 xmlns="http://www.w3.org/2000/svg" xmlns:xlink="http://www.w3.org/1999/xlink" x="0px" y="0px" width="585px" height="150px"
	 viewBox="0 0 585 150" enable-background="new 0 0 585 150" xml:space="preserve">
<metadata>
	<sfw  xmlns="&ns_sfw;">
		<slices></slices>
		<sliceSourceBounds  height="144" width="539.528" y="-589" x="2966" bottomLeftOrigin="true"></sliceSourceBounds>
	</sfw>
</metadata>
<g>
</g>
<g>
	<g>
		<path fill="#5AA854" d="M173.082,48.216l9.656,36.655l9.656-36.655h17.483v54.607h-13.313V91.948l1.266-25.405l-10.733,36.28
			h-8.766L167.645,66.73l1.266,25.218v10.875h-13.265V48.216H173.082z"/>
		<path fill="#5AA854" d="M237.524,103.686c-6.269,0-11.155-1.868-14.662-5.605c-3.508-3.737-5.262-9.085-5.262-16.042v-3.709
			c0-7.359,1.61-13.037,4.83-17.034c3.22-3.995,7.834-5.994,13.843-5.994c5.865,0,10.277,1.874,13.239,5.62
			c2.96,3.746,4.47,9.293,4.527,16.642v5.984h-24.278c0.173,3.495,0.934,6.051,2.285,7.667s3.436,2.424,6.253,2.424
			c4.082,0,7.489-1.423,10.221-4.269l4.787,7.374c-1.496,2.069-3.666,3.745-6.512,5.023
			C243.949,103.046,240.858,103.686,237.524,103.686z M229.848,75.052h12.204V73.92c-0.058-2.813-0.518-4.945-1.38-6.396
			s-2.357-2.176-4.484-2.176c-2.128,0-3.673,0.77-4.636,2.307C230.588,69.193,230.021,71.658,229.848,75.052z"/>
		<path fill="#5AA854" d="M275.127,44.692v11.472h6.253v9.142h-6.253v23.193c0,1.843,0.252,3.109,0.755,3.801
			s1.474,1.036,2.911,1.036c1.179,0,2.142-0.101,2.89-0.302l-0.087,9.487c-2.069,0.776-4.313,1.164-6.728,1.164
			c-7.877,0-11.858-4.519-11.944-13.556V65.306h-5.391v-9.142h5.391V44.692H275.127z"/>
		<path fill="#5AA854" d="M310.23,102.823c-0.346-0.719-0.69-1.926-1.035-3.622c-2.186,2.99-5.146,4.484-8.884,4.484
			c-3.91,0-7.151-1.294-9.724-3.881c-2.573-2.588-3.86-5.937-3.86-10.048c0-4.887,1.56-8.668,4.68-11.342
			c3.118-2.674,7.611-4.038,13.476-4.097h3.709v-3.752c0-2.098-0.36-3.579-1.078-4.441c-0.719-0.862-1.769-1.294-3.148-1.294
			c-3.048,0-4.571,1.783-4.571,5.348h-12.203c0-4.313,1.617-7.87,4.851-10.673c3.234-2.803,7.324-4.205,12.269-4.205
			c5.117,0,9.078,1.33,11.881,3.989s4.205,6.462,4.205,11.406v21.95c0.057,4.025,0.632,7.173,1.725,9.443v0.733H310.23z
			 M303.028,94.112c1.352,0,2.501-0.272,3.45-0.819c0.948-0.546,1.652-1.192,2.113-1.94v-9.703h-2.933
			c-2.07,0-3.702,0.662-4.895,1.983c-1.193,1.323-1.79,3.091-1.79,5.305C298.975,92.388,300.326,94.112,303.028,94.112z"/>
		<path fill="#EB743B" d="M329.506,102.823V48.216h18.562c6.375,0,11.242,1.289,14.602,3.867c3.358,2.578,5.038,6.32,5.038,11.226
			c0,2.782-0.609,5.203-1.827,7.266c-1.219,2.063-3.017,3.579-5.391,4.547c2.562,0.75,4.547,2.18,5.953,4.289
			c1.405,2.109,2.108,4.695,2.108,7.758c0,5.437-1.578,9.405-4.733,11.905c-3.157,2.501-7.906,3.75-14.25,3.75H329.506z
			 M342.771,70.902h6.375c3.531-0.094,5.297-1.969,5.297-5.625c0-2.156-0.438-3.694-1.313-4.616
			c-0.875-0.922-2.219-1.383-4.031-1.383h-6.328V70.902z M342.771,80.137v11.765h6.797c1.844,0,3.258-0.501,4.242-1.506
			c0.984-1.003,1.477-2.384,1.477-4.142c0-3.952-1.594-5.991-4.781-6.117H342.771z"/>
		<path fill="#EB743B" d="M399.678,67.937l-4.054-0.345c-3.335,0-5.592,1.466-6.771,4.398v30.833h-12.247V56.164h11.514l0.346,5.045
			c1.926-3.938,4.585-5.908,7.978-5.908c1.38,0,2.501,0.188,3.363,0.561L399.678,67.937z"/>
		<path fill="#EB743B" d="M426.802,102.823c-0.346-0.719-0.69-1.926-1.035-3.622c-2.186,2.99-5.146,4.484-8.884,4.484
			c-3.91,0-7.151-1.294-9.724-3.881c-2.573-2.588-3.86-5.937-3.86-10.048c0-4.887,1.56-8.668,4.68-11.342
			c3.118-2.674,7.611-4.038,13.476-4.097h3.709v-3.752c0-2.098-0.36-3.579-1.078-4.441c-0.719-0.862-1.769-1.294-3.148-1.294
			c-3.048,0-4.571,1.783-4.571,5.348h-12.203c0-4.313,1.617-7.87,4.851-10.673c3.234-2.803,7.324-4.205,12.269-4.205
			c5.117,0,9.078,1.33,11.881,3.989s4.205,6.462,4.205,11.406v21.95c0.057,4.025,0.632,7.173,1.725,9.443v0.733H426.802z
			 M419.6,94.112c1.352,0,2.501-0.272,3.45-0.819c0.948-0.546,1.652-1.192,2.113-1.94v-9.703h-2.933
			c-2.07,0-3.702,0.662-4.895,1.983c-1.193,1.323-1.79,3.091-1.79,5.305C415.546,92.388,416.897,94.112,419.6,94.112z"/>
		<path fill="#EB743B" d="M446.207,45.089c0-1.897,0.604-3.449,1.812-4.657c1.207-1.207,2.817-1.812,4.83-1.812
			c2.012,0,3.622,0.604,4.829,1.812c1.208,1.208,1.812,2.76,1.812,4.657c0,1.869-0.597,3.422-1.789,4.657
			c-1.193,1.236-2.811,1.854-4.852,1.854c-2.042,0-3.659-0.618-4.852-1.854C446.804,48.511,446.207,46.958,446.207,45.089z
			 M459.015,102.823h-12.247V56.164h12.247V102.823z"/>
		<path fill="#EB743B" d="M479.628,56.164l0.346,4.614c2.76-3.651,6.367-5.478,10.823-5.478c8.021,0,12.146,5.621,12.377,16.861
			v30.661h-12.247V73.068c0-2.645-0.396-4.564-1.186-5.757c-0.792-1.193-2.178-1.79-4.162-1.79c-2.214,0-3.938,1.136-5.175,3.406
			v33.896h-12.247V56.164H479.628z"/>
		<path fill="#EB743B" d="M525.426,92.775h18.457v10.048h-32.946v-7.568l18.025-28.914h-17.595V56.164h32.257v7.374L525.426,92.775z
			"/>
	</g>
	<g>
		<polygon fill="#EB743B" points="70.354,2.823 70.354,146.823 131.354,111.823 131.354,37.823 		"/>
		<polygon fill="#5AA854" points="65.354,2.823 4.354,37.823 4.354,111.823 65.354,146.823 		"/>
		<g>
			<g opacity="0.07">
				<path d="M87.656,94.557c0.386-0.645,1.066-1.03,1.819-1.03c0.378,0,0.752,0.104,1.078,0.297c1,0.601,1.331,1.899,0.735,2.898
					c-0.385,0.646-1.064,1.032-1.817,1.032c-0.379,0-0.755-0.104-1.084-0.301c-0.483-0.288-0.826-0.748-0.964-1.294
					C87.285,95.61,87.368,95.042,87.656,94.557z M100.259,116.919c-0.49,0.421-1.018,0.509-1.373,0.509
					c-0.621,0-1.207-0.269-1.608-0.734c-0.758-0.885-0.654-2.222,0.231-2.981c0.492-0.423,1.018-0.512,1.373-0.512
					c0.617,0,1.201,0.269,1.605,0.74c0.368,0.43,0.547,0.976,0.504,1.538S100.689,116.551,100.259,116.919z"/>
				<path d="M79.355,48.434c0.07,0.019,0.142,0.034,0.212,0.046C79.495,48.468,79.425,48.452,79.355,48.434z"/>
				<path d="M90.734,58.08c0.169-0.267,0.395-0.49,0.673-0.661c0.335-0.207,0.722-0.316,1.121-0.316c0.4,0,0.79,0.112,1.122,0.321
					c0.987,0.627,1.283,1.936,0.66,2.919c-0.392,0.618-1.063,0.988-1.795,0.988c-0.397,0-0.785-0.113-1.124-0.327
					C90.407,60.38,90.113,59.067,90.734,58.08z M97.113,37.893c-0.6,0.951-1.938,1.271-2.912,0.653l-0.096-0.063
					c-0.914-0.647-1.161-1.897-0.558-2.851c0.386-0.613,1.053-0.98,1.784-0.98c0.397,0,0.787,0.113,1.124,0.326
					c0.479,0.304,0.813,0.775,0.937,1.33C97.515,36.854,97.418,37.415,97.113,37.893z"/>
				<path d="M113.88,49.491c0.388-0.614,1.054-0.98,1.783-0.98c0.399,0,0.79,0.113,1.125,0.325c0.48,0.304,0.813,0.775,0.937,1.33
					c0.122,0.546,0.024,1.106-0.279,1.584c-0.598,0.951-1.938,1.272-2.912,0.653l-0.094-0.063
					C113.522,51.694,113.277,50.444,113.88,49.491z M113.88,72.954c0.388-0.614,1.054-0.98,1.783-0.98
					c0.399,0,0.79,0.112,1.125,0.326c0.48,0.304,0.813,0.774,0.937,1.329c0.122,0.546,0.024,1.107-0.279,1.585
					c-0.598,0.95-1.938,1.271-2.912,0.652l-0.094-0.063C113.522,75.157,113.277,73.907,113.88,72.954z M113.88,99.257
					c0.388-0.613,1.054-0.979,1.783-0.979c0.399,0,0.79,0.112,1.125,0.325c0.48,0.304,0.813,0.775,0.937,1.33
					c0.122,0.547,0.024,1.106-0.279,1.584c-0.598,0.951-1.938,1.271-2.912,0.653l-0.094-0.063
					C113.522,101.46,113.277,100.211,113.88,99.257z"/>
				<path d="M103.53,108.927c-1.165-1.36-2.858-2.139-4.648-2.139c-1.459,0-2.875,0.525-3.983,1.477
					c-1.612,1.383-2.326,3.429-2.087,5.397c-1.948,0.7-4.258,1.365-5.328,1.332c-0.821-0.044-1.302-0.346-2.224-0.972
					c-1.172-0.795-2.418-1.512-4.148-1.847c2.936-2.761,6.009-6.83,8.584-12.834c2.061-0.076,3.976-1.193,5.038-2.972
					c1.725-2.896,0.773-6.659-2.124-8.394c-0.949-0.565-2.032-0.864-3.134-0.864c-2.146,0-4.161,1.144-5.261,2.986
					c-0.838,1.405-1.079,3.05-0.678,4.636c0.351,1.393,1.16,2.59,2.302,3.429c-4.053,9.218-9.219,13.081-12.565,14.685
					c-0.128,0.045-0.248,0.101-0.36,0.168c-1.187,0.531-2.05,0.704-2.559,0.808v4c0.275-0.03,1.885-0.118,4.247-1.192
					c5.348-1.357,6.839-0.354,8.407,0.709c1.021,0.692,2.291,1.554,4.263,1.656c0.1,0.005,0.204,0.008,0.309,0.008
					c2.109,0,5.172-1.022,7.021-1.723c1.144,1.116,2.676,1.75,4.285,1.75l0,0c1.461,0,2.876-0.524,3.983-1.476
					c1.24-1.062,1.993-2.546,2.118-4.176C105.112,111.748,104.595,110.165,103.53,108.927z M87.656,92.151
					c0.386-0.645,1.066-1.03,1.819-1.03c0.378,0,0.752,0.104,1.078,0.297c1,0.601,1.331,1.899,0.735,2.898
					c-0.385,0.646-1.064,1.032-1.817,1.032c-0.379,0-0.755-0.104-1.084-0.301c-0.483-0.288-0.826-0.748-0.964-1.294
					C87.285,93.205,87.368,92.637,87.656,92.151z M100.259,114.514c-0.49,0.421-1.018,0.509-1.373,0.509
					c-0.621,0-1.207-0.269-1.608-0.734c-0.758-0.885-0.654-2.222,0.231-2.981c0.492-0.423,1.018-0.512,1.373-0.512
					c0.617,0,1.201,0.269,1.605,0.74c0.368,0.43,0.547,0.976,0.504,1.538S100.689,114.146,100.259,114.514z"/>
				<path d="M79.355,46.028c0.07,0.019,0.142,0.034,0.212,0.046C79.495,46.063,79.425,46.047,79.355,46.028z"/>
				<path d="M101.305,33.027c-0.357-1.599-1.317-2.964-2.708-3.844c-0.98-0.617-2.109-0.944-3.265-0.944
					c-2.117,0-4.053,1.066-5.174,2.85c-1.354,2.138-1.218,4.799,0.144,6.759c-3.646,4.124-8.706,4.313-9.942,4.293
					c-3.692-1.604-7.234-2.164-10.005-2.317v3.996c2.441,0.144,5.553,0.686,8.748,2.136c0.005,0.002,0.01,0.002,0.015,0.005
					c3.445,1.563,6.334,3.928,8.607,7.041c-0.136,0.173-0.265,0.352-0.382,0.538c-1.796,2.854-0.942,6.644,1.903,8.444
					c0.98,0.622,2.111,0.951,3.27,0.951c2.113,0,4.051-1.065,5.183-2.852c1.806-2.851,0.951-6.642-1.908-8.453
					c-1.384-0.871-3.092-1.113-4.667-0.755c-1.538-2.154-3.323-4.017-5.345-5.566c2.517-0.778,5.401-2.269,7.78-5.096
					c0.572,0.172,1.166,0.267,1.77,0.267c2.116,0,4.051-1.068,5.172-2.849C101.375,36.256,101.661,34.622,101.305,33.027z
					 M90.734,55.675c0.169-0.267,0.395-0.49,0.673-0.661c0.335-0.207,0.722-0.316,1.121-0.316c0.4,0,0.79,0.112,1.122,0.321
					c0.987,0.627,1.283,1.936,0.66,2.919c-0.392,0.618-1.063,0.988-1.795,0.988c-0.397,0-0.785-0.113-1.124-0.327
					C90.407,57.975,90.113,56.662,90.734,55.675z M97.113,35.487c-0.6,0.951-1.938,1.271-2.912,0.653l-0.096-0.063
					c-0.914-0.647-1.161-1.897-0.558-2.851c0.386-0.613,1.053-0.98,1.784-0.98c0.397,0,0.787,0.113,1.124,0.326
					c0.479,0.304,0.813,0.775,0.937,1.33C97.515,34.449,97.418,35.01,97.113,35.487z"/>
				<path d="M110,74.011c0.425,1.035,1.136,1.962,2.109,2.649c0.072,0.052,0.151,0.105,0.283,0.191
					c0.981,0.621,2.11,0.949,3.268,0.949c2.116,0,4.052-1.068,5.173-2.849c0.875-1.375,1.16-3.01,0.805-4.604
					c-0.358-1.598-1.318-2.964-2.709-3.844c-0.98-0.617-2.109-0.944-3.266-0.944c-0.125,0-0.25,0.008-0.375,0.018
					c-0.71-3.157-0.919-7.769,0.035-11.265c0.112,0.011,0.225,0.024,0.337,0.024c2.116,0,4.052-1.067,5.173-2.849
					c0.875-1.375,1.16-3.009,0.805-4.604c-0.358-1.599-1.318-2.964-2.709-3.844c-0.98-0.617-2.109-0.944-3.266-0.944
					c-2.114,0-4.051,1.066-5.173,2.85c-1.604,2.532-1.12,5.804,1.024,7.765c0.021,0.02,0.048,0.037,0.071,0.059
					c-1.349,4.518-1.146,10.324-0.036,14.417c-0.144,0.132-0.294,0.254-0.426,0.399c-0.229,0.255-0.445,0.526-0.634,0.824
					c-0.318,0.502-0.551,1.033-0.71,1.578c-3.371,0.488-5.198,1.671-6.824,2.729c-2.035,1.324-3.961,2.572-9.636,2.665
					c-1.964-0.23-3.553-0.177-5.29-0.116c-1.431,0.052-2.91,0.106-4.849,0.003c-1.335-0.071-2.104-0.882-3.458-2.424
					c-1.803-2.055-4.219-4.648-9.369-5.022v4c3.295,0.3,4.796,1.888,6.356,3.667c1.487,1.694,3.175,3.615,6.256,3.782
					c2.118,0.114,3.76,0.052,5.208,0.001c2.491-0.092,4.453-0.161,7.855,0.684c2.607,0.643,12.099,9.673,14.773,14.322
					c-0.108,0.142-0.219,0.282-0.313,0.434c-1.743,2.755-1.026,6.385,1.619,8.251c0.072,0.052,0.151,0.104,0.283,0.191
					c0.981,0.621,2.11,0.948,3.268,0.948c2.116,0,4.052-1.068,5.173-2.849c0.875-1.374,1.16-3.009,0.805-4.603
					c-0.358-1.6-1.318-2.965-2.709-3.845c-0.98-0.617-2.109-0.944-3.266-0.944c-0.528,0-1.047,0.067-1.543,0.195
					c-2.561-4.187-8.652-10.455-13.189-13.792c1.813-0.628,3.05-1.435,4.212-2.188C106.57,75.148,107.757,74.388,110,74.011z
					 M113.88,47.086c0.388-0.614,1.054-0.98,1.783-0.98c0.399,0,0.79,0.113,1.125,0.325c0.48,0.304,0.813,0.775,0.937,1.33
					c0.122,0.546,0.024,1.106-0.279,1.584c-0.598,0.951-1.938,1.272-2.912,0.653l-0.094-0.063
					C113.522,49.289,113.277,48.039,113.88,47.086z M113.88,70.549c0.388-0.614,1.054-0.98,1.783-0.98
					c0.399,0,0.79,0.112,1.125,0.326c0.48,0.304,0.813,0.774,0.937,1.329c0.122,0.546,0.024,1.107-0.279,1.585
					c-0.598,0.95-1.938,1.271-2.912,0.652l-0.094-0.063C113.522,72.752,113.277,71.502,113.88,70.549z M113.88,96.852
					c0.388-0.613,1.054-0.979,1.783-0.979c0.399,0,0.79,0.112,1.125,0.325c0.48,0.304,0.813,0.775,0.937,1.33
					c0.122,0.547,0.024,1.106-0.279,1.584c-0.598,0.951-1.938,1.271-2.912,0.653l-0.094-0.063
					C113.522,99.055,113.277,97.806,113.88,96.852z"/>
			</g>
			<g>
				<g>
					<path fill="#D3562C" d="M103.53,111.927c-1.165-1.36-2.858-2.139-4.648-2.139c-1.459,0-2.875,0.525-3.983,1.477
						c-1.612,1.383-2.326,3.429-2.087,5.397c-1.948,0.7-4.258,1.365-5.328,1.332c-0.821-0.044-1.302-0.346-2.224-0.972
						c-1.172-0.795-2.418-1.512-4.148-1.847c2.936-2.761,6.009-6.83,8.584-12.834c2.061-0.076,3.976-1.193,5.038-2.972
						c1.725-2.896,0.773-6.659-2.124-8.394c-0.949-0.565-2.032-0.864-3.134-0.864c-2.146,0-4.161,1.144-5.261,2.986
						c-0.838,1.405-1.079,3.05-0.678,4.636c0.351,1.393,1.16,2.59,2.302,3.429c-4.053,9.218-9.219,13.081-12.565,14.685
						c-0.128,0.045-0.248,0.101-0.36,0.168c-1.187,0.531-2.05,0.704-2.559,0.808v4c0.275-0.03,1.885-0.118,4.247-1.192
						c5.348-1.357,6.839-0.354,8.407,0.709c1.021,0.692,2.291,1.554,4.263,1.656c0.1,0.005,0.204,0.008,0.309,0.008
						c2.109,0,5.172-1.022,7.021-1.723c1.144,1.116,2.676,1.75,4.285,1.75l0,0c1.461,0,2.876-0.524,3.983-1.476
						c1.24-1.062,1.993-2.546,2.118-4.176C105.112,114.748,104.595,113.165,103.53,111.927z M87.656,95.151
						c0.386-0.645,1.066-1.03,1.819-1.03c0.378,0,0.752,0.104,1.078,0.297c1,0.601,1.331,1.899,0.735,2.898
						c-0.385,0.646-1.064,1.032-1.817,1.032c-0.379,0-0.755-0.104-1.084-0.301c-0.483-0.288-0.826-0.748-0.964-1.294
						C87.285,96.205,87.368,95.637,87.656,95.151z M100.259,117.514c-0.49,0.421-1.018,0.509-1.373,0.509
						c-0.621,0-1.207-0.269-1.608-0.734c-0.758-0.885-0.654-2.222,0.231-2.981c0.492-0.423,1.018-0.512,1.373-0.512
						c0.617,0,1.201,0.269,1.605,0.74c0.368,0.43,0.547,0.976,0.504,1.538S100.689,117.146,100.259,117.514z"/>
					<path d="M79.355,48.434c0.07,0.019,0.142,0.034,0.212,0.046C79.495,48.468,79.425,48.452,79.355,48.434z"/>
					<path fill="#D3562C" d="M101.305,36.031c-0.357-1.599-1.317-2.964-2.708-3.844c-0.98-0.617-2.109-0.944-3.265-0.944
						c-2.117,0-4.053,1.066-5.174,2.85c-1.354,2.138-1.218,4.799,0.144,6.759c-3.646,4.124-8.706,4.313-9.942,4.293
						c-3.692-1.604-7.234-2.164-10.005-2.317v3.996c2.441,0.144,5.553,0.686,8.748,2.136c0.005,0.002,0.01,0.002,0.015,0.005
						c3.445,1.563,6.334,3.928,8.607,7.041c-0.136,0.173-0.265,0.352-0.382,0.538c-1.796,2.854-0.942,6.644,1.903,8.444
						c0.98,0.622,2.111,0.951,3.27,0.951c2.113,0,4.051-1.065,5.183-2.852c1.806-2.851,0.951-6.642-1.908-8.453
						c-1.384-0.871-3.092-1.113-4.667-0.755c-1.538-2.154-3.323-4.017-5.345-5.566c2.517-0.778,5.401-2.269,7.78-5.096
						c0.572,0.172,1.166,0.267,1.77,0.267c2.116,0,4.051-1.068,5.172-2.849C101.375,39.26,101.661,37.626,101.305,36.031z
						 M90.734,58.679c0.169-0.267,0.395-0.49,0.673-0.661c0.335-0.207,0.722-0.316,1.121-0.316c0.4,0,0.79,0.112,1.122,0.321
						c0.987,0.627,1.283,1.936,0.66,2.919c-0.392,0.618-1.063,0.988-1.795,0.988c-0.397,0-0.785-0.113-1.124-0.327
						C90.407,60.979,90.113,59.666,90.734,58.679z M97.113,38.491c-0.6,0.951-1.938,1.271-2.912,0.653l-0.096-0.063
						c-0.914-0.647-1.161-1.897-0.558-2.851c0.386-0.613,1.053-0.98,1.784-0.98c0.397,0,0.787,0.113,1.124,0.326
						c0.479,0.304,0.813,0.775,0.937,1.33C97.515,37.453,97.418,38.014,97.113,38.491z"/>
					<path fill="#D3562C" d="M110,77.011c0.425,1.035,1.136,1.962,2.109,2.649c0.072,0.052,0.151,0.105,0.283,0.191
						c0.981,0.621,2.11,0.949,3.268,0.949c2.116,0,4.052-1.068,5.173-2.849c0.875-1.375,1.16-3.01,0.805-4.604
						c-0.358-1.598-1.318-2.964-2.709-3.844c-0.98-0.617-2.109-0.944-3.266-0.944c-0.125,0-0.25,0.008-0.375,0.018
						c-0.71-3.157-0.919-7.769,0.035-11.265c0.112,0.011,0.225,0.024,0.337,0.024c2.116,0,4.052-1.067,5.173-2.849
						c0.875-1.375,1.16-3.009,0.805-4.604c-0.358-1.599-1.318-2.964-2.709-3.844c-0.98-0.617-2.109-0.944-3.266-0.944
						c-2.114,0-4.051,1.066-5.173,2.85c-1.604,2.532-1.12,5.804,1.024,7.765c0.021,0.02,0.048,0.037,0.071,0.059
						c-1.349,4.518-1.146,10.324-0.036,14.417c-0.144,0.132-0.294,0.254-0.426,0.399c-0.229,0.255-0.445,0.526-0.634,0.824
						c-0.318,0.502-0.551,1.033-0.71,1.578c-3.371,0.488-5.198,1.671-6.824,2.729c-2.035,1.324-3.961,2.572-9.636,2.665
						c-1.964-0.23-3.553-0.177-5.29-0.116c-1.431,0.052-2.91,0.106-4.849,0.003c-1.335-0.071-2.104-0.882-3.458-2.424
						c-1.803-2.055-4.219-4.648-9.369-5.022v4c3.295,0.3,4.796,1.888,6.356,3.667c1.487,1.694,3.175,3.615,6.256,3.782
						c2.118,0.114,3.76,0.052,5.208,0.001c2.491-0.092,4.453-0.161,7.855,0.684c2.607,0.643,12.099,9.673,14.773,14.322
						c-0.108,0.142-0.219,0.282-0.313,0.434c-1.743,2.755-1.026,6.385,1.619,8.251c0.072,0.052,0.151,0.104,0.283,0.191
						c0.981,0.621,2.11,0.948,3.268,0.948c2.116,0,4.052-1.068,5.173-2.849c0.875-1.374,1.16-3.009,0.805-4.603
						c-0.358-1.6-1.318-2.965-2.709-3.845c-0.98-0.617-2.109-0.944-3.266-0.944c-0.528,0-1.047,0.067-1.543,0.195
						c-2.561-4.187-8.652-10.455-13.189-13.792c1.813-0.628,3.05-1.435,4.212-2.188C106.57,78.148,107.757,77.388,110,77.011z
						 M113.88,50.086c0.388-0.614,1.054-0.98,1.783-0.98c0.399,0,0.79,0.113,1.125,0.325c0.48,0.304,0.813,0.775,0.937,1.33
						c0.122,0.546,0.024,1.106-0.279,1.584c-0.598,0.951-1.938,1.272-2.912,0.653l-0.094-0.063
						C113.522,52.289,113.277,51.039,113.88,50.086z M113.88,73.549c0.388-0.614,1.054-0.98,1.783-0.98
						c0.399,0,0.79,0.112,1.125,0.326c0.48,0.304,0.813,0.774,0.937,1.329c0.122,0.546,0.024,1.107-0.279,1.585
						c-0.598,0.95-1.938,1.271-2.912,0.652l-0.094-0.063C113.522,75.752,113.277,74.502,113.88,73.549z M113.88,99.852
						c0.388-0.613,1.054-0.979,1.783-0.979c0.399,0,0.79,0.112,1.125,0.325c0.48,0.304,0.813,0.775,0.937,1.33
						c0.122,0.547,0.024,1.106-0.279,1.584c-0.598,0.951-1.938,1.271-2.912,0.653l-0.094-0.063
						C113.522,102.055,113.277,100.806,113.88,99.852z"/>
				</g>
				<g>
					<path fill="#FFFEDB" d="M103.53,108.927c-1.165-1.36-2.858-2.139-4.648-2.139c-1.459,0-2.875,0.525-3.983,1.477
						c-1.612,1.383-2.326,3.429-2.087,5.397c-1.948,0.7-4.258,1.365-5.328,1.332c-0.821-0.044-1.302-0.346-2.224-0.972
						c-1.172-0.795-2.418-1.512-4.148-1.847c2.936-2.761,6.009-6.83,8.584-12.834c2.061-0.076,3.976-1.193,5.038-2.972
						c1.725-2.896,0.773-6.659-2.124-8.394c-0.949-0.565-2.032-0.864-3.134-0.864c-2.146,0-4.161,1.144-5.261,2.986
						c-0.838,1.405-1.079,3.05-0.678,4.636c0.351,1.393,1.16,2.59,2.302,3.429c-4.053,9.218-9.219,13.081-12.565,14.685
						c-0.128,0.045-0.248,0.101-0.36,0.168c-1.187,0.531-2.05,0.704-2.559,0.808v4c0.275-0.03,1.885-0.118,4.247-1.192
						c5.348-1.357,6.839-0.354,8.407,0.709c1.021,0.692,2.291,1.554,4.263,1.656c0.1,0.005,0.204,0.008,0.309,0.008
						c2.109,0,5.172-1.022,7.021-1.723c1.144,1.116,2.676,1.75,4.285,1.75l0,0c1.461,0,2.876-0.524,3.983-1.476
						c1.24-1.062,1.993-2.546,2.118-4.176C105.112,111.748,104.595,110.165,103.53,108.927z M87.656,92.151
						c0.386-0.645,1.066-1.03,1.819-1.03c0.378,0,0.752,0.104,1.078,0.297c1,0.601,1.331,1.899,0.735,2.898
						c-0.385,0.646-1.064,1.032-1.817,1.032c-0.379,0-0.755-0.104-1.084-0.301c-0.483-0.288-0.826-0.748-0.964-1.294
						C87.285,93.205,87.368,92.637,87.656,92.151z M100.259,114.514c-0.49,0.421-1.018,0.509-1.373,0.509
						c-0.621,0-1.207-0.269-1.608-0.734c-0.758-0.885-0.654-2.222,0.231-2.981c0.492-0.423,1.018-0.512,1.373-0.512
						c0.617,0,1.201,0.269,1.605,0.74c0.368,0.43,0.547,0.976,0.504,1.538S100.689,114.146,100.259,114.514z"/>
					<path fill="#FFFEDB" d="M79.355,46.028c0.07,0.019,0.142,0.034,0.212,0.046C79.495,46.063,79.425,46.047,79.355,46.028z"/>
					<path fill="#FFFEDB" d="M101.305,33.027c-0.357-1.599-1.317-2.964-2.708-3.844c-0.98-0.617-2.109-0.944-3.265-0.944
						c-2.117,0-4.053,1.066-5.174,2.85c-1.354,2.138-1.218,4.799,0.144,6.759c-3.646,4.124-8.706,4.313-9.942,4.293
						c-3.692-1.604-7.234-2.164-10.005-2.317v3.996c2.441,0.144,5.553,0.686,8.748,2.136c0.005,0.002,0.01,0.002,0.015,0.005
						c3.445,1.563,6.334,3.928,8.607,7.041c-0.136,0.173-0.265,0.352-0.382,0.538c-1.796,2.854-0.942,6.644,1.903,8.444
						c0.98,0.622,2.111,0.951,3.27,0.951c2.113,0,4.051-1.065,5.183-2.852c1.806-2.851,0.951-6.642-1.908-8.453
						c-1.384-0.871-3.092-1.113-4.667-0.755c-1.538-2.154-3.323-4.017-5.345-5.566c2.517-0.778,5.401-2.269,7.78-5.096
						c0.572,0.172,1.166,0.267,1.77,0.267c2.116,0,4.051-1.068,5.172-2.849C101.375,36.256,101.661,34.622,101.305,33.027z
						 M90.734,55.675c0.169-0.267,0.395-0.49,0.673-0.661c0.335-0.207,0.722-0.316,1.121-0.316c0.4,0,0.79,0.112,1.122,0.321
						c0.987,0.627,1.283,1.936,0.66,2.919c-0.392,0.618-1.063,0.988-1.795,0.988c-0.397,0-0.785-0.113-1.124-0.327
						C90.407,57.975,90.113,56.662,90.734,55.675z M97.113,35.487c-0.6,0.951-1.938,1.271-2.912,0.653l-0.096-0.063
						c-0.914-0.647-1.161-1.897-0.558-2.851c0.386-0.613,1.053-0.98,1.784-0.98c0.397,0,0.787,0.113,1.124,0.326
						c0.479,0.304,0.813,0.775,0.937,1.33C97.515,34.449,97.418,35.01,97.113,35.487z"/>
					<path fill="#FFFEDB" d="M110,74.011c0.425,1.035,1.136,1.962,2.109,2.649c0.072,0.052,0.151,0.105,0.283,0.191
						c0.981,0.621,2.11,0.949,3.268,0.949c2.116,0,4.052-1.068,5.173-2.849c0.875-1.375,1.16-3.01,0.805-4.604
						c-0.358-1.598-1.318-2.964-2.709-3.844c-0.98-0.617-2.109-0.944-3.266-0.944c-0.125,0-0.25,0.008-0.375,0.018
						c-0.71-3.157-0.919-7.769,0.035-11.265c0.112,0.011,0.225,0.024,0.337,0.024c2.116,0,4.052-1.067,5.173-2.849
						c0.875-1.375,1.16-3.009,0.805-4.604c-0.358-1.599-1.318-2.964-2.709-3.844c-0.98-0.617-2.109-0.944-3.266-0.944
						c-2.114,0-4.051,1.066-5.173,2.85c-1.604,2.532-1.12,5.804,1.024,7.765c0.021,0.02,0.048,0.037,0.071,0.059
						c-1.349,4.518-1.146,10.324-0.036,14.417c-0.144,0.132-0.294,0.254-0.426,0.399c-0.229,0.255-0.445,0.526-0.634,0.824
						c-0.318,0.502-0.551,1.033-0.71,1.578c-3.371,0.488-5.198,1.671-6.824,2.729c-2.035,1.324-3.961,2.572-9.636,2.665
						c-1.964-0.23-3.553-0.177-5.29-0.116c-1.431,0.052-2.91,0.106-4.849,0.003c-1.335-0.071-2.104-0.882-3.458-2.424
						c-1.803-2.055-4.219-4.648-9.369-5.022v4c3.295,0.3,4.796,1.888,6.356,3.667c1.487,1.694,3.175,3.615,6.256,3.782
						c2.118,0.114,3.76,0.052,5.208,0.001c2.491-0.092,4.453-0.161,7.855,0.684c2.607,0.643,12.099,9.673,14.773,14.322
						c-0.108,0.142-0.219,0.282-0.313,0.434c-1.743,2.755-1.026,6.385,1.619,8.251c0.072,0.052,0.151,0.104,0.283,0.191
						c0.981,0.621,2.11,0.948,3.268,0.948c2.116,0,4.052-1.068,5.173-2.849c0.875-1.374,1.16-3.009,0.805-4.603
						c-0.358-1.6-1.318-2.965-2.709-3.845c-0.98-0.617-2.109-0.944-3.266-0.944c-0.528,0-1.047,0.067-1.543,0.195
						c-2.561-4.187-8.652-10.455-13.189-13.792c1.813-0.628,3.05-1.435,4.212-2.188C106.57,75.148,107.757,74.388,110,74.011z
						 M113.88,47.086c0.388-0.614,1.054-0.98,1.783-0.98c0.399,0,0.79,0.113,1.125,0.325c0.48,0.304,0.813,0.775,0.937,1.33
						c0.122,0.546,0.024,1.106-0.279,1.584c-0.598,0.951-1.938,1.272-2.912,0.653l-0.094-0.063
						C113.522,49.289,113.277,48.039,113.88,47.086z M113.88,70.549c0.388-0.614,1.054-0.98,1.783-0.98
						c0.399,0,0.79,0.112,1.125,0.326c0.48,0.304,0.813,0.774,0.937,1.329c0.122,0.546,0.024,1.107-0.279,1.585
						c-0.598,0.95-1.938,1.271-2.912,0.652l-0.094-0.063C113.522,72.752,113.277,71.502,113.88,70.549z M113.88,96.852
						c0.388-0.613,1.054-0.979,1.783-0.979c0.399,0,0.79,0.112,1.125,0.325c0.48,0.304,0.813,0.775,0.937,1.33
						c0.122,0.547,0.024,1.106-0.279,1.584c-0.598,0.951-1.938,1.271-2.912,0.653l-0.094-0.063
						C113.522,99.055,113.277,97.806,113.88,96.852z"/>
				</g>
			</g>
		</g>
		<g>
			<path fill="#43883E" d="M64.084,43.297c-0.473,0.216-1.355,0.563-2.623,0.834c-0.129,0.012-0.261,0.039-0.39,0.075
				c-3.641,0.683-10.077,0.615-18.772-4.422c0.426-1.348,0.371-2.789-0.166-4.117c-0.611-1.512-1.777-2.694-3.279-3.333
				c-1.97-0.836-4.268-0.569-5.995,0.696c-0.886,0.649-1.583,1.527-2.013,2.542c-1.313,3.103,0.139,6.695,3.234,8.01
				c1.903,0.805,4.105,0.578,5.809-0.575c5.61,3.315,10.484,4.785,14.477,5.278c-1.198,1.288-1.777,2.602-2.253,3.932
				c-0.375,1.048-0.583,1.571-1.218,2.091c-0.845,0.657-3.096,1.484-5.076,2.066c-0.967-1.724-2.748-2.952-4.862-3.114
				c-1.454-0.116-2.903,0.296-4.079,1.158c-1.441,1.053-2.343,2.679-2.479,4.459c-0.13,1.626,0.387,3.207,1.449,4.447
				c1.062,1.237,2.542,1.989,4.167,2.114c1.452,0.111,2.901-0.299,4.076-1.159l0.002-0.001c1.296-0.947,2.155-2.362,2.418-3.934
				c1.901-0.527,4.97-1.506,6.669-2.748c0.084-0.063,0.167-0.127,0.244-0.189c1.527-1.245,2.04-2.687,2.455-3.846
				c0.639-1.782,1.246-3.469,6.354-5.524c1.268-0.265,2.409-0.929,3.123-1.214v-4L64.084,43.297z M38.412,38.78
				c-0.15,0.352-0.391,0.655-0.697,0.878c-0.606,0.444-1.381,0.534-2.072,0.242c-1.066-0.452-1.568-1.695-1.113-2.767
				c0.146-0.35,0.386-0.654,0.692-0.876c0.604-0.444,1.382-0.535,2.07-0.24c0.519,0.219,0.921,0.628,1.133,1.149
				C38.637,37.69,38.631,38.264,38.412,38.78z M41.729,61.05c-0.287,0.21-0.765,0.45-1.406,0.399
				c-0.563-0.043-1.072-0.302-1.438-0.728s-0.545-0.974-0.501-1.535c0.048-0.617,0.36-1.18,0.855-1.541
				c0.286-0.209,0.763-0.451,1.407-0.398c1.161,0.089,2.032,1.104,1.944,2.264C42.541,60.122,42.228,60.685,41.729,61.05z"/>
			<path d="M58.888,111.65c-0.059-0.043-0.119-0.08-0.182-0.117C58.77,111.57,58.83,111.609,58.888,111.65z"/>
			<path fill="#43883E" d="M59.314,112.444c-0.005-0.004-0.01-0.005-0.012-0.009c-2.678-2.663-4.555-5.881-5.595-9.586
				c0.188-0.112,0.369-0.234,0.545-0.368c2.675-2.044,3.196-5.884,1.163-8.561c-0.699-0.923-1.643-1.624-2.724-2.027
				c-1.976-0.737-4.159-0.417-5.839,0.859c-2.684,2.035-3.206,5.876-1.165,8.568c0.989,1.296,2.505,2.118,4.101,2.333
				c0.687,2.55,1.707,4.913,3.059,7.067c-2.626-0.15-5.842,0.239-9.053,2.051c-0.474-0.36-0.996-0.655-1.561-0.866
				c-1.979-0.736-4.16-0.414-5.83,0.861c-1.297,0.981-2.133,2.41-2.356,4.023c-0.222,1.62,0.2,3.231,1.192,4.538
				c0.702,0.919,1.644,1.619,2.724,2.021c1.979,0.738,4.159,0.414,5.831-0.861c2.009-1.525,2.812-4.062,2.22-6.369
				c4.847-2.586,9.644-0.997,10.793-0.548c2.895,2.787,6.012,4.142,8.547,5.251v-4C63.436,115.832,61.299,114.42,59.314,112.444z
				 M41.37,119.308c-0.575,0.439-1.325,0.55-2.009,0.295c-0.372-0.139-0.697-0.38-0.938-0.696c-0.344-0.452-0.489-1.009-0.412-1.569
				c0.076-0.554,0.362-1.043,0.813-1.385c0.891-0.68,2.255-0.513,2.95,0.405l0.066,0.092
				C42.472,117.373,42.268,118.627,41.37,119.308z M48.871,98.897c-0.704-0.93-0.524-2.256,0.4-2.958
				c0.582-0.441,1.339-0.554,2.023-0.299c0.37,0.139,0.694,0.381,0.936,0.698c0.703,0.926,0.521,2.256-0.404,2.962
				c-0.251,0.191-0.539,0.321-0.859,0.385c-0.385,0.077-0.785,0.044-1.159-0.096C49.436,99.451,49.109,99.21,48.871,98.897z"/>
			<path d="M58.888,109.245c-0.059-0.043-0.119-0.08-0.182-0.117C58.77,109.165,58.83,109.204,58.888,109.245z"/>
			<g>
				<path d="M58.888,111.65c-0.059-0.043-0.119-0.08-0.182-0.117C58.77,111.57,58.83,111.609,58.888,111.65z"/>
				<path fill="#43883E" d="M55.95,76.089c-1.352,1.54-2.119,2.348-3.45,2.419c-1.935,0.104-3.41,0.049-4.838-0.002
					c-1.429-0.051-3.984-0.819-7.983-2.603c-4-1.783-12.072-9.654-14.74-14.293c0.107-0.141,0.217-0.28,0.312-0.432
					c1.74-2.749,1.023-6.371-1.614-8.233c-0.073-0.052-0.152-0.105-0.284-0.191c-0.979-0.619-2.106-0.946-3.261-0.946
					c-2.111,0-4.042,1.065-5.161,2.843c-0.872,1.372-1.157,3.003-0.802,4.593c0.356,1.596,1.314,2.958,2.702,3.836
					c0.978,0.616,2.104,0.942,3.258,0.942c0.528,0,1.045-0.066,1.54-0.194c2.555,4.178,10.25,12.059,13.161,13.762
					c-1.809,0.627-3.044,1.431-4.202,2.184c-1.425,0.928-2.608,1.687-4.848,2.063c-0.424-1.031-1.133-1.957-2.104-2.643
					c-0.073-0.053-0.152-0.105-0.284-0.191c-0.979-0.619-2.106-0.947-3.261-0.947c-2.111,0-4.042,1.066-5.161,2.844
					c-0.872,1.371-1.157,3.003-0.802,4.593c0.356,1.596,1.314,2.958,2.702,3.836c0.978,0.616,2.104,0.942,3.258,0.942
					c0.126,0,0.248-0.021,0.373-0.031c0.709,3.15,0.92,7.761-0.033,11.253c-0.112-0.01-0.224-0.023-0.337-0.023
					c-2.111,0-4.042,1.065-5.161,2.843c-0.872,1.372-1.157,3.003-0.802,4.593c0.356,1.597,1.314,2.958,2.702,3.836
					c0.978,0.616,2.104,0.942,3.258,0.942c2.111,0,4.043-1.064,5.162-2.843c1.601-2.527,1.118-5.791-1.021-7.748
					c-0.025-0.023-0.056-0.043-0.081-0.066c1.346-4.51,1.142-10.281,0.033-14.367c0.146-0.135,0.301-0.26,0.436-0.409
					c0.229-0.256,0.445-0.525,0.633-0.822c0.317-0.501,0.551-1.031,0.708-1.575c3.365-0.487,5.188-1.667,6.811-2.724
					c1.802-1.172,3.524-2.283,7.841-2.584c2.396,1.036,4.935,1.884,6.908,1.961c1.707,0.151,3.083,0.113,5.196-0.001
					c3.075-0.165,4.758-2.082,6.242-3.773c1.559-1.775,3.049-3.481,6.398-3.905v-4C60.153,71.32,57.749,74.039,55.95,76.089z
					 M20.088,60.021c-0.397,0-0.787-0.112-1.122-0.324c-0.479-0.304-0.811-0.774-0.935-1.327c-0.122-0.546-0.024-1.104,0.278-1.582
					c0.598-0.948,1.935-1.269,2.906-0.651l0.095,0.063c0.913,0.646,1.159,1.893,0.557,2.843
					C21.482,59.655,20.816,60.021,20.088,60.021z M18.966,85.944c-0.479-0.304-0.811-0.774-0.935-1.327
					c-0.122-0.546-0.024-1.104,0.278-1.582c0.598-0.948,1.935-1.269,2.906-0.651l0.095,0.063c0.913,0.646,1.159,1.892,0.557,2.843
					c-0.385,0.612-1.051,0.979-1.779,0.979C19.69,86.269,19.301,86.155,18.966,85.944z M21.867,108.702
					c-0.385,0.613-1.051,0.979-1.779,0.979c-0.397,0-0.787-0.112-1.122-0.324c-0.479-0.303-0.811-0.774-0.935-1.326
					c-0.122-0.547-0.024-1.105,0.278-1.582c0.598-0.949,1.935-1.27,2.906-0.652l0.095,0.063
					C22.224,106.505,22.47,107.752,21.867,108.702z"/>
			</g>
			<g>
				<path fill="#FFFEDB" d="M64.084,40.297c-0.473,0.216-1.355,0.563-2.623,0.834c-0.129,0.012-0.261,0.039-0.39,0.075
					c-3.641,0.683-10.077,0.615-18.772-4.422c0.426-1.348,0.371-2.789-0.166-4.117c-0.611-1.512-1.777-2.694-3.279-3.333
					c-1.97-0.836-4.268-0.569-5.995,0.696c-0.886,0.649-1.583,1.527-2.013,2.542c-1.313,3.103,0.139,6.695,3.234,8.01
					c1.903,0.805,4.105,0.578,5.809-0.575c5.61,3.315,10.484,4.785,14.477,5.278c-1.198,1.288-1.777,2.602-2.253,3.932
					c-0.375,1.048-0.583,1.571-1.218,2.091c-0.845,0.657-3.096,1.484-5.076,2.066c-0.967-1.724-2.748-2.952-4.862-3.114
					c-1.454-0.116-2.903,0.296-4.079,1.158c-1.441,1.053-2.343,2.679-2.479,4.459c-0.13,1.626,0.387,3.207,1.449,4.447
					c1.062,1.237,2.542,1.989,4.167,2.114c1.452,0.111,2.901-0.299,4.076-1.159l0.002-0.001c1.296-0.947,2.155-2.362,2.418-3.934
					c1.901-0.527,4.97-1.506,6.669-2.748c0.084-0.063,0.167-0.127,0.244-0.189c1.527-1.245,2.04-2.687,2.455-3.846
					c0.639-1.782,1.246-3.469,6.354-5.524c1.268-0.265,2.409-0.929,3.123-1.214v-4L64.084,40.297z M38.412,35.78
					c-0.15,0.352-0.391,0.655-0.697,0.878c-0.606,0.444-1.381,0.534-2.072,0.242c-1.066-0.452-1.568-1.695-1.113-2.767
					c0.146-0.35,0.386-0.654,0.692-0.876c0.604-0.444,1.382-0.535,2.07-0.24c0.519,0.219,0.921,0.628,1.133,1.149
					C38.637,34.69,38.631,35.264,38.412,35.78z M41.729,58.05c-0.287,0.21-0.765,0.45-1.406,0.399
					c-0.563-0.043-1.072-0.302-1.438-0.728s-0.545-0.974-0.501-1.535c0.048-0.617,0.36-1.18,0.855-1.541
					c0.286-0.209,0.763-0.451,1.407-0.398c1.161,0.089,2.032,1.104,1.944,2.264C42.541,57.122,42.228,57.685,41.729,58.05z"/>
				<path fill="#FFFEDB" d="M58.888,109.245c-0.059-0.043-0.119-0.08-0.182-0.117C58.77,109.165,58.83,109.204,58.888,109.245z"/>
				<path fill="#FFFEDB" d="M59.314,109.444c-0.005-0.004-0.01-0.005-0.012-0.009c-2.678-2.663-4.555-5.881-5.595-9.586
					c0.188-0.112,0.369-0.234,0.545-0.368c2.675-2.044,3.196-5.884,1.163-8.561c-0.699-0.923-1.643-1.624-2.724-2.027
					c-1.976-0.737-4.159-0.417-5.839,0.859c-2.684,2.035-3.206,5.876-1.165,8.568c0.989,1.296,2.505,2.118,4.101,2.333
					c0.687,2.55,1.707,4.913,3.059,7.067c-2.626-0.15-5.842,0.239-9.053,2.051c-0.474-0.36-0.996-0.655-1.561-0.866
					c-1.979-0.736-4.16-0.414-5.83,0.861c-1.297,0.981-2.133,2.41-2.356,4.023c-0.222,1.62,0.2,3.231,1.192,4.538
					c0.702,0.919,1.644,1.619,2.724,2.021c1.979,0.738,4.159,0.414,5.831-0.861c2.009-1.525,2.812-4.062,2.22-6.369
					c4.847-2.586,9.644-0.997,10.793-0.548c2.895,2.787,6.012,4.142,8.547,5.251v-4C63.436,112.832,61.299,111.42,59.314,109.444z
					 M41.37,116.308c-0.575,0.439-1.325,0.55-2.009,0.295c-0.372-0.139-0.697-0.38-0.938-0.696
					c-0.344-0.452-0.489-1.009-0.412-1.569c0.076-0.554,0.362-1.043,0.813-1.385c0.891-0.68,2.255-0.513,2.95,0.405l0.066,0.092
					C42.472,114.373,42.268,115.627,41.37,116.308z M48.871,95.897c-0.704-0.93-0.524-2.256,0.4-2.958
					c0.582-0.441,1.339-0.554,2.023-0.299c0.37,0.139,0.694,0.381,0.936,0.698c0.703,0.926,0.521,2.256-0.404,2.962
					c-0.251,0.191-0.539,0.321-0.859,0.385c-0.385,0.077-0.785,0.044-1.159-0.096C49.436,96.451,49.109,96.21,48.871,95.897z"/>
				<path fill="#FFFEDB" d="M55.95,73.104c-1.352,1.54-2.119,2.348-3.45,2.419c-1.935,0.104-3.41,0.049-4.838-0.002
					c-1.429-0.051-3.984-0.819-7.983-2.603c-4-1.783-12.072-9.654-14.74-14.293c0.107-0.141,0.217-0.28,0.312-0.432
					c1.74-2.749,1.023-6.371-1.614-8.233c-0.073-0.052-0.152-0.105-0.284-0.191c-0.979-0.619-2.106-0.946-3.261-0.946
					c-2.111,0-4.042,1.065-5.161,2.843c-0.872,1.372-1.157,3.003-0.802,4.593c0.356,1.596,1.314,2.958,2.702,3.836
					c0.978,0.616,2.104,0.942,3.258,0.942c0.528,0,1.045-0.066,1.54-0.194c2.555,4.178,10.25,12.059,13.161,13.762
					c-1.809,0.627-3.044,1.431-4.202,2.184c-1.425,0.928-2.608,1.687-4.848,2.063c-0.424-1.031-1.133-1.957-2.104-2.643
					c-0.073-0.053-0.152-0.105-0.284-0.191c-0.979-0.619-2.106-0.947-3.261-0.947c-2.111,0-4.042,1.066-5.161,2.844
					c-0.872,1.371-1.157,3.003-0.802,4.593c0.356,1.596,1.314,2.958,2.702,3.836c0.978,0.616,2.104,0.942,3.258,0.942
					c0.126,0,0.248-0.021,0.373-0.031c0.709,3.15,0.92,7.761-0.033,11.253c-0.112-0.01-0.224-0.023-0.337-0.023
					c-2.111,0-4.042,1.065-5.161,2.843c-0.872,1.372-1.157,3.003-0.802,4.593c0.356,1.597,1.314,2.958,2.702,3.836
					c0.978,0.616,2.104,0.942,3.258,0.942c2.111,0,4.043-1.064,5.162-2.843c1.601-2.527,1.118-5.791-1.021-7.748
					c-0.025-0.023-0.056-0.043-0.081-0.066c1.346-4.51,1.142-10.281,0.033-14.367c0.146-0.135,0.301-0.26,0.436-0.409
					c0.229-0.256,0.445-0.525,0.633-0.822c0.317-0.501,0.551-1.031,0.708-1.575c3.365-0.487,5.188-1.667,6.811-2.724
					c1.802-1.172,3.524-2.283,7.841-2.584c2.396,1.036,4.935,1.884,6.908,1.961c1.707,0.151,3.083,0.113,5.196-0.001
					c3.075-0.165,4.758-2.082,6.242-3.773c1.559-1.775,3.049-3.464,6.398-3.888v-4.018C60.153,68.336,57.749,71.055,55.95,73.104z
					 M20.088,57.037c-0.397,0-0.787-0.112-1.122-0.324c-0.479-0.304-0.811-0.774-0.935-1.327c-0.122-0.546-0.024-1.104,0.278-1.582
					c0.598-0.948,1.935-1.269,2.906-0.651l0.095,0.063c0.913,0.646,1.159,1.893,0.557,2.843
					C21.482,56.671,20.816,57.037,20.088,57.037z M18.966,82.96c-0.479-0.304-0.811-0.774-0.935-1.327
					c-0.122-0.546-0.024-1.104,0.278-1.582c0.598-0.948,1.935-1.269,2.906-0.651l0.095,0.063c0.913,0.646,1.159,1.892,0.557,2.843
					c-0.385,0.612-1.051,0.979-1.779,0.979C19.69,83.284,19.301,83.171,18.966,82.96z M21.867,105.718
					c-0.385,0.613-1.051,0.979-1.779,0.979c-0.397,0-0.787-0.112-1.122-0.324c-0.479-0.303-0.811-0.774-0.935-1.326
					c-0.122-0.547-0.024-1.105,0.278-1.582c0.598-0.949,1.935-1.27,2.906-0.652l0.095,0.063
					C22.224,103.521,22.47,104.768,21.867,105.718z"/>
			</g>
		</g>
	</g>
</g>
</svg>
