<?xml version="1.0" encoding="UTF-8" standalone="no"?>
<!-- Generator: Adobe Illustrator 16.0.0, SVG Export Plug-In . SVG Version: 6.00 Build 0)  -->

<svg
   xmlns:ns="&amp;#38;ns_sfw;"
   xmlns:dc="http://purl.org/dc/elements/1.1/"
   xmlns:cc="http://creativecommons.org/ns#"
   xmlns:rdf="http://www.w3.org/1999/02/22-rdf-syntax-ns#"
   xmlns:svg="http://www.w3.org/2000/svg"
   xmlns="http://www.w3.org/2000/svg"
   xmlns:sodipodi="http://sodipodi.sourceforge.net/DTD/sodipodi-0.dtd"
   xmlns:inkscape="http://www.inkscape.org/namespaces/inkscape"
   version="1.1"
   id="Layer_1"
   x="0px"
   y="0px"
   width="154.28571"
   height="154.28572"
   viewBox="0 0 154.2857 154.28572"
   enable-background="new 0 0 585 150"
   xml:space="preserve"
   inkscape:version="0.91 r13725"
   sodipodi:docname="MetaBrainz_logo_no_text.svg"><defs
     id="defs7391" /><sodipodi:namedview
     pagecolor="#ffffff"
     bordercolor="#666666"
     borderopacity="1"
     objecttolerance="10"
     gridtolerance="10"
     guidetolerance="10"
     inkscape:pageopacity="0"
     inkscape:pageshadow="2"
     inkscape:window-width="1280"
     inkscape:window-height="759"
     id="namedview7389"
     showgrid="false"
     fit-margin-top="0"
     fit-margin-left="0"
     fit-margin-right="0"
     fit-margin-bottom="0"
     inkscape:zoom="0.61709402"
     inkscape:cx="288.146"
     inkscape:cy="71.823"
     inkscape:window-x="0"
     inkscape:window-y="0"
     inkscape:window-maximized="1"
     inkscape:current-layer="g7291" /><metadata
     id="metadata7287"><ns:sfw><ns:slices /><ns:sliceSourceBounds
         height="144"
         width="539.528"
         y="-589"
         x="2966"
         bottomLeftOrigin="true" /></ns:sfw><rdf:RDF><cc:Work
         rdf:about=""><dc:format>image/svg+xml</dc:format><dc:type
           rdf:resource="http://purl.org/dc/dcmitype/StillImage" /><dc:title></dc:title></cc:Work></rdf:RDF></metadata><g
     id="g7289"
     transform="translate(-4.354,7.4627078)" /><g
     id="g7291"
     transform="translate(-4.354,7.4627078)"><g
       id="g7315"
       transform="translate(13.642853,-5.1428474)"><polygon
         points="131.354,37.823 70.354,2.823 70.354,146.823 131.354,111.823 "
         id="polygon7317"
         style="fill:#eb743b" /><polygon
         points="65.354,146.823 65.354,2.823 4.354,37.823 4.354,111.823 "
         id="polygon7319"
         style="fill:#5aa854" /><g
         id="g7321"><g
           id="g7323"
           style="opacity:0.07000002"><path
             d="m 87.656,94.557 c 0.386,-0.645 1.066,-1.03 1.819,-1.03 0.378,0 0.752,0.104 1.078,0.297 1,0.601 1.331,1.899 0.735,2.898 -0.385,0.646 -1.064,1.032 -1.817,1.032 -0.379,0 -0.755,-0.104 -1.084,-0.301 -0.483,-0.288 -0.826,-0.748 -0.964,-1.294 -0.138,-0.549 -0.055,-1.117 0.233,-1.602 z m 12.603,22.362 c -0.49,0.421 -1.018,0.509 -1.373,0.509 -0.621,0 -1.207,-0.269 -1.608,-0.734 -0.758,-0.885 -0.654,-2.222 0.231,-2.981 0.492,-0.423 1.018,-0.512 1.373,-0.512 0.617,0 1.201,0.269 1.605,0.74 0.368,0.43 0.547,0.976 0.504,1.538 -0.043,0.562 -0.302,1.072 -0.732,1.44 z"
             id="path7325"
             inkscape:connector-curvature="0" /><path
             d="m 79.355,48.434 c 0.07,0.019 0.142,0.034 0.212,0.046 -0.072,-0.012 -0.142,-0.028 -0.212,-0.046 z"
             id="path7327"
             inkscape:connector-curvature="0" /><path
             d="m 90.734,58.08 c 0.169,-0.267 0.395,-0.49 0.673,-0.661 0.335,-0.207 0.722,-0.316 1.121,-0.316 0.4,0 0.79,0.112 1.122,0.321 0.987,0.627 1.283,1.936 0.66,2.919 -0.392,0.618 -1.063,0.988 -1.795,0.988 -0.397,0 -0.785,-0.113 -1.124,-0.327 -0.984,-0.624 -1.278,-1.937 -0.657,-2.924 z m 6.379,-20.187 c -0.6,0.951 -1.938,1.271 -2.912,0.653 l -0.096,-0.063 c -0.914,-0.647 -1.161,-1.897 -0.558,-2.851 0.386,-0.613 1.053,-0.98 1.784,-0.98 0.397,0 0.787,0.113 1.124,0.326 0.479,0.304 0.813,0.775 0.937,1.33 0.123,0.546 0.026,1.107 -0.279,1.585 z"
             id="path7329"
             inkscape:connector-curvature="0" /><path
             d="m 113.88,49.491 c 0.388,-0.614 1.054,-0.98 1.783,-0.98 0.399,0 0.79,0.113 1.125,0.325 0.48,0.304 0.813,0.775 0.937,1.33 0.122,0.546 0.024,1.106 -0.279,1.584 -0.598,0.951 -1.938,1.272 -2.912,0.653 L 114.44,52.34 c -0.918,-0.646 -1.163,-1.896 -0.56,-2.849 z m 0,23.463 c 0.388,-0.614 1.054,-0.98 1.783,-0.98 0.399,0 0.79,0.112 1.125,0.326 0.48,0.304 0.813,0.774 0.937,1.329 0.122,0.546 0.024,1.107 -0.279,1.585 -0.598,0.95 -1.938,1.271 -2.912,0.652 l -0.094,-0.063 c -0.918,-0.646 -1.163,-1.896 -0.56,-2.849 z m 0,26.303 c 0.388,-0.613 1.054,-0.979 1.783,-0.979 0.399,0 0.79,0.112 1.125,0.325 0.48,0.304 0.813,0.775 0.937,1.33 0.122,0.547 0.024,1.106 -0.279,1.584 -0.598,0.951 -1.938,1.271 -2.912,0.653 l -0.094,-0.063 c -0.918,-0.647 -1.163,-1.896 -0.56,-2.85 z"
             id="path7331"
             inkscape:connector-curvature="0" /><path
             d="m 103.53,108.927 c -1.165,-1.36 -2.858,-2.139 -4.648,-2.139 -1.459,0 -2.875,0.525 -3.983,1.477 -1.612,1.383 -2.326,3.429 -2.087,5.397 -1.948,0.7 -4.258,1.365 -5.328,1.332 -0.821,-0.044 -1.302,-0.346 -2.224,-0.972 -1.172,-0.795 -2.418,-1.512 -4.148,-1.847 2.936,-2.761 6.009,-6.83 8.584,-12.834 2.061,-0.076 3.976,-1.193 5.038,-2.972 1.725,-2.896 0.773,-6.659 -2.124,-8.394 -0.949,-0.565 -2.032,-0.864 -3.134,-0.864 -2.146,0 -4.161,1.144 -5.261,2.986 -0.838,1.405 -1.079,3.05 -0.678,4.636 0.351,1.393 1.16,2.59 2.302,3.429 -4.053,9.218 -9.219,13.081 -12.565,14.685 -0.128,0.045 -0.248,0.101 -0.36,0.168 -1.187,0.531 -2.05,0.704 -2.559,0.808 l 0,4 c 0.275,-0.03 1.885,-0.118 4.247,-1.192 5.348,-1.357 6.839,-0.354 8.407,0.709 1.021,0.692 2.291,1.554 4.263,1.656 0.1,0.005 0.204,0.008 0.309,0.008 2.109,0 5.172,-1.022 7.021,-1.723 1.144,1.116 2.676,1.75 4.285,1.75 l 0,0 c 1.461,0 2.876,-0.524 3.983,-1.476 1.24,-1.062 1.993,-2.546 2.118,-4.176 0.124,-1.631 -0.393,-3.214 -1.458,-4.452 z M 87.656,92.151 c 0.386,-0.645 1.066,-1.03 1.819,-1.03 0.378,0 0.752,0.104 1.078,0.297 1,0.601 1.331,1.899 0.735,2.898 -0.385,0.646 -1.064,1.032 -1.817,1.032 -0.379,0 -0.755,-0.104 -1.084,-0.301 -0.483,-0.288 -0.826,-0.748 -0.964,-1.294 -0.138,-0.548 -0.055,-1.116 0.233,-1.602 z m 12.603,22.363 c -0.49,0.421 -1.018,0.509 -1.373,0.509 -0.621,0 -1.207,-0.269 -1.608,-0.734 -0.758,-0.885 -0.654,-2.222 0.231,-2.981 0.492,-0.423 1.018,-0.512 1.373,-0.512 0.617,0 1.201,0.269 1.605,0.74 0.368,0.43 0.547,0.976 0.504,1.538 -0.043,0.562 -0.302,1.072 -0.732,1.44 z"
             id="path7333"
             inkscape:connector-curvature="0" /><path
             d="m 79.355,46.028 c 0.07,0.019 0.142,0.034 0.212,0.046 -0.072,-0.011 -0.142,-0.027 -0.212,-0.046 z"
             id="path7335"
             inkscape:connector-curvature="0" /><path
             d="m 101.305,33.027 c -0.357,-1.599 -1.317,-2.964 -2.708,-3.844 -0.98,-0.617 -2.109,-0.944 -3.265,-0.944 -2.117,0 -4.053,1.066 -5.174,2.85 -1.354,2.138 -1.218,4.799 0.144,6.759 -3.646,4.124 -8.706,4.313 -9.942,4.293 -3.692,-1.604 -7.234,-2.164 -10.005,-2.317 l 0,3.996 c 2.441,0.144 5.553,0.686 8.748,2.136 0.005,0.002 0.01,0.002 0.015,0.005 3.445,1.563 6.334,3.928 8.607,7.041 -0.136,0.173 -0.265,0.352 -0.382,0.538 -1.796,2.854 -0.942,6.644 1.903,8.444 0.98,0.622 2.111,0.951 3.27,0.951 2.113,0 4.051,-1.065 5.183,-2.852 1.806,-2.851 0.951,-6.642 -1.908,-8.453 -1.384,-0.871 -3.092,-1.113 -4.667,-0.755 -1.538,-2.154 -3.323,-4.017 -5.345,-5.566 2.517,-0.778 5.401,-2.269 7.78,-5.096 0.572,0.172 1.166,0.267 1.77,0.267 2.116,0 4.051,-1.068 5.172,-2.849 0.874,-1.375 1.16,-3.009 0.804,-4.604 z M 90.734,55.675 c 0.169,-0.267 0.395,-0.49 0.673,-0.661 0.335,-0.207 0.722,-0.316 1.121,-0.316 0.4,0 0.79,0.112 1.122,0.321 0.987,0.627 1.283,1.936 0.66,2.919 -0.392,0.618 -1.063,0.988 -1.795,0.988 -0.397,0 -0.785,-0.113 -1.124,-0.327 -0.984,-0.624 -1.278,-1.937 -0.657,-2.924 z m 6.379,-20.188 c -0.6,0.951 -1.938,1.271 -2.912,0.653 l -0.096,-0.063 c -0.914,-0.647 -1.161,-1.897 -0.558,-2.851 0.386,-0.613 1.053,-0.98 1.784,-0.98 0.397,0 0.787,0.113 1.124,0.326 0.479,0.304 0.813,0.775 0.937,1.33 0.123,0.547 0.026,1.108 -0.279,1.585 z"
             id="path7337"
             inkscape:connector-curvature="0" /><path
             d="m 110,74.011 c 0.425,1.035 1.136,1.962 2.109,2.649 0.072,0.052 0.151,0.105 0.283,0.191 0.981,0.621 2.11,0.949 3.268,0.949 2.116,0 4.052,-1.068 5.173,-2.849 0.875,-1.375 1.16,-3.01 0.805,-4.604 -0.358,-1.598 -1.318,-2.964 -2.709,-3.844 -0.98,-0.617 -2.109,-0.944 -3.266,-0.944 -0.125,0 -0.25,0.008 -0.375,0.018 -0.71,-3.157 -0.919,-7.769 0.035,-11.265 0.112,0.011 0.225,0.024 0.337,0.024 2.116,0 4.052,-1.067 5.173,-2.849 0.875,-1.375 1.16,-3.009 0.805,-4.604 -0.358,-1.599 -1.318,-2.964 -2.709,-3.844 -0.98,-0.617 -2.109,-0.944 -3.266,-0.944 -2.114,0 -4.051,1.066 -5.173,2.85 -1.604,2.532 -1.12,5.804 1.024,7.765 0.021,0.02 0.048,0.037 0.071,0.059 -1.349,4.518 -1.146,10.324 -0.036,14.417 -0.144,0.132 -0.294,0.254 -0.426,0.399 -0.229,0.255 -0.445,0.526 -0.634,0.824 -0.318,0.502 -0.551,1.033 -0.71,1.578 -3.371,0.488 -5.198,1.671 -6.824,2.729 -2.035,1.324 -3.961,2.572 -9.636,2.665 -1.964,-0.23 -3.553,-0.177 -5.29,-0.116 -1.431,0.052 -2.91,0.106 -4.849,0.003 -1.335,-0.071 -2.104,-0.882 -3.458,-2.424 -1.803,-2.055 -4.219,-4.648 -9.369,-5.022 l 0,4 c 3.295,0.3 4.796,1.888 6.356,3.667 1.487,1.694 3.175,3.615 6.256,3.782 2.118,0.114 3.76,0.052 5.208,0.001 2.491,-0.092 4.453,-0.161 7.855,0.684 2.607,0.643 12.099,9.673 14.773,14.322 -0.108,0.142 -0.219,0.282 -0.313,0.434 -1.743,2.755 -1.026,6.385 1.619,8.251 0.072,0.052 0.151,0.104 0.283,0.191 0.981,0.621 2.11,0.948 3.268,0.948 2.116,0 4.052,-1.068 5.173,-2.849 0.875,-1.374 1.16,-3.009 0.805,-4.603 -0.358,-1.6 -1.318,-2.965 -2.709,-3.845 -0.98,-0.617 -2.109,-0.944 -3.266,-0.944 -0.528,0 -1.047,0.067 -1.543,0.195 -2.561,-4.187 -8.652,-10.455 -13.189,-13.792 1.813,-0.628 3.05,-1.435 4.212,-2.188 1.429,-0.928 2.616,-1.688 4.859,-2.065 z m 3.88,-26.925 c 0.388,-0.614 1.054,-0.98 1.783,-0.98 0.399,0 0.79,0.113 1.125,0.325 0.48,0.304 0.813,0.775 0.937,1.33 0.122,0.546 0.024,1.106 -0.279,1.584 -0.598,0.951 -1.938,1.272 -2.912,0.653 l -0.094,-0.063 c -0.918,-0.646 -1.163,-1.896 -0.56,-2.849 z m 0,23.463 c 0.388,-0.614 1.054,-0.98 1.783,-0.98 0.399,0 0.79,0.112 1.125,0.326 0.48,0.304 0.813,0.774 0.937,1.329 0.122,0.546 0.024,1.107 -0.279,1.585 -0.598,0.95 -1.938,1.271 -2.912,0.652 l -0.094,-0.063 c -0.918,-0.646 -1.163,-1.896 -0.56,-2.849 z m 0,26.303 c 0.388,-0.613 1.054,-0.979 1.783,-0.979 0.399,0 0.79,0.112 1.125,0.325 0.48,0.304 0.813,0.775 0.937,1.33 0.122,0.547 0.024,1.106 -0.279,1.584 -0.598,0.951 -1.938,1.271 -2.912,0.653 l -0.094,-0.063 c -0.918,-0.647 -1.163,-1.896 -0.56,-2.85 z"
             id="path7339"
             inkscape:connector-curvature="0" /></g><g
           id="g7341"><g
             id="g7343"><path
               d="m 103.53,111.927 c -1.165,-1.36 -2.858,-2.139 -4.648,-2.139 -1.459,0 -2.875,0.525 -3.983,1.477 -1.612,1.383 -2.326,3.429 -2.087,5.397 -1.948,0.7 -4.258,1.365 -5.328,1.332 -0.821,-0.044 -1.302,-0.346 -2.224,-0.972 -1.172,-0.795 -2.418,-1.512 -4.148,-1.847 2.936,-2.761 6.009,-6.83 8.584,-12.834 2.061,-0.076 3.976,-1.193 5.038,-2.972 1.725,-2.896 0.773,-6.659 -2.124,-8.394 -0.949,-0.565 -2.032,-0.864 -3.134,-0.864 -2.146,0 -4.161,1.144 -5.261,2.986 -0.838,1.405 -1.079,3.05 -0.678,4.636 0.351,1.393 1.16,2.59 2.302,3.429 -4.053,9.218 -9.219,13.081 -12.565,14.685 -0.128,0.045 -0.248,0.101 -0.36,0.168 -1.187,0.531 -2.05,0.704 -2.559,0.808 l 0,4 c 0.275,-0.03 1.885,-0.118 4.247,-1.192 5.348,-1.357 6.839,-0.354 8.407,0.709 1.021,0.692 2.291,1.554 4.263,1.656 0.1,0.005 0.204,0.008 0.309,0.008 2.109,0 5.172,-1.022 7.021,-1.723 1.144,1.116 2.676,1.75 4.285,1.75 l 0,0 c 1.461,0 2.876,-0.524 3.983,-1.476 1.24,-1.062 1.993,-2.546 2.118,-4.176 0.124,-1.631 -0.393,-3.214 -1.458,-4.452 z M 87.656,95.151 c 0.386,-0.645 1.066,-1.03 1.819,-1.03 0.378,0 0.752,0.104 1.078,0.297 1,0.601 1.331,1.899 0.735,2.898 -0.385,0.646 -1.064,1.032 -1.817,1.032 -0.379,0 -0.755,-0.104 -1.084,-0.301 -0.483,-0.288 -0.826,-0.748 -0.964,-1.294 -0.138,-0.548 -0.055,-1.116 0.233,-1.602 z m 12.603,22.363 c -0.49,0.421 -1.018,0.509 -1.373,0.509 -0.621,0 -1.207,-0.269 -1.608,-0.734 -0.758,-0.885 -0.654,-2.222 0.231,-2.981 0.492,-0.423 1.018,-0.512 1.373,-0.512 0.617,0 1.201,0.269 1.605,0.74 0.368,0.43 0.547,0.976 0.504,1.538 -0.043,0.562 -0.302,1.072 -0.732,1.44 z"
               id="path7345"
               inkscape:connector-curvature="0"
               style="fill:#d3562c" /><path
               d="m 79.355,48.434 c 0.07,0.019 0.142,0.034 0.212,0.046 -0.072,-0.012 -0.142,-0.028 -0.212,-0.046 z"
               id="path7347"
               inkscape:connector-curvature="0" /><path
               d="m 101.305,36.031 c -0.357,-1.599 -1.317,-2.964 -2.708,-3.844 -0.98,-0.617 -2.109,-0.944 -3.265,-0.944 -2.117,0 -4.053,1.066 -5.174,2.85 -1.354,2.138 -1.218,4.799 0.144,6.759 -3.646,4.124 -8.706,4.313 -9.942,4.293 -3.692,-1.604 -7.234,-2.164 -10.005,-2.317 l 0,3.996 c 2.441,0.144 5.553,0.686 8.748,2.136 0.005,0.002 0.01,0.002 0.015,0.005 3.445,1.563 6.334,3.928 8.607,7.041 -0.136,0.173 -0.265,0.352 -0.382,0.538 -1.796,2.854 -0.942,6.644 1.903,8.444 0.98,0.622 2.111,0.951 3.27,0.951 2.113,0 4.051,-1.065 5.183,-2.852 1.806,-2.851 0.951,-6.642 -1.908,-8.453 -1.384,-0.871 -3.092,-1.113 -4.667,-0.755 -1.538,-2.154 -3.323,-4.017 -5.345,-5.566 2.517,-0.778 5.401,-2.269 7.78,-5.096 0.572,0.172 1.166,0.267 1.77,0.267 2.116,0 4.051,-1.068 5.172,-2.849 0.874,-1.375 1.16,-3.009 0.804,-4.604 z M 90.734,58.679 c 0.169,-0.267 0.395,-0.49 0.673,-0.661 0.335,-0.207 0.722,-0.316 1.121,-0.316 0.4,0 0.79,0.112 1.122,0.321 0.987,0.627 1.283,1.936 0.66,2.919 -0.392,0.618 -1.063,0.988 -1.795,0.988 -0.397,0 -0.785,-0.113 -1.124,-0.327 -0.984,-0.624 -1.278,-1.937 -0.657,-2.924 z m 6.379,-20.188 c -0.6,0.951 -1.938,1.271 -2.912,0.653 l -0.096,-0.063 c -0.914,-0.647 -1.161,-1.897 -0.558,-2.851 0.386,-0.613 1.053,-0.98 1.784,-0.98 0.397,0 0.787,0.113 1.124,0.326 0.479,0.304 0.813,0.775 0.937,1.33 0.123,0.547 0.026,1.108 -0.279,1.585 z"
               id="path7349"
               inkscape:connector-curvature="0"
               style="fill:#d3562c" /><path
               d="m 110,77.011 c 0.425,1.035 1.136,1.962 2.109,2.649 0.072,0.052 0.151,0.105 0.283,0.191 0.981,0.621 2.11,0.949 3.268,0.949 2.116,0 4.052,-1.068 5.173,-2.849 0.875,-1.375 1.16,-3.01 0.805,-4.604 -0.358,-1.598 -1.318,-2.964 -2.709,-3.844 -0.98,-0.617 -2.109,-0.944 -3.266,-0.944 -0.125,0 -0.25,0.008 -0.375,0.018 -0.71,-3.157 -0.919,-7.769 0.035,-11.265 0.112,0.011 0.225,0.024 0.337,0.024 2.116,0 4.052,-1.067 5.173,-2.849 0.875,-1.375 1.16,-3.009 0.805,-4.604 -0.358,-1.599 -1.318,-2.964 -2.709,-3.844 -0.98,-0.617 -2.109,-0.944 -3.266,-0.944 -2.114,0 -4.051,1.066 -5.173,2.85 -1.604,2.532 -1.12,5.804 1.024,7.765 0.021,0.02 0.048,0.037 0.071,0.059 -1.349,4.518 -1.146,10.324 -0.036,14.417 -0.144,0.132 -0.294,0.254 -0.426,0.399 -0.229,0.255 -0.445,0.526 -0.634,0.824 -0.318,0.502 -0.551,1.033 -0.71,1.578 -3.371,0.488 -5.198,1.671 -6.824,2.729 -2.035,1.324 -3.961,2.572 -9.636,2.665 -1.964,-0.23 -3.553,-0.177 -5.29,-0.116 -1.431,0.052 -2.91,0.106 -4.849,0.003 -1.335,-0.071 -2.104,-0.882 -3.458,-2.424 -1.803,-2.055 -4.219,-4.648 -9.369,-5.022 l 0,4 c 3.295,0.3 4.796,1.888 6.356,3.667 1.487,1.694 3.175,3.615 6.256,3.782 2.118,0.114 3.76,0.052 5.208,0.001 2.491,-0.092 4.453,-0.161 7.855,0.684 2.607,0.643 12.099,9.673 14.773,14.322 -0.108,0.142 -0.219,0.282 -0.313,0.434 -1.743,2.755 -1.026,6.385 1.619,8.251 0.072,0.052 0.151,0.104 0.283,0.191 0.981,0.621 2.11,0.948 3.268,0.948 2.116,0 4.052,-1.068 5.173,-2.849 0.875,-1.374 1.16,-3.009 0.805,-4.603 -0.358,-1.6 -1.318,-2.965 -2.709,-3.845 -0.98,-0.617 -2.109,-0.944 -3.266,-0.944 -0.528,0 -1.047,0.067 -1.543,0.195 -2.561,-4.187 -8.652,-10.455 -13.189,-13.792 1.813,-0.628 3.05,-1.435 4.212,-2.188 1.429,-0.928 2.616,-1.688 4.859,-2.065 z m 3.88,-26.925 c 0.388,-0.614 1.054,-0.98 1.783,-0.98 0.399,0 0.79,0.113 1.125,0.325 0.48,0.304 0.813,0.775 0.937,1.33 0.122,0.546 0.024,1.106 -0.279,1.584 -0.598,0.951 -1.938,1.272 -2.912,0.653 l -0.094,-0.063 c -0.918,-0.646 -1.163,-1.896 -0.56,-2.849 z m 0,23.463 c 0.388,-0.614 1.054,-0.98 1.783,-0.98 0.399,0 0.79,0.112 1.125,0.326 0.48,0.304 0.813,0.774 0.937,1.329 0.122,0.546 0.024,1.107 -0.279,1.585 -0.598,0.95 -1.938,1.271 -2.912,0.652 l -0.094,-0.063 c -0.918,-0.646 -1.163,-1.896 -0.56,-2.849 z m 0,26.303 c 0.388,-0.613 1.054,-0.979 1.783,-0.979 0.399,0 0.79,0.112 1.125,0.325 0.48,0.304 0.813,0.775 0.937,1.33 0.122,0.547 0.024,1.106 -0.279,1.584 -0.598,0.951 -1.938,1.271 -2.912,0.653 l -0.094,-0.063 c -0.918,-0.647 -1.163,-1.896 -0.56,-2.85 z"
               id="path7351"
               inkscape:connector-curvature="0"
               style="fill:#d3562c" /></g><g
             id="g7353"><path
               d="m 103.53,108.927 c -1.165,-1.36 -2.858,-2.139 -4.648,-2.139 -1.459,0 -2.875,0.525 -3.983,1.477 -1.612,1.383 -2.326,3.429 -2.087,5.397 -1.948,0.7 -4.258,1.365 -5.328,1.332 -0.821,-0.044 -1.302,-0.346 -2.224,-0.972 -1.172,-0.795 -2.418,-1.512 -4.148,-1.847 2.936,-2.761 6.009,-6.83 8.584,-12.834 2.061,-0.076 3.976,-1.193 5.038,-2.972 1.725,-2.896 0.773,-6.659 -2.124,-8.394 -0.949,-0.565 -2.032,-0.864 -3.134,-0.864 -2.146,0 -4.161,1.144 -5.261,2.986 -0.838,1.405 -1.079,3.05 -0.678,4.636 0.351,1.393 1.16,2.59 2.302,3.429 -4.053,9.218 -9.219,13.081 -12.565,14.685 -0.128,0.045 -0.248,0.101 -0.36,0.168 -1.187,0.531 -2.05,0.704 -2.559,0.808 l 0,4 c 0.275,-0.03 1.885,-0.118 4.247,-1.192 5.348,-1.357 6.839,-0.354 8.407,0.709 1.021,0.692 2.291,1.554 4.263,1.656 0.1,0.005 0.204,0.008 0.309,0.008 2.109,0 5.172,-1.022 7.021,-1.723 1.144,1.116 2.676,1.75 4.285,1.75 l 0,0 c 1.461,0 2.876,-0.524 3.983,-1.476 1.24,-1.062 1.993,-2.546 2.118,-4.176 0.124,-1.631 -0.393,-3.214 -1.458,-4.452 z M 87.656,92.151 c 0.386,-0.645 1.066,-1.03 1.819,-1.03 0.378,0 0.752,0.104 1.078,0.297 1,0.601 1.331,1.899 0.735,2.898 -0.385,0.646 -1.064,1.032 -1.817,1.032 -0.379,0 -0.755,-0.104 -1.084,-0.301 -0.483,-0.288 -0.826,-0.748 -0.964,-1.294 -0.138,-0.548 -0.055,-1.116 0.233,-1.602 z m 12.603,22.363 c -0.49,0.421 -1.018,0.509 -1.373,0.509 -0.621,0 -1.207,-0.269 -1.608,-0.734 -0.758,-0.885 -0.654,-2.222 0.231,-2.981 0.492,-0.423 1.018,-0.512 1.373,-0.512 0.617,0 1.201,0.269 1.605,0.74 0.368,0.43 0.547,0.976 0.504,1.538 -0.043,0.562 -0.302,1.072 -0.732,1.44 z"
               id="path7355"
               inkscape:connector-curvature="0"
               style="fill:#fffedb" /><path
               d="m 79.355,46.028 c 0.07,0.019 0.142,0.034 0.212,0.046 -0.072,-0.011 -0.142,-0.027 -0.212,-0.046 z"
               id="path7357"
               inkscape:connector-curvature="0"
               style="fill:#fffedb" /><path
               d="m 101.305,33.027 c -0.357,-1.599 -1.317,-2.964 -2.708,-3.844 -0.98,-0.617 -2.109,-0.944 -3.265,-0.944 -2.117,0 -4.053,1.066 -5.174,2.85 -1.354,2.138 -1.218,4.799 0.144,6.759 -3.646,4.124 -8.706,4.313 -9.942,4.293 -3.692,-1.604 -7.234,-2.164 -10.005,-2.317 l 0,3.996 c 2.441,0.144 5.553,0.686 8.748,2.136 0.005,0.002 0.01,0.002 0.015,0.005 3.445,1.563 6.334,3.928 8.607,7.041 -0.136,0.173 -0.265,0.352 -0.382,0.538 -1.796,2.854 -0.942,6.644 1.903,8.444 0.98,0.622 2.111,0.951 3.27,0.951 2.113,0 4.051,-1.065 5.183,-2.852 1.806,-2.851 0.951,-6.642 -1.908,-8.453 -1.384,-0.871 -3.092,-1.113 -4.667,-0.755 -1.538,-2.154 -3.323,-4.017 -5.345,-5.566 2.517,-0.778 5.401,-2.269 7.78,-5.096 0.572,0.172 1.166,0.267 1.77,0.267 2.116,0 4.051,-1.068 5.172,-2.849 0.874,-1.375 1.16,-3.009 0.804,-4.604 z M 90.734,55.675 c 0.169,-0.267 0.395,-0.49 0.673,-0.661 0.335,-0.207 0.722,-0.316 1.121,-0.316 0.4,0 0.79,0.112 1.122,0.321 0.987,0.627 1.283,1.936 0.66,2.919 -0.392,0.618 -1.063,0.988 -1.795,0.988 -0.397,0 -0.785,-0.113 -1.124,-0.327 -0.984,-0.624 -1.278,-1.937 -0.657,-2.924 z m 6.379,-20.188 c -0.6,0.951 -1.938,1.271 -2.912,0.653 l -0.096,-0.063 c -0.914,-0.647 -1.161,-1.897 -0.558,-2.851 0.386,-0.613 1.053,-0.98 1.784,-0.98 0.397,0 0.787,0.113 1.124,0.326 0.479,0.304 0.813,0.775 0.937,1.33 0.123,0.547 0.026,1.108 -0.279,1.585 z"
               id="path7359"
               inkscape:connector-curvature="0"
               style="fill:#fffedb" /><path
               d="m 110,74.011 c 0.425,1.035 1.136,1.962 2.109,2.649 0.072,0.052 0.151,0.105 0.283,0.191 0.981,0.621 2.11,0.949 3.268,0.949 2.116,0 4.052,-1.068 5.173,-2.849 0.875,-1.375 1.16,-3.01 0.805,-4.604 -0.358,-1.598 -1.318,-2.964 -2.709,-3.844 -0.98,-0.617 -2.109,-0.944 -3.266,-0.944 -0.125,0 -0.25,0.008 -0.375,0.018 -0.71,-3.157 -0.919,-7.769 0.035,-11.265 0.112,0.011 0.225,0.024 0.337,0.024 2.116,0 4.052,-1.067 5.173,-2.849 0.875,-1.375 1.16,-3.009 0.805,-4.604 -0.358,-1.599 -1.318,-2.964 -2.709,-3.844 -0.98,-0.617 -2.109,-0.944 -3.266,-0.944 -2.114,0 -4.051,1.066 -5.173,2.85 -1.604,2.532 -1.12,5.804 1.024,7.765 0.021,0.02 0.048,0.037 0.071,0.059 -1.349,4.518 -1.146,10.324 -0.036,14.417 -0.144,0.132 -0.294,0.254 -0.426,0.399 -0.229,0.255 -0.445,0.526 -0.634,0.824 -0.318,0.502 -0.551,1.033 -0.71,1.578 -3.371,0.488 -5.198,1.671 -6.824,2.729 -2.035,1.324 -3.961,2.572 -9.636,2.665 -1.964,-0.23 -3.553,-0.177 -5.29,-0.116 -1.431,0.052 -2.91,0.106 -4.849,0.003 -1.335,-0.071 -2.104,-0.882 -3.458,-2.424 -1.803,-2.055 -4.219,-4.648 -9.369,-5.022 l 0,4 c 3.295,0.3 4.796,1.888 6.356,3.667 1.487,1.694 3.175,3.615 6.256,3.782 2.118,0.114 3.76,0.052 5.208,0.001 2.491,-0.092 4.453,-0.161 7.855,0.684 2.607,0.643 12.099,9.673 14.773,14.322 -0.108,0.142 -0.219,0.282 -0.313,0.434 -1.743,2.755 -1.026,6.385 1.619,8.251 0.072,0.052 0.151,0.104 0.283,0.191 0.981,0.621 2.11,0.948 3.268,0.948 2.116,0 4.052,-1.068 5.173,-2.849 0.875,-1.374 1.16,-3.009 0.805,-4.603 -0.358,-1.6 -1.318,-2.965 -2.709,-3.845 -0.98,-0.617 -2.109,-0.944 -3.266,-0.944 -0.528,0 -1.047,0.067 -1.543,0.195 -2.561,-4.187 -8.652,-10.455 -13.189,-13.792 1.813,-0.628 3.05,-1.435 4.212,-2.188 1.429,-0.928 2.616,-1.688 4.859,-2.065 z m 3.88,-26.925 c 0.388,-0.614 1.054,-0.98 1.783,-0.98 0.399,0 0.79,0.113 1.125,0.325 0.48,0.304 0.813,0.775 0.937,1.33 0.122,0.546 0.024,1.106 -0.279,1.584 -0.598,0.951 -1.938,1.272 -2.912,0.653 l -0.094,-0.063 c -0.918,-0.646 -1.163,-1.896 -0.56,-2.849 z m 0,23.463 c 0.388,-0.614 1.054,-0.98 1.783,-0.98 0.399,0 0.79,0.112 1.125,0.326 0.48,0.304 0.813,0.774 0.937,1.329 0.122,0.546 0.024,1.107 -0.279,1.585 -0.598,0.95 -1.938,1.271 -2.912,0.652 l -0.094,-0.063 c -0.918,-0.646 -1.163,-1.896 -0.56,-2.849 z m 0,26.303 c 0.388,-0.613 1.054,-0.979 1.783,-0.979 0.399,0 0.79,0.112 1.125,0.325 0.48,0.304 0.813,0.775 0.937,1.33 0.122,0.547 0.024,1.106 -0.279,1.584 -0.598,0.951 -1.938,1.271 -2.912,0.653 l -0.094,-0.063 c -0.918,-0.647 -1.163,-1.896 -0.56,-2.85 z"
               id="path7361"
               inkscape:connector-curvature="0"
               style="fill:#fffedb" /></g></g></g><g
         id="g7363"><path
           d="m 64.084,43.297 c -0.473,0.216 -1.355,0.563 -2.623,0.834 -0.129,0.012 -0.261,0.039 -0.39,0.075 -3.641,0.683 -10.077,0.615 -18.772,-4.422 0.426,-1.348 0.371,-2.789 -0.166,-4.117 -0.611,-1.512 -1.777,-2.694 -3.279,-3.333 -1.97,-0.836 -4.268,-0.569 -5.995,0.696 -0.886,0.649 -1.583,1.527 -2.013,2.542 -1.313,3.103 0.139,6.695 3.234,8.01 1.903,0.805 4.105,0.578 5.809,-0.575 5.61,3.315 10.484,4.785 14.477,5.278 -1.198,1.288 -1.777,2.602 -2.253,3.932 -0.375,1.048 -0.583,1.571 -1.218,2.091 -0.845,0.657 -3.096,1.484 -5.076,2.066 -0.967,-1.724 -2.748,-2.952 -4.862,-3.114 -1.454,-0.116 -2.903,0.296 -4.079,1.158 -1.441,1.053 -2.343,2.679 -2.479,4.459 -0.13,1.626 0.387,3.207 1.449,4.447 1.062,1.237 2.542,1.989 4.167,2.114 1.452,0.111 2.901,-0.299 4.076,-1.159 l 0.002,-10e-4 c 1.296,-0.947 2.155,-2.362 2.418,-3.934 1.901,-0.527 4.97,-1.506 6.669,-2.748 0.084,-0.063 0.167,-0.127 0.244,-0.189 1.527,-1.245 2.04,-2.687 2.455,-3.846 0.639,-1.782 1.246,-3.469 6.354,-5.524 1.268,-0.265 2.409,-0.929 3.123,-1.214 l 0,-4 -1.272,0.474 z M 38.412,38.78 c -0.15,0.352 -0.391,0.655 -0.697,0.878 -0.606,0.444 -1.381,0.534 -2.072,0.242 -1.066,-0.452 -1.568,-1.695 -1.113,-2.767 0.146,-0.35 0.386,-0.654 0.692,-0.876 0.604,-0.444 1.382,-0.535 2.07,-0.24 0.519,0.219 0.921,0.628 1.133,1.149 0.212,0.524 0.206,1.098 -0.013,1.614 z m 3.317,22.27 c -0.287,0.21 -0.765,0.45 -1.406,0.399 -0.563,-0.043 -1.072,-0.302 -1.438,-0.728 -0.366,-0.426 -0.545,-0.974 -0.501,-1.535 0.048,-0.617 0.36,-1.18 0.855,-1.541 0.286,-0.209 0.763,-0.451 1.407,-0.398 1.161,0.089 2.032,1.104 1.944,2.264 -0.049,0.611 -0.362,1.174 -0.861,1.539 z"
           id="path7365"
           inkscape:connector-curvature="0"
           style="fill:#43883e" /><path
           d="m 58.888,111.65 c -0.059,-0.043 -0.119,-0.08 -0.182,-0.117 0.064,0.037 0.124,0.076 0.182,0.117 z"
           id="path7367"
           inkscape:connector-curvature="0" /><path
           d="m 59.314,112.444 c -0.005,-0.004 -0.01,-0.005 -0.012,-0.009 -2.678,-2.663 -4.555,-5.881 -5.595,-9.586 0.188,-0.112 0.369,-0.234 0.545,-0.368 2.675,-2.044 3.196,-5.884 1.163,-8.561 -0.699,-0.923 -1.643,-1.624 -2.724,-2.027 -1.976,-0.737 -4.159,-0.417 -5.839,0.859 -2.684,2.035 -3.206,5.876 -1.165,8.568 0.989,1.296 2.505,2.118 4.101,2.333 0.687,2.55 1.707,4.913 3.059,7.067 -2.626,-0.15 -5.842,0.239 -9.053,2.051 -0.474,-0.36 -0.996,-0.655 -1.561,-0.866 -1.979,-0.736 -4.16,-0.414 -5.83,0.861 -1.297,0.981 -2.133,2.41 -2.356,4.023 -0.222,1.62 0.2,3.231 1.192,4.538 0.702,0.919 1.644,1.619 2.724,2.021 1.979,0.738 4.159,0.414 5.831,-0.861 2.009,-1.525 2.812,-4.062 2.22,-6.369 4.847,-2.586 9.644,-0.997 10.793,-0.548 2.895,2.787 6.012,4.142 8.547,5.251 l 0,-4 c -1.918,-0.989 -4.055,-2.401 -6.04,-4.377 z m -17.944,6.864 c -0.575,0.439 -1.325,0.55 -2.009,0.295 -0.372,-0.139 -0.697,-0.38 -0.938,-0.696 -0.344,-0.452 -0.489,-1.009 -0.412,-1.569 0.076,-0.554 0.362,-1.043 0.813,-1.385 0.891,-0.68 2.255,-0.513 2.95,0.405 l 0.066,0.092 c 0.632,0.923 0.428,2.177 -0.47,2.858 z m 7.501,-20.411 c -0.704,-0.93 -0.524,-2.256 0.4,-2.958 0.582,-0.441 1.339,-0.554 2.023,-0.299 0.37,0.139 0.694,0.381 0.936,0.698 0.703,0.926 0.521,2.256 -0.404,2.962 -0.251,0.191 -0.539,0.321 -0.859,0.385 -0.385,0.077 -0.785,0.044 -1.159,-0.096 -0.372,-0.138 -0.699,-0.379 -0.937,-0.692 z"
           id="path7369"
           inkscape:connector-curvature="0"
           style="fill:#43883e" /><path
           d="m 58.888,109.245 c -0.059,-0.043 -0.119,-0.08 -0.182,-0.117 0.064,0.037 0.124,0.076 0.182,0.117 z"
           id="path7371"
           inkscape:connector-curvature="0" /><g
           id="g7373"><path
             d="m 58.888,111.65 c -0.059,-0.043 -0.119,-0.08 -0.182,-0.117 0.064,0.037 0.124,0.076 0.182,0.117 z"
             id="path7375"
             inkscape:connector-curvature="0" /><path
             d="m 55.95,76.089 c -1.352,1.54 -2.119,2.348 -3.45,2.419 -1.935,0.104 -3.41,0.049 -4.838,-0.002 -1.429,-0.051 -3.984,-0.819 -7.983,-2.603 -4,-1.783 -12.072,-9.654 -14.74,-14.293 0.107,-0.141 0.217,-0.28 0.312,-0.432 1.74,-2.749 1.023,-6.371 -1.614,-8.233 -0.073,-0.052 -0.152,-0.105 -0.284,-0.191 -0.979,-0.619 -2.106,-0.946 -3.261,-0.946 -2.111,0 -4.042,1.065 -5.161,2.843 -0.872,1.372 -1.157,3.003 -0.802,4.593 0.356,1.596 1.314,2.958 2.702,3.836 0.978,0.616 2.104,0.942 3.258,0.942 0.528,0 1.045,-0.066 1.54,-0.194 2.555,4.178 10.25,12.059 13.161,13.762 -1.809,0.627 -3.044,1.431 -4.202,2.184 -1.425,0.928 -2.608,1.687 -4.848,2.063 -0.424,-1.031 -1.133,-1.957 -2.104,-2.643 -0.073,-0.053 -0.152,-0.105 -0.284,-0.191 -0.979,-0.619 -2.106,-0.947 -3.261,-0.947 -2.111,0 -4.042,1.066 -5.161,2.844 -0.872,1.371 -1.157,3.003 -0.802,4.593 0.356,1.596 1.314,2.958 2.702,3.836 0.978,0.616 2.104,0.942 3.258,0.942 0.126,0 0.248,-0.021 0.373,-0.031 0.709,3.15 0.92,7.761 -0.033,11.253 -0.112,-0.01 -0.224,-0.023 -0.337,-0.023 -2.111,0 -4.042,1.065 -5.161,2.843 -0.872,1.372 -1.157,3.003 -0.802,4.593 0.356,1.597 1.314,2.958 2.702,3.836 0.978,0.616 2.104,0.942 3.258,0.942 2.111,0 4.043,-1.064 5.162,-2.843 1.601,-2.527 1.118,-5.791 -1.021,-7.748 -0.025,-0.023 -0.056,-0.043 -0.081,-0.066 1.346,-4.51 1.142,-10.281 0.033,-14.367 0.146,-0.135 0.301,-0.26 0.436,-0.409 0.229,-0.256 0.445,-0.525 0.633,-0.822 0.317,-0.501 0.551,-1.031 0.708,-1.575 3.365,-0.487 5.188,-1.667 6.811,-2.724 1.802,-1.172 3.524,-2.283 7.841,-2.584 2.396,1.036 4.935,1.884 6.908,1.961 1.707,0.151 3.083,0.113 5.196,-0.001 3.075,-0.165 4.758,-2.082 6.242,-3.773 1.559,-1.775 3.049,-3.481 6.398,-3.905 l 0,-4 c -5.201,0.492 -7.605,3.211 -9.404,5.261 z M 20.088,60.021 c -0.397,0 -0.787,-0.112 -1.122,-0.324 -0.479,-0.304 -0.811,-0.774 -0.935,-1.327 -0.122,-0.546 -0.024,-1.104 0.278,-1.582 0.598,-0.948 1.935,-1.269 2.906,-0.651 L 21.31,56.2 c 0.913,0.646 1.159,1.893 0.557,2.843 -0.385,0.612 -1.051,0.978 -1.779,0.978 z m -1.122,25.923 c -0.479,-0.304 -0.811,-0.774 -0.935,-1.327 -0.122,-0.546 -0.024,-1.104 0.278,-1.582 0.598,-0.948 1.935,-1.269 2.906,-0.651 l 0.095,0.063 c 0.913,0.646 1.159,1.892 0.557,2.843 -0.385,0.612 -1.051,0.979 -1.779,0.979 -0.398,0 -0.787,-0.114 -1.122,-0.325 z m 2.901,22.758 c -0.385,0.613 -1.051,0.979 -1.779,0.979 -0.397,0 -0.787,-0.112 -1.122,-0.324 -0.479,-0.303 -0.811,-0.774 -0.935,-1.326 -0.122,-0.547 -0.024,-1.105 0.278,-1.582 0.598,-0.949 1.935,-1.27 2.906,-0.652 l 0.095,0.063 c 0.914,0.645 1.16,1.892 0.557,2.842 z"
             id="path7377"
             inkscape:connector-curvature="0"
             style="fill:#43883e" /></g><g
           id="g7379"><path
             d="m 64.084,40.297 c -0.473,0.216 -1.355,0.563 -2.623,0.834 -0.129,0.012 -0.261,0.039 -0.39,0.075 -3.641,0.683 -10.077,0.615 -18.772,-4.422 0.426,-1.348 0.371,-2.789 -0.166,-4.117 -0.611,-1.512 -1.777,-2.694 -3.279,-3.333 -1.97,-0.836 -4.268,-0.569 -5.995,0.696 -0.886,0.649 -1.583,1.527 -2.013,2.542 -1.313,3.103 0.139,6.695 3.234,8.01 1.903,0.805 4.105,0.578 5.809,-0.575 5.61,3.315 10.484,4.785 14.477,5.278 -1.198,1.288 -1.777,2.602 -2.253,3.932 -0.375,1.048 -0.583,1.571 -1.218,2.091 -0.845,0.657 -3.096,1.484 -5.076,2.066 -0.967,-1.724 -2.748,-2.952 -4.862,-3.114 -1.454,-0.116 -2.903,0.296 -4.079,1.158 -1.441,1.053 -2.343,2.679 -2.479,4.459 -0.13,1.626 0.387,3.207 1.449,4.447 1.062,1.237 2.542,1.989 4.167,2.114 1.452,0.111 2.901,-0.299 4.076,-1.159 l 0.002,-0.001 c 1.296,-0.947 2.155,-2.362 2.418,-3.934 1.901,-0.527 4.97,-1.506 6.669,-2.748 0.084,-0.063 0.167,-0.127 0.244,-0.189 1.527,-1.245 2.04,-2.687 2.455,-3.846 0.639,-1.782 1.246,-3.469 6.354,-5.524 1.268,-0.265 2.409,-0.929 3.123,-1.214 l 0,-4 -1.272,0.474 z M 38.412,35.78 c -0.15,0.352 -0.391,0.655 -0.697,0.878 -0.606,0.444 -1.381,0.534 -2.072,0.242 -1.066,-0.452 -1.568,-1.695 -1.113,-2.767 0.146,-0.35 0.386,-0.654 0.692,-0.876 0.604,-0.444 1.382,-0.535 2.07,-0.24 0.519,0.219 0.921,0.628 1.133,1.149 0.212,0.524 0.206,1.098 -0.013,1.614 z m 3.317,22.27 c -0.287,0.21 -0.765,0.45 -1.406,0.399 -0.563,-0.043 -1.072,-0.302 -1.438,-0.728 -0.366,-0.426 -0.545,-0.974 -0.501,-1.535 0.048,-0.617 0.36,-1.18 0.855,-1.541 0.286,-0.209 0.763,-0.451 1.407,-0.398 1.161,0.089 2.032,1.104 1.944,2.264 -0.049,0.611 -0.362,1.174 -0.861,1.539 z"
             id="path7381"
             inkscape:connector-curvature="0"
             style="fill:#fffedb" /><path
             d="m 58.888,109.245 c -0.059,-0.043 -0.119,-0.08 -0.182,-0.117 0.064,0.037 0.124,0.076 0.182,0.117 z"
             id="path7383"
             inkscape:connector-curvature="0"
             style="fill:#fffedb" /><path
             d="m 59.314,109.444 c -0.005,-0.004 -0.01,-0.005 -0.012,-0.009 -2.678,-2.663 -4.555,-5.881 -5.595,-9.586 0.188,-0.112 0.369,-0.234 0.545,-0.368 2.675,-2.044 3.196,-5.884 1.163,-8.561 -0.699,-0.923 -1.643,-1.624 -2.724,-2.027 -1.976,-0.737 -4.159,-0.417 -5.839,0.859 -2.684,2.035 -3.206,5.876 -1.165,8.568 0.989,1.296 2.505,2.118 4.101,2.333 0.687,2.55 1.707,4.913 3.059,7.067 -2.626,-0.15 -5.842,0.239 -9.053,2.051 -0.474,-0.36 -0.996,-0.655 -1.561,-0.866 -1.979,-0.736 -4.16,-0.414 -5.83,0.861 -1.297,0.981 -2.133,2.41 -2.356,4.023 -0.222,1.62 0.2,3.231 1.192,4.538 0.702,0.919 1.644,1.619 2.724,2.021 1.979,0.738 4.159,0.414 5.831,-0.861 2.009,-1.525 2.812,-4.062 2.22,-6.369 4.847,-2.586 9.644,-0.997 10.793,-0.548 2.895,2.787 6.012,4.142 8.547,5.251 l 0,-4 c -1.918,-0.989 -4.055,-2.401 -6.04,-4.377 z m -17.944,6.864 c -0.575,0.439 -1.325,0.55 -2.009,0.295 -0.372,-0.139 -0.697,-0.38 -0.938,-0.696 -0.344,-0.452 -0.489,-1.009 -0.412,-1.569 0.076,-0.554 0.362,-1.043 0.813,-1.385 0.891,-0.68 2.255,-0.513 2.95,0.405 l 0.066,0.092 c 0.632,0.923 0.428,2.177 -0.47,2.858 z m 7.501,-20.411 c -0.704,-0.93 -0.524,-2.256 0.4,-2.958 0.582,-0.441 1.339,-0.554 2.023,-0.299 0.37,0.139 0.694,0.381 0.936,0.698 0.703,0.926 0.521,2.256 -0.404,2.962 -0.251,0.191 -0.539,0.321 -0.859,0.385 -0.385,0.077 -0.785,0.044 -1.159,-0.096 -0.372,-0.138 -0.699,-0.379 -0.937,-0.692 z"
             id="path7385"
             inkscape:connector-curvature="0"
             style="fill:#fffedb" /><path
             d="m 55.95,73.104 c -1.352,1.54 -2.119,2.348 -3.45,2.419 -1.935,0.104 -3.41,0.049 -4.838,-0.002 -1.429,-0.051 -3.984,-0.819 -7.983,-2.603 -4,-1.783 -12.072,-9.654 -14.74,-14.293 0.107,-0.141 0.217,-0.28 0.312,-0.432 1.74,-2.749 1.023,-6.371 -1.614,-8.233 -0.073,-0.052 -0.152,-0.105 -0.284,-0.191 -0.979,-0.619 -2.106,-0.946 -3.261,-0.946 -2.111,0 -4.042,1.065 -5.161,2.843 -0.872,1.372 -1.157,3.003 -0.802,4.593 0.356,1.596 1.314,2.958 2.702,3.836 0.978,0.616 2.104,0.942 3.258,0.942 0.528,0 1.045,-0.066 1.54,-0.194 2.555,4.178 10.25,12.059 13.161,13.762 -1.809,0.627 -3.044,1.431 -4.202,2.184 -1.425,0.928 -2.608,1.687 -4.848,2.063 -0.424,-1.031 -1.133,-1.957 -2.104,-2.643 -0.073,-0.053 -0.152,-0.105 -0.284,-0.191 -0.979,-0.619 -2.106,-0.947 -3.261,-0.947 -2.111,0 -4.042,1.066 -5.161,2.844 -0.872,1.371 -1.157,3.003 -0.802,4.593 0.356,1.596 1.314,2.958 2.702,3.836 0.978,0.616 2.104,0.942 3.258,0.942 0.126,0 0.248,-0.021 0.373,-0.031 0.709,3.15 0.92,7.761 -0.033,11.253 -0.112,-0.01 -0.224,-0.023 -0.337,-0.023 -2.111,0 -4.042,1.065 -5.161,2.843 -0.872,1.372 -1.157,3.003 -0.802,4.593 0.356,1.597 1.314,2.958 2.702,3.836 0.978,0.616 2.104,0.942 3.258,0.942 2.111,0 4.043,-1.064 5.162,-2.843 1.601,-2.527 1.118,-5.791 -1.021,-7.748 -0.025,-0.023 -0.056,-0.043 -0.081,-0.066 1.346,-4.51 1.142,-10.281 0.033,-14.367 0.146,-0.135 0.301,-0.26 0.436,-0.409 0.229,-0.256 0.445,-0.525 0.633,-0.822 0.317,-0.501 0.551,-1.031 0.708,-1.575 3.365,-0.487 5.188,-1.667 6.811,-2.724 1.802,-1.172 3.524,-2.283 7.841,-2.584 2.396,1.036 4.935,1.884 6.908,1.961 1.707,0.151 3.083,0.113 5.196,-0.001 3.075,-0.165 4.758,-2.082 6.242,-3.773 1.559,-1.775 3.049,-3.464 6.398,-3.888 l 0,-4.018 c -5.201,0.494 -7.605,3.213 -9.404,5.262 z M 20.088,57.037 c -0.397,0 -0.787,-0.112 -1.122,-0.324 -0.479,-0.304 -0.811,-0.774 -0.935,-1.327 -0.122,-0.546 -0.024,-1.104 0.278,-1.582 0.598,-0.948 1.935,-1.269 2.906,-0.651 l 0.095,0.063 c 0.913,0.646 1.159,1.893 0.557,2.843 -0.385,0.612 -1.051,0.978 -1.779,0.978 z M 18.966,82.96 c -0.479,-0.304 -0.811,-0.774 -0.935,-1.327 -0.122,-0.546 -0.024,-1.104 0.278,-1.582 0.598,-0.948 1.935,-1.269 2.906,-0.651 l 0.095,0.063 c 0.913,0.646 1.159,1.892 0.557,2.843 -0.385,0.612 -1.051,0.979 -1.779,0.979 -0.398,-10e-4 -0.787,-0.114 -1.122,-0.325 z m 2.901,22.758 c -0.385,0.613 -1.051,0.979 -1.779,0.979 -0.397,0 -0.787,-0.112 -1.122,-0.324 -0.479,-0.303 -0.811,-0.774 -0.935,-1.326 -0.122,-0.547 -0.024,-1.105 0.278,-1.582 0.598,-0.949 1.935,-1.27 2.906,-0.652 l 0.095,0.063 c 0.914,0.645 1.16,1.892 0.557,2.842 z"
             id="path7387"
             inkscape:connector-curvature="0"
             style="fill:#fffedb" /></g></g></g></g></svg>