<?xml version="1.0" encoding="UTF-8"?><svg id="a" xmlns="http://www.w3.org/2000/svg" viewBox="0 0 201 30"><defs><style>.b{fill:#5aa854;}.c{fill:#eb743b;}</style></defs><g><polygon class="b" points="14 1 2 8 2 22 14 29 14 1"/><polygon class="c" points="15 1 27 8 27 22 15 29 15 1"/></g><g><path class="b" d="M42.91,3.28l5.07,15.81,5.06-15.81h7.21V26h-5.49v-5.31l.53-10.86-5.49,16.17h-3.62l-5.51-16.18,.53,10.88v5.31h-5.48V3.28h7.2Z"/><path class="b" d="M71.66,26.31c-2.59,0-4.69-.77-6.29-2.32-1.6-1.54-2.4-3.56-2.4-6.03v-.44c0-1.73,.32-3.25,.96-4.57s1.57-2.34,2.8-3.07c1.23-.72,2.68-1.08,4.37-1.08,2.37,0,4.25,.74,5.62,2.21,1.37,1.47,2.06,3.52,2.06,6.16v2.04h-10.46c.19,.95,.6,1.69,1.23,2.23s1.46,.81,2.47,.81c1.67,0,2.97-.58,3.9-1.75l2.4,2.84c-.66,.91-1.58,1.63-2.79,2.16-1.2,.54-2.49,.8-3.88,.8Zm-.59-13.45c-1.54,0-2.46,1.02-2.75,3.06h5.31v-.41c.02-.84-.19-1.5-.64-1.96s-1.09-.7-1.92-.7Z"/><path class="b" d="M87.02,4.92v4.2h2.78v3.65h-2.78v7.73c0,.63,.11,1.08,.34,1.33,.23,.25,.68,.37,1.36,.37,.52,0,.96-.03,1.31-.09v3.76c-.95,.3-1.94,.45-2.97,.45-1.81,0-3.15-.43-4.01-1.28-.86-.85-1.3-2.15-1.3-3.89V12.76h-2.15v-3.65h2.15V4.92h5.26Z"/><path class="b" d="M101.38,26c-.19-.34-.35-.85-.5-1.51-.97,1.22-2.32,1.83-4.06,1.83-1.59,0-2.94-.48-4.06-1.44-1.11-.96-1.67-2.17-1.67-3.63,0-1.83,.68-3.22,2.03-4.15,1.35-.94,3.32-1.4,5.9-1.4h1.62v-.89c0-1.56-.67-2.34-2.01-2.34-1.25,0-1.87,.62-1.87,1.85h-5.26c0-1.63,.69-2.96,2.08-3.97,1.39-1.02,3.16-1.53,5.31-1.53s3.86,.53,5.1,1.58c1.25,1.05,1.89,2.49,1.92,4.32v7.48c.02,1.55,.26,2.74,.72,3.56v.27h-5.26Zm-3.29-3.43c.66,0,1.2-.14,1.63-.42,.43-.28,.74-.6,.93-.95v-2.7h-1.53c-1.83,0-2.75,.82-2.75,2.47,0,.48,.16,.87,.48,1.16,.32,.3,.73,.44,1.23,.44Z"/><path class="c" d="M109.07,26V3.28h8.16c2.92,0,5.15,.54,6.67,1.61,1.52,1.07,2.29,2.63,2.29,4.67,0,1.18-.27,2.18-.81,3.01-.54,.83-1.34,1.45-2.39,1.84,1.19,.31,2.1,.89,2.73,1.75,.63,.85,.95,1.89,.95,3.12,0,2.23-.7,3.9-2.11,5.02s-3.5,1.69-6.27,1.71h-9.22Zm5.48-13.25h2.86c1.2,0,2.05-.23,2.56-.66s.76-1.06,.76-1.89c0-.96-.28-1.65-.83-2.07s-1.44-.63-2.67-.63h-2.68v5.26Zm0,3.59v5.45h3.59c.99,0,1.75-.23,2.28-.68,.53-.45,.8-1.09,.8-1.91,0-1.89-.94-2.85-2.83-2.86h-3.84Z"/><path class="c" d="M139.66,13.87l-1.73-.12c-1.65,0-2.71,.52-3.18,1.56v10.69h-5.26V9.11h4.93l.17,2.17c.88-1.65,2.12-2.48,3.7-2.48,.56,0,1.05,.06,1.47,.19l-.09,4.88Z"/><path class="c" d="M150.6,26c-.19-.34-.35-.85-.5-1.51-.97,1.22-2.32,1.83-4.06,1.83-1.59,0-2.94-.48-4.06-1.44-1.11-.96-1.67-2.17-1.67-3.63,0-1.83,.68-3.22,2.03-4.15,1.35-.94,3.32-1.4,5.9-1.4h1.62v-.89c0-1.56-.67-2.34-2.01-2.34-1.25,0-1.87,.62-1.87,1.85h-5.26c0-1.63,.69-2.96,2.08-3.97,1.39-1.02,3.16-1.53,5.31-1.53s3.86,.53,5.1,1.58c1.25,1.05,1.89,2.49,1.92,4.32v7.48c.02,1.55,.26,2.74,.72,3.56v.27h-5.26Zm-3.29-3.43c.66,0,1.2-.14,1.63-.42,.43-.28,.74-.6,.93-.95v-2.7h-1.53c-1.83,0-2.75,.82-2.75,2.47,0,.48,.16,.87,.48,1.16,.32,.3,.73,.44,1.23,.44Z"/><path class="c" d="M158.01,4.74c0-.75,.27-1.37,.81-1.85,.54-.48,1.24-.72,2.11-.72s1.57,.24,2.11,.72c.54,.48,.81,1.1,.81,1.85s-.27,1.37-.81,1.85-1.24,.72-2.11,.72-1.57-.24-2.11-.72-.81-1.1-.81-1.85Zm5.59,21.26h-5.28V9.11h5.28V26Z"/><path class="c" d="M171.67,9.11l.17,1.98c1.17-1.53,2.77-2.29,4.82-2.29,1.76,0,3.07,.53,3.94,1.58,.87,1.05,1.32,2.63,1.35,4.75v10.88h-5.28V15.34c0-.85-.17-1.48-.52-1.88-.34-.4-.97-.6-1.87-.6-1.03,0-1.79,.41-2.29,1.22v11.92h-5.26V9.11h4.93Z"/><path class="c" d="M191.07,21.94h7.69v4.06h-14.34v-2.93l7.49-9.89h-7.16v-4.06h13.84v2.84l-7.52,9.99Z"/></g></svg>