<svg xmlns="http://www.w3.org/2000/svg" viewBox="0 0 579.47 144"><title>MusicBrainz_logo</title><g style="isolation:isolate"><polygon points="66 0 66 144 127 109 127 35 66 0" style="fill:#eb743b"/><polygon points="61 0 0 35 0 109 61 144 61 60 60 59 60 54 61 53 61 41 60 41 60 20 61 19 61 0" style="fill:#ba478f"/><g style="opacity:0.07;mix-blend-mode:multiply"><path d="M65.33,55.86l-27,16V60.21L65.33,44V21.41L32.81,40.68l-.06,0a2.77,2.77,0,0,0-.26.2l-.21.17a2.9,2.9,0,0,0-.19.22c-.06.07-.13.14-.18.22a2.52,2.52,0,0,0-.15.25,2.8,2.8,0,0,0-.13.25c0,.09-.07.18-.1.28a2.76,2.76,0,0,0-.08.27,2.56,2.56,0,0,0,0,.27,3,3,0,0,0,0,.32s0,.05,0,.08V93.82a11,11,0,0,0-8,2c-4.84,3.22-6.48,9.28-4,13s8.19,3.9,13,.68c2.76-1.84,5.38-4.07,6-6.68a10.61,10.61,0,0,0,0-2c0-.14,0-.28,0-.42V78.82l27-16.15Z" transform="translate(-4.35 -2.82)"/></g><path d="M65.35,58.82l-27,16v-12l27-16v-23L32.84,43.51l-.06,0a2.77,2.77,0,0,0-.26.2l-.21.17a2.88,2.88,0,0,0-.19.22c-.06.07-.13.14-.18.22a2.53,2.53,0,0,0-.15.25c0,.08-.1.16-.13.25s-.07.18-.1.28a2.78,2.78,0,0,0-.08.27,2.57,2.57,0,0,0,0,.27,3,3,0,0,0,0,.32s0,.05,0,.08V96.65a11,11,0,0,0-8,2c-4.84,3.22-6.48,9.28-4,13s8.19,3.9,13,.68c2.76-1.84,5.38-4.07,6-6.68a10.61,10.61,0,0,0,0-2c0-.14,0-.28,0-.42l0-21.4,27-16Z" transform="translate(-4.35 -2.82)" style="fill:#9d356d"/><path d="M65.35,55.82l-27,16v-12l27-16v-23L32.81,40.68l-.06,0a2.77,2.77,0,0,0-.26.2l-.21.17a2.9,2.9,0,0,0-.19.22c-.06.07-.13.14-.18.22a2.52,2.52,0,0,0-.15.25,2.8,2.8,0,0,0-.13.25c0,.09-.07.18-.1.28a2.76,2.76,0,0,0-.08.27,2.56,2.56,0,0,0,0,.27,3,3,0,0,0,0,.32s0,.05,0,.08V93.82a11,11,0,0,0-8,2c-4.84,3.22-6.48,9.28-4,13s8.19,3.9,13,.68c2.76-1.84,5.38-4.07,6-6.68a10.61,10.61,0,0,0,0-2c0-.14,0-.28,0-.42V78.82l27-16Z" transform="translate(-4.35 -2.82)" style="fill:#fffedb"/><g style="opacity:0.07;mix-blend-mode:multiply"><path d="M87.66,94.56a2.11,2.11,0,1,1-.23,1.6A2.1,2.1,0,0,1,87.66,94.56Zm12.6,22.36a2.08,2.08,0,0,1-1.37.51,2.11,2.11,0,0,1-1.38-3.72,2.08,2.08,0,0,1,1.37-.51,2.12,2.12,0,0,1,2.11,2.28A2.09,2.09,0,0,1,100.26,116.92Z" transform="translate(-4.35 -2.82)"/><path d="M79.36,48.43l.21,0Z" transform="translate(-4.35 -2.82)"/><path d="M90.73,58.08a2.07,2.07,0,0,1,.67-.66,2.11,2.11,0,1,1,1.11,3.91A2.1,2.1,0,0,1,91.39,61,2.13,2.13,0,0,1,90.73,58.08Zm6.38-20.19a2.14,2.14,0,0,1-2.91.65l-.1-.06a2.11,2.11,0,1,1,3.29-2.17A2.08,2.08,0,0,1,97.11,37.89Z" transform="translate(-4.35 -2.82)"/><path d="M113.88,49.49a2.11,2.11,0,1,1,3.57,2.26,2.14,2.14,0,0,1-2.91.65l-.09-.06A2.1,2.1,0,0,1,113.88,49.49Zm0,23.46a2.11,2.11,0,1,1,3.57,2.26,2.14,2.14,0,0,1-2.91.65l-.09-.06A2.1,2.1,0,0,1,113.88,73Zm0,26.3a2.11,2.11,0,1,1,3.57,2.26,2.14,2.14,0,0,1-2.91.65l-.09-.06A2.11,2.11,0,0,1,113.88,99.26Z" transform="translate(-4.35 -2.82)"/><path d="M103.53,108.93a6.12,6.12,0,0,0-10.72,4.74A19.86,19.86,0,0,1,87.48,115a4,4,0,0,1-2.22-1,10.71,10.71,0,0,0-4.15-1.85A37.64,37.64,0,0,0,89.7,99.34a6.12,6.12,0,1,0-5.48-9.24,6.12,6.12,0,0,0,1.62,8.06c-4.05,9.22-9.22,13.08-12.57,14.68a2,2,0,0,0-.36.17,11.26,11.26,0,0,1-2.56.81v4a12.59,12.59,0,0,0,4.25-1.19c5.35-1.36,6.84-.35,8.41.71A7.88,7.88,0,0,0,87.27,119h.31a23.61,23.61,0,0,0,7-1.72A6.13,6.13,0,0,0,98.89,119h0a6.12,6.12,0,0,0,4.64-10.1ZM87.66,92.15a2.11,2.11,0,1,1-.23,1.6A2.1,2.1,0,0,1,87.66,92.15Zm12.6,22.36a2.08,2.08,0,0,1-1.37.51,2.11,2.11,0,0,1-1.38-3.72,2.08,2.08,0,0,1,1.37-.51,2.12,2.12,0,0,1,2.11,2.28A2.09,2.09,0,0,1,100.26,114.51Z" transform="translate(-4.35 -2.82)"/><path d="M79.36,46l.21,0Z" transform="translate(-4.35 -2.82)"/><path d="M101.3,33a6.12,6.12,0,1,0-11,4.82,13.35,13.35,0,0,1-9.94,4.29,29.15,29.15,0,0,0-10-2.32v4A24.8,24.8,0,0,1,79.1,46h0a21.59,21.59,0,0,1,8.61,7,6.32,6.32,0,0,0-.38.54,6.12,6.12,0,1,0,8.45-1.91,6.22,6.22,0,0,0-4.67-.75,26,26,0,0,0-5.34-5.57,16.35,16.35,0,0,0,7.78-5.1,6.15,6.15,0,0,0,1.77.27,6.13,6.13,0,0,0,6-7.45ZM90.73,55.67a2.07,2.07,0,0,1,.67-.66,2.11,2.11,0,1,1,1.11,3.91,2.1,2.1,0,0,1-1.12-.33A2.13,2.13,0,0,1,90.73,55.67Zm6.38-20.19a2.14,2.14,0,0,1-2.91.65l-.1-.06a2.11,2.11,0,1,1,3.29-2.17A2.08,2.08,0,0,1,97.11,35.49Z" transform="translate(-4.35 -2.82)"/><path d="M110,74a6,6,0,0,0,2.11,2.65l.28.19a6.12,6.12,0,1,0,3.27-11.29l-.37,0a25.73,25.73,0,0,1,0-11.26l.34,0a6.12,6.12,0,1,0-4.15-1.63l.07.06a28.65,28.65,0,0,0,0,14.42c-.14.13-.29.25-.43.4a6.24,6.24,0,0,0-.63.82,6.16,6.16,0,0,0-.71,1.58A15.2,15.2,0,0,0,103,72.72c-2,1.32-4,2.57-9.64,2.67A32.64,32.64,0,0,0,88,75.27c-1.43.05-2.91.11-4.85,0-1.33-.07-2.1-.88-3.46-2.42-1.8-2.05-4.22-4.65-9.37-5v4c3.29.3,4.8,1.89,6.36,3.67s3.17,3.62,6.26,3.78c2.12.11,3.76.05,5.21,0A24.22,24.22,0,0,1,96,80c2.61.64,12.1,9.67,14.77,14.32-.11.14-.22.28-.31.43a6.1,6.1,0,0,0,1.62,8.25l.28.19a6.12,6.12,0,1,0,3.27-11.29,6.18,6.18,0,0,0-1.54.2c-2.56-4.19-8.65-10.46-13.19-13.79a18.18,18.18,0,0,0,4.21-2.19A11.31,11.31,0,0,1,110,74Zm3.88-26.92a2.11,2.11,0,1,1,3.57,2.26,2.14,2.14,0,0,1-2.91.65l-.09-.06A2.1,2.1,0,0,1,113.88,47.09Zm0,23.46a2.11,2.11,0,1,1,3.57,2.26,2.14,2.14,0,0,1-2.91.65l-.09-.06A2.1,2.1,0,0,1,113.88,70.55Zm0,26.3a2.11,2.11,0,1,1,3.57,2.26,2.14,2.14,0,0,1-2.91.65l-.09-.06A2.11,2.11,0,0,1,113.88,96.85Z" transform="translate(-4.35 -2.82)"/></g><path d="M103.53,111.93a6.12,6.12,0,0,0-10.72,4.74A19.86,19.86,0,0,1,87.48,118a4,4,0,0,1-2.22-1,10.71,10.71,0,0,0-4.15-1.85,37.64,37.64,0,0,0,8.58-12.83,6.12,6.12,0,1,0-5.48-9.24,6.12,6.12,0,0,0,1.62,8.06c-4.05,9.22-9.22,13.08-12.57,14.68a2,2,0,0,0-.36.17,11.26,11.26,0,0,1-2.56.81v4a12.59,12.59,0,0,0,4.25-1.19c5.35-1.36,6.84-.35,8.41.71A7.88,7.88,0,0,0,87.27,122h.31a23.61,23.61,0,0,0,7-1.72A6.13,6.13,0,0,0,98.89,122h0a6.12,6.12,0,0,0,4.64-10.1ZM87.66,95.15a2.11,2.11,0,1,1-.23,1.6A2.1,2.1,0,0,1,87.66,95.15Zm12.6,22.36a2.08,2.08,0,0,1-1.37.51,2.11,2.11,0,0,1-1.38-3.72,2.08,2.08,0,0,1,1.37-.51,2.12,2.12,0,0,1,2.11,2.28A2.09,2.09,0,0,1,100.26,117.51Z" transform="translate(-4.35 -2.82)" style="fill:#d3562c"/><path d="M79.36,48.43l.21,0Z" transform="translate(-4.35 -2.82)"/><path d="M101.3,36a6.12,6.12,0,1,0-11,4.82,13.35,13.35,0,0,1-9.94,4.29,29.15,29.15,0,0,0-10-2.32v4A24.81,24.81,0,0,1,79.1,49h0a21.59,21.59,0,0,1,8.61,7,6.32,6.32,0,0,0-.38.54,6.12,6.12,0,1,0,8.45-1.91,6.22,6.22,0,0,0-4.67-.75,26,26,0,0,0-5.34-5.57,16.35,16.35,0,0,0,7.78-5.1,6.15,6.15,0,0,0,1.77.27,6.13,6.13,0,0,0,6-7.45ZM90.73,58.68a2.07,2.07,0,0,1,.67-.66,2.11,2.11,0,1,1,1.11,3.91,2.1,2.1,0,0,1-1.12-.33A2.13,2.13,0,0,1,90.73,58.68Zm6.38-20.19a2.14,2.14,0,0,1-2.91.65l-.1-.06a2.11,2.11,0,1,1,3.29-2.17A2.08,2.08,0,0,1,97.11,38.49Z" transform="translate(-4.35 -2.82)" style="fill:#d3562c"/><path d="M110,77a6,6,0,0,0,2.11,2.65l.28.19a6.12,6.12,0,1,0,3.27-11.29l-.37,0a25.73,25.73,0,0,1,0-11.26l.34,0a6.12,6.12,0,1,0-4.15-1.63l.07.06a28.65,28.65,0,0,0,0,14.42c-.14.13-.29.25-.43.4a6.24,6.24,0,0,0-.63.82,6.16,6.16,0,0,0-.71,1.58A15.2,15.2,0,0,0,103,75.72c-2,1.32-4,2.57-9.64,2.67A32.64,32.64,0,0,0,88,78.27c-1.43.05-2.91.11-4.85,0-1.33-.07-2.1-.88-3.46-2.42-1.8-2.05-4.22-4.65-9.37-5v4c3.29.3,4.8,1.89,6.36,3.67s3.17,3.62,6.26,3.78c2.12.11,3.76.05,5.21,0A24.22,24.22,0,0,1,96,83c2.61.64,12.1,9.67,14.77,14.32-.11.14-.22.28-.31.43a6.1,6.1,0,0,0,1.62,8.25l.28.19a6.12,6.12,0,1,0,3.27-11.29,6.18,6.18,0,0,0-1.54.2c-2.56-4.19-8.65-10.46-13.19-13.79a18.18,18.18,0,0,0,4.21-2.19A11.31,11.31,0,0,1,110,77Zm3.88-26.92a2.11,2.11,0,1,1,3.57,2.26,2.14,2.14,0,0,1-2.91.65l-.09-.06A2.1,2.1,0,0,1,113.88,50.09Zm0,23.46a2.11,2.11,0,1,1,3.57,2.26,2.14,2.14,0,0,1-2.91.65l-.09-.06A2.1,2.1,0,0,1,113.88,73.55Zm0,26.3a2.11,2.11,0,1,1,3.57,2.26,2.14,2.14,0,0,1-2.91.65l-.09-.06A2.11,2.11,0,0,1,113.88,99.85Z" transform="translate(-4.35 -2.82)" style="fill:#d3562c"/><path d="M103.53,108.93a6.12,6.12,0,0,0-10.72,4.74A19.86,19.86,0,0,1,87.48,115a4,4,0,0,1-2.22-1,10.71,10.71,0,0,0-4.15-1.85A37.64,37.64,0,0,0,89.7,99.34a6.12,6.12,0,1,0-5.48-9.24,6.12,6.12,0,0,0,1.62,8.06c-4.05,9.22-9.22,13.08-12.57,14.68a2,2,0,0,0-.36.17,11.26,11.26,0,0,1-2.56.81v4a12.59,12.59,0,0,0,4.25-1.19c5.35-1.36,6.84-.35,8.41.71A7.88,7.88,0,0,0,87.27,119h.31a23.61,23.61,0,0,0,7-1.72A6.13,6.13,0,0,0,98.89,119h0a6.12,6.12,0,0,0,4.64-10.1ZM87.66,92.15a2.11,2.11,0,1,1-.23,1.6A2.1,2.1,0,0,1,87.66,92.15Zm12.6,22.36a2.08,2.08,0,0,1-1.37.51,2.11,2.11,0,0,1-1.38-3.72,2.08,2.08,0,0,1,1.37-.51,2.12,2.12,0,0,1,2.11,2.28A2.09,2.09,0,0,1,100.26,114.51Z" transform="translate(-4.35 -2.82)" style="fill:#fffedb"/><path d="M79.36,46l.21,0Z" transform="translate(-4.35 -2.82)" style="fill:#fffedb"/><path d="M101.3,33a6.12,6.12,0,1,0-11,4.82,13.35,13.35,0,0,1-9.94,4.29,29.15,29.15,0,0,0-10-2.32v4A24.8,24.8,0,0,1,79.1,46h0a21.59,21.59,0,0,1,8.61,7,6.32,6.32,0,0,0-.38.54,6.12,6.12,0,1,0,8.45-1.91,6.22,6.22,0,0,0-4.67-.75,26,26,0,0,0-5.34-5.57,16.35,16.35,0,0,0,7.78-5.1,6.15,6.15,0,0,0,1.77.27,6.13,6.13,0,0,0,6-7.45ZM90.73,55.67a2.07,2.07,0,0,1,.67-.66,2.11,2.11,0,1,1,1.11,3.91,2.1,2.1,0,0,1-1.12-.33A2.13,2.13,0,0,1,90.73,55.67Zm6.38-20.19a2.14,2.14,0,0,1-2.91.65l-.1-.06a2.11,2.11,0,1,1,3.29-2.17A2.08,2.08,0,0,1,97.11,35.49Z" transform="translate(-4.35 -2.82)" style="fill:#fffedb"/><path d="M110,74a6,6,0,0,0,2.11,2.65l.28.19a6.12,6.12,0,1,0,3.27-11.29l-.37,0a25.73,25.73,0,0,1,0-11.26l.34,0a6.12,6.12,0,1,0-4.15-1.63l.07.06a28.65,28.65,0,0,0,0,14.42c-.14.13-.29.25-.43.4a6.24,6.24,0,0,0-.63.82,6.16,6.16,0,0,0-.71,1.58A15.2,15.2,0,0,0,103,72.72c-2,1.32-4,2.57-9.64,2.67A32.64,32.64,0,0,0,88,75.27c-1.43.05-2.91.11-4.85,0-1.33-.07-2.1-.88-3.46-2.42-1.8-2.05-4.22-4.65-9.37-5v4c3.29.3,4.8,1.89,6.36,3.67s3.17,3.62,6.26,3.78c2.12.11,3.76.05,5.21,0A24.22,24.22,0,0,1,96,80c2.61.64,12.1,9.67,14.77,14.32-.11.14-.22.28-.31.43a6.1,6.1,0,0,0,1.62,8.25l.28.19a6.12,6.12,0,1,0,3.27-11.29,6.18,6.18,0,0,0-1.54.2c-2.56-4.19-8.65-10.46-13.19-13.79a18.18,18.18,0,0,0,4.21-2.19A11.31,11.31,0,0,1,110,74Zm3.88-26.92a2.11,2.11,0,1,1,3.57,2.26,2.14,2.14,0,0,1-2.91.65l-.09-.06A2.1,2.1,0,0,1,113.88,47.09Zm0,23.46a2.11,2.11,0,1,1,3.57,2.26,2.14,2.14,0,0,1-2.91.65l-.09-.06A2.1,2.1,0,0,1,113.88,70.55Zm0,26.3a2.11,2.11,0,1,1,3.57,2.26,2.14,2.14,0,0,1-2.91.65l-.09-.06A2.11,2.11,0,0,1,113.88,96.85Z" transform="translate(-4.35 -2.82)" style="fill:#fffedb"/><path d="M173.56,48.08l12.22,38.09L198,48.08h17.37v54.74H202.09V90l1.28-26.17-13.23,39h-8.72l-13.27-39L169.42,90v12.78h-13.2V48.08Z" transform="translate(-4.35 -2.82)" style="fill:#ba478f"/><path d="M247.36,98.42a13.5,13.5,0,0,1-4.62,3.8,13.78,13.78,0,0,1-6.24,1.35,17.1,17.1,0,0,1-5.51-.85,10.71,10.71,0,0,1-4.29-2.67,12.38,12.38,0,0,1-2.78-4.7,21.14,21.14,0,0,1-1-6.9V62.14h12.67V88.53a5.39,5.39,0,0,0,1.3,4,5.16,5.16,0,0,0,3.78,1.28,7.88,7.88,0,0,0,3.85-.83,6.16,6.16,0,0,0,2.35-2.29V62.14h12.75v40.68H247.74Z" transform="translate(-4.35 -2.82)" style="fill:#ba478f"/><path d="M287.85,91.39A2.68,2.68,0,0,0,287.5,90a3.57,3.57,0,0,0-1.26-1.15,11.62,11.62,0,0,0-2.44-1q-1.54-.49-3.91-1a35.35,35.35,0,0,1-5.58-1.67,18,18,0,0,1-4.55-2.56,11.39,11.39,0,0,1-3-3.59,9.86,9.86,0,0,1-1.11-4.74,11.33,11.33,0,0,1,1.11-4.93,12,12,0,0,1,3.25-4.1,16.2,16.2,0,0,1,5.26-2.8,22.55,22.55,0,0,1,7.11-1,26.13,26.13,0,0,1,7.41,1,17.42,17.42,0,0,1,5.62,2.73,12.13,12.13,0,0,1,3.55,4.17,11.6,11.6,0,0,1,1.24,5.36H287.44A5.17,5.17,0,0,0,286.27,71q-1.17-1.28-4-1.28a5.72,5.72,0,0,0-1.82.28,4.82,4.82,0,0,0-1.49.79A3.82,3.82,0,0,0,278,72a3.34,3.34,0,0,0-.38,1.58,3.14,3.14,0,0,0,1.6,2.71A14.87,14.87,0,0,0,284.36,78a50.74,50.74,0,0,1,5.92,1.45,18.8,18.8,0,0,1,5,2.37,11.42,11.42,0,0,1,3.48,3.7,10.65,10.65,0,0,1,1.3,5.45,10.33,10.33,0,0,1-1.24,5,11.83,11.83,0,0,1-3.55,4,18.12,18.12,0,0,1-5.58,2.63,26.17,26.17,0,0,1-7.37,1,22.4,22.4,0,0,1-7.76-1.24,18,18,0,0,1-5.64-3.21,13.53,13.53,0,0,1-3.44-4.44,11.38,11.38,0,0,1-1.17-4.91h11.84A4.89,4.89,0,0,0,278,93.89a7.73,7.73,0,0,0,4.63,1.3,6.08,6.08,0,0,0,3.89-1.05A3.36,3.36,0,0,0,287.85,91.39Z" transform="translate(-4.35 -2.82)" style="fill:#ba478f"/><path d="M305.9,51.65a6,6,0,0,1,.51-2.48,5.68,5.68,0,0,1,1.45-2,6.69,6.69,0,0,1,2.22-1.28,9.27,9.27,0,0,1,5.71,0A6.7,6.7,0,0,1,318,47.21a5.69,5.69,0,0,1,1.45,2,6.32,6.32,0,0,1,0,5,5.68,5.68,0,0,1-1.45,2,6.69,6.69,0,0,1-2.22,1.28,9.27,9.27,0,0,1-5.71,0,6.67,6.67,0,0,1-2.22-1.28,5.67,5.67,0,0,1-1.45-2A6,6,0,0,1,305.9,51.65Zm13.46,51.17H306.65V62.14h12.71Z" transform="translate(-4.35 -2.82)" style="fill:#ba478f"/><path d="M344.36,93.79a5.64,5.64,0,0,0,4.14-1.45,5.31,5.31,0,0,0,1.43-4h11.88a14.73,14.73,0,0,1-1.3,6.26,14.35,14.35,0,0,1-3.59,4.81,16.16,16.16,0,0,1-5.45,3.1,20.72,20.72,0,0,1-6.8,1.09,20.49,20.49,0,0,1-8.35-1.58,16.61,16.61,0,0,1-6-4.34,18.41,18.41,0,0,1-3.59-6.54,26.79,26.79,0,0,1-1.2-8.18v-.87a27,27,0,0,1,1.2-8.2,18.54,18.54,0,0,1,3.57-6.56A16.48,16.48,0,0,1,336.26,63a20.26,20.26,0,0,1,8.29-1.58,21.48,21.48,0,0,1,7,1.09A15.29,15.29,0,0,1,357,65.65a14.23,14.23,0,0,1,3.53,5.13,18,18,0,0,1,1.26,6.92H349.93a9.93,9.93,0,0,0-.32-2.56,5.56,5.56,0,0,0-1-2.09,5,5,0,0,0-1.79-1.39,5.87,5.87,0,0,0-2.54-.51,5.12,5.12,0,0,0-3.14.88,5.69,5.69,0,0,0-1.82,2.37,11.9,11.9,0,0,0-.85,3.48,40.53,40.53,0,0,0-.21,4.17v.87a40.73,40.73,0,0,0,.21,4.23,11.87,11.87,0,0,0,.85,3.46,5.32,5.32,0,0,0,1.86,2.33A5.54,5.54,0,0,0,344.36,93.79Z" transform="translate(-4.35 -2.82)" style="fill:#ba478f"/><path d="M367.75,102.82V48.08h19.66a40.7,40.7,0,0,1,9.08.92,20,20,0,0,1,6.79,2.8,12.65,12.65,0,0,1,4.25,4.72A14.36,14.36,0,0,1,409,63.19a15.72,15.72,0,0,1-.41,3.63,11.57,11.57,0,0,1-1.33,3.29,10.78,10.78,0,0,1-2.39,2.76,12.2,12.2,0,0,1-3.57,2,12.58,12.58,0,0,1,4.14,1.84,10.7,10.7,0,0,1,2.74,2.78,11.08,11.08,0,0,1,1.52,3.4,14.82,14.82,0,0,1,.47,3.7q0,8.12-5.19,12.16t-15.38,4Zm13.2-31.92h6.88q4.32,0,6.17-1.58a5.59,5.59,0,0,0,1.84-4.55q0-3.46-2-5t-6.43-1.52h-6.47Zm0,8.65V92.67h8.65a10.43,10.43,0,0,0,3.4-.49,6.19,6.19,0,0,0,2.29-1.33,5.17,5.17,0,0,0,1.3-2,7,7,0,0,0,.41-2.44,10.14,10.14,0,0,0-.38-2.86,5.31,5.31,0,0,0-1.2-2.16A5.5,5.5,0,0,0,393.28,80a9.23,9.23,0,0,0-3.2-.49Z" transform="translate(-4.35 -2.82)" style="fill:#eb743b"/><path d="M441.44,73.6l-.92-.09-1.13-.09-1.15-.08q-.56,0-1,0a11.24,11.24,0,0,0-4.92.92,5.65,5.65,0,0,0-2.75,2.84v25.75H416.93V62.14h11.88l.41,5.23A12.38,12.38,0,0,1,433,63a8.74,8.74,0,0,1,5.17-1.58,15.5,15.5,0,0,1,1.86.11,10.23,10.23,0,0,1,1.67.34Z" transform="translate(-4.35 -2.82)" style="fill:#eb743b"/><path d="M467.79,102.82a8.73,8.73,0,0,1-.7-1.67q-.28-.92-.51-2a11.67,11.67,0,0,1-9.78,4.4,15.55,15.55,0,0,1-5.32-.9,14,14,0,0,1-4.38-2.5,11.87,11.87,0,0,1-3-3.85,11.1,11.1,0,0,1-1.11-5,13.3,13.3,0,0,1,1.15-5.64,10.68,10.68,0,0,1,3.5-4.19,17.32,17.32,0,0,1,5.94-2.63,34.58,34.58,0,0,1,8.52-.92H466V75.82a6.69,6.69,0,0,0-1.13-4.1,4.36,4.36,0,0,0-3.72-1.5,4.72,4.72,0,0,0-3.35,1.09,4.38,4.38,0,0,0-1.17,3.35H444a11.32,11.32,0,0,1,1.26-5.26,12.35,12.35,0,0,1,3.59-4.21,18,18,0,0,1,5.62-2.78,24.9,24.9,0,0,1,7.35-1,24.08,24.08,0,0,1,6.75.9A15.15,15.15,0,0,1,473.92,65a12.67,12.67,0,0,1,3.53,4.55,14.77,14.77,0,0,1,1.28,6.33V92.55q0,2,.11,3.46a21.24,21.24,0,0,0,.34,2.58,13.34,13.34,0,0,0,.54,2,12,12,0,0,0,.73,1.62v.64Zm-7.93-8.27a7.06,7.06,0,0,0,3.93-1A6.35,6.35,0,0,0,466,91.24v-6.5h-4a8.08,8.08,0,0,0-3,.49,5.07,5.07,0,0,0-2,1.32,5,5,0,0,0-1.05,1.9,7.75,7.75,0,0,0-.32,2.24,3.63,3.63,0,0,0,1.17,2.8A4.22,4.22,0,0,0,459.86,94.55Z" transform="translate(-4.35 -2.82)" style="fill:#eb743b"/><path d="M485.65,51.65a6,6,0,0,1,.51-2.48,5.68,5.68,0,0,1,1.45-2,6.69,6.69,0,0,1,2.22-1.28,9.27,9.27,0,0,1,5.71,0,6.7,6.7,0,0,1,2.22,1.28,5.69,5.69,0,0,1,1.45,2,6.32,6.32,0,0,1,0,5,5.68,5.68,0,0,1-1.45,2,6.69,6.69,0,0,1-2.22,1.28,9.27,9.27,0,0,1-5.71,0,6.67,6.67,0,0,1-2.22-1.28,5.67,5.67,0,0,1-1.45-2A6,6,0,0,1,485.65,51.65Zm13.46,51.17H486.41V62.14h12.71Z" transform="translate(-4.35 -2.82)" style="fill:#eb743b"/><path d="M518.55,62.14l.41,4.77a13.66,13.66,0,0,1,5-4.12,15.11,15.11,0,0,1,6.6-1.41,15.81,15.81,0,0,1,5.17.81,9.61,9.61,0,0,1,4,2.67,12.6,12.6,0,0,1,2.61,4.89,26,26,0,0,1,.92,7.46v25.6H530.62V77.18a9.55,9.55,0,0,0-.39-3,4.34,4.34,0,0,0-1.13-1.84,3.87,3.87,0,0,0-1.8-.92,11,11,0,0,0-2.42-.24,6.51,6.51,0,0,0-3.37.79,6.2,6.2,0,0,0-2.16,2.14v28.72H506.67V62.14Z" transform="translate(-4.35 -2.82)" style="fill:#eb743b"/><path d="M565.29,93h18.54v9.78H549.27V95.75l18-23.84H550.06V62.14h33.35V69Z" transform="translate(-4.35 -2.82)" style="fill:#eb743b"/></g></svg>