<?xml version="1.0" encoding="UTF-8"?><svg id="a" xmlns="http://www.w3.org/2000/svg" viewBox="0 0 215.31 30"><defs><style>.b{fill:#eb743b;}.c{fill:#ba478f;}</style></defs><g><polygon class="c" points="14 1 2 8 2 22 14 29 14 1"/><polygon class="b" points="15 1 27 8 27 22 15 29 15 1"/></g><g><path class="c" d="M42.91,4.28l5.07,15.81,5.06-15.81h7.21V27h-5.49v-5.31l.53-10.86-5.49,16.17h-3.62l-5.51-16.18,.53,10.88v5.31h-5.48V4.28h7.2Z"/><path class="c" d="M73.55,25.17c-1.11,1.43-2.62,2.14-4.51,2.14s-3.25-.54-4.21-1.62c-.95-1.08-1.43-2.62-1.43-4.64V10.11h5.26v10.97c0,1.45,.7,2.17,2.11,2.17,1.21,0,2.07-.43,2.58-1.29V10.11h5.29V27h-4.93l-.16-1.83Z"/><path class="c" d="M90.36,22.26c0-.45-.23-.81-.7-1.08-.47-.27-1.36-.55-2.67-.84-1.31-.29-2.39-.67-3.25-1.15-.85-.47-1.5-1.05-1.95-1.72-.45-.68-.67-1.45-.67-2.33,0-1.55,.64-2.83,1.92-3.83,1.28-1,2.95-1.51,5.03-1.51,2.23,0,4.02,.5,5.37,1.51,1.35,1.01,2.03,2.34,2.03,3.98h-5.28c0-1.35-.71-2.03-2.14-2.03-.55,0-1.01,.15-1.39,.46-.37,.31-.56,.69-.56,1.15s.23,.85,.69,1.14,1.19,.53,2.19,.72c1,.19,1.89,.41,2.64,.67,2.54,.87,3.81,2.44,3.81,4.7,0,1.54-.68,2.79-2.05,3.76s-3.14,1.45-5.31,1.45c-1.45,0-2.74-.26-3.87-.78-1.13-.52-2.02-1.23-2.65-2.12s-.95-1.84-.95-2.83h4.92c.02,.78,.28,1.35,.78,1.71,.5,.36,1.14,.54,1.92,.54,.72,0,1.26-.15,1.62-.44,.36-.29,.54-.67,.54-1.14Z"/><path class="c" d="M97.85,5.74c0-.75,.27-1.37,.81-1.85,.54-.48,1.24-.72,2.11-.72s1.57,.24,2.11,.72c.54,.48,.81,1.1,.81,1.85s-.27,1.37-.81,1.85-1.24,.72-2.11,.72-1.57-.24-2.11-.72-.81-1.1-.81-1.85Zm5.59,21.26h-5.28V10.11h5.28V27Z"/><path class="c" d="M113.82,23.25c.74,0,1.31-.2,1.72-.6,.41-.4,.6-.96,.59-1.68h4.93c0,1.85-.66,3.37-1.99,4.56-1.33,1.19-3.04,1.78-5.13,1.78-2.46,0-4.39-.77-5.81-2.31-1.42-1.54-2.12-3.67-2.12-6.4v-.22c0-1.71,.31-3.21,.94-4.52,.63-1.31,1.54-2.31,2.72-3.01,1.19-.7,2.59-1.05,4.21-1.05,2.2,0,3.94,.61,5.23,1.83,1.29,1.22,1.93,2.87,1.93,4.95h-4.93c0-.87-.21-1.54-.64-2.01-.43-.47-1-.7-1.72-.7-1.36,0-2.16,.87-2.39,2.61-.07,.55-.11,1.31-.11,2.28,0,1.7,.2,2.87,.61,3.53,.41,.66,1.05,.98,1.94,.98Z"/><path class="b" d="M123.52,27V4.28h8.16c2.92,0,5.15,.54,6.67,1.61,1.52,1.07,2.29,2.63,2.29,4.67,0,1.18-.27,2.18-.81,3.01-.54,.83-1.34,1.45-2.39,1.84,1.19,.31,2.1,.89,2.73,1.75,.63,.85,.95,1.89,.95,3.12,0,2.23-.7,3.9-2.11,5.02s-3.5,1.69-6.27,1.71h-9.22Zm5.48-13.25h2.86c1.2,0,2.05-.23,2.56-.66s.76-1.06,.76-1.89c0-.96-.28-1.65-.83-2.07s-1.44-.63-2.67-.63h-2.68v5.26Zm0,3.59v5.45h3.59c.99,0,1.75-.23,2.28-.68,.53-.45,.8-1.09,.8-1.91,0-1.89-.94-2.85-2.83-2.86h-3.84Z"/><path class="b" d="M154.11,14.87l-1.73-.12c-1.65,0-2.71,.52-3.18,1.56v10.69h-5.26V10.11h4.93l.17,2.17c.88-1.65,2.12-2.48,3.7-2.48,.56,0,1.05,.06,1.47,.19l-.09,4.88Z"/><path class="b" d="M165.05,27c-.19-.34-.35-.85-.5-1.51-.97,1.22-2.32,1.83-4.06,1.83-1.59,0-2.94-.48-4.06-1.44-1.11-.96-1.67-2.17-1.67-3.63,0-1.83,.68-3.22,2.03-4.15,1.35-.94,3.32-1.4,5.9-1.4h1.62v-.89c0-1.56-.67-2.34-2.01-2.34-1.25,0-1.87,.62-1.87,1.85h-5.26c0-1.63,.69-2.96,2.08-3.97,1.39-1.02,3.16-1.53,5.31-1.53s3.86,.53,5.1,1.58c1.25,1.05,1.89,2.49,1.92,4.32v7.48c.02,1.55,.26,2.74,.72,3.56v.27h-5.26Zm-3.29-3.43c.66,0,1.2-.14,1.63-.42,.43-.28,.74-.6,.93-.95v-2.7h-1.53c-1.83,0-2.75,.82-2.75,2.47,0,.48,.16,.87,.48,1.16,.32,.3,.73,.44,1.23,.44Z"/><path class="b" d="M172.47,5.74c0-.75,.27-1.37,.81-1.85,.54-.48,1.24-.72,2.11-.72s1.57,.24,2.11,.72c.54,.48,.81,1.1,.81,1.85s-.27,1.37-.81,1.85-1.24,.72-2.11,.72-1.57-.24-2.11-.72-.81-1.1-.81-1.85Zm5.59,21.26h-5.28V10.11h5.28V27Z"/><path class="b" d="M186.12,10.11l.17,1.98c1.17-1.53,2.77-2.29,4.82-2.29,1.76,0,3.07,.53,3.94,1.58,.87,1.05,1.32,2.63,1.35,4.75v10.88h-5.28v-10.66c0-.85-.17-1.48-.52-1.88-.34-.4-.97-.6-1.87-.6-1.03,0-1.79,.41-2.29,1.22v11.92h-5.26V10.11h4.93Z"/><path class="b" d="M205.52,22.94h7.69v4.06h-14.34v-2.93l7.49-9.89h-7.16v-4.06h13.84v2.84l-7.52,9.99Z"/></g></svg>