<svg xmlns="http://www.w3.org/2000/svg" viewBox="0 0 365.17 144"><title>Picard_logo</title><g style="isolation:isolate"><polygon points="66 0 66 144 127 109 127 35 66 0" style="fill:#eb743b"/><polygon points="61 0 0 35 0 109 61 144 61 0" style="fill:#771b85"/><path d="M41.81,45.3,23.84,54l-9.75,52.41L31.26,102l14.45,10.24,9.75-52.41ZM38.25,63.81a5.57,5.57,0,1,1,6.49-4.46A5.57,5.57,0,0,1,38.25,63.81Z" transform="translate(-4.35 -2.82)" style="fill:#591463"/><path d="M65.39,42.23l-.62-.14C59,40.74,48.33,38.26,40.6,50.89A7.54,7.54,0,0,0,31.83,57a7.57,7.57,0,1,0,12.39-4.33c6.21-9.77,14.26-7.9,19.65-6.64l1.52.34ZM42.78,59a3.57,3.57,0,0,1-7-1.31,3.56,3.56,0,0,1,3.5-2.92,3.67,3.67,0,0,1,.66.06A3.58,3.58,0,0,1,42.78,59Z" transform="translate(-4.35 -2.82)" style="fill:#591463"/><path d="M41.81,42.9l-18,8.66L14.09,104l17.17-4.35,14.45,10.24,9.75-52.41ZM38.25,61.4a5.57,5.57,0,1,1,6.49-4.46A5.57,5.57,0,0,1,38.25,61.4Z" transform="translate(-4.35 -2.82)" style="fill:#b66bc2"/><path d="M65.39,39.82l-.62-.14C59,38.33,48.33,35.85,40.6,48.48a7.54,7.54,0,0,0-8.76,6.06,7.57,7.57,0,1,0,12.39-4.33c6.21-9.77,14.26-7.9,19.65-6.64l1.52.34ZM42.78,56.58a3.57,3.57,0,0,1-7-1.31,3.56,3.56,0,0,1,3.5-2.92,3.66,3.66,0,0,1,.66.06A3.58,3.58,0,0,1,42.78,56.58Z" transform="translate(-4.35 -2.82)" style="fill:#fffedb"/><g style="opacity:0.07;mix-blend-mode:multiply"><path d="M87.66,94.56a2.11,2.11,0,1,1-.23,1.6A2.1,2.1,0,0,1,87.66,94.56Zm12.6,22.36a2.08,2.08,0,0,1-1.37.51,2.11,2.11,0,0,1-1.38-3.72,2.08,2.08,0,0,1,1.37-.51,2.12,2.12,0,0,1,2.11,2.28A2.09,2.09,0,0,1,100.26,116.92Z" transform="translate(-4.35 -2.82)"/><path d="M79.36,48.43l.21,0Z" transform="translate(-4.35 -2.82)"/><path d="M90.73,58.08a2.07,2.07,0,0,1,.67-.66,2.11,2.11,0,1,1,1.11,3.91A2.1,2.1,0,0,1,91.39,61,2.13,2.13,0,0,1,90.73,58.08Zm6.38-20.19a2.14,2.14,0,0,1-2.91.65l-.1-.06a2.11,2.11,0,1,1,3.29-2.17A2.08,2.08,0,0,1,97.11,37.89Z" transform="translate(-4.35 -2.82)"/><path d="M113.88,49.49a2.11,2.11,0,1,1,3.57,2.26,2.14,2.14,0,0,1-2.91.65l-.09-.06A2.1,2.1,0,0,1,113.88,49.49Zm0,23.46a2.11,2.11,0,1,1,3.57,2.26,2.14,2.14,0,0,1-2.91.65l-.09-.06A2.1,2.1,0,0,1,113.88,73Zm0,26.3a2.11,2.11,0,1,1,3.57,2.26,2.14,2.14,0,0,1-2.91.65l-.09-.06A2.11,2.11,0,0,1,113.88,99.26Z" transform="translate(-4.35 -2.82)"/><path d="M103.53,108.93a6.12,6.12,0,0,0-10.72,4.74A19.86,19.86,0,0,1,87.48,115a4,4,0,0,1-2.22-1,10.71,10.71,0,0,0-4.15-1.85A37.64,37.64,0,0,0,89.7,99.34a6.12,6.12,0,1,0-5.48-9.24,6.12,6.12,0,0,0,1.62,8.06c-4.05,9.22-9.22,13.08-12.57,14.68a2,2,0,0,0-.36.17,11.26,11.26,0,0,1-2.56.81v4a12.59,12.59,0,0,0,4.25-1.19c5.35-1.36,6.84-.35,8.41.71A7.88,7.88,0,0,0,87.27,119h.31a23.61,23.61,0,0,0,7-1.72A6.13,6.13,0,0,0,98.89,119h0a6.12,6.12,0,0,0,4.64-10.1ZM87.66,92.15a2.11,2.11,0,1,1-.23,1.6A2.1,2.1,0,0,1,87.66,92.15Zm12.6,22.36a2.08,2.08,0,0,1-1.37.51,2.11,2.11,0,0,1-1.38-3.72,2.08,2.08,0,0,1,1.37-.51,2.12,2.12,0,0,1,2.11,2.28A2.09,2.09,0,0,1,100.26,114.51Z" transform="translate(-4.35 -2.82)"/><path d="M79.36,46l.21,0Z" transform="translate(-4.35 -2.82)"/><path d="M101.3,33a6.12,6.12,0,1,0-11,4.82,13.35,13.35,0,0,1-9.94,4.29,29.15,29.15,0,0,0-10-2.32v4A24.8,24.8,0,0,1,79.1,46h0a21.59,21.59,0,0,1,8.61,7,6.32,6.32,0,0,0-.38.54,6.12,6.12,0,1,0,8.45-1.91,6.22,6.22,0,0,0-4.67-.75,26,26,0,0,0-5.34-5.57,16.35,16.35,0,0,0,7.78-5.1,6.15,6.15,0,0,0,1.77.27,6.13,6.13,0,0,0,6-7.45ZM90.73,55.67a2.07,2.07,0,0,1,.67-.66,2.11,2.11,0,1,1,1.11,3.91,2.1,2.1,0,0,1-1.12-.33A2.13,2.13,0,0,1,90.73,55.67Zm6.38-20.19a2.14,2.14,0,0,1-2.91.65l-.1-.06a2.11,2.11,0,1,1,3.29-2.17A2.08,2.08,0,0,1,97.11,35.49Z" transform="translate(-4.35 -2.82)"/><path d="M110,74a6,6,0,0,0,2.11,2.65l.28.19a6.12,6.12,0,1,0,3.27-11.29l-.37,0a25.73,25.73,0,0,1,0-11.26l.34,0a6.12,6.12,0,1,0-4.15-1.63l.07.06a28.65,28.65,0,0,0,0,14.42c-.14.13-.29.25-.43.4a6.24,6.24,0,0,0-.63.82,6.16,6.16,0,0,0-.71,1.58A15.2,15.2,0,0,0,103,72.72c-2,1.32-4,2.57-9.64,2.67A32.64,32.64,0,0,0,88,75.27c-1.43.05-2.91.11-4.85,0-1.33-.07-2.1-.88-3.46-2.42-1.8-2.05-4.22-4.65-9.37-5v4c3.29.3,4.8,1.89,6.36,3.67s3.17,3.62,6.26,3.78c2.12.11,3.76.05,5.21,0A24.22,24.22,0,0,1,96,80c2.61.64,12.1,9.67,14.77,14.32-.11.14-.22.28-.31.43a6.1,6.1,0,0,0,1.62,8.25l.28.19a6.12,6.12,0,1,0,3.27-11.29,6.18,6.18,0,0,0-1.54.2c-2.56-4.19-8.65-10.46-13.19-13.79a18.18,18.18,0,0,0,4.21-2.19A11.31,11.31,0,0,1,110,74Zm3.88-26.92a2.11,2.11,0,1,1,3.57,2.26,2.14,2.14,0,0,1-2.91.65l-.09-.06A2.1,2.1,0,0,1,113.88,47.09Zm0,23.46a2.11,2.11,0,1,1,3.57,2.26,2.14,2.14,0,0,1-2.91.65l-.09-.06A2.1,2.1,0,0,1,113.88,70.55Zm0,26.3a2.11,2.11,0,1,1,3.57,2.26,2.14,2.14,0,0,1-2.91.65l-.09-.06A2.11,2.11,0,0,1,113.88,96.85Z" transform="translate(-4.35 -2.82)"/></g><path d="M103.53,111.93a6.12,6.12,0,0,0-10.72,4.74A19.86,19.86,0,0,1,87.48,118a4,4,0,0,1-2.22-1,10.71,10.71,0,0,0-4.15-1.85,37.64,37.64,0,0,0,8.58-12.83,6.12,6.12,0,1,0-5.48-9.24,6.12,6.12,0,0,0,1.62,8.06c-4.05,9.22-9.22,13.08-12.57,14.68a2,2,0,0,0-.36.17,11.26,11.26,0,0,1-2.56.81v4a12.59,12.59,0,0,0,4.25-1.19c5.35-1.36,6.84-.35,8.41.71A7.88,7.88,0,0,0,87.27,122h.31a23.61,23.61,0,0,0,7-1.72A6.13,6.13,0,0,0,98.89,122h0a6.12,6.12,0,0,0,4.64-10.1ZM87.66,95.15a2.11,2.11,0,1,1-.23,1.6A2.1,2.1,0,0,1,87.66,95.15Zm12.6,22.36a2.08,2.08,0,0,1-1.37.51,2.11,2.11,0,0,1-1.38-3.72,2.08,2.08,0,0,1,1.37-.51,2.12,2.12,0,0,1,2.11,2.28A2.09,2.09,0,0,1,100.26,117.51Z" transform="translate(-4.35 -2.82)" style="fill:#d3562c"/><path d="M79.36,48.43l.21,0Z" transform="translate(-4.35 -2.82)"/><path d="M101.3,36a6.12,6.12,0,1,0-11,4.82,13.35,13.35,0,0,1-9.94,4.29,29.15,29.15,0,0,0-10-2.32v4A24.81,24.81,0,0,1,79.1,49h0a21.59,21.59,0,0,1,8.61,7,6.32,6.32,0,0,0-.38.54,6.12,6.12,0,1,0,8.45-1.91,6.22,6.22,0,0,0-4.67-.75,26,26,0,0,0-5.34-5.57,16.35,16.35,0,0,0,7.78-5.1,6.15,6.15,0,0,0,1.77.27,6.13,6.13,0,0,0,6-7.45ZM90.73,58.68a2.07,2.07,0,0,1,.67-.66,2.11,2.11,0,1,1,1.11,3.91,2.1,2.1,0,0,1-1.12-.33A2.13,2.13,0,0,1,90.73,58.68Zm6.38-20.19a2.14,2.14,0,0,1-2.91.65l-.1-.06a2.11,2.11,0,1,1,3.29-2.17A2.08,2.08,0,0,1,97.11,38.49Z" transform="translate(-4.35 -2.82)" style="fill:#d3562c"/><path d="M110,77a6,6,0,0,0,2.11,2.65l.28.19a6.12,6.12,0,1,0,3.27-11.29l-.37,0a25.73,25.73,0,0,1,0-11.26l.34,0a6.12,6.12,0,1,0-4.15-1.63l.07.06a28.65,28.65,0,0,0,0,14.42c-.14.13-.29.25-.43.4a6.24,6.24,0,0,0-.63.82,6.16,6.16,0,0,0-.71,1.58A15.2,15.2,0,0,0,103,75.72c-2,1.32-4,2.57-9.64,2.67A32.64,32.64,0,0,0,88,78.27c-1.43.05-2.91.11-4.85,0-1.33-.07-2.1-.88-3.46-2.42-1.8-2.05-4.22-4.65-9.37-5v4c3.29.3,4.8,1.89,6.36,3.67s3.17,3.62,6.26,3.78c2.12.11,3.76.05,5.21,0A24.22,24.22,0,0,1,96,83c2.61.64,12.1,9.67,14.77,14.32-.11.14-.22.28-.31.43a6.1,6.1,0,0,0,1.62,8.25l.28.19a6.12,6.12,0,1,0,3.27-11.29,6.18,6.18,0,0,0-1.54.2c-2.56-4.19-8.65-10.46-13.19-13.79a18.18,18.18,0,0,0,4.21-2.19A11.31,11.31,0,0,1,110,77Zm3.88-26.92a2.11,2.11,0,1,1,3.57,2.26,2.14,2.14,0,0,1-2.91.65l-.09-.06A2.1,2.1,0,0,1,113.88,50.09Zm0,23.46a2.11,2.11,0,1,1,3.57,2.26,2.14,2.14,0,0,1-2.91.65l-.09-.06A2.1,2.1,0,0,1,113.88,73.55Zm0,26.3a2.11,2.11,0,1,1,3.57,2.26,2.14,2.14,0,0,1-2.91.65l-.09-.06A2.11,2.11,0,0,1,113.88,99.85Z" transform="translate(-4.35 -2.82)" style="fill:#d3562c"/><path d="M103.53,108.93a6.12,6.12,0,0,0-10.72,4.74A19.86,19.86,0,0,1,87.48,115a4,4,0,0,1-2.22-1,10.71,10.71,0,0,0-4.15-1.85A37.64,37.64,0,0,0,89.7,99.34a6.12,6.12,0,1,0-5.48-9.24,6.12,6.12,0,0,0,1.62,8.06c-4.05,9.22-9.22,13.08-12.57,14.68a2,2,0,0,0-.36.17,11.26,11.26,0,0,1-2.56.81v4a12.59,12.59,0,0,0,4.25-1.19c5.35-1.36,6.84-.35,8.41.71A7.88,7.88,0,0,0,87.27,119h.31a23.61,23.61,0,0,0,7-1.72A6.13,6.13,0,0,0,98.89,119h0a6.12,6.12,0,0,0,4.64-10.1ZM87.66,92.15a2.11,2.11,0,1,1-.23,1.6A2.1,2.1,0,0,1,87.66,92.15Zm12.6,22.36a2.08,2.08,0,0,1-1.37.51,2.11,2.11,0,0,1-1.38-3.72,2.08,2.08,0,0,1,1.37-.51,2.12,2.12,0,0,1,2.11,2.28A2.09,2.09,0,0,1,100.26,114.51Z" transform="translate(-4.35 -2.82)" style="fill:#fffedb"/><path d="M79.36,46l.21,0Z" transform="translate(-4.35 -2.82)" style="fill:#fffedb"/><path d="M101.3,33a6.12,6.12,0,1,0-11,4.82,13.35,13.35,0,0,1-9.94,4.29,29.15,29.15,0,0,0-10-2.32v4A24.8,24.8,0,0,1,79.1,46h0a21.59,21.59,0,0,1,8.61,7,6.32,6.32,0,0,0-.38.54,6.12,6.12,0,1,0,8.45-1.91,6.22,6.22,0,0,0-4.67-.75,26,26,0,0,0-5.34-5.57,16.35,16.35,0,0,0,7.78-5.1,6.15,6.15,0,0,0,1.77.27,6.13,6.13,0,0,0,6-7.45ZM90.73,55.67a2.07,2.07,0,0,1,.67-.66,2.11,2.11,0,1,1,1.11,3.91,2.1,2.1,0,0,1-1.12-.33A2.13,2.13,0,0,1,90.73,55.67Zm6.38-20.19a2.14,2.14,0,0,1-2.91.65l-.1-.06a2.11,2.11,0,1,1,3.29-2.17A2.08,2.08,0,0,1,97.11,35.49Z" transform="translate(-4.35 -2.82)" style="fill:#fffedb"/><path d="M110,74a6,6,0,0,0,2.11,2.65l.28.19a6.12,6.12,0,1,0,3.27-11.29l-.37,0a25.73,25.73,0,0,1,0-11.26l.34,0a6.12,6.12,0,1,0-4.15-1.63l.07.06a28.65,28.65,0,0,0,0,14.42c-.14.13-.29.25-.43.4a6.24,6.24,0,0,0-.63.82,6.16,6.16,0,0,0-.71,1.58A15.2,15.2,0,0,0,103,72.72c-2,1.32-4,2.57-9.64,2.67A32.64,32.64,0,0,0,88,75.27c-1.43.05-2.91.11-4.85,0-1.33-.07-2.1-.88-3.46-2.42-1.8-2.05-4.22-4.65-9.37-5v4c3.29.3,4.8,1.89,6.36,3.67s3.17,3.62,6.26,3.78c2.12.11,3.76.05,5.21,0A24.22,24.22,0,0,1,96,80c2.61.64,12.1,9.67,14.77,14.32-.11.14-.22.28-.31.43a6.1,6.1,0,0,0,1.62,8.25l.28.19a6.12,6.12,0,1,0,3.27-11.29,6.18,6.18,0,0,0-1.54.2c-2.56-4.19-8.65-10.46-13.19-13.79a18.18,18.18,0,0,0,4.21-2.19A11.31,11.31,0,0,1,110,74Zm3.88-26.92a2.11,2.11,0,1,1,3.57,2.26,2.14,2.14,0,0,1-2.91.65l-.09-.06A2.1,2.1,0,0,1,113.88,47.09Zm0,23.46a2.11,2.11,0,1,1,3.57,2.26,2.14,2.14,0,0,1-2.91.65l-.09-.06A2.1,2.1,0,0,1,113.88,70.55Zm0,26.3a2.11,2.11,0,1,1,3.57,2.26,2.14,2.14,0,0,1-2.91.65l-.09-.06A2.11,2.11,0,0,1,113.88,96.85Z" transform="translate(-4.35 -2.82)" style="fill:#fffedb"/><path d="M164.39,28.82l6.11,19,6.09-19h8.68V56.19h-6.62V49.8l.64-13.08-6.62,19.48h-4.36L161.68,36.7l.64,13.1v6.39h-6.6V28.82Z" transform="translate(-4.35 -2.82)" style="fill:#eb743b"/><path d="M201.29,54a6.75,6.75,0,0,1-2.31,1.9,6.89,6.89,0,0,1-3.12.68,8.55,8.55,0,0,1-2.75-.42A5.35,5.35,0,0,1,191,54.81a6.19,6.19,0,0,1-1.39-2.35,10.59,10.59,0,0,1-.5-3.45V35.85h6.33V49a2.7,2.7,0,0,0,.65,2,2.58,2.58,0,0,0,1.89.64,3.93,3.93,0,0,0,1.93-.41A3.08,3.08,0,0,0,201,50.12V35.85h6.37V56.19h-5.94Z" transform="translate(-4.35 -2.82)" style="fill:#eb743b"/><path d="M221.54,50.48a1.33,1.33,0,0,0-.18-.7,1.78,1.78,0,0,0-.63-.57,5.81,5.81,0,0,0-1.22-.52q-.77-.24-2-.51a17.73,17.73,0,0,1-2.79-.84,9,9,0,0,1-2.28-1.28A5.71,5.71,0,0,1,211,44.27a4.93,4.93,0,0,1-.55-2.37,5.66,5.66,0,0,1,.55-2.46,6,6,0,0,1,1.63-2,8.1,8.1,0,0,1,2.63-1.4,11.27,11.27,0,0,1,3.55-.52,13,13,0,0,1,3.7.49,8.71,8.71,0,0,1,2.81,1.36,6.07,6.07,0,0,1,1.78,2.09,5.8,5.8,0,0,1,.62,2.68h-6.35a2.18,2.18,0,0,0-2.58-2.44,2.86,2.86,0,0,0-.91.14,2.4,2.4,0,0,0-.74.4,1.91,1.91,0,0,0-.51.61,1.66,1.66,0,0,0-.19.79,1.57,1.57,0,0,0,.8,1.35,7.44,7.44,0,0,0,2.58.86,25.47,25.47,0,0,1,3,.72,9.4,9.4,0,0,1,2.51,1.18A5.7,5.7,0,0,1,227,47.56a5.32,5.32,0,0,1,.65,2.73,5.16,5.16,0,0,1-.62,2.5,5.92,5.92,0,0,1-1.78,2,9.07,9.07,0,0,1-2.79,1.32,13.11,13.11,0,0,1-3.69.48,11.2,11.2,0,0,1-3.88-.62,9,9,0,0,1-2.82-1.61,6.77,6.77,0,0,1-1.72-2.22,5.7,5.7,0,0,1-.58-2.45h5.92a2.45,2.45,0,0,0,.94,2.06,3.86,3.86,0,0,0,2.31.65,3,3,0,0,0,1.95-.53A1.68,1.68,0,0,0,221.54,50.48Z" transform="translate(-4.35 -2.82)" style="fill:#eb743b"/><path d="M230.56,30.61a3,3,0,0,1,.25-1.24,2.84,2.84,0,0,1,.72-1,3.34,3.34,0,0,1,1.11-.64,4.64,4.64,0,0,1,2.86,0,3.35,3.35,0,0,1,1.11.64,2.87,2.87,0,0,1,.72,1,3.17,3.17,0,0,1,0,2.48,2.86,2.86,0,0,1-.72,1,3.34,3.34,0,0,1-1.11.64,4.64,4.64,0,0,1-2.86,0,3.33,3.33,0,0,1-1.11-.64,2.83,2.83,0,0,1-.72-1A3,3,0,0,1,230.56,30.61Zm6.73,25.58h-6.35V35.85h6.35Z" transform="translate(-4.35 -2.82)" style="fill:#eb743b"/><path d="M249.79,51.68a2.82,2.82,0,0,0,2.07-.72,2.65,2.65,0,0,0,.71-2h5.94a7.36,7.36,0,0,1-.65,3.13,7.19,7.19,0,0,1-1.79,2.41A8.09,8.09,0,0,1,253.35,56a10.36,10.36,0,0,1-3.4.54,10.23,10.23,0,0,1-4.17-.79,8.31,8.31,0,0,1-3-2.17A9.22,9.22,0,0,1,241,50.33a13.4,13.4,0,0,1-.6-4.09v-.43a13.48,13.48,0,0,1,.6-4.1,9.28,9.28,0,0,1,1.79-3.28,8.24,8.24,0,0,1,3-2.17,10.12,10.12,0,0,1,4.14-.79,10.75,10.75,0,0,1,3.51.55,7.65,7.65,0,0,1,2.73,1.59,7.14,7.14,0,0,1,1.77,2.57,9,9,0,0,1,.63,3.46h-5.94a5,5,0,0,0-.16-1.28,2.75,2.75,0,0,0-.52-1,2.53,2.53,0,0,0-.89-.7,2.94,2.94,0,0,0-1.27-.25,2.56,2.56,0,0,0-1.57.44,2.85,2.85,0,0,0-.91,1.18,6,6,0,0,0-.42,1.74,20.13,20.13,0,0,0-.1,2.09v.43a20.21,20.21,0,0,0,.1,2.11,5.94,5.94,0,0,0,.42,1.73,2.66,2.66,0,0,0,.93,1.17A2.77,2.77,0,0,0,249.79,51.68Z" transform="translate(-4.35 -2.82)" style="fill:#eb743b"/><path d="M261.49,56.19V28.82h9.83a20.29,20.29,0,0,1,4.54.46,10,10,0,0,1,3.39,1.4A6.33,6.33,0,0,1,281.38,33a7.18,7.18,0,0,1,.73,3.34,7.87,7.87,0,0,1-.21,1.81,5.78,5.78,0,0,1-.67,1.64A5.39,5.39,0,0,1,280,41.22a6.08,6.08,0,0,1-1.79,1,6.31,6.31,0,0,1,2.07.92,5.35,5.35,0,0,1,1.37,1.39,5.56,5.56,0,0,1,.76,1.7,7.42,7.42,0,0,1,.24,1.85,7.23,7.23,0,0,1-2.59,6.08q-2.59,2-7.69,2Zm6.6-16h3.44a4.89,4.89,0,0,0,3.08-.79,2.8,2.8,0,0,0,.92-2.27,2.94,2.94,0,0,0-1-2.49,5.35,5.35,0,0,0-3.21-.76h-3.23Zm0,4.32v6.56h4.32a5.22,5.22,0,0,0,1.7-.24,3.09,3.09,0,0,0,1.15-.67,2.58,2.58,0,0,0,.65-1,3.53,3.53,0,0,0,.21-1.22,5.07,5.07,0,0,0-.19-1.43,2.66,2.66,0,0,0-.6-1.08,2.77,2.77,0,0,0-1.07-.69,4.62,4.62,0,0,0-1.6-.24Z" transform="translate(-4.35 -2.82)" style="fill:#eb743b"/><path d="M298.33,41.58l-.46,0-.56,0-.57,0-.49,0a5.63,5.63,0,0,0-2.46.46,2.83,2.83,0,0,0-1.37,1.42V56.19h-6.33V35.85H292l.21,2.61a6.2,6.2,0,0,1,1.87-2.2,4.37,4.37,0,0,1,2.58-.79,7.74,7.74,0,0,1,.93.06,5,5,0,0,1,.84.17Z" transform="translate(-4.35 -2.82)" style="fill:#eb743b"/><path d="M311.51,56.19a4.4,4.4,0,0,1-.35-.84q-.14-.46-.25-1a5.84,5.84,0,0,1-4.89,2.2,7.77,7.77,0,0,1-2.66-.45,7,7,0,0,1-2.19-1.25,6,6,0,0,1-1.49-1.93,5.54,5.54,0,0,1-.55-2.48,6.66,6.66,0,0,1,.57-2.82,5.34,5.34,0,0,1,1.75-2.1,8.67,8.67,0,0,1,3-1.32,17.32,17.32,0,0,1,4.26-.46h2V42.69a3.34,3.34,0,0,0-.56-2,2.18,2.18,0,0,0-1.86-.75,2.36,2.36,0,0,0-1.67.54,2.19,2.19,0,0,0-.58,1.67h-6.33a5.66,5.66,0,0,1,.63-2.63A6.17,6.17,0,0,1,302,37.37,9,9,0,0,1,304.85,36a12.45,12.45,0,0,1,3.67-.51,12,12,0,0,1,3.38.45,7.58,7.58,0,0,1,2.68,1.36,6.34,6.34,0,0,1,1.77,2.27,7.39,7.39,0,0,1,.64,3.17v8.33q0,1,.06,1.73a10.51,10.51,0,0,0,.17,1.29,6.72,6.72,0,0,0,.27,1,6,6,0,0,0,.37.81v.32Zm-4-4.14a3.53,3.53,0,0,0,2-.51,3.18,3.18,0,0,0,1.12-1.15V47.15h-2a4,4,0,0,0-1.5.24,2.55,2.55,0,0,0-1,.66,2.48,2.48,0,0,0-.53.95,3.9,3.9,0,0,0-.16,1.12,1.81,1.81,0,0,0,.58,1.4A2.1,2.1,0,0,0,307.54,52.05Z" transform="translate(-4.35 -2.82)" style="fill:#eb743b"/><path d="M320.44,30.61a3,3,0,0,1,.25-1.24,2.84,2.84,0,0,1,.72-1,3.34,3.34,0,0,1,1.11-.64,4.64,4.64,0,0,1,2.86,0,3.35,3.35,0,0,1,1.11.64,2.87,2.87,0,0,1,.72,1,3.17,3.17,0,0,1,0,2.48,2.86,2.86,0,0,1-.72,1,3.34,3.34,0,0,1-1.11.64,4.64,4.64,0,0,1-2.86,0,3.33,3.33,0,0,1-1.11-.64,2.83,2.83,0,0,1-.72-1A3,3,0,0,1,320.44,30.61Zm6.73,25.58h-6.35V35.85h6.35Z" transform="translate(-4.35 -2.82)" style="fill:#eb743b"/><path d="M336.89,35.85l.21,2.39a6.83,6.83,0,0,1,2.51-2.06,7.56,7.56,0,0,1,3.3-.71,7.92,7.92,0,0,1,2.58.4,4.8,4.8,0,0,1,2,1.33,6.29,6.29,0,0,1,1.31,2.44,13,13,0,0,1,.46,3.73v12.8h-6.35V43.37a4.77,4.77,0,0,0-.2-1.5,2.18,2.18,0,0,0-.56-.92,1.94,1.94,0,0,0-.9-.46,5.45,5.45,0,0,0-1.21-.12,3.26,3.26,0,0,0-1.68.39,3.09,3.09,0,0,0-1.08,1.07V56.19h-6.33V35.85Z" transform="translate(-4.35 -2.82)" style="fill:#eb743b"/><path d="M360.26,51.3h9.27v4.89H352.25V52.66l9-11.92h-8.63V35.85h16.67v3.42Z" transform="translate(-4.35 -2.82)" style="fill:#eb743b"/><path d="M169,103.14v18.33h-13v-54h21.56a26.25,26.25,0,0,1,8.76,1.37,19.27,19.27,0,0,1,6.61,3.82A16.6,16.6,0,0,1,197,78.44a18.33,18.33,0,0,1,1.45,7.33A17.05,17.05,0,0,1,197,92.9a15.39,15.39,0,0,1-4.16,5.47,19.15,19.15,0,0,1-6.61,3.53,28.74,28.74,0,0,1-8.76,1.24Zm0-10.06h8.54a10.18,10.18,0,0,0,3.51-.54,6.41,6.41,0,0,0,2.41-1.5,5.9,5.9,0,0,0,1.39-2.3,9.1,9.1,0,0,0,.45-2.89,11.11,11.11,0,0,0-.45-3.17A7.47,7.47,0,0,0,183.41,80,6.82,6.82,0,0,0,181,78.18a8.22,8.22,0,0,0-3.51-.69H169Z" transform="translate(-4.35 -2.82)" style="fill:#771b85"/><path d="M204.73,71a5.9,5.9,0,0,1,.5-2.45,5.61,5.61,0,0,1,1.43-1.93,6.59,6.59,0,0,1,2.19-1.26,9.15,9.15,0,0,1,5.64,0,6.61,6.61,0,0,1,2.19,1.26,5.62,5.62,0,0,1,1.43,1.93,6.24,6.24,0,0,1,0,4.9,5.61,5.61,0,0,1-1.43,1.93,6.6,6.6,0,0,1-2.19,1.26,9.15,9.15,0,0,1-5.64,0,6.58,6.58,0,0,1-2.19-1.26,5.6,5.6,0,0,1-1.43-1.93A5.9,5.9,0,0,1,204.73,71ZM218,121.47H205.47V81.32H218Z" transform="translate(-4.35 -2.82)" style="fill:#771b85"/><path d="M242.69,112.57a5.56,5.56,0,0,0,4.08-1.43,5.24,5.24,0,0,0,1.41-4h11.73a14.53,14.53,0,0,1-1.28,6.18,14.15,14.15,0,0,1-3.54,4.75,15.93,15.93,0,0,1-5.38,3.06,20.46,20.46,0,0,1-6.72,1.08,20.22,20.22,0,0,1-8.24-1.56,16.41,16.41,0,0,1-5.88-4.29,18.17,18.17,0,0,1-3.54-6.46,26.46,26.46,0,0,1-1.19-8.07V101a26.64,26.64,0,0,1,1.19-8.09,18.31,18.31,0,0,1,3.53-6.48,16.27,16.27,0,0,1,5.84-4.29,20,20,0,0,1,8.18-1.56,21.23,21.23,0,0,1,6.92,1.08,15.11,15.11,0,0,1,5.38,3.14,14.07,14.07,0,0,1,3.49,5.07,17.74,17.74,0,0,1,1.24,6.83H248.18a9.81,9.81,0,0,0-.32-2.52,5.48,5.48,0,0,0-1-2.06,5,5,0,0,0-1.76-1.37,5.8,5.8,0,0,0-2.5-.5,5.06,5.06,0,0,0-3.1.87,5.62,5.62,0,0,0-1.8,2.34,11.73,11.73,0,0,0-.83,3.43,39.76,39.76,0,0,0-.2,4.12v.85a40,40,0,0,0,.2,4.17,11.68,11.68,0,0,0,.83,3.41,5.23,5.23,0,0,0,1.84,2.3A5.47,5.47,0,0,0,242.69,112.57Z" transform="translate(-4.35 -2.82)" style="fill:#771b85"/><path d="M287.82,121.47a8.66,8.66,0,0,1-.69-1.65q-.28-.91-.5-1.95a11.52,11.52,0,0,1-9.65,4.34,15.35,15.35,0,0,1-5.25-.89,13.86,13.86,0,0,1-4.32-2.47,11.7,11.7,0,0,1-3-3.8,10.94,10.94,0,0,1-1.09-4.9,13.12,13.12,0,0,1,1.13-5.57,10.54,10.54,0,0,1,3.45-4.14,17.11,17.11,0,0,1,5.86-2.6,34.16,34.16,0,0,1,8.41-.91h3.86V94.83a6.6,6.6,0,0,0-1.11-4,4.3,4.3,0,0,0-3.67-1.48,4.66,4.66,0,0,0-3.3,1.08,4.32,4.32,0,0,0-1.15,3.3H264.33a11.17,11.17,0,0,1,1.24-5.2,12.2,12.2,0,0,1,3.54-4.16,17.77,17.77,0,0,1,5.55-2.75,24.55,24.55,0,0,1,7.25-1,23.77,23.77,0,0,1,6.66.89,15,15,0,0,1,5.29,2.69,12.53,12.53,0,0,1,3.49,4.49,14.59,14.59,0,0,1,1.26,6.25v16.44q0,2,.11,3.41a21,21,0,0,0,.33,2.54,13.15,13.15,0,0,0,.54,1.95,11.64,11.64,0,0,0,.72,1.6v.63ZM280,113.31a7,7,0,0,0,3.88-1,6.28,6.28,0,0,0,2.21-2.26v-6.42h-3.93a8,8,0,0,0-3,.48,5,5,0,0,0-1.93,1.3,4.9,4.9,0,0,0-1,1.87,7.66,7.66,0,0,0-.32,2.21,3.58,3.58,0,0,0,1.15,2.76A4.16,4.16,0,0,0,280,113.31Z" transform="translate(-4.35 -2.82)" style="fill:#771b85"/><path d="M329.83,92.64l-.91-.09-1.11-.09-1.13-.07c-.37,0-.69,0-1,0a11.11,11.11,0,0,0-4.86.91,5.58,5.58,0,0,0-2.71,2.8v25.42H305.63V81.32h11.73l.41,5.16a12.22,12.22,0,0,1,3.69-4.34,8.62,8.62,0,0,1,5.1-1.56,15.11,15.11,0,0,1,1.84.11A10,10,0,0,1,330,81Z" transform="translate(-4.35 -2.82)" style="fill:#771b85"/><path d="M332.05,101.1a32.6,32.6,0,0,1,1-8.35,19.38,19.38,0,0,1,3-6.49,13.59,13.59,0,0,1,4.88-4.19,14.72,14.72,0,0,1,6.77-1.48,11.22,11.22,0,0,1,5.08,1.11,12.89,12.89,0,0,1,4,3.12V64.47h12.54v57H358l-.63-4.3a13.65,13.65,0,0,1-4.19,3.69,11.26,11.26,0,0,1-5.6,1.35A13.68,13.68,0,0,1,336,116.43a19.41,19.41,0,0,1-3-6.44,31.17,31.17,0,0,1-1-8.11Zm12.51.78a28,28,0,0,0,.3,4.21,11.39,11.39,0,0,0,1,3.4,5.78,5.78,0,0,0,1.93,2.26,5.2,5.2,0,0,0,3,.82,6.76,6.76,0,0,0,3.6-.91,6.31,6.31,0,0,0,2.34-2.58V93.79a6,6,0,0,0-5.86-3.56,5.14,5.14,0,0,0-3,.82A5.9,5.9,0,0,0,346,93.33a12,12,0,0,0-1.08,3.45,26.12,26.12,0,0,0-.33,4.32Z" transform="translate(-4.35 -2.82)" style="fill:#771b85"/></g></svg>